solid AnodeTube
  facet normal 0.000000e+00 0.000000e+00 -1.000000e+00
    outer loop
      vertex   1.180508e+01 1.185757e+01 -3.367212e+02
      vertex   1.294439e+01 1.264482e+01 -3.367212e+02
      vertex   1.462351e+01 7.953476e+00 -3.367212e+02
    endloop
  endfacet
  facet normal 0.000000e+00 0.000000e+00 -1.000000e+00
    outer loop
      vertex   1.462351e+01 7.953476e+00 -3.367212e+02
      vertex   1.294439e+01 1.264482e+01 -3.367212e+02
      vertex   1.583226e+01 8.596181e+00 -3.367212e+02
    endloop
  endfacet
  facet normal 0.000000e+00 0.000000e+00 -1.000000e+00
    outer loop
      vertex   1.462351e+01 7.953476e+00 -3.367212e+02
      vertex   1.583226e+01 8.596181e+00 -3.367212e+02
      vertex   1.757386e+01 3.938065e+00 -3.367212e+02
    endloop
  endfacet
  facet normal -0.000000e+00 0.000000e+00 -1.000000e+00
    outer loop
      vertex   1.294439e+01 1.264482e+01 -3.367212e+02
      vertex   1.180508e+01 1.185757e+01 -3.367212e+02
      vertex   9.107068e+00 1.580806e+01 -3.367212e+02
    endloop
  endfacet
  facet normal 0.000000e+00 -0.000000e+00 -1.000000e+00
    outer loop
      vertex   9.107068e+00 1.580806e+01 -3.367212e+02
      vertex   1.180508e+01 1.185757e+01 -3.367212e+02
      vertex   8.037864e+00 1.485648e+01 -3.367212e+02
    endloop
  endfacet
  facet normal -0.000000e+00 0.000000e+00 -1.000000e+00
    outer loop
      vertex   9.107068e+00 1.580806e+01 -3.367212e+02
      vertex   8.037864e+00 1.485648e+01 -3.367212e+02
      vertex   4.581787e+00 1.787035e+01 -3.367212e+02
    endloop
  endfacet
  facet normal 0.000000e+00 -0.000000e+00 -1.000000e+00
    outer loop
      vertex   4.581787e+00 1.787035e+01 -3.367212e+02
      vertex   8.037864e+00 1.485648e+01 -3.367212e+02
      vertex   3.601245e+00 1.672781e+01 -3.367212e+02
    endloop
  endfacet
  facet normal -0.000000e+00 0.000000e+00 -1.000000e+00
    outer loop
      vertex   4.581787e+00 1.787035e+01 -3.367212e+02
      vertex   3.601245e+00 1.672781e+01 -3.367212e+02
      vertex   -3.230586e-01 1.869114e+01 -3.367212e+02
    endloop
  endfacet
  facet normal 0.000000e+00 -0.000000e+00 -1.000000e+00
    outer loop
      vertex   -3.230586e-01 1.869114e+01 -3.367212e+02
      vertex   3.601245e+00 1.672781e+01 -3.367212e+02
      vertex   -1.175729e+00 1.733275e+01 -3.367212e+02
    endloop
  endfacet
  facet normal 2.444374e-14 -1.534351e-14 -1.000000e+00
    outer loop
      vertex   -3.230586e-01 1.869114e+01 -3.367212e+02
      vertex   -1.175729e+00 1.733275e+01 -3.367212e+02
      vertex   -5.273212e+00 1.821450e+01 -3.367212e+02
    endloop
  endfacet
  facet normal 2.545022e-14 -1.066637e-14 -1.000000e+00
    outer loop
      vertex   -5.273212e+00 1.821450e+01 -3.367212e+02
      vertex   -1.175729e+00 1.733275e+01 -3.367212e+02
      vertex   -5.938772e+00 1.662645e+01 -3.367212e+02
    endloop
  endfacet
  facet normal 0.000000e+00 0.000000e+00 -1.000000e+00
    outer loop
      vertex   -5.273212e+00 1.821450e+01 -3.367212e+02
      vertex   -5.938772e+00 1.662645e+01 -3.367212e+02
      vertex   -9.931327e+00 1.647290e+01 -3.367212e+02
    endloop
  endfacet
  facet normal 0.000000e+00 -0.000000e+00 -1.000000e+00
    outer loop
      vertex   -9.931327e+00 1.647290e+01 -3.367212e+02
      vertex   -5.938772e+00 1.662645e+01 -3.367212e+02
      vertex   -1.033463e+01 1.466129e+01 -3.367212e+02
    endloop
  endfacet
  facet normal 0.000000e+00 0.000000e+00 -1.000000e+00
    outer loop
      vertex   -9.931327e+00 1.647290e+01 -3.367212e+02
      vertex   -1.033463e+01 1.466129e+01 -3.367212e+02
      vertex   -1.397996e+01 1.358504e+01 -3.367212e+02
    endloop
  endfacet
  facet normal 0.000000e+00 -0.000000e+00 -1.000000e+00
    outer loop
      vertex   -1.397996e+01 1.358504e+01 -3.367212e+02
      vertex   -1.033463e+01 1.466129e+01 -3.367212e+02
      vertex   -1.403729e+01 1.158302e+01 -3.367212e+02
    endloop
  endfacet
  facet normal 7.446635e-14 -2.132166e-15 -1.000000e+00
    outer loop
      vertex   -1.397996e+01 1.358504e+01 -3.367212e+02
      vertex   -1.403729e+01 1.158302e+01 -3.367212e+02
      vertex   -1.714321e+01 9.747710e+00 -3.367212e+02
    endloop
  endfacet
  facet normal 6.636710e-14 1.157436e-14 -1.000000e+00
    outer loop
      vertex   -1.714321e+01 9.747710e+00 -3.367212e+02
      vertex   -1.403729e+01 1.158302e+01 -3.367212e+02
      vertex   -1.677213e+01 7.619925e+00 -3.367212e+02
    endloop
  endfacet
  facet normal 0.000000e+00 -0.000000e+00 -1.000000e+00
    outer loop
      vertex   -1.714321e+01 9.747710e+00 -3.367212e+02
      vertex   -1.677213e+01 7.619925e+00 -3.367212e+02
      vertex   -1.920550e+01 5.222429e+00 -3.367212e+02
    endloop
  endfacet
  facet normal 0.000000e+00 0.000000e+00 -1.000000e+00
    outer loop
      vertex   -1.920550e+01 5.222429e+00 -3.367212e+02
      vertex   -1.677213e+01 7.619925e+00 -3.367212e+02
      vertex   -1.833632e+01 3.065945e+00 -3.367212e+02
    endloop
  endfacet
  facet normal 0.000000e+00 -0.000000e+00 -1.000000e+00
    outer loop
      vertex   -1.920550e+01 5.222429e+00 -3.367212e+02
      vertex   -1.833632e+01 3.065945e+00 -3.367212e+02
      vertex   -2.002629e+01 3.175832e-01 -3.367212e+02
    endloop
  endfacet
  facet normal 0.000000e+00 0.000000e+00 -1.000000e+00
    outer loop
      vertex   -2.002629e+01 3.175832e-01 -3.367212e+02
      vertex   -1.833632e+01 3.065945e+00 -3.367212e+02
      vertex   -1.861387e+01 -1.741176e+00 -3.367212e+02
    endloop
  endfacet
  facet normal 0.000000e+00 0.000000e+00 -1.000000e+00
    outer loop
      vertex   -2.002629e+01 3.175832e-01 -3.367212e+02
      vertex   -1.861387e+01 -1.741176e+00 -3.367212e+02
      vertex   -1.954964e+01 -4.632570e+00 -3.367212e+02
    endloop
  endfacet
  facet normal 0.000000e+00 0.000000e+00 -1.000000e+00
    outer loop
      vertex   -1.954964e+01 -4.632570e+00 -3.367212e+02
      vertex   -1.861387e+01 -1.741176e+00 -3.367212e+02
      vertex   -1.758417e+01 -6.444915e+00 -3.367212e+02
    endloop
  endfacet
  facet normal 0.000000e+00 0.000000e+00 -1.000000e+00
    outer loop
      vertex   -1.954964e+01 -4.632570e+00 -3.367212e+02
      vertex   -1.758417e+01 -6.444915e+00 -3.367212e+02
      vertex   -1.780805e+01 -9.290685e+00 -3.367212e+02
    endloop
  endfacet
  facet normal 0.000000e+00 0.000000e+00 -1.000000e+00
    outer loop
      vertex   -1.780805e+01 -9.290685e+00 -3.367212e+02
      vertex   -1.758417e+01 -6.444915e+00 -3.367212e+02
      vertex   -1.532361e+01 -1.069642e+01 -3.367212e+02
    endloop
  endfacet
  facet normal 0.000000e+00 0.000000e+00 -1.000000e+00
    outer loop
      vertex   -1.780805e+01 -9.290685e+00 -3.367212e+02
      vertex   -1.532361e+01 -1.069642e+01 -3.367212e+02
      vertex   -1.492018e+01 -1.333932e+01 -3.367212e+02
    endloop
  endfacet
  facet normal 0.000000e+00 0.000000e+00 -1.000000e+00
    outer loop
      vertex   -1.492018e+01 -1.333932e+01 -3.367212e+02
      vertex   -1.532361e+01 -1.069642e+01 -3.367212e+02
      vertex   -1.199983e+01 -1.418037e+01 -3.367212e+02
    endloop
  endfacet
  facet normal 0.000000e+00 0.000000e+00 -1.000000e+00
    outer loop
      vertex   -1.492018e+01 -1.333932e+01 -3.367212e+02
      vertex   -1.199983e+01 -1.418037e+01 -3.367212e+02
      vertex   -1.108286e+01 -1.650257e+01 -3.367212e+02
    endloop
  endfacet
  facet normal 0.000000e+00 0.000000e+00 -1.000000e+00
    outer loop
      vertex   -1.108286e+01 -1.650257e+01 -3.367212e+02
      vertex   -1.199983e+01 -1.418037e+01 -3.367212e+02
      vertex   -7.859344e+00 -1.663839e+01 -3.367212e+02
    endloop
  endfacet
  facet normal 0.000000e+00 0.000000e+00 -1.000000e+00
    outer loop
      vertex   -1.108286e+01 -1.650257e+01 -3.367212e+02
      vertex   -7.859344e+00 -1.663839e+01 -3.367212e+02
      vertex   -6.557575e+00 -1.856486e+01 -3.367212e+02
    endloop
  endfacet
  facet normal 0.000000e+00 0.000000e+00 -1.000000e+00
    outer loop
      vertex   -6.557575e+00 -1.856486e+01 -3.367212e+02
      vertex   -7.859344e+00 -1.663839e+01 -3.367212e+02
      vertex   -3.209236e+00 -1.788816e+01 -3.367212e+02
    endloop
  endfacet
  facet normal 0.000000e+00 0.000000e+00 -1.000000e+00
    outer loop
      vertex   -6.557575e+00 -1.856486e+01 -3.367212e+02
      vertex   -3.209236e+00 -1.788816e+01 -3.367212e+02
      vertex   -1.652729e+00 -1.938565e+01 -3.367212e+02
    endloop
  endfacet
  facet normal 4.670759e-14 4.854852e-14 -1.000000e+00
    outer loop
      vertex   -1.652729e+00 -1.938565e+01 -3.367212e+02
      vertex   -3.209236e+00 -1.788816e+01 -3.367212e+02
      vertex   1.605619e+00 -1.783701e+01 -3.367212e+02
    endloop
  endfacet
  facet normal 3.987341e-14 6.292769e-14 -1.000000e+00
    outer loop
      vertex   -1.652729e+00 -1.938565e+01 -3.367212e+02
      vertex   1.605619e+00 -1.783701e+01 -3.367212e+02
      vertex   3.297424e+00 -1.890900e+01 -3.367212e+02
    endloop
  endfacet
  facet normal 0.000000e+00 0.000000e+00 -1.000000e+00
    outer loop
      vertex   3.297424e+00 -1.890900e+01 -3.367212e+02
      vertex   1.605619e+00 -1.783701e+01 -3.367212e+02
      vertex   6.228124e+00 -1.648872e+01 -3.367212e+02
    endloop
  endfacet
  facet normal 0.000000e+00 0.000000e+00 -1.000000e+00
    outer loop
      vertex   3.297424e+00 -1.890900e+01 -3.367212e+02
      vertex   6.228124e+00 -1.648872e+01 -3.367212e+02
      vertex   7.955539e+00 -1.716740e+01 -3.367212e+02
    endloop
  endfacet
  facet normal 0.000000e+00 0.000000e+00 -1.000000e+00
    outer loop
      vertex   7.955539e+00 -1.716740e+01 -3.367212e+02
      vertex   6.228124e+00 -1.648872e+01 -3.367212e+02
      vertex   1.031545e+01 -1.394329e+01 -3.367212e+02
    endloop
  endfacet
  facet normal 0.000000e+00 0.000000e+00 -1.000000e+00
    outer loop
      vertex   7.955539e+00 -1.716740e+01 -3.367212e+02
      vertex   1.031545e+01 -1.394329e+01 -3.367212e+02
      vertex   1.200417e+01 -1.427954e+01 -3.367212e+02
    endloop
  endfacet
  facet normal 5.388758e-15 2.706375e-14 -1.000000e+00
    outer loop
      vertex   1.200417e+01 -1.427954e+01 -3.367212e+02
      vertex   1.031545e+01 -1.394329e+01 -3.367212e+02
      vertex   1.356446e+01 -1.038951e+01 -3.367212e+02
    endloop
  endfacet
  facet normal 9.484203e-16 2.884476e-14 -1.000000e+00
    outer loop
      vertex   1.200417e+01 -1.427954e+01 -3.367212e+02
      vertex   1.356446e+01 -1.038951e+01 -3.367212e+02
      vertex   1.516742e+01 -1.044221e+01 -3.367212e+02
    endloop
  endfacet
  facet normal 0.000000e+00 0.000000e+00 -1.000000e+00
    outer loop
      vertex   1.516742e+01 -1.044221e+01 -3.367212e+02
      vertex   1.356446e+01 -1.038951e+01 -3.367212e+02
      vertex   1.573419e+01 -6.090936e+00 -3.367212e+02
    endloop
  endfacet
  facet normal 0.000000e+00 0.000000e+00 -1.000000e+00
    outer loop
      vertex   1.516742e+01 -1.044221e+01 -3.367212e+02
      vertex   1.573419e+01 -6.090936e+00 -3.367212e+02
      vertex   1.722971e+01 -5.916933e+00 -3.367212e+02
    endloop
  endfacet
  facet normal -0.000000e+00 0.000000e+00 -1.000000e+00
    outer loop
      vertex   1.722971e+01 -5.916933e+00 -3.367212e+02
      vertex   1.573419e+01 -6.090936e+00 -3.367212e+02
      vertex   1.666371e+01 -1.366381e+00 -3.367212e+02
    endloop
  endfacet
  facet normal 0.000000e+00 0.000000e+00 -1.000000e+00
    outer loop
      vertex   1.722971e+01 -5.916933e+00 -3.367212e+02
      vertex   1.666371e+01 -1.366381e+00 -3.367212e+02
      vertex   1.805050e+01 -1.012088e+00 -3.367212e+02
    endloop
  endfacet
  facet normal -0.000000e+00 0.000000e+00 -1.000000e+00
    outer loop
      vertex   1.805050e+01 -1.012088e+00 -3.367212e+02
      vertex   1.666371e+01 -1.366381e+00 -3.367212e+02
      vertex   1.628410e+01 3.433758e+00 -3.367212e+02
    endloop
  endfacet
  facet normal 0.000000e+00 0.000000e+00 -1.000000e+00
    outer loop
      vertex   1.805050e+01 -1.012088e+00 -3.367212e+02
      vertex   1.628410e+01 3.433758e+00 -3.367212e+02
      vertex   1.757386e+01 3.938065e+00 -3.367212e+02
    endloop
  endfacet
  facet normal -0.000000e+00 0.000000e+00 -1.000000e+00
    outer loop
      vertex   1.757386e+01 3.938065e+00 -3.367212e+02
      vertex   1.628410e+01 3.433758e+00 -3.367212e+02
      vertex   1.462351e+01 7.953476e+00 -3.367212e+02
    endloop
  endfacet
  facet normal -9.386501e-01 -3.448709e-01 -9.881954e-15
    outer loop
      vertex   1.628410e+01 3.433758e+00 -3.367212e+02
      vertex   1.628410e+01 3.433758e+00 -2.367212e+02
      vertex   1.462351e+01 7.953476e+00 -3.367212e+02
    endloop
  endfacet
  facet normal -9.386501e-01 -3.448709e-01 -9.890797e-15
    outer loop
      vertex   1.462351e+01 7.953476e+00 -3.367212e+02
      vertex   1.628410e+01 3.433758e+00 -2.367212e+02
      vertex   1.462351e+01 7.953476e+00 -2.367212e+02
    endloop
  endfacet
  facet normal -8.107974e-01 -5.853269e-01 -9.421776e-15
    outer loop
      vertex   1.462351e+01 7.953476e+00 -3.367212e+02
      vertex   1.462351e+01 7.953476e+00 -2.367212e+02
      vertex   1.180508e+01 1.185757e+01 -3.367212e+02
    endloop
  endfacet
  facet normal -8.107974e-01 -5.853269e-01 -9.384961e-15
    outer loop
      vertex   1.180508e+01 1.185757e+01 -3.367212e+02
      vertex   1.462351e+01 7.953476e+00 -2.367212e+02
      vertex   1.180508e+01 1.185757e+01 -2.367212e+02
    endloop
  endfacet
  facet normal -6.228115e-01 -7.823719e-01 -8.237528e-15
    outer loop
      vertex   1.180508e+01 1.185757e+01 -3.367212e+02
      vertex   1.180508e+01 1.185757e+01 -2.367212e+02
      vertex   8.037864e+00 1.485648e+01 -3.367212e+02
    endloop
  endfacet
  facet normal -6.228115e-01 -7.823719e-01 -8.295679e-15
    outer loop
      vertex   8.037864e+00 1.485648e+01 -3.367212e+02
      vertex   1.180508e+01 1.185757e+01 -2.367212e+02
      vertex   8.037864e+00 1.485648e+01 -2.367212e+02
    endloop
  endfacet
  facet normal -3.886346e-01 -9.213920e-01 -6.523136e-15
    outer loop
      vertex   8.037864e+00 1.485648e+01 -3.367212e+02
      vertex   8.037864e+00 1.485648e+01 -2.367212e+02
      vertex   3.601245e+00 1.672781e+01 -3.367212e+02
    endloop
  endfacet
  facet normal -3.886346e-01 -9.213920e-01 -6.511889e-15
    outer loop
      vertex   3.601245e+00 1.672781e+01 -3.367212e+02
      vertex   8.037864e+00 1.485648e+01 -2.367212e+02
      vertex   3.601245e+00 1.672781e+01 -2.367212e+02
    endloop
  endfacet
  facet normal -1.256344e-01 -9.920766e-01 -4.275498e-15
    outer loop
      vertex   3.601245e+00 1.672781e+01 -3.367212e+02
      vertex   3.601245e+00 1.672781e+01 -2.367212e+02
      vertex   -1.175729e+00 1.733275e+01 -3.367212e+02
    endloop
  endfacet
  facet normal -1.256344e-01 -9.920766e-01 -4.271035e-15
    outer loop
      vertex   -1.175729e+00 1.733275e+01 -3.367212e+02
      vertex   3.601245e+00 1.672781e+01 -2.367212e+02
      vertex   -1.175729e+00 1.733275e+01 -2.367212e+02
    endloop
  endfacet
  facet normal 1.466836e-01 -9.891835e-01 -1.727225e-15
    outer loop
      vertex   -1.175729e+00 1.733275e+01 -3.367212e+02
      vertex   -1.175729e+00 1.733275e+01 -2.367212e+02
      vertex   -5.938772e+00 1.662645e+01 -3.367212e+02
    endloop
  endfacet
  facet normal 1.466836e-01 -9.891835e-01 -1.654333e-15
    outer loop
      vertex   -5.938772e+00 1.662645e+01 -3.367212e+02
      vertex   -1.175729e+00 1.733275e+01 -2.367212e+02
      vertex   -5.938772e+00 1.662645e+01 -2.367212e+02
    endloop
  endfacet
  facet normal 4.081226e-01 -9.129271e-01 1.016803e-15
    outer loop
      vertex   -5.938772e+00 1.662645e+01 -3.367212e+02
      vertex   -5.938772e+00 1.662645e+01 -2.367212e+02
      vertex   -1.033463e+01 1.466129e+01 -3.367212e+02
    endloop
  endfacet
  facet normal 4.081226e-01 -9.129271e-01 1.022335e-15
    outer loop
      vertex   -1.033463e+01 1.466129e+01 -3.367212e+02
      vertex   -5.938772e+00 1.662645e+01 -2.367212e+02
      vertex   -1.033463e+01 1.466129e+01 -2.367212e+02
    endloop
  endfacet
  facet normal 6.392931e-01 -7.689631e-01 3.632937e-15
    outer loop
      vertex   -1.033463e+01 1.466129e+01 -3.367212e+02
      vertex   -1.033463e+01 1.466129e+01 -2.367212e+02
      vertex   -1.403729e+01 1.158302e+01 -3.367212e+02
    endloop
  endfacet
  facet normal 6.392931e-01 -7.689631e-01 3.619277e-15
    outer loop
      vertex   -1.403729e+01 1.158302e+01 -3.367212e+02
      vertex   -1.033463e+01 1.466129e+01 -2.367212e+02
      vertex   -1.403729e+01 1.158302e+01 -2.367212e+02
    endloop
  endfacet
  facet normal 8.230502e-01 -5.679687e-01 5.964011e-15
    outer loop
      vertex   -1.403729e+01 1.158302e+01 -3.367212e+02
      vertex   -1.403729e+01 1.158302e+01 -2.367212e+02
      vertex   -1.677213e+01 7.619925e+00 -3.367212e+02
    endloop
  endfacet
  facet normal 8.230502e-01 -5.679687e-01 5.943832e-15
    outer loop
      vertex   -1.677213e+01 7.619925e+00 -3.367212e+02
      vertex   -1.403729e+01 1.158302e+01 -2.367212e+02
      vertex   -1.677213e+01 7.619925e+00 -2.367212e+02
    endloop
  endfacet
  facet normal 9.457654e-01 -3.248506e-01 7.854880e-15
    outer loop
      vertex   -1.677213e+01 7.619925e+00 -3.367212e+02
      vertex   -1.677213e+01 7.619925e+00 -2.367212e+02
      vertex   -1.833632e+01 3.065945e+00 -3.367212e+02
    endloop
  endfacet
  facet normal 9.457654e-01 -3.248506e-01 7.900021e-15
    outer loop
      vertex   -1.833632e+01 3.065945e+00 -3.367212e+02
      vertex   -1.677213e+01 7.619925e+00 -2.367212e+02
      vertex   -1.833632e+01 3.065945e+00 -2.367212e+02
    endloop
  endfacet
  facet normal 9.983374e-01 -5.763978e-02 9.220882e-15
    outer loop
      vertex   -1.833632e+01 3.065945e+00 -3.367212e+02
      vertex   -1.833632e+01 3.065945e+00 -2.367212e+02
      vertex   -1.861387e+01 -1.741176e+00 -3.367212e+02
    endloop
  endfacet
  facet normal 9.983374e-01 -5.763978e-02 9.187462e-15
    outer loop
      vertex   -1.861387e+01 -1.741176e+00 -3.367212e+02
      vertex   -1.833632e+01 3.065945e+00 -2.367212e+02
      vertex   -1.861387e+01 -1.741176e+00 -2.367212e+02
    endloop
  endfacet
  facet normal 9.768674e-01 2.138459e-01 9.815570e-15
    outer loop
      vertex   -1.861387e+01 -1.741176e+00 -3.367212e+02
      vertex   -1.861387e+01 -1.741176e+00 -2.367212e+02
      vertex   -1.758417e+01 -6.444915e+00 -3.367212e+02
    endloop
  endfacet
  facet normal 9.768674e-01 2.138459e-01 9.815570e-15
    outer loop
      vertex   -1.758417e+01 -6.444915e+00 -3.367212e+02
      vertex   -1.861387e+01 -1.741176e+00 -2.367212e+02
      vertex   -1.758417e+01 -6.444915e+00 -2.367212e+02
    endloop
  endfacet
  facet normal 8.829476e-01 4.694716e-01 9.715703e-15
    outer loop
      vertex   -1.758417e+01 -6.444915e+00 -3.367212e+02
      vertex   -1.758417e+01 -6.444915e+00 -2.367212e+02
      vertex   -1.532361e+01 -1.069642e+01 -3.367212e+02
    endloop
  endfacet
  facet normal 8.829476e-01 4.694716e-01 9.731387e-15
    outer loop
      vertex   -1.532361e+01 -1.069642e+01 -3.367212e+02
      vertex   -1.758417e+01 -6.444915e+00 -2.367212e+02
      vertex   -1.532361e+01 -1.069642e+01 -2.367212e+02
    endloop
  endfacet
  facet normal 7.235436e-01 6.902787e-01 8.908119e-15
    outer loop
      vertex   -1.532361e+01 -1.069642e+01 -3.367212e+02
      vertex   -1.532361e+01 -1.069642e+01 -2.367212e+02
      vertex   -1.199983e+01 -1.418037e+01 -3.367212e+02
    endloop
  endfacet
  facet normal 7.235436e-01 6.902787e-01 8.884777e-15
    outer loop
      vertex   -1.199983e+01 -1.418037e+01 -3.367212e+02
      vertex   -1.532361e+01 -1.069642e+01 -2.367212e+02
      vertex   -1.199983e+01 -1.418037e+01 -2.367212e+02
    endloop
  endfacet
  facet normal 5.104777e-01 8.598910e-01 7.381213e-15
    outer loop
      vertex   -1.199983e+01 -1.418037e+01 -3.367212e+02
      vertex   -1.199983e+01 -1.418037e+01 -2.367212e+02
      vertex   -7.859344e+00 -1.663839e+01 -3.367212e+02
    endloop
  endfacet
  facet normal 5.104777e-01 8.598910e-01 7.485275e-15
    outer loop
      vertex   -7.859344e+00 -1.663839e+01 -3.367212e+02
      vertex   -1.199983e+01 -1.418037e+01 -2.367212e+02
      vertex   -7.859344e+00 -1.663839e+01 -2.367212e+02
    endloop
  endfacet
  facet normal 2.595520e-01 9.657291e-01 5.458235e-15
    outer loop
      vertex   -7.859344e+00 -1.663839e+01 -3.367212e+02
      vertex   -7.859344e+00 -1.663839e+01 -2.367212e+02
      vertex   -3.209236e+00 -1.788816e+01 -3.367212e+02
    endloop
  endfacet
  facet normal 2.595520e-01 9.657291e-01 5.462846e-15
    outer loop
      vertex   -3.209236e+00 -1.788816e+01 -3.367212e+02
      vertex   -7.859344e+00 -1.663839e+01 -2.367212e+02
      vertex   -3.209236e+00 -1.788816e+01 -2.367212e+02
    endloop
  endfacet
  facet normal -1.062354e-02 9.999436e-01 3.026194e-15
    outer loop
      vertex   -3.209236e+00 -1.788816e+01 -3.367212e+02
      vertex   -3.209236e+00 -1.788816e+01 -2.367212e+02
      vertex   1.605619e+00 -1.783701e+01 -3.367212e+02
    endloop
  endfacet
  facet normal -1.062354e-02 9.999436e-01 3.026572e-15
    outer loop
      vertex   1.605619e+00 -1.783701e+01 -3.367212e+02
      vertex   -3.209236e+00 -1.788816e+01 -2.367212e+02
      vertex   1.605619e+00 -1.783701e+01 -2.367212e+02
    endloop
  endfacet
  facet normal -2.800111e-01 9.599968e-01 3.750519e-16
    outer loop
      vertex   1.605619e+00 -1.783701e+01 -3.367212e+02
      vertex   1.605619e+00 -1.783701e+01 -2.367212e+02
      vertex   6.228124e+00 -1.648872e+01 -3.367212e+02
    endloop
  endfacet
  facet normal -2.800111e-01 9.599968e-01 2.968921e-16
    outer loop
      vertex   6.228124e+00 -1.648872e+01 -3.367212e+02
      vertex   1.605619e+00 -1.783701e+01 -2.367212e+02
      vertex   6.228124e+00 -1.648872e+01 -2.367212e+02
    endloop
  endfacet
  facet normal -5.286316e-01 8.488514e-01 -2.383379e-15
    outer loop
      vertex   6.228124e+00 -1.648872e+01 -3.367212e+02
      vertex   6.228124e+00 -1.648872e+01 -2.367212e+02
      vertex   1.031545e+01 -1.394329e+01 -3.367212e+02
    endloop
  endfacet
  facet normal -5.286316e-01 8.488514e-01 -2.402160e-15
    outer loop
      vertex   1.031545e+01 -1.394329e+01 -3.367212e+02
      vertex   6.228124e+00 -1.648872e+01 -2.367212e+02
      vertex   1.031545e+01 -1.394329e+01 -2.367212e+02
    endloop
  endfacet
  facet normal -7.380459e-01 6.747506e-01 -4.913106e-15
    outer loop
      vertex   1.031545e+01 -1.394329e+01 -3.367212e+02
      vertex   1.031545e+01 -1.394329e+01 -2.367212e+02
      vertex   1.356446e+01 -1.038951e+01 -3.367212e+02
    endloop
  endfacet
  facet normal -7.380459e-01 6.747506e-01 -4.790998e-15
    outer loop
      vertex   1.356446e+01 -1.038951e+01 -3.367212e+02
      vertex   1.031545e+01 -1.394329e+01 -2.367212e+02
      vertex   1.356446e+01 -1.038951e+01 -2.367212e+02
    endloop
  endfacet
  facet normal -8.927226e-01 4.506066e-01 -6.963919e-15
    outer loop
      vertex   1.356446e+01 -1.038951e+01 -3.367212e+02
      vertex   1.356446e+01 -1.038951e+01 -2.367212e+02
      vertex   1.573419e+01 -6.090936e+00 -3.367212e+02
    endloop
  endfacet
  facet normal -8.927226e-01 4.506066e-01 -7.027653e-15
    outer loop
      vertex   1.573419e+01 -6.090936e+00 -3.367212e+02
      vertex   1.356446e+01 -1.038951e+01 -2.367212e+02
      vertex   1.573419e+01 -6.090936e+00 -2.367212e+02
    endloop
  endfacet
  facet normal -9.811903e-01 1.930432e-01 -8.668934e-15
    outer loop
      vertex   1.573419e+01 -6.090936e+00 -3.367212e+02
      vertex   1.573419e+01 -6.090936e+00 -2.367212e+02
      vertex   1.666371e+01 -1.366381e+00 -3.367212e+02
    endloop
  endfacet
  facet normal -9.811903e-01 1.930432e-01 -8.536357e-15
    outer loop
      vertex   1.666371e+01 -1.366381e+00 -3.367212e+02
      vertex   1.573419e+01 -6.090936e+00 -2.367212e+02
      vertex   1.666371e+01 -1.366381e+00 -2.367212e+02
    endloop
  endfacet
  facet normal -9.968875e-01 -7.883734e-02 -9.522814e-15
    outer loop
      vertex   1.666371e+01 -1.366381e+00 -3.367212e+02
      vertex   1.666371e+01 -1.366381e+00 -2.367212e+02
      vertex   1.628410e+01 3.433758e+00 -3.367212e+02
    endloop
  endfacet
  facet normal -9.968875e-01 -7.883734e-02 -9.596448e-15
    outer loop
      vertex   1.628410e+01 3.433758e+00 -3.367212e+02
      vertex   1.666371e+01 -1.366381e+00 -2.367212e+02
      vertex   1.628410e+01 3.433758e+00 -2.367212e+02
    endloop
  endfacet
  facet normal 8.141155e-01 5.807030e-01 9.496734e-15
    outer loop
      vertex   1.294439e+01 1.264482e+01 -3.367212e+02
      vertex   1.294439e+01 1.264482e+01 -2.367212e+02
      vertex   1.583226e+01 8.596181e+00 -3.367212e+02
    endloop
  endfacet
  facet normal 8.141155e-01 5.807030e-01 9.459518e-15
    outer loop
      vertex   1.583226e+01 8.596181e+00 -3.367212e+02
      vertex   1.294439e+01 1.264482e+01 -2.367212e+02
      vertex   1.583226e+01 8.596181e+00 -2.367212e+02
    endloop
  endfacet
  facet normal 9.366722e-01 3.502074e-01 9.900922e-15
    outer loop
      vertex   1.583226e+01 8.596181e+00 -3.367212e+02
      vertex   1.583226e+01 8.596181e+00 -2.367212e+02
      vertex   1.757386e+01 3.938065e+00 -3.367212e+02
    endloop
  endfacet
  facet normal 9.366722e-01 3.502074e-01 9.921757e-15
    outer loop
      vertex   1.757386e+01 3.938065e+00 -3.367212e+02
      vertex   1.583226e+01 8.596181e+00 -2.367212e+02
      vertex   1.757386e+01 3.938065e+00 -2.367212e+02
    endloop
  endfacet
  facet normal 9.953962e-01 9.584575e-02 9.699552e-15
    outer loop
      vertex   1.757386e+01 3.938065e+00 -3.367212e+02
      vertex   1.757386e+01 3.938065e+00 -2.367212e+02
      vertex   1.805050e+01 -1.012088e+00 -3.367212e+02
    endloop
  endfacet
  facet normal 9.953962e-01 9.584575e-02 9.622015e-15
    outer loop
      vertex   1.805050e+01 -1.012088e+00 -3.367212e+02
      vertex   1.757386e+01 3.938065e+00 -2.367212e+02
      vertex   1.805050e+01 -1.012088e+00 -2.367212e+02
    endloop
  endfacet
  facet normal 9.862856e-01 -1.650476e-01 8.757986e-15
    outer loop
      vertex   1.805050e+01 -1.012088e+00 -3.367212e+02
      vertex   1.805050e+01 -1.012088e+00 -2.367212e+02
      vertex   1.722971e+01 -5.916933e+00 -3.367212e+02
    endloop
  endfacet
  facet normal 9.862856e-01 -1.650476e-01 8.734532e-15
    outer loop
      vertex   1.722971e+01 -5.916933e+00 -3.367212e+02
      vertex   1.805050e+01 -1.012088e+00 -2.367212e+02
      vertex   1.722971e+01 -5.916933e+00 -2.367212e+02
    endloop
  endfacet
  facet normal 9.099613e-01 -4.146932e-01 7.238184e-15
    outer loop
      vertex   1.722971e+01 -5.916933e+00 -3.367212e+02
      vertex   1.722971e+01 -5.916933e+00 -2.367212e+02
      vertex   1.516742e+01 -1.044221e+01 -3.367212e+02
    endloop
  endfacet
  facet normal 9.099613e-01 -4.146932e-01 7.229596e-15
    outer loop
      vertex   1.516742e+01 -1.044221e+01 -3.367212e+02
      vertex   1.722971e+01 -5.916933e+00 -2.367212e+02
      vertex   1.516742e+01 -1.044221e+01 -2.367212e+02
    endloop
  endfacet
  facet normal 7.716246e-01 -6.360782e-01 5.301914e-15
    outer loop
      vertex   1.516742e+01 -1.044221e+01 -3.367212e+02
      vertex   1.516742e+01 -1.044221e+01 -2.367212e+02
      vertex   1.200417e+01 -1.427954e+01 -3.367212e+02
    endloop
  endfacet
  facet normal 7.716246e-01 -6.360782e-01 5.284131e-15
    outer loop
      vertex   1.200417e+01 -1.427954e+01 -3.367212e+02
      vertex   1.516742e+01 -1.044221e+01 -2.367212e+02
      vertex   1.200417e+01 -1.427954e+01 -2.367212e+02
    endloop
  endfacet
  facet normal 5.807030e-01 -8.141155e-01 2.975699e-15
    outer loop
      vertex   1.200417e+01 -1.427954e+01 -3.367212e+02
      vertex   1.200417e+01 -1.427954e+01 -2.367212e+02
      vertex   7.955539e+00 -1.716740e+01 -3.367212e+02
    endloop
  endfacet
  facet normal 5.807030e-01 -8.141155e-01 2.921898e-15
    outer loop
      vertex   7.955539e+00 -1.716740e+01 -3.367212e+02
      vertex   1.200417e+01 -1.427954e+01 -2.367212e+02
      vertex   7.955539e+00 -1.716740e+01 -2.367212e+02
    endloop
  endfacet
  facet normal 3.502074e-01 -9.366722e-01 3.686936e-16
    outer loop
      vertex   7.955539e+00 -1.716740e+01 -3.367212e+02
      vertex   7.955539e+00 -1.716740e+01 -2.367212e+02
      vertex   3.297424e+00 -1.890900e+01 -3.367212e+02
    endloop
  endfacet
  facet normal 3.502074e-01 -9.366722e-01 3.313680e-16
    outer loop
      vertex   3.297424e+00 -1.890900e+01 -3.367212e+02
      vertex   7.955539e+00 -1.716740e+01 -2.367212e+02
      vertex   3.297424e+00 -1.890900e+01 -2.367212e+02
    endloop
  endfacet
  facet normal 9.584575e-02 -9.953962e-01 -2.219852e-15
    outer loop
      vertex   3.297424e+00 -1.890900e+01 -3.367212e+02
      vertex   3.297424e+00 -1.890900e+01 -2.367212e+02
      vertex   -1.652729e+00 -1.938565e+01 -3.367212e+02
    endloop
  endfacet
  facet normal 9.584575e-02 -9.953962e-01 -2.221555e-15
    outer loop
      vertex   -1.652729e+00 -1.938565e+01 -3.367212e+02
      vertex   3.297424e+00 -1.890900e+01 -2.367212e+02
      vertex   -1.652729e+00 -1.938565e+01 -2.367212e+02
    endloop
  endfacet
  facet normal -1.650476e-01 -9.862856e-01 -4.616861e-15
    outer loop
      vertex   -1.652729e+00 -1.938565e+01 -3.367212e+02
      vertex   -1.652729e+00 -1.938565e+01 -2.367212e+02
      vertex   -6.557575e+00 -1.856486e+01 -3.367212e+02
    endloop
  endfacet
  facet normal -1.650476e-01 -9.862856e-01 -4.619793e-15
    outer loop
      vertex   -6.557575e+00 -1.856486e+01 -3.367212e+02
      vertex   -1.652729e+00 -1.938565e+01 -2.367212e+02
      vertex   -6.557575e+00 -1.856486e+01 -2.367212e+02
    endloop
  endfacet
  facet normal -4.146932e-01 -9.099613e-01 -6.704902e-15
    outer loop
      vertex   -6.557575e+00 -1.856486e+01 -3.367212e+02
      vertex   -6.557575e+00 -1.856486e+01 -2.367212e+02
      vertex   -1.108286e+01 -1.650257e+01 -3.367212e+02
    endloop
  endfacet
  facet normal -4.146932e-01 -9.099613e-01 -6.704902e-15
    outer loop
      vertex   -1.108286e+01 -1.650257e+01 -3.367212e+02
      vertex   -6.557575e+00 -1.856486e+01 -2.367212e+02
      vertex   -1.108286e+01 -1.650257e+01 -2.367212e+02
    endloop
  endfacet
  facet normal -6.360782e-01 -7.716246e-01 -8.333084e-15
    outer loop
      vertex   -1.108286e+01 -1.650257e+01 -3.367212e+02
      vertex   -1.108286e+01 -1.650257e+01 -2.367212e+02
      vertex   -1.492018e+01 -1.333932e+01 -3.367212e+02
    endloop
  endfacet
  facet normal -6.360782e-01 -7.716246e-01 -8.399210e-15
    outer loop
      vertex   -1.492018e+01 -1.333932e+01 -3.367212e+02
      vertex   -1.108286e+01 -1.650257e+01 -2.367212e+02
      vertex   -1.492018e+01 -1.333932e+01 -2.367212e+02
    endloop
  endfacet
  facet normal -8.141155e-01 -5.807030e-01 -9.449102e-15
    outer loop
      vertex   -1.492018e+01 -1.333932e+01 -3.367212e+02
      vertex   -1.492018e+01 -1.333932e+01 -2.367212e+02
      vertex   -1.780805e+01 -9.290685e+00 -3.367212e+02
    endloop
  endfacet
  facet normal -8.141155e-01 -5.807030e-01 -9.480149e-15
    outer loop
      vertex   -1.780805e+01 -9.290685e+00 -3.367212e+02
      vertex   -1.492018e+01 -1.333932e+01 -2.367212e+02
      vertex   -1.780805e+01 -9.290685e+00 -2.367212e+02
    endloop
  endfacet
  facet normal -9.366722e-01 -3.502074e-01 -9.913364e-15
    outer loop
      vertex   -1.780805e+01 -9.290685e+00 -3.367212e+02
      vertex   -1.780805e+01 -9.290685e+00 -2.367212e+02
      vertex   -1.954964e+01 -4.632570e+00 -3.367212e+02
    endloop
  endfacet
  facet normal -9.366722e-01 -3.502074e-01 -9.871693e-15
    outer loop
      vertex   -1.954964e+01 -4.632570e+00 -3.367212e+02
      vertex   -1.780805e+01 -9.290685e+00 -2.367212e+02
      vertex   -1.954964e+01 -4.632570e+00 -2.367212e+02
    endloop
  endfacet
  facet normal -9.953962e-01 -9.584575e-02 -9.607082e-15
    outer loop
      vertex   -1.954964e+01 -4.632570e+00 -3.367212e+02
      vertex   -1.954964e+01 -4.632570e+00 -2.367212e+02
      vertex   -2.002629e+01 3.175832e-01 -3.367212e+02
    endloop
  endfacet
  facet normal -9.953962e-01 -9.584575e-02 -9.670999e-15
    outer loop
      vertex   -2.002629e+01 3.175832e-01 -3.367212e+02
      vertex   -1.954964e+01 -4.632570e+00 -2.367212e+02
      vertex   -2.002629e+01 3.175832e-01 -2.367212e+02
    endloop
  endfacet
  facet normal -9.862856e-01 1.650476e-01 -8.769572e-15
    outer loop
      vertex   -2.002629e+01 3.175832e-01 -3.367212e+02
      vertex   -2.002629e+01 3.175832e-01 -2.367212e+02
      vertex   -1.920550e+01 5.222429e+00 -3.367212e+02
    endloop
  endfacet
  facet normal -9.862856e-01 1.650476e-01 -8.722804e-15
    outer loop
      vertex   -1.920550e+01 5.222429e+00 -3.367212e+02
      vertex   -2.002629e+01 3.175832e-01 -2.367212e+02
      vertex   -1.920550e+01 5.222429e+00 -2.367212e+02
    endloop
  endfacet
  facet normal -9.099613e-01 4.146932e-01 -7.208718e-15
    outer loop
      vertex   -1.920550e+01 5.222429e+00 -3.367212e+02
      vertex   -1.920550e+01 5.222429e+00 -2.367212e+02
      vertex   -1.714321e+01 9.747710e+00 -3.367212e+02
    endloop
  endfacet
  facet normal -9.099613e-01 4.146932e-01 -7.273375e-15
    outer loop
      vertex   -1.714321e+01 9.747710e+00 -3.367212e+02
      vertex   -1.920550e+01 5.222429e+00 -2.367212e+02
      vertex   -1.714321e+01 9.747710e+00 -2.367212e+02
    endloop
  endfacet
  facet normal -7.716246e-01 6.360782e-01 -5.258197e-15
    outer loop
      vertex   -1.714321e+01 9.747710e+00 -3.367212e+02
      vertex   -1.714321e+01 9.747710e+00 -2.367212e+02
      vertex   -1.397996e+01 1.358504e+01 -3.367212e+02
    endloop
  endfacet
  facet normal -7.716246e-01 6.360782e-01 -5.285611e-15
    outer loop
      vertex   -1.397996e+01 1.358504e+01 -3.367212e+02
      vertex   -1.714321e+01 9.747710e+00 -2.367212e+02
      vertex   -1.397996e+01 1.358504e+01 -2.367212e+02
    endloop
  endfacet
  facet normal -5.807030e-01 8.141155e-01 -2.905313e-15
    outer loop
      vertex   -1.397996e+01 1.358504e+01 -3.367212e+02
      vertex   -1.397996e+01 1.358504e+01 -2.367212e+02
      vertex   -9.931327e+00 1.647290e+01 -3.367212e+02
    endloop
  endfacet
  facet normal -5.807030e-01 8.141155e-01 -2.950821e-15
    outer loop
      vertex   -9.931327e+00 1.647290e+01 -3.367212e+02
      vertex   -1.397996e+01 1.358504e+01 -2.367212e+02
      vertex   -9.931327e+00 1.647290e+01 -2.367212e+02
    endloop
  endfacet
  facet normal -3.502074e-01 9.366722e-01 -4.019709e-16
    outer loop
      vertex   -9.931327e+00 1.647290e+01 -3.367212e+02
      vertex   -9.931327e+00 1.647290e+01 -2.367212e+02
      vertex   -5.273212e+00 1.821450e+01 -3.367212e+02
    endloop
  endfacet
  facet normal -3.502074e-01 9.366722e-01 -3.935774e-16
    outer loop
      vertex   -5.273212e+00 1.821450e+01 -3.367212e+02
      vertex   -9.931327e+00 1.647290e+01 -2.367212e+02
      vertex   -5.273212e+00 1.821450e+01 -2.367212e+02
    endloop
  endfacet
  facet normal -9.584575e-02 9.953962e-01 2.202826e-15
    outer loop
      vertex   -5.273212e+00 1.821450e+01 -3.367212e+02
      vertex   -5.273212e+00 1.821450e+01 -2.367212e+02
      vertex   -3.230586e-01 1.869114e+01 -3.367212e+02
    endloop
  endfacet
  facet normal -9.584575e-02 9.953962e-01 2.157247e-15
    outer loop
      vertex   -3.230586e-01 1.869114e+01 -3.367212e+02
      vertex   -5.273212e+00 1.821450e+01 -2.367212e+02
      vertex   -3.230586e-01 1.869114e+01 -2.367212e+02
    endloop
  endfacet
  facet normal 1.650476e-01 9.862856e-01 4.631662e-15
    outer loop
      vertex   -3.230586e-01 1.869114e+01 -3.367212e+02
      vertex   -3.230586e-01 1.869114e+01 -2.367212e+02
      vertex   4.581787e+00 1.787035e+01 -3.367212e+02
    endloop
  endfacet
  facet normal 1.650476e-01 9.862856e-01 4.637384e-15
    outer loop
      vertex   4.581787e+00 1.787035e+01 -3.367212e+02
      vertex   -3.230586e-01 1.869114e+01 -2.367212e+02
      vertex   4.581787e+00 1.787035e+01 -2.367212e+02
    endloop
  endfacet
  facet normal 4.146932e-01 9.099613e-01 6.749101e-15
    outer loop
      vertex   4.581787e+00 1.787035e+01 -3.367212e+02
      vertex   4.581787e+00 1.787035e+01 -2.367212e+02
      vertex   9.107068e+00 1.580806e+01 -3.367212e+02
    endloop
  endfacet
  facet normal 4.146932e-01 9.099613e-01 6.699177e-15
    outer loop
      vertex   9.107068e+00 1.580806e+01 -3.367212e+02
      vertex   4.581787e+00 1.787035e+01 -2.367212e+02
      vertex   9.107068e+00 1.580806e+01 -2.367212e+02
    endloop
  endfacet
  facet normal 6.360782e-01 7.716246e-01 8.368649e-15
    outer loop
      vertex   9.107068e+00 1.580806e+01 -3.367212e+02
      vertex   9.107068e+00 1.580806e+01 -2.367212e+02
      vertex   1.294439e+01 1.264482e+01 -3.367212e+02
    endloop
  endfacet
  facet normal 6.360782e-01 7.716246e-01 8.391247e-15
    outer loop
      vertex   1.294439e+01 1.264482e+01 -3.367212e+02
      vertex   9.107068e+00 1.580806e+01 -2.367212e+02
      vertex   1.294439e+01 1.264482e+01 -2.367212e+02
    endloop
  endfacet
  facet normal 0.000000e+00 -0.000000e+00 1.000000e+00
    outer loop
      vertex   1.628410e+01 3.433758e+00 -2.367212e+02
      vertex   1.757386e+01 3.938065e+00 -2.367212e+02
      vertex   1.462351e+01 7.953476e+00 -2.367212e+02
    endloop
  endfacet
  facet normal -0.000000e+00 0.000000e+00 1.000000e+00
    outer loop
      vertex   1.462351e+01 7.953476e+00 -2.367212e+02
      vertex   1.757386e+01 3.938065e+00 -2.367212e+02
      vertex   1.583226e+01 8.596181e+00 -2.367212e+02
    endloop
  endfacet
  facet normal -1.082501e-14 2.035888e-14 1.000000e+00
    outer loop
      vertex   1.462351e+01 7.953476e+00 -2.367212e+02
      vertex   1.583226e+01 8.596181e+00 -2.367212e+02
      vertex   1.294439e+01 1.264482e+01 -2.367212e+02
    endloop
  endfacet
  facet normal 0.000000e+00 0.000000e+00 1.000000e+00
    outer loop
      vertex   1.757386e+01 3.938065e+00 -2.367212e+02
      vertex   1.628410e+01 3.433758e+00 -2.367212e+02
      vertex   1.805050e+01 -1.012088e+00 -2.367212e+02
    endloop
  endfacet
  facet normal 0.000000e+00 0.000000e+00 1.000000e+00
    outer loop
      vertex   1.805050e+01 -1.012088e+00 -2.367212e+02
      vertex   1.628410e+01 3.433758e+00 -2.367212e+02
      vertex   1.666371e+01 -1.366381e+00 -2.367212e+02
    endloop
  endfacet
  facet normal 0.000000e+00 0.000000e+00 1.000000e+00
    outer loop
      vertex   1.805050e+01 -1.012088e+00 -2.367212e+02
      vertex   1.666371e+01 -1.366381e+00 -2.367212e+02
      vertex   1.722971e+01 -5.916933e+00 -2.367212e+02
    endloop
  endfacet
  facet normal 0.000000e+00 0.000000e+00 1.000000e+00
    outer loop
      vertex   1.722971e+01 -5.916933e+00 -2.367212e+02
      vertex   1.666371e+01 -1.366381e+00 -2.367212e+02
      vertex   1.573419e+01 -6.090936e+00 -2.367212e+02
    endloop
  endfacet
  facet normal 3.086663e-15 -2.652928e-14 1.000000e+00
    outer loop
      vertex   1.722971e+01 -5.916933e+00 -2.367212e+02
      vertex   1.573419e+01 -6.090936e+00 -2.367212e+02
      vertex   1.516742e+01 -1.044221e+01 -2.367212e+02
    endloop
  endfacet
  facet normal -8.554040e-16 -2.601581e-14 1.000000e+00
    outer loop
      vertex   1.516742e+01 -1.044221e+01 -2.367212e+02
      vertex   1.573419e+01 -6.090936e+00 -2.367212e+02
      vertex   1.356446e+01 -1.038951e+01 -2.367212e+02
    endloop
  endfacet
  facet normal 0.000000e+00 0.000000e+00 1.000000e+00
    outer loop
      vertex   1.516742e+01 -1.044221e+01 -2.367212e+02
      vertex   1.356446e+01 -1.038951e+01 -2.367212e+02
      vertex   1.200417e+01 -1.427954e+01 -2.367212e+02
    endloop
  endfacet
  facet normal 0.000000e+00 -0.000000e+00 1.000000e+00
    outer loop
      vertex   1.200417e+01 -1.427954e+01 -2.367212e+02
      vertex   1.356446e+01 -1.038951e+01 -2.367212e+02
      vertex   1.031545e+01 -1.394329e+01 -2.367212e+02
    endloop
  endfacet
  facet normal 0.000000e+00 0.000000e+00 1.000000e+00
    outer loop
      vertex   1.200417e+01 -1.427954e+01 -2.367212e+02
      vertex   1.031545e+01 -1.394329e+01 -2.367212e+02
      vertex   7.955539e+00 -1.716740e+01 -2.367212e+02
    endloop
  endfacet
  facet normal 0.000000e+00 -0.000000e+00 1.000000e+00
    outer loop
      vertex   7.955539e+00 -1.716740e+01 -2.367212e+02
      vertex   1.031545e+01 -1.394329e+01 -2.367212e+02
      vertex   6.228124e+00 -1.648872e+01 -2.367212e+02
    endloop
  endfacet
  facet normal -1.250555e-14 -3.182968e-14 1.000000e+00
    outer loop
      vertex   7.955539e+00 -1.716740e+01 -2.367212e+02
      vertex   6.228124e+00 -1.648872e+01 -2.367212e+02
      vertex   3.297424e+00 -1.890900e+01 -2.367212e+02
    endloop
  endfacet
  facet normal -1.684160e-14 -2.657920e-14 1.000000e+00
    outer loop
      vertex   3.297424e+00 -1.890900e+01 -2.367212e+02
      vertex   6.228124e+00 -1.648872e+01 -2.367212e+02
      vertex   1.605619e+00 -1.783701e+01 -2.367212e+02
    endloop
  endfacet
  facet normal 0.000000e+00 0.000000e+00 1.000000e+00
    outer loop
      vertex   3.297424e+00 -1.890900e+01 -2.367212e+02
      vertex   1.605619e+00 -1.783701e+01 -2.367212e+02
      vertex   -1.652729e+00 -1.938565e+01 -2.367212e+02
    endloop
  endfacet
  facet normal 0.000000e+00 -0.000000e+00 1.000000e+00
    outer loop
      vertex   -1.652729e+00 -1.938565e+01 -2.367212e+02
      vertex   1.605619e+00 -1.783701e+01 -2.367212e+02
      vertex   -3.209236e+00 -1.788816e+01 -2.367212e+02
    endloop
  endfacet
  facet normal -2.805901e-14 -2.916493e-14 1.000000e+00
    outer loop
      vertex   -1.652729e+00 -1.938565e+01 -2.367212e+02
      vertex   -3.209236e+00 -1.788816e+01 -2.367212e+02
      vertex   -6.557575e+00 -1.856486e+01 -2.367212e+02
    endloop
  endfacet
  facet normal -2.987356e-14 -2.018638e-14 1.000000e+00
    outer loop
      vertex   -6.557575e+00 -1.856486e+01 -2.367212e+02
      vertex   -3.209236e+00 -1.788816e+01 -2.367212e+02
      vertex   -7.859344e+00 -1.663839e+01 -2.367212e+02
    endloop
  endfacet
  facet normal 0.000000e+00 0.000000e+00 1.000000e+00
    outer loop
      vertex   -6.557575e+00 -1.856486e+01 -2.367212e+02
      vertex   -7.859344e+00 -1.663839e+01 -2.367212e+02
      vertex   -1.108286e+01 -1.650257e+01 -2.367212e+02
    endloop
  endfacet
  facet normal -0.000000e+00 -0.000000e+00 1.000000e+00
    outer loop
      vertex   -1.108286e+01 -1.650257e+01 -2.367212e+02
      vertex   -7.859344e+00 -1.663839e+01 -2.367212e+02
      vertex   -1.199983e+01 -1.418037e+01 -2.367212e+02
    endloop
  endfacet
  facet normal 0.000000e+00 0.000000e+00 1.000000e+00
    outer loop
      vertex   -1.108286e+01 -1.650257e+01 -2.367212e+02
      vertex   -1.199983e+01 -1.418037e+01 -2.367212e+02
      vertex   -1.492018e+01 -1.333932e+01 -2.367212e+02
    endloop
  endfacet
  facet normal -0.000000e+00 -0.000000e+00 1.000000e+00
    outer loop
      vertex   -1.492018e+01 -1.333932e+01 -2.367212e+02
      vertex   -1.199983e+01 -1.418037e+01 -2.367212e+02
      vertex   -1.532361e+01 -1.069642e+01 -2.367212e+02
    endloop
  endfacet
  facet normal 0.000000e+00 0.000000e+00 1.000000e+00
    outer loop
      vertex   -1.492018e+01 -1.333932e+01 -2.367212e+02
      vertex   -1.532361e+01 -1.069642e+01 -2.367212e+02
      vertex   -1.780805e+01 -9.290685e+00 -2.367212e+02
    endloop
  endfacet
  facet normal -0.000000e+00 0.000000e+00 1.000000e+00
    outer loop
      vertex   -1.780805e+01 -9.290685e+00 -2.367212e+02
      vertex   -1.532361e+01 -1.069642e+01 -2.367212e+02
      vertex   -1.758417e+01 -6.444915e+00 -2.367212e+02
    endloop
  endfacet
  facet normal 0.000000e+00 -0.000000e+00 1.000000e+00
    outer loop
      vertex   -1.780805e+01 -9.290685e+00 -2.367212e+02
      vertex   -1.758417e+01 -6.444915e+00 -2.367212e+02
      vertex   -1.954964e+01 -4.632570e+00 -2.367212e+02
    endloop
  endfacet
  facet normal -0.000000e+00 0.000000e+00 1.000000e+00
    outer loop
      vertex   -1.954964e+01 -4.632570e+00 -2.367212e+02
      vertex   -1.758417e+01 -6.444915e+00 -2.367212e+02
      vertex   -1.861387e+01 -1.741176e+00 -2.367212e+02
    endloop
  endfacet
  facet normal 0.000000e+00 -0.000000e+00 1.000000e+00
    outer loop
      vertex   -1.954964e+01 -4.632570e+00 -2.367212e+02
      vertex   -1.861387e+01 -1.741176e+00 -2.367212e+02
      vertex   -2.002629e+01 3.175832e-01 -2.367212e+02
    endloop
  endfacet
  facet normal -0.000000e+00 0.000000e+00 1.000000e+00
    outer loop
      vertex   -2.002629e+01 3.175832e-01 -2.367212e+02
      vertex   -1.861387e+01 -1.741176e+00 -2.367212e+02
      vertex   -1.833632e+01 3.065945e+00 -2.367212e+02
    endloop
  endfacet
  facet normal 0.000000e+00 0.000000e+00 1.000000e+00
    outer loop
      vertex   -2.002629e+01 3.175832e-01 -2.367212e+02
      vertex   -1.833632e+01 3.065945e+00 -2.367212e+02
      vertex   -1.920550e+01 5.222429e+00 -2.367212e+02
    endloop
  endfacet
  facet normal -0.000000e+00 0.000000e+00 1.000000e+00
    outer loop
      vertex   -1.920550e+01 5.222429e+00 -2.367212e+02
      vertex   -1.833632e+01 3.065945e+00 -2.367212e+02
      vertex   -1.677213e+01 7.619925e+00 -2.367212e+02
    endloop
  endfacet
  facet normal 0.000000e+00 0.000000e+00 1.000000e+00
    outer loop
      vertex   -1.920550e+01 5.222429e+00 -2.367212e+02
      vertex   -1.677213e+01 7.619925e+00 -2.367212e+02
      vertex   -1.714321e+01 9.747710e+00 -2.367212e+02
    endloop
  endfacet
  facet normal -0.000000e+00 0.000000e+00 1.000000e+00
    outer loop
      vertex   -1.714321e+01 9.747710e+00 -2.367212e+02
      vertex   -1.677213e+01 7.619925e+00 -2.367212e+02
      vertex   -1.403729e+01 1.158302e+01 -2.367212e+02
    endloop
  endfacet
  facet normal 0.000000e+00 0.000000e+00 1.000000e+00
    outer loop
      vertex   -1.714321e+01 9.747710e+00 -2.367212e+02
      vertex   -1.403729e+01 1.158302e+01 -2.367212e+02
      vertex   -1.397996e+01 1.358504e+01 -2.367212e+02
    endloop
  endfacet
  facet normal -3.145286e-14 9.005776e-16 1.000000e+00
    outer loop
      vertex   -1.397996e+01 1.358504e+01 -2.367212e+02
      vertex   -1.403729e+01 1.158302e+01 -2.367212e+02
      vertex   -1.033463e+01 1.466129e+01 -2.367212e+02
    endloop
  endfacet
  facet normal -3.338102e-14 7.431359e-15 1.000000e+00
    outer loop
      vertex   -1.397996e+01 1.358504e+01 -2.367212e+02
      vertex   -1.033463e+01 1.466129e+01 -2.367212e+02
      vertex   -9.931327e+00 1.647290e+01 -2.367212e+02
    endloop
  endfacet
  facet normal -0.000000e+00 0.000000e+00 1.000000e+00
    outer loop
      vertex   -9.931327e+00 1.647290e+01 -2.367212e+02
      vertex   -1.033463e+01 1.466129e+01 -2.367212e+02
      vertex   -5.938772e+00 1.662645e+01 -2.367212e+02
    endloop
  endfacet
  facet normal 2.798454e-15 -7.276211e-14 1.000000e+00
    outer loop
      vertex   -9.931327e+00 1.647290e+01 -2.367212e+02
      vertex   -5.938772e+00 1.662645e+01 -2.367212e+02
      vertex   -5.273212e+00 1.821450e+01 -2.367212e+02
    endloop
  endfacet
  facet normal -1.413095e-14 -6.566688e-14 1.000000e+00
    outer loop
      vertex   -5.273212e+00 1.821450e+01 -2.367212e+02
      vertex   -5.938772e+00 1.662645e+01 -2.367212e+02
      vertex   -1.175729e+00 1.733275e+01 -2.367212e+02
    endloop
  endfacet
  facet normal -0.000000e+00 0.000000e+00 1.000000e+00
    outer loop
      vertex   -5.273212e+00 1.821450e+01 -2.367212e+02
      vertex   -1.175729e+00 1.733275e+01 -2.367212e+02
      vertex   -3.230586e-01 1.869114e+01 -2.367212e+02
    endloop
  endfacet
  facet normal 0.000000e+00 0.000000e+00 1.000000e+00
    outer loop
      vertex   -3.230586e-01 1.869114e+01 -2.367212e+02
      vertex   -1.175729e+00 1.733275e+01 -2.367212e+02
      vertex   3.601245e+00 1.672781e+01 -2.367212e+02
    endloop
  endfacet
  facet normal 0.000000e+00 0.000000e+00 1.000000e+00
    outer loop
      vertex   -3.230586e-01 1.869114e+01 -2.367212e+02
      vertex   3.601245e+00 1.672781e+01 -2.367212e+02
      vertex   4.581787e+00 1.787035e+01 -2.367212e+02
    endloop
  endfacet
  facet normal 0.000000e+00 0.000000e+00 1.000000e+00
    outer loop
      vertex   4.581787e+00 1.787035e+01 -2.367212e+02
      vertex   3.601245e+00 1.672781e+01 -2.367212e+02
      vertex   8.037864e+00 1.485648e+01 -2.367212e+02
    endloop
  endfacet
  facet normal 0.000000e+00 0.000000e+00 1.000000e+00
    outer loop
      vertex   4.581787e+00 1.787035e+01 -2.367212e+02
      vertex   8.037864e+00 1.485648e+01 -2.367212e+02
      vertex   9.107068e+00 1.580806e+01 -2.367212e+02
    endloop
  endfacet
  facet normal 0.000000e+00 0.000000e+00 1.000000e+00
    outer loop
      vertex   9.107068e+00 1.580806e+01 -2.367212e+02
      vertex   8.037864e+00 1.485648e+01 -2.367212e+02
      vertex   1.180508e+01 1.185757e+01 -2.367212e+02
    endloop
  endfacet
  facet normal 0.000000e+00 0.000000e+00 1.000000e+00
    outer loop
      vertex   9.107068e+00 1.580806e+01 -2.367212e+02
      vertex   1.180508e+01 1.185757e+01 -2.367212e+02
      vertex   1.294439e+01 1.264482e+01 -2.367212e+02
    endloop
  endfacet
  facet normal -1.342475e-14 1.942839e-14 1.000000e+00
    outer loop
      vertex   1.294439e+01 1.264482e+01 -2.367212e+02
      vertex   1.180508e+01 1.185757e+01 -2.367212e+02
      vertex   1.462351e+01 7.953476e+00 -2.367212e+02
    endloop
  endfacet
endsolid
