solid AnodeTube
  facet normal 0.000000e+00 0.000000e+00 1.000000e+00
    outer loop
      vertex   1.463669e+01 7.960486e+00 -3.344292e+02
      vertex   1.181827e+01 1.186458e+01 -3.344292e+02
      vertex   1.629729e+01 3.440768e+00 -3.344292e+02
    endloop
  endfacet
  facet normal 0.000000e+00 0.000000e+00 1.000000e+00
    outer loop
      vertex   1.629729e+01 3.440768e+00 -3.344292e+02
      vertex   1.181827e+01 1.186458e+01 -3.344292e+02
      vertex   8.051048e+00 1.486349e+01 -3.344292e+02
    endloop
  endfacet
  facet normal 0.000000e+00 0.000000e+00 1.000000e+00
    outer loop
      vertex   1.629729e+01 3.440768e+00 -3.344292e+02
      vertex   8.051048e+00 1.486349e+01 -3.344292e+02
      vertex   1.667690e+01 -1.359372e+00 -3.344292e+02
    endloop
  endfacet
  facet normal 0.000000e+00 0.000000e+00 1.000000e+00
    outer loop
      vertex   1.667690e+01 -1.359372e+00 -3.344292e+02
      vertex   8.051048e+00 1.486349e+01 -3.344292e+02
      vertex   3.614429e+00 1.673482e+01 -3.344292e+02
    endloop
  endfacet
  facet normal 0.000000e+00 0.000000e+00 1.000000e+00
    outer loop
      vertex   1.667690e+01 -1.359372e+00 -3.344292e+02
      vertex   3.614429e+00 1.673482e+01 -3.344292e+02
      vertex   1.574737e+01 -6.083926e+00 -3.344292e+02
    endloop
  endfacet
  facet normal 0.000000e+00 0.000000e+00 1.000000e+00
    outer loop
      vertex   1.574737e+01 -6.083926e+00 -3.344292e+02
      vertex   3.614429e+00 1.673482e+01 -3.344292e+02
      vertex   -1.162545e+00 1.733976e+01 -3.344292e+02
    endloop
  endfacet
  facet normal 0.000000e+00 0.000000e+00 1.000000e+00
    outer loop
      vertex   1.574737e+01 -6.083926e+00 -3.344292e+02
      vertex   -1.162545e+00 1.733976e+01 -3.344292e+02
      vertex   1.357764e+01 -1.038250e+01 -3.344292e+02
    endloop
  endfacet
  facet normal -4.424827e-14 -2.352722e-14 1.000000e+00
    outer loop
      vertex   1.357764e+01 -1.038250e+01 -3.344292e+02
      vertex   -1.162545e+00 1.733976e+01 -3.344292e+02
      vertex   -5.925588e+00 1.663346e+01 -3.344292e+02
    endloop
  endfacet
  facet normal -4.424827e-14 -2.352722e-14 1.000000e+00
    outer loop
      vertex   1.357764e+01 -1.038250e+01 -3.344292e+02
      vertex   -5.925588e+00 1.663346e+01 -3.344292e+02
      vertex   1.032863e+01 -1.393628e+01 -3.344292e+02
    endloop
  endfacet
  facet normal 0.000000e+00 0.000000e+00 1.000000e+00
    outer loop
      vertex   1.032863e+01 -1.393628e+01 -3.344292e+02
      vertex   -5.925588e+00 1.663346e+01 -3.344292e+02
      vertex   -1.032145e+01 1.466830e+01 -3.344292e+02
    endloop
  endfacet
  facet normal 0.000000e+00 0.000000e+00 1.000000e+00
    outer loop
      vertex   1.032863e+01 -1.393628e+01 -3.344292e+02
      vertex   -1.032145e+01 1.466830e+01 -3.344292e+02
      vertex   -1.402410e+01 1.159003e+01 -3.344292e+02
    endloop
  endfacet
  facet normal -1.744806e-14 -1.664589e-14 1.000000e+00
    outer loop
      vertex   -1.402410e+01 1.159003e+01 -3.344292e+02
      vertex   -1.675894e+01 7.626935e+00 -3.344292e+02
      vertex   1.032863e+01 -1.393628e+01 -3.344292e+02
    endloop
  endfacet
  facet normal -3.295835e-15 1.132050e-15 1.000000e+00
    outer loop
      vertex   1.032863e+01 -1.393628e+01 -3.344292e+02
      vertex   -1.675894e+01 7.626935e+00 -3.344292e+02
      vertex   -1.832314e+01 3.072955e+00 -3.344292e+02
    endloop
  endfacet
  facet normal -3.836389e-15 2.214969e-16 1.000000e+00
    outer loop
      vertex   1.032863e+01 -1.393628e+01 -3.344292e+02
      vertex   -1.832314e+01 3.072955e+00 -3.344292e+02
      vertex   -1.860068e+01 -1.734166e+00 -3.344292e+02
    endloop
  endfacet
  facet normal -4.329582e-15 -9.477881e-16 1.000000e+00
    outer loop
      vertex   -1.860068e+01 -1.734166e+00 -3.344292e+02
      vertex   -1.757099e+01 -6.437905e+00 -3.344292e+02
      vertex   1.032863e+01 -1.393628e+01 -3.344292e+02
    endloop
  endfacet
  facet normal -4.754252e-15 -2.527881e-15 1.000000e+00
    outer loop
      vertex   1.032863e+01 -1.393628e+01 -3.344292e+02
      vertex   -1.757099e+01 -6.437905e+00 -3.344292e+02
      vertex   -1.531042e+01 -1.068941e+01 -3.344292e+02
    endloop
  endfacet
  facet normal -5.043455e-15 -4.811583e-15 1.000000e+00
    outer loop
      vertex   1.032863e+01 -1.393628e+01 -3.344292e+02
      vertex   -1.531042e+01 -1.068941e+01 -3.344292e+02
      vertex   -1.198664e+01 -1.417336e+01 -3.344292e+02
    endloop
  endfacet
  facet normal -5.005004e-15 -8.430844e-15 1.000000e+00
    outer loop
      vertex   -1.198664e+01 -1.417336e+01 -3.344292e+02
      vertex   -7.846160e+00 -1.663138e+01 -3.344292e+02
      vertex   1.032863e+01 -1.393628e+01 -3.344292e+02
    endloop
  endfacet
  facet normal -4.031079e-15 -1.499866e-14 1.000000e+00
    outer loop
      vertex   1.032863e+01 -1.393628e+01 -3.344292e+02
      vertex   -7.846160e+00 -1.663138e+01 -3.344292e+02
      vertex   -3.196052e+00 -1.788115e+01 -3.344292e+02
    endloop
  endfacet
  facet normal -2.418648e-14 5.410260e-14 1.000000e+00
    outer loop
      vertex   1.032863e+01 -1.393628e+01 -3.344292e+02
      vertex   -3.196052e+00 -1.788115e+01 -3.344292e+02
      vertex   1.618802e+00 -1.783000e+01 -3.344292e+02
    endloop
  endfacet
  facet normal 0.000000e+00 0.000000e+00 1.000000e+00
    outer loop
      vertex   1.618802e+00 -1.783000e+01 -3.344292e+02
      vertex   6.241308e+00 -1.648171e+01 -3.344292e+02
      vertex   1.032863e+01 -1.393628e+01 -3.344292e+02
    endloop
  endfacet
  facet normal 8.755516e-15 3.273553e-15 -1.000000e+00
    outer loop
      vertex   1.758704e+01 3.945075e+00 -3.364292e+02
      vertex   -1.490700e+01 -1.333231e+01 -3.364292e+02
      vertex   1.584544e+01 8.603191e+00 -3.364292e+02
    endloop
  endfacet
  facet normal 7.350619e-15 5.243146e-15 -1.000000e+00
    outer loop
      vertex   1.584544e+01 8.603191e+00 -3.364292e+02
      vertex   -1.490700e+01 -1.333231e+01 -3.364292e+02
      vertex   -1.779486e+01 -9.283676e+00 -3.364292e+02
    endloop
  endfacet
  facet normal 7.350619e-15 5.243146e-15 -1.000000e+00
    outer loop
      vertex   1.584544e+01 8.603191e+00 -3.364292e+02
      vertex   -1.779486e+01 -9.283676e+00 -3.364292e+02
      vertex   1.295758e+01 1.265183e+01 -3.364292e+02
    endloop
  endfacet
  facet normal 8.755516e-15 3.273553e-15 -1.000000e+00
    outer loop
      vertex   1.295758e+01 1.265183e+01 -3.364292e+02
      vertex   -1.779486e+01 -9.283676e+00 -3.364292e+02
      vertex   -1.953646e+01 -4.625560e+00 -3.364292e+02
    endloop
  endfacet
  facet normal 6.380546e-15 7.740222e-15 -1.000000e+00
    outer loop
      vertex   1.295758e+01 1.265183e+01 -3.364292e+02
      vertex   -1.953646e+01 -4.625560e+00 -3.364292e+02
      vertex   9.120252e+00 1.581507e+01 -3.364292e+02
    endloop
  endfacet
  facet normal 1.113670e-14 1.072342e-15 -1.000000e+00
    outer loop
      vertex   9.120252e+00 1.581507e+01 -3.364292e+02
      vertex   -1.953646e+01 -4.625560e+00 -3.364292e+02
      vertex   -2.001311e+01 3.245932e-01 -3.364292e+02
    endloop
  endfacet
  facet normal 5.403015e-15 1.185583e-14 -1.000000e+00
    outer loop
      vertex   9.120252e+00 1.581507e+01 -3.364292e+02
      vertex   -2.001311e+01 3.245932e-01 -3.364292e+02
      vertex   4.594971e+00 1.787736e+01 -3.364292e+02
    endloop
  endfacet
  facet normal 1.573829e-14 -2.633686e-15 -1.000000e+00
    outer loop
      vertex   4.594971e+00 1.787736e+01 -3.364292e+02
      vertex   -2.001311e+01 3.245932e-01 -3.364292e+02
      vertex   -1.919232e+01 5.229439e+00 -3.364292e+02
    endloop
  endfacet
  facet normal 3.432287e-15 2.051054e-14 -1.000000e+00
    outer loop
      vertex   4.594971e+00 1.787736e+01 -3.364292e+02
      vertex   -1.919232e+01 5.229439e+00 -3.364292e+02
      vertex   -3.098748e-01 1.869815e+01 -3.364292e+02
    endloop
  endfacet
  facet normal 2.676161e-14 -1.219597e-14 -1.000000e+00
    outer loop
      vertex   -3.098748e-01 1.869815e+01 -3.364292e+02
      vertex   -1.919232e+01 5.229439e+00 -3.364292e+02
      vertex   -1.713003e+01 9.754720e+00 -3.364292e+02
    endloop
  endfacet
  facet normal 2.356107e-14 -6.176627e-15 -1.000000e+00
    outer loop
      vertex   -3.098748e-01 1.869815e+01 -3.364292e+02
      vertex   -1.713003e+01 9.754720e+00 -3.364292e+02
      vertex   -5.260028e+00 1.822151e+01 -3.364292e+02
    endloop
  endfacet
  facet normal -5.609022e-14 1.054904e-13 -1.000000e+00
    outer loop
      vertex   -5.260028e+00 1.822151e+01 -3.364292e+02
      vertex   -1.713003e+01 9.754720e+00 -3.364292e+02
      vertex   -1.396678e+01 1.359205e+01 -3.364292e+02
    endloop
  endfacet
  facet normal 0.000000e+00 0.000000e+00 -1.000000e+00
    outer loop
      vertex   -5.260028e+00 1.822151e+01 -3.364292e+02
      vertex   -1.396678e+01 1.359205e+01 -3.364292e+02
      vertex   -9.918144e+00 1.647991e+01 -3.364292e+02
    endloop
  endfacet
  facet normal 6.380546e-15 7.740222e-15 -1.000000e+00
    outer loop
      vertex   -1.490700e+01 -1.333231e+01 -3.364292e+02
      vertex   1.758704e+01 3.945075e+00 -3.364292e+02
      vertex   -1.106967e+01 -1.649556e+01 -3.364292e+02
    endloop
  endfacet
  facet normal 1.113670e-14 1.072342e-15 -1.000000e+00
    outer loop
      vertex   -1.106967e+01 -1.649556e+01 -3.364292e+02
      vertex   1.758704e+01 3.945075e+00 -3.364292e+02
      vertex   1.806369e+01 -1.005078e+00 -3.364292e+02
    endloop
  endfacet
  facet normal 5.403015e-15 1.185583e-14 -1.000000e+00
    outer loop
      vertex   -1.106967e+01 -1.649556e+01 -3.364292e+02
      vertex   1.806369e+01 -1.005078e+00 -3.364292e+02
      vertex   -6.544391e+00 -1.855785e+01 -3.364292e+02
    endloop
  endfacet
  facet normal 1.573829e-14 -2.633686e-15 -1.000000e+00
    outer loop
      vertex   -6.544391e+00 -1.855785e+01 -3.364292e+02
      vertex   1.806369e+01 -1.005078e+00 -3.364292e+02
      vertex   1.724290e+01 -5.909923e+00 -3.364292e+02
    endloop
  endfacet
  facet normal 3.432287e-15 2.051054e-14 -1.000000e+00
    outer loop
      vertex   -6.544391e+00 -1.855785e+01 -3.364292e+02
      vertex   1.724290e+01 -5.909923e+00 -3.364292e+02
      vertex   -1.639546e+00 -1.937864e+01 -3.364292e+02
    endloop
  endfacet
  facet normal 2.676161e-14 -1.219597e-14 -1.000000e+00
    outer loop
      vertex   -1.639546e+00 -1.937864e+01 -3.364292e+02
      vertex   1.724290e+01 -5.909923e+00 -3.364292e+02
      vertex   1.518061e+01 -1.043520e+01 -3.364292e+02
    endloop
  endfacet
  facet normal 5.160618e-14 -5.892181e-14 -1.000000e+00
    outer loop
      vertex   -1.639546e+00 -1.937864e+01 -3.364292e+02
      vertex   1.518061e+01 -1.043520e+01 -3.364292e+02
      vertex   3.310607e+00 -1.890199e+01 -3.364292e+02
    endloop
  endfacet
  facet normal -2.804511e-14 5.274518e-14 -1.000000e+00
    outer loop
      vertex   3.310607e+00 -1.890199e+01 -3.364292e+02
      vertex   1.518061e+01 -1.043520e+01 -3.364292e+02
      vertex   1.201736e+01 -1.427253e+01 -3.364292e+02
    endloop
  endfacet
  facet normal 0.000000e+00 0.000000e+00 -1.000000e+00
    outer loop
      vertex   3.310607e+00 -1.890199e+01 -3.364292e+02
      vertex   1.201736e+01 -1.427253e+01 -3.364292e+02
      vertex   7.968723e+00 -1.716039e+01 -3.364292e+02
    endloop
  endfacet
  facet normal -9.386501e-01 -3.448709e-01 -9.885002e-15
    outer loop
      vertex   1.629729e+01 3.440768e+00 -3.344292e+02
      vertex   1.629729e+01 3.440768e+00 -2.364292e+02
      vertex   1.463669e+01 7.960486e+00 -3.344292e+02
    endloop
  endfacet
  facet normal -9.386501e-01 -3.448709e-01 -9.537763e-15
    outer loop
      vertex   1.463669e+01 7.960486e+00 -3.344292e+02
      vertex   1.629729e+01 3.440768e+00 -2.364292e+02
      vertex   1.463669e+01 7.960486e+00 -2.364292e+02
    endloop
  endfacet
  facet normal -8.107974e-01 -5.853269e-01 -9.040972e-15
    outer loop
      vertex   1.463669e+01 7.960486e+00 -3.344292e+02
      vertex   1.463669e+01 7.960486e+00 -2.364292e+02
      vertex   1.181827e+01 1.186458e+01 -3.344292e+02
    endloop
  endfacet
  facet normal -8.107974e-01 -5.853269e-01 -9.432827e-15
    outer loop
      vertex   1.181827e+01 1.186458e+01 -3.344292e+02
      vertex   1.463669e+01 7.960486e+00 -2.364292e+02
      vertex   1.181827e+01 1.186458e+01 -2.364292e+02
    endloop
  endfacet
  facet normal -6.228115e-01 -7.823719e-01 -8.247033e-15
    outer loop
      vertex   1.181827e+01 1.186458e+01 -3.344292e+02
      vertex   1.181827e+01 1.186458e+01 -2.364292e+02
      vertex   8.051048e+00 1.486349e+01 -3.344292e+02
    endloop
  endfacet
  facet normal -6.228115e-01 -7.823719e-01 -8.281180e-15
    outer loop
      vertex   8.051048e+00 1.486349e+01 -3.344292e+02
      vertex   1.181827e+01 1.186458e+01 -2.364292e+02
      vertex   8.051048e+00 1.486349e+01 -2.364292e+02
    endloop
  endfacet
  facet normal -3.886346e-01 -9.213920e-01 -6.502311e-15
    outer loop
      vertex   8.051048e+00 1.486349e+01 -3.344292e+02
      vertex   8.051048e+00 1.486349e+01 -2.364292e+02
      vertex   3.614429e+00 1.673482e+01 -3.344292e+02
    endloop
  endfacet
  facet normal -3.886346e-01 -9.213920e-01 -6.521625e-15
    outer loop
      vertex   3.614429e+00 1.673482e+01 -3.344292e+02
      vertex   8.051048e+00 1.486349e+01 -2.364292e+02
      vertex   3.614429e+00 1.673482e+01 -2.364292e+02
    endloop
  endfacet
  facet normal -1.256344e-01 -9.920766e-01 -4.272606e-15
    outer loop
      vertex   3.614429e+00 1.673482e+01 -3.344292e+02
      vertex   3.614429e+00 1.673482e+01 -2.364292e+02
      vertex   -1.162545e+00 1.733976e+01 -3.344292e+02
    endloop
  endfacet
  facet normal -1.256344e-01 -9.920766e-01 -4.198398e-15
    outer loop
      vertex   -1.162545e+00 1.733976e+01 -3.344292e+02
      vertex   3.614429e+00 1.673482e+01 -2.364292e+02
      vertex   -1.162545e+00 1.733976e+01 -2.364292e+02
    endloop
  endfacet
  facet normal 1.466836e-01 -9.891835e-01 -1.637646e-15
    outer loop
      vertex   -1.162545e+00 1.733976e+01 -3.344292e+02
      vertex   -1.162545e+00 1.733976e+01 -2.364292e+02
      vertex   -5.925588e+00 1.663346e+01 -3.344292e+02
    endloop
  endfacet
  facet normal 1.466836e-01 -9.891835e-01 -1.632328e-15
    outer loop
      vertex   -5.925588e+00 1.663346e+01 -3.344292e+02
      vertex   -1.162545e+00 1.733976e+01 -2.364292e+02
      vertex   -5.925588e+00 1.663346e+01 -2.364292e+02
    endloop
  endfacet
  facet normal 4.081226e-01 -9.129271e-01 1.059359e-15
    outer loop
      vertex   -5.925588e+00 1.663346e+01 -3.344292e+02
      vertex   -5.925588e+00 1.663346e+01 -2.364292e+02
      vertex   -1.032145e+01 1.466830e+01 -3.344292e+02
    endloop
  endfacet
  facet normal 4.081226e-01 -9.129271e-01 9.857705e-16
    outer loop
      vertex   -1.032145e+01 1.466830e+01 -3.344292e+02
      vertex   -5.925588e+00 1.663346e+01 -2.364292e+02
      vertex   -1.032145e+01 1.466830e+01 -2.364292e+02
    endloop
  endfacet
  facet normal 6.392931e-01 -7.689631e-01 3.605138e-15
    outer loop
      vertex   -1.032145e+01 1.466830e+01 -3.344292e+02
      vertex   -1.032145e+01 1.466830e+01 -2.364292e+02
      vertex   -1.402410e+01 1.159003e+01 -3.344292e+02
    endloop
  endfacet
  facet normal 6.392931e-01 -7.689631e-01 3.600437e-15
    outer loop
      vertex   -1.402410e+01 1.159003e+01 -3.344292e+02
      vertex   -1.032145e+01 1.466830e+01 -2.364292e+02
      vertex   -1.402410e+01 1.159003e+01 -2.364292e+02
    endloop
  endfacet
  facet normal 8.230502e-01 -5.679687e-01 5.966376e-15
    outer loop
      vertex   -1.402410e+01 1.159003e+01 -3.344292e+02
      vertex   -1.402410e+01 1.159003e+01 -2.364292e+02
      vertex   -1.675894e+01 7.626935e+00 -3.344292e+02
    endloop
  endfacet
  facet normal 8.230502e-01 -5.679687e-01 5.915948e-15
    outer loop
      vertex   -1.675894e+01 7.626935e+00 -3.344292e+02
      vertex   -1.402410e+01 1.159003e+01 -2.364292e+02
      vertex   -1.675894e+01 7.626935e+00 -2.364292e+02
    endloop
  endfacet
  facet normal 9.457654e-01 -3.248506e-01 7.843753e-15
    outer loop
      vertex   -1.675894e+01 7.626935e+00 -3.344292e+02
      vertex   -1.675894e+01 7.626935e+00 -2.364292e+02
      vertex   -1.832314e+01 3.072955e+00 -3.344292e+02
    endloop
  endfacet
  facet normal 9.457654e-01 -3.248506e-01 7.878039e-15
    outer loop
      vertex   -1.832314e+01 3.072955e+00 -3.344292e+02
      vertex   -1.675894e+01 7.626935e+00 -2.364292e+02
      vertex   -1.832314e+01 3.072955e+00 -2.364292e+02
    endloop
  endfacet
  facet normal 9.983374e-01 -5.763978e-02 9.226014e-15
    outer loop
      vertex   -1.832314e+01 3.072955e+00 -3.344292e+02
      vertex   -1.832314e+01 3.072955e+00 -2.364292e+02
      vertex   -1.860068e+01 -1.734166e+00 -3.344292e+02
    endloop
  endfacet
  facet normal 9.983374e-01 -5.763978e-02 9.196091e-15
    outer loop
      vertex   -1.860068e+01 -1.734166e+00 -3.344292e+02
      vertex   -1.832314e+01 3.072955e+00 -2.364292e+02
      vertex   -1.860068e+01 -1.734166e+00 -2.364292e+02
    endloop
  endfacet
  facet normal 9.768674e-01 2.138459e-01 9.831068e-15
    outer loop
      vertex   -1.860068e+01 -1.734166e+00 -3.344292e+02
      vertex   -1.860068e+01 -1.734166e+00 -2.364292e+02
      vertex   -1.757099e+01 -6.437905e+00 -3.344292e+02
    endloop
  endfacet
  facet normal 9.768674e-01 2.138459e-01 9.874234e-15
    outer loop
      vertex   -1.757099e+01 -6.437905e+00 -3.344292e+02
      vertex   -1.860068e+01 -1.734166e+00 -2.364292e+02
      vertex   -1.757099e+01 -6.437905e+00 -2.364292e+02
    endloop
  endfacet
  facet normal 8.829476e-01 4.694716e-01 9.785947e-15
    outer loop
      vertex   -1.757099e+01 -6.437905e+00 -3.344292e+02
      vertex   -1.757099e+01 -6.437905e+00 -2.364292e+02
      vertex   -1.531042e+01 -1.068941e+01 -3.344292e+02
    endloop
  endfacet
  facet normal 8.829476e-01 4.694716e-01 9.687891e-15
    outer loop
      vertex   -1.531042e+01 -1.068941e+01 -3.344292e+02
      vertex   -1.757099e+01 -6.437905e+00 -2.364292e+02
      vertex   -1.531042e+01 -1.068941e+01 -2.364292e+02
    endloop
  endfacet
  facet normal 7.235436e-01 6.902787e-01 8.869373e-15
    outer loop
      vertex   -1.531042e+01 -1.068941e+01 -3.344292e+02
      vertex   -1.531042e+01 -1.068941e+01 -2.364292e+02
      vertex   -1.198664e+01 -1.417336e+01 -3.344292e+02
    endloop
  endfacet
  facet normal 7.235436e-01 6.902787e-01 8.908719e-15
    outer loop
      vertex   -1.198664e+01 -1.417336e+01 -3.344292e+02
      vertex   -1.531042e+01 -1.068941e+01 -2.364292e+02
      vertex   -1.198664e+01 -1.417336e+01 -2.364292e+02
    endloop
  endfacet
  facet normal 5.104777e-01 8.598910e-01 7.420814e-15
    outer loop
      vertex   -1.198664e+01 -1.417336e+01 -3.344292e+02
      vertex   -1.198664e+01 -1.417336e+01 -2.364292e+02
      vertex   -7.846160e+00 -1.663138e+01 -3.344292e+02
    endloop
  endfacet
  facet normal 5.104777e-01 8.598910e-01 7.446148e-15
    outer loop
      vertex   -7.846160e+00 -1.663138e+01 -3.344292e+02
      vertex   -1.198664e+01 -1.417336e+01 -2.364292e+02
      vertex   -7.846160e+00 -1.663138e+01 -2.364292e+02
    endloop
  endfacet
  facet normal 2.595520e-01 9.657291e-01 5.433743e-15
    outer loop
      vertex   -7.846160e+00 -1.663138e+01 -3.344292e+02
      vertex   -7.846160e+00 -1.663138e+01 -2.364292e+02
      vertex   -3.196052e+00 -1.788115e+01 -3.344292e+02
    endloop
  endfacet
  facet normal 2.595520e-01 9.657291e-01 5.359018e-15
    outer loop
      vertex   -3.196052e+00 -1.788115e+01 -3.344292e+02
      vertex   -7.846160e+00 -1.663138e+01 -2.364292e+02
      vertex   -3.196052e+00 -1.788115e+01 -2.364292e+02
    endloop
  endfacet
  facet normal -1.062354e-02 9.999436e-01 2.946034e-15
    outer loop
      vertex   -3.196052e+00 -1.788115e+01 -3.344292e+02
      vertex   -3.196052e+00 -1.788115e+01 -2.364292e+02
      vertex   1.618802e+00 -1.783000e+01 -3.344292e+02
    endloop
  endfacet
  facet normal -1.062354e-02 9.999436e-01 2.873534e-15
    outer loop
      vertex   1.618802e+00 -1.783000e+01 -3.344292e+02
      vertex   -3.196052e+00 -1.788115e+01 -2.364292e+02
      vertex   1.618802e+00 -1.783000e+01 -2.364292e+02
    endloop
  endfacet
  facet normal -2.800111e-01 9.599968e-01 2.449513e-16
    outer loop
      vertex   1.618802e+00 -1.783000e+01 -3.344292e+02
      vertex   1.618802e+00 -1.783000e+01 -2.364292e+02
      vertex   6.241308e+00 -1.648171e+01 -3.344292e+02
    endloop
  endfacet
  facet normal -2.800111e-01 9.599968e-01 3.145552e-16
    outer loop
      vertex   6.241308e+00 -1.648171e+01 -3.344292e+02
      vertex   1.618802e+00 -1.783000e+01 -2.364292e+02
      vertex   6.241308e+00 -1.648171e+01 -2.364292e+02
    endloop
  endfacet
  facet normal -5.286316e-01 8.488514e-01 -2.340252e-15
    outer loop
      vertex   6.241308e+00 -1.648171e+01 -3.344292e+02
      vertex   6.241308e+00 -1.648171e+01 -2.364292e+02
      vertex   1.032863e+01 -1.393628e+01 -3.344292e+02
    endloop
  endfacet
  facet normal -5.286316e-01 8.488514e-01 -2.378580e-15
    outer loop
      vertex   1.032863e+01 -1.393628e+01 -3.344292e+02
      vertex   6.241308e+00 -1.648171e+01 -2.364292e+02
      vertex   1.032863e+01 -1.393628e+01 -2.364292e+02
    endloop
  endfacet
  facet normal -7.380459e-01 6.747506e-01 -4.875006e-15
    outer loop
      vertex   1.032863e+01 -1.393628e+01 -3.344292e+02
      vertex   1.032863e+01 -1.393628e+01 -2.364292e+02
      vertex   1.357764e+01 -1.038250e+01 -3.344292e+02
    endloop
  endfacet
  facet normal -7.380459e-01 6.747506e-01 -4.875006e-15
    outer loop
      vertex   1.357764e+01 -1.038250e+01 -3.344292e+02
      vertex   1.032863e+01 -1.393628e+01 -2.364292e+02
      vertex   1.357764e+01 -1.038250e+01 -2.364292e+02
    endloop
  endfacet
  facet normal -8.927226e-01 4.506066e-01 -7.009874e-15
    outer loop
      vertex   1.357764e+01 -1.038250e+01 -3.344292e+02
      vertex   1.357764e+01 -1.038250e+01 -2.364292e+02
      vertex   1.574737e+01 -6.083926e+00 -3.344292e+02
    endloop
  endfacet
  facet normal -8.927226e-01 4.506066e-01 -6.977203e-15
    outer loop
      vertex   1.574737e+01 -6.083926e+00 -3.344292e+02
      vertex   1.357764e+01 -1.038250e+01 -2.364292e+02
      vertex   1.574737e+01 -6.083926e+00 -2.364292e+02
    endloop
  endfacet
  facet normal -9.811903e-01 1.930432e-01 -8.610856e-15
    outer loop
      vertex   1.574737e+01 -6.083926e+00 -3.344292e+02
      vertex   1.574737e+01 -6.083926e+00 -2.364292e+02
      vertex   1.667690e+01 -1.359372e+00 -3.344292e+02
    endloop
  endfacet
  facet normal -9.811903e-01 1.930432e-01 -8.638849e-15
    outer loop
      vertex   1.667690e+01 -1.359372e+00 -3.344292e+02
      vertex   1.574737e+01 -6.083926e+00 -2.364292e+02
      vertex   1.667690e+01 -1.359372e+00 -2.364292e+02
    endloop
  endfacet
  facet normal -9.968875e-01 -7.883734e-02 -9.594449e-15
    outer loop
      vertex   1.667690e+01 -1.359372e+00 -3.344292e+02
      vertex   1.667690e+01 -1.359372e+00 -2.364292e+02
      vertex   1.629729e+01 3.440768e+00 -3.344292e+02
    endloop
  endfacet
  facet normal -9.968875e-01 -7.883734e-02 -9.633446e-15
    outer loop
      vertex   1.629729e+01 3.440768e+00 -3.344292e+02
      vertex   1.667690e+01 -1.359372e+00 -2.364292e+02
      vertex   1.629729e+01 3.440768e+00 -2.364292e+02
    endloop
  endfacet
  facet normal 8.141155e-01 5.807030e-01 9.438888e-15
    outer loop
      vertex   1.295758e+01 1.265183e+01 -3.364292e+02
      vertex   1.295758e+01 1.265183e+01 -2.364292e+02
      vertex   1.584544e+01 8.603191e+00 -3.364292e+02
    endloop
  endfacet
  facet normal 8.141155e-01 5.807030e-01 9.409964e-15
    outer loop
      vertex   1.584544e+01 8.603191e+00 -3.364292e+02
      vertex   1.295758e+01 1.265183e+01 -2.364292e+02
      vertex   1.584544e+01 8.603191e+00 -2.364292e+02
    endloop
  endfacet
  facet normal 9.366722e-01 3.502074e-01 9.855203e-15
    outer loop
      vertex   1.584544e+01 8.603191e+00 -3.364292e+02
      vertex   1.584544e+01 8.603191e+00 -2.364292e+02
      vertex   1.758704e+01 3.945075e+00 -3.364292e+02
    endloop
  endfacet
  facet normal 9.366722e-01 3.502074e-01 9.855203e-15
    outer loop
      vertex   1.758704e+01 3.945075e+00 -3.364292e+02
      vertex   1.584544e+01 8.603191e+00 -2.364292e+02
      vertex   1.758704e+01 3.945075e+00 -2.364292e+02
    endloop
  endfacet
  facet normal 9.953962e-01 9.584575e-02 9.628825e-15
    outer loop
      vertex   1.758704e+01 3.945075e+00 -3.364292e+02
      vertex   1.758704e+01 3.945075e+00 -2.364292e+02
      vertex   1.806369e+01 -1.005078e+00 -3.364292e+02
    endloop
  endfacet
  facet normal 9.953962e-01 9.584575e-02 9.625420e-15
    outer loop
      vertex   1.806369e+01 -1.005078e+00 -3.364292e+02
      vertex   1.758704e+01 3.945075e+00 -2.364292e+02
      vertex   1.806369e+01 -1.005078e+00 -2.364292e+02
    endloop
  endfacet
  facet normal 9.862856e-01 -1.650476e-01 8.752123e-15
    outer loop
      vertex   1.806369e+01 -1.005078e+00 -3.364292e+02
      vertex   1.806369e+01 -1.005078e+00 -2.364292e+02
      vertex   1.724290e+01 -5.909923e+00 -3.364292e+02
    endloop
  endfacet
  facet normal 9.862856e-01 -1.650476e-01 8.816339e-15
    outer loop
      vertex   1.724290e+01 -5.909923e+00 -3.364292e+02
      vertex   1.806369e+01 -1.005078e+00 -2.364292e+02
      vertex   1.724290e+01 -5.909923e+00 -2.364292e+02
    endloop
  endfacet
  facet normal 9.099613e-01 -4.146932e-01 7.332306e-15
    outer loop
      vertex   1.724290e+01 -5.909923e+00 -3.364292e+02
      vertex   1.724290e+01 -5.909923e+00 -2.364292e+02
      vertex   1.518061e+01 -1.043520e+01 -3.364292e+02
    endloop
  endfacet
  facet normal 9.099613e-01 -4.146932e-01 7.229596e-15
    outer loop
      vertex   1.518061e+01 -1.043520e+01 -3.364292e+02
      vertex   1.724290e+01 -5.909923e+00 -2.364292e+02
      vertex   1.518061e+01 -1.043520e+01 -2.364292e+02
    endloop
  endfacet
  facet normal 7.716246e-01 -6.360782e-01 5.301914e-15
    outer loop
      vertex   1.518061e+01 -1.043520e+01 -3.364292e+02
      vertex   1.518061e+01 -1.043520e+01 -2.364292e+02
      vertex   1.201736e+01 -1.427253e+01 -3.364292e+02
    endloop
  endfacet
  facet normal 7.716246e-01 -6.360782e-01 5.238935e-15
    outer loop
      vertex   1.201736e+01 -1.427253e+01 -3.364292e+02
      vertex   1.518061e+01 -1.043520e+01 -2.364292e+02
      vertex   1.201736e+01 -1.427253e+01 -2.364292e+02
    endloop
  endfacet
  facet normal 5.807030e-01 -8.141155e-01 2.917852e-15
    outer loop
      vertex   1.201736e+01 -1.427253e+01 -3.364292e+02
      vertex   1.201736e+01 -1.427253e+01 -2.364292e+02
      vertex   7.968723e+00 -1.716039e+01 -3.364292e+02
    endloop
  endfacet
  facet normal 5.807030e-01 -8.141155e-01 2.959114e-15
    outer loop
      vertex   7.968723e+00 -1.716039e+01 -3.364292e+02
      vertex   1.201736e+01 -1.427253e+01 -2.364292e+02
      vertex   7.968723e+00 -1.716039e+01 -2.364292e+02
    endloop
  endfacet
  facet normal 3.502074e-01 -9.366722e-01 4.228063e-16
    outer loop
      vertex   7.968723e+00 -1.716039e+01 -3.364292e+02
      vertex   7.968723e+00 -1.716039e+01 -2.364292e+02
      vertex   3.310607e+00 -1.890199e+01 -3.364292e+02
    endloop
  endfacet
  facet normal 3.502074e-01 -9.366722e-01 2.940424e-16
    outer loop
      vertex   3.310607e+00 -1.890199e+01 -3.364292e+02
      vertex   7.968723e+00 -1.716039e+01 -2.364292e+02
      vertex   3.310607e+00 -1.890199e+01 -2.364292e+02
    endloop
  endfacet
  facet normal 9.584575e-02 -9.953962e-01 -2.230067e-15
    outer loop
      vertex   3.310607e+00 -1.890199e+01 -3.364292e+02
      vertex   3.310607e+00 -1.890199e+01 -2.364292e+02
      vertex   -1.639546e+00 -1.937864e+01 -3.364292e+02
    endloop
  endfacet
  facet normal 9.584575e-02 -9.953962e-01 -2.223257e-15
    outer loop
      vertex   -1.639546e+00 -1.937864e+01 -3.364292e+02
      vertex   3.310607e+00 -1.890199e+01 -2.364292e+02
      vertex   -1.639546e+00 -1.937864e+01 -2.364292e+02
    endloop
  endfacet
  facet normal -1.650476e-01 -9.862856e-01 -4.613929e-15
    outer loop
      vertex   -1.639546e+00 -1.937864e+01 -3.364292e+02
      vertex   -1.639546e+00 -1.937864e+01 -2.364292e+02
      vertex   -6.544391e+00 -1.855785e+01 -3.364292e+02
    endloop
  endfacet
  facet normal -1.650476e-01 -9.862856e-01 -4.616861e-15
    outer loop
      vertex   -6.544391e+00 -1.855785e+01 -3.364292e+02
      vertex   -1.639546e+00 -1.937864e+01 -2.364292e+02
      vertex   -6.544391e+00 -1.855785e+01 -2.364292e+02
    endloop
  endfacet
  facet normal -4.146932e-01 -9.099613e-01 -6.697536e-15
    outer loop
      vertex   -6.544391e+00 -1.855785e+01 -3.364292e+02
      vertex   -6.544391e+00 -1.855785e+01 -2.364292e+02
      vertex   -1.106967e+01 -1.649556e+01 -3.364292e+02
    endloop
  endfacet
  facet normal -4.146932e-01 -9.099613e-01 -6.697536e-15
    outer loop
      vertex   -1.106967e+01 -1.649556e+01 -3.364292e+02
      vertex   -6.544391e+00 -1.855785e+01 -2.364292e+02
      vertex   -1.106967e+01 -1.649556e+01 -2.364292e+02
    endloop
  endfacet
  facet normal -6.360782e-01 -7.716246e-01 -8.321785e-15
    outer loop
      vertex   -1.106967e+01 -1.649556e+01 -3.364292e+02
      vertex   -1.106967e+01 -1.649556e+01 -2.364292e+02
      vertex   -1.490700e+01 -1.333231e+01 -3.364292e+02
    endloop
  endfacet
  facet normal -6.360782e-01 -7.716246e-01 -8.399210e-15
    outer loop
      vertex   -1.490700e+01 -1.333231e+01 -3.364292e+02
      vertex   -1.106967e+01 -1.649556e+01 -2.364292e+02
      vertex   -1.490700e+01 -1.333231e+01 -2.364292e+02
    endloop
  endfacet
  facet normal -8.141155e-01 -5.807030e-01 -9.449102e-15
    outer loop
      vertex   -1.490700e+01 -1.333231e+01 -3.364292e+02
      vertex   -1.490700e+01 -1.333231e+01 -2.364292e+02
      vertex   -1.779486e+01 -9.283676e+00 -3.364292e+02
    endloop
  endfacet
  facet normal -8.141155e-01 -5.807030e-01 -9.438888e-15
    outer loop
      vertex   -1.779486e+01 -9.283676e+00 -3.364292e+02
      vertex   -1.490700e+01 -1.333231e+01 -2.364292e+02
      vertex   -1.779486e+01 -9.283676e+00 -2.364292e+02
    endloop
  endfacet
  facet normal -9.366722e-01 -3.502074e-01 -9.888480e-15
    outer loop
      vertex   -1.779486e+01 -9.283676e+00 -3.364292e+02
      vertex   -1.779486e+01 -9.283676e+00 -2.364292e+02
      vertex   -1.953646e+01 -4.625560e+00 -3.364292e+02
    endloop
  endfacet
  facet normal -9.366722e-01 -3.502074e-01 -9.904970e-15
    outer loop
      vertex   -1.953646e+01 -4.625560e+00 -3.364292e+02
      vertex   -1.779486e+01 -9.283676e+00 -2.364292e+02
      vertex   -1.953646e+01 -4.625560e+00 -2.364292e+02
    endloop
  endfacet
  facet normal -9.953962e-01 -9.584575e-02 -9.642446e-15
    outer loop
      vertex   -1.953646e+01 -4.625560e+00 -3.364292e+02
      vertex   -1.953646e+01 -4.625560e+00 -2.364292e+02
      vertex   -2.001311e+01 3.245932e-01 -3.364292e+02
    endloop
  endfacet
  facet normal -9.953962e-01 -9.584575e-02 -9.677809e-15
    outer loop
      vertex   -2.001311e+01 3.245932e-01 -3.364292e+02
      vertex   -1.953646e+01 -4.625560e+00 -2.364292e+02
      vertex   -2.001311e+01 3.245932e-01 -2.364292e+02
    endloop
  endfacet
  facet normal -9.862856e-01 1.650476e-01 -8.757844e-15
    outer loop
      vertex   -2.001311e+01 3.245932e-01 -3.364292e+02
      vertex   -2.001311e+01 3.245932e-01 -2.364292e+02
      vertex   -1.919232e+01 5.229439e+00 -3.364292e+02
    endloop
  endfacet
  facet normal -9.862856e-01 1.650476e-01 -8.722804e-15
    outer loop
      vertex   -1.919232e+01 5.229439e+00 -3.364292e+02
      vertex   -2.001311e+01 3.245932e-01 -2.364292e+02
      vertex   -1.919232e+01 5.229439e+00 -2.364292e+02
    endloop
  endfacet
  facet normal -9.099613e-01 4.146932e-01 -7.208718e-15
    outer loop
      vertex   -1.919232e+01 5.229439e+00 -3.364292e+02
      vertex   -1.919232e+01 5.229439e+00 -2.364292e+02
      vertex   -1.713003e+01 9.754720e+00 -3.364292e+02
    endloop
  endfacet
  facet normal -9.099613e-01 4.146932e-01 -7.273375e-15
    outer loop
      vertex   -1.713003e+01 9.754720e+00 -3.364292e+02
      vertex   -1.919232e+01 5.229439e+00 -2.364292e+02
      vertex   -1.713003e+01 9.754720e+00 -2.364292e+02
    endloop
  endfacet
  facet normal -7.716246e-01 6.360782e-01 -5.258197e-15
    outer loop
      vertex   -1.713003e+01 9.754720e+00 -3.364292e+02
      vertex   -1.713003e+01 9.754720e+00 -2.364292e+02
      vertex   -1.396678e+01 1.359205e+01 -3.364292e+02
    endloop
  endfacet
  facet normal -7.716246e-01 6.360782e-01 -5.285611e-15
    outer loop
      vertex   -1.396678e+01 1.359205e+01 -3.364292e+02
      vertex   -1.713003e+01 9.754720e+00 -2.364292e+02
      vertex   -1.396678e+01 1.359205e+01 -2.364292e+02
    endloop
  endfacet
  facet normal -5.807030e-01 8.141155e-01 -2.905313e-15
    outer loop
      vertex   -1.396678e+01 1.359205e+01 -3.364292e+02
      vertex   -1.396678e+01 1.359205e+01 -2.364292e+02
      vertex   -9.918144e+00 1.647991e+01 -3.364292e+02
    endloop
  endfacet
  facet normal -5.807030e-01 8.141155e-01 -2.969429e-15
    outer loop
      vertex   -9.918144e+00 1.647991e+01 -3.364292e+02
      vertex   -1.396678e+01 1.359205e+01 -2.364292e+02
      vertex   -9.918144e+00 1.647991e+01 -2.364292e+02
    endloop
  endfacet
  facet normal -3.502074e-01 9.366722e-01 -4.290273e-16
    outer loop
      vertex   -9.918144e+00 1.647991e+01 -3.364292e+02
      vertex   -9.918144e+00 1.647991e+01 -2.364292e+02
      vertex   -5.260028e+00 1.822151e+01 -3.364292e+02
    endloop
  endfacet
  facet normal -3.502074e-01 9.366722e-01 -4.268547e-16
    outer loop
      vertex   -5.260028e+00 1.822151e+01 -3.364292e+02
      vertex   -9.918144e+00 1.647991e+01 -2.364292e+02
      vertex   -5.260028e+00 1.822151e+01 -2.364292e+02
    endloop
  endfacet
  facet normal -9.584575e-02 9.953962e-01 2.167463e-15
    outer loop
      vertex   -5.260028e+00 1.822151e+01 -3.364292e+02
      vertex   -5.260028e+00 1.822151e+01 -2.364292e+02
      vertex   -3.098748e-01 1.869815e+01 -3.364292e+02
    endloop
  endfacet
  facet normal -9.584575e-02 9.953962e-01 2.162355e-15
    outer loop
      vertex   -3.098748e-01 1.869815e+01 -3.364292e+02
      vertex   -5.260028e+00 1.822151e+01 -2.364292e+02
      vertex   -3.098748e-01 1.869815e+01 -2.364292e+02
    endloop
  endfacet
  facet normal 1.650476e-01 9.862856e-01 4.622867e-15
    outer loop
      vertex   -3.098748e-01 1.869815e+01 -3.364292e+02
      vertex   -3.098748e-01 1.869815e+01 -2.364292e+02
      vertex   4.594971e+00 1.787736e+01 -3.364292e+02
    endloop
  endfacet
  facet normal 1.650476e-01 9.862856e-01 4.596480e-15
    outer loop
      vertex   4.594971e+00 1.787736e+01 -3.364292e+02
      vertex   -3.098748e-01 1.869815e+01 -2.364292e+02
      vertex   4.594971e+00 1.787736e+01 -2.364292e+02
    endloop
  endfacet
  facet normal 4.146932e-01 9.099613e-01 6.702040e-15
    outer loop
      vertex   4.594971e+00 1.787736e+01 -3.364292e+02
      vertex   4.594971e+00 1.787736e+01 -2.364292e+02
      vertex   9.120252e+00 1.581507e+01 -3.364292e+02
    endloop
  endfacet
  facet normal 4.146932e-01 9.099613e-01 6.700608e-15
    outer loop
      vertex   9.120252e+00 1.581507e+01 -3.364292e+02
      vertex   4.594971e+00 1.787736e+01 -2.364292e+02
      vertex   9.120252e+00 1.581507e+01 -2.364292e+02
    endloop
  endfacet
  facet normal 6.360782e-01 7.716246e-01 8.359758e-15
    outer loop
      vertex   9.120252e+00 1.581507e+01 -3.364292e+02
      vertex   9.120252e+00 1.581507e+01 -2.364292e+02
      vertex   1.295758e+01 1.265183e+01 -3.364292e+02
    endloop
  endfacet
  facet normal 6.360782e-01 7.716246e-01 8.346051e-15
    outer loop
      vertex   1.295758e+01 1.265183e+01 -3.364292e+02
      vertex   9.120252e+00 1.581507e+01 -2.364292e+02
      vertex   1.295758e+01 1.265183e+01 -2.364292e+02
    endloop
  endfacet
  facet normal 0.000000e+00 -0.000000e+00 1.000000e+00
    outer loop
      vertex   1.629729e+01 3.440768e+00 -2.364292e+02
      vertex   1.758704e+01 3.945075e+00 -2.364292e+02
      vertex   1.463669e+01 7.960486e+00 -2.364292e+02
    endloop
  endfacet
  facet normal -0.000000e+00 0.000000e+00 1.000000e+00
    outer loop
      vertex   1.463669e+01 7.960486e+00 -2.364292e+02
      vertex   1.758704e+01 3.945075e+00 -2.364292e+02
      vertex   1.584544e+01 8.603191e+00 -2.364292e+02
    endloop
  endfacet
  facet normal -1.082501e-14 2.035888e-14 1.000000e+00
    outer loop
      vertex   1.463669e+01 7.960486e+00 -2.364292e+02
      vertex   1.584544e+01 8.603191e+00 -2.364292e+02
      vertex   1.295758e+01 1.265183e+01 -2.364292e+02
    endloop
  endfacet
  facet normal 0.000000e+00 0.000000e+00 1.000000e+00
    outer loop
      vertex   1.758704e+01 3.945075e+00 -2.364292e+02
      vertex   1.629729e+01 3.440768e+00 -2.364292e+02
      vertex   1.806369e+01 -1.005078e+00 -2.364292e+02
    endloop
  endfacet
  facet normal 0.000000e+00 0.000000e+00 1.000000e+00
    outer loop
      vertex   1.806369e+01 -1.005078e+00 -2.364292e+02
      vertex   1.629729e+01 3.440768e+00 -2.364292e+02
      vertex   1.667690e+01 -1.359372e+00 -2.364292e+02
    endloop
  endfacet
  facet normal 0.000000e+00 0.000000e+00 1.000000e+00
    outer loop
      vertex   1.806369e+01 -1.005078e+00 -2.364292e+02
      vertex   1.667690e+01 -1.359372e+00 -2.364292e+02
      vertex   1.724290e+01 -5.909923e+00 -2.364292e+02
    endloop
  endfacet
  facet normal 0.000000e+00 0.000000e+00 1.000000e+00
    outer loop
      vertex   1.724290e+01 -5.909923e+00 -2.364292e+02
      vertex   1.667690e+01 -1.359372e+00 -2.364292e+02
      vertex   1.574737e+01 -6.083926e+00 -2.364292e+02
    endloop
  endfacet
  facet normal 3.086663e-15 -2.652928e-14 1.000000e+00
    outer loop
      vertex   1.724290e+01 -5.909923e+00 -2.364292e+02
      vertex   1.574737e+01 -6.083926e+00 -2.364292e+02
      vertex   1.518061e+01 -1.043520e+01 -2.364292e+02
    endloop
  endfacet
  facet normal -8.554040e-16 -2.601581e-14 1.000000e+00
    outer loop
      vertex   1.518061e+01 -1.043520e+01 -2.364292e+02
      vertex   1.574737e+01 -6.083926e+00 -2.364292e+02
      vertex   1.357764e+01 -1.038250e+01 -2.364292e+02
    endloop
  endfacet
  facet normal 0.000000e+00 0.000000e+00 1.000000e+00
    outer loop
      vertex   1.518061e+01 -1.043520e+01 -2.364292e+02
      vertex   1.357764e+01 -1.038250e+01 -2.364292e+02
      vertex   1.201736e+01 -1.427253e+01 -2.364292e+02
    endloop
  endfacet
  facet normal 0.000000e+00 -0.000000e+00 1.000000e+00
    outer loop
      vertex   1.201736e+01 -1.427253e+01 -2.364292e+02
      vertex   1.357764e+01 -1.038250e+01 -2.364292e+02
      vertex   1.032863e+01 -1.393628e+01 -2.364292e+02
    endloop
  endfacet
  facet normal 0.000000e+00 0.000000e+00 1.000000e+00
    outer loop
      vertex   1.201736e+01 -1.427253e+01 -2.364292e+02
      vertex   1.032863e+01 -1.393628e+01 -2.364292e+02
      vertex   7.968723e+00 -1.716039e+01 -2.364292e+02
    endloop
  endfacet
  facet normal 0.000000e+00 -0.000000e+00 1.000000e+00
    outer loop
      vertex   7.968723e+00 -1.716039e+01 -2.364292e+02
      vertex   1.032863e+01 -1.393628e+01 -2.364292e+02
      vertex   6.241308e+00 -1.648171e+01 -2.364292e+02
    endloop
  endfacet
  facet normal -1.250555e-14 -3.182968e-14 1.000000e+00
    outer loop
      vertex   7.968723e+00 -1.716039e+01 -2.364292e+02
      vertex   6.241308e+00 -1.648171e+01 -2.364292e+02
      vertex   3.310607e+00 -1.890199e+01 -2.364292e+02
    endloop
  endfacet
  facet normal -1.684160e-14 -2.657920e-14 1.000000e+00
    outer loop
      vertex   3.310607e+00 -1.890199e+01 -2.364292e+02
      vertex   6.241308e+00 -1.648171e+01 -2.364292e+02
      vertex   1.618802e+00 -1.783000e+01 -2.364292e+02
    endloop
  endfacet
  facet normal 0.000000e+00 0.000000e+00 1.000000e+00
    outer loop
      vertex   3.310607e+00 -1.890199e+01 -2.364292e+02
      vertex   1.618802e+00 -1.783000e+01 -2.364292e+02
      vertex   -1.639546e+00 -1.937864e+01 -2.364292e+02
    endloop
  endfacet
  facet normal 0.000000e+00 -0.000000e+00 1.000000e+00
    outer loop
      vertex   -1.639546e+00 -1.937864e+01 -2.364292e+02
      vertex   1.618802e+00 -1.783000e+01 -2.364292e+02
      vertex   -3.196052e+00 -1.788115e+01 -2.364292e+02
    endloop
  endfacet
  facet normal -2.805901e-14 -2.916493e-14 1.000000e+00
    outer loop
      vertex   -1.639546e+00 -1.937864e+01 -2.364292e+02
      vertex   -3.196052e+00 -1.788115e+01 -2.364292e+02
      vertex   -6.544391e+00 -1.855785e+01 -2.364292e+02
    endloop
  endfacet
  facet normal -2.987356e-14 -2.018638e-14 1.000000e+00
    outer loop
      vertex   -6.544391e+00 -1.855785e+01 -2.364292e+02
      vertex   -3.196052e+00 -1.788115e+01 -2.364292e+02
      vertex   -7.846160e+00 -1.663138e+01 -2.364292e+02
    endloop
  endfacet
  facet normal 0.000000e+00 0.000000e+00 1.000000e+00
    outer loop
      vertex   -6.544391e+00 -1.855785e+01 -2.364292e+02
      vertex   -7.846160e+00 -1.663138e+01 -2.364292e+02
      vertex   -1.106967e+01 -1.649556e+01 -2.364292e+02
    endloop
  endfacet
  facet normal -0.000000e+00 -0.000000e+00 1.000000e+00
    outer loop
      vertex   -1.106967e+01 -1.649556e+01 -2.364292e+02
      vertex   -7.846160e+00 -1.663138e+01 -2.364292e+02
      vertex   -1.198664e+01 -1.417336e+01 -2.364292e+02
    endloop
  endfacet
  facet normal 0.000000e+00 0.000000e+00 1.000000e+00
    outer loop
      vertex   -1.106967e+01 -1.649556e+01 -2.364292e+02
      vertex   -1.198664e+01 -1.417336e+01 -2.364292e+02
      vertex   -1.490700e+01 -1.333231e+01 -2.364292e+02
    endloop
  endfacet
  facet normal -0.000000e+00 -0.000000e+00 1.000000e+00
    outer loop
      vertex   -1.490700e+01 -1.333231e+01 -2.364292e+02
      vertex   -1.198664e+01 -1.417336e+01 -2.364292e+02
      vertex   -1.531042e+01 -1.068941e+01 -2.364292e+02
    endloop
  endfacet
  facet normal 0.000000e+00 0.000000e+00 1.000000e+00
    outer loop
      vertex   -1.490700e+01 -1.333231e+01 -2.364292e+02
      vertex   -1.531042e+01 -1.068941e+01 -2.364292e+02
      vertex   -1.779486e+01 -9.283676e+00 -2.364292e+02
    endloop
  endfacet
  facet normal -0.000000e+00 0.000000e+00 1.000000e+00
    outer loop
      vertex   -1.779486e+01 -9.283676e+00 -2.364292e+02
      vertex   -1.531042e+01 -1.068941e+01 -2.364292e+02
      vertex   -1.757099e+01 -6.437905e+00 -2.364292e+02
    endloop
  endfacet
  facet normal 0.000000e+00 -0.000000e+00 1.000000e+00
    outer loop
      vertex   -1.779486e+01 -9.283676e+00 -2.364292e+02
      vertex   -1.757099e+01 -6.437905e+00 -2.364292e+02
      vertex   -1.953646e+01 -4.625560e+00 -2.364292e+02
    endloop
  endfacet
  facet normal -0.000000e+00 0.000000e+00 1.000000e+00
    outer loop
      vertex   -1.953646e+01 -4.625560e+00 -2.364292e+02
      vertex   -1.757099e+01 -6.437905e+00 -2.364292e+02
      vertex   -1.860068e+01 -1.734166e+00 -2.364292e+02
    endloop
  endfacet
  facet normal 0.000000e+00 -0.000000e+00 1.000000e+00
    outer loop
      vertex   -1.953646e+01 -4.625560e+00 -2.364292e+02
      vertex   -1.860068e+01 -1.734166e+00 -2.364292e+02
      vertex   -2.001311e+01 3.245932e-01 -2.364292e+02
    endloop
  endfacet
  facet normal -0.000000e+00 0.000000e+00 1.000000e+00
    outer loop
      vertex   -2.001311e+01 3.245932e-01 -2.364292e+02
      vertex   -1.860068e+01 -1.734166e+00 -2.364292e+02
      vertex   -1.832314e+01 3.072955e+00 -2.364292e+02
    endloop
  endfacet
  facet normal 0.000000e+00 0.000000e+00 1.000000e+00
    outer loop
      vertex   -2.001311e+01 3.245932e-01 -2.364292e+02
      vertex   -1.832314e+01 3.072955e+00 -2.364292e+02
      vertex   -1.919232e+01 5.229439e+00 -2.364292e+02
    endloop
  endfacet
  facet normal -0.000000e+00 0.000000e+00 1.000000e+00
    outer loop
      vertex   -1.919232e+01 5.229439e+00 -2.364292e+02
      vertex   -1.832314e+01 3.072955e+00 -2.364292e+02
      vertex   -1.675894e+01 7.626935e+00 -2.364292e+02
    endloop
  endfacet
  facet normal 0.000000e+00 0.000000e+00 1.000000e+00
    outer loop
      vertex   -1.919232e+01 5.229439e+00 -2.364292e+02
      vertex   -1.675894e+01 7.626935e+00 -2.364292e+02
      vertex   -1.713003e+01 9.754720e+00 -2.364292e+02
    endloop
  endfacet
  facet normal -0.000000e+00 0.000000e+00 1.000000e+00
    outer loop
      vertex   -1.713003e+01 9.754720e+00 -2.364292e+02
      vertex   -1.675894e+01 7.626935e+00 -2.364292e+02
      vertex   -1.402410e+01 1.159003e+01 -2.364292e+02
    endloop
  endfacet
  facet normal 0.000000e+00 0.000000e+00 1.000000e+00
    outer loop
      vertex   -1.713003e+01 9.754720e+00 -2.364292e+02
      vertex   -1.402410e+01 1.159003e+01 -2.364292e+02
      vertex   -1.396678e+01 1.359205e+01 -2.364292e+02
    endloop
  endfacet
  facet normal -3.145286e-14 9.005776e-16 1.000000e+00
    outer loop
      vertex   -1.396678e+01 1.359205e+01 -2.364292e+02
      vertex   -1.402410e+01 1.159003e+01 -2.364292e+02
      vertex   -1.032145e+01 1.466830e+01 -2.364292e+02
    endloop
  endfacet
  facet normal -3.338102e-14 7.431359e-15 1.000000e+00
    outer loop
      vertex   -1.396678e+01 1.359205e+01 -2.364292e+02
      vertex   -1.032145e+01 1.466830e+01 -2.364292e+02
      vertex   -9.918144e+00 1.647991e+01 -2.364292e+02
    endloop
  endfacet
  facet normal -0.000000e+00 0.000000e+00 1.000000e+00
    outer loop
      vertex   -9.918144e+00 1.647991e+01 -2.364292e+02
      vertex   -1.032145e+01 1.466830e+01 -2.364292e+02
      vertex   -5.925588e+00 1.663346e+01 -2.364292e+02
    endloop
  endfacet
  facet normal 2.798454e-15 -7.276211e-14 1.000000e+00
    outer loop
      vertex   -9.918144e+00 1.647991e+01 -2.364292e+02
      vertex   -5.925588e+00 1.663346e+01 -2.364292e+02
      vertex   -5.260028e+00 1.822151e+01 -2.364292e+02
    endloop
  endfacet
  facet normal -1.413095e-14 -6.566688e-14 1.000000e+00
    outer loop
      vertex   -5.260028e+00 1.822151e+01 -2.364292e+02
      vertex   -5.925588e+00 1.663346e+01 -2.364292e+02
      vertex   -1.162545e+00 1.733976e+01 -2.364292e+02
    endloop
  endfacet
  facet normal -0.000000e+00 0.000000e+00 1.000000e+00
    outer loop
      vertex   -5.260028e+00 1.822151e+01 -2.364292e+02
      vertex   -1.162545e+00 1.733976e+01 -2.364292e+02
      vertex   -3.098748e-01 1.869815e+01 -2.364292e+02
    endloop
  endfacet
  facet normal 0.000000e+00 0.000000e+00 1.000000e+00
    outer loop
      vertex   -3.098748e-01 1.869815e+01 -2.364292e+02
      vertex   -1.162545e+00 1.733976e+01 -2.364292e+02
      vertex   3.614429e+00 1.673482e+01 -2.364292e+02
    endloop
  endfacet
  facet normal 0.000000e+00 0.000000e+00 1.000000e+00
    outer loop
      vertex   -3.098748e-01 1.869815e+01 -2.364292e+02
      vertex   3.614429e+00 1.673482e+01 -2.364292e+02
      vertex   4.594971e+00 1.787736e+01 -2.364292e+02
    endloop
  endfacet
  facet normal 0.000000e+00 0.000000e+00 1.000000e+00
    outer loop
      vertex   4.594971e+00 1.787736e+01 -2.364292e+02
      vertex   3.614429e+00 1.673482e+01 -2.364292e+02
      vertex   8.051048e+00 1.486349e+01 -2.364292e+02
    endloop
  endfacet
  facet normal 0.000000e+00 0.000000e+00 1.000000e+00
    outer loop
      vertex   4.594971e+00 1.787736e+01 -2.364292e+02
      vertex   8.051048e+00 1.486349e+01 -2.364292e+02
      vertex   9.120252e+00 1.581507e+01 -2.364292e+02
    endloop
  endfacet
  facet normal 0.000000e+00 0.000000e+00 1.000000e+00
    outer loop
      vertex   9.120252e+00 1.581507e+01 -2.364292e+02
      vertex   8.051048e+00 1.486349e+01 -2.364292e+02
      vertex   1.181827e+01 1.186458e+01 -2.364292e+02
    endloop
  endfacet
  facet normal 0.000000e+00 0.000000e+00 1.000000e+00
    outer loop
      vertex   9.120252e+00 1.581507e+01 -2.364292e+02
      vertex   1.181827e+01 1.186458e+01 -2.364292e+02
      vertex   1.295758e+01 1.265183e+01 -2.364292e+02
    endloop
  endfacet
  facet normal -1.342475e-14 1.942839e-14 1.000000e+00
    outer loop
      vertex   1.295758e+01 1.265183e+01 -2.364292e+02
      vertex   1.181827e+01 1.186458e+01 -2.364292e+02
      vertex   1.463669e+01 7.960486e+00 -2.364292e+02
    endloop
  endfacet
endsolid
