solid Anode_Vacuum
  facet normal -9.973323e-01 -7.299531e-02 -1.028173e-14
    outer loop
      vertex   -1.927756e+01 -3.033864e+00 -2.364292e+02
      vertex   -1.947471e+01 -3.402422e-01 -2.364292e+02
      vertex   -1.947471e+01 -3.402422e-01 -2.854292e+02
    endloop
  endfacet
  facet normal -9.973323e-01 7.299531e-02 -9.964757e-15
    outer loop
      vertex   -1.947471e+01 -3.402422e-01 -2.854292e+02
      vertex   -1.947471e+01 -3.402422e-01 -2.364292e+02
      vertex   -1.927756e+01 2.353379e+00 -2.364292e+02
    endloop
  endfacet
  facet normal -9.972038e-01 7.473009e-02 -9.588100e-05
    outer loop
      vertex   -1.947471e+01 -3.402422e-01 -2.854292e+02
      vertex   -1.927756e+01 2.353379e+00 -2.364292e+02
      vertex   -1.926808e+01 2.417040e+00 -2.854292e+02
    endloop
  endfacet
  facet normal -9.760759e-01 2.174302e-01 9.360203e-05
    outer loop
      vertex   -1.926808e+01 2.417040e+00 -2.854292e+02
      vertex   -1.927756e+01 2.353379e+00 -2.364292e+02
      vertex   -1.869032e+01 4.989591e+00 -2.364292e+02
    endloop
  endfacet
  facet normal -9.749279e-01 2.225209e-01 -1.872038e-04
    outer loop
      vertex   -1.926808e+01 2.417040e+00 -2.854292e+02
      vertex   -1.869032e+01 4.989591e+00 -2.364292e+02
      vertex   -1.865281e+01 5.112728e+00 -2.854292e+02
    endloop
  endfacet
  facet normal -9.340161e-01 3.572309e-01 1.826453e-04
    outer loop
      vertex   -1.865281e+01 5.112728e+00 -2.854292e+02
      vertex   -1.869032e+01 4.989591e+00 -2.364292e+02
      vertex   -1.772550e+01 7.512207e+00 -2.364292e+02
    endloop
  endfacet
  facet normal -9.308737e-01 3.653410e-01 -2.739673e-04
    outer loop
      vertex   -1.865281e+01 5.112728e+00 -2.854292e+02
      vertex   -1.772550e+01 7.512207e+00 -2.364292e+02
      vertex   -1.764263e+01 7.686607e+00 -2.854292e+02
    endloop
  endfacet
  facet normal -8.720494e-01 4.894178e-01 2.671287e-04
    outer loop
      vertex   -1.764263e+01 7.686607e+00 -2.854292e+02
      vertex   -1.772550e+01 7.512207e+00 -2.364292e+02
      vertex   -1.640367e+01 9.867461e+00 -2.364292e+02
    endloop
  endfacet
  facet normal -8.660253e-01 5.000000e-01 -3.561704e-04
    outer loop
      vertex   -1.764263e+01 7.686607e+00 -2.854292e+02
      vertex   -1.640367e+01 9.867461e+00 -2.364292e+02
      vertex   -1.626013e+01 1.008118e+01 -2.854292e+02
    endloop
  endfacet
  facet normal -7.914964e-01 6.111737e-01 3.470513e-04
    outer loop
      vertex   -1.626013e+01 1.008118e+01 -2.854292e+02
      vertex   -1.640367e+01 9.867461e+00 -2.364292e+02
      vertex   -1.475300e+01 1.200516e+01 -2.364292e+02
    endloop
  endfacet
  facet normal -7.818314e-01 6.234897e-01 -4.338121e-04
    outer loop
      vertex   -1.626013e+01 1.008118e+01 -2.854292e+02
      vertex   -1.475300e+01 1.200516e+01 -2.364292e+02
      vertex   -1.453617e+01 1.224295e+01 -2.854292e+02
    endloop
  endfacet
  facet normal -6.940741e-01 7.199034e-01 4.224120e-04
    outer loop
      vertex   -1.453617e+01 1.224295e+01 -2.854292e+02
      vertex   -1.475300e+01 1.200516e+01 -2.364292e+02
      vertex   -1.280866e+01 1.387973e+01 -2.364292e+02
    endloop
  endfacet
  facet normal -6.801727e-01 7.330518e-01 -5.068915e-04
    outer loop
      vertex   -1.453617e+01 1.224295e+01 -2.854292e+02
      vertex   -1.280866e+01 1.387973e+01 -2.364292e+02
      vertex   -1.250927e+01 1.412364e+01 -2.854292e+02
    endloop
  endfacet
  facet normal -5.818588e-01 8.132896e-01 4.932099e-04
    outer loop
      vertex   -1.250927e+01 1.412364e+01 -2.854292e+02
      vertex   -1.280866e+01 1.387973e+01 -2.364292e+02
      vertex   -1.061211e+01 1.545123e+01 -2.364292e+02
    endloop
  endfacet
  facet normal -5.633200e-01 8.262386e-01 -5.754078e-04
    outer loop
      vertex   -1.250927e+01 1.412364e+01 -2.854292e+02
      vertex   -1.061211e+01 1.545123e+01 -2.364292e+02
      vertex   -1.022471e+01 1.568123e+01 -2.854292e+02
    endloop
  endfacet
  facet normal -4.572423e-01 8.893420e-01 5.594443e-04
    outer loop
      vertex   -1.022471e+01 1.568123e+01 -2.854292e+02
      vertex   -1.061211e+01 1.545123e+01 -2.364292e+02
      vertex   -8.210148e+00 1.668616e+01 -2.364292e+02
    endloop
  endfacet
  facet normal -4.338837e-01 9.009687e-01 -6.393600e-04
    outer loop
      vertex   -1.022471e+01 1.568123e+01 -2.854292e+02
      vertex   -8.210148e+00 1.668616e+01 -2.364292e+02
      vertex   -7.733519e+00 1.688092e+01 -2.854292e+02
    endloop
  endfacet
  facet normal -3.228803e-01 9.464396e-01 6.211142e-04
    outer loop
      vertex   -7.733519e+00 1.688092e+01 -2.854292e+02
      vertex   -8.210148e+00 1.668616e+01 -2.364292e+02
      vertex   -5.653978e+00 1.755821e+01 -2.364292e+02
    endloop
  endfacet
  facet normal -2.947551e-01 9.555726e-01 -6.987475e-04
    outer loop
      vertex   -7.733519e+00 1.688092e+01 -2.854292e+02
      vertex   -5.653978e+00 1.755821e+01 -2.364292e+02
      vertex   -5.091348e+00 1.769592e+01 -2.854292e+02
    endloop
  endfacet
  facet normal -1.816368e-01 9.833655e-01 6.782190e-04
    outer loop
      vertex   -5.091348e+00 1.769592e+01 -2.854292e+02
      vertex   -5.653978e+00 1.755821e+01 -2.364292e+02
      vertex   -2.998078e+00 1.804878e+01 -2.364292e+02
    endloop
  endfacet
  facet normal -1.490422e-01 9.888305e-01 -7.535694e-04
    outer loop
      vertex   -5.091348e+00 1.769592e+01 -2.854292e+02
      vertex   -2.998078e+00 1.804878e+01 -2.364292e+02
      vertex   -2.357217e+00 1.810803e+01 -2.854292e+02
    endloop
  endfacet
  facet normal -3.652201e-02 9.993326e-01 7.307580e-04
    outer loop
      vertex   -2.357217e+00 1.810803e+01 -2.854292e+02
      vertex   -2.998078e+00 1.804878e+01 -2.364292e+02
      vertex   -2.990528e-01 1.814742e+01 -2.364292e+02
    endloop
  endfacet
  facet normal -2.503661e-15 9.999997e-01 -8.038252e-04
    outer loop
      vertex   -2.357217e+00 1.810803e+01 -2.854292e+02
      vertex   -2.990528e-01 1.814742e+01 -2.364292e+02
      vertex   4.077965e-01 1.810803e+01 -2.854292e+02
    endloop
  endfacet
  facet normal 1.093712e-01 9.940007e-01 7.787304e-04
    outer loop
      vertex   4.077965e-01 1.810803e+01 -2.854292e+02
      vertex   -2.990528e-01 1.814742e+01 -2.364292e+02
      vertex   2.385571e+00 1.785202e+01 -2.364292e+02
    endloop
  endfacet
  facet normal 1.490422e-01 9.888305e-01 -8.495142e-04
    outer loop
      vertex   4.077965e-01 1.810803e+01 -2.854292e+02
      vertex   2.385571e+00 1.785202e+01 -2.364292e+02
      vertex   3.141927e+00 1.769592e+01 -2.854292e+02
    endloop
  endfacet
  facet normal 2.529333e-01 9.674834e-01 8.221358e-04
    outer loop
      vertex   3.141927e+00 1.769592e+01 -2.854292e+02
      vertex   2.385571e+00 1.785202e+01 -2.364292e+02
      vertex   4.998577e+00 1.716889e+01 -2.364292e+02
    endloop
  endfacet
  facet normal 2.947551e-01 9.555724e-01 -8.906359e-04
    outer loop
      vertex   3.141927e+00 1.769592e+01 -2.854292e+02
      vertex   4.998577e+00 1.716889e+01 -2.364292e+02
      vertex   5.784099e+00 1.688092e+01 -2.854292e+02
    endloop
  endfacet
  facet normal 3.911046e-01 9.203458e-01 8.609736e-04
    outer loop
      vertex   5.784099e+00 1.688092e+01 -2.854292e+02
      vertex   4.998577e+00 1.716889e+01 -2.364292e+02
      vertex   7.484273e+00 1.611259e+01 -2.364292e+02
    endloop
  endfacet
  facet normal 4.338836e-01 9.009685e-01 -9.271897e-04
    outer loop
      vertex   5.784099e+00 1.688092e+01 -2.854292e+02
      vertex   7.484273e+00 1.611259e+01 -2.364292e+02
      vertex   8.275290e+00 1.568123e+01 -2.854292e+02
    endloop
  endfacet
  facet normal 5.209401e-01 8.535927e-01 8.952434e-04
    outer loop
      vertex   8.275290e+00 1.568123e+01 -2.854292e+02
      vertex   7.484273e+00 1.611259e+01 -2.364292e+02
      vertex   9.789680e+00 1.470562e+01 -2.364292e+02
    endloop
  endfacet
  facet normal 5.633198e-01 8.262384e-01 -9.591753e-04
    outer loop
      vertex   8.275290e+00 1.568123e+01 -2.854292e+02
      vertex   9.789680e+00 1.470562e+01 -2.364292e+02
      vertex   1.055985e+01 1.412364e+01 -2.854292e+02
    endloop
  endfacet
  facet normal 6.396727e-01 7.686468e-01 9.249447e-04
    outer loop
      vertex   1.055985e+01 1.412364e+01 -2.854292e+02
      vertex   9.789680e+00 1.470562e+01 -2.364292e+02
      vertex   1.186566e+01 1.297797e+01 -2.364292e+02
    endloop
  endfacet
  facet normal 6.801724e-01 7.330515e-01 -9.865922e-04
    outer loop
      vertex   1.055985e+01 1.412364e+01 -2.854292e+02
      vertex   1.186566e+01 1.297797e+01 -2.364292e+02
      vertex   1.258675e+01 1.224295e+01 -2.854292e+02
    endloop
  endfacet
  facet normal 7.447718e-01 6.673185e-01 9.500772e-04
    outer loop
      vertex   1.258675e+01 1.224295e+01 -2.854292e+02
      vertex   1.186566e+01 1.297797e+01 -2.364292e+02
      vertex   1.366797e+01 1.096647e+01 -2.364292e+02
    endloop
  endfacet
  facet normal 7.818311e-01 6.234895e-01 -1.009440e-03
    outer loop
      vertex   1.258675e+01 1.224295e+01 -2.854292e+02
      vertex   1.366797e+01 1.096647e+01 -2.364292e+02
      vertex   1.431071e+01 1.008118e+01 -2.854292e+02
    endloop
  endfacet
  facet normal 8.339974e-01 5.517675e-01 9.706405e-04
    outer loop
      vertex   1.431071e+01 1.008118e+01 -2.854292e+02
      vertex   1.366797e+01 1.096647e+01 -2.364292e+02
      vertex   1.515820e+01 8.713988e+00 -2.364292e+02
    endloop
  endfacet
  facet normal 8.660249e-01 4.999997e-01 -1.027719e-03
    outer loop
      vertex   1.431071e+01 1.008118e+01 -2.854292e+02
      vertex   1.515820e+01 8.713988e+00 -2.364292e+02
      vertex   1.569321e+01 7.686607e+00 -2.854292e+02
    endloop
  endfacet
  facet normal 9.054478e-01 4.244565e-01 9.866345e-04
    outer loop
      vertex   1.569321e+01 7.686607e+00 -2.854292e+02
      vertex   1.515820e+01 8.713988e+00 -2.364292e+02
      vertex   1.630459e+01 6.268529e+00 -2.364292e+02
    endloop
  endfacet
  facet normal 9.308732e-01 3.653408e-01 -1.041428e-03
    outer loop
      vertex   1.569321e+01 7.686607e+00 -2.854292e+02
      vertex   1.630459e+01 6.268529e+00 -2.364292e+02
      vertex   1.670339e+01 5.112728e+00 -2.854292e+02
    endloop
  endfacet
  facet normal 9.576001e-01 2.880990e-01 9.980589e-04
    outer loop
      vertex   1.670339e+01 5.112728e+00 -2.854292e+02
      vertex   1.630459e+01 6.268529e+00 -2.364292e+02
      vertex   1.708269e+01 3.682216e+00 -2.364292e+02
    endloop
  endfacet
  facet normal 9.749274e-01 2.225208e-01 -1.050568e-03
    outer loop
      vertex   1.670339e+01 5.112728e+00 -2.854292e+02
      vertex   1.708269e+01 3.682216e+00 -2.364292e+02
      vertex   1.731866e+01 2.417040e+00 -2.854292e+02
    endloop
  endfacet
  facet normal 9.893429e-01 1.456011e-01 1.004914e-03
    outer loop
      vertex   1.731866e+01 2.417040e+00 -2.854292e+02
      vertex   1.708269e+01 3.682216e+00 -2.364292e+02
      vertex   1.747594e+01 1.010171e+00 -2.364292e+02
    endloop
  endfacet
  facet normal 9.972032e-01 7.473005e-02 -1.055137e-03
    outer loop
      vertex   1.731866e+01 2.417040e+00 -2.854292e+02
      vertex   1.747594e+01 1.010171e+00 -2.364292e+02
      vertex   1.752529e+01 -3.402422e-01 -2.854292e+02
    endloop
  endfacet
  facet normal 9.999995e-01 0.000000e+00 1.007199e-03
    outer loop
      vertex   1.752529e+01 -3.402422e-01 -2.854292e+02
      vertex   1.747594e+01 1.010171e+00 -2.364292e+02
      vertex   1.747594e+01 -1.690656e+00 -2.364292e+02
    endloop
  endfacet
  facet normal 9.972032e-01 -7.473005e-02 -1.055137e-03
    outer loop
      vertex   1.752529e+01 -3.402422e-01 -2.854292e+02
      vertex   1.747594e+01 -1.690656e+00 -2.364292e+02
      vertex   1.731866e+01 -3.097524e+00 -2.854292e+02
    endloop
  endfacet
  facet normal 9.893429e-01 -1.456011e-01 1.004914e-03
    outer loop
      vertex   1.731866e+01 -3.097524e+00 -2.854292e+02
      vertex   1.747594e+01 -1.690656e+00 -2.364292e+02
      vertex   1.708269e+01 -4.362700e+00 -2.364292e+02
    endloop
  endfacet
  facet normal 9.749274e-01 -2.225208e-01 -1.050568e-03
    outer loop
      vertex   1.731866e+01 -3.097524e+00 -2.854292e+02
      vertex   1.708269e+01 -4.362700e+00 -2.364292e+02
      vertex   1.670339e+01 -5.793213e+00 -2.854292e+02
    endloop
  endfacet
  facet normal 9.576001e-01 -2.880990e-01 9.980589e-04
    outer loop
      vertex   1.670339e+01 -5.793213e+00 -2.854292e+02
      vertex   1.708269e+01 -4.362700e+00 -2.364292e+02
      vertex   1.630459e+01 -6.949014e+00 -2.364292e+02
    endloop
  endfacet
  facet normal 9.308732e-01 -3.653408e-01 -1.041428e-03
    outer loop
      vertex   1.670339e+01 -5.793213e+00 -2.854292e+02
      vertex   1.630459e+01 -6.949014e+00 -2.364292e+02
      vertex   1.569321e+01 -8.367091e+00 -2.854292e+02
    endloop
  endfacet
  facet normal 9.054478e-01 -4.244565e-01 9.866345e-04
    outer loop
      vertex   1.569321e+01 -8.367091e+00 -2.854292e+02
      vertex   1.630459e+01 -6.949014e+00 -2.364292e+02
      vertex   1.515820e+01 -9.394472e+00 -2.364292e+02
    endloop
  endfacet
  facet normal 8.660249e-01 -4.999997e-01 -1.027719e-03
    outer loop
      vertex   1.569321e+01 -8.367091e+00 -2.854292e+02
      vertex   1.515820e+01 -9.394472e+00 -2.364292e+02
      vertex   1.431071e+01 -1.076166e+01 -2.854292e+02
    endloop
  endfacet
  facet normal 8.339974e-01 -5.517675e-01 9.706405e-04
    outer loop
      vertex   1.431071e+01 -1.076166e+01 -2.854292e+02
      vertex   1.515820e+01 -9.394472e+00 -2.364292e+02
      vertex   1.366797e+01 -1.164696e+01 -2.364292e+02
    endloop
  endfacet
  facet normal 7.818311e-01 -6.234895e-01 -1.009440e-03
    outer loop
      vertex   1.431071e+01 -1.076166e+01 -2.854292e+02
      vertex   1.366797e+01 -1.164696e+01 -2.364292e+02
      vertex   1.258675e+01 -1.292344e+01 -2.854292e+02
    endloop
  endfacet
  facet normal 7.447718e-01 -6.673185e-01 9.500772e-04
    outer loop
      vertex   1.258675e+01 -1.292344e+01 -2.854292e+02
      vertex   1.366797e+01 -1.164696e+01 -2.364292e+02
      vertex   1.186566e+01 -1.365846e+01 -2.364292e+02
    endloop
  endfacet
  facet normal 6.801724e-01 -7.330515e-01 -9.865922e-04
    outer loop
      vertex   1.258675e+01 -1.292344e+01 -2.854292e+02
      vertex   1.186566e+01 -1.365846e+01 -2.364292e+02
      vertex   1.055985e+01 -1.480412e+01 -2.854292e+02
    endloop
  endfacet
  facet normal 6.396727e-01 -7.686468e-01 9.249447e-04
    outer loop
      vertex   1.055985e+01 -1.480412e+01 -2.854292e+02
      vertex   1.186566e+01 -1.365846e+01 -2.364292e+02
      vertex   9.789680e+00 -1.538610e+01 -2.364292e+02
    endloop
  endfacet
  facet normal 5.633198e-01 -8.262384e-01 -9.591753e-04
    outer loop
      vertex   1.055985e+01 -1.480412e+01 -2.854292e+02
      vertex   9.789680e+00 -1.538610e+01 -2.364292e+02
      vertex   8.275290e+00 -1.636171e+01 -2.854292e+02
    endloop
  endfacet
  facet normal 5.209401e-01 -8.535927e-01 8.952434e-04
    outer loop
      vertex   8.275290e+00 -1.636171e+01 -2.854292e+02
      vertex   9.789680e+00 -1.538610e+01 -2.364292e+02
      vertex   7.484273e+00 -1.679307e+01 -2.364292e+02
    endloop
  endfacet
  facet normal 4.338836e-01 -9.009685e-01 -9.271897e-04
    outer loop
      vertex   8.275290e+00 -1.636171e+01 -2.854292e+02
      vertex   7.484273e+00 -1.679307e+01 -2.364292e+02
      vertex   5.784099e+00 -1.756141e+01 -2.854292e+02
    endloop
  endfacet
  facet normal 3.911046e-01 -9.203458e-01 8.609736e-04
    outer loop
      vertex   5.784099e+00 -1.756141e+01 -2.854292e+02
      vertex   7.484273e+00 -1.679307e+01 -2.364292e+02
      vertex   4.998577e+00 -1.784938e+01 -2.364292e+02
    endloop
  endfacet
  facet normal 2.947551e-01 -9.555724e-01 -8.906359e-04
    outer loop
      vertex   5.784099e+00 -1.756141e+01 -2.854292e+02
      vertex   4.998577e+00 -1.784938e+01 -2.364292e+02
      vertex   3.141927e+00 -1.837641e+01 -2.854292e+02
    endloop
  endfacet
  facet normal 2.529333e-01 -9.674834e-01 8.221358e-04
    outer loop
      vertex   3.141927e+00 -1.837641e+01 -2.854292e+02
      vertex   4.998577e+00 -1.784938e+01 -2.364292e+02
      vertex   2.385571e+00 -1.853251e+01 -2.364292e+02
    endloop
  endfacet
  facet normal 1.490422e-01 -9.888305e-01 -8.495142e-04
    outer loop
      vertex   3.141927e+00 -1.837641e+01 -2.854292e+02
      vertex   2.385571e+00 -1.853251e+01 -2.364292e+02
      vertex   4.077965e-01 -1.878851e+01 -2.854292e+02
    endloop
  endfacet
  facet normal 1.093712e-01 -9.940007e-01 7.787304e-04
    outer loop
      vertex   4.077965e-01 -1.878851e+01 -2.854292e+02
      vertex   2.385571e+00 -1.853251e+01 -2.364292e+02
      vertex   -2.990528e-01 -1.882790e+01 -2.364292e+02
    endloop
  endfacet
  facet normal 2.602812e-15 -9.999997e-01 -8.038252e-04
    outer loop
      vertex   4.077965e-01 -1.878851e+01 -2.854292e+02
      vertex   -2.990528e-01 -1.882790e+01 -2.364292e+02
      vertex   -2.357217e+00 -1.878851e+01 -2.854292e+02
    endloop
  endfacet
  facet normal -3.652201e-02 -9.993326e-01 7.307580e-04
    outer loop
      vertex   -2.357217e+00 -1.878851e+01 -2.854292e+02
      vertex   -2.990528e-01 -1.882790e+01 -2.364292e+02
      vertex   -2.998078e+00 -1.872926e+01 -2.364292e+02
    endloop
  endfacet
  facet normal -1.490422e-01 -9.888305e-01 -7.535694e-04
    outer loop
      vertex   -2.357217e+00 -1.878851e+01 -2.854292e+02
      vertex   -2.998078e+00 -1.872926e+01 -2.364292e+02
      vertex   -5.091348e+00 -1.837641e+01 -2.854292e+02
    endloop
  endfacet
  facet normal -1.816368e-01 -9.833655e-01 6.782190e-04
    outer loop
      vertex   -5.091348e+00 -1.837641e+01 -2.854292e+02
      vertex   -2.998078e+00 -1.872926e+01 -2.364292e+02
      vertex   -5.653978e+00 -1.823869e+01 -2.364292e+02
    endloop
  endfacet
  facet normal -2.947551e-01 -9.555726e-01 -6.987475e-04
    outer loop
      vertex   -5.091348e+00 -1.837641e+01 -2.854292e+02
      vertex   -5.653978e+00 -1.823869e+01 -2.364292e+02
      vertex   -7.733519e+00 -1.756141e+01 -2.854292e+02
    endloop
  endfacet
  facet normal -3.228803e-01 -9.464396e-01 6.211142e-04
    outer loop
      vertex   -7.733519e+00 -1.756141e+01 -2.854292e+02
      vertex   -5.653978e+00 -1.823869e+01 -2.364292e+02
      vertex   -8.210148e+00 -1.736665e+01 -2.364292e+02
    endloop
  endfacet
  facet normal -4.338837e-01 -9.009687e-01 -6.393600e-04
    outer loop
      vertex   -7.733519e+00 -1.756141e+01 -2.854292e+02
      vertex   -8.210148e+00 -1.736665e+01 -2.364292e+02
      vertex   -1.022471e+01 -1.636171e+01 -2.854292e+02
    endloop
  endfacet
  facet normal -4.572423e-01 -8.893420e-01 5.594443e-04
    outer loop
      vertex   -1.022471e+01 -1.636171e+01 -2.854292e+02
      vertex   -8.210148e+00 -1.736665e+01 -2.364292e+02
      vertex   -1.061211e+01 -1.613171e+01 -2.364292e+02
    endloop
  endfacet
  facet normal -5.633200e-01 -8.262386e-01 -5.754078e-04
    outer loop
      vertex   -1.022471e+01 -1.636171e+01 -2.854292e+02
      vertex   -1.061211e+01 -1.613171e+01 -2.364292e+02
      vertex   -1.250927e+01 -1.480412e+01 -2.854292e+02
    endloop
  endfacet
  facet normal -5.818588e-01 -8.132896e-01 4.932099e-04
    outer loop
      vertex   -1.250927e+01 -1.480412e+01 -2.854292e+02
      vertex   -1.061211e+01 -1.613171e+01 -2.364292e+02
      vertex   -1.280866e+01 -1.456021e+01 -2.364292e+02
    endloop
  endfacet
  facet normal -6.801727e-01 -7.330518e-01 -5.068915e-04
    outer loop
      vertex   -1.250927e+01 -1.480412e+01 -2.854292e+02
      vertex   -1.280866e+01 -1.456021e+01 -2.364292e+02
      vertex   -1.453617e+01 -1.292344e+01 -2.854292e+02
    endloop
  endfacet
  facet normal -6.940741e-01 -7.199034e-01 4.224120e-04
    outer loop
      vertex   -1.453617e+01 -1.292344e+01 -2.854292e+02
      vertex   -1.280866e+01 -1.456021e+01 -2.364292e+02
      vertex   -1.475300e+01 -1.268564e+01 -2.364292e+02
    endloop
  endfacet
  facet normal -7.818314e-01 -6.234897e-01 -4.338121e-04
    outer loop
      vertex   -1.453617e+01 -1.292344e+01 -2.854292e+02
      vertex   -1.475300e+01 -1.268564e+01 -2.364292e+02
      vertex   -1.626013e+01 -1.076166e+01 -2.854292e+02
    endloop
  endfacet
  facet normal -7.914964e-01 -6.111737e-01 3.470513e-04
    outer loop
      vertex   -1.626013e+01 -1.076166e+01 -2.854292e+02
      vertex   -1.475300e+01 -1.268564e+01 -2.364292e+02
      vertex   -1.640367e+01 -1.054795e+01 -2.364292e+02
    endloop
  endfacet
  facet normal -8.660253e-01 -5.000000e-01 -3.561704e-04
    outer loop
      vertex   -1.626013e+01 -1.076166e+01 -2.854292e+02
      vertex   -1.640367e+01 -1.054795e+01 -2.364292e+02
      vertex   -1.764263e+01 -8.367091e+00 -2.854292e+02
    endloop
  endfacet
  facet normal -8.720494e-01 -4.894178e-01 2.671287e-04
    outer loop
      vertex   -1.764263e+01 -8.367091e+00 -2.854292e+02
      vertex   -1.640367e+01 -1.054795e+01 -2.364292e+02
      vertex   -1.772550e+01 -8.192691e+00 -2.364292e+02
    endloop
  endfacet
  facet normal -9.308737e-01 -3.653410e-01 -2.739673e-04
    outer loop
      vertex   -1.764263e+01 -8.367091e+00 -2.854292e+02
      vertex   -1.772550e+01 -8.192691e+00 -2.364292e+02
      vertex   -1.865281e+01 -5.793213e+00 -2.854292e+02
    endloop
  endfacet
  facet normal -9.340161e-01 -3.572309e-01 1.826453e-04
    outer loop
      vertex   -1.865281e+01 -5.793213e+00 -2.854292e+02
      vertex   -1.772550e+01 -8.192691e+00 -2.364292e+02
      vertex   -1.869032e+01 -5.670076e+00 -2.364292e+02
    endloop
  endfacet
  facet normal -9.749279e-01 -2.225209e-01 -1.872038e-04
    outer loop
      vertex   -1.865281e+01 -5.793213e+00 -2.854292e+02
      vertex   -1.869032e+01 -5.670076e+00 -2.364292e+02
      vertex   -1.926808e+01 -3.097524e+00 -2.854292e+02
    endloop
  endfacet
  facet normal -9.760759e-01 -2.174302e-01 9.360203e-05
    outer loop
      vertex   -1.926808e+01 -3.097524e+00 -2.854292e+02
      vertex   -1.869032e+01 -5.670076e+00 -2.364292e+02
      vertex   -1.927756e+01 -3.033864e+00 -2.364292e+02
    endloop
  endfacet
  facet normal -9.972038e-01 -7.473009e-02 -9.588100e-05
    outer loop
      vertex   -1.926808e+01 -3.097524e+00 -2.854292e+02
      vertex   -1.927756e+01 -3.033864e+00 -2.364292e+02
      vertex   -1.947471e+01 -3.402422e-01 -2.854292e+02
    endloop
  endfacet
  facet normal -9.973323e-01 7.299531e-02 -9.954553e-15
    outer loop
      vertex   -1.927756e+01 2.353379e+00 -3.344292e+02
      vertex   -1.947471e+01 -3.402422e-01 -3.344292e+02
      vertex   -1.947471e+01 -3.402422e-01 -2.854292e+02
    endloop
  endfacet
  facet normal -9.973323e-01 -7.299531e-02 -1.029289e-14
    outer loop
      vertex   -1.947471e+01 -3.402422e-01 -2.854292e+02
      vertex   -1.947471e+01 -3.402422e-01 -3.344292e+02
      vertex   -1.927756e+01 -3.033864e+00 -3.344292e+02
    endloop
  endfacet
  facet normal -9.972038e-01 -7.473009e-02 9.588100e-05
    outer loop
      vertex   -1.947471e+01 -3.402422e-01 -2.854292e+02
      vertex   -1.927756e+01 -3.033864e+00 -3.344292e+02
      vertex   -1.926808e+01 -3.097524e+00 -2.854292e+02
    endloop
  endfacet
  facet normal -9.760759e-01 -2.174302e-01 -9.360203e-05
    outer loop
      vertex   -1.926808e+01 -3.097524e+00 -2.854292e+02
      vertex   -1.927756e+01 -3.033864e+00 -3.344292e+02
      vertex   -1.869032e+01 -5.670076e+00 -3.344292e+02
    endloop
  endfacet
  facet normal -9.749279e-01 -2.225209e-01 1.872038e-04
    outer loop
      vertex   -1.926808e+01 -3.097524e+00 -2.854292e+02
      vertex   -1.869032e+01 -5.670076e+00 -3.344292e+02
      vertex   -1.865281e+01 -5.793213e+00 -2.854292e+02
    endloop
  endfacet
  facet normal -9.340161e-01 -3.572309e-01 -1.826453e-04
    outer loop
      vertex   -1.865281e+01 -5.793213e+00 -2.854292e+02
      vertex   -1.869032e+01 -5.670076e+00 -3.344292e+02
      vertex   -1.772550e+01 -8.192691e+00 -3.344292e+02
    endloop
  endfacet
  facet normal -9.308737e-01 -3.653410e-01 2.739673e-04
    outer loop
      vertex   -1.865281e+01 -5.793213e+00 -2.854292e+02
      vertex   -1.772550e+01 -8.192691e+00 -3.344292e+02
      vertex   -1.764263e+01 -8.367091e+00 -2.854292e+02
    endloop
  endfacet
  facet normal -8.720494e-01 -4.894178e-01 -2.671287e-04
    outer loop
      vertex   -1.764263e+01 -8.367091e+00 -2.854292e+02
      vertex   -1.772550e+01 -8.192691e+00 -3.344292e+02
      vertex   -1.640367e+01 -1.054795e+01 -3.344292e+02
    endloop
  endfacet
  facet normal -8.660253e-01 -5.000000e-01 3.561704e-04
    outer loop
      vertex   -1.764263e+01 -8.367091e+00 -2.854292e+02
      vertex   -1.640367e+01 -1.054795e+01 -3.344292e+02
      vertex   -1.626013e+01 -1.076166e+01 -2.854292e+02
    endloop
  endfacet
  facet normal -7.914964e-01 -6.111737e-01 -3.470513e-04
    outer loop
      vertex   -1.626013e+01 -1.076166e+01 -2.854292e+02
      vertex   -1.640367e+01 -1.054795e+01 -3.344292e+02
      vertex   -1.475300e+01 -1.268564e+01 -3.344292e+02
    endloop
  endfacet
  facet normal -7.818314e-01 -6.234897e-01 4.338121e-04
    outer loop
      vertex   -1.626013e+01 -1.076166e+01 -2.854292e+02
      vertex   -1.475300e+01 -1.268564e+01 -3.344292e+02
      vertex   -1.453617e+01 -1.292344e+01 -2.854292e+02
    endloop
  endfacet
  facet normal -6.940741e-01 -7.199034e-01 -4.224120e-04
    outer loop
      vertex   -1.453617e+01 -1.292344e+01 -2.854292e+02
      vertex   -1.475300e+01 -1.268564e+01 -3.344292e+02
      vertex   -1.280866e+01 -1.456021e+01 -3.344292e+02
    endloop
  endfacet
  facet normal -6.801727e-01 -7.330518e-01 5.068915e-04
    outer loop
      vertex   -1.453617e+01 -1.292344e+01 -2.854292e+02
      vertex   -1.280866e+01 -1.456021e+01 -3.344292e+02
      vertex   -1.250927e+01 -1.480412e+01 -2.854292e+02
    endloop
  endfacet
  facet normal -5.818588e-01 -8.132896e-01 -4.932099e-04
    outer loop
      vertex   -1.250927e+01 -1.480412e+01 -2.854292e+02
      vertex   -1.280866e+01 -1.456021e+01 -3.344292e+02
      vertex   -1.061211e+01 -1.613171e+01 -3.344292e+02
    endloop
  endfacet
  facet normal -5.633200e-01 -8.262386e-01 5.754078e-04
    outer loop
      vertex   -1.250927e+01 -1.480412e+01 -2.854292e+02
      vertex   -1.061211e+01 -1.613171e+01 -3.344292e+02
      vertex   -1.022471e+01 -1.636171e+01 -2.854292e+02
    endloop
  endfacet
  facet normal -4.572423e-01 -8.893420e-01 -5.594443e-04
    outer loop
      vertex   -1.022471e+01 -1.636171e+01 -2.854292e+02
      vertex   -1.061211e+01 -1.613171e+01 -3.344292e+02
      vertex   -8.210148e+00 -1.736665e+01 -3.344292e+02
    endloop
  endfacet
  facet normal -4.338837e-01 -9.009687e-01 6.393600e-04
    outer loop
      vertex   -1.022471e+01 -1.636171e+01 -2.854292e+02
      vertex   -8.210148e+00 -1.736665e+01 -3.344292e+02
      vertex   -7.733519e+00 -1.756141e+01 -2.854292e+02
    endloop
  endfacet
  facet normal -3.228803e-01 -9.464396e-01 -6.211142e-04
    outer loop
      vertex   -7.733519e+00 -1.756141e+01 -2.854292e+02
      vertex   -8.210148e+00 -1.736665e+01 -3.344292e+02
      vertex   -5.653978e+00 -1.823869e+01 -3.344292e+02
    endloop
  endfacet
  facet normal -2.947551e-01 -9.555726e-01 6.987475e-04
    outer loop
      vertex   -7.733519e+00 -1.756141e+01 -2.854292e+02
      vertex   -5.653978e+00 -1.823869e+01 -3.344292e+02
      vertex   -5.091348e+00 -1.837641e+01 -2.854292e+02
    endloop
  endfacet
  facet normal -1.816368e-01 -9.833655e-01 -6.782190e-04
    outer loop
      vertex   -5.091348e+00 -1.837641e+01 -2.854292e+02
      vertex   -5.653978e+00 -1.823869e+01 -3.344292e+02
      vertex   -2.998078e+00 -1.872926e+01 -3.344292e+02
    endloop
  endfacet
  facet normal -1.490422e-01 -9.888305e-01 7.535694e-04
    outer loop
      vertex   -5.091348e+00 -1.837641e+01 -2.854292e+02
      vertex   -2.998078e+00 -1.872926e+01 -3.344292e+02
      vertex   -2.357217e+00 -1.878851e+01 -2.854292e+02
    endloop
  endfacet
  facet normal -3.652201e-02 -9.993326e-01 -7.307580e-04
    outer loop
      vertex   -2.357217e+00 -1.878851e+01 -2.854292e+02
      vertex   -2.998078e+00 -1.872926e+01 -3.344292e+02
      vertex   -2.990528e-01 -1.882790e+01 -3.344292e+02
    endloop
  endfacet
  facet normal 2.536711e-15 -9.999997e-01 8.038252e-04
    outer loop
      vertex   -2.357217e+00 -1.878851e+01 -2.854292e+02
      vertex   -2.990528e-01 -1.882790e+01 -3.344292e+02
      vertex   4.077965e-01 -1.878851e+01 -2.854292e+02
    endloop
  endfacet
  facet normal 1.093712e-01 -9.940007e-01 -7.787304e-04
    outer loop
      vertex   4.077965e-01 -1.878851e+01 -2.854292e+02
      vertex   -2.990528e-01 -1.882790e+01 -3.344292e+02
      vertex   2.385571e+00 -1.853251e+01 -3.344292e+02
    endloop
  endfacet
  facet normal 1.490422e-01 -9.888305e-01 8.495142e-04
    outer loop
      vertex   4.077965e-01 -1.878851e+01 -2.854292e+02
      vertex   2.385571e+00 -1.853251e+01 -3.344292e+02
      vertex   3.141927e+00 -1.837641e+01 -2.854292e+02
    endloop
  endfacet
  facet normal 2.529333e-01 -9.674834e-01 -8.221358e-04
    outer loop
      vertex   3.141927e+00 -1.837641e+01 -2.854292e+02
      vertex   2.385571e+00 -1.853251e+01 -3.344292e+02
      vertex   4.998577e+00 -1.784938e+01 -3.344292e+02
    endloop
  endfacet
  facet normal 2.947551e-01 -9.555724e-01 8.906359e-04
    outer loop
      vertex   3.141927e+00 -1.837641e+01 -2.854292e+02
      vertex   4.998577e+00 -1.784938e+01 -3.344292e+02
      vertex   5.784099e+00 -1.756141e+01 -2.854292e+02
    endloop
  endfacet
  facet normal 3.911046e-01 -9.203458e-01 -8.609736e-04
    outer loop
      vertex   5.784099e+00 -1.756141e+01 -2.854292e+02
      vertex   4.998577e+00 -1.784938e+01 -3.344292e+02
      vertex   7.484273e+00 -1.679307e+01 -3.344292e+02
    endloop
  endfacet
  facet normal 4.338836e-01 -9.009685e-01 9.271897e-04
    outer loop
      vertex   5.784099e+00 -1.756141e+01 -2.854292e+02
      vertex   7.484273e+00 -1.679307e+01 -3.344292e+02
      vertex   8.275290e+00 -1.636171e+01 -2.854292e+02
    endloop
  endfacet
  facet normal 5.209401e-01 -8.535927e-01 -8.952434e-04
    outer loop
      vertex   8.275290e+00 -1.636171e+01 -2.854292e+02
      vertex   7.484273e+00 -1.679307e+01 -3.344292e+02
      vertex   9.789680e+00 -1.538610e+01 -3.344292e+02
    endloop
  endfacet
  facet normal 5.633198e-01 -8.262384e-01 9.591753e-04
    outer loop
      vertex   8.275290e+00 -1.636171e+01 -2.854292e+02
      vertex   9.789680e+00 -1.538610e+01 -3.344292e+02
      vertex   1.055985e+01 -1.480412e+01 -2.854292e+02
    endloop
  endfacet
  facet normal 6.396727e-01 -7.686468e-01 -9.249447e-04
    outer loop
      vertex   1.055985e+01 -1.480412e+01 -2.854292e+02
      vertex   9.789680e+00 -1.538610e+01 -3.344292e+02
      vertex   1.186566e+01 -1.365846e+01 -3.344292e+02
    endloop
  endfacet
  facet normal 6.801724e-01 -7.330515e-01 9.865922e-04
    outer loop
      vertex   1.055985e+01 -1.480412e+01 -2.854292e+02
      vertex   1.186566e+01 -1.365846e+01 -3.344292e+02
      vertex   1.258675e+01 -1.292344e+01 -2.854292e+02
    endloop
  endfacet
  facet normal 7.447718e-01 -6.673185e-01 -9.500772e-04
    outer loop
      vertex   1.258675e+01 -1.292344e+01 -2.854292e+02
      vertex   1.186566e+01 -1.365846e+01 -3.344292e+02
      vertex   1.366797e+01 -1.164696e+01 -3.344292e+02
    endloop
  endfacet
  facet normal 7.818311e-01 -6.234895e-01 1.009440e-03
    outer loop
      vertex   1.258675e+01 -1.292344e+01 -2.854292e+02
      vertex   1.366797e+01 -1.164696e+01 -3.344292e+02
      vertex   1.431071e+01 -1.076166e+01 -2.854292e+02
    endloop
  endfacet
  facet normal 8.339974e-01 -5.517675e-01 -9.706405e-04
    outer loop
      vertex   1.431071e+01 -1.076166e+01 -2.854292e+02
      vertex   1.366797e+01 -1.164696e+01 -3.344292e+02
      vertex   1.515820e+01 -9.394472e+00 -3.344292e+02
    endloop
  endfacet
  facet normal 8.660249e-01 -4.999997e-01 1.027719e-03
    outer loop
      vertex   1.431071e+01 -1.076166e+01 -2.854292e+02
      vertex   1.515820e+01 -9.394472e+00 -3.344292e+02
      vertex   1.569321e+01 -8.367091e+00 -2.854292e+02
    endloop
  endfacet
  facet normal 9.054478e-01 -4.244565e-01 -9.866345e-04
    outer loop
      vertex   1.569321e+01 -8.367091e+00 -2.854292e+02
      vertex   1.515820e+01 -9.394472e+00 -3.344292e+02
      vertex   1.630459e+01 -6.949014e+00 -3.344292e+02
    endloop
  endfacet
  facet normal 9.308732e-01 -3.653408e-01 1.041428e-03
    outer loop
      vertex   1.569321e+01 -8.367091e+00 -2.854292e+02
      vertex   1.630459e+01 -6.949014e+00 -3.344292e+02
      vertex   1.670339e+01 -5.793213e+00 -2.854292e+02
    endloop
  endfacet
  facet normal 9.576001e-01 -2.880990e-01 -9.980589e-04
    outer loop
      vertex   1.670339e+01 -5.793213e+00 -2.854292e+02
      vertex   1.630459e+01 -6.949014e+00 -3.344292e+02
      vertex   1.708269e+01 -4.362700e+00 -3.344292e+02
    endloop
  endfacet
  facet normal 9.749274e-01 -2.225208e-01 1.050568e-03
    outer loop
      vertex   1.670339e+01 -5.793213e+00 -2.854292e+02
      vertex   1.708269e+01 -4.362700e+00 -3.344292e+02
      vertex   1.731866e+01 -3.097524e+00 -2.854292e+02
    endloop
  endfacet
  facet normal 9.893429e-01 -1.456011e-01 -1.004914e-03
    outer loop
      vertex   1.731866e+01 -3.097524e+00 -2.854292e+02
      vertex   1.708269e+01 -4.362700e+00 -3.344292e+02
      vertex   1.747594e+01 -1.690656e+00 -3.344292e+02
    endloop
  endfacet
  facet normal 9.972032e-01 -7.473005e-02 1.055137e-03
    outer loop
      vertex   1.731866e+01 -3.097524e+00 -2.854292e+02
      vertex   1.747594e+01 -1.690656e+00 -3.344292e+02
      vertex   1.752529e+01 -3.402422e-01 -2.854292e+02
    endloop
  endfacet
  facet normal 9.999995e-01 0.000000e+00 -1.007199e-03
    outer loop
      vertex   1.752529e+01 -3.402422e-01 -2.854292e+02
      vertex   1.747594e+01 -1.690656e+00 -3.344292e+02
      vertex   1.747594e+01 1.010171e+00 -3.344292e+02
    endloop
  endfacet
  facet normal 9.972032e-01 7.473005e-02 1.055137e-03
    outer loop
      vertex   1.752529e+01 -3.402422e-01 -2.854292e+02
      vertex   1.747594e+01 1.010171e+00 -3.344292e+02
      vertex   1.731866e+01 2.417040e+00 -2.854292e+02
    endloop
  endfacet
  facet normal 9.893429e-01 1.456011e-01 -1.004914e-03
    outer loop
      vertex   1.731866e+01 2.417040e+00 -2.854292e+02
      vertex   1.747594e+01 1.010171e+00 -3.344292e+02
      vertex   1.708269e+01 3.682216e+00 -3.344292e+02
    endloop
  endfacet
  facet normal 9.749274e-01 2.225208e-01 1.050568e-03
    outer loop
      vertex   1.731866e+01 2.417040e+00 -2.854292e+02
      vertex   1.708269e+01 3.682216e+00 -3.344292e+02
      vertex   1.670339e+01 5.112728e+00 -2.854292e+02
    endloop
  endfacet
  facet normal 9.576001e-01 2.880990e-01 -9.980589e-04
    outer loop
      vertex   1.670339e+01 5.112728e+00 -2.854292e+02
      vertex   1.708269e+01 3.682216e+00 -3.344292e+02
      vertex   1.630459e+01 6.268529e+00 -3.344292e+02
    endloop
  endfacet
  facet normal 9.308732e-01 3.653408e-01 1.041428e-03
    outer loop
      vertex   1.670339e+01 5.112728e+00 -2.854292e+02
      vertex   1.630459e+01 6.268529e+00 -3.344292e+02
      vertex   1.569321e+01 7.686607e+00 -2.854292e+02
    endloop
  endfacet
  facet normal 9.054478e-01 4.244565e-01 -9.866345e-04
    outer loop
      vertex   1.569321e+01 7.686607e+00 -2.854292e+02
      vertex   1.630459e+01 6.268529e+00 -3.344292e+02
      vertex   1.515820e+01 8.713988e+00 -3.344292e+02
    endloop
  endfacet
  facet normal 8.660249e-01 4.999997e-01 1.027719e-03
    outer loop
      vertex   1.569321e+01 7.686607e+00 -2.854292e+02
      vertex   1.515820e+01 8.713988e+00 -3.344292e+02
      vertex   1.431071e+01 1.008118e+01 -2.854292e+02
    endloop
  endfacet
  facet normal 8.339974e-01 5.517675e-01 -9.706405e-04
    outer loop
      vertex   1.431071e+01 1.008118e+01 -2.854292e+02
      vertex   1.515820e+01 8.713988e+00 -3.344292e+02
      vertex   1.366797e+01 1.096647e+01 -3.344292e+02
    endloop
  endfacet
  facet normal 7.818311e-01 6.234895e-01 1.009440e-03
    outer loop
      vertex   1.431071e+01 1.008118e+01 -2.854292e+02
      vertex   1.366797e+01 1.096647e+01 -3.344292e+02
      vertex   1.258675e+01 1.224295e+01 -2.854292e+02
    endloop
  endfacet
  facet normal 7.447718e-01 6.673185e-01 -9.500772e-04
    outer loop
      vertex   1.258675e+01 1.224295e+01 -2.854292e+02
      vertex   1.366797e+01 1.096647e+01 -3.344292e+02
      vertex   1.186566e+01 1.297797e+01 -3.344292e+02
    endloop
  endfacet
  facet normal 6.801724e-01 7.330515e-01 9.865922e-04
    outer loop
      vertex   1.258675e+01 1.224295e+01 -2.854292e+02
      vertex   1.186566e+01 1.297797e+01 -3.344292e+02
      vertex   1.055985e+01 1.412364e+01 -2.854292e+02
    endloop
  endfacet
  facet normal 6.396727e-01 7.686468e-01 -9.249447e-04
    outer loop
      vertex   1.055985e+01 1.412364e+01 -2.854292e+02
      vertex   1.186566e+01 1.297797e+01 -3.344292e+02
      vertex   9.789680e+00 1.470562e+01 -3.344292e+02
    endloop
  endfacet
  facet normal 5.633198e-01 8.262384e-01 9.591753e-04
    outer loop
      vertex   1.055985e+01 1.412364e+01 -2.854292e+02
      vertex   9.789680e+00 1.470562e+01 -3.344292e+02
      vertex   8.275290e+00 1.568123e+01 -2.854292e+02
    endloop
  endfacet
  facet normal 5.209401e-01 8.535927e-01 -8.952434e-04
    outer loop
      vertex   8.275290e+00 1.568123e+01 -2.854292e+02
      vertex   9.789680e+00 1.470562e+01 -3.344292e+02
      vertex   7.484273e+00 1.611259e+01 -3.344292e+02
    endloop
  endfacet
  facet normal 4.338836e-01 9.009685e-01 9.271897e-04
    outer loop
      vertex   8.275290e+00 1.568123e+01 -2.854292e+02
      vertex   7.484273e+00 1.611259e+01 -3.344292e+02
      vertex   5.784099e+00 1.688092e+01 -2.854292e+02
    endloop
  endfacet
  facet normal 3.911046e-01 9.203458e-01 -8.609736e-04
    outer loop
      vertex   5.784099e+00 1.688092e+01 -2.854292e+02
      vertex   7.484273e+00 1.611259e+01 -3.344292e+02
      vertex   4.998577e+00 1.716889e+01 -3.344292e+02
    endloop
  endfacet
  facet normal 2.947551e-01 9.555724e-01 8.906359e-04
    outer loop
      vertex   5.784099e+00 1.688092e+01 -2.854292e+02
      vertex   4.998577e+00 1.716889e+01 -3.344292e+02
      vertex   3.141927e+00 1.769592e+01 -2.854292e+02
    endloop
  endfacet
  facet normal 2.529333e-01 9.674834e-01 -8.221358e-04
    outer loop
      vertex   3.141927e+00 1.769592e+01 -2.854292e+02
      vertex   4.998577e+00 1.716889e+01 -3.344292e+02
      vertex   2.385571e+00 1.785202e+01 -3.344292e+02
    endloop
  endfacet
  facet normal 1.490422e-01 9.888305e-01 8.495142e-04
    outer loop
      vertex   3.141927e+00 1.769592e+01 -2.854292e+02
      vertex   2.385571e+00 1.785202e+01 -3.344292e+02
      vertex   4.077965e-01 1.810803e+01 -2.854292e+02
    endloop
  endfacet
  facet normal 1.093712e-01 9.940007e-01 -7.787304e-04
    outer loop
      vertex   4.077965e-01 1.810803e+01 -2.854292e+02
      vertex   2.385571e+00 1.785202e+01 -3.344292e+02
      vertex   -2.990528e-01 1.814742e+01 -3.344292e+02
    endloop
  endfacet
  facet normal -2.635862e-15 9.999997e-01 8.038252e-04
    outer loop
      vertex   4.077965e-01 1.810803e+01 -2.854292e+02
      vertex   -2.990528e-01 1.814742e+01 -3.344292e+02
      vertex   -2.357217e+00 1.810803e+01 -2.854292e+02
    endloop
  endfacet
  facet normal -3.652201e-02 9.993326e-01 -7.307580e-04
    outer loop
      vertex   -2.357217e+00 1.810803e+01 -2.854292e+02
      vertex   -2.990528e-01 1.814742e+01 -3.344292e+02
      vertex   -2.998078e+00 1.804878e+01 -3.344292e+02
    endloop
  endfacet
  facet normal -1.490422e-01 9.888305e-01 7.535694e-04
    outer loop
      vertex   -2.357217e+00 1.810803e+01 -2.854292e+02
      vertex   -2.998078e+00 1.804878e+01 -3.344292e+02
      vertex   -5.091348e+00 1.769592e+01 -2.854292e+02
    endloop
  endfacet
  facet normal -1.816368e-01 9.833655e-01 -6.782190e-04
    outer loop
      vertex   -5.091348e+00 1.769592e+01 -2.854292e+02
      vertex   -2.998078e+00 1.804878e+01 -3.344292e+02
      vertex   -5.653978e+00 1.755821e+01 -3.344292e+02
    endloop
  endfacet
  facet normal -2.947551e-01 9.555726e-01 6.987475e-04
    outer loop
      vertex   -5.091348e+00 1.769592e+01 -2.854292e+02
      vertex   -5.653978e+00 1.755821e+01 -3.344292e+02
      vertex   -7.733519e+00 1.688092e+01 -2.854292e+02
    endloop
  endfacet
  facet normal -3.228803e-01 9.464396e-01 -6.211142e-04
    outer loop
      vertex   -7.733519e+00 1.688092e+01 -2.854292e+02
      vertex   -5.653978e+00 1.755821e+01 -3.344292e+02
      vertex   -8.210148e+00 1.668616e+01 -3.344292e+02
    endloop
  endfacet
  facet normal -4.338837e-01 9.009687e-01 6.393600e-04
    outer loop
      vertex   -7.733519e+00 1.688092e+01 -2.854292e+02
      vertex   -8.210148e+00 1.668616e+01 -3.344292e+02
      vertex   -1.022471e+01 1.568123e+01 -2.854292e+02
    endloop
  endfacet
  facet normal -4.572423e-01 8.893420e-01 -5.594443e-04
    outer loop
      vertex   -1.022471e+01 1.568123e+01 -2.854292e+02
      vertex   -8.210148e+00 1.668616e+01 -3.344292e+02
      vertex   -1.061211e+01 1.545123e+01 -3.344292e+02
    endloop
  endfacet
  facet normal -5.633200e-01 8.262386e-01 5.754078e-04
    outer loop
      vertex   -1.022471e+01 1.568123e+01 -2.854292e+02
      vertex   -1.061211e+01 1.545123e+01 -3.344292e+02
      vertex   -1.250927e+01 1.412364e+01 -2.854292e+02
    endloop
  endfacet
  facet normal -5.818588e-01 8.132896e-01 -4.932099e-04
    outer loop
      vertex   -1.250927e+01 1.412364e+01 -2.854292e+02
      vertex   -1.061211e+01 1.545123e+01 -3.344292e+02
      vertex   -1.280866e+01 1.387973e+01 -3.344292e+02
    endloop
  endfacet
  facet normal -6.801727e-01 7.330518e-01 5.068915e-04
    outer loop
      vertex   -1.250927e+01 1.412364e+01 -2.854292e+02
      vertex   -1.280866e+01 1.387973e+01 -3.344292e+02
      vertex   -1.453617e+01 1.224295e+01 -2.854292e+02
    endloop
  endfacet
  facet normal -6.940741e-01 7.199034e-01 -4.224120e-04
    outer loop
      vertex   -1.453617e+01 1.224295e+01 -2.854292e+02
      vertex   -1.280866e+01 1.387973e+01 -3.344292e+02
      vertex   -1.475300e+01 1.200516e+01 -3.344292e+02
    endloop
  endfacet
  facet normal -7.818314e-01 6.234897e-01 4.338121e-04
    outer loop
      vertex   -1.453617e+01 1.224295e+01 -2.854292e+02
      vertex   -1.475300e+01 1.200516e+01 -3.344292e+02
      vertex   -1.626013e+01 1.008118e+01 -2.854292e+02
    endloop
  endfacet
  facet normal -7.914964e-01 6.111737e-01 -3.470513e-04
    outer loop
      vertex   -1.626013e+01 1.008118e+01 -2.854292e+02
      vertex   -1.475300e+01 1.200516e+01 -3.344292e+02
      vertex   -1.640367e+01 9.867461e+00 -3.344292e+02
    endloop
  endfacet
  facet normal -8.660253e-01 5.000000e-01 3.561704e-04
    outer loop
      vertex   -1.626013e+01 1.008118e+01 -2.854292e+02
      vertex   -1.640367e+01 9.867461e+00 -3.344292e+02
      vertex   -1.764263e+01 7.686607e+00 -2.854292e+02
    endloop
  endfacet
  facet normal -8.720494e-01 4.894178e-01 -2.671287e-04
    outer loop
      vertex   -1.764263e+01 7.686607e+00 -2.854292e+02
      vertex   -1.640367e+01 9.867461e+00 -3.344292e+02
      vertex   -1.772550e+01 7.512207e+00 -3.344292e+02
    endloop
  endfacet
  facet normal -9.308737e-01 3.653410e-01 2.739673e-04
    outer loop
      vertex   -1.764263e+01 7.686607e+00 -2.854292e+02
      vertex   -1.772550e+01 7.512207e+00 -3.344292e+02
      vertex   -1.865281e+01 5.112728e+00 -2.854292e+02
    endloop
  endfacet
  facet normal -9.340161e-01 3.572309e-01 -1.826453e-04
    outer loop
      vertex   -1.865281e+01 5.112728e+00 -2.854292e+02
      vertex   -1.772550e+01 7.512207e+00 -3.344292e+02
      vertex   -1.869032e+01 4.989591e+00 -3.344292e+02
    endloop
  endfacet
  facet normal -9.749279e-01 2.225209e-01 1.872038e-04
    outer loop
      vertex   -1.865281e+01 5.112728e+00 -2.854292e+02
      vertex   -1.869032e+01 4.989591e+00 -3.344292e+02
      vertex   -1.926808e+01 2.417040e+00 -2.854292e+02
    endloop
  endfacet
  facet normal -9.760759e-01 2.174302e-01 -9.360203e-05
    outer loop
      vertex   -1.926808e+01 2.417040e+00 -2.854292e+02
      vertex   -1.869032e+01 4.989591e+00 -3.344292e+02
      vertex   -1.927756e+01 2.353379e+00 -3.344292e+02
    endloop
  endfacet
  facet normal -9.972038e-01 7.473009e-02 9.588100e-05
    outer loop
      vertex   -1.926808e+01 2.417040e+00 -2.854292e+02
      vertex   -1.927756e+01 2.353379e+00 -3.344292e+02
      vertex   -1.947471e+01 -3.402422e-01 -2.854292e+02
    endloop
  endfacet
  facet normal -9.305447e-15 4.288701e-14 -1.000000e+00
    outer loop
      vertex   -1.927756e+01 2.353379e+00 -3.344292e+02
      vertex   7.484273e+00 1.611259e+01 -3.344292e+02
      vertex   -1.947471e+01 -3.402422e-01 -3.344292e+02
    endloop
  endfacet
  facet normal 8.434060e-15 1.381973e-14 -1.000000e+00
    outer loop
      vertex   -1.947471e+01 -3.402422e-01 -3.344292e+02
      vertex   7.484273e+00 1.611259e+01 -3.344292e+02
      vertex   9.789680e+00 1.470562e+01 -3.344292e+02
    endloop
  endfacet
  facet normal 3.588837e-14 -3.957925e-14 -1.000000e+00
    outer loop
      vertex   -1.947471e+01 -3.402422e-01 -3.344292e+02
      vertex   9.789680e+00 1.470562e+01 -3.344292e+02
      vertex   -1.927756e+01 -3.033864e+00 -3.344292e+02
    endloop
  endfacet
  facet normal 6.769297e-15 8.134157e-15 -1.000000e+00
    outer loop
      vertex   -1.927756e+01 -3.033864e+00 -3.344292e+02
      vertex   9.789680e+00 1.470562e+01 -3.344292e+02
      vertex   1.186566e+01 1.297797e+01 -3.344292e+02
    endloop
  endfacet
  facet normal 9.825998e-15 2.188834e-15 -1.000000e+00
    outer loop
      vertex   -1.927756e+01 -3.033864e+00 -3.344292e+02
      vertex   1.186566e+01 1.297797e+01 -3.344292e+02
      vertex   -1.869032e+01 -5.670076e+00 -3.344292e+02
    endloop
  endfacet
  facet normal 7.215966e-15 6.465534e-15 -1.000000e+00
    outer loop
      vertex   -1.869032e+01 -5.670076e+00 -3.344292e+02
      vertex   1.186566e+01 1.297797e+01 -3.344292e+02
      vertex   1.366797e+01 1.096647e+01 -3.344292e+02
    endloop
  endfacet
  facet normal 8.808100e-15 3.368813e-15 -1.000000e+00
    outer loop
      vertex   -1.869032e+01 -5.670076e+00 -3.344292e+02
      vertex   1.366797e+01 1.096647e+01 -3.344292e+02
      vertex   -1.772550e+01 -8.192691e+00 -3.344292e+02
    endloop
  endfacet
  facet normal 7.739228e-15 5.120225e-15 -1.000000e+00
    outer loop
      vertex   -1.772550e+01 -8.192691e+00 -3.344292e+02
      vertex   1.366797e+01 1.096647e+01 -3.344292e+02
      vertex   1.515820e+01 8.713988e+00 -3.344292e+02
    endloop
  endfacet
  facet normal 8.049159e-15 4.517407e-15 -1.000000e+00
    outer loop
      vertex   -1.772550e+01 -8.192691e+00 -3.344292e+02
      vertex   1.515820e+01 8.713988e+00 -3.344292e+02
      vertex   -1.640367e+01 -1.054795e+01 -3.344292e+02
    endloop
  endfacet
  facet normal 8.402265e-15 3.938820e-15 -1.000000e+00
    outer loop
      vertex   -1.640367e+01 -1.054795e+01 -3.344292e+02
      vertex   1.515820e+01 8.713988e+00 -3.344292e+02
      vertex   1.630459e+01 6.268529e+00 -3.344292e+02
    endloop
  endfacet
  facet normal 7.464090e-15 5.763583e-15 -1.000000e+00
    outer loop
      vertex   -1.640367e+01 -1.054795e+01 -3.344292e+02
      vertex   1.630459e+01 6.268529e+00 -3.344292e+02
      vertex   -1.475300e+01 -1.268564e+01 -3.344292e+02
    endloop
  endfacet
  facet normal 9.278023e-15 2.791341e-15 -1.000000e+00
    outer loop
      vertex   -1.475300e+01 -1.268564e+01 -3.344292e+02
      vertex   1.630459e+01 6.268529e+00 -3.344292e+02
      vertex   1.708269e+01 3.682216e+00 -3.344292e+02
    endloop
  endfacet
  facet normal 6.987132e-15 7.247152e-15 -1.000000e+00
    outer loop
      vertex   -1.475300e+01 -1.268564e+01 -3.344292e+02
      vertex   1.708269e+01 3.682216e+00 -3.344292e+02
      vertex   -1.280866e+01 -1.456021e+01 -3.344292e+02
    endloop
  endfacet
  facet normal 1.046966e-14 1.540815e-15 -1.000000e+00
    outer loop
      vertex   -1.280866e+01 -1.456021e+01 -3.344292e+02
      vertex   1.708269e+01 3.682216e+00 -3.344292e+02
      vertex   1.747594e+01 1.010171e+00 -3.344292e+02
    endloop
  endfacet
  facet normal 6.552806e-15 9.159145e-15 -1.000000e+00
    outer loop
      vertex   -1.280866e+01 -1.456021e+01 -3.344292e+02
      vertex   1.747594e+01 1.010171e+00 -3.344292e+02
      vertex   -1.061211e+01 -1.613171e+01 -3.344292e+02
    endloop
  endfacet
  facet normal 1.214255e-14 0.000000e+00 -1.000000e+00
    outer loop
      vertex   -1.061211e+01 -1.613171e+01 -3.344292e+02
      vertex   1.747594e+01 1.010171e+00 -3.344292e+02
      vertex   1.747594e+01 -1.690656e+00 -3.344292e+02
    endloop
  endfacet
  facet normal 2.973672e-14 -3.422088e-14 -1.000000e+00
    outer loop
      vertex   -1.061211e+01 -1.613171e+01 -3.344292e+02
      vertex   1.747594e+01 -1.690656e+00 -3.344292e+02
      vertex   -8.210148e+00 -1.736665e+01 -3.344292e+02
    endloop
  endfacet
  facet normal 9.725528e-15 -1.431301e-15 -1.000000e+00
    outer loop
      vertex   -8.210148e+00 -1.736665e+01 -3.344292e+02
      vertex   1.747594e+01 -1.690656e+00 -3.344292e+02
      vertex   1.708269e+01 -4.362700e+00 -3.344292e+02
    endloop
  endfacet
  facet normal 3.585741e-15 1.051066e-14 -1.000000e+00
    outer loop
      vertex   -8.210148e+00 -1.736665e+01 -3.344292e+02
      vertex   1.708269e+01 -4.362700e+00 -3.344292e+02
      vertex   -5.653978e+00 -1.823869e+01 -3.344292e+02
    endloop
  endfacet
  facet normal 1.224941e-14 -3.685299e-15 -1.000000e+00
    outer loop
      vertex   -5.653978e+00 -1.823869e+01 -3.344292e+02
      vertex   1.708269e+01 -4.362700e+00 -3.344292e+02
      vertex   1.630459e+01 -6.949014e+00 -3.344292e+02
    endloop
  endfacet
  facet normal 2.736808e-15 1.481684e-14 -1.000000e+00
    outer loop
      vertex   -5.653978e+00 -1.823869e+01 -3.344292e+02
      vertex   1.630459e+01 -6.949014e+00 -3.344292e+02
      vertex   -2.998078e+00 -1.872926e+01 -3.344292e+02
    endloop
  endfacet
  facet normal 1.649989e-14 -7.734832e-15 -1.000000e+00
    outer loop
      vertex   -2.998078e+00 -1.872926e+01 -3.344292e+02
      vertex   1.630459e+01 -6.949014e+00 -3.344292e+02
      vertex   1.515820e+01 -9.394472e+00 -3.344292e+02
    endloop
  endfacet
  facet normal 8.311075e-16 2.274115e-14 -1.000000e+00
    outer loop
      vertex   -2.998078e+00 -1.872926e+01 -3.344292e+02
      vertex   1.515820e+01 -9.394472e+00 -3.344292e+02
      vertex   -2.990528e-01 -1.882790e+01 -3.344292e+02
    endloop
  endfacet
  facet normal 2.467119e-14 -1.632231e-14 -1.000000e+00
    outer loop
      vertex   -2.990528e-01 -1.882790e+01 -3.344292e+02
      vertex   1.515820e+01 -9.394472e+00 -3.344292e+02
      vertex   1.366797e+01 -1.164696e+01 -3.344292e+02
    endloop
  endfacet
  facet normal -4.432605e-15 4.028495e-14 -1.000000e+00
    outer loop
      vertex   -2.990528e-01 -1.882790e+01 -3.344292e+02
      vertex   1.366797e+01 -1.164696e+01 -3.344292e+02
      vertex   2.385571e+00 -1.853251e+01 -3.344292e+02
    endloop
  endfacet
  facet normal 4.447040e-14 -3.984565e-14 -1.000000e+00
    outer loop
      vertex   2.385571e+00 -1.853251e+01 -3.344292e+02
      vertex   1.366797e+01 -1.164696e+01 -3.344292e+02
      vertex   1.186566e+01 -1.365846e+01 -3.344292e+02
    endloop
  endfacet
  facet normal -2.481321e-14 9.491184e-14 -1.000000e+00
    outer loop
      vertex   2.385571e+00 -1.853251e+01 -3.344292e+02
      vertex   1.186566e+01 -1.365846e+01 -3.344292e+02
      vertex   4.998577e+00 -1.784938e+01 -3.344292e+02
    endloop
  endfacet
  facet normal 1.241686e-13 -1.492041e-13 -1.000000e+00
    outer loop
      vertex   4.998577e+00 -1.784938e+01 -3.344292e+02
      vertex   1.186566e+01 -1.365846e+01 -3.344292e+02
      vertex   9.789680e+00 -1.538610e+01 -3.344292e+02
    endloop
  endfacet
  facet normal 3.012081e-13 -4.935481e-13 -1.000000e+00
    outer loop
      vertex   4.998577e+00 -1.784938e+01 -3.344292e+02
      vertex   9.789680e+00 -1.538610e+01 -3.344292e+02
      vertex   7.484273e+00 -1.679307e+01 -3.344292e+02
    endloop
  endfacet
  facet normal 5.584684e-14 -8.383502e-14 -1.000000e+00
    outer loop
      vertex   7.484273e+00 1.611259e+01 -3.344292e+02
      vertex   -1.927756e+01 2.353379e+00 -3.344292e+02
      vertex   4.998577e+00 1.716889e+01 -3.344292e+02
    endloop
  endfacet
  facet normal 5.419894e-15 -1.207333e-15 -1.000000e+00
    outer loop
      vertex   4.998577e+00 1.716889e+01 -3.344292e+02
      vertex   -1.927756e+01 2.353379e+00 -3.344292e+02
      vertex   -1.869032e+01 4.989591e+00 -3.344292e+02
    endloop
  endfacet
  facet normal 1.617733e-15 6.187917e-15 -1.000000e+00
    outer loop
      vertex   4.998577e+00 1.716889e+01 -3.344292e+02
      vertex   -1.869032e+01 4.989591e+00 -3.344292e+02
      vertex   2.385571e+00 1.785202e+01 -3.344292e+02
    endloop
  endfacet
  facet normal 7.036631e-15 -2.691283e-15 -1.000000e+00
    outer loop
      vertex   2.385571e+00 1.785202e+01 -3.344292e+02
      vertex   -1.869032e+01 4.989591e+00 -3.344292e+02
      vertex   -1.772550e+01 7.512207e+00 -3.344292e+02
    endloop
  endfacet
  facet normal 9.965303e-16 9.056790e-15 -1.000000e+00
    outer loop
      vertex   2.385571e+00 1.785202e+01 -3.344292e+02
      vertex   -1.772550e+01 7.512207e+00 -3.344292e+02
      vertex   -2.990528e-01 1.814742e+01 -3.344292e+02
    endloop
  endfacet
  facet normal 9.922325e-15 -5.568679e-15 -1.000000e+00
    outer loop
      vertex   -2.990528e-01 1.814742e+01 -3.344292e+02
      vertex   -1.772550e+01 7.512207e+00 -3.344292e+02
      vertex   -1.640367e+01 9.867461e+00 -3.344292e+02
    endloop
  endfacet
  facet normal -5.401944e-16 1.478105e-14 -1.000000e+00
    outer loop
      vertex   -2.990528e-01 1.814742e+01 -3.344292e+02
      vertex   -1.640367e+01 9.867461e+00 -3.344292e+02
      vertex   -2.998078e+00 1.804878e+01 -3.344292e+02
    endloop
  endfacet
  facet normal 1.603892e-14 -1.238485e-14 -1.000000e+00
    outer loop
      vertex   -2.998078e+00 1.804878e+01 -3.344292e+02
      vertex   -1.640367e+01 9.867461e+00 -3.344292e+02
      vertex   -1.475300e+01 1.200516e+01 -3.344292e+02
    endloop
  endfacet
  facet normal -5.422774e-15 2.935841e-14 -1.000000e+00
    outer loop
      vertex   -2.998078e+00 1.804878e+01 -3.344292e+02
      vertex   -1.475300e+01 1.200516e+01 -3.344292e+02
      vertex   -5.653978e+00 1.755821e+01 -3.344292e+02
    endloop
  endfacet
  facet normal 3.404495e-14 -3.531189e-14 -1.000000e+00
    outer loop
      vertex   -5.653978e+00 1.755821e+01 -3.344292e+02
      vertex   -1.475300e+01 1.200516e+01 -3.344292e+02
      vertex   -1.280866e+01 1.387973e+01 -3.344292e+02
    endloop
  endfacet
  facet normal -3.133758e-14 9.185795e-14 -1.000000e+00
    outer loop
      vertex   -5.653978e+00 1.755821e+01 -3.344292e+02
      vertex   -1.280866e+01 1.387973e+01 -3.344292e+02
      vertex   -8.210148e+00 1.668616e+01 -3.344292e+02
    endloop
  endfacet
  facet normal 1.682156e-13 -2.351223e-13 -1.000000e+00
    outer loop
      vertex   -8.210148e+00 1.668616e+01 -3.344292e+02
      vertex   -1.280866e+01 1.387973e+01 -3.344292e+02
      vertex   -1.061211e+01 1.545123e+01 -3.344292e+02
    endloop
  endfacet
  facet normal 6.627111e-14 4.705636e-14 1.000000e+00
    outer loop
      vertex   -1.927756e+01 -3.033864e+00 -2.364292e+02
      vertex   -1.280866e+01 -1.456021e+01 -2.364292e+02
      vertex   -1.947471e+01 -3.402422e-01 -2.364292e+02
    endloop
  endfacet
  facet normal 1.721246e-14 2.405861e-14 1.000000e+00
    outer loop
      vertex   -1.947471e+01 -3.402422e-01 -2.364292e+02
      vertex   -1.280866e+01 -1.456021e+01 -2.364292e+02
      vertex   -1.061211e+01 -1.613171e+01 -2.364292e+02
    endloop
  endfacet
  facet normal -8.922268e-14 -3.567568e-14 1.000000e+00
    outer loop
      vertex   -1.947471e+01 -3.402422e-01 -2.364292e+02
      vertex   -1.061211e+01 -1.613171e+01 -2.364292e+02
      vertex   -1.927756e+01 2.353379e+00 -2.364292e+02
    endloop
  endfacet
  facet normal 4.166140e-15 8.103196e-15 1.000000e+00
    outer loop
      vertex   -1.927756e+01 2.353379e+00 -2.364292e+02
      vertex   -1.061211e+01 -1.613171e+01 -2.364292e+02
      vertex   -8.210148e+00 -1.736665e+01 -2.364292e+02
    endloop
  endfacet
  facet normal -7.353498e-15 1.638062e-15 1.000000e+00
    outer loop
      vertex   -1.927756e+01 2.353379e+00 -2.364292e+02
      vertex   -8.210148e+00 -1.736665e+01 -2.364292e+02
      vertex   -1.869032e+01 4.989591e+00 -2.364292e+02
    endloop
  endfacet
  facet normal 2.065107e-15 6.053322e-15 1.000000e+00
    outer loop
      vertex   -1.869032e+01 4.989591e+00 -2.364292e+02
      vertex   -8.210148e+00 -1.736665e+01 -2.364292e+02
      vertex   -5.653978e+00 -1.823869e+01 -2.364292e+02
    endloop
  endfacet
  facet normal -5.186347e-15 1.983610e-15 1.000000e+00
    outer loop
      vertex   -1.869032e+01 4.989591e+00 -2.364292e+02
      vertex   -5.653978e+00 -1.823869e+01 -2.364292e+02
      vertex   -1.772550e+01 7.512207e+00 -2.364292e+02
    endloop
  endfacet
  facet normal 8.927711e-16 4.833383e-15 1.000000e+00
    outer loop
      vertex   -1.772550e+01 7.512207e+00 -2.364292e+02
      vertex   -5.653978e+00 -1.823869e+01 -2.364292e+02
      vertex   -2.998078e+00 -1.872926e+01 -2.364292e+02
    endloop
  endfacet
  facet normal -3.859698e-15 2.166168e-15 1.000000e+00
    outer loop
      vertex   -1.772550e+01 7.512207e+00 -2.364292e+02
      vertex   -2.998078e+00 -1.872926e+01 -2.364292e+02
      vertex   -1.640367e+01 9.867461e+00 -2.364292e+02
    endloop
  endfacet
  facet normal 1.478235e-16 4.044817e-15 1.000000e+00
    outer loop
      vertex   -1.640367e+01 9.867461e+00 -2.364292e+02
      vertex   -2.998078e+00 -1.872926e+01 -2.364292e+02
      vertex   -2.990528e-01 -1.882790e+01 -2.364292e+02
    endloop
  endfacet
  facet normal -4.285566e-14 -2.008991e-14 1.000000e+00
    outer loop
      vertex   -1.640367e+01 9.867461e+00 -2.364292e+02
      vertex   -2.990528e-01 -1.882790e+01 -2.364292e+02
      vertex   -1.475300e+01 1.200516e+01 -2.364292e+02
    endloop
  endfacet
  facet normal -0.000000e+00 0.000000e+00 1.000000e+00
    outer loop
      vertex   -1.475300e+01 1.200516e+01 -2.364292e+02
      vertex   -2.990528e-01 -1.882790e+01 -2.364292e+02
      vertex   -1.280866e+01 1.387973e+01 -2.364292e+02
    endloop
  endfacet
  facet normal -0.000000e+00 0.000000e+00 1.000000e+00
    outer loop
      vertex   -1.280866e+01 1.387973e+01 -2.364292e+02
      vertex   -2.990528e-01 -1.882790e+01 -2.364292e+02
      vertex   -1.061211e+01 1.545123e+01 -2.364292e+02
    endloop
  endfacet
  facet normal -0.000000e+00 0.000000e+00 1.000000e+00
    outer loop
      vertex   -1.061211e+01 1.545123e+01 -2.364292e+02
      vertex   -2.990528e-01 -1.882790e+01 -2.364292e+02
      vertex   -8.210148e+00 1.668616e+01 -2.364292e+02
    endloop
  endfacet
  facet normal -0.000000e+00 0.000000e+00 1.000000e+00
    outer loop
      vertex   -8.210148e+00 1.668616e+01 -2.364292e+02
      vertex   -2.990528e-01 -1.882790e+01 -2.364292e+02
      vertex   -5.653978e+00 1.755821e+01 -2.364292e+02
    endloop
  endfacet
  facet normal -4.167258e-14 -6.132932e-15 1.000000e+00
    outer loop
      vertex   -5.653978e+00 1.755821e+01 -2.364292e+02
      vertex   -2.990528e-01 -1.882790e+01 -2.364292e+02
      vertex   -2.998078e+00 1.804878e+01 -2.364292e+02
    endloop
  endfacet
  facet normal 1.123681e-16 -3.074669e-15 1.000000e+00
    outer loop
      vertex   -2.998078e+00 1.804878e+01 -2.364292e+02
      vertex   -2.990528e-01 -1.882790e+01 -2.364292e+02
      vertex   -2.990528e-01 1.814742e+01 -2.364292e+02
    endloop
  endfacet
  facet normal -3.383097e-16 -3.074669e-15 1.000000e+00
    outer loop
      vertex   -2.990528e-01 1.814742e+01 -2.364292e+02
      vertex   -2.990528e-01 -1.882790e+01 -2.364292e+02
      vertex   2.385571e+00 1.785202e+01 -2.364292e+02
    endloop
  endfacet
  facet normal -7.950835e-16 -3.041237e-15 1.000000e+00
    outer loop
      vertex   2.385571e+00 1.785202e+01 -2.364292e+02
      vertex   -2.990528e-01 -1.882790e+01 -2.364292e+02
      vertex   4.998577e+00 1.716889e+01 -2.364292e+02
    endloop
  endfacet
  facet normal -1.263115e-15 -2.972357e-15 1.000000e+00
    outer loop
      vertex   4.998577e+00 1.716889e+01 -2.364292e+02
      vertex   -2.990528e-01 -1.882790e+01 -2.364292e+02
      vertex   7.484273e+00 1.611259e+01 -2.364292e+02
    endloop
  endfacet
  facet normal -1.748074e-15 -2.864328e-15 1.000000e+00
    outer loop
      vertex   7.484273e+00 1.611259e+01 -2.364292e+02
      vertex   -2.990528e-01 -1.882790e+01 -2.364292e+02
      vertex   9.789680e+00 1.470562e+01 -2.364292e+02
    endloop
  endfacet
  facet normal -4.605366e-14 1.046524e-14 1.000000e+00
    outer loop
      vertex   9.789680e+00 1.470562e+01 -2.364292e+02
      vertex   -2.990528e-01 -1.882790e+01 -2.364292e+02
      vertex   1.186566e+01 1.297797e+01 -2.364292e+02
    endloop
  endfacet
  facet normal -5.591674e-15 -5.010162e-15 1.000000e+00
    outer loop
      vertex   1.186566e+01 1.297797e+01 -2.364292e+02
      vertex   -2.990528e-01 -1.882790e+01 -2.364292e+02
      vertex   1.366797e+01 1.096647e+01 -2.364292e+02
    endloop
  endfacet
  facet normal -6.751241e-15 -4.466579e-15 1.000000e+00
    outer loop
      vertex   1.366797e+01 1.096647e+01 -2.364292e+02
      vertex   -2.990528e-01 -1.882790e+01 -2.364292e+02
      vertex   1.515820e+01 8.713988e+00 -2.364292e+02
    endloop
  endfacet
  facet normal -8.015044e-15 -3.757298e-15 1.000000e+00
    outer loop
      vertex   1.515820e+01 8.713988e+00 -2.364292e+02
      vertex   -2.990528e-01 -1.882790e+01 -2.364292e+02
      vertex   1.630459e+01 6.268529e+00 -2.364292e+02
    endloop
  endfacet
  facet normal -9.413488e-15 -2.832097e-15 1.000000e+00
    outer loop
      vertex   1.630459e+01 6.268529e+00 -2.364292e+02
      vertex   -2.990528e-01 -1.882790e+01 -2.364292e+02
      vertex   1.708269e+01 3.682216e+00 -2.364292e+02
    endloop
  endfacet
  facet normal -1.098713e-14 -1.616970e-15 1.000000e+00
    outer loop
      vertex   1.708269e+01 3.682216e+00 -2.364292e+02
      vertex   -2.990528e-01 -1.882790e+01 -2.364292e+02
      vertex   1.747594e+01 1.010171e+00 -2.364292e+02
    endloop
  endfacet
  facet normal -1.279178e-14 0.000000e+00 1.000000e+00
    outer loop
      vertex   1.747594e+01 1.010171e+00 -2.364292e+02
      vertex   -2.990528e-01 -1.882790e+01 -2.364292e+02
      vertex   1.747594e+01 -1.690656e+00 -2.364292e+02
    endloop
  endfacet
  facet normal -1.490690e-14 2.193842e-15 1.000000e+00
    outer loop
      vertex   1.747594e+01 -1.690656e+00 -2.364292e+02
      vertex   -2.990528e-01 -1.882790e+01 -2.364292e+02
      vertex   1.708269e+01 -4.362700e+00 -2.364292e+02
    endloop
  endfacet
  facet normal -1.745026e-14 5.250001e-15 1.000000e+00
    outer loop
      vertex   1.708269e+01 -4.362700e+00 -2.364292e+02
      vertex   -2.990528e-01 -1.882790e+01 -2.364292e+02
      vertex   1.630459e+01 -6.949014e+00 -2.364292e+02
    endloop
  endfacet
  facet normal 2.488888e-15 -2.261982e-14 1.000000e+00
    outer loop
      vertex   1.630459e+01 -6.949014e+00 -2.364292e+02
      vertex   -2.990528e-01 -1.882790e+01 -2.364292e+02
      vertex   2.385571e+00 -1.853251e+01 -2.364292e+02
    endloop
  endfacet
  facet normal -2.678483e-14 1.255621e-14 1.000000e+00
    outer loop
      vertex   1.630459e+01 -6.949014e+00 -2.364292e+02
      vertex   2.385571e+00 -1.853251e+01 -2.364292e+02
      vertex   1.515820e+01 -9.394472e+00 -2.364292e+02
    endloop
  endfacet
  facet normal 3.476146e-14 -7.346974e-14 1.000000e+00
    outer loop
      vertex   1.515820e+01 -9.394472e+00 -2.364292e+02
      vertex   2.385571e+00 -1.853251e+01 -2.364292e+02
      vertex   1.366797e+01 -1.164696e+01 -2.364292e+02
    endloop
  endfacet
  facet normal -2.223520e-14 1.992283e-14 1.000000e+00
    outer loop
      vertex   1.366797e+01 -1.164696e+01 -2.364292e+02
      vertex   2.385571e+00 -1.853251e+01 -2.364292e+02
      vertex   1.186566e+01 -1.365846e+01 -2.364292e+02
    endloop
  endfacet
  facet normal -7.611313e-14 1.247161e-13 1.000000e+00
    outer loop
      vertex   1.186566e+01 -1.365846e+01 -2.364292e+02
      vertex   2.385571e+00 -1.853251e+01 -2.364292e+02
      vertex   4.998577e+00 -1.784938e+01 -2.364292e+02
    endloop
  endfacet
  facet normal 0.000000e+00 0.000000e+00 1.000000e+00
    outer loop
      vertex   1.186566e+01 -1.365846e+01 -2.364292e+02
      vertex   4.998577e+00 -1.784938e+01 -2.364292e+02
      vertex   9.789680e+00 -1.538610e+01 -2.364292e+02
    endloop
  endfacet
  facet normal 0.000000e+00 0.000000e+00 1.000000e+00
    outer loop
      vertex   9.789680e+00 -1.538610e+01 -2.364292e+02
      vertex   4.998577e+00 -1.784938e+01 -2.364292e+02
      vertex   7.484273e+00 -1.679307e+01 -2.364292e+02
    endloop
  endfacet
  facet normal -1.066911e-13 -5.001472e-14 1.000000e+00
    outer loop
      vertex   -1.280866e+01 -1.456021e+01 -2.364292e+02
      vertex   -1.927756e+01 -3.033864e+00 -2.364292e+02
      vertex   -1.475300e+01 -1.268564e+01 -2.364292e+02
    endloop
  endfacet
  facet normal 0.000000e+00 0.000000e+00 1.000000e+00
    outer loop
      vertex   -1.475300e+01 -1.268564e+01 -2.364292e+02
      vertex   -1.927756e+01 -3.033864e+00 -2.364292e+02
      vertex   -1.869032e+01 -5.670076e+00 -2.364292e+02
    endloop
  endfacet
  facet normal 2.521098e-13 1.414909e-13 1.000000e+00
    outer loop
      vertex   -1.475300e+01 -1.268564e+01 -2.364292e+02
      vertex   -1.869032e+01 -5.670076e+00 -2.364292e+02
      vertex   -1.640367e+01 -1.054795e+01 -2.364292e+02
    endloop
  endfacet
  facet normal -2.700244e-13 -1.032756e-13 1.000000e+00
    outer loop
      vertex   -1.640367e+01 -1.054795e+01 -2.364292e+02
      vertex   -1.869032e+01 -5.670076e+00 -2.364292e+02
      vertex   -1.772550e+01 -8.192691e+00 -2.364292e+02
    endloop
  endfacet
endsolid
