solid Camera
  facet normal -9.988673e-01 -4.758192e-02 1.373490e-16
    outer loop
      vertex   -1.361720e+01 -1.547454e+00 2.978008e+02
      vertex   -1.361720e+01 -1.547454e+00 3.028008e+02
      vertex   -1.367471e+01 -3.402422e-01 2.978008e+02
    endloop
  endfacet
  facet normal -9.988673e-01 -4.758192e-02 1.394621e-16
    outer loop
      vertex   -1.367471e+01 -3.402422e-01 2.978008e+02
      vertex   -1.361720e+01 -1.547454e+00 3.028008e+02
      vertex   -1.367471e+01 -3.402422e-01 3.028008e+02
    endloop
  endfacet
  facet normal -9.988673e-01 4.758192e-02 -1.394621e-16
    outer loop
      vertex   -1.367471e+01 -3.402422e-01 2.978008e+02
      vertex   -1.367471e+01 -3.402422e-01 3.028008e+02
      vertex   -1.361720e+01 8.669695e-01 2.978008e+02
    endloop
  endfacet
  facet normal -9.988673e-01 4.758192e-02 -1.394621e-16
    outer loop
      vertex   -1.361720e+01 8.669695e-01 2.978008e+02
      vertex   -1.367471e+01 -3.402422e-01 3.028008e+02
      vertex   -1.361720e+01 8.669695e-01 3.028008e+02
    endloop
  endfacet
  facet normal -9.898214e-01 1.423148e-01 -4.171232e-16
    outer loop
      vertex   -1.361720e+01 8.669695e-01 2.978008e+02
      vertex   -1.361720e+01 8.669695e-01 3.028008e+02
      vertex   -1.344520e+01 2.063249e+00 2.978008e+02
    endloop
  endfacet
  facet normal -9.898214e-01 1.423148e-01 -4.297633e-16
    outer loop
      vertex   -1.344520e+01 2.063249e+00 2.978008e+02
      vertex   -1.361720e+01 8.669695e-01 3.028008e+02
      vertex   -1.344520e+01 2.063249e+00 3.028008e+02
    endloop
  endfacet
  facet normal -9.718116e-01 2.357589e-01 -7.119464e-16
    outer loop
      vertex   -1.344520e+01 2.063249e+00 2.978008e+02
      vertex   -1.344520e+01 2.063249e+00 3.028008e+02
      vertex   -1.316027e+01 3.237761e+00 2.978008e+02
    endloop
  endfacet
  facet normal -9.718116e-01 2.357589e-01 -7.119464e-16
    outer loop
      vertex   -1.316027e+01 3.237761e+00 2.978008e+02
      vertex   -1.344520e+01 2.063249e+00 3.028008e+02
      vertex   -1.316027e+01 3.237761e+00 3.028008e+02
    endloop
  endfacet
  facet normal -9.450008e-01 3.270680e-01 -9.876820e-16
    outer loop
      vertex   -1.316027e+01 3.237761e+00 2.978008e+02
      vertex   -1.316027e+01 3.237761e+00 3.028008e+02
      vertex   -1.276498e+01 4.379871e+00 2.978008e+02
    endloop
  endfacet
  facet normal -9.450008e-01 3.270680e-01 -9.876820e-16
    outer loop
      vertex   -1.276498e+01 4.379871e+00 2.978008e+02
      vertex   -1.316027e+01 3.237761e+00 3.028008e+02
      vertex   -1.276498e+01 4.379871e+00 3.028008e+02
    endloop
  endfacet
  facet normal -9.096320e-01 4.154150e-01 -1.254473e-15
    outer loop
      vertex   -1.276498e+01 4.379871e+00 2.978008e+02
      vertex   -1.276498e+01 4.379871e+00 3.028008e+02
      vertex   -1.226292e+01 5.479235e+00 2.978008e+02
    endloop
  endfacet
  facet normal -9.096320e-01 4.154150e-01 -1.254473e-15
    outer loop
      vertex   -1.226292e+01 5.479235e+00 2.978008e+02
      vertex   -1.276498e+01 4.379871e+00 3.028008e+02
      vertex   -1.226292e+01 5.479235e+00 3.028008e+02
    endloop
  endfacet
  facet normal -8.660254e-01 5.000000e-01 -1.509903e-15
    outer loop
      vertex   -1.226292e+01 5.479235e+00 2.978008e+02
      vertex   -1.226292e+01 5.479235e+00 3.028008e+02
      vertex   -1.165863e+01 6.525896e+00 2.978008e+02
    endloop
  endfacet
  facet normal -8.660254e-01 5.000000e-01 -1.421085e-15
    outer loop
      vertex   -1.165863e+01 6.525896e+00 2.978008e+02
      vertex   -1.226292e+01 5.479235e+00 3.028008e+02
      vertex   -1.165863e+01 6.525896e+00 3.028008e+02
    endloop
  endfacet
  facet normal -8.145760e-01 5.800569e-01 -1.648621e-15
    outer loop
      vertex   -1.165863e+01 6.525896e+00 2.978008e+02
      vertex   -1.165863e+01 6.525896e+00 3.028008e+02
      vertex   -1.095758e+01 7.510377e+00 2.978008e+02
    endloop
  endfacet
  facet normal -8.145760e-01 5.800569e-01 -1.648621e-15
    outer loop
      vertex   -1.095758e+01 7.510377e+00 2.978008e+02
      vertex   -1.165863e+01 6.525896e+00 3.028008e+02
      vertex   -1.095758e+01 7.510377e+00 3.028008e+02
    endloop
  endfacet
  facet normal -7.557496e-01 6.548607e-01 -1.861226e-15
    outer loop
      vertex   -1.095758e+01 7.510377e+00 2.978008e+02
      vertex   -1.095758e+01 7.510377e+00 3.028008e+02
      vertex   -1.016613e+01 8.423761e+00 2.978008e+02
    endloop
  endfacet
  facet normal -7.557496e-01 6.548607e-01 -1.861226e-15
    outer loop
      vertex   -1.016613e+01 8.423761e+00 2.978008e+02
      vertex   -1.095758e+01 7.510377e+00 3.028008e+02
      vertex   -1.016613e+01 8.423761e+00 3.028008e+02
    endloop
  endfacet
  facet normal -6.900790e-01 7.237340e-01 -2.056976e-15
    outer loop
      vertex   -1.016613e+01 8.423761e+00 2.978008e+02
      vertex   -1.016613e+01 8.423761e+00 3.028008e+02
      vertex   -9.291442e+00 9.257777e+00 2.978008e+02
    endloop
  endfacet
  facet normal -6.900790e-01 7.237340e-01 -2.314098e-15
    outer loop
      vertex   -9.291442e+00 9.257777e+00 2.978008e+02
      vertex   -1.016613e+01 8.423761e+00 3.028008e+02
      vertex   -9.291442e+00 9.257777e+00 3.028008e+02
    endloop
  endfacet
  facet normal -6.181590e-01 7.860531e-01 -2.513359e-15
    outer loop
      vertex   -9.291442e+00 9.257777e+00 2.978008e+02
      vertex   -9.291442e+00 9.257777e+00 3.028008e+02
      vertex   -8.341433e+00 1.000487e+01 2.978008e+02
    endloop
  endfacet
  facet normal -6.181590e-01 7.860531e-01 -2.513359e-15
    outer loop
      vertex   -8.341433e+00 1.000487e+01 2.978008e+02
      vertex   -9.291442e+00 9.257777e+00 3.028008e+02
      vertex   -8.341433e+00 1.000487e+01 3.028008e+02
    endloop
  endfacet
  facet normal -5.406408e-01 8.412535e-01 -2.689860e-15
    outer loop
      vertex   -8.341433e+00 1.000487e+01 2.978008e+02
      vertex   -8.341433e+00 1.000487e+01 3.028008e+02
      vertex   -7.324710e+00 1.065828e+01 2.978008e+02
    endloop
  endfacet
  facet normal -5.406408e-01 8.412535e-01 -2.689860e-15
    outer loop
      vertex   -7.324710e+00 1.065828e+01 2.978008e+02
      vertex   -8.341433e+00 1.000487e+01 3.028008e+02
      vertex   -7.324710e+00 1.065828e+01 3.028008e+02
    endloop
  endfacet
  facet normal -4.582265e-01 8.888354e-01 -2.842000e-15
    outer loop
      vertex   -7.324710e+00 1.065828e+01 2.978008e+02
      vertex   -7.324710e+00 1.065828e+01 3.028008e+02
      vertex   -6.250481e+00 1.121208e+01 2.978008e+02
    endloop
  endfacet
  facet normal -4.582265e-01 8.888354e-01 -2.842000e-15
    outer loop
      vertex   -6.250481e+00 1.121208e+01 2.978008e+02
      vertex   -7.324710e+00 1.065828e+01 3.028008e+02
      vertex   -6.250481e+00 1.121208e+01 3.028008e+02
    endloop
  endfacet
  facet normal -3.716625e-01 9.283679e-01 -2.968403e-15
    outer loop
      vertex   -6.250481e+00 1.121208e+01 2.978008e+02
      vertex   -6.250481e+00 1.121208e+01 3.028008e+02
      vertex   -5.128473e+00 1.166127e+01 2.978008e+02
    endloop
  endfacet
  facet normal -3.716625e-01 9.283679e-01 -2.638580e-15
    outer loop
      vertex   -5.128473e+00 1.166127e+01 2.978008e+02
      vertex   -6.250481e+00 1.121208e+01 3.028008e+02
      vertex   -5.128473e+00 1.166127e+01 3.028008e+02
    endloop
  endfacet
  facet normal -2.817326e-01 9.594930e-01 -2.727043e-15
    outer loop
      vertex   -5.128473e+00 1.166127e+01 2.978008e+02
      vertex   -5.128473e+00 1.166127e+01 3.028008e+02
      vertex   -3.968849e+00 1.200176e+01 2.978008e+02
    endloop
  endfacet
  facet normal -2.817326e-01 9.594930e-01 -3.067923e-15
    outer loop
      vertex   -3.968849e+00 1.200176e+01 2.978008e+02
      vertex   -5.128473e+00 1.166127e+01 3.028008e+02
      vertex   -3.968849e+00 1.200176e+01 3.028008e+02
    endloop
  endfacet
  facet normal -1.892512e-01 9.819287e-01 -3.139660e-15
    outer loop
      vertex   -3.968849e+00 1.200176e+01 2.978008e+02
      vertex   -3.968849e+00 1.200176e+01 3.028008e+02
      vertex   -2.782109e+00 1.223049e+01 2.978008e+02
    endloop
  endfacet
  facet normal -1.892512e-01 9.819287e-01 -3.139660e-15
    outer loop
      vertex   -2.782109e+00 1.223049e+01 2.978008e+02
      vertex   -3.968849e+00 1.200176e+01 3.028008e+02
      vertex   -2.782109e+00 1.223049e+01 3.028008e+02
    endloop
  endfacet
  facet normal -9.505604e-02 9.954719e-01 -3.182964e-15
    outer loop
      vertex   -2.782109e+00 1.223049e+01 2.978008e+02
      vertex   -2.782109e+00 1.223049e+01 3.028008e+02
      vertex   -1.579001e+00 1.234537e+01 2.978008e+02
    endloop
  endfacet
  facet normal -9.505604e-02 9.954719e-01 -3.182964e-15
    outer loop
      vertex   -1.579001e+00 1.234537e+01 2.978008e+02
      vertex   -2.782109e+00 1.223049e+01 3.028008e+02
      vertex   -1.579001e+00 1.234537e+01 3.028008e+02
    endloop
  endfacet
  facet normal 0.000000e+00 1.000000e+00 -3.197442e-15
    outer loop
      vertex   -1.579001e+00 1.234537e+01 2.978008e+02
      vertex   -1.579001e+00 1.234537e+01 3.028008e+02
      vertex   -3.704199e-01 1.234537e+01 2.978008e+02
    endloop
  endfacet
  facet normal 0.000000e+00 1.000000e+00 -3.197442e-15
    outer loop
      vertex   -3.704199e-01 1.234537e+01 2.978008e+02
      vertex   -1.579001e+00 1.234537e+01 3.028008e+02
      vertex   -3.704199e-01 1.234537e+01 3.028008e+02
    endloop
  endfacet
  facet normal 9.505604e-02 9.954719e-01 -3.182964e-15
    outer loop
      vertex   -3.704199e-01 1.234537e+01 2.978008e+02
      vertex   -3.704199e-01 1.234537e+01 3.028008e+02
      vertex   8.326882e-01 1.223049e+01 2.978008e+02
    endloop
  endfacet
  facet normal 9.505604e-02 9.954719e-01 -3.182964e-15
    outer loop
      vertex   8.326882e-01 1.223049e+01 2.978008e+02
      vertex   -3.704199e-01 1.234537e+01 3.028008e+02
      vertex   8.326882e-01 1.223049e+01 3.028008e+02
    endloop
  endfacet
  facet normal 1.892512e-01 9.819287e-01 -3.139660e-15
    outer loop
      vertex   8.326882e-01 1.223049e+01 2.978008e+02
      vertex   8.326882e-01 1.223049e+01 3.028008e+02
      vertex   2.019428e+00 1.200176e+01 2.978008e+02
    endloop
  endfacet
  facet normal 1.892512e-01 9.819287e-01 -3.139660e-15
    outer loop
      vertex   2.019428e+00 1.200176e+01 2.978008e+02
      vertex   8.326882e-01 1.223049e+01 3.028008e+02
      vertex   2.019428e+00 1.200176e+01 3.028008e+02
    endloop
  endfacet
  facet normal 2.817326e-01 9.594930e-01 -3.067923e-15
    outer loop
      vertex   2.019428e+00 1.200176e+01 2.978008e+02
      vertex   2.019428e+00 1.200176e+01 3.028008e+02
      vertex   3.179053e+00 1.166127e+01 2.978008e+02
    endloop
  endfacet
  facet normal 2.817326e-01 9.594930e-01 -2.386163e-15
    outer loop
      vertex   3.179053e+00 1.166127e+01 2.978008e+02
      vertex   2.019428e+00 1.200176e+01 3.028008e+02
      vertex   3.179053e+00 1.166127e+01 3.028008e+02
    endloop
  endfacet
  facet normal 3.716625e-01 9.283679e-01 -2.308758e-15
    outer loop
      vertex   3.179053e+00 1.166127e+01 2.978008e+02
      vertex   3.179053e+00 1.166127e+01 3.028008e+02
      vertex   4.301060e+00 1.121208e+01 2.978008e+02
    endloop
  endfacet
  facet normal 3.716625e-01 9.283679e-01 -2.308758e-15
    outer loop
      vertex   4.301060e+00 1.121208e+01 2.978008e+02
      vertex   3.179053e+00 1.166127e+01 3.028008e+02
      vertex   4.301060e+00 1.121208e+01 3.028008e+02
    endloop
  endfacet
  facet normal 4.582265e-01 8.888354e-01 -2.210444e-15
    outer loop
      vertex   4.301060e+00 1.121208e+01 2.978008e+02
      vertex   4.301060e+00 1.121208e+01 3.028008e+02
      vertex   5.375290e+00 1.065828e+01 2.978008e+02
    endloop
  endfacet
  facet normal 4.582265e-01 8.888354e-01 -2.210444e-15
    outer loop
      vertex   5.375290e+00 1.065828e+01 2.978008e+02
      vertex   4.301060e+00 1.121208e+01 3.028008e+02
      vertex   5.375290e+00 1.065828e+01 3.028008e+02
    endloop
  endfacet
  facet normal 5.406408e-01 8.412535e-01 -2.092113e-15
    outer loop
      vertex   5.375290e+00 1.065828e+01 2.978008e+02
      vertex   5.375290e+00 1.065828e+01 3.028008e+02
      vertex   6.392012e+00 1.000487e+01 2.978008e+02
    endloop
  endfacet
  facet normal 5.406408e-01 8.412535e-01 -2.092113e-15
    outer loop
      vertex   6.392012e+00 1.000487e+01 2.978008e+02
      vertex   5.375290e+00 1.065828e+01 3.028008e+02
      vertex   6.392012e+00 1.000487e+01 3.028008e+02
    endloop
  endfacet
  facet normal 6.181590e-01 7.860531e-01 -1.954835e-15
    outer loop
      vertex   6.392012e+00 1.000487e+01 2.978008e+02
      vertex   6.392012e+00 1.000487e+01 3.028008e+02
      vertex   7.342021e+00 9.257777e+00 2.978008e+02
    endloop
  endfacet
  facet normal 6.181590e-01 7.860531e-01 -2.234097e-15
    outer loop
      vertex   7.342021e+00 9.257777e+00 2.978008e+02
      vertex   6.392012e+00 1.000487e+01 3.028008e+02
      vertex   7.342021e+00 9.257777e+00 3.028008e+02
    endloop
  endfacet
  facet normal 6.900790e-01 7.237340e-01 -2.056976e-15
    outer loop
      vertex   7.342021e+00 9.257777e+00 2.978008e+02
      vertex   7.342021e+00 9.257777e+00 3.028008e+02
      vertex   8.216712e+00 8.423761e+00 2.978008e+02
    endloop
  endfacet
  facet normal 6.900790e-01 7.237340e-01 -2.314098e-15
    outer loop
      vertex   8.216712e+00 8.423761e+00 2.978008e+02
      vertex   7.342021e+00 9.257777e+00 3.028008e+02
      vertex   8.216712e+00 8.423761e+00 3.028008e+02
    endloop
  endfacet
  facet normal 7.557496e-01 6.548607e-01 -2.093879e-15
    outer loop
      vertex   8.216712e+00 8.423761e+00 2.978008e+02
      vertex   8.216712e+00 8.423761e+00 3.028008e+02
      vertex   9.008164e+00 7.510377e+00 2.978008e+02
    endloop
  endfacet
  facet normal 7.557496e-01 6.548607e-01 -2.093879e-15
    outer loop
      vertex   9.008164e+00 7.510377e+00 2.978008e+02
      vertex   8.216712e+00 8.423761e+00 3.028008e+02
      vertex   9.008164e+00 7.510377e+00 3.028008e+02
    endloop
  endfacet
  facet normal 8.145760e-01 5.800569e-01 -1.854699e-15
    outer loop
      vertex   9.008164e+00 7.510377e+00 2.978008e+02
      vertex   9.008164e+00 7.510377e+00 3.028008e+02
      vertex   9.709210e+00 6.525896e+00 2.978008e+02
    endloop
  endfacet
  facet normal 8.145760e-01 5.800569e-01 -1.854699e-15
    outer loop
      vertex   9.709210e+00 6.525896e+00 2.978008e+02
      vertex   9.008164e+00 7.510377e+00 3.028008e+02
      vertex   9.709210e+00 6.525896e+00 3.028008e+02
    endloop
  endfacet
  facet normal 8.660254e-01 5.000000e-01 -1.598721e-15
    outer loop
      vertex   9.709210e+00 6.525896e+00 2.978008e+02
      vertex   9.709210e+00 6.525896e+00 3.028008e+02
      vertex   1.031350e+01 5.479235e+00 2.978008e+02
    endloop
  endfacet
  facet normal 8.660254e-01 5.000000e-01 -1.598721e-15
    outer loop
      vertex   1.031350e+01 5.479235e+00 2.978008e+02
      vertex   9.709210e+00 6.525896e+00 3.028008e+02
      vertex   1.031350e+01 5.479235e+00 3.028008e+02
    endloop
  endfacet
  facet normal 9.096320e-01 4.154150e-01 -1.328266e-15
    outer loop
      vertex   1.031350e+01 5.479235e+00 2.978008e+02
      vertex   1.031350e+01 5.479235e+00 3.028008e+02
      vertex   1.081556e+01 4.379871e+00 2.978008e+02
    endloop
  endfacet
  facet normal 9.096320e-01 4.154150e-01 -1.180680e-15
    outer loop
      vertex   1.081556e+01 4.379871e+00 2.978008e+02
      vertex   1.031350e+01 5.479235e+00 3.028008e+02
      vertex   1.081556e+01 4.379871e+00 3.028008e+02
    endloop
  endfacet
  facet normal 9.450008e-01 3.270680e-01 -9.295831e-16
    outer loop
      vertex   1.081556e+01 4.379871e+00 2.978008e+02
      vertex   1.081556e+01 4.379871e+00 3.028008e+02
      vertex   1.121085e+01 3.237761e+00 2.978008e+02
    endloop
  endfacet
  facet normal 9.450008e-01 3.270680e-01 -9.295831e-16
    outer loop
      vertex   1.121085e+01 3.237761e+00 2.978008e+02
      vertex   1.081556e+01 4.379871e+00 3.028008e+02
      vertex   1.121085e+01 3.237761e+00 3.028008e+02
    endloop
  endfacet
  facet normal 9.718116e-01 2.357589e-01 -6.700672e-16
    outer loop
      vertex   1.121085e+01 3.237761e+00 2.978008e+02
      vertex   1.121085e+01 3.237761e+00 3.028008e+02
      vertex   1.149578e+01 2.063249e+00 2.978008e+02
    endloop
  endfacet
  facet normal 9.718116e-01 2.357589e-01 -7.119464e-16
    outer loop
      vertex   1.149578e+01 2.063249e+00 2.978008e+02
      vertex   1.121085e+01 3.237761e+00 3.028008e+02
      vertex   1.149578e+01 2.063249e+00 3.028008e+02
    endloop
  endfacet
  facet normal 9.898214e-01 1.423148e-01 -4.297633e-16
    outer loop
      vertex   1.149578e+01 2.063249e+00 2.978008e+02
      vertex   1.149578e+01 2.063249e+00 3.028008e+02
      vertex   1.166778e+01 8.669695e-01 2.978008e+02
    endloop
  endfacet
  facet normal 9.898214e-01 1.423148e-01 -4.171232e-16
    outer loop
      vertex   1.166778e+01 8.669695e-01 2.978008e+02
      vertex   1.149578e+01 2.063249e+00 3.028008e+02
      vertex   1.166778e+01 8.669695e-01 3.028008e+02
    endloop
  endfacet
  facet normal 9.988673e-01 4.758192e-02 -1.394621e-16
    outer loop
      vertex   1.166778e+01 8.669695e-01 2.978008e+02
      vertex   1.166778e+01 8.669695e-01 3.028008e+02
      vertex   1.172529e+01 -3.402422e-01 2.978008e+02
    endloop
  endfacet
  facet normal 9.988673e-01 4.758192e-02 -1.399903e-16
    outer loop
      vertex   1.172529e+01 -3.402422e-01 2.978008e+02
      vertex   1.166778e+01 8.669695e-01 3.028008e+02
      vertex   1.172529e+01 -3.402422e-01 3.028008e+02
    endloop
  endfacet
  facet normal 9.988673e-01 -4.758192e-02 1.399903e-16
    outer loop
      vertex   1.172529e+01 -3.402422e-01 2.978008e+02
      vertex   1.172529e+01 -3.402422e-01 3.028008e+02
      vertex   1.166778e+01 -1.547454e+00 2.978008e+02
    endloop
  endfacet
  facet normal 9.988673e-01 -4.758192e-02 1.394621e-16
    outer loop
      vertex   1.166778e+01 -1.547454e+00 2.978008e+02
      vertex   1.172529e+01 -3.402422e-01 3.028008e+02
      vertex   1.166778e+01 -1.547454e+00 3.028008e+02
    endloop
  endfacet
  facet normal 9.898214e-01 -1.423148e-01 4.171232e-16
    outer loop
      vertex   1.166778e+01 -1.547454e+00 2.978008e+02
      vertex   1.166778e+01 -1.547454e+00 3.028008e+02
      vertex   1.149578e+01 -2.743733e+00 2.978008e+02
    endloop
  endfacet
  facet normal 9.898214e-01 -1.423148e-01 4.297633e-16
    outer loop
      vertex   1.149578e+01 -2.743733e+00 2.978008e+02
      vertex   1.166778e+01 -1.547454e+00 3.028008e+02
      vertex   1.149578e+01 -2.743733e+00 3.028008e+02
    endloop
  endfacet
  facet normal 9.718116e-01 -2.357589e-01 7.119464e-16
    outer loop
      vertex   1.149578e+01 -2.743733e+00 2.978008e+02
      vertex   1.149578e+01 -2.743733e+00 3.028008e+02
      vertex   1.121085e+01 -3.918246e+00 2.978008e+02
    endloop
  endfacet
  facet normal 9.718116e-01 -2.357589e-01 6.700672e-16
    outer loop
      vertex   1.121085e+01 -3.918246e+00 2.978008e+02
      vertex   1.149578e+01 -2.743733e+00 3.028008e+02
      vertex   1.121085e+01 -3.918246e+00 3.028008e+02
    endloop
  endfacet
  facet normal 9.450008e-01 -3.270680e-01 9.295831e-16
    outer loop
      vertex   1.121085e+01 -3.918246e+00 2.978008e+02
      vertex   1.121085e+01 -3.918246e+00 3.028008e+02
      vertex   1.081556e+01 -5.060355e+00 2.978008e+02
    endloop
  endfacet
  facet normal 9.450008e-01 -3.270680e-01 9.295831e-16
    outer loop
      vertex   1.081556e+01 -5.060355e+00 2.978008e+02
      vertex   1.121085e+01 -3.918246e+00 3.028008e+02
      vertex   1.081556e+01 -5.060355e+00 3.028008e+02
    endloop
  endfacet
  facet normal 9.096320e-01 -4.154150e-01 1.180680e-15
    outer loop
      vertex   1.081556e+01 -5.060355e+00 2.978008e+02
      vertex   1.081556e+01 -5.060355e+00 3.028008e+02
      vertex   1.031350e+01 -6.159719e+00 2.978008e+02
    endloop
  endfacet
  facet normal 9.096320e-01 -4.154150e-01 1.328266e-15
    outer loop
      vertex   1.031350e+01 -6.159719e+00 2.978008e+02
      vertex   1.081556e+01 -5.060355e+00 3.028008e+02
      vertex   1.031350e+01 -6.159719e+00 3.028008e+02
    endloop
  endfacet
  facet normal 8.660254e-01 -5.000000e-01 1.598721e-15
    outer loop
      vertex   1.031350e+01 -6.159719e+00 2.978008e+02
      vertex   1.031350e+01 -6.159719e+00 3.028008e+02
      vertex   9.709210e+00 -7.206381e+00 2.978008e+02
    endloop
  endfacet
  facet normal 8.660254e-01 -5.000000e-01 1.509903e-15
    outer loop
      vertex   9.709210e+00 -7.206381e+00 2.978008e+02
      vertex   1.031350e+01 -6.159719e+00 3.028008e+02
      vertex   9.709210e+00 -7.206381e+00 3.028008e+02
    endloop
  endfacet
  facet normal 8.145760e-01 -5.800569e-01 1.751660e-15
    outer loop
      vertex   9.709210e+00 -7.206381e+00 2.978008e+02
      vertex   9.709210e+00 -7.206381e+00 3.028008e+02
      vertex   9.008164e+00 -8.190861e+00 2.978008e+02
    endloop
  endfacet
  facet normal 8.145760e-01 -5.800569e-01 1.854699e-15
    outer loop
      vertex   9.008164e+00 -8.190861e+00 2.978008e+02
      vertex   9.709210e+00 -7.206381e+00 3.028008e+02
      vertex   9.008164e+00 -8.190861e+00 3.028008e+02
    endloop
  endfacet
  facet normal 7.557496e-01 -6.548607e-01 2.093879e-15
    outer loop
      vertex   9.008164e+00 -8.190861e+00 2.978008e+02
      vertex   9.008164e+00 -8.190861e+00 3.028008e+02
      vertex   8.216712e+00 -9.104246e+00 2.978008e+02
    endloop
  endfacet
  facet normal 7.557496e-01 -6.548607e-01 2.093879e-15
    outer loop
      vertex   8.216712e+00 -9.104246e+00 2.978008e+02
      vertex   9.008164e+00 -8.190861e+00 3.028008e+02
      vertex   8.216712e+00 -9.104246e+00 3.028008e+02
    endloop
  endfacet
  facet normal 6.900790e-01 -7.237340e-01 2.314098e-15
    outer loop
      vertex   8.216712e+00 -9.104246e+00 2.978008e+02
      vertex   8.216712e+00 -9.104246e+00 3.028008e+02
      vertex   7.342021e+00 -9.938262e+00 2.978008e+02
    endloop
  endfacet
  facet normal 6.900790e-01 -7.237340e-01 2.056976e-15
    outer loop
      vertex   7.342021e+00 -9.938262e+00 2.978008e+02
      vertex   8.216712e+00 -9.104246e+00 3.028008e+02
      vertex   7.342021e+00 -9.938262e+00 3.028008e+02
    endloop
  endfacet
  facet normal 6.181590e-01 -7.860531e-01 2.234097e-15
    outer loop
      vertex   7.342021e+00 -9.938262e+00 2.978008e+02
      vertex   7.342021e+00 -9.938262e+00 3.028008e+02
      vertex   6.392012e+00 -1.068536e+01 2.978008e+02
    endloop
  endfacet
  facet normal 6.181590e-01 -7.860531e-01 2.234097e-15
    outer loop
      vertex   6.392012e+00 -1.068536e+01 2.978008e+02
      vertex   7.342021e+00 -9.938262e+00 3.028008e+02
      vertex   6.392012e+00 -1.068536e+01 3.028008e+02
    endloop
  endfacet
  facet normal 5.406408e-01 -8.412535e-01 2.390986e-15
    outer loop
      vertex   6.392012e+00 -1.068536e+01 2.978008e+02
      vertex   6.392012e+00 -1.068536e+01 3.028008e+02
      vertex   5.375290e+00 -1.133876e+01 2.978008e+02
    endloop
  endfacet
  facet normal 5.406408e-01 -8.412535e-01 2.092113e-15
    outer loop
      vertex   5.375290e+00 -1.133876e+01 2.978008e+02
      vertex   6.392012e+00 -1.068536e+01 3.028008e+02
      vertex   5.375290e+00 -1.133876e+01 3.028008e+02
    endloop
  endfacet
  facet normal 4.582265e-01 -8.888354e-01 2.210444e-15
    outer loop
      vertex   5.375290e+00 -1.133876e+01 2.978008e+02
      vertex   5.375290e+00 -1.133876e+01 3.028008e+02
      vertex   4.301060e+00 -1.189257e+01 2.978008e+02
    endloop
  endfacet
  facet normal 4.582265e-01 -8.888354e-01 2.526222e-15
    outer loop
      vertex   4.301060e+00 -1.189257e+01 2.978008e+02
      vertex   5.375290e+00 -1.133876e+01 3.028008e+02
      vertex   4.301060e+00 -1.189257e+01 3.028008e+02
    endloop
  endfacet
  facet normal 3.716625e-01 -9.283679e-01 2.638580e-15
    outer loop
      vertex   4.301060e+00 -1.189257e+01 2.978008e+02
      vertex   4.301060e+00 -1.189257e+01 3.028008e+02
      vertex   3.179053e+00 -1.234175e+01 2.978008e+02
    endloop
  endfacet
  facet normal 3.716625e-01 -9.283679e-01 2.638580e-15
    outer loop
      vertex   3.179053e+00 -1.234175e+01 2.978008e+02
      vertex   4.301060e+00 -1.189257e+01 3.028008e+02
      vertex   3.179053e+00 -1.234175e+01 3.028008e+02
    endloop
  endfacet
  facet normal 2.817326e-01 -9.594930e-01 2.727043e-15
    outer loop
      vertex   3.179053e+00 -1.234175e+01 2.978008e+02
      vertex   3.179053e+00 -1.234175e+01 3.028008e+02
      vertex   2.019428e+00 -1.268225e+01 2.978008e+02
    endloop
  endfacet
  facet normal 2.817326e-01 -9.594930e-01 2.727043e-15
    outer loop
      vertex   2.019428e+00 -1.268225e+01 2.978008e+02
      vertex   3.179053e+00 -1.234175e+01 3.028008e+02
      vertex   2.019428e+00 -1.268225e+01 3.028008e+02
    endloop
  endfacet
  facet normal 1.892512e-01 -9.819287e-01 2.790809e-15
    outer loop
      vertex   2.019428e+00 -1.268225e+01 2.978008e+02
      vertex   2.019428e+00 -1.268225e+01 3.028008e+02
      vertex   8.326882e-01 -1.291097e+01 2.978008e+02
    endloop
  endfacet
  facet normal 1.892512e-01 -9.819287e-01 2.790809e-15
    outer loop
      vertex   8.326882e-01 -1.291097e+01 2.978008e+02
      vertex   2.019428e+00 -1.268225e+01 3.028008e+02
      vertex   8.326882e-01 -1.291097e+01 3.028008e+02
    endloop
  endfacet
  facet normal 9.505604e-02 -9.954719e-01 2.829301e-15
    outer loop
      vertex   8.326882e-01 -1.291097e+01 2.978008e+02
      vertex   8.326882e-01 -1.291097e+01 3.028008e+02
      vertex   -3.704199e-01 -1.302586e+01 2.978008e+02
    endloop
  endfacet
  facet normal 9.505604e-02 -9.954719e-01 3.182964e-15
    outer loop
      vertex   -3.704199e-01 -1.302586e+01 2.978008e+02
      vertex   8.326882e-01 -1.291097e+01 3.028008e+02
      vertex   -3.704199e-01 -1.302586e+01 3.028008e+02
    endloop
  endfacet
  facet normal 0.000000e+00 -1.000000e+00 3.197442e-15
    outer loop
      vertex   -3.704199e-01 -1.302586e+01 2.978008e+02
      vertex   -3.704199e-01 -1.302586e+01 3.028008e+02
      vertex   -1.579001e+00 -1.302586e+01 2.978008e+02
    endloop
  endfacet
  facet normal 0.000000e+00 -1.000000e+00 3.197442e-15
    outer loop
      vertex   -1.579001e+00 -1.302586e+01 2.978008e+02
      vertex   -3.704199e-01 -1.302586e+01 3.028008e+02
      vertex   -1.579001e+00 -1.302586e+01 3.028008e+02
    endloop
  endfacet
  facet normal -9.505604e-02 -9.954719e-01 3.182964e-15
    outer loop
      vertex   -1.579001e+00 -1.302586e+01 2.978008e+02
      vertex   -1.579001e+00 -1.302586e+01 3.028008e+02
      vertex   -2.782109e+00 -1.291097e+01 2.978008e+02
    endloop
  endfacet
  facet normal -9.505604e-02 -9.954719e-01 3.182964e-15
    outer loop
      vertex   -2.782109e+00 -1.291097e+01 2.978008e+02
      vertex   -1.579001e+00 -1.302586e+01 3.028008e+02
      vertex   -2.782109e+00 -1.291097e+01 3.028008e+02
    endloop
  endfacet
  facet normal -1.892512e-01 -9.819287e-01 3.139660e-15
    outer loop
      vertex   -2.782109e+00 -1.291097e+01 2.978008e+02
      vertex   -2.782109e+00 -1.291097e+01 3.028008e+02
      vertex   -3.968849e+00 -1.268225e+01 2.978008e+02
    endloop
  endfacet
  facet normal -1.892512e-01 -9.819287e-01 3.139660e-15
    outer loop
      vertex   -3.968849e+00 -1.268225e+01 2.978008e+02
      vertex   -2.782109e+00 -1.291097e+01 3.028008e+02
      vertex   -3.968849e+00 -1.268225e+01 3.028008e+02
    endloop
  endfacet
  facet normal -2.817326e-01 -9.594930e-01 3.067923e-15
    outer loop
      vertex   -3.968849e+00 -1.268225e+01 2.978008e+02
      vertex   -3.968849e+00 -1.268225e+01 3.028008e+02
      vertex   -5.128473e+00 -1.234175e+01 2.978008e+02
    endloop
  endfacet
  facet normal -2.817326e-01 -9.594930e-01 3.067923e-15
    outer loop
      vertex   -5.128473e+00 -1.234175e+01 2.978008e+02
      vertex   -3.968849e+00 -1.268225e+01 3.028008e+02
      vertex   -5.128473e+00 -1.234175e+01 3.028008e+02
    endloop
  endfacet
  facet normal -3.716625e-01 -9.283679e-01 2.968403e-15
    outer loop
      vertex   -5.128473e+00 -1.234175e+01 2.978008e+02
      vertex   -5.128473e+00 -1.234175e+01 3.028008e+02
      vertex   -6.250481e+00 -1.189257e+01 2.978008e+02
    endloop
  endfacet
  facet normal -3.716625e-01 -9.283679e-01 2.968403e-15
    outer loop
      vertex   -6.250481e+00 -1.189257e+01 2.978008e+02
      vertex   -5.128473e+00 -1.234175e+01 3.028008e+02
      vertex   -6.250481e+00 -1.189257e+01 3.028008e+02
    endloop
  endfacet
  facet normal -4.582265e-01 -8.888354e-01 2.842000e-15
    outer loop
      vertex   -6.250481e+00 -1.189257e+01 2.978008e+02
      vertex   -6.250481e+00 -1.189257e+01 3.028008e+02
      vertex   -7.324710e+00 -1.133876e+01 2.978008e+02
    endloop
  endfacet
  facet normal -4.582265e-01 -8.888354e-01 2.842000e-15
    outer loop
      vertex   -7.324710e+00 -1.133876e+01 2.978008e+02
      vertex   -6.250481e+00 -1.189257e+01 3.028008e+02
      vertex   -7.324710e+00 -1.133876e+01 3.028008e+02
    endloop
  endfacet
  facet normal -5.406408e-01 -8.412535e-01 2.689860e-15
    outer loop
      vertex   -7.324710e+00 -1.133876e+01 2.978008e+02
      vertex   -7.324710e+00 -1.133876e+01 3.028008e+02
      vertex   -8.341433e+00 -1.068536e+01 2.978008e+02
    endloop
  endfacet
  facet normal -5.406408e-01 -8.412535e-01 2.689860e-15
    outer loop
      vertex   -8.341433e+00 -1.068536e+01 2.978008e+02
      vertex   -7.324710e+00 -1.133876e+01 3.028008e+02
      vertex   -8.341433e+00 -1.068536e+01 3.028008e+02
    endloop
  endfacet
  facet normal -6.181590e-01 -7.860531e-01 2.513359e-15
    outer loop
      vertex   -8.341433e+00 -1.068536e+01 2.978008e+02
      vertex   -8.341433e+00 -1.068536e+01 3.028008e+02
      vertex   -9.291442e+00 -9.938262e+00 2.978008e+02
    endloop
  endfacet
  facet normal -6.181590e-01 -7.860531e-01 2.234097e-15
    outer loop
      vertex   -9.291442e+00 -9.938262e+00 2.978008e+02
      vertex   -8.341433e+00 -1.068536e+01 3.028008e+02
      vertex   -9.291442e+00 -9.938262e+00 3.028008e+02
    endloop
  endfacet
  facet normal -6.900790e-01 -7.237340e-01 2.056976e-15
    outer loop
      vertex   -9.291442e+00 -9.938262e+00 2.978008e+02
      vertex   -9.291442e+00 -9.938262e+00 3.028008e+02
      vertex   -1.016613e+01 -9.104246e+00 2.978008e+02
    endloop
  endfacet
  facet normal -6.900790e-01 -7.237340e-01 2.056976e-15
    outer loop
      vertex   -1.016613e+01 -9.104246e+00 2.978008e+02
      vertex   -9.291442e+00 -9.938262e+00 3.028008e+02
      vertex   -1.016613e+01 -9.104246e+00 3.028008e+02
    endloop
  endfacet
  facet normal -7.557496e-01 -6.548607e-01 1.861226e-15
    outer loop
      vertex   -1.016613e+01 -9.104246e+00 2.978008e+02
      vertex   -1.016613e+01 -9.104246e+00 3.028008e+02
      vertex   -1.095758e+01 -8.190861e+00 2.978008e+02
    endloop
  endfacet
  facet normal -7.557496e-01 -6.548607e-01 1.861226e-15
    outer loop
      vertex   -1.095758e+01 -8.190861e+00 2.978008e+02
      vertex   -1.016613e+01 -9.104246e+00 3.028008e+02
      vertex   -1.095758e+01 -8.190861e+00 3.028008e+02
    endloop
  endfacet
  facet normal -8.145760e-01 -5.800569e-01 1.648621e-15
    outer loop
      vertex   -1.095758e+01 -8.190861e+00 2.978008e+02
      vertex   -1.095758e+01 -8.190861e+00 3.028008e+02
      vertex   -1.165863e+01 -7.206381e+00 2.978008e+02
    endloop
  endfacet
  facet normal -8.145760e-01 -5.800569e-01 1.751660e-15
    outer loop
      vertex   -1.165863e+01 -7.206381e+00 2.978008e+02
      vertex   -1.095758e+01 -8.190861e+00 3.028008e+02
      vertex   -1.165863e+01 -7.206381e+00 3.028008e+02
    endloop
  endfacet
  facet normal -8.660254e-01 -5.000000e-01 1.509903e-15
    outer loop
      vertex   -1.165863e+01 -7.206381e+00 2.978008e+02
      vertex   -1.165863e+01 -7.206381e+00 3.028008e+02
      vertex   -1.226292e+01 -6.159719e+00 2.978008e+02
    endloop
  endfacet
  facet normal -8.660254e-01 -5.000000e-01 1.421085e-15
    outer loop
      vertex   -1.226292e+01 -6.159719e+00 2.978008e+02
      vertex   -1.165863e+01 -7.206381e+00 3.028008e+02
      vertex   -1.226292e+01 -6.159719e+00 3.028008e+02
    endloop
  endfacet
  facet normal -9.096320e-01 -4.154150e-01 1.180680e-15
    outer loop
      vertex   -1.226292e+01 -6.159719e+00 2.978008e+02
      vertex   -1.226292e+01 -6.159719e+00 3.028008e+02
      vertex   -1.276498e+01 -5.060355e+00 2.978008e+02
    endloop
  endfacet
  facet normal -9.096320e-01 -4.154150e-01 1.254473e-15
    outer loop
      vertex   -1.276498e+01 -5.060355e+00 2.978008e+02
      vertex   -1.226292e+01 -6.159719e+00 3.028008e+02
      vertex   -1.276498e+01 -5.060355e+00 3.028008e+02
    endloop
  endfacet
  facet normal -9.450008e-01 -3.270680e-01 9.876820e-16
    outer loop
      vertex   -1.276498e+01 -5.060355e+00 2.978008e+02
      vertex   -1.276498e+01 -5.060355e+00 3.028008e+02
      vertex   -1.316027e+01 -3.918246e+00 2.978008e+02
    endloop
  endfacet
  facet normal -9.450008e-01 -3.270680e-01 9.876820e-16
    outer loop
      vertex   -1.316027e+01 -3.918246e+00 2.978008e+02
      vertex   -1.276498e+01 -5.060355e+00 3.028008e+02
      vertex   -1.316027e+01 -3.918246e+00 3.028008e+02
    endloop
  endfacet
  facet normal -9.718116e-01 -2.357589e-01 7.119464e-16
    outer loop
      vertex   -1.316027e+01 -3.918246e+00 2.978008e+02
      vertex   -1.316027e+01 -3.918246e+00 3.028008e+02
      vertex   -1.344520e+01 -2.743733e+00 2.978008e+02
    endloop
  endfacet
  facet normal -9.718116e-01 -2.357589e-01 7.119464e-16
    outer loop
      vertex   -1.344520e+01 -2.743733e+00 2.978008e+02
      vertex   -1.316027e+01 -3.918246e+00 3.028008e+02
      vertex   -1.344520e+01 -2.743733e+00 3.028008e+02
    endloop
  endfacet
  facet normal -9.898214e-01 -1.423148e-01 4.297633e-16
    outer loop
      vertex   -1.344520e+01 -2.743733e+00 2.978008e+02
      vertex   -1.344520e+01 -2.743733e+00 3.028008e+02
      vertex   -1.361720e+01 -1.547454e+00 2.978008e+02
    endloop
  endfacet
  facet normal -9.898214e-01 -1.423148e-01 4.108031e-16
    outer loop
      vertex   -1.361720e+01 -1.547454e+00 2.978008e+02
      vertex   -1.344520e+01 -2.743733e+00 3.028008e+02
      vertex   -1.361720e+01 -1.547454e+00 3.028008e+02
    endloop
  endfacet
  facet normal 0.000000e+00 -0.000000e+00 -1.000000e+00
    outer loop
      vertex   -1.361720e+01 8.669695e-01 2.978008e+02
      vertex   1.166778e+01 8.669695e-01 2.978008e+02
      vertex   -1.367471e+01 -3.402422e-01 2.978008e+02
    endloop
  endfacet
  facet normal 0.000000e+00 0.000000e+00 -1.000000e+00
    outer loop
      vertex   -1.367471e+01 -3.402422e-01 2.978008e+02
      vertex   1.166778e+01 8.669695e-01 2.978008e+02
      vertex   1.172529e+01 -3.402422e-01 2.978008e+02
    endloop
  endfacet
  facet normal 0.000000e+00 0.000000e+00 -1.000000e+00
    outer loop
      vertex   -1.367471e+01 -3.402422e-01 2.978008e+02
      vertex   1.172529e+01 -3.402422e-01 2.978008e+02
      vertex   -1.361720e+01 -1.547454e+00 2.978008e+02
    endloop
  endfacet
  facet normal 0.000000e+00 0.000000e+00 -1.000000e+00
    outer loop
      vertex   -1.361720e+01 -1.547454e+00 2.978008e+02
      vertex   1.172529e+01 -3.402422e-01 2.978008e+02
      vertex   1.166778e+01 -1.547454e+00 2.978008e+02
    endloop
  endfacet
  facet normal 0.000000e+00 0.000000e+00 -1.000000e+00
    outer loop
      vertex   -1.361720e+01 -1.547454e+00 2.978008e+02
      vertex   1.166778e+01 -1.547454e+00 2.978008e+02
      vertex   -1.344520e+01 -2.743733e+00 2.978008e+02
    endloop
  endfacet
  facet normal 0.000000e+00 0.000000e+00 -1.000000e+00
    outer loop
      vertex   -1.344520e+01 -2.743733e+00 2.978008e+02
      vertex   1.166778e+01 -1.547454e+00 2.978008e+02
      vertex   1.149578e+01 -2.743733e+00 2.978008e+02
    endloop
  endfacet
  facet normal 0.000000e+00 0.000000e+00 -1.000000e+00
    outer loop
      vertex   -1.344520e+01 -2.743733e+00 2.978008e+02
      vertex   1.149578e+01 -2.743733e+00 2.978008e+02
      vertex   -1.316027e+01 -3.918246e+00 2.978008e+02
    endloop
  endfacet
  facet normal 0.000000e+00 0.000000e+00 -1.000000e+00
    outer loop
      vertex   -1.316027e+01 -3.918246e+00 2.978008e+02
      vertex   1.149578e+01 -2.743733e+00 2.978008e+02
      vertex   1.121085e+01 -3.918246e+00 2.978008e+02
    endloop
  endfacet
  facet normal 0.000000e+00 0.000000e+00 -1.000000e+00
    outer loop
      vertex   -1.316027e+01 -3.918246e+00 2.978008e+02
      vertex   1.121085e+01 -3.918246e+00 2.978008e+02
      vertex   -1.276498e+01 -5.060355e+00 2.978008e+02
    endloop
  endfacet
  facet normal 0.000000e+00 0.000000e+00 -1.000000e+00
    outer loop
      vertex   -1.276498e+01 -5.060355e+00 2.978008e+02
      vertex   1.121085e+01 -3.918246e+00 2.978008e+02
      vertex   1.081556e+01 -5.060355e+00 2.978008e+02
    endloop
  endfacet
  facet normal 0.000000e+00 0.000000e+00 -1.000000e+00
    outer loop
      vertex   -1.276498e+01 -5.060355e+00 2.978008e+02
      vertex   1.081556e+01 -5.060355e+00 2.978008e+02
      vertex   -1.226292e+01 -6.159719e+00 2.978008e+02
    endloop
  endfacet
  facet normal 0.000000e+00 0.000000e+00 -1.000000e+00
    outer loop
      vertex   -1.226292e+01 -6.159719e+00 2.978008e+02
      vertex   1.081556e+01 -5.060355e+00 2.978008e+02
      vertex   1.031350e+01 -6.159719e+00 2.978008e+02
    endloop
  endfacet
  facet normal 0.000000e+00 0.000000e+00 -1.000000e+00
    outer loop
      vertex   -1.226292e+01 -6.159719e+00 2.978008e+02
      vertex   1.031350e+01 -6.159719e+00 2.978008e+02
      vertex   -1.165863e+01 -7.206381e+00 2.978008e+02
    endloop
  endfacet
  facet normal 0.000000e+00 0.000000e+00 -1.000000e+00
    outer loop
      vertex   -1.165863e+01 -7.206381e+00 2.978008e+02
      vertex   1.031350e+01 -6.159719e+00 2.978008e+02
      vertex   9.709210e+00 -7.206381e+00 2.978008e+02
    endloop
  endfacet
  facet normal 0.000000e+00 0.000000e+00 -1.000000e+00
    outer loop
      vertex   -1.165863e+01 -7.206381e+00 2.978008e+02
      vertex   9.709210e+00 -7.206381e+00 2.978008e+02
      vertex   -1.095758e+01 -8.190861e+00 2.978008e+02
    endloop
  endfacet
  facet normal 0.000000e+00 0.000000e+00 -1.000000e+00
    outer loop
      vertex   -1.095758e+01 -8.190861e+00 2.978008e+02
      vertex   9.709210e+00 -7.206381e+00 2.978008e+02
      vertex   9.008164e+00 -8.190861e+00 2.978008e+02
    endloop
  endfacet
  facet normal 0.000000e+00 0.000000e+00 -1.000000e+00
    outer loop
      vertex   -1.095758e+01 -8.190861e+00 2.978008e+02
      vertex   9.008164e+00 -8.190861e+00 2.978008e+02
      vertex   -1.016613e+01 -9.104246e+00 2.978008e+02
    endloop
  endfacet
  facet normal 0.000000e+00 0.000000e+00 -1.000000e+00
    outer loop
      vertex   -1.016613e+01 -9.104246e+00 2.978008e+02
      vertex   9.008164e+00 -8.190861e+00 2.978008e+02
      vertex   8.216712e+00 -9.104246e+00 2.978008e+02
    endloop
  endfacet
  facet normal 0.000000e+00 0.000000e+00 -1.000000e+00
    outer loop
      vertex   -1.016613e+01 -9.104246e+00 2.978008e+02
      vertex   8.216712e+00 -9.104246e+00 2.978008e+02
      vertex   -9.291442e+00 -9.938262e+00 2.978008e+02
    endloop
  endfacet
  facet normal 0.000000e+00 0.000000e+00 -1.000000e+00
    outer loop
      vertex   -9.291442e+00 -9.938262e+00 2.978008e+02
      vertex   8.216712e+00 -9.104246e+00 2.978008e+02
      vertex   7.342021e+00 -9.938262e+00 2.978008e+02
    endloop
  endfacet
  facet normal 0.000000e+00 0.000000e+00 -1.000000e+00
    outer loop
      vertex   -9.291442e+00 -9.938262e+00 2.978008e+02
      vertex   7.342021e+00 -9.938262e+00 2.978008e+02
      vertex   -8.341433e+00 -1.068536e+01 2.978008e+02
    endloop
  endfacet
  facet normal 0.000000e+00 0.000000e+00 -1.000000e+00
    outer loop
      vertex   -8.341433e+00 -1.068536e+01 2.978008e+02
      vertex   7.342021e+00 -9.938262e+00 2.978008e+02
      vertex   6.392012e+00 -1.068536e+01 2.978008e+02
    endloop
  endfacet
  facet normal 1.048870e-29 -8.699529e-14 -1.000000e+00
    outer loop
      vertex   -8.341433e+00 -1.068536e+01 2.978008e+02
      vertex   6.392012e+00 -1.068536e+01 2.978008e+02
      vertex   -7.324710e+00 -1.133876e+01 2.978008e+02
    endloop
  endfacet
  facet normal 6.084042e-29 -8.699529e-14 -1.000000e+00
    outer loop
      vertex   -7.324710e+00 -1.133876e+01 2.978008e+02
      vertex   6.392012e+00 -1.068536e+01 2.978008e+02
      vertex   5.375290e+00 -1.133876e+01 2.978008e+02
    endloop
  endfacet
  facet normal 0.000000e+00 0.000000e+00 -1.000000e+00
    outer loop
      vertex   -7.324710e+00 -1.133876e+01 2.978008e+02
      vertex   5.375290e+00 -1.133876e+01 2.978008e+02
      vertex   -6.250481e+00 -1.189257e+01 2.978008e+02
    endloop
  endfacet
  facet normal 0.000000e+00 0.000000e+00 -1.000000e+00
    outer loop
      vertex   -6.250481e+00 -1.189257e+01 2.978008e+02
      vertex   5.375290e+00 -1.133876e+01 2.978008e+02
      vertex   4.301060e+00 -1.189257e+01 2.978008e+02
    endloop
  endfacet
  facet normal 0.000000e+00 0.000000e+00 -1.000000e+00
    outer loop
      vertex   -6.250481e+00 -1.189257e+01 2.978008e+02
      vertex   4.301060e+00 -1.189257e+01 2.978008e+02
      vertex   -5.128473e+00 -1.234175e+01 2.978008e+02
    endloop
  endfacet
  facet normal 0.000000e+00 0.000000e+00 -1.000000e+00
    outer loop
      vertex   -5.128473e+00 -1.234175e+01 2.978008e+02
      vertex   4.301060e+00 -1.189257e+01 2.978008e+02
      vertex   3.179053e+00 -1.234175e+01 2.978008e+02
    endloop
  endfacet
  facet normal 0.000000e+00 0.000000e+00 -1.000000e+00
    outer loop
      vertex   -5.128473e+00 -1.234175e+01 2.978008e+02
      vertex   3.179053e+00 -1.234175e+01 2.978008e+02
      vertex   -3.968849e+00 -1.268225e+01 2.978008e+02
    endloop
  endfacet
  facet normal 0.000000e+00 0.000000e+00 -1.000000e+00
    outer loop
      vertex   -3.968849e+00 -1.268225e+01 2.978008e+02
      vertex   3.179053e+00 -1.234175e+01 2.978008e+02
      vertex   2.019428e+00 -1.268225e+01 2.978008e+02
    endloop
  endfacet
  facet normal 0.000000e+00 0.000000e+00 -1.000000e+00
    outer loop
      vertex   -3.968849e+00 -1.268225e+01 2.978008e+02
      vertex   2.019428e+00 -1.268225e+01 2.978008e+02
      vertex   -2.782109e+00 -1.291097e+01 2.978008e+02
    endloop
  endfacet
  facet normal 0.000000e+00 0.000000e+00 -1.000000e+00
    outer loop
      vertex   -2.782109e+00 -1.291097e+01 2.978008e+02
      vertex   2.019428e+00 -1.268225e+01 2.978008e+02
      vertex   8.326882e-01 -1.291097e+01 2.978008e+02
    endloop
  endfacet
  facet normal 0.000000e+00 0.000000e+00 -1.000000e+00
    outer loop
      vertex   -2.782109e+00 -1.291097e+01 2.978008e+02
      vertex   8.326882e-01 -1.291097e+01 2.978008e+02
      vertex   -1.579001e+00 -1.302586e+01 2.978008e+02
    endloop
  endfacet
  facet normal 0.000000e+00 0.000000e+00 -1.000000e+00
    outer loop
      vertex   -1.579001e+00 -1.302586e+01 2.978008e+02
      vertex   8.326882e-01 -1.291097e+01 2.978008e+02
      vertex   -3.704199e-01 -1.302586e+01 2.978008e+02
    endloop
  endfacet
  facet normal 0.000000e+00 0.000000e+00 -1.000000e+00
    outer loop
      vertex   1.166778e+01 8.669695e-01 2.978008e+02
      vertex   -1.361720e+01 8.669695e-01 2.978008e+02
      vertex   1.149578e+01 2.063249e+00 2.978008e+02
    endloop
  endfacet
  facet normal -0.000000e+00 0.000000e+00 -1.000000e+00
    outer loop
      vertex   1.149578e+01 2.063249e+00 2.978008e+02
      vertex   -1.361720e+01 8.669695e-01 2.978008e+02
      vertex   -1.344520e+01 2.063249e+00 2.978008e+02
    endloop
  endfacet
  facet normal 0.000000e+00 0.000000e+00 -1.000000e+00
    outer loop
      vertex   1.149578e+01 2.063249e+00 2.978008e+02
      vertex   -1.344520e+01 2.063249e+00 2.978008e+02
      vertex   1.121085e+01 3.237761e+00 2.978008e+02
    endloop
  endfacet
  facet normal 0.000000e+00 0.000000e+00 -1.000000e+00
    outer loop
      vertex   1.121085e+01 3.237761e+00 2.978008e+02
      vertex   -1.344520e+01 2.063249e+00 2.978008e+02
      vertex   -1.316027e+01 3.237761e+00 2.978008e+02
    endloop
  endfacet
  facet normal -0.000000e+00 0.000000e+00 -1.000000e+00
    outer loop
      vertex   1.121085e+01 3.237761e+00 2.978008e+02
      vertex   -1.316027e+01 3.237761e+00 2.978008e+02
      vertex   1.081556e+01 4.379871e+00 2.978008e+02
    endloop
  endfacet
  facet normal 0.000000e+00 0.000000e+00 -1.000000e+00
    outer loop
      vertex   1.081556e+01 4.379871e+00 2.978008e+02
      vertex   -1.316027e+01 3.237761e+00 2.978008e+02
      vertex   -1.276498e+01 4.379871e+00 2.978008e+02
    endloop
  endfacet
  facet normal -0.000000e+00 0.000000e+00 -1.000000e+00
    outer loop
      vertex   1.081556e+01 4.379871e+00 2.978008e+02
      vertex   -1.276498e+01 4.379871e+00 2.978008e+02
      vertex   1.031350e+01 5.479235e+00 2.978008e+02
    endloop
  endfacet
  facet normal -0.000000e+00 0.000000e+00 -1.000000e+00
    outer loop
      vertex   1.031350e+01 5.479235e+00 2.978008e+02
      vertex   -1.276498e+01 4.379871e+00 2.978008e+02
      vertex   -1.226292e+01 5.479235e+00 2.978008e+02
    endloop
  endfacet
  facet normal 0.000000e+00 0.000000e+00 -1.000000e+00
    outer loop
      vertex   1.031350e+01 5.479235e+00 2.978008e+02
      vertex   -1.226292e+01 5.479235e+00 2.978008e+02
      vertex   9.709210e+00 6.525896e+00 2.978008e+02
    endloop
  endfacet
  facet normal -0.000000e+00 0.000000e+00 -1.000000e+00
    outer loop
      vertex   9.709210e+00 6.525896e+00 2.978008e+02
      vertex   -1.226292e+01 5.479235e+00 2.978008e+02
      vertex   -1.165863e+01 6.525896e+00 2.978008e+02
    endloop
  endfacet
  facet normal 0.000000e+00 0.000000e+00 -1.000000e+00
    outer loop
      vertex   9.709210e+00 6.525896e+00 2.978008e+02
      vertex   -1.165863e+01 6.525896e+00 2.978008e+02
      vertex   9.008164e+00 7.510377e+00 2.978008e+02
    endloop
  endfacet
  facet normal -0.000000e+00 0.000000e+00 -1.000000e+00
    outer loop
      vertex   9.008164e+00 7.510377e+00 2.978008e+02
      vertex   -1.165863e+01 6.525896e+00 2.978008e+02
      vertex   -1.095758e+01 7.510377e+00 2.978008e+02
    endloop
  endfacet
  facet normal 0.000000e+00 0.000000e+00 -1.000000e+00
    outer loop
      vertex   9.008164e+00 7.510377e+00 2.978008e+02
      vertex   -1.095758e+01 7.510377e+00 2.978008e+02
      vertex   8.216712e+00 8.423761e+00 2.978008e+02
    endloop
  endfacet
  facet normal -0.000000e+00 0.000000e+00 -1.000000e+00
    outer loop
      vertex   8.216712e+00 8.423761e+00 2.978008e+02
      vertex   -1.095758e+01 7.510377e+00 2.978008e+02
      vertex   -1.016613e+01 8.423761e+00 2.978008e+02
    endloop
  endfacet
  facet normal -0.000000e+00 -6.815626e-14 -1.000000e+00
    outer loop
      vertex   8.216712e+00 8.423761e+00 2.978008e+02
      vertex   -1.016613e+01 8.423761e+00 2.978008e+02
      vertex   7.342021e+00 9.257777e+00 2.978008e+02
    endloop
  endfacet
  facet normal 7.278691e-30 -6.815626e-14 -1.000000e+00
    outer loop
      vertex   7.342021e+00 9.257777e+00 2.978008e+02
      vertex   -1.016613e+01 8.423761e+00 2.978008e+02
      vertex   -9.291442e+00 9.257777e+00 2.978008e+02
    endloop
  endfacet
  facet normal -0.000000e+00 0.000000e+00 -1.000000e+00
    outer loop
      vertex   7.342021e+00 9.257777e+00 2.978008e+02
      vertex   -9.291442e+00 9.257777e+00 2.978008e+02
      vertex   6.392012e+00 1.000487e+01 2.978008e+02
    endloop
  endfacet
  facet normal 0.000000e+00 0.000000e+00 -1.000000e+00
    outer loop
      vertex   6.392012e+00 1.000487e+01 2.978008e+02
      vertex   -9.291442e+00 9.257777e+00 2.978008e+02
      vertex   -8.341433e+00 1.000487e+01 2.978008e+02
    endloop
  endfacet
  facet normal -0.000000e+00 0.000000e+00 -1.000000e+00
    outer loop
      vertex   6.392012e+00 1.000487e+01 2.978008e+02
      vertex   -8.341433e+00 1.000487e+01 2.978008e+02
      vertex   5.375290e+00 1.065828e+01 2.978008e+02
    endloop
  endfacet
  facet normal 0.000000e+00 0.000000e+00 -1.000000e+00
    outer loop
      vertex   5.375290e+00 1.065828e+01 2.978008e+02
      vertex   -8.341433e+00 1.000487e+01 2.978008e+02
      vertex   -7.324710e+00 1.065828e+01 2.978008e+02
    endloop
  endfacet
  facet normal -0.000000e+00 0.000000e+00 -1.000000e+00
    outer loop
      vertex   5.375290e+00 1.065828e+01 2.978008e+02
      vertex   -7.324710e+00 1.065828e+01 2.978008e+02
      vertex   4.301060e+00 1.121208e+01 2.978008e+02
    endloop
  endfacet
  facet normal 0.000000e+00 0.000000e+00 -1.000000e+00
    outer loop
      vertex   4.301060e+00 1.121208e+01 2.978008e+02
      vertex   -7.324710e+00 1.065828e+01 2.978008e+02
      vertex   -6.250481e+00 1.121208e+01 2.978008e+02
    endloop
  endfacet
  facet normal -0.000000e+00 0.000000e+00 -1.000000e+00
    outer loop
      vertex   4.301060e+00 1.121208e+01 2.978008e+02
      vertex   -6.250481e+00 1.121208e+01 2.978008e+02
      vertex   3.179053e+00 1.166127e+01 2.978008e+02
    endloop
  endfacet
  facet normal 0.000000e+00 0.000000e+00 -1.000000e+00
    outer loop
      vertex   3.179053e+00 1.166127e+01 2.978008e+02
      vertex   -6.250481e+00 1.121208e+01 2.978008e+02
      vertex   -5.128473e+00 1.166127e+01 2.978008e+02
    endloop
  endfacet
  facet normal -0.000000e+00 0.000000e+00 -1.000000e+00
    outer loop
      vertex   3.179053e+00 1.166127e+01 2.978008e+02
      vertex   -5.128473e+00 1.166127e+01 2.978008e+02
      vertex   2.019428e+00 1.200176e+01 2.978008e+02
    endloop
  endfacet
  facet normal -0.000000e+00 0.000000e+00 -1.000000e+00
    outer loop
      vertex   2.019428e+00 1.200176e+01 2.978008e+02
      vertex   -5.128473e+00 1.166127e+01 2.978008e+02
      vertex   -3.968849e+00 1.200176e+01 2.978008e+02
    endloop
  endfacet
  facet normal 0.000000e+00 0.000000e+00 -1.000000e+00
    outer loop
      vertex   2.019428e+00 1.200176e+01 2.978008e+02
      vertex   -3.968849e+00 1.200176e+01 2.978008e+02
      vertex   8.326882e-01 1.223049e+01 2.978008e+02
    endloop
  endfacet
  facet normal -0.000000e+00 0.000000e+00 -1.000000e+00
    outer loop
      vertex   8.326882e-01 1.223049e+01 2.978008e+02
      vertex   -3.968849e+00 1.200176e+01 2.978008e+02
      vertex   -2.782109e+00 1.223049e+01 2.978008e+02
    endloop
  endfacet
  facet normal 0.000000e+00 0.000000e+00 -1.000000e+00
    outer loop
      vertex   8.326882e-01 1.223049e+01 2.978008e+02
      vertex   -2.782109e+00 1.223049e+01 2.978008e+02
      vertex   -3.704199e-01 1.234537e+01 2.978008e+02
    endloop
  endfacet
  facet normal -0.000000e+00 0.000000e+00 -1.000000e+00
    outer loop
      vertex   -3.704199e-01 1.234537e+01 2.978008e+02
      vertex   -2.782109e+00 1.223049e+01 2.978008e+02
      vertex   -1.579001e+00 1.234537e+01 2.978008e+02
    endloop
  endfacet
  facet normal 0.000000e+00 -0.000000e+00 1.000000e+00
    outer loop
      vertex   -1.361720e+01 -1.547454e+00 3.028008e+02
      vertex   1.166778e+01 -1.547454e+00 3.028008e+02
      vertex   -1.367471e+01 -3.402422e-01 3.028008e+02
    endloop
  endfacet
  facet normal -0.000000e+00 0.000000e+00 1.000000e+00
    outer loop
      vertex   -1.367471e+01 -3.402422e-01 3.028008e+02
      vertex   1.166778e+01 -1.547454e+00 3.028008e+02
      vertex   1.172529e+01 -3.402422e-01 3.028008e+02
    endloop
  endfacet
  facet normal 0.000000e+00 0.000000e+00 1.000000e+00
    outer loop
      vertex   -1.367471e+01 -3.402422e-01 3.028008e+02
      vertex   1.172529e+01 -3.402422e-01 3.028008e+02
      vertex   -1.361720e+01 8.669695e-01 3.028008e+02
    endloop
  endfacet
  facet normal -0.000000e+00 0.000000e+00 1.000000e+00
    outer loop
      vertex   -1.361720e+01 8.669695e-01 3.028008e+02
      vertex   1.172529e+01 -3.402422e-01 3.028008e+02
      vertex   1.166778e+01 8.669695e-01 3.028008e+02
    endloop
  endfacet
  facet normal 0.000000e+00 0.000000e+00 1.000000e+00
    outer loop
      vertex   -1.361720e+01 8.669695e-01 3.028008e+02
      vertex   1.166778e+01 8.669695e-01 3.028008e+02
      vertex   -1.344520e+01 2.063249e+00 3.028008e+02
    endloop
  endfacet
  facet normal -0.000000e+00 0.000000e+00 1.000000e+00
    outer loop
      vertex   -1.344520e+01 2.063249e+00 3.028008e+02
      vertex   1.166778e+01 8.669695e-01 3.028008e+02
      vertex   1.149578e+01 2.063249e+00 3.028008e+02
    endloop
  endfacet
  facet normal 0.000000e+00 0.000000e+00 1.000000e+00
    outer loop
      vertex   -1.344520e+01 2.063249e+00 3.028008e+02
      vertex   1.149578e+01 2.063249e+00 3.028008e+02
      vertex   -1.316027e+01 3.237761e+00 3.028008e+02
    endloop
  endfacet
  facet normal -0.000000e+00 0.000000e+00 1.000000e+00
    outer loop
      vertex   -1.316027e+01 3.237761e+00 3.028008e+02
      vertex   1.149578e+01 2.063249e+00 3.028008e+02
      vertex   1.121085e+01 3.237761e+00 3.028008e+02
    endloop
  endfacet
  facet normal 0.000000e+00 0.000000e+00 1.000000e+00
    outer loop
      vertex   -1.316027e+01 3.237761e+00 3.028008e+02
      vertex   1.121085e+01 3.237761e+00 3.028008e+02
      vertex   -1.276498e+01 4.379871e+00 3.028008e+02
    endloop
  endfacet
  facet normal -0.000000e+00 0.000000e+00 1.000000e+00
    outer loop
      vertex   -1.276498e+01 4.379871e+00 3.028008e+02
      vertex   1.121085e+01 3.237761e+00 3.028008e+02
      vertex   1.081556e+01 4.379871e+00 3.028008e+02
    endloop
  endfacet
  facet normal 0.000000e+00 0.000000e+00 1.000000e+00
    outer loop
      vertex   -1.276498e+01 4.379871e+00 3.028008e+02
      vertex   1.081556e+01 4.379871e+00 3.028008e+02
      vertex   -1.226292e+01 5.479235e+00 3.028008e+02
    endloop
  endfacet
  facet normal -0.000000e+00 0.000000e+00 1.000000e+00
    outer loop
      vertex   -1.226292e+01 5.479235e+00 3.028008e+02
      vertex   1.081556e+01 4.379871e+00 3.028008e+02
      vertex   1.031350e+01 5.479235e+00 3.028008e+02
    endloop
  endfacet
  facet normal 0.000000e+00 0.000000e+00 1.000000e+00
    outer loop
      vertex   -1.226292e+01 5.479235e+00 3.028008e+02
      vertex   1.031350e+01 5.479235e+00 3.028008e+02
      vertex   -1.165863e+01 6.525896e+00 3.028008e+02
    endloop
  endfacet
  facet normal -0.000000e+00 0.000000e+00 1.000000e+00
    outer loop
      vertex   -1.165863e+01 6.525896e+00 3.028008e+02
      vertex   1.031350e+01 5.479235e+00 3.028008e+02
      vertex   9.709210e+00 6.525896e+00 3.028008e+02
    endloop
  endfacet
  facet normal 0.000000e+00 0.000000e+00 1.000000e+00
    outer loop
      vertex   -1.165863e+01 6.525896e+00 3.028008e+02
      vertex   9.709210e+00 6.525896e+00 3.028008e+02
      vertex   -1.095758e+01 7.510377e+00 3.028008e+02
    endloop
  endfacet
  facet normal -0.000000e+00 0.000000e+00 1.000000e+00
    outer loop
      vertex   -1.095758e+01 7.510377e+00 3.028008e+02
      vertex   9.709210e+00 6.525896e+00 3.028008e+02
      vertex   9.008164e+00 7.510377e+00 3.028008e+02
    endloop
  endfacet
  facet normal 0.000000e+00 0.000000e+00 1.000000e+00
    outer loop
      vertex   -1.095758e+01 7.510377e+00 3.028008e+02
      vertex   9.008164e+00 7.510377e+00 3.028008e+02
      vertex   -1.016613e+01 8.423761e+00 3.028008e+02
    endloop
  endfacet
  facet normal -0.000000e+00 0.000000e+00 1.000000e+00
    outer loop
      vertex   -1.016613e+01 8.423761e+00 3.028008e+02
      vertex   9.008164e+00 7.510377e+00 3.028008e+02
      vertex   8.216712e+00 8.423761e+00 3.028008e+02
    endloop
  endfacet
  facet normal 0.000000e+00 0.000000e+00 1.000000e+00
    outer loop
      vertex   -1.016613e+01 8.423761e+00 3.028008e+02
      vertex   8.216712e+00 8.423761e+00 3.028008e+02
      vertex   -9.291442e+00 9.257777e+00 3.028008e+02
    endloop
  endfacet
  facet normal -0.000000e+00 0.000000e+00 1.000000e+00
    outer loop
      vertex   -9.291442e+00 9.257777e+00 3.028008e+02
      vertex   8.216712e+00 8.423761e+00 3.028008e+02
      vertex   7.342021e+00 9.257777e+00 3.028008e+02
    endloop
  endfacet
  facet normal -0.000000e+00 7.608593e-14 1.000000e+00
    outer loop
      vertex   -9.291442e+00 9.257777e+00 3.028008e+02
      vertex   7.342021e+00 9.257777e+00 3.028008e+02
      vertex   -8.341433e+00 1.000487e+01 3.028008e+02
    endloop
  endfacet
  facet normal -0.000000e+00 7.608593e-14 1.000000e+00
    outer loop
      vertex   -8.341433e+00 1.000487e+01 3.028008e+02
      vertex   7.342021e+00 9.257777e+00 3.028008e+02
      vertex   6.392012e+00 1.000487e+01 3.028008e+02
    endloop
  endfacet
  facet normal 0.000000e+00 0.000000e+00 1.000000e+00
    outer loop
      vertex   -8.341433e+00 1.000487e+01 3.028008e+02
      vertex   6.392012e+00 1.000487e+01 3.028008e+02
      vertex   -7.324710e+00 1.065828e+01 3.028008e+02
    endloop
  endfacet
  facet normal -0.000000e+00 0.000000e+00 1.000000e+00
    outer loop
      vertex   -7.324710e+00 1.065828e+01 3.028008e+02
      vertex   6.392012e+00 1.000487e+01 3.028008e+02
      vertex   5.375290e+00 1.065828e+01 3.028008e+02
    endloop
  endfacet
  facet normal 0.000000e+00 0.000000e+00 1.000000e+00
    outer loop
      vertex   -7.324710e+00 1.065828e+01 3.028008e+02
      vertex   5.375290e+00 1.065828e+01 3.028008e+02
      vertex   -6.250481e+00 1.121208e+01 3.028008e+02
    endloop
  endfacet
  facet normal -0.000000e+00 0.000000e+00 1.000000e+00
    outer loop
      vertex   -6.250481e+00 1.121208e+01 3.028008e+02
      vertex   5.375290e+00 1.065828e+01 3.028008e+02
      vertex   4.301060e+00 1.121208e+01 3.028008e+02
    endloop
  endfacet
  facet normal 0.000000e+00 0.000000e+00 1.000000e+00
    outer loop
      vertex   -6.250481e+00 1.121208e+01 3.028008e+02
      vertex   4.301060e+00 1.121208e+01 3.028008e+02
      vertex   -5.128473e+00 1.166127e+01 3.028008e+02
    endloop
  endfacet
  facet normal -0.000000e+00 0.000000e+00 1.000000e+00
    outer loop
      vertex   -5.128473e+00 1.166127e+01 3.028008e+02
      vertex   4.301060e+00 1.121208e+01 3.028008e+02
      vertex   3.179053e+00 1.166127e+01 3.028008e+02
    endloop
  endfacet
  facet normal 0.000000e+00 0.000000e+00 1.000000e+00
    outer loop
      vertex   -5.128473e+00 1.166127e+01 3.028008e+02
      vertex   3.179053e+00 1.166127e+01 3.028008e+02
      vertex   -3.968849e+00 1.200176e+01 3.028008e+02
    endloop
  endfacet
  facet normal -0.000000e+00 0.000000e+00 1.000000e+00
    outer loop
      vertex   -3.968849e+00 1.200176e+01 3.028008e+02
      vertex   3.179053e+00 1.166127e+01 3.028008e+02
      vertex   2.019428e+00 1.200176e+01 3.028008e+02
    endloop
  endfacet
  facet normal 0.000000e+00 0.000000e+00 1.000000e+00
    outer loop
      vertex   -3.968849e+00 1.200176e+01 3.028008e+02
      vertex   2.019428e+00 1.200176e+01 3.028008e+02
      vertex   -2.782109e+00 1.223049e+01 3.028008e+02
    endloop
  endfacet
  facet normal -0.000000e+00 0.000000e+00 1.000000e+00
    outer loop
      vertex   -2.782109e+00 1.223049e+01 3.028008e+02
      vertex   2.019428e+00 1.200176e+01 3.028008e+02
      vertex   8.326882e-01 1.223049e+01 3.028008e+02
    endloop
  endfacet
  facet normal 0.000000e+00 0.000000e+00 1.000000e+00
    outer loop
      vertex   -2.782109e+00 1.223049e+01 3.028008e+02
      vertex   8.326882e-01 1.223049e+01 3.028008e+02
      vertex   -1.579001e+00 1.234537e+01 3.028008e+02
    endloop
  endfacet
  facet normal -0.000000e+00 0.000000e+00 1.000000e+00
    outer loop
      vertex   -1.579001e+00 1.234537e+01 3.028008e+02
      vertex   8.326882e-01 1.223049e+01 3.028008e+02
      vertex   -3.704199e-01 1.234537e+01 3.028008e+02
    endloop
  endfacet
  facet normal 0.000000e+00 0.000000e+00 1.000000e+00
    outer loop
      vertex   1.166778e+01 -1.547454e+00 3.028008e+02
      vertex   -1.361720e+01 -1.547454e+00 3.028008e+02
      vertex   1.149578e+01 -2.743733e+00 3.028008e+02
    endloop
  endfacet
  facet normal 0.000000e+00 0.000000e+00 1.000000e+00
    outer loop
      vertex   1.149578e+01 -2.743733e+00 3.028008e+02
      vertex   -1.361720e+01 -1.547454e+00 3.028008e+02
      vertex   -1.344520e+01 -2.743733e+00 3.028008e+02
    endloop
  endfacet
  facet normal 0.000000e+00 0.000000e+00 1.000000e+00
    outer loop
      vertex   1.149578e+01 -2.743733e+00 3.028008e+02
      vertex   -1.344520e+01 -2.743733e+00 3.028008e+02
      vertex   1.121085e+01 -3.918246e+00 3.028008e+02
    endloop
  endfacet
  facet normal 0.000000e+00 0.000000e+00 1.000000e+00
    outer loop
      vertex   1.121085e+01 -3.918246e+00 3.028008e+02
      vertex   -1.344520e+01 -2.743733e+00 3.028008e+02
      vertex   -1.316027e+01 -3.918246e+00 3.028008e+02
    endloop
  endfacet
  facet normal 0.000000e+00 0.000000e+00 1.000000e+00
    outer loop
      vertex   1.121085e+01 -3.918246e+00 3.028008e+02
      vertex   -1.316027e+01 -3.918246e+00 3.028008e+02
      vertex   1.081556e+01 -5.060355e+00 3.028008e+02
    endloop
  endfacet
  facet normal 0.000000e+00 0.000000e+00 1.000000e+00
    outer loop
      vertex   1.081556e+01 -5.060355e+00 3.028008e+02
      vertex   -1.316027e+01 -3.918246e+00 3.028008e+02
      vertex   -1.276498e+01 -5.060355e+00 3.028008e+02
    endloop
  endfacet
  facet normal 0.000000e+00 0.000000e+00 1.000000e+00
    outer loop
      vertex   1.081556e+01 -5.060355e+00 3.028008e+02
      vertex   -1.276498e+01 -5.060355e+00 3.028008e+02
      vertex   1.031350e+01 -6.159719e+00 3.028008e+02
    endloop
  endfacet
  facet normal 0.000000e+00 0.000000e+00 1.000000e+00
    outer loop
      vertex   1.031350e+01 -6.159719e+00 3.028008e+02
      vertex   -1.276498e+01 -5.060355e+00 3.028008e+02
      vertex   -1.226292e+01 -6.159719e+00 3.028008e+02
    endloop
  endfacet
  facet normal 0.000000e+00 0.000000e+00 1.000000e+00
    outer loop
      vertex   1.031350e+01 -6.159719e+00 3.028008e+02
      vertex   -1.226292e+01 -6.159719e+00 3.028008e+02
      vertex   9.709210e+00 -7.206381e+00 3.028008e+02
    endloop
  endfacet
  facet normal 0.000000e+00 0.000000e+00 1.000000e+00
    outer loop
      vertex   9.709210e+00 -7.206381e+00 3.028008e+02
      vertex   -1.226292e+01 -6.159719e+00 3.028008e+02
      vertex   -1.165863e+01 -7.206381e+00 3.028008e+02
    endloop
  endfacet
  facet normal 0.000000e+00 0.000000e+00 1.000000e+00
    outer loop
      vertex   9.709210e+00 -7.206381e+00 3.028008e+02
      vertex   -1.165863e+01 -7.206381e+00 3.028008e+02
      vertex   9.008164e+00 -8.190861e+00 3.028008e+02
    endloop
  endfacet
  facet normal 0.000000e+00 0.000000e+00 1.000000e+00
    outer loop
      vertex   9.008164e+00 -8.190861e+00 3.028008e+02
      vertex   -1.165863e+01 -7.206381e+00 3.028008e+02
      vertex   -1.095758e+01 -8.190861e+00 3.028008e+02
    endloop
  endfacet
  facet normal 0.000000e+00 0.000000e+00 1.000000e+00
    outer loop
      vertex   9.008164e+00 -8.190861e+00 3.028008e+02
      vertex   -1.095758e+01 -8.190861e+00 3.028008e+02
      vertex   8.216712e+00 -9.104246e+00 3.028008e+02
    endloop
  endfacet
  facet normal 0.000000e+00 0.000000e+00 1.000000e+00
    outer loop
      vertex   8.216712e+00 -9.104246e+00 3.028008e+02
      vertex   -1.095758e+01 -8.190861e+00 3.028008e+02
      vertex   -1.016613e+01 -9.104246e+00 3.028008e+02
    endloop
  endfacet
  facet normal 0.000000e+00 0.000000e+00 1.000000e+00
    outer loop
      vertex   8.216712e+00 -9.104246e+00 3.028008e+02
      vertex   -1.016613e+01 -9.104246e+00 3.028008e+02
      vertex   7.342021e+00 -9.938262e+00 3.028008e+02
    endloop
  endfacet
  facet normal 0.000000e+00 0.000000e+00 1.000000e+00
    outer loop
      vertex   7.342021e+00 -9.938262e+00 3.028008e+02
      vertex   -1.016613e+01 -9.104246e+00 3.028008e+02
      vertex   -9.291442e+00 -9.938262e+00 3.028008e+02
    endloop
  endfacet
  facet normal -2.437660e-29 7.608593e-14 1.000000e+00
    outer loop
      vertex   7.342021e+00 -9.938262e+00 3.028008e+02
      vertex   -9.291442e+00 -9.938262e+00 3.028008e+02
      vertex   6.392012e+00 -1.068536e+01 3.028008e+02
    endloop
  endfacet
  facet normal 0.000000e+00 7.608593e-14 1.000000e+00
    outer loop
      vertex   6.392012e+00 -1.068536e+01 3.028008e+02
      vertex   -9.291442e+00 -9.938262e+00 3.028008e+02
      vertex   -8.341433e+00 -1.068536e+01 3.028008e+02
    endloop
  endfacet
  facet normal 0.000000e+00 0.000000e+00 1.000000e+00
    outer loop
      vertex   6.392012e+00 -1.068536e+01 3.028008e+02
      vertex   -8.341433e+00 -1.068536e+01 3.028008e+02
      vertex   5.375290e+00 -1.133876e+01 3.028008e+02
    endloop
  endfacet
  facet normal 0.000000e+00 0.000000e+00 1.000000e+00
    outer loop
      vertex   5.375290e+00 -1.133876e+01 3.028008e+02
      vertex   -8.341433e+00 -1.068536e+01 3.028008e+02
      vertex   -7.324710e+00 -1.133876e+01 3.028008e+02
    endloop
  endfacet
  facet normal 0.000000e+00 0.000000e+00 1.000000e+00
    outer loop
      vertex   5.375290e+00 -1.133876e+01 3.028008e+02
      vertex   -7.324710e+00 -1.133876e+01 3.028008e+02
      vertex   4.301060e+00 -1.189257e+01 3.028008e+02
    endloop
  endfacet
  facet normal 0.000000e+00 0.000000e+00 1.000000e+00
    outer loop
      vertex   4.301060e+00 -1.189257e+01 3.028008e+02
      vertex   -7.324710e+00 -1.133876e+01 3.028008e+02
      vertex   -6.250481e+00 -1.189257e+01 3.028008e+02
    endloop
  endfacet
  facet normal 0.000000e+00 0.000000e+00 1.000000e+00
    outer loop
      vertex   4.301060e+00 -1.189257e+01 3.028008e+02
      vertex   -6.250481e+00 -1.189257e+01 3.028008e+02
      vertex   3.179053e+00 -1.234175e+01 3.028008e+02
    endloop
  endfacet
  facet normal 0.000000e+00 0.000000e+00 1.000000e+00
    outer loop
      vertex   3.179053e+00 -1.234175e+01 3.028008e+02
      vertex   -6.250481e+00 -1.189257e+01 3.028008e+02
      vertex   -5.128473e+00 -1.234175e+01 3.028008e+02
    endloop
  endfacet
  facet normal 0.000000e+00 0.000000e+00 1.000000e+00
    outer loop
      vertex   3.179053e+00 -1.234175e+01 3.028008e+02
      vertex   -5.128473e+00 -1.234175e+01 3.028008e+02
      vertex   2.019428e+00 -1.268225e+01 3.028008e+02
    endloop
  endfacet
  facet normal 0.000000e+00 0.000000e+00 1.000000e+00
    outer loop
      vertex   2.019428e+00 -1.268225e+01 3.028008e+02
      vertex   -5.128473e+00 -1.234175e+01 3.028008e+02
      vertex   -3.968849e+00 -1.268225e+01 3.028008e+02
    endloop
  endfacet
  facet normal 0.000000e+00 0.000000e+00 1.000000e+00
    outer loop
      vertex   2.019428e+00 -1.268225e+01 3.028008e+02
      vertex   -3.968849e+00 -1.268225e+01 3.028008e+02
      vertex   8.326882e-01 -1.291097e+01 3.028008e+02
    endloop
  endfacet
  facet normal 0.000000e+00 0.000000e+00 1.000000e+00
    outer loop
      vertex   8.326882e-01 -1.291097e+01 3.028008e+02
      vertex   -3.968849e+00 -1.268225e+01 3.028008e+02
      vertex   -2.782109e+00 -1.291097e+01 3.028008e+02
    endloop
  endfacet
  facet normal 0.000000e+00 0.000000e+00 1.000000e+00
    outer loop
      vertex   8.326882e-01 -1.291097e+01 3.028008e+02
      vertex   -2.782109e+00 -1.291097e+01 3.028008e+02
      vertex   -3.704199e-01 -1.302586e+01 3.028008e+02
    endloop
  endfacet
  facet normal 0.000000e+00 0.000000e+00 1.000000e+00
    outer loop
      vertex   -3.704199e-01 -1.302586e+01 3.028008e+02
      vertex   -2.782109e+00 -1.291097e+01 3.028008e+02
      vertex   -1.579001e+00 -1.302586e+01 3.028008e+02
    endloop
  endfacet
endsolid
