solid Camera
  facet normal -9.876883e-01 -1.564345e-01 4.724018e-16
    outer loop
      vertex   -1.305313e+01 -4.264758e+00 2.976008e+02
      vertex   -1.305313e+01 -4.264758e+00 3.026008e+02
      vertex   -1.367471e+01 -3.402422e-01 2.976008e+02
    endloop
  endfacet
  facet normal -9.876883e-01 -1.564345e-01 4.585077e-16
    outer loop
      vertex   -1.367471e+01 -3.402422e-01 2.976008e+02
      vertex   -1.305313e+01 -4.264758e+00 3.026008e+02
      vertex   -1.367471e+01 -3.402422e-01 3.026008e+02
    endloop
  endfacet
  facet normal -9.876883e-01 1.564345e-01 -4.585077e-16
    outer loop
      vertex   -1.367471e+01 -3.402422e-01 2.976008e+02
      vertex   -1.367471e+01 -3.402422e-01 3.026008e+02
      vertex   -1.305313e+01 3.584274e+00 2.976008e+02
    endloop
  endfacet
  facet normal -9.876883e-01 1.564345e-01 -4.585077e-16
    outer loop
      vertex   -1.305313e+01 3.584274e+00 2.976008e+02
      vertex   -1.367471e+01 -3.402422e-01 3.026008e+02
      vertex   -1.305313e+01 3.584274e+00 3.026008e+02
    endloop
  endfacet
  facet normal -8.910065e-01 4.539905e-01 -1.330641e-15
    outer loop
      vertex   -1.305313e+01 3.584274e+00 2.976008e+02
      vertex   -1.305313e+01 3.584274e+00 3.026008e+02
      vertex   -1.124923e+01 7.124630e+00 3.026008e+02
    endloop
  endfacet
  facet normal -8.910065e-01 -4.539905e-01 1.370964e-15
    outer loop
      vertex   -1.305313e+01 -4.264758e+00 2.976008e+02
      vertex   -1.124923e+01 -7.805115e+00 2.976008e+02
      vertex   -1.305313e+01 -4.264758e+00 3.026008e+02
    endloop
  endfacet
  facet normal -8.910065e-01 -4.539905e-01 1.251763e-15
    outer loop
      vertex   -1.305313e+01 -4.264758e+00 3.026008e+02
      vertex   -1.124923e+01 -7.805115e+00 2.976008e+02
      vertex   -1.124923e+01 -7.805115e+00 3.026008e+02
    endloop
  endfacet
  facet normal -7.071068e-01 -7.071068e-01 2.009718e-15
    outer loop
      vertex   -1.124923e+01 -7.805115e+00 3.026008e+02
      vertex   -1.124923e+01 -7.805115e+00 2.976008e+02
      vertex   -8.439583e+00 -1.061476e+01 2.976008e+02
    endloop
  endfacet
  facet normal -7.071068e-01 -7.071068e-01 2.011762e-15
    outer loop
      vertex   -1.124923e+01 -7.805115e+00 3.026008e+02
      vertex   -8.439583e+00 -1.061476e+01 2.976008e+02
      vertex   -8.439583e+00 -1.061476e+01 3.026008e+02
    endloop
  endfacet
  facet normal -4.539905e-01 -8.910065e-01 2.532393e-15
    outer loop
      vertex   -8.439583e+00 -1.061476e+01 3.026008e+02
      vertex   -8.439583e+00 -1.061476e+01 2.976008e+02
      vertex   -4.899226e+00 -1.241866e+01 2.976008e+02
    endloop
  endfacet
  facet normal -4.539905e-01 -8.910065e-01 2.816467e-15
    outer loop
      vertex   -8.439583e+00 -1.061476e+01 3.026008e+02
      vertex   -4.899226e+00 -1.241866e+01 2.976008e+02
      vertex   -4.899226e+00 -1.241866e+01 3.026008e+02
    endloop
  endfacet
  facet normal -1.564345e-01 -9.876883e-01 3.158076e-15
    outer loop
      vertex   -4.899226e+00 -1.241866e+01 3.026008e+02
      vertex   -4.899226e+00 -1.241866e+01 2.976008e+02
      vertex   -9.747103e-01 -1.304024e+01 2.976008e+02
    endloop
  endfacet
  facet normal -1.564345e-01 -9.876883e-01 3.174113e-15
    outer loop
      vertex   -4.899226e+00 -1.241866e+01 3.026008e+02
      vertex   -9.747103e-01 -1.304024e+01 2.976008e+02
      vertex   -9.747103e-01 -1.304024e+01 3.026008e+02
    endloop
  endfacet
  facet normal 1.564345e-01 -9.876883e-01 3.158076e-15
    outer loop
      vertex   -9.747103e-01 -1.304024e+01 3.026008e+02
      vertex   -9.747103e-01 -1.304024e+01 2.976008e+02
      vertex   2.949806e+00 -1.241866e+01 2.976008e+02
    endloop
  endfacet
  facet normal 1.564345e-01 -9.876883e-01 2.458820e-15
    outer loop
      vertex   -9.747103e-01 -1.304024e+01 3.026008e+02
      vertex   2.949806e+00 -1.241866e+01 2.976008e+02
      vertex   2.949806e+00 -1.241866e+01 3.026008e+02
    endloop
  endfacet
  facet normal 4.539905e-01 -8.910065e-01 2.215844e-15
    outer loop
      vertex   2.949806e+00 -1.241866e+01 3.026008e+02
      vertex   2.949806e+00 -1.241866e+01 2.976008e+02
      vertex   6.490162e+00 -1.061476e+01 2.976008e+02
    endloop
  endfacet
  facet normal 4.539905e-01 -8.910065e-01 2.190585e-15
    outer loop
      vertex   2.949806e+00 -1.241866e+01 3.026008e+02
      vertex   6.490162e+00 -1.061476e+01 2.976008e+02
      vertex   6.490162e+00 -1.061476e+01 3.026008e+02
    endloop
  endfacet
  facet normal 7.071068e-01 -7.071068e-01 1.758504e-15
    outer loop
      vertex   6.490162e+00 -1.061476e+01 3.026008e+02
      vertex   6.490162e+00 -1.061476e+01 2.976008e+02
      vertex   9.299806e+00 -7.805115e+00 2.976008e+02
    endloop
  endfacet
  facet normal 7.071068e-01 -7.071068e-01 2.279997e-15
    outer loop
      vertex   6.490162e+00 -1.061476e+01 3.026008e+02
      vertex   9.299806e+00 -7.805115e+00 2.976008e+02
      vertex   9.299806e+00 -7.805115e+00 3.026008e+02
    endloop
  endfacet
  facet normal 8.910065e-01 -4.539905e-01 1.451608e-15
    outer loop
      vertex   9.299806e+00 -7.805115e+00 3.026008e+02
      vertex   9.299806e+00 -7.805115e+00 2.976008e+02
      vertex   1.110371e+01 -4.264758e+00 2.976008e+02
    endloop
  endfacet
  facet normal 8.910065e-01 -4.539905e-01 1.296469e-15
    outer loop
      vertex   9.299806e+00 -7.805115e+00 3.026008e+02
      vertex   1.110371e+01 -4.264758e+00 2.976008e+02
      vertex   1.110371e+01 -4.264758e+00 3.026008e+02
    endloop
  endfacet
  facet normal 9.876883e-01 -1.564345e-01 4.446135e-16
    outer loop
      vertex   1.110371e+01 -4.264758e+00 3.026008e+02
      vertex   1.110371e+01 -4.264758e+00 2.976008e+02
      vertex   1.172529e+01 -3.402422e-01 2.976008e+02
    endloop
  endfacet
  facet normal 9.876883e-01 -1.564345e-01 4.470582e-16
    outer loop
      vertex   1.110371e+01 -4.264758e+00 3.026008e+02
      vertex   1.172529e+01 -3.402422e-01 2.976008e+02
      vertex   1.172529e+01 -3.402422e-01 3.026008e+02
    endloop
  endfacet
  facet normal 9.876883e-01 1.564345e-01 -4.602444e-16
    outer loop
      vertex   1.172529e+01 -3.402422e-01 3.026008e+02
      vertex   1.172529e+01 -3.402422e-01 2.976008e+02
      vertex   1.110371e+01 3.584274e+00 2.976008e+02
    endloop
  endfacet
  facet normal 9.876883e-01 1.564345e-01 -4.470582e-16
    outer loop
      vertex   1.172529e+01 -3.402422e-01 3.026008e+02
      vertex   1.110371e+01 3.584274e+00 2.976008e+02
      vertex   1.110371e+01 3.584274e+00 3.026008e+02
    endloop
  endfacet
  facet normal 8.910065e-01 4.539905e-01 -1.290319e-15
    outer loop
      vertex   1.110371e+01 3.584274e+00 3.026008e+02
      vertex   1.110371e+01 3.584274e+00 2.976008e+02
      vertex   9.299806e+00 7.124630e+00 2.976008e+02
    endloop
  endfacet
  facet normal 8.910065e-01 4.539905e-01 -1.475292e-15
    outer loop
      vertex   1.110371e+01 3.584274e+00 3.026008e+02
      vertex   9.299806e+00 7.124630e+00 2.976008e+02
      vertex   9.299806e+00 7.124630e+00 3.026008e+02
    endloop
  endfacet
  facet normal 7.071068e-01 7.071068e-01 -2.260933e-15
    outer loop
      vertex   9.299806e+00 7.124630e+00 3.026008e+02
      vertex   9.299806e+00 7.124630e+00 2.976008e+02
      vertex   6.490162e+00 9.934274e+00 2.976008e+02
    endloop
  endfacet
  facet normal 7.071068e-01 7.071068e-01 -2.011762e-15
    outer loop
      vertex   9.299806e+00 7.124630e+00 3.026008e+02
      vertex   6.490162e+00 9.934274e+00 2.976008e+02
      vertex   6.490162e+00 9.934274e+00 3.026008e+02
    endloop
  endfacet
  facet normal 4.539905e-01 8.910065e-01 -2.532393e-15
    outer loop
      vertex   6.490162e+00 9.934274e+00 3.026008e+02
      vertex   6.490162e+00 9.934274e+00 2.976008e+02
      vertex   2.949806e+00 1.173818e+01 2.976008e+02
    endloop
  endfacet
  facet normal 4.539905e-01 8.910065e-01 -2.503526e-15
    outer loop
      vertex   6.490162e+00 9.934274e+00 3.026008e+02
      vertex   2.949806e+00 1.173818e+01 2.976008e+02
      vertex   2.949806e+00 1.173818e+01 3.026008e+02
    endloop
  endfacet
  facet normal 1.564345e-01 9.876883e-01 -2.807179e-15
    outer loop
      vertex   2.949806e+00 1.173818e+01 3.026008e+02
      vertex   2.949806e+00 1.173818e+01 2.976008e+02
      vertex   -9.747103e-01 1.235976e+01 2.976008e+02
    endloop
  endfacet
  facet normal 1.564345e-01 9.876883e-01 -3.151760e-15
    outer loop
      vertex   2.949806e+00 1.173818e+01 3.026008e+02
      vertex   -9.747103e-01 1.235976e+01 2.976008e+02
      vertex   -9.747103e-01 1.235976e+01 3.026008e+02
    endloop
  endfacet
  facet normal -1.564345e-01 9.876883e-01 -3.154603e-15
    outer loop
      vertex   -9.747103e-01 1.235976e+01 3.026008e+02
      vertex   -9.747103e-01 1.235976e+01 2.976008e+02
      vertex   -4.899226e+00 1.173818e+01 2.976008e+02
    endloop
  endfacet
  facet normal -1.564345e-01 9.876883e-01 -3.151760e-15
    outer loop
      vertex   -9.747103e-01 1.235976e+01 3.026008e+02
      vertex   -4.899226e+00 1.173818e+01 2.976008e+02
      vertex   -4.899226e+00 1.173818e+01 3.026008e+02
    endloop
  endfacet
  facet normal -4.539905e-01 8.910065e-01 -2.848942e-15
    outer loop
      vertex   -4.899226e+00 1.173818e+01 3.026008e+02
      vertex   -4.899226e+00 1.173818e+01 2.976008e+02
      vertex   -8.439583e+00 9.934274e+00 2.976008e+02
    endloop
  endfacet
  facet normal -4.539905e-01 8.910065e-01 -2.861172e-15
    outer loop
      vertex   -4.899226e+00 1.173818e+01 3.026008e+02
      vertex   -8.439583e+00 9.934274e+00 2.976008e+02
      vertex   -8.439583e+00 9.934274e+00 3.026008e+02
    endloop
  endfacet
  facet normal -7.071068e-01 7.071068e-01 -2.260933e-15
    outer loop
      vertex   -8.439583e+00 9.934274e+00 3.026008e+02
      vertex   -8.439583e+00 9.934274e+00 2.976008e+02
      vertex   -1.124923e+01 7.124630e+00 2.976008e+02
    endloop
  endfacet
  facet normal -7.071068e-01 7.071068e-01 -2.145879e-15
    outer loop
      vertex   -8.439583e+00 9.934274e+00 3.026008e+02
      vertex   -1.124923e+01 7.124630e+00 2.976008e+02
      vertex   -1.124923e+01 7.124630e+00 3.026008e+02
    endloop
  endfacet
  facet normal -8.910065e-01 4.539905e-01 -1.370964e-15
    outer loop
      vertex   -1.124923e+01 7.124630e+00 3.026008e+02
      vertex   -1.124923e+01 7.124630e+00 2.976008e+02
      vertex   -1.305313e+01 3.584274e+00 2.976008e+02
    endloop
  endfacet
  facet normal 0.000000e+00 -0.000000e+00 -1.000000e+00
    outer loop
      vertex   -1.305313e+01 3.584274e+00 2.976008e+02
      vertex   1.110371e+01 3.584274e+00 2.976008e+02
      vertex   -1.367471e+01 -3.402422e-01 2.976008e+02
    endloop
  endfacet
  facet normal 0.000000e+00 0.000000e+00 -1.000000e+00
    outer loop
      vertex   -1.367471e+01 -3.402422e-01 2.976008e+02
      vertex   1.110371e+01 3.584274e+00 2.976008e+02
      vertex   1.172529e+01 -3.402422e-01 2.976008e+02
    endloop
  endfacet
  facet normal 0.000000e+00 0.000000e+00 -1.000000e+00
    outer loop
      vertex   -1.367471e+01 -3.402422e-01 2.976008e+02
      vertex   1.172529e+01 -3.402422e-01 2.976008e+02
      vertex   -1.305313e+01 -4.264758e+00 2.976008e+02
    endloop
  endfacet
  facet normal 0.000000e+00 0.000000e+00 -1.000000e+00
    outer loop
      vertex   -1.305313e+01 -4.264758e+00 2.976008e+02
      vertex   1.172529e+01 -3.402422e-01 2.976008e+02
      vertex   1.110371e+01 -4.264758e+00 2.976008e+02
    endloop
  endfacet
  facet normal 0.000000e+00 0.000000e+00 -1.000000e+00
    outer loop
      vertex   -1.305313e+01 -4.264758e+00 2.976008e+02
      vertex   1.110371e+01 -4.264758e+00 2.976008e+02
      vertex   -1.124923e+01 -7.805115e+00 2.976008e+02
    endloop
  endfacet
  facet normal 0.000000e+00 0.000000e+00 -1.000000e+00
    outer loop
      vertex   -1.124923e+01 -7.805115e+00 2.976008e+02
      vertex   1.110371e+01 -4.264758e+00 2.976008e+02
      vertex   9.299806e+00 -7.805115e+00 2.976008e+02
    endloop
  endfacet
  facet normal 0.000000e+00 0.000000e+00 -1.000000e+00
    outer loop
      vertex   -1.124923e+01 -7.805115e+00 2.976008e+02
      vertex   9.299806e+00 -7.805115e+00 2.976008e+02
      vertex   -8.439583e+00 -1.061476e+01 2.976008e+02
    endloop
  endfacet
  facet normal 0.000000e+00 0.000000e+00 -1.000000e+00
    outer loop
      vertex   -8.439583e+00 -1.061476e+01 2.976008e+02
      vertex   9.299806e+00 -7.805115e+00 2.976008e+02
      vertex   6.490162e+00 -1.061476e+01 2.976008e+02
    endloop
  endfacet
  facet normal 3.749256e-30 -3.151137e-14 -1.000000e+00
    outer loop
      vertex   -8.439583e+00 -1.061476e+01 2.976008e+02
      vertex   6.490162e+00 -1.061476e+01 2.976008e+02
      vertex   -4.899226e+00 -1.241866e+01 2.976008e+02
    endloop
  endfacet
  facet normal 2.139453e-29 -3.151137e-14 -1.000000e+00
    outer loop
      vertex   -4.899226e+00 -1.241866e+01 2.976008e+02
      vertex   6.490162e+00 -1.061476e+01 2.976008e+02
      vertex   2.949806e+00 -1.241866e+01 2.976008e+02
    endloop
  endfacet
  facet normal 0.000000e+00 0.000000e+00 -1.000000e+00
    outer loop
      vertex   -4.899226e+00 -1.241866e+01 2.976008e+02
      vertex   2.949806e+00 -1.241866e+01 2.976008e+02
      vertex   -9.747103e-01 -1.304024e+01 2.976008e+02
    endloop
  endfacet
  facet normal -0.000000e+00 0.000000e+00 -1.000000e+00
    outer loop
      vertex   1.110371e+01 3.584274e+00 2.976008e+02
      vertex   -1.305313e+01 3.584274e+00 2.976008e+02
      vertex   9.299806e+00 7.124630e+00 2.976008e+02
    endloop
  endfacet
  facet normal -0.000000e+00 0.000000e+00 -1.000000e+00
    outer loop
      vertex   9.299806e+00 7.124630e+00 2.976008e+02
      vertex   -1.305313e+01 3.584274e+00 2.976008e+02
      vertex   -1.124923e+01 7.124630e+00 2.976008e+02
    endloop
  endfacet
  facet normal -0.000000e+00 -2.023154e-14 -1.000000e+00
    outer loop
      vertex   9.299806e+00 7.124630e+00 2.976008e+02
      vertex   -1.124923e+01 7.124630e+00 2.976008e+02
      vertex   6.490162e+00 9.934274e+00 2.976008e+02
    endloop
  endfacet
  facet normal 2.407170e-30 -2.023154e-14 -1.000000e+00
    outer loop
      vertex   6.490162e+00 9.934274e+00 2.976008e+02
      vertex   -1.124923e+01 7.124630e+00 2.976008e+02
      vertex   -8.439583e+00 9.934274e+00 2.976008e+02
    endloop
  endfacet
  facet normal -0.000000e+00 0.000000e+00 -1.000000e+00
    outer loop
      vertex   6.490162e+00 9.934274e+00 2.976008e+02
      vertex   -8.439583e+00 9.934274e+00 2.976008e+02
      vertex   2.949806e+00 1.173818e+01 2.976008e+02
    endloop
  endfacet
  facet normal -0.000000e+00 0.000000e+00 -1.000000e+00
    outer loop
      vertex   2.949806e+00 1.173818e+01 2.976008e+02
      vertex   -8.439583e+00 9.934274e+00 2.976008e+02
      vertex   -4.899226e+00 1.173818e+01 2.976008e+02
    endloop
  endfacet
  facet normal 0.000000e+00 0.000000e+00 -1.000000e+00
    outer loop
      vertex   2.949806e+00 1.173818e+01 2.976008e+02
      vertex   -4.899226e+00 1.173818e+01 2.976008e+02
      vertex   -9.747103e-01 1.235976e+01 2.976008e+02
    endloop
  endfacet
  facet normal 0.000000e+00 -0.000000e+00 1.000000e+00
    outer loop
      vertex   -1.305313e+01 -4.264758e+00 3.026008e+02
      vertex   1.110371e+01 -4.264758e+00 3.026008e+02
      vertex   -1.367471e+01 -3.402422e-01 3.026008e+02
    endloop
  endfacet
  facet normal -0.000000e+00 0.000000e+00 1.000000e+00
    outer loop
      vertex   -1.367471e+01 -3.402422e-01 3.026008e+02
      vertex   1.110371e+01 -4.264758e+00 3.026008e+02
      vertex   1.172529e+01 -3.402422e-01 3.026008e+02
    endloop
  endfacet
  facet normal 0.000000e+00 0.000000e+00 1.000000e+00
    outer loop
      vertex   -1.367471e+01 -3.402422e-01 3.026008e+02
      vertex   1.172529e+01 -3.402422e-01 3.026008e+02
      vertex   -1.305313e+01 3.584274e+00 3.026008e+02
    endloop
  endfacet
  facet normal -0.000000e+00 0.000000e+00 1.000000e+00
    outer loop
      vertex   -1.305313e+01 3.584274e+00 3.026008e+02
      vertex   1.172529e+01 -3.402422e-01 3.026008e+02
      vertex   1.110371e+01 3.584274e+00 3.026008e+02
    endloop
  endfacet
  facet normal 0.000000e+00 0.000000e+00 1.000000e+00
    outer loop
      vertex   -1.305313e+01 3.584274e+00 3.026008e+02
      vertex   1.110371e+01 3.584274e+00 3.026008e+02
      vertex   -1.124923e+01 7.124630e+00 3.026008e+02
    endloop
  endfacet
  facet normal -0.000000e+00 0.000000e+00 1.000000e+00
    outer loop
      vertex   -1.124923e+01 7.124630e+00 3.026008e+02
      vertex   1.110371e+01 3.584274e+00 3.026008e+02
      vertex   9.299806e+00 7.124630e+00 3.026008e+02
    endloop
  endfacet
  facet normal -8.744558e-31 2.023154e-14 1.000000e+00
    outer loop
      vertex   -1.124923e+01 7.124630e+00 3.026008e+02
      vertex   9.299806e+00 7.124630e+00 3.026008e+02
      vertex   -8.439583e+00 9.934274e+00 3.026008e+02
    endloop
  endfacet
  facet normal -0.000000e+00 2.023154e-14 1.000000e+00
    outer loop
      vertex   -8.439583e+00 9.934274e+00 3.026008e+02
      vertex   9.299806e+00 7.124630e+00 3.026008e+02
      vertex   6.490162e+00 9.934274e+00 3.026008e+02
    endloop
  endfacet
  facet normal 0.000000e+00 0.000000e+00 1.000000e+00
    outer loop
      vertex   -8.439583e+00 9.934274e+00 3.026008e+02
      vertex   6.490162e+00 9.934274e+00 3.026008e+02
      vertex   -4.899226e+00 1.173818e+01 3.026008e+02
    endloop
  endfacet
  facet normal 0.000000e+00 0.000000e+00 1.000000e+00
    outer loop
      vertex   -4.899226e+00 1.173818e+01 3.026008e+02
      vertex   6.490162e+00 9.934274e+00 3.026008e+02
      vertex   2.949806e+00 1.173818e+01 3.026008e+02
    endloop
  endfacet
  facet normal -0.000000e+00 0.000000e+00 1.000000e+00
    outer loop
      vertex   -4.899226e+00 1.173818e+01 3.026008e+02
      vertex   2.949806e+00 1.173818e+01 3.026008e+02
      vertex   -9.747103e-01 1.235976e+01 3.026008e+02
    endloop
  endfacet
  facet normal 0.000000e+00 0.000000e+00 1.000000e+00
    outer loop
      vertex   1.110371e+01 -4.264758e+00 3.026008e+02
      vertex   -1.305313e+01 -4.264758e+00 3.026008e+02
      vertex   9.299806e+00 -7.805115e+00 3.026008e+02
    endloop
  endfacet
  facet normal 0.000000e+00 0.000000e+00 1.000000e+00
    outer loop
      vertex   9.299806e+00 -7.805115e+00 3.026008e+02
      vertex   -1.305313e+01 -4.264758e+00 3.026008e+02
      vertex   -1.124923e+01 -7.805115e+00 3.026008e+02
    endloop
  endfacet
  facet normal -3.497823e-30 2.023154e-14 1.000000e+00
    outer loop
      vertex   9.299806e+00 -7.805115e+00 3.026008e+02
      vertex   -1.124923e+01 -7.805115e+00 3.026008e+02
      vertex   6.490162e+00 -1.061476e+01 3.026008e+02
    endloop
  endfacet
  facet normal 0.000000e+00 2.023154e-14 1.000000e+00
    outer loop
      vertex   6.490162e+00 -1.061476e+01 3.026008e+02
      vertex   -1.124923e+01 -7.805115e+00 3.026008e+02
      vertex   -8.439583e+00 -1.061476e+01 3.026008e+02
    endloop
  endfacet
  facet normal 0.000000e+00 0.000000e+00 1.000000e+00
    outer loop
      vertex   6.490162e+00 -1.061476e+01 3.026008e+02
      vertex   -8.439583e+00 -1.061476e+01 3.026008e+02
      vertex   2.949806e+00 -1.241866e+01 3.026008e+02
    endloop
  endfacet
  facet normal 0.000000e+00 0.000000e+00 1.000000e+00
    outer loop
      vertex   2.949806e+00 -1.241866e+01 3.026008e+02
      vertex   -8.439583e+00 -1.061476e+01 3.026008e+02
      vertex   -4.899226e+00 -1.241866e+01 3.026008e+02
    endloop
  endfacet
  facet normal 0.000000e+00 0.000000e+00 1.000000e+00
    outer loop
      vertex   2.949806e+00 -1.241866e+01 3.026008e+02
      vertex   -4.899226e+00 -1.241866e+01 3.026008e+02
      vertex   -9.747103e-01 -1.304024e+01 3.026008e+02
    endloop
  endfacet
endsolid
