solid CathodeVacuum
  facet normal -5.304432e-15 -1.948909e-15 -1.000000e+00
    outer loop
      vertex   -1.845162e+01 -4.166110e+00 2.429708e+02
      vertex   -1.301657e+01 -4.375543e+00 2.429708e+02
      vertex   -1.677132e+01 -8.739451e+00 2.429708e+02
    endloop
  endfacet
  facet normal -4.678404e-15 -2.487551e-15 -1.000000e+00
    outer loop
      vertex   -1.677132e+01 -8.739451e+00 2.429708e+02
      vertex   -1.301657e+01 -4.375543e+00 2.429708e+02
      vertex   -1.105385e+01 -8.066884e+00 2.429708e+02
    endloop
  endfacet
  facet normal -4.581920e-15 -3.307757e-15 -1.000000e+00
    outer loop
      vertex   -1.677132e+01 -8.739451e+00 2.429708e+02
      vertex   -1.105385e+01 -8.066884e+00 2.429708e+02
      vertex   -1.391946e+01 -1.268986e+01 2.429708e+02
    endloop
  endfacet
  facet normal -3.637266e-15 -3.893314e-15 -1.000000e+00
    outer loop
      vertex   -1.391946e+01 -1.268986e+01 2.429708e+02
      vertex   -1.105385e+01 -8.066884e+00 2.429708e+02
      vertex   -7.998896e+00 -1.092092e+01 2.429708e+02
    endloop
  endfacet
  facet normal -1.455719e-15 -1.119487e-14 -1.000000e+00
    outer loop
      vertex   -1.391946e+01 -1.268986e+01 2.429708e+02
      vertex   -7.998896e+00 -1.092092e+01 2.429708e+02
      vertex   -1.010755e+01 -1.572436e+01 2.429708e+02
    endloop
  endfacet
  facet normal 1.799463e-15 -1.262386e-14 -1.000000e+00
    outer loop
      vertex   -1.010755e+01 -1.572436e+01 2.429708e+02
      vertex   -7.998896e+00 -1.092092e+01 2.429708e+02
      vertex   -4.182764e+00 -1.262838e+01 2.429708e+02
    endloop
  endfacet
  facet normal -2.142632e-15 -5.079847e-15 -1.000000e+00
    outer loop
      vertex   -1.010755e+01 -1.572436e+01 2.429708e+02
      vertex   -4.182764e+00 -1.262838e+01 2.429708e+02
      vertex   -5.618295e+00 -1.761788e+01 2.429708e+02
    endloop
  endfacet
  facet normal -6.960082e-16 -5.496056e-15 -1.000000e+00
    outer loop
      vertex   -5.618295e+00 -1.761788e+01 2.429708e+02
      vertex   -4.182764e+00 -1.262838e+01 2.429708e+02
      vertex   -7.846469e-01 -1.823000e+01 2.429708e+02
    endloop
  endfacet
  facet normal -4.845279e-16 -5.367765e-15 -1.000000e+00
    outer loop
      vertex   -7.846469e-01 -1.823000e+01 2.429708e+02
      vertex   -4.182764e+00 -1.262838e+01 2.429708e+02
      vertex   -1.899047e-02 -1.300423e+01 2.429708e+02
    endloop
  endfacet
  facet normal 8.244111e-16 -5.559545e-15 -1.000000e+00
    outer loop
      vertex   -7.846469e-01 -1.823000e+01 2.429708e+02
      vertex   -1.899047e-02 -1.300423e+01 2.429708e+02
      vertex   4.034905e+00 -1.751533e+01 2.429708e+02
    endloop
  endfacet
  facet normal 7.002034e-15 -8.023598e-18 -1.000000e+00
    outer loop
      vertex   4.034905e+00 -1.751533e+01 2.429708e+02
      vertex   -1.899047e-02 -1.300423e+01 2.429708e+02
      vertex   4.041216e+00 -1.200774e+01 2.429708e+02
    endloop
  endfacet
  facet normal 0.000000e+00 0.000000e+00 -1.000000e+00
    outer loop
      vertex   4.034905e+00 -1.751533e+01 2.429708e+02
      vertex   4.041216e+00 -1.200774e+01 2.429708e+02
      vertex   8.482917e+00 -1.552685e+01 2.429708e+02
    endloop
  endfacet
  facet normal 0.000000e+00 0.000000e+00 -1.000000e+00
    outer loop
      vertex   8.482917e+00 -1.552685e+01 2.429708e+02
      vertex   4.041216e+00 -1.200774e+01 2.429708e+02
      vertex   7.557870e+00 -9.746893e+00 2.429708e+02
    endloop
  endfacet
  facet normal 0.000000e+00 0.000000e+00 -1.000000e+00
    outer loop
      vertex   8.482917e+00 -1.552685e+01 2.429708e+02
      vertex   7.557870e+00 -9.746893e+00 2.429708e+02
      vertex   1.222950e+01 -1.241205e+01 2.429708e+02
    endloop
  endfacet
  facet normal 3.407172e-15 5.972273e-15 -1.000000e+00
    outer loop
      vertex   1.222950e+01 -1.241205e+01 2.429708e+02
      vertex   7.557870e+00 -9.746893e+00 2.429708e+02
      vertex   1.014989e+01 -6.466691e+00 2.429708e+02
    endloop
  endfacet
  facet normal -4.597215e-15 3.172436e-15 -1.000000e+00
    outer loop
      vertex   1.222950e+01 -1.241205e+01 2.429708e+02
      vertex   1.014989e+01 -6.466691e+00 2.429708e+02
      vertex   1.499679e+01 -8.401942e+00 2.429708e+02
    endloop
  endfacet
  facet normal -5.142142e-15 1.807649e-15 -1.000000e+00
    outer loop
      vertex   1.499679e+01 -8.401942e+00 2.429708e+02
      vertex   1.014989e+01 -6.466691e+00 2.429708e+02
      vertex   1.153638e+01 -2.522593e+00 2.429708e+02
    endloop
  endfacet
  facet normal -5.186594e-15 1.781486e-15 -1.000000e+00
    outer loop
      vertex   1.499679e+01 -8.401942e+00 2.429708e+02
      vertex   1.153638e+01 -2.522593e+00 2.429708e+02
      vertex   1.657954e+01 -3.793934e+00 2.429708e+02
    endloop
  endfacet
  facet normal -7.006710e-15 -5.438558e-15 -1.000000e+00
    outer loop
      vertex   1.657954e+01 -3.793934e+00 2.429708e+02
      vertex   1.153638e+01 -2.522593e+00 2.429708e+02
      vertex   1.686038e+01 1.070219e+00 2.429708e+02
    endloop
  endfacet
  facet normal -6.119328e-15 -6.753523e-15 -1.000000e+00
    outer loop
      vertex   1.686038e+01 1.070219e+00 2.429708e+02
      vertex   1.153638e+01 -2.522593e+00 2.429708e+02
      vertex   1.156710e+01 1.657997e+00 2.429708e+02
    endloop
  endfacet
  facet normal -5.503172e-15 -1.204699e-15 -1.000000e+00
    outer loop
      vertex   1.686038e+01 1.070219e+00 2.429708e+02
      vertex   1.156710e+01 1.657997e+00 2.429708e+02
      vertex   1.581847e+01 5.829764e+00 2.429708e+02
    endloop
  endfacet
  facet normal -5.030971e-15 -1.685909e-15 -1.000000e+00
    outer loop
      vertex   1.581847e+01 5.829764e+00 2.429708e+02
      vertex   1.156710e+01 1.657997e+00 2.429708e+02
      vertex   1.023872e+01 5.622047e+00 2.429708e+02
    endloop
  endfacet
  facet normal -4.994865e-15 -2.655817e-15 -1.000000e+00
    outer loop
      vertex   1.581847e+01 5.829764e+00 2.429708e+02
      vertex   1.023872e+01 5.622047e+00 2.429708e+02
      vertex   1.353108e+01 1.013171e+01 2.429708e+02
    endloop
  endfacet
  facet normal -4.210966e-15 -3.228116e-15 -1.000000e+00
    outer loop
      vertex   1.353108e+01 1.013171e+01 2.429708e+02
      vertex   1.023872e+01 5.622047e+00 2.429708e+02
      vertex   7.695197e+00 8.939990e+00 2.429708e+02
    endloop
  endfacet
  facet normal -4.076075e-15 -3.888678e-15 -1.000000e+00
    outer loop
      vertex   1.353108e+01 1.013171e+01 2.429708e+02
      vertex   7.695197e+00 8.939990e+00 2.429708e+02
      vertex   1.016787e+01 1.365700e+01 2.429708e+02
    endloop
  endfacet
  facet normal 3.086017e-15 -7.643073e-15 -1.000000e+00
    outer loop
      vertex   1.016787e+01 1.365700e+01 2.429708e+02
      vertex   7.695197e+00 8.939990e+00 2.429708e+02
      vertex   4.212151e+00 1.125228e+01 2.429708e+02
    endloop
  endfacet
  facet normal 2.746180e-15 -6.801406e-15 -1.000000e+00
    outer loop
      vertex   1.016787e+01 1.365700e+01 2.429708e+02
      vertex   4.212151e+00 1.125228e+01 2.429708e+02
      vertex   5.978262e+00 1.614417e+01 2.429708e+02
    endloop
  endfacet
  facet normal -1.423387e-15 -5.296075e-15 -1.000000e+00
    outer loop
      vertex   5.978262e+00 1.614417e+01 2.429708e+02
      vertex   4.212151e+00 1.125228e+01 2.429708e+02
      vertex   1.272986e+00 1.740877e+01 2.429708e+02
    endloop
  endfacet
  facet normal -1.376840e-15 -5.273853e-15 -1.000000e+00
    outer loop
      vertex   1.272986e+00 1.740877e+01 2.429708e+02
      vertex   4.212151e+00 1.125228e+01 2.429708e+02
      vertex   1.670287e-01 1.230833e+01 2.429708e+02
    endloop
  endfacet
  facet normal 5.933869e-17 -5.585268e-15 -1.000000e+00
    outer loop
      vertex   1.272986e+00 1.740877e+01 2.429708e+02
      vertex   1.670287e-01 1.230833e+01 2.429708e+02
      vertex   -3.598992e+00 1.735701e+01 2.429708e+02
    endloop
  endfacet
  facet normal 6.856505e-15 -5.149792e-16 -1.000000e+00
    outer loop
      vertex   -3.598992e+00 1.735701e+01 2.429708e+02
      vertex   1.670287e-01 1.230833e+01 2.429708e+02
      vertex   -4.001819e+00 1.199372e+01 2.429708e+02
    endloop
  endfacet
  facet normal 0.000000e+00 0.000000e+00 -1.000000e+00
    outer loop
      vertex   -3.598992e+00 1.735701e+01 2.429708e+02
      vertex   -4.001819e+00 1.199372e+01 2.429708e+02
      vertex   -8.276339e+00 1.599273e+01 2.429708e+02
    endloop
  endfacet
  facet normal 0.000000e+00 0.000000e+00 -1.000000e+00
    outer loop
      vertex   -8.276339e+00 1.599273e+01 2.429708e+02
      vertex   -4.001819e+00 1.199372e+01 2.429708e+02
      vertex   -7.842633e+00 1.034253e+01 2.429708e+02
    endloop
  endfacet
  facet normal 0.000000e+00 -0.000000e+00 -1.000000e+00
    outer loop
      vertex   -8.276339e+00 1.599273e+01 2.429708e+02
      vertex   -7.842633e+00 1.034253e+01 2.429708e+02
      vertex   -1.241216e+01 1.341710e+01 2.429708e+02
    endloop
  endfacet
  facet normal 3.908836e-15 5.809436e-15 -1.000000e+00
    outer loop
      vertex   -1.241216e+01 1.341710e+01 2.429708e+02
      vertex   -7.842633e+00 1.034253e+01 2.429708e+02
      vertex   -1.093920e+01 7.533698e+00 2.429708e+02
    endloop
  endfacet
  facet normal -4.148067e-15 3.792326e-15 -1.000000e+00
    outer loop
      vertex   -1.241216e+01 1.341710e+01 2.429708e+02
      vertex   -1.093920e+01 7.533698e+00 2.429708e+02
      vertex   -1.569971e+01 9.821156e+00 2.429708e+02
    endloop
  endfacet
  facet normal -4.721024e-15 2.599924e-15 -1.000000e+00
    outer loop
      vertex   -1.569971e+01 9.821156e+00 2.429708e+02
      vertex   -1.093920e+01 7.533698e+00 2.429708e+02
      vertex   -1.295596e+01 3.871601e+00 2.429708e+02
    endloop
  endfacet
  facet normal -4.945640e-15 2.496338e-15 -1.000000e+00
    outer loop
      vertex   -1.569971e+01 9.821156e+00 2.429708e+02
      vertex   -1.295596e+01 3.871601e+00 2.429708e+02
      vertex   -1.789518e+01 5.471585e+00 2.429708e+02
    endloop
  endfacet
  facet normal -5.409529e-15 1.064292e-15 -1.000000e+00
    outer loop
      vertex   -1.789518e+01 5.471585e+00 2.429708e+02
      vertex   -1.295596e+01 3.871601e+00 2.429708e+02
      vertex   -1.883574e+01 6.909780e-01 2.429708e+02
    endloop
  endfacet
  facet normal -1.215473e-15 -6.688941e-15 -1.000000e+00
    outer loop
      vertex   -1.883574e+01 6.909780e-01 2.429708e+02
      vertex   -1.295596e+01 3.871601e+00 2.429708e+02
      vertex   -1.367437e+01 -2.469139e-01 2.429708e+02
    endloop
  endfacet
  facet normal -1.078818e-15 -5.936911e-15 -1.000000e+00
    outer loop
      vertex   -1.883574e+01 6.909780e-01 2.429708e+02
      vertex   -1.367437e+01 -2.469139e-01 2.429708e+02
      vertex   -1.845162e+01 -4.166110e+00 2.429708e+02
    endloop
  endfacet
  facet normal -5.261637e-15 -8.383167e-16 -1.000000e+00
    outer loop
      vertex   -1.845162e+01 -4.166110e+00 2.429708e+02
      vertex   -1.367437e+01 -2.469139e-01 2.429708e+02
      vertex   -1.301657e+01 -4.375543e+00 2.429708e+02
    endloop
  endfacet
  facet normal -8.107974e-01 -5.853269e-01 3.935529e-16
    outer loop
      vertex   -1.391946e+01 -1.268986e+01 2.429708e+02
      vertex   -1.391946e+01 -1.268986e+01 3.229708e+02
      vertex   -1.677132e+01 -8.739451e+00 2.429708e+02
    endloop
  endfacet
  facet normal -8.107974e-01 -5.853269e-01 4.555533e-16
    outer loop
      vertex   -1.677132e+01 -8.739451e+00 2.429708e+02
      vertex   -1.391946e+01 -1.268986e+01 3.229708e+02
      vertex   -1.677132e+01 -8.739451e+00 3.229708e+02
    endloop
  endfacet
  facet normal -9.386501e-01 -3.448709e-01 -1.819212e-16
    outer loop
      vertex   -1.677132e+01 -8.739451e+00 2.429708e+02
      vertex   -1.677132e+01 -8.739451e+00 3.229708e+02
      vertex   -1.845162e+01 -4.166110e+00 2.429708e+02
    endloop
  endfacet
  facet normal -9.386501e-01 -3.448709e-01 -2.427498e-16
    outer loop
      vertex   -1.845162e+01 -4.166110e+00 2.429708e+02
      vertex   -1.677132e+01 -8.739451e+00 3.229708e+02
      vertex   -1.845162e+01 -4.166110e+00 3.229708e+02
    endloop
  endfacet
  facet normal -9.968875e-01 -7.883734e-02 -8.545505e-16
    outer loop
      vertex   -1.845162e+01 -4.166110e+00 2.429708e+02
      vertex   -1.845162e+01 -4.166110e+00 3.229708e+02
      vertex   -1.883574e+01 6.909780e-01 2.429708e+02
    endloop
  endfacet
  facet normal -9.968875e-01 -7.883734e-02 -8.104986e-16
    outer loop
      vertex   -1.883574e+01 6.909780e-01 2.429708e+02
      vertex   -1.845162e+01 -4.166110e+00 3.229708e+02
      vertex   -1.883574e+01 6.909780e-01 3.229708e+02
    endloop
  endfacet
  facet normal -9.811903e-01 1.930432e-01 -1.358864e-15
    outer loop
      vertex   -1.883574e+01 6.909780e-01 2.429708e+02
      vertex   -1.883574e+01 6.909780e-01 3.229708e+02
      vertex   -1.789518e+01 5.471585e+00 2.429708e+02
    endloop
  endfacet
  facet normal -9.811903e-01 1.930432e-01 -1.402973e-15
    outer loop
      vertex   -1.789518e+01 5.471585e+00 2.429708e+02
      vertex   -1.883574e+01 6.909780e-01 3.229708e+02
      vertex   -1.789518e+01 5.471585e+00 3.229708e+02
    endloop
  endfacet
  facet normal -8.927226e-01 4.506066e-01 -1.847344e-15
    outer loop
      vertex   -1.789518e+01 5.471585e+00 2.429708e+02
      vertex   -1.789518e+01 5.471585e+00 3.229708e+02
      vertex   -1.569971e+01 9.821156e+00 2.429708e+02
    endloop
  endfacet
  facet normal -8.927226e-01 4.506066e-01 -1.812701e-15
    outer loop
      vertex   -1.569971e+01 9.821156e+00 2.429708e+02
      vertex   -1.789518e+01 5.471585e+00 3.229708e+02
      vertex   -1.569971e+01 9.821156e+00 3.229708e+02
    endloop
  endfacet
  facet normal -7.380459e-01 6.747506e-01 -2.129420e-15
    outer loop
      vertex   -1.569971e+01 9.821156e+00 2.429708e+02
      vertex   -1.569971e+01 9.821156e+00 3.229708e+02
      vertex   -1.241216e+01 1.341710e+01 2.429708e+02
    endloop
  endfacet
  facet normal -7.380459e-01 6.747506e-01 -2.113033e-15
    outer loop
      vertex   -1.241216e+01 1.341710e+01 2.429708e+02
      vertex   -1.569971e+01 9.821156e+00 3.229708e+02
      vertex   -1.241216e+01 1.341710e+01 3.229708e+02
    endloop
  endfacet
  facet normal -5.286316e-01 8.488514e-01 -2.276472e-15
    outer loop
      vertex   -1.241216e+01 1.341710e+01 2.429708e+02
      vertex   -1.241216e+01 1.341710e+01 3.229708e+02
      vertex   -8.276339e+00 1.599273e+01 2.429708e+02
    endloop
  endfacet
  facet normal -5.286316e-01 8.488514e-01 -2.299948e-15
    outer loop
      vertex   -8.276339e+00 1.599273e+01 2.429708e+02
      vertex   -1.241216e+01 1.341710e+01 3.229708e+02
      vertex   -8.276339e+00 1.599273e+01 3.229708e+02
    endloop
  endfacet
  facet normal -2.800111e-01 9.599968e-01 -2.283511e-15
    outer loop
      vertex   -8.276339e+00 1.599273e+01 2.429708e+02
      vertex   -8.276339e+00 1.599273e+01 3.229708e+02
      vertex   -3.598992e+00 1.735701e+01 2.429708e+02
    endloop
  endfacet
  facet normal -2.800111e-01 9.599968e-01 -2.286620e-15
    outer loop
      vertex   -3.598992e+00 1.735701e+01 2.429708e+02
      vertex   -8.276339e+00 1.599273e+01 3.229708e+02
      vertex   -3.598992e+00 1.735701e+01 3.229708e+02
    endloop
  endfacet
  facet normal -1.062354e-02 9.999436e-01 -2.097834e-15
    outer loop
      vertex   -3.598992e+00 1.735701e+01 2.429708e+02
      vertex   -3.598992e+00 1.735701e+01 3.229708e+02
      vertex   1.272986e+00 1.740877e+01 2.429708e+02
    endloop
  endfacet
  facet normal -1.062354e-02 9.999436e-01 -2.097834e-15
    outer loop
      vertex   1.272986e+00 1.740877e+01 2.429708e+02
      vertex   -3.598992e+00 1.735701e+01 3.229708e+02
      vertex   1.272986e+00 1.740877e+01 3.229708e+02
    endloop
  endfacet
  facet normal 2.595520e-01 9.657291e-01 -1.753462e-15
    outer loop
      vertex   1.272986e+00 1.740877e+01 2.429708e+02
      vertex   1.272986e+00 1.740877e+01 3.229708e+02
      vertex   5.978262e+00 1.614417e+01 2.429708e+02
    endloop
  endfacet
  facet normal 2.595520e-01 9.657291e-01 -1.747699e-15
    outer loop
      vertex   5.978262e+00 1.614417e+01 2.429708e+02
      vertex   1.272986e+00 1.740877e+01 3.229708e+02
      vertex   5.978262e+00 1.614417e+01 3.229708e+02
    endloop
  endfacet
  facet normal 5.104777e-01 8.598910e-01 -1.267709e-15
    outer loop
      vertex   5.978262e+00 1.614417e+01 2.429708e+02
      vertex   5.978262e+00 1.614417e+01 3.229708e+02
      vertex   1.016787e+01 1.365700e+01 2.429708e+02
    endloop
  endfacet
  facet normal 5.104777e-01 8.598910e-01 -1.284711e-15
    outer loop
      vertex   1.016787e+01 1.365700e+01 2.429708e+02
      vertex   5.978262e+00 1.614417e+01 3.229708e+02
      vertex   1.016787e+01 1.365700e+01 3.229708e+02
    endloop
  endfacet
  facet normal 7.235436e-01 6.902787e-01 -7.177977e-16
    outer loop
      vertex   1.016787e+01 1.365700e+01 2.429708e+02
      vertex   1.016787e+01 1.365700e+01 3.229708e+02
      vertex   1.353108e+01 1.013171e+01 2.429708e+02
    endloop
  endfacet
  facet normal 7.235436e-01 6.902787e-01 -7.177977e-16
    outer loop
      vertex   1.353108e+01 1.013171e+01 2.429708e+02
      vertex   1.016787e+01 1.365700e+01 3.229708e+02
      vertex   1.353108e+01 1.013171e+01 3.229708e+02
    endloop
  endfacet
  facet normal 8.829476e-01 4.694716e-01 -9.764823e-17
    outer loop
      vertex   1.353108e+01 1.013171e+01 2.429708e+02
      vertex   1.353108e+01 1.013171e+01 3.229708e+02
      vertex   1.581847e+01 5.829764e+00 2.429708e+02
    endloop
  endfacet
  facet normal 8.829476e-01 4.694716e-01 -9.243605e-17
    outer loop
      vertex   1.581847e+01 5.829764e+00 2.429708e+02
      vertex   1.353108e+01 1.013171e+01 3.229708e+02
      vertex   1.581847e+01 5.829764e+00 3.229708e+02
    endloop
  endfacet
  facet normal 9.768674e-01 2.138459e-01 5.321176e-16
    outer loop
      vertex   1.581847e+01 5.829764e+00 2.429708e+02
      vertex   1.581847e+01 5.829764e+00 3.229708e+02
      vertex   1.686038e+01 1.070219e+00 2.429708e+02
    endloop
  endfacet
  facet normal 9.768674e-01 2.138459e-01 5.573696e-16
    outer loop
      vertex   1.686038e+01 1.070219e+00 2.429708e+02
      vertex   1.581847e+01 5.829764e+00 3.229708e+02
      vertex   1.686038e+01 1.070219e+00 3.229708e+02
    endloop
  endfacet
  facet normal 9.983374e-01 -5.763978e-02 1.138414e-15
    outer loop
      vertex   1.686038e+01 1.070219e+00 2.429708e+02
      vertex   1.686038e+01 1.070219e+00 3.229708e+02
      vertex   1.657954e+01 -3.793934e+00 2.429708e+02
    endloop
  endfacet
  facet normal 9.983374e-01 -5.763978e-02 1.095039e-15
    outer loop
      vertex   1.657954e+01 -3.793934e+00 2.429708e+02
      vertex   1.686038e+01 1.070219e+00 3.229708e+02
      vertex   1.657954e+01 -3.793934e+00 3.229708e+02
    endloop
  endfacet
  facet normal 9.457654e-01 -3.248506e-01 1.598437e-15
    outer loop
      vertex   1.657954e+01 -3.793934e+00 2.429708e+02
      vertex   1.657954e+01 -3.793934e+00 3.229708e+02
      vertex   1.499679e+01 -8.401942e+00 2.429708e+02
    endloop
  endfacet
  facet normal 9.457654e-01 -3.248506e-01 1.594830e-15
    outer loop
      vertex   1.499679e+01 -8.401942e+00 2.429708e+02
      vertex   1.657954e+01 -3.793934e+00 3.229708e+02
      vertex   1.499679e+01 -8.401942e+00 3.229708e+02
    endloop
  endfacet
  facet normal 8.230502e-01 -5.679687e-01 1.976981e-15
    outer loop
      vertex   1.499679e+01 -8.401942e+00 2.429708e+02
      vertex   1.499679e+01 -8.401942e+00 3.229708e+02
      vertex   1.222950e+01 -1.241205e+01 2.429708e+02
    endloop
  endfacet
  facet normal 8.230502e-01 -5.679687e-01 2.002204e-15
    outer loop
      vertex   1.222950e+01 -1.241205e+01 2.429708e+02
      vertex   1.499679e+01 -8.401942e+00 3.229708e+02
      vertex   1.222950e+01 -1.241205e+01 3.229708e+02
    endloop
  endfacet
  facet normal 6.392931e-01 -7.689631e-01 2.246656e-15
    outer loop
      vertex   1.222950e+01 -1.241205e+01 2.429708e+02
      vertex   1.222950e+01 -1.241205e+01 3.229708e+02
      vertex   8.482917e+00 -1.552685e+01 2.429708e+02
    endloop
  endfacet
  facet normal 6.392931e-01 -7.689631e-01 2.243777e-15
    outer loop
      vertex   8.482917e+00 -1.552685e+01 2.429708e+02
      vertex   1.222950e+01 -1.241205e+01 3.229708e+02
      vertex   8.482917e+00 -1.552685e+01 3.229708e+02
    endloop
  endfacet
  facet normal 4.081226e-01 -9.129271e-01 2.313276e-15
    outer loop
      vertex   8.482917e+00 -1.552685e+01 2.429708e+02
      vertex   8.482917e+00 -1.552685e+01 3.229708e+02
      vertex   4.034905e+00 -1.751533e+01 2.429708e+02
    endloop
  endfacet
  facet normal 4.081226e-01 -9.129271e-01 2.295389e-15
    outer loop
      vertex   4.034905e+00 -1.751533e+01 2.429708e+02
      vertex   8.482917e+00 -1.552685e+01 3.229708e+02
      vertex   4.034905e+00 -1.751533e+01 3.229708e+02
    endloop
  endfacet
  facet normal 1.466836e-01 -9.891835e-01 2.175423e-15
    outer loop
      vertex   4.034905e+00 -1.751533e+01 2.429708e+02
      vertex   4.034905e+00 -1.751533e+01 3.229708e+02
      vertex   -7.846469e-01 -1.823000e+01 2.429708e+02
    endloop
  endfacet
  facet normal 1.466836e-01 -9.891835e-01 2.212431e-15
    outer loop
      vertex   -7.846469e-01 -1.823000e+01 2.429708e+02
      vertex   4.034905e+00 -1.751533e+01 3.229708e+02
      vertex   -7.846469e-01 -1.823000e+01 3.229708e+02
    endloop
  endfacet
  facet normal -1.256344e-01 -9.920766e-01 1.944101e-15
    outer loop
      vertex   -7.846469e-01 -1.823000e+01 2.429708e+02
      vertex   -7.846469e-01 -1.823000e+01 3.229708e+02
      vertex   -5.618295e+00 -1.761788e+01 2.429708e+02
    endloop
  endfacet
  facet normal -1.256344e-01 -9.920766e-01 1.943753e-15
    outer loop
      vertex   -5.618295e+00 -1.761788e+01 2.429708e+02
      vertex   -7.846469e-01 -1.823000e+01 3.229708e+02
      vertex   -5.618295e+00 -1.761788e+01 3.229708e+02
    endloop
  endfacet
  facet normal -3.886346e-01 -9.213920e-01 1.530508e-15
    outer loop
      vertex   -5.618295e+00 -1.761788e+01 2.429708e+02
      vertex   -5.618295e+00 -1.761788e+01 3.229708e+02
      vertex   -1.010755e+01 -1.572436e+01 2.429708e+02
    endloop
  endfacet
  facet normal -3.886346e-01 -9.213920e-01 1.534823e-15
    outer loop
      vertex   -1.010755e+01 -1.572436e+01 2.429708e+02
      vertex   -5.618295e+00 -1.761788e+01 3.229708e+02
      vertex   -1.010755e+01 -1.572436e+01 3.229708e+02
    endloop
  endfacet
  facet normal -6.228115e-01 -7.823719e-01 1.010668e-15
    outer loop
      vertex   -1.010755e+01 -1.572436e+01 2.429708e+02
      vertex   -1.010755e+01 -1.572436e+01 3.229708e+02
      vertex   -1.391946e+01 -1.268986e+01 2.429708e+02
    endloop
  endfacet
  facet normal -6.228115e-01 -7.823719e-01 9.968388e-16
    outer loop
      vertex   -1.391946e+01 -1.268986e+01 2.429708e+02
      vertex   -1.010755e+01 -1.572436e+01 3.229708e+02
      vertex   -1.391946e+01 -1.268986e+01 3.229708e+02
    endloop
  endfacet
  facet normal -9.386501e-01 -3.448709e-01 -2.010654e-16
    outer loop
      vertex   -1.845162e+01 -4.166110e+00 4.829708e+02
      vertex   -1.845162e+01 -4.166110e+00 4.029708e+02
      vertex   -1.677132e+01 -8.739451e+00 4.829708e+02
    endloop
  endfacet
  facet normal -9.386501e-01 -3.448709e-01 -2.695517e-16
    outer loop
      vertex   -1.677132e+01 -8.739451e+00 4.829708e+02
      vertex   -1.845162e+01 -4.166110e+00 4.029708e+02
      vertex   -1.677132e+01 -8.739451e+00 4.029708e+02
    endloop
  endfacet
  facet normal -8.107974e-01 -5.853269e-01 3.415654e-16
    outer loop
      vertex   -1.677132e+01 -8.739451e+00 4.829708e+02
      vertex   -1.677132e+01 -8.739451e+00 4.029708e+02
      vertex   -1.391946e+01 -1.268986e+01 4.829708e+02
    endloop
  endfacet
  facet normal -8.107974e-01 -5.853269e-01 4.115562e-16
    outer loop
      vertex   -1.391946e+01 -1.268986e+01 4.829708e+02
      vertex   -1.677132e+01 -8.739451e+00 4.029708e+02
      vertex   -1.391946e+01 -1.268986e+01 4.029708e+02
    endloop
  endfacet
  facet normal -6.228115e-01 -7.823719e-01 1.010668e-15
    outer loop
      vertex   -1.391946e+01 -1.268986e+01 4.829708e+02
      vertex   -1.391946e+01 -1.268986e+01 4.029708e+02
      vertex   -1.010755e+01 -1.572436e+01 4.829708e+02
    endloop
  endfacet
  facet normal -6.228115e-01 -7.823719e-01 1.007125e-15
    outer loop
      vertex   -1.010755e+01 -1.572436e+01 4.829708e+02
      vertex   -1.391946e+01 -1.268986e+01 4.029708e+02
      vertex   -1.010755e+01 -1.572436e+01 4.029708e+02
    endloop
  endfacet
  facet normal -3.886346e-01 -9.213920e-01 1.522994e-15
    outer loop
      vertex   -1.010755e+01 -1.572436e+01 4.829708e+02
      vertex   -1.010755e+01 -1.572436e+01 4.029708e+02
      vertex   -5.618295e+00 -1.761788e+01 4.829708e+02
    endloop
  endfacet
  facet normal -3.886346e-01 -9.213920e-01 1.526194e-15
    outer loop
      vertex   -5.618295e+00 -1.761788e+01 4.829708e+02
      vertex   -1.010755e+01 -1.572436e+01 4.029708e+02
      vertex   -5.618295e+00 -1.761788e+01 4.029708e+02
    endloop
  endfacet
  facet normal -1.256344e-01 -9.920766e-01 1.942358e-15
    outer loop
      vertex   -5.618295e+00 -1.761788e+01 4.829708e+02
      vertex   -5.618295e+00 -1.761788e+01 4.029708e+02
      vertex   -7.846469e-01 -1.823000e+01 4.829708e+02
    endloop
  endfacet
  facet normal -1.256344e-01 -9.920766e-01 1.886096e-15
    outer loop
      vertex   -7.846469e-01 -1.823000e+01 4.829708e+02
      vertex   -5.618295e+00 -1.761788e+01 4.029708e+02
      vertex   -7.846469e-01 -1.823000e+01 4.029708e+02
    endloop
  endfacet
  facet normal 1.466836e-01 -9.891835e-01 2.184787e-15
    outer loop
      vertex   -7.846469e-01 -1.823000e+01 4.829708e+02
      vertex   -7.846469e-01 -1.823000e+01 4.029708e+02
      vertex   4.034905e+00 -1.751533e+01 4.829708e+02
    endloop
  endfacet
  facet normal 1.466836e-01 -9.891835e-01 2.211209e-15
    outer loop
      vertex   4.034905e+00 -1.751533e+01 4.829708e+02
      vertex   -7.846469e-01 -1.823000e+01 4.029708e+02
      vertex   4.034905e+00 -1.751533e+01 4.029708e+02
    endloop
  endfacet
  facet normal 4.081226e-01 -9.129271e-01 2.313276e-15
    outer loop
      vertex   4.034905e+00 -1.751533e+01 4.829708e+02
      vertex   4.034905e+00 -1.751533e+01 4.029708e+02
      vertex   8.482917e+00 -1.552685e+01 4.829708e+02
    endloop
  endfacet
  facet normal 4.081226e-01 -9.129271e-01 2.320191e-15
    outer loop
      vertex   8.482917e+00 -1.552685e+01 4.829708e+02
      vertex   4.034905e+00 -1.751533e+01 4.029708e+02
      vertex   8.482917e+00 -1.552685e+01 4.029708e+02
    endloop
  endfacet
  facet normal 6.392931e-01 -7.689631e-01 2.269288e-15
    outer loop
      vertex   8.482917e+00 -1.552685e+01 4.829708e+02
      vertex   8.482917e+00 -1.552685e+01 4.029708e+02
      vertex   1.222950e+01 -1.241205e+01 4.829708e+02
    endloop
  endfacet
  facet normal 6.392931e-01 -7.689631e-01 2.240898e-15
    outer loop
      vertex   1.222950e+01 -1.241205e+01 4.829708e+02
      vertex   8.482917e+00 -1.552685e+01 4.029708e+02
      vertex   1.222950e+01 -1.241205e+01 4.029708e+02
    endloop
  endfacet
  facet normal 8.230502e-01 -5.679687e-01 2.013531e-15
    outer loop
      vertex   1.222950e+01 -1.241205e+01 4.829708e+02
      vertex   1.222950e+01 -1.241205e+01 4.029708e+02
      vertex   1.499679e+01 -8.401942e+00 4.829708e+02
    endloop
  endfacet
  facet normal 8.230502e-01 -5.679687e-01 2.013531e-15
    outer loop
      vertex   1.499679e+01 -8.401942e+00 4.829708e+02
      vertex   1.222950e+01 -1.241205e+01 4.029708e+02
      vertex   1.499679e+01 -8.401942e+00 4.029708e+02
    endloop
  endfacet
  facet normal 9.457654e-01 -3.248506e-01 1.636831e-15
    outer loop
      vertex   1.499679e+01 -8.401942e+00 4.829708e+02
      vertex   1.499679e+01 -8.401942e+00 4.029708e+02
      vertex   1.657954e+01 -3.793934e+00 4.829708e+02
    endloop
  endfacet
  facet normal 9.457654e-01 -3.248506e-01 1.644044e-15
    outer loop
      vertex   1.657954e+01 -3.793934e+00 4.829708e+02
      vertex   1.499679e+01 -8.401942e+00 4.029708e+02
      vertex   1.657954e+01 -3.793934e+00 4.029708e+02
    endloop
  endfacet
  facet normal 9.983374e-01 -5.763978e-02 1.140014e-15
    outer loop
      vertex   1.657954e+01 -3.793934e+00 4.829708e+02
      vertex   1.657954e+01 -3.793934e+00 4.029708e+02
      vertex   1.686038e+01 1.070219e+00 4.829708e+02
    endloop
  endfacet
  facet normal 9.983374e-01 -5.763978e-02 1.092479e-15
    outer loop
      vertex   1.686038e+01 1.070219e+00 4.829708e+02
      vertex   1.657954e+01 -3.793934e+00 4.029708e+02
      vertex   1.686038e+01 1.070219e+00 4.029708e+02
    endloop
  endfacet
  facet normal 9.768674e-01 2.138459e-01 5.199234e-16
    outer loop
      vertex   1.686038e+01 1.070219e+00 4.829708e+02
      vertex   1.686038e+01 1.070219e+00 4.029708e+02
      vertex   1.581847e+01 5.829764e+00 4.829708e+02
    endloop
  endfacet
  facet normal 9.768674e-01 2.138459e-01 5.561825e-16
    outer loop
      vertex   1.581847e+01 5.829764e+00 4.829708e+02
      vertex   1.686038e+01 1.070219e+00 4.029708e+02
      vertex   1.581847e+01 5.829764e+00 4.029708e+02
    endloop
  endfacet
  facet normal 8.829476e-01 4.694716e-01 -6.761849e-17
    outer loop
      vertex   1.581847e+01 5.829764e+00 4.829708e+02
      vertex   1.581847e+01 5.829764e+00 4.029708e+02
      vertex   1.353108e+01 1.013171e+01 4.829708e+02
    endloop
  endfacet
  facet normal 8.829476e-01 4.694716e-01 -9.764823e-17
    outer loop
      vertex   1.353108e+01 1.013171e+01 4.829708e+02
      vertex   1.581847e+01 5.829764e+00 4.029708e+02
      vertex   1.353108e+01 1.013171e+01 4.029708e+02
    endloop
  endfacet
  facet normal 7.235436e-01 6.902787e-01 -7.177977e-16
    outer loop
      vertex   1.353108e+01 1.013171e+01 4.829708e+02
      vertex   1.353108e+01 1.013171e+01 4.029708e+02
      vertex   1.016787e+01 1.365700e+01 4.829708e+02
    endloop
  endfacet
  facet normal 7.235436e-01 6.902787e-01 -7.346022e-16
    outer loop
      vertex   1.016787e+01 1.365700e+01 4.829708e+02
      vertex   1.353108e+01 1.013171e+01 4.029708e+02
      vertex   1.016787e+01 1.365700e+01 4.029708e+02
    endloop
  endfacet
  facet normal 5.104777e-01 8.598910e-01 -1.288288e-15
    outer loop
      vertex   1.016787e+01 1.365700e+01 4.829708e+02
      vertex   1.016787e+01 1.365700e+01 4.029708e+02
      vertex   5.978262e+00 1.614417e+01 4.829708e+02
    endloop
  endfacet
  facet normal 5.104777e-01 8.598910e-01 -1.284711e-15
    outer loop
      vertex   5.978262e+00 1.614417e+01 4.829708e+02
      vertex   1.016787e+01 1.365700e+01 4.029708e+02
      vertex   5.978262e+00 1.614417e+01 4.029708e+02
    endloop
  endfacet
  facet normal 2.595520e-01 9.657291e-01 -1.756344e-15
    outer loop
      vertex   5.978262e+00 1.614417e+01 4.829708e+02
      vertex   5.978262e+00 1.614417e+01 4.029708e+02
      vertex   1.272986e+00 1.740877e+01 4.829708e+02
    endloop
  endfacet
  facet normal 2.595520e-01 9.657291e-01 -1.753462e-15
    outer loop
      vertex   1.272986e+00 1.740877e+01 4.829708e+02
      vertex   5.978262e+00 1.614417e+01 4.029708e+02
      vertex   1.272986e+00 1.740877e+01 4.029708e+02
    endloop
  endfacet
  facet normal -1.062354e-02 9.999436e-01 -2.097834e-15
    outer loop
      vertex   1.272986e+00 1.740877e+01 4.829708e+02
      vertex   1.272986e+00 1.740877e+01 4.029708e+02
      vertex   -3.598992e+00 1.735701e+01 4.829708e+02
    endloop
  endfacet
  facet normal -1.062354e-02 9.999436e-01 -2.053428e-15
    outer loop
      vertex   -3.598992e+00 1.735701e+01 4.829708e+02
      vertex   1.272986e+00 1.740877e+01 4.029708e+02
      vertex   -3.598992e+00 1.735701e+01 4.029708e+02
    endloop
  endfacet
  facet normal -2.800111e-01 9.599968e-01 -2.243987e-15
    outer loop
      vertex   -3.598992e+00 1.735701e+01 4.829708e+02
      vertex   -3.598992e+00 1.735701e+01 4.029708e+02
      vertex   -8.276339e+00 1.599273e+01 4.829708e+02
    endloop
  endfacet
  facet normal -2.800111e-01 9.599968e-01 -2.277294e-15
    outer loop
      vertex   -8.276339e+00 1.599273e+01 4.829708e+02
      vertex   -3.598992e+00 1.735701e+01 4.029708e+02
      vertex   -8.276339e+00 1.599273e+01 4.029708e+02
    endloop
  endfacet
  facet normal -5.286316e-01 8.488514e-01 -2.288210e-15
    outer loop
      vertex   -8.276339e+00 1.599273e+01 4.829708e+02
      vertex   -8.276339e+00 1.599273e+01 4.029708e+02
      vertex   -1.241216e+01 1.341710e+01 4.829708e+02
    endloop
  endfacet
  facet normal -5.286316e-01 8.488514e-01 -2.299948e-15
    outer loop
      vertex   -1.241216e+01 1.341710e+01 4.829708e+02
      vertex   -8.276339e+00 1.599273e+01 4.029708e+02
      vertex   -1.241216e+01 1.341710e+01 4.029708e+02
    endloop
  endfacet
  facet normal -7.380459e-01 6.747506e-01 -2.145808e-15
    outer loop
      vertex   -1.241216e+01 1.341710e+01 4.829708e+02
      vertex   -1.241216e+01 1.341710e+01 4.029708e+02
      vertex   -1.569971e+01 9.821156e+00 4.829708e+02
    endloop
  endfacet
  facet normal -7.380459e-01 6.747506e-01 -2.130826e-15
    outer loop
      vertex   -1.569971e+01 9.821156e+00 4.829708e+02
      vertex   -1.241216e+01 1.341710e+01 4.029708e+02
      vertex   -1.569971e+01 9.821156e+00 4.029708e+02
    endloop
  endfacet
  facet normal -8.927226e-01 4.506066e-01 -1.822518e-15
    outer loop
      vertex   -1.569971e+01 9.821156e+00 4.829708e+02
      vertex   -1.569971e+01 9.821156e+00 4.029708e+02
      vertex   -1.789518e+01 5.471585e+00 4.829708e+02
    endloop
  endfacet
  facet normal -8.927226e-01 4.506066e-01 -1.802696e-15
    outer loop
      vertex   -1.789518e+01 5.471585e+00 4.829708e+02
      vertex   -1.569971e+01 9.821156e+00 4.029708e+02
      vertex   -1.789518e+01 5.471585e+00 4.029708e+02
    endloop
  endfacet
  facet normal -9.811903e-01 1.930432e-01 -1.357256e-15
    outer loop
      vertex   -1.789518e+01 5.471585e+00 4.829708e+02
      vertex   -1.789518e+01 5.471585e+00 4.029708e+02
      vertex   -1.883574e+01 6.909780e-01 4.829708e+02
    endloop
  endfacet
  facet normal -9.811903e-01 1.930432e-01 -1.402437e-15
    outer loop
      vertex   -1.883574e+01 6.909780e-01 4.829708e+02
      vertex   -1.789518e+01 5.471585e+00 4.029708e+02
      vertex   -1.883574e+01 6.909780e-01 4.029708e+02
    endloop
  endfacet
  facet normal -9.968875e-01 -7.883734e-02 -8.547693e-16
    outer loop
      vertex   -1.883574e+01 6.909780e-01 4.829708e+02
      vertex   -1.883574e+01 6.909780e-01 4.029708e+02
      vertex   -1.845162e+01 -4.166110e+00 4.829708e+02
    endloop
  endfacet
  facet normal -9.968875e-01 -7.883734e-02 -8.102798e-16
    outer loop
      vertex   -1.845162e+01 -4.166110e+00 4.829708e+02
      vertex   -1.883574e+01 6.909780e-01 4.029708e+02
      vertex   -1.845162e+01 -4.166110e+00 4.029708e+02
    endloop
  endfacet
  facet normal -9.386501e-01 -3.448709e-01 -2.389210e-16
    outer loop
      vertex   -1.677132e+01 -8.739451e+00 3.229708e+02
      vertex   -1.677132e+01 -8.739451e+00 4.029708e+02
      vertex   -1.845162e+01 -4.166110e+00 3.229708e+02
    endloop
  endfacet
  facet normal -9.386501e-01 -3.448709e-01 -2.465787e-16
    outer loop
      vertex   -1.845162e+01 -4.166110e+00 3.229708e+02
      vertex   -1.677132e+01 -8.739451e+00 4.029708e+02
      vertex   -1.845162e+01 -4.166110e+00 4.029708e+02
    endloop
  endfacet
  facet normal -9.968875e-01 -7.883734e-02 -8.554258e-16
    outer loop
      vertex   -1.845162e+01 -4.166110e+00 3.229708e+02
      vertex   -1.845162e+01 -4.166110e+00 4.029708e+02
      vertex   -1.883574e+01 6.909780e-01 3.229708e+02
    endloop
  endfacet
  facet normal -9.968875e-01 -7.883734e-02 -8.549881e-16
    outer loop
      vertex   -1.883574e+01 6.909780e-01 3.229708e+02
      vertex   -1.845162e+01 -4.166110e+00 4.029708e+02
      vertex   -1.883574e+01 6.909780e-01 4.029708e+02
    endloop
  endfacet
  facet normal -9.811903e-01 1.930432e-01 -1.401901e-15
    outer loop
      vertex   -1.883574e+01 6.909780e-01 3.229708e+02
      vertex   -1.883574e+01 6.909780e-01 4.029708e+02
      vertex   -1.789518e+01 5.471585e+00 3.229708e+02
    endloop
  endfacet
  facet normal -9.811903e-01 1.930432e-01 -1.380832e-15
    outer loop
      vertex   -1.789518e+01 5.471585e+00 3.229708e+02
      vertex   -1.883574e+01 6.909780e-01 4.029708e+02
      vertex   -1.789518e+01 5.471585e+00 4.029708e+02
    endloop
  endfacet
  facet normal -8.927226e-01 4.506066e-01 -1.857726e-15
    outer loop
      vertex   -1.789518e+01 5.471585e+00 3.229708e+02
      vertex   -1.789518e+01 5.471585e+00 4.029708e+02
      vertex   -1.569971e+01 9.821156e+00 3.229708e+02
    endloop
  endfacet
  facet normal -8.927226e-01 4.506066e-01 -1.822895e-15
    outer loop
      vertex   -1.569971e+01 9.821156e+00 3.229708e+02
      vertex   -1.789518e+01 5.471585e+00 4.029708e+02
      vertex   -1.569971e+01 9.821156e+00 4.029708e+02
    endloop
  endfacet
  facet normal -7.380459e-01 6.747506e-01 -2.157980e-15
    outer loop
      vertex   -1.569971e+01 9.821156e+00 3.229708e+02
      vertex   -1.569971e+01 9.821156e+00 4.029708e+02
      vertex   -1.241216e+01 1.341710e+01 3.229708e+02
    endloop
  endfacet
  facet normal -7.380459e-01 6.747506e-01 -2.129420e-15
    outer loop
      vertex   -1.241216e+01 1.341710e+01 3.229708e+02
      vertex   -1.569971e+01 9.821156e+00 4.029708e+02
      vertex   -1.241216e+01 1.341710e+01 4.029708e+02
    endloop
  endfacet
  facet normal -5.286316e-01 8.488514e-01 -2.288210e-15
    outer loop
      vertex   -1.241216e+01 1.341710e+01 3.229708e+02
      vertex   -1.241216e+01 1.341710e+01 4.029708e+02
      vertex   -8.276339e+00 1.599273e+01 3.229708e+02
    endloop
  endfacet
  facet normal -5.286316e-01 8.488514e-01 -2.281100e-15
    outer loop
      vertex   -8.276339e+00 1.599273e+01 3.229708e+02
      vertex   -1.241216e+01 1.341710e+01 4.029708e+02
      vertex   -8.276339e+00 1.599273e+01 4.029708e+02
    endloop
  endfacet
  facet normal -2.800111e-01 9.599968e-01 -2.262195e-15
    outer loop
      vertex   -8.276339e+00 1.599273e+01 3.229708e+02
      vertex   -8.276339e+00 1.599273e+01 4.029708e+02
      vertex   -3.598992e+00 1.735701e+01 3.229708e+02
    endloop
  endfacet
  facet normal -2.800111e-01 9.599968e-01 -2.286620e-15
    outer loop
      vertex   -3.598992e+00 1.735701e+01 3.229708e+02
      vertex   -8.276339e+00 1.599273e+01 4.029708e+02
      vertex   -3.598992e+00 1.735701e+01 4.029708e+02
    endloop
  endfacet
  facet normal -1.062354e-02 9.999436e-01 -2.097834e-15
    outer loop
      vertex   -3.598992e+00 1.735701e+01 3.229708e+02
      vertex   -3.598992e+00 1.735701e+01 4.029708e+02
      vertex   1.272986e+00 1.740877e+01 3.229708e+02
    endloop
  endfacet
  facet normal -1.062354e-02 9.999436e-01 -2.053369e-15
    outer loop
      vertex   1.272986e+00 1.740877e+01 3.229708e+02
      vertex   -3.598992e+00 1.735701e+01 4.029708e+02
      vertex   1.272986e+00 1.740877e+01 4.029708e+02
    endloop
  endfacet
  facet normal 2.595520e-01 9.657291e-01 -1.712016e-15
    outer loop
      vertex   1.272986e+00 1.740877e+01 3.229708e+02
      vertex   1.272986e+00 1.740877e+01 4.029708e+02
      vertex   5.978262e+00 1.614417e+01 3.229708e+02
    endloop
  endfacet
  facet normal 2.595520e-01 9.657291e-01 -1.713457e-15
    outer loop
      vertex   5.978262e+00 1.614417e+01 3.229708e+02
      vertex   1.272986e+00 1.740877e+01 4.029708e+02
      vertex   5.978262e+00 1.614417e+01 4.029708e+02
    endloop
  endfacet
  facet normal 5.104777e-01 8.598910e-01 -1.246525e-15
    outer loop
      vertex   5.978262e+00 1.614417e+01 3.229708e+02
      vertex   5.978262e+00 1.614417e+01 4.029708e+02
      vertex   1.016787e+01 1.365700e+01 3.229708e+02
    endloop
  endfacet
  facet normal 5.104777e-01 8.598910e-01 -1.204761e-15
    outer loop
      vertex   1.016787e+01 1.365700e+01 3.229708e+02
      vertex   5.978262e+00 1.614417e+01 4.029708e+02
      vertex   1.016787e+01 1.365700e+01 4.029708e+02
    endloop
  endfacet
  facet normal 7.235436e-01 6.902787e-01 -6.396841e-16
    outer loop
      vertex   1.016787e+01 1.365700e+01 3.229708e+02
      vertex   1.016787e+01 1.365700e+01 4.029708e+02
      vertex   1.353108e+01 1.013171e+01 3.229708e+02
    endloop
  endfacet
  facet normal 7.235436e-01 6.902787e-01 -6.710773e-16
    outer loop
      vertex   1.353108e+01 1.013171e+01 3.229708e+02
      vertex   1.016787e+01 1.365700e+01 4.029708e+02
      vertex   1.353108e+01 1.013171e+01 4.029708e+02
    endloop
  endfacet
  facet normal 8.829476e-01 4.694716e-01 -5.719413e-17
    outer loop
      vertex   1.353108e+01 1.013171e+01 3.229708e+02
      vertex   1.353108e+01 1.013171e+01 4.029708e+02
      vertex   1.581847e+01 5.829764e+00 3.229708e+02
    endloop
  endfacet
  facet normal 8.829476e-01 4.694716e-01 -7.283067e-17
    outer loop
      vertex   1.581847e+01 5.829764e+00 3.229708e+02
      vertex   1.353108e+01 1.013171e+01 4.029708e+02
      vertex   1.581847e+01 5.829764e+00 4.029708e+02
    endloop
  endfacet
  facet normal 9.768674e-01 2.138459e-01 5.538084e-16
    outer loop
      vertex   1.581847e+01 5.829764e+00 3.229708e+02
      vertex   1.581847e+01 5.829764e+00 4.029708e+02
      vertex   1.686038e+01 1.070219e+00 3.229708e+02
    endloop
  endfacet
  facet normal 9.768674e-01 2.138459e-01 5.609309e-16
    outer loop
      vertex   1.686038e+01 1.070219e+00 3.229708e+02
      vertex   1.581847e+01 5.829764e+00 4.029708e+02
      vertex   1.686038e+01 1.070219e+00 4.029708e+02
    endloop
  endfacet
  facet normal 9.983374e-01 -5.763978e-02 1.137454e-15
    outer loop
      vertex   1.686038e+01 1.070219e+00 3.229708e+02
      vertex   1.686038e+01 1.070219e+00 4.029708e+02
      vertex   1.657954e+01 -3.793934e+00 3.229708e+02
    endloop
  endfacet
  facet normal 9.983374e-01 -5.763978e-02 1.138094e-15
    outer loop
      vertex   1.657954e+01 -3.793934e+00 3.229708e+02
      vertex   1.686038e+01 1.070219e+00 4.029708e+02
      vertex   1.657954e+01 -3.793934e+00 4.029708e+02
    endloop
  endfacet
  facet normal 9.457654e-01 -3.248506e-01 1.633224e-15
    outer loop
      vertex   1.657954e+01 -3.793934e+00 3.229708e+02
      vertex   1.657954e+01 -3.793934e+00 4.029708e+02
      vertex   1.499679e+01 -8.401942e+00 3.229708e+02
    endloop
  endfacet
  facet normal 9.457654e-01 -3.248506e-01 1.665044e-15
    outer loop
      vertex   1.499679e+01 -8.401942e+00 3.229708e+02
      vertex   1.657954e+01 -3.793934e+00 4.029708e+02
      vertex   1.499679e+01 -8.401942e+00 4.029708e+02
    endloop
  endfacet
  facet normal 8.230502e-01 -5.679687e-01 2.044418e-15
    outer loop
      vertex   1.499679e+01 -8.401942e+00 3.229708e+02
      vertex   1.499679e+01 -8.401942e+00 4.029708e+02
      vertex   1.222950e+01 -1.241205e+01 3.229708e+02
    endloop
  endfacet
  facet normal 8.230502e-01 -5.679687e-01 2.019195e-15
    outer loop
      vertex   1.222950e+01 -1.241205e+01 3.229708e+02
      vertex   1.499679e+01 -8.401942e+00 4.029708e+02
      vertex   1.222950e+01 -1.241205e+01 4.029708e+02
    endloop
  endfacet
  facet normal 6.392931e-01 -7.689631e-01 2.238018e-15
    outer loop
      vertex   1.222950e+01 -1.241205e+01 3.229708e+02
      vertex   1.222950e+01 -1.241205e+01 4.029708e+02
      vertex   8.482917e+00 -1.552685e+01 3.229708e+02
    endloop
  endfacet
  facet normal 6.392931e-01 -7.689631e-01 2.209628e-15
    outer loop
      vertex   8.482917e+00 -1.552685e+01 3.229708e+02
      vertex   1.222950e+01 -1.241205e+01 4.029708e+02
      vertex   8.482917e+00 -1.552685e+01 4.029708e+02
    endloop
  endfacet
  facet normal 4.081226e-01 -9.129271e-01 2.272733e-15
    outer loop
      vertex   8.482917e+00 -1.552685e+01 3.229708e+02
      vertex   8.482917e+00 -1.552685e+01 4.029708e+02
      vertex   4.034905e+00 -1.751533e+01 3.229708e+02
    endloop
  endfacet
  facet normal 4.081226e-01 -9.129271e-01 2.295389e-15
    outer loop
      vertex   4.034905e+00 -1.751533e+01 3.229708e+02
      vertex   8.482917e+00 -1.552685e+01 4.029708e+02
      vertex   4.034905e+00 -1.751533e+01 4.029708e+02
    endloop
  endfacet
  facet normal 1.466836e-01 -9.891835e-01 2.175423e-15
    outer loop
      vertex   4.034905e+00 -1.751533e+01 3.229708e+02
      vertex   4.034905e+00 -1.751533e+01 4.029708e+02
      vertex   -7.846469e-01 -1.823000e+01 3.229708e+02
    endloop
  endfacet
  facet normal 1.466836e-01 -9.891835e-01 2.212838e-15
    outer loop
      vertex   -7.846469e-01 -1.823000e+01 3.229708e+02
      vertex   4.034905e+00 -1.751533e+01 4.029708e+02
      vertex   -7.846469e-01 -1.823000e+01 4.029708e+02
    endloop
  endfacet
  facet normal -1.256344e-01 -9.920766e-01 1.943753e-15
    outer loop
      vertex   -7.846469e-01 -1.823000e+01 3.229708e+02
      vertex   -7.846469e-01 -1.823000e+01 4.029708e+02
      vertex   -5.618295e+00 -1.761788e+01 3.229708e+02
    endloop
  endfacet
  facet normal -1.256344e-01 -9.920766e-01 1.979441e-15
    outer loop
      vertex   -5.618295e+00 -1.761788e+01 3.229708e+02
      vertex   -7.846469e-01 -1.823000e+01 4.029708e+02
      vertex   -5.618295e+00 -1.761788e+01 4.029708e+02
    endloop
  endfacet
  facet normal -3.886346e-01 -9.213920e-01 1.545538e-15
    outer loop
      vertex   -5.618295e+00 -1.761788e+01 3.229708e+02
      vertex   -5.618295e+00 -1.761788e+01 4.029708e+02
      vertex   -1.010755e+01 -1.572436e+01 3.229708e+02
    endloop
  endfacet
  facet normal -3.886346e-01 -9.213920e-01 1.497105e-15
    outer loop
      vertex   -1.010755e+01 -1.572436e+01 3.229708e+02
      vertex   -5.618295e+00 -1.761788e+01 4.029708e+02
      vertex   -1.010755e+01 -1.572436e+01 4.029708e+02
    endloop
  endfacet
  facet normal -6.228115e-01 -7.823719e-01 9.656375e-16
    outer loop
      vertex   -1.010755e+01 -1.572436e+01 3.229708e+02
      vertex   -1.010755e+01 -1.572436e+01 4.029708e+02
      vertex   -1.391946e+01 -1.268986e+01 3.229708e+02
    endloop
  endfacet
  facet normal -6.228115e-01 -7.823719e-01 9.620945e-16
    outer loop
      vertex   -1.391946e+01 -1.268986e+01 3.229708e+02
      vertex   -1.010755e+01 -1.572436e+01 4.029708e+02
      vertex   -1.391946e+01 -1.268986e+01 4.029708e+02
    endloop
  endfacet
  facet normal -8.107974e-01 -5.853269e-01 3.675592e-16
    outer loop
      vertex   -1.391946e+01 -1.268986e+01 3.229708e+02
      vertex   -1.391946e+01 -1.268986e+01 4.029708e+02
      vertex   -1.677132e+01 -8.739451e+00 3.229708e+02
    endloop
  endfacet
  facet normal -8.107974e-01 -5.853269e-01 3.935529e-16
    outer loop
      vertex   -1.677132e+01 -8.739451e+00 3.229708e+02
      vertex   -1.391946e+01 -1.268986e+01 4.029708e+02
      vertex   -1.677132e+01 -8.739451e+00 4.029708e+02
    endloop
  endfacet
  facet normal -0.000000e+00 -0.000000e+00 1.000000e+00
    outer loop
      vertex   -1.677132e+01 -8.739451e+00 4.829708e+02
      vertex   -1.391946e+01 -1.268986e+01 4.829708e+02
      vertex   -1.845162e+01 -4.166110e+00 4.829708e+02
    endloop
  endfacet
  facet normal -0.000000e+00 -0.000000e+00 1.000000e+00
    outer loop
      vertex   -1.845162e+01 -4.166110e+00 4.829708e+02
      vertex   -1.391946e+01 -1.268986e+01 4.829708e+02
      vertex   -1.883574e+01 6.909780e-01 4.829708e+02
    endloop
  endfacet
  facet normal 0.000000e+00 0.000000e+00 1.000000e+00
    outer loop
      vertex   -1.883574e+01 6.909780e-01 4.829708e+02
      vertex   -1.391946e+01 -1.268986e+01 4.829708e+02
      vertex   -1.010755e+01 -1.572436e+01 4.829708e+02
    endloop
  endfacet
  facet normal -0.000000e+00 0.000000e+00 1.000000e+00
    outer loop
      vertex   -1.883574e+01 6.909780e-01 4.829708e+02
      vertex   -1.010755e+01 -1.572436e+01 4.829708e+02
      vertex   -1.789518e+01 5.471585e+00 4.829708e+02
    endloop
  endfacet
  facet normal 0.000000e+00 0.000000e+00 1.000000e+00
    outer loop
      vertex   -1.789518e+01 5.471585e+00 4.829708e+02
      vertex   -1.010755e+01 -1.572436e+01 4.829708e+02
      vertex   -5.618295e+00 -1.761788e+01 4.829708e+02
    endloop
  endfacet
  facet normal 1.260896e-14 6.704303e-15 1.000000e+00
    outer loop
      vertex   -1.789518e+01 5.471585e+00 4.829708e+02
      vertex   -5.618295e+00 -1.761788e+01 4.829708e+02
      vertex   -1.569971e+01 9.821156e+00 4.829708e+02
    endloop
  endfacet
  facet normal -1.205866e-14 -2.358866e-15 1.000000e+00
    outer loop
      vertex   -1.569971e+01 9.821156e+00 4.829708e+02
      vertex   -5.618295e+00 -1.761788e+01 4.829708e+02
      vertex   -7.846469e-01 -1.823000e+01 4.829708e+02
    endloop
  endfacet
  facet normal -2.802893e-15 2.562515e-15 1.000000e+00
    outer loop
      vertex   -1.569971e+01 9.821156e+00 4.829708e+02
      vertex   -7.846469e-01 -1.823000e+01 4.829708e+02
      vertex   -1.241216e+01 1.341710e+01 4.829708e+02
    endloop
  endfacet
  facet normal -5.051745e-16 3.406723e-15 1.000000e+00
    outer loop
      vertex   -1.241216e+01 1.341710e+01 4.829708e+02
      vertex   -7.846469e-01 -1.823000e+01 4.829708e+02
      vertex   4.034905e+00 -1.751533e+01 4.829708e+02
    endloop
  endfacet
  facet normal -1.719483e-15 2.761064e-15 1.000000e+00
    outer loop
      vertex   -1.241216e+01 1.341710e+01 4.829708e+02
      vertex   4.034905e+00 -1.751533e+01 4.829708e+02
      vertex   -8.276339e+00 1.599273e+01 4.829708e+02
    endloop
  endfacet
  facet normal -8.938274e-16 3.064419e-15 1.000000e+00
    outer loop
      vertex   -8.276339e+00 1.599273e+01 4.829708e+02
      vertex   4.034905e+00 -1.751533e+01 4.829708e+02
      vertex   -3.598992e+00 1.735701e+01 4.829708e+02
    endloop
  endfacet
  facet normal -1.167490e-14 7.043352e-16 1.000000e+00
    outer loop
      vertex   -3.598992e+00 1.735701e+01 4.829708e+02
      vertex   4.034905e+00 -1.751533e+01 4.829708e+02
      vertex   1.272986e+00 1.740877e+01 4.829708e+02
    endloop
  endfacet
  facet normal 4.469452e-16 1.662973e-15 1.000000e+00
    outer loop
      vertex   1.272986e+00 1.740877e+01 4.829708e+02
      vertex   4.034905e+00 -1.751533e+01 4.829708e+02
      vertex   5.978262e+00 1.614417e+01 4.829708e+02
    endloop
  endfacet
  facet normal 9.693260e-16 1.632813e-15 1.000000e+00
    outer loop
      vertex   5.978262e+00 1.614417e+01 4.829708e+02
      vertex   4.034905e+00 -1.751533e+01 4.829708e+02
      vertex   1.016787e+01 1.365700e+01 4.829708e+02
    endloop
  endfacet
  facet normal 1.584612e-15 1.511760e-15 1.000000e+00
    outer loop
      vertex   1.016787e+01 1.365700e+01 4.829708e+02
      vertex   4.034905e+00 -1.751533e+01 4.829708e+02
      vertex   1.353108e+01 1.013171e+01 4.829708e+02
    endloop
  endfacet
  facet normal 2.349255e-15 1.249121e-15 1.000000e+00
    outer loop
      vertex   1.353108e+01 1.013171e+01 4.829708e+02
      vertex   4.034905e+00 -1.751533e+01 4.829708e+02
      vertex   1.581847e+01 5.829764e+00 4.829708e+02
    endloop
  endfacet
  facet normal 3.364705e-15 7.365669e-16 1.000000e+00
    outer loop
      vertex   1.581847e+01 5.829764e+00 4.829708e+02
      vertex   4.034905e+00 -1.751533e+01 4.829708e+02
      vertex   1.686038e+01 1.070219e+00 4.829708e+02
    endloop
  endfacet
  facet normal 4.836741e-15 -2.792530e-16 1.000000e+00
    outer loop
      vertex   1.686038e+01 1.070219e+00 4.829708e+02
      vertex   4.034905e+00 -1.751533e+01 4.829708e+02
      vertex   1.657954e+01 -3.793934e+00 4.829708e+02
    endloop
  endfacet
  facet normal 7.258189e-15 -2.493036e-15 1.000000e+00
    outer loop
      vertex   1.657954e+01 -3.793934e+00 4.829708e+02
      vertex   4.034905e+00 -1.751533e+01 4.829708e+02
      vertex   1.499679e+01 -8.401942e+00 4.829708e+02
    endloop
  endfacet
  facet normal -1.548043e-14 2.485773e-14 1.000000e+00
    outer loop
      vertex   1.499679e+01 -8.401942e+00 4.829708e+02
      vertex   4.034905e+00 -1.751533e+01 4.829708e+02
      vertex   1.222950e+01 -1.241205e+01 4.829708e+02
    endloop
  endfacet
  facet normal 0.000000e+00 0.000000e+00 1.000000e+00
    outer loop
      vertex   1.222950e+01 -1.241205e+01 4.829708e+02
      vertex   4.034905e+00 -1.751533e+01 4.829708e+02
      vertex   8.482917e+00 -1.552685e+01 4.829708e+02
    endloop
  endfacet
  facet normal 3.646870e-14 1.939075e-14 -1.000000e+00
    outer loop
      vertex   1.023872e+01 5.622047e+00 2.301208e+02
      vertex   1.156710e+01 1.657997e+00 2.301208e+02
      vertex   7.695197e+00 8.939990e+00 2.301208e+02
    endloop
  endfacet
  facet normal -0.000000e+00 -0.000000e+00 -1.000000e+00
    outer loop
      vertex   7.695197e+00 8.939990e+00 2.301208e+02
      vertex   1.156710e+01 1.657997e+00 2.301208e+02
      vertex   4.212151e+00 1.125228e+01 2.301208e+02
    endloop
  endfacet
  facet normal 0.000000e+00 0.000000e+00 -1.000000e+00
    outer loop
      vertex   4.212151e+00 1.125228e+01 2.301208e+02
      vertex   1.156710e+01 1.657997e+00 2.301208e+02
      vertex   1.153638e+01 -2.522593e+00 2.301208e+02
    endloop
  endfacet
  facet normal -0.000000e+00 -0.000000e+00 -1.000000e+00
    outer loop
      vertex   4.212151e+00 1.125228e+01 2.301208e+02
      vertex   1.153638e+01 -2.522593e+00 2.301208e+02
      vertex   1.670287e-01 1.230833e+01 2.301208e+02
    endloop
  endfacet
  facet normal 0.000000e+00 0.000000e+00 -1.000000e+00
    outer loop
      vertex   1.670287e-01 1.230833e+01 2.301208e+02
      vertex   1.153638e+01 -2.522593e+00 2.301208e+02
      vertex   1.014989e+01 -6.466691e+00 2.301208e+02
    endloop
  endfacet
  facet normal 1.310925e-14 6.970312e-15 -1.000000e+00
    outer loop
      vertex   1.670287e-01 1.230833e+01 2.301208e+02
      vertex   1.014989e+01 -6.466691e+00 2.301208e+02
      vertex   -4.001819e+00 1.199372e+01 2.301208e+02
    endloop
  endfacet
  facet normal 1.310925e-14 6.970312e-15 -1.000000e+00
    outer loop
      vertex   -4.001819e+00 1.199372e+01 2.301208e+02
      vertex   1.014989e+01 -6.466691e+00 2.301208e+02
      vertex   7.557870e+00 -9.746893e+00 2.301208e+02
    endloop
  endfacet
  facet normal 0.000000e+00 -0.000000e+00 -1.000000e+00
    outer loop
      vertex   -4.001819e+00 1.199372e+01 2.301208e+02
      vertex   7.557870e+00 -9.746893e+00 2.301208e+02
      vertex   -7.842633e+00 1.034253e+01 2.301208e+02
    endloop
  endfacet
  facet normal 0.000000e+00 0.000000e+00 -1.000000e+00
    outer loop
      vertex   -7.842633e+00 1.034253e+01 2.301208e+02
      vertex   7.557870e+00 -9.746893e+00 2.301208e+02
      vertex   4.041216e+00 -1.200774e+01 2.301208e+02
    endloop
  endfacet
  facet normal 6.192025e-15 3.292358e-15 -1.000000e+00
    outer loop
      vertex   -7.842633e+00 1.034253e+01 2.301208e+02
      vertex   4.041216e+00 -1.200774e+01 2.301208e+02
      vertex   -1.093920e+01 7.533698e+00 2.301208e+02
    endloop
  endfacet
  facet normal 1.104094e-15 -6.080376e-16 -1.000000e+00
    outer loop
      vertex   -1.093920e+01 7.533698e+00 2.301208e+02
      vertex   4.041216e+00 -1.200774e+01 2.301208e+02
      vertex   -1.295596e+01 3.871601e+00 2.301208e+02
    endloop
  endfacet
  facet normal 1.437832e-15 -2.508057e-16 -1.000000e+00
    outer loop
      vertex   -1.295596e+01 3.871601e+00 2.301208e+02
      vertex   4.041216e+00 -1.200774e+01 2.301208e+02
      vertex   -1.367437e+01 -2.469139e-01 2.301208e+02
    endloop
  endfacet
  facet normal 1.794099e-15 2.858470e-16 -1.000000e+00
    outer loop
      vertex   -1.367437e+01 -2.469139e-01 2.301208e+02
      vertex   4.041216e+00 -1.200774e+01 2.301208e+02
      vertex   -1.301657e+01 -4.375543e+00 2.301208e+02
    endloop
  endfacet
  facet normal 2.186340e-15 1.162498e-15 -1.000000e+00
    outer loop
      vertex   -1.301657e+01 -4.375543e+00 2.301208e+02
      vertex   4.041216e+00 -1.200774e+01 2.301208e+02
      vertex   -1.105385e+01 -8.066884e+00 2.301208e+02
    endloop
  endfacet
  facet normal 2.613061e-15 2.797009e-15 -1.000000e+00
    outer loop
      vertex   -1.105385e+01 -8.066884e+00 2.301208e+02
      vertex   4.041216e+00 -1.200774e+01 2.301208e+02
      vertex   -7.998896e+00 -1.092092e+01 2.301208e+02
    endloop
  endfacet
  facet normal 2.957174e-15 6.609217e-15 -1.000000e+00
    outer loop
      vertex   -7.998896e+00 -1.092092e+01 2.301208e+02
      vertex   4.041216e+00 -1.200774e+01 2.301208e+02
      vertex   -4.182764e+00 -1.262838e+01 2.301208e+02
    endloop
  endfacet
  facet normal 1.882272e-15 2.085246e-14 -1.000000e+00
    outer loop
      vertex   -4.182764e+00 -1.262838e+01 2.301208e+02
      vertex   4.041216e+00 -1.200774e+01 2.301208e+02
      vertex   -1.899047e-02 -1.300423e+01 2.301208e+02
    endloop
  endfacet
  facet normal 9.481778e-01 3.177402e-01 3.889693e-15
    outer loop
      vertex   1.156710e+01 1.657997e+00 2.429708e+02
      vertex   1.156710e+01 1.657997e+00 2.301208e+02
      vertex   1.023872e+01 5.622047e+00 2.429708e+02
    endloop
  endfacet
  facet normal 9.481778e-01 3.177402e-01 3.649507e-15
    outer loop
      vertex   1.023872e+01 5.622047e+00 2.429708e+02
      vertex   1.156710e+01 1.657997e+00 2.301208e+02
      vertex   1.023872e+01 5.622047e+00 2.301208e+02
    endloop
  endfacet
  facet normal 7.936329e-01 6.083970e-01 3.315033e-15
    outer loop
      vertex   1.023872e+01 5.622047e+00 2.429708e+02
      vertex   1.023872e+01 5.622047e+00 2.301208e+02
      vertex   7.695197e+00 8.939990e+00 2.429708e+02
    endloop
  endfacet
  facet normal 7.936329e-01 6.083970e-01 3.631360e-15
    outer loop
      vertex   7.695197e+00 8.939990e+00 2.429708e+02
      vertex   1.023872e+01 5.622047e+00 2.301208e+02
      vertex   7.695197e+00 8.939990e+00 2.301208e+02
    endloop
  endfacet
  facet normal 5.530855e-01 8.331245e-01 2.870051e-15
    outer loop
      vertex   7.695197e+00 8.939990e+00 2.429708e+02
      vertex   7.695197e+00 8.939990e+00 2.301208e+02
      vertex   4.212151e+00 1.125228e+01 2.429708e+02
    endloop
  endfacet
  facet normal 5.530855e-01 8.331245e-01 2.678424e-15
    outer loop
      vertex   4.212151e+00 1.125228e+01 2.429708e+02
      vertex   7.695197e+00 8.939990e+00 2.301208e+02
      vertex   4.212151e+00 1.125228e+01 2.301208e+02
    endloop
  endfacet
  facet normal 2.526027e-01 9.675701e-01 1.629054e-15
    outer loop
      vertex   4.212151e+00 1.125228e+01 2.429708e+02
      vertex   4.212151e+00 1.125228e+01 2.301208e+02
      vertex   1.670287e-01 1.230833e+01 2.429708e+02
    endloop
  endfacet
  facet normal 2.526027e-01 9.675701e-01 1.629054e-15
    outer loop
      vertex   1.670287e-01 1.230833e+01 2.429708e+02
      vertex   4.212151e+00 1.125228e+01 2.301208e+02
      vertex   1.670287e-01 1.230833e+01 2.301208e+02
    endloop
  endfacet
  facet normal -7.525353e-02 9.971644e-01 4.031501e-16
    outer loop
      vertex   1.670287e-01 1.230833e+01 2.429708e+02
      vertex   1.670287e-01 1.230833e+01 2.301208e+02
      vertex   -4.001819e+00 1.199372e+01 2.429708e+02
    endloop
  endfacet
  facet normal -7.525353e-02 9.971644e-01 3.979486e-16
    outer loop
      vertex   -4.001819e+00 1.199372e+01 2.429708e+02
      vertex   1.670287e-01 1.230833e+01 2.301208e+02
      vertex   -4.001819e+00 1.199372e+01 2.301208e+02
    endloop
  endfacet
  facet normal -3.949548e-01 9.187005e-01 -8.937401e-16
    outer loop
      vertex   -4.001819e+00 1.199372e+01 2.429708e+02
      vertex   -4.001819e+00 1.199372e+01 2.301208e+02
      vertex   -7.842633e+00 1.034253e+01 2.429708e+02
    endloop
  endfacet
  facet normal -3.949548e-01 9.187005e-01 -8.664413e-16
    outer loop
      vertex   -7.842633e+00 1.034253e+01 2.429708e+02
      vertex   -4.001819e+00 1.199372e+01 2.301208e+02
      vertex   -7.842633e+00 1.034253e+01 2.301208e+02
    endloop
  endfacet
  facet normal -6.718567e-01 7.406812e-01 -2.042140e-15
    outer loop
      vertex   -7.842633e+00 1.034253e+01 2.429708e+02
      vertex   -7.842633e+00 1.034253e+01 2.301208e+02
      vertex   -1.093920e+01 7.533698e+00 2.429708e+02
    endloop
  endfacet
  facet normal -6.718567e-01 7.406812e-01 -1.995702e-15
    outer loop
      vertex   -1.093920e+01 7.533698e+00 2.429708e+02
      vertex   -7.842633e+00 1.034253e+01 2.301208e+02
      vertex   -1.093920e+01 7.533698e+00 2.301208e+02
    endloop
  endfacet
  facet normal -8.759524e-01 4.823975e-01 -2.935997e-15
    outer loop
      vertex   -1.093920e+01 7.533698e+00 2.429708e+02
      vertex   -1.093920e+01 7.533698e+00 2.301208e+02
      vertex   -1.295596e+01 3.871601e+00 2.429708e+02
    endloop
  endfacet
  facet normal -8.759524e-01 4.823975e-01 -3.057087e-15
    outer loop
      vertex   -1.295596e+01 3.871601e+00 2.429708e+02
      vertex   -1.093920e+01 7.533698e+00 2.301208e+02
      vertex   -1.295596e+01 3.871601e+00 2.301208e+02
    endloop
  endfacet
  facet normal -9.851251e-01 1.718386e-01 -3.694312e-15
    outer loop
      vertex   -1.295596e+01 3.871601e+00 2.429708e+02
      vertex   -1.295596e+01 3.871601e+00 2.301208e+02
      vertex   -1.367437e+01 -2.469139e-01 2.429708e+02
    endloop
  endfacet
  facet normal -9.851251e-01 1.718386e-01 -3.694312e-15
    outer loop
      vertex   -1.367437e+01 -2.469139e-01 2.429708e+02
      vertex   -1.295596e+01 3.871601e+00 2.301208e+02
      vertex   -1.367437e+01 -2.469139e-01 2.301208e+02
    endloop
  endfacet
  facet normal -9.875442e-01 -1.573417e-01 -3.931202e-15
    outer loop
      vertex   -1.367437e+01 -2.469139e-01 2.429708e+02
      vertex   -1.367437e+01 -2.469139e-01 2.301208e+02
      vertex   -1.301657e+01 -4.375543e+00 2.429708e+02
    endloop
  endfacet
  facet normal -9.875442e-01 -1.573417e-01 -3.794686e-15
    outer loop
      vertex   -1.301657e+01 -4.375543e+00 2.429708e+02
      vertex   -1.367437e+01 -2.469139e-01 2.301208e+02
      vertex   -1.301657e+01 -4.375543e+00 2.301208e+02
    endloop
  endfacet
  facet normal -8.829476e-01 -4.694716e-01 -3.620028e-15
    outer loop
      vertex   -1.301657e+01 -4.375543e+00 2.429708e+02
      vertex   -1.301657e+01 -4.375543e+00 2.301208e+02
      vertex   -1.105385e+01 -8.066884e+00 2.429708e+02
    endloop
  endfacet
  facet normal -8.829476e-01 -4.694716e-01 -3.620028e-15
    outer loop
      vertex   -1.105385e+01 -8.066884e+00 2.429708e+02
      vertex   -1.301657e+01 -4.375543e+00 2.301208e+02
      vertex   -1.105385e+01 -8.066884e+00 2.301208e+02
    endloop
  endfacet
  facet normal -6.826699e-01 -7.307269e-01 -3.053083e-15
    outer loop
      vertex   -1.105385e+01 -8.066884e+00 2.429708e+02
      vertex   -1.105385e+01 -8.066884e+00 2.301208e+02
      vertex   -7.998896e+00 -1.092092e+01 2.429708e+02
    endloop
  endfacet
  facet normal -6.826699e-01 -7.307269e-01 -3.201283e-15
    outer loop
      vertex   -7.998896e+00 -1.092092e+01 2.429708e+02
      vertex   -1.105385e+01 -8.066884e+00 2.301208e+02
      vertex   -7.998896e+00 -1.092092e+01 2.301208e+02
    endloop
  endfacet
  facet normal -4.084143e-01 -9.127967e-01 -2.309703e-15
    outer loop
      vertex   -7.998896e+00 -1.092092e+01 2.429708e+02
      vertex   -7.998896e+00 -1.092092e+01 2.301208e+02
      vertex   -4.182764e+00 -1.262838e+01 2.429708e+02
    endloop
  endfacet
  facet normal -4.084143e-01 -9.127967e-01 -2.085566e-15
    outer loop
      vertex   -4.182764e+00 -1.262838e+01 2.429708e+02
      vertex   -7.998896e+00 -1.092092e+01 2.301208e+02
      vertex   -4.182764e+00 -1.262838e+01 2.301208e+02
    endloop
  endfacet
  facet normal -8.990070e-02 -9.959507e-01 -8.986876e-16
    outer loop
      vertex   -4.182764e+00 -1.262838e+01 2.429708e+02
      vertex   -4.182764e+00 -1.262838e+01 2.301208e+02
      vertex   -1.899047e-02 -1.300423e+01 2.429708e+02
    endloop
  endfacet
  facet normal -8.990070e-02 -9.959507e-01 -1.167830e-15
    outer loop
      vertex   -1.899047e-02 -1.300423e+01 2.429708e+02
      vertex   -4.182764e+00 -1.262838e+01 2.301208e+02
      vertex   -1.899047e-02 -1.300423e+01 2.301208e+02
    endloop
  endfacet
  facet normal 2.383550e-01 -9.711781e-01 1.005950e-16
    outer loop
      vertex   -1.899047e-02 -1.300423e+01 2.429708e+02
      vertex   -1.899047e-02 -1.300423e+01 2.301208e+02
      vertex   4.041216e+00 -1.200774e+01 2.429708e+02
    endloop
  endfacet
  facet normal 2.383550e-01 -9.711781e-01 1.005950e-16
    outer loop
      vertex   4.041216e+00 -1.200774e+01 2.429708e+02
      vertex   -1.899047e-02 -1.300423e+01 2.301208e+02
      vertex   4.041216e+00 -1.200774e+01 2.301208e+02
    endloop
  endfacet
  facet normal 5.407813e-01 -8.411632e-01 1.358119e-15
    outer loop
      vertex   4.041216e+00 -1.200774e+01 2.429708e+02
      vertex   4.041216e+00 -1.200774e+01 2.301208e+02
      vertex   7.557870e+00 -9.746893e+00 2.429708e+02
    endloop
  endfacet
  facet normal 5.407813e-01 -8.411632e-01 1.511778e-15
    outer loop
      vertex   7.557870e+00 -9.746893e+00 2.429708e+02
      vertex   4.041216e+00 -1.200774e+01 2.301208e+02
      vertex   7.557870e+00 -9.746893e+00 2.301208e+02
    endloop
  endfacet
  facet normal 7.846055e-01 -6.199953e-01 2.608408e-15
    outer loop
      vertex   7.557870e+00 -9.746893e+00 2.429708e+02
      vertex   7.557870e+00 -9.746893e+00 2.301208e+02
      vertex   1.014989e+01 -6.466691e+00 2.429708e+02
    endloop
  endfacet
  facet normal 7.846055e-01 -6.199953e-01 2.499946e-15
    outer loop
      vertex   1.014989e+01 -6.466691e+00 2.429708e+02
      vertex   7.557870e+00 -9.746893e+00 2.301208e+02
      vertex   1.014989e+01 -6.466691e+00 2.301208e+02
    endloop
  endfacet
  facet normal 9.434056e-01 -3.316412e-01 3.291962e-15
    outer loop
      vertex   1.014989e+01 -6.466691e+00 2.429708e+02
      vertex   1.014989e+01 -6.466691e+00 2.301208e+02
      vertex   1.153638e+01 -2.522593e+00 2.429708e+02
    endloop
  endfacet
  facet normal 9.434056e-01 -3.316412e-01 3.291962e-15
    outer loop
      vertex   1.153638e+01 -2.522593e+00 2.429708e+02
      vertex   1.014989e+01 -6.466691e+00 2.301208e+02
      vertex   1.153638e+01 -2.522593e+00 2.301208e+02
    endloop
  endfacet
  facet normal 9.999730e-01 -7.348689e-03 3.727243e-15
    outer loop
      vertex   1.153638e+01 -2.522593e+00 2.429708e+02
      vertex   1.153638e+01 -2.522593e+00 2.301208e+02
      vertex   1.156710e+01 1.657997e+00 2.429708e+02
    endloop
  endfacet
  facet normal 9.999730e-01 -7.348689e-03 3.865477e-15
    outer loop
      vertex   1.156710e+01 1.657997e+00 2.429708e+02
      vertex   1.153638e+01 -2.522593e+00 2.301208e+02
      vertex   1.156710e+01 1.657997e+00 2.301208e+02
    endloop
  endfacet
endsolid
