solid CathodeTube
  facet normal 0.000000e+00 0.000000e+00 -1.000000e+00
    outer loop
      vertex   -1.677132e+01 -8.739451e+00 4.829708e+02
      vertex   -1.845162e+01 -4.166110e+00 4.829708e+02
      vertex   -1.391946e+01 -1.268986e+01 4.829708e+02
    endloop
  endfacet
  facet normal 0.000000e+00 0.000000e+00 -1.000000e+00
    outer loop
      vertex   -1.391946e+01 -1.268986e+01 4.829708e+02
      vertex   -1.845162e+01 -4.166110e+00 4.829708e+02
      vertex   -1.883574e+01 6.909780e-01 4.829708e+02
    endloop
  endfacet
  facet normal 0.000000e+00 0.000000e+00 -1.000000e+00
    outer loop
      vertex   -1.391946e+01 -1.268986e+01 4.829708e+02
      vertex   -1.883574e+01 6.909780e-01 4.829708e+02
      vertex   -1.010755e+01 -1.572436e+01 4.829708e+02
    endloop
  endfacet
  facet normal 0.000000e+00 0.000000e+00 -1.000000e+00
    outer loop
      vertex   -1.010755e+01 -1.572436e+01 4.829708e+02
      vertex   -1.883574e+01 6.909780e-01 4.829708e+02
      vertex   -1.789518e+01 5.471585e+00 4.829708e+02
    endloop
  endfacet
  facet normal 0.000000e+00 0.000000e+00 -1.000000e+00
    outer loop
      vertex   -1.010755e+01 -1.572436e+01 4.829708e+02
      vertex   -1.789518e+01 5.471585e+00 4.829708e+02
      vertex   -5.618295e+00 -1.761788e+01 4.829708e+02
    endloop
  endfacet
  facet normal 0.000000e+00 0.000000e+00 -1.000000e+00
    outer loop
      vertex   -5.618295e+00 -1.761788e+01 4.829708e+02
      vertex   -1.789518e+01 5.471585e+00 4.829708e+02
      vertex   -1.569971e+01 9.821156e+00 4.829708e+02
    endloop
  endfacet
  facet normal 2.466762e-14 9.063168e-15 -1.000000e+00
    outer loop
      vertex   -5.618295e+00 -1.761788e+01 4.829708e+02
      vertex   -1.569971e+01 9.821156e+00 4.829708e+02
      vertex   -7.846469e-01 -1.823000e+01 4.829708e+02
    endloop
  endfacet
  facet normal 2.802893e-15 -2.562515e-15 -1.000000e+00
    outer loop
      vertex   -7.846469e-01 -1.823000e+01 4.829708e+02
      vertex   -1.569971e+01 9.821156e+00 4.829708e+02
      vertex   -1.241216e+01 1.341710e+01 4.829708e+02
    endloop
  endfacet
  facet normal 5.051745e-16 -3.406723e-15 -1.000000e+00
    outer loop
      vertex   -7.846469e-01 -1.823000e+01 4.829708e+02
      vertex   -1.241216e+01 1.341710e+01 4.829708e+02
      vertex   4.034905e+00 -1.751533e+01 4.829708e+02
    endloop
  endfacet
  facet normal 1.719483e-15 -2.761064e-15 -1.000000e+00
    outer loop
      vertex   4.034905e+00 -1.751533e+01 4.829708e+02
      vertex   -1.241216e+01 1.341710e+01 4.829708e+02
      vertex   -8.276339e+00 1.599273e+01 4.829708e+02
    endloop
  endfacet
  facet normal 8.938274e-16 -3.064419e-15 -1.000000e+00
    outer loop
      vertex   4.034905e+00 -1.751533e+01 4.829708e+02
      vertex   -8.276339e+00 1.599273e+01 4.829708e+02
      vertex   -3.598992e+00 1.735701e+01 4.829708e+02
    endloop
  endfacet
  facet normal 3.455526e-17 -3.252522e-15 -1.000000e+00
    outer loop
      vertex   -3.598992e+00 1.735701e+01 4.829708e+02
      vertex   1.272986e+00 1.740877e+01 4.829708e+02
      vertex   4.034905e+00 -1.751533e+01 4.829708e+02
    endloop
  endfacet
  facet normal -8.938903e-16 -3.325947e-15 -1.000000e+00
    outer loop
      vertex   4.034905e+00 -1.751533e+01 4.829708e+02
      vertex   1.272986e+00 1.740877e+01 4.829708e+02
      vertex   5.978262e+00 1.614417e+01 4.829708e+02
    endloop
  endfacet
  facet normal -1.938652e-15 -3.265627e-15 -1.000000e+00
    outer loop
      vertex   4.034905e+00 -1.751533e+01 4.829708e+02
      vertex   5.978262e+00 1.614417e+01 4.829708e+02
      vertex   1.016787e+01 1.365700e+01 4.829708e+02
    endloop
  endfacet
  facet normal -3.169224e-15 -3.023519e-15 -1.000000e+00
    outer loop
      vertex   1.016787e+01 1.365700e+01 4.829708e+02
      vertex   1.353108e+01 1.013171e+01 4.829708e+02
      vertex   4.034905e+00 -1.751533e+01 4.829708e+02
    endloop
  endfacet
  facet normal -4.698509e-15 -2.498242e-15 -1.000000e+00
    outer loop
      vertex   4.034905e+00 -1.751533e+01 4.829708e+02
      vertex   1.353108e+01 1.013171e+01 4.829708e+02
      vertex   1.581847e+01 5.829764e+00 4.829708e+02
    endloop
  endfacet
  facet normal -6.729409e-15 -1.473134e-15 -1.000000e+00
    outer loop
      vertex   4.034905e+00 -1.751533e+01 4.829708e+02
      vertex   1.581847e+01 5.829764e+00 4.829708e+02
      vertex   1.686038e+01 1.070219e+00 4.829708e+02
    endloop
  endfacet
  facet normal -9.673483e-15 5.585060e-16 -1.000000e+00
    outer loop
      vertex   1.686038e+01 1.070219e+00 4.829708e+02
      vertex   1.657954e+01 -3.793934e+00 4.829708e+02
      vertex   4.034905e+00 -1.751533e+01 4.829708e+02
    endloop
  endfacet
  facet normal -1.451638e-14 4.986071e-15 -1.000000e+00
    outer loop
      vertex   4.034905e+00 -1.751533e+01 4.829708e+02
      vertex   1.657954e+01 -3.793934e+00 4.829708e+02
      vertex   1.499679e+01 -8.401942e+00 4.829708e+02
    endloop
  endfacet
  facet normal 3.096086e-14 -4.971546e-14 -1.000000e+00
    outer loop
      vertex   4.034905e+00 -1.751533e+01 4.829708e+02
      vertex   1.499679e+01 -8.401942e+00 4.829708e+02
      vertex   1.222950e+01 -1.241205e+01 4.829708e+02
    endloop
  endfacet
  facet normal 0.000000e+00 0.000000e+00 -1.000000e+00
    outer loop
      vertex   1.222950e+01 -1.241205e+01 4.829708e+02
      vertex   8.482917e+00 -1.552685e+01 4.829708e+02
      vertex   4.034905e+00 -1.751533e+01 4.829708e+02
    endloop
  endfacet
  facet normal 0.000000e+00 -0.000000e+00 1.000000e+00
    outer loop
      vertex   -1.490700e+01 -1.333231e+01 4.879708e+02
      vertex   1.758704e+01 3.945075e+00 4.879708e+02
      vertex   -1.779486e+01 -9.283676e+00 4.879708e+02
    endloop
  endfacet
  facet normal 0.000000e+00 0.000000e+00 1.000000e+00
    outer loop
      vertex   -1.779486e+01 -9.283676e+00 4.879708e+02
      vertex   1.758704e+01 3.945075e+00 4.879708e+02
      vertex   1.584544e+01 8.603191e+00 4.879708e+02
    endloop
  endfacet
  facet normal 0.000000e+00 -0.000000e+00 1.000000e+00
    outer loop
      vertex   -1.779486e+01 -9.283676e+00 4.879708e+02
      vertex   1.584544e+01 8.603191e+00 4.879708e+02
      vertex   -1.953646e+01 -4.625560e+00 4.879708e+02
    endloop
  endfacet
  facet normal 0.000000e+00 0.000000e+00 1.000000e+00
    outer loop
      vertex   -1.953646e+01 -4.625560e+00 4.879708e+02
      vertex   1.584544e+01 8.603191e+00 4.879708e+02
      vertex   1.295758e+01 1.265183e+01 4.879708e+02
    endloop
  endfacet
  facet normal 0.000000e+00 -0.000000e+00 1.000000e+00
    outer loop
      vertex   -1.953646e+01 -4.625560e+00 4.879708e+02
      vertex   1.295758e+01 1.265183e+01 4.879708e+02
      vertex   -2.001311e+01 3.245932e-01 4.879708e+02
    endloop
  endfacet
  facet normal 0.000000e+00 0.000000e+00 1.000000e+00
    outer loop
      vertex   -2.001311e+01 3.245932e-01 4.879708e+02
      vertex   1.295758e+01 1.265183e+01 4.879708e+02
      vertex   9.120252e+00 1.581507e+01 4.879708e+02
    endloop
  endfacet
  facet normal 0.000000e+00 0.000000e+00 1.000000e+00
    outer loop
      vertex   -2.001311e+01 3.245932e-01 4.879708e+02
      vertex   9.120252e+00 1.581507e+01 4.879708e+02
      vertex   -1.919232e+01 5.229439e+00 4.879708e+02
    endloop
  endfacet
  facet normal 0.000000e+00 0.000000e+00 1.000000e+00
    outer loop
      vertex   -1.919232e+01 5.229439e+00 4.879708e+02
      vertex   9.120252e+00 1.581507e+01 4.879708e+02
      vertex   4.594971e+00 1.787736e+01 4.879708e+02
    endloop
  endfacet
  facet normal -1.762989e-14 3.315701e-14 1.000000e+00
    outer loop
      vertex   -1.919232e+01 5.229439e+00 4.879708e+02
      vertex   4.594971e+00 1.787736e+01 4.879708e+02
      vertex   -1.713003e+01 9.754720e+00 4.879708e+02
    endloop
  endfacet
  facet normal -1.762989e-14 3.315701e-14 1.000000e+00
    outer loop
      vertex   -1.713003e+01 9.754720e+00 4.879708e+02
      vertex   4.594971e+00 1.787736e+01 4.879708e+02
      vertex   -3.098748e-01 1.869815e+01 4.879708e+02
    endloop
  endfacet
  facet normal 0.000000e+00 0.000000e+00 1.000000e+00
    outer loop
      vertex   -1.713003e+01 9.754720e+00 4.879708e+02
      vertex   -3.098748e-01 1.869815e+01 4.879708e+02
      vertex   -1.396678e+01 1.359205e+01 4.879708e+02
    endloop
  endfacet
  facet normal 0.000000e+00 0.000000e+00 1.000000e+00
    outer loop
      vertex   -1.396678e+01 1.359205e+01 4.879708e+02
      vertex   -3.098748e-01 1.869815e+01 4.879708e+02
      vertex   -5.260028e+00 1.822151e+01 4.879708e+02
    endloop
  endfacet
  facet normal 0.000000e+00 0.000000e+00 1.000000e+00
    outer loop
      vertex   -1.396678e+01 1.359205e+01 4.879708e+02
      vertex   -5.260028e+00 1.822151e+01 4.879708e+02
      vertex   -9.918144e+00 1.647991e+01 4.879708e+02
    endloop
  endfacet
  facet normal 0.000000e+00 0.000000e+00 1.000000e+00
    outer loop
      vertex   1.758704e+01 3.945075e+00 4.879708e+02
      vertex   -1.490700e+01 -1.333231e+01 4.879708e+02
      vertex   1.806369e+01 -1.005078e+00 4.879708e+02
    endloop
  endfacet
  facet normal 0.000000e+00 0.000000e+00 1.000000e+00
    outer loop
      vertex   1.806369e+01 -1.005078e+00 4.879708e+02
      vertex   -1.490700e+01 -1.333231e+01 4.879708e+02
      vertex   -1.106967e+01 -1.649556e+01 4.879708e+02
    endloop
  endfacet
  facet normal 0.000000e+00 0.000000e+00 1.000000e+00
    outer loop
      vertex   1.806369e+01 -1.005078e+00 4.879708e+02
      vertex   -1.106967e+01 -1.649556e+01 4.879708e+02
      vertex   1.724290e+01 -5.909923e+00 4.879708e+02
    endloop
  endfacet
  facet normal 0.000000e+00 0.000000e+00 1.000000e+00
    outer loop
      vertex   1.724290e+01 -5.909923e+00 4.879708e+02
      vertex   -1.106967e+01 -1.649556e+01 4.879708e+02
      vertex   -6.544391e+00 -1.855785e+01 4.879708e+02
    endloop
  endfacet
  facet normal 0.000000e+00 0.000000e+00 1.000000e+00
    outer loop
      vertex   1.724290e+01 -5.909923e+00 4.879708e+02
      vertex   -6.544391e+00 -1.855785e+01 4.879708e+02
      vertex   1.518061e+01 -1.043520e+01 4.879708e+02
    endloop
  endfacet
  facet normal 0.000000e+00 0.000000e+00 1.000000e+00
    outer loop
      vertex   1.518061e+01 -1.043520e+01 4.879708e+02
      vertex   -6.544391e+00 -1.855785e+01 4.879708e+02
      vertex   -1.639546e+00 -1.937864e+01 4.879708e+02
    endloop
  endfacet
  facet normal 0.000000e+00 0.000000e+00 1.000000e+00
    outer loop
      vertex   1.518061e+01 -1.043520e+01 4.879708e+02
      vertex   -1.639546e+00 -1.937864e+01 4.879708e+02
      vertex   1.201736e+01 -1.427253e+01 4.879708e+02
    endloop
  endfacet
  facet normal 0.000000e+00 0.000000e+00 1.000000e+00
    outer loop
      vertex   1.201736e+01 -1.427253e+01 4.879708e+02
      vertex   -1.639546e+00 -1.937864e+01 4.879708e+02
      vertex   3.310607e+00 -1.890199e+01 4.879708e+02
    endloop
  endfacet
  facet normal 0.000000e+00 0.000000e+00 1.000000e+00
    outer loop
      vertex   1.201736e+01 -1.427253e+01 4.879708e+02
      vertex   3.310607e+00 -1.890199e+01 4.879708e+02
      vertex   7.968723e+00 -1.716039e+01 4.879708e+02
    endloop
  endfacet
  facet normal 8.107974e-01 5.853269e-01 -2.075518e-16
    outer loop
      vertex   -1.391946e+01 -1.268986e+01 4.829708e+02
      vertex   -1.391946e+01 -1.268986e+01 4.029708e+02
      vertex   -1.677132e+01 -8.739451e+00 4.829708e+02
    endloop
  endfacet
  facet normal 8.107974e-01 5.853269e-01 -2.435584e-16
    outer loop
      vertex   -1.677132e+01 -8.739451e+00 4.829708e+02
      vertex   -1.391946e+01 -1.268986e+01 4.029708e+02
      vertex   -1.677132e+01 -8.739451e+00 4.029708e+02
    endloop
  endfacet
  facet normal 9.386501e-01 3.448709e-01 3.682359e-16
    outer loop
      vertex   -1.677132e+01 -8.739451e+00 4.829708e+02
      vertex   -1.677132e+01 -8.739451e+00 4.029708e+02
      vertex   -1.845162e+01 -4.166110e+00 4.829708e+02
    endloop
  endfacet
  facet normal 9.386501e-01 3.448709e-01 3.376052e-16
    outer loop
      vertex   -1.845162e+01 -4.166110e+00 4.829708e+02
      vertex   -1.677132e+01 -8.739451e+00 4.029708e+02
      vertex   -1.845162e+01 -4.166110e+00 4.029708e+02
    endloop
  endfacet
  facet normal 9.968875e-01 7.883734e-02 9.457177e-16
    outer loop
      vertex   -1.845162e+01 -4.166110e+00 4.829708e+02
      vertex   -1.845162e+01 -4.166110e+00 4.029708e+02
      vertex   -1.883574e+01 6.909780e-01 4.829708e+02
    endloop
  endfacet
  facet normal 9.968875e-01 7.883734e-02 9.934895e-16
    outer loop
      vertex   -1.883574e+01 6.909780e-01 4.829708e+02
      vertex   -1.845162e+01 -4.166110e+00 4.029708e+02
      vertex   -1.883574e+01 6.909780e-01 4.029708e+02
    endloop
  endfacet
  facet normal 9.811903e-01 -1.930432e-01 1.518691e-15
    outer loop
      vertex   -1.883574e+01 6.909780e-01 4.829708e+02
      vertex   -1.883574e+01 6.909780e-01 4.029708e+02
      vertex   -1.789518e+01 5.471585e+00 4.829708e+02
    endloop
  endfacet
  facet normal 9.811903e-01 -1.930432e-01 1.475118e-15
    outer loop
      vertex   -1.789518e+01 5.471585e+00 4.829708e+02
      vertex   -1.883574e+01 6.909780e-01 4.029708e+02
      vertex   -1.789518e+01 5.471585e+00 4.029708e+02
    endloop
  endfacet
  facet normal 8.927226e-01 -4.506066e-01 1.891614e-15
    outer loop
      vertex   -1.789518e+01 5.471585e+00 4.829708e+02
      vertex   -1.789518e+01 5.471585e+00 4.029708e+02
      vertex   -1.569971e+01 9.821156e+00 4.829708e+02
    endloop
  endfacet
  facet normal 8.927226e-01 -4.506066e-01 1.911625e-15
    outer loop
      vertex   -1.569971e+01 9.821156e+00 4.829708e+02
      vertex   -1.789518e+01 5.471585e+00 4.029708e+02
      vertex   -1.569971e+01 9.821156e+00 4.029708e+02
    endloop
  endfacet
  facet normal 7.380459e-01 -6.747506e-01 2.197783e-15
    outer loop
      vertex   -1.569971e+01 9.821156e+00 4.829708e+02
      vertex   -1.569971e+01 9.821156e+00 4.029708e+02
      vertex   -1.241216e+01 1.341710e+01 4.829708e+02
    endloop
  endfacet
  facet normal 7.380459e-01 -6.747506e-01 2.197783e-15
    outer loop
      vertex   -1.241216e+01 1.341710e+01 4.829708e+02
      vertex   -1.569971e+01 9.821156e+00 4.029708e+02
      vertex   -1.241216e+01 1.341710e+01 4.029708e+02
    endloop
  endfacet
  facet normal 5.286316e-01 -8.488514e-01 2.320941e-15
    outer loop
      vertex   -1.241216e+01 1.341710e+01 4.829708e+02
      vertex   -1.241216e+01 1.341710e+01 4.029708e+02
      vertex   -8.276339e+00 1.599273e+01 4.829708e+02
    endloop
  endfacet
  facet normal 5.286316e-01 -8.488514e-01 2.332679e-15
    outer loop
      vertex   -8.276339e+00 1.599273e+01 4.829708e+02
      vertex   -1.241216e+01 1.341710e+01 4.029708e+02
      vertex   -8.276339e+00 1.599273e+01 4.029708e+02
    endloop
  endfacet
  facet normal 2.800111e-01 -9.599968e-01 2.278184e-15
    outer loop
      vertex   -8.276339e+00 1.599273e+01 4.829708e+02
      vertex   -8.276339e+00 1.599273e+01 4.029708e+02
      vertex   -3.598992e+00 1.735701e+01 4.829708e+02
    endloop
  endfacet
  facet normal 2.800111e-01 -9.599968e-01 2.235551e-15
    outer loop
      vertex   -3.598992e+00 1.735701e+01 4.829708e+02
      vertex   -8.276339e+00 1.599273e+01 4.029708e+02
      vertex   -3.598992e+00 1.735701e+01 4.029708e+02
    endloop
  endfacet
  facet normal 1.062354e-02 -9.999436e-01 2.010319e-15
    outer loop
      vertex   -3.598992e+00 1.735701e+01 4.829708e+02
      vertex   -3.598992e+00 1.735701e+01 4.029708e+02
      vertex   1.272986e+00 1.740877e+01 4.829708e+02
    endloop
  endfacet
  facet normal 1.062354e-02 -9.999436e-01 2.010083e-15
    outer loop
      vertex   1.272986e+00 1.740877e+01 4.829708e+02
      vertex   -3.598992e+00 1.735701e+01 4.029708e+02
      vertex   1.272986e+00 1.740877e+01 4.029708e+02
    endloop
  endfacet
  facet normal -2.595520e-01 -9.657291e-01 1.641754e-15
    outer loop
      vertex   1.272986e+00 1.740877e+01 4.829708e+02
      vertex   1.272986e+00 1.740877e+01 4.029708e+02
      vertex   5.978262e+00 1.614417e+01 4.829708e+02
    endloop
  endfacet
  facet normal -2.595520e-01 -9.657291e-01 1.598867e-15
    outer loop
      vertex   5.978262e+00 1.614417e+01 4.829708e+02
      vertex   1.272986e+00 1.740877e+01 4.029708e+02
      vertex   5.978262e+00 1.614417e+01 4.029708e+02
    endloop
  endfacet
  facet normal -5.104777e-01 -8.598910e-01 1.113477e-15
    outer loop
      vertex   5.978262e+00 1.614417e+01 4.829708e+02
      vertex   5.978262e+00 1.614417e+01 4.029708e+02
      vertex   1.016787e+01 1.365700e+01 4.829708e+02
    endloop
  endfacet
  facet normal -5.104777e-01 -8.598910e-01 1.170757e-15
    outer loop
      vertex   1.016787e+01 1.365700e+01 4.829708e+02
      vertex   5.978262e+00 1.614417e+01 4.029708e+02
      vertex   1.016787e+01 1.365700e+01 4.029708e+02
    endloop
  endfacet
  facet normal -7.235436e-01 -6.902787e-01 5.914865e-16
    outer loop
      vertex   1.016787e+01 1.365700e+01 4.829708e+02
      vertex   1.016787e+01 1.365700e+01 4.029708e+02
      vertex   1.353108e+01 1.013171e+01 4.829708e+02
    endloop
  endfacet
  facet normal -7.235436e-01 -6.902787e-01 5.761592e-16
    outer loop
      vertex   1.353108e+01 1.013171e+01 4.829708e+02
      vertex   1.016787e+01 1.365700e+01 4.029708e+02
      vertex   1.353108e+01 1.013171e+01 4.029708e+02
    endloop
  endfacet
  facet normal -8.829476e-01 -4.694716e-01 -4.207610e-17
    outer loop
      vertex   1.353108e+01 1.013171e+01 4.829708e+02
      vertex   1.353108e+01 1.013171e+01 4.029708e+02
      vertex   1.581847e+01 5.829764e+00 4.829708e+02
    endloop
  endfacet
  facet normal -8.829476e-01 -4.694716e-01 -4.207610e-17
    outer loop
      vertex   1.581847e+01 5.829764e+00 4.829708e+02
      vertex   1.353108e+01 1.013171e+01 4.029708e+02
      vertex   1.581847e+01 5.829764e+00 4.029708e+02
    endloop
  endfacet
  facet normal -9.768674e-01 -2.138459e-01 -6.571908e-16
    outer loop
      vertex   1.581847e+01 5.829764e+00 4.829708e+02
      vertex   1.581847e+01 5.829764e+00 4.029708e+02
      vertex   1.686038e+01 1.070219e+00 4.829708e+02
    endloop
  endfacet
  facet normal -9.768674e-01 -2.138459e-01 -6.910758e-16
    outer loop
      vertex   1.686038e+01 1.070219e+00 4.829708e+02
      vertex   1.581847e+01 5.829764e+00 4.029708e+02
      vertex   1.686038e+01 1.070219e+00 4.029708e+02
    endloop
  endfacet
  facet normal -9.983374e-01 5.763978e-02 -1.270459e-15
    outer loop
      vertex   1.686038e+01 1.070219e+00 4.829708e+02
      vertex   1.686038e+01 1.070219e+00 4.029708e+02
      vertex   1.657954e+01 -3.793934e+00 4.829708e+02
    endloop
  endfacet
  facet normal -9.983374e-01 5.763978e-02 -1.176670e-15
    outer loop
      vertex   1.657954e+01 -3.793934e+00 4.829708e+02
      vertex   1.686038e+01 1.070219e+00 4.029708e+02
      vertex   1.657954e+01 -3.793934e+00 4.029708e+02
    endloop
  endfacet
  facet normal -9.457654e-01 3.248506e-01 -1.642766e-15
    outer loop
      vertex   1.657954e+01 -3.793934e+00 4.829708e+02
      vertex   1.657954e+01 -3.793934e+00 4.029708e+02
      vertex   1.499679e+01 -8.401942e+00 4.829708e+02
    endloop
  endfacet
  facet normal -9.457654e-01 3.248506e-01 -1.826472e-15
    outer loop
      vertex   1.499679e+01 -8.401942e+00 4.829708e+02
      vertex   1.657954e+01 -3.793934e+00 4.029708e+02
      vertex   1.499679e+01 -8.401942e+00 4.029708e+02
    endloop
  endfacet
  facet normal -8.230502e-01 5.679687e-01 -2.197569e-15
    outer loop
      vertex   1.499679e+01 -8.401942e+00 4.829708e+02
      vertex   1.499679e+01 -8.401942e+00 4.029708e+02
      vertex   1.222950e+01 -1.241205e+01 4.829708e+02
    endloop
  endfacet
  facet normal -8.230502e-01 5.679687e-01 -2.110572e-15
    outer loop
      vertex   1.222950e+01 -1.241205e+01 4.829708e+02
      vertex   1.499679e+01 -8.401942e+00 4.029708e+02
      vertex   1.222950e+01 -1.241205e+01 4.029708e+02
    endloop
  endfacet
  facet normal -6.392931e-01 7.689631e-01 -2.308994e-15
    outer loop
      vertex   1.222950e+01 -1.241205e+01 4.829708e+02
      vertex   1.222950e+01 -1.241205e+01 4.029708e+02
      vertex   8.482917e+00 -1.552685e+01 4.829708e+02
    endloop
  endfacet
  facet normal -6.392931e-01 7.689631e-01 -2.155526e-15
    outer loop
      vertex   8.482917e+00 -1.552685e+01 4.829708e+02
      vertex   1.222950e+01 -1.241205e+01 4.029708e+02
      vertex   8.482917e+00 -1.552685e+01 4.029708e+02
    endloop
  endfacet
  facet normal -4.081226e-01 9.129271e-01 -2.200711e-15
    outer loop
      vertex   8.482917e+00 -1.552685e+01 4.829708e+02
      vertex   8.482917e+00 -1.552685e+01 4.029708e+02
      vertex   4.034905e+00 -1.751533e+01 4.829708e+02
    endloop
  endfacet
  facet normal -4.081226e-01 9.129271e-01 -2.255084e-15
    outer loop
      vertex   4.034905e+00 -1.751533e+01 4.829708e+02
      vertex   8.482917e+00 -1.552685e+01 4.029708e+02
      vertex   4.034905e+00 -1.751533e+01 4.029708e+02
    endloop
  endfacet
  facet normal -1.466836e-01 9.891835e-01 -2.102223e-15
    outer loop
      vertex   4.034905e+00 -1.751533e+01 4.829708e+02
      vertex   4.034905e+00 -1.751533e+01 4.029708e+02
      vertex   -7.846469e-01 -1.823000e+01 4.829708e+02
    endloop
  endfacet
  facet normal -1.466836e-01 9.891835e-01 -2.190080e-15
    outer loop
      vertex   -7.846469e-01 -1.823000e+01 4.829708e+02
      vertex   4.034905e+00 -1.751533e+01 4.029708e+02
      vertex   -7.846469e-01 -1.823000e+01 4.029708e+02
    endloop
  endfacet
  facet normal 1.256344e-01 9.920766e-01 -1.881563e-15
    outer loop
      vertex   -7.846469e-01 -1.823000e+01 4.829708e+02
      vertex   -7.846469e-01 -1.823000e+01 4.029708e+02
      vertex   -5.618295e+00 -1.761788e+01 4.829708e+02
    endloop
  endfacet
  facet normal 1.256344e-01 9.920766e-01 -1.884353e-15
    outer loop
      vertex   -5.618295e+00 -1.761788e+01 4.829708e+02
      vertex   -7.846469e-01 -1.823000e+01 4.029708e+02
      vertex   -5.618295e+00 -1.761788e+01 4.029708e+02
    endloop
  endfacet
  facet normal 3.886346e-01 9.213920e-01 -1.442129e-15
    outer loop
      vertex   -5.618295e+00 -1.761788e+01 4.829708e+02
      vertex   -5.618295e+00 -1.761788e+01 4.029708e+02
      vertex   -1.010755e+01 -1.572436e+01 4.829708e+02
    endloop
  endfacet
  facet normal 3.886346e-01 9.213920e-01 -1.360293e-15
    outer loop
      vertex   -1.010755e+01 -1.572436e+01 4.829708e+02
      vertex   -5.618295e+00 -1.761788e+01 4.029708e+02
      vertex   -1.010755e+01 -1.572436e+01 4.029708e+02
    endloop
  endfacet
  facet normal 6.228115e-01 7.823719e-01 -8.234600e-16
    outer loop
      vertex   -1.010755e+01 -1.572436e+01 4.829708e+02
      vertex   -1.010755e+01 -1.572436e+01 4.029708e+02
      vertex   -1.391946e+01 -1.268986e+01 4.829708e+02
    endloop
  endfacet
  facet normal 6.228115e-01 7.823719e-01 -8.096308e-16
    outer loop
      vertex   -1.391946e+01 -1.268986e+01 4.829708e+02
      vertex   -1.010755e+01 -1.572436e+01 4.029708e+02
      vertex   -1.391946e+01 -1.268986e+01 4.029708e+02
    endloop
  endfacet
  facet normal 9.386501e-01 3.448709e-01 3.792897e-16
    outer loop
      vertex   -1.845162e+01 -4.166110e+00 2.429708e+02
      vertex   -1.845162e+01 -4.166110e+00 3.229708e+02
      vertex   -1.677132e+01 -8.739451e+00 2.429708e+02
    endloop
  endfacet
  facet normal 9.386501e-01 3.448709e-01 3.376052e-16
    outer loop
      vertex   -1.677132e+01 -8.739451e+00 2.429708e+02
      vertex   -1.845162e+01 -4.166110e+00 3.229708e+02
      vertex   -1.677132e+01 -8.739451e+00 3.229708e+02
    endloop
  endfacet
  facet normal 8.107974e-01 5.853269e-01 -2.955459e-16
    outer loop
      vertex   -1.677132e+01 -8.739451e+00 2.429708e+02
      vertex   -1.677132e+01 -8.739451e+00 3.229708e+02
      vertex   -1.391946e+01 -1.268986e+01 2.429708e+02
    endloop
  endfacet
  facet normal 8.107974e-01 5.853269e-01 -2.955459e-16
    outer loop
      vertex   -1.391946e+01 -1.268986e+01 2.429708e+02
      vertex   -1.677132e+01 -8.739451e+00 3.229708e+02
      vertex   -1.391946e+01 -1.268986e+01 3.229708e+02
    endloop
  endfacet
  facet normal 6.228115e-01 7.823719e-01 -9.067777e-16
    outer loop
      vertex   -1.391946e+01 -1.268986e+01 2.429708e+02
      vertex   -1.391946e+01 -1.268986e+01 3.229708e+02
      vertex   -1.010755e+01 -1.572436e+01 2.429708e+02
    endloop
  endfacet
  facet normal 6.228115e-01 7.823719e-01 -8.372892e-16
    outer loop
      vertex   -1.010755e+01 -1.572436e+01 2.429708e+02
      vertex   -1.391946e+01 -1.268986e+01 3.229708e+02
      vertex   -1.010755e+01 -1.572436e+01 3.229708e+02
    endloop
  endfacet
  facet normal 3.886346e-01 9.213920e-01 -1.368922e-15
    outer loop
      vertex   -1.010755e+01 -1.572436e+01 2.429708e+02
      vertex   -1.010755e+01 -1.572436e+01 3.229708e+02
      vertex   -5.618295e+00 -1.761788e+01 2.429708e+02
    endloop
  endfacet
  facet normal 3.886346e-01 9.213920e-01 -1.498076e-15
    outer loop
      vertex   -5.618295e+00 -1.761788e+01 2.429708e+02
      vertex   -1.010755e+01 -1.572436e+01 3.229708e+02
      vertex   -5.618295e+00 -1.761788e+01 3.229708e+02
    endloop
  endfacet
  facet normal 1.256344e-01 9.920766e-01 -1.964098e-15
    outer loop
      vertex   -5.618295e+00 -1.761788e+01 2.429708e+02
      vertex   -5.618295e+00 -1.761788e+01 3.229708e+02
      vertex   -7.846469e-01 -1.823000e+01 2.429708e+02
    endloop
  endfacet
  facet normal 1.256344e-01 9.920766e-01 -1.790659e-15
    outer loop
      vertex   -7.846469e-01 -1.823000e+01 2.429708e+02
      vertex   -5.618295e+00 -1.761788e+01 3.229708e+02
      vertex   -7.846469e-01 -1.823000e+01 3.229708e+02
    endloop
  endfacet
  facet normal -1.466836e-01 9.891835e-01 -2.105480e-15
    outer loop
      vertex   -7.846469e-01 -1.823000e+01 2.429708e+02
      vertex   -7.846469e-01 -1.823000e+01 3.229708e+02
      vertex   4.034905e+00 -1.751533e+01 2.429708e+02
    endloop
  endfacet
  facet normal -1.466836e-01 9.891835e-01 -2.271423e-15
    outer loop
      vertex   4.034905e+00 -1.751533e+01 2.429708e+02
      vertex   -7.846469e-01 -1.823000e+01 3.229708e+02
      vertex   4.034905e+00 -1.751533e+01 3.229708e+02
    endloop
  endfacet
  facet normal -4.081226e-01 9.129271e-01 -2.399128e-15
    outer loop
      vertex   4.034905e+00 -1.751533e+01 2.429708e+02
      vertex   4.034905e+00 -1.751533e+01 3.229708e+02
      vertex   8.482917e+00 -1.552685e+01 2.429708e+02
    endloop
  endfacet
  facet normal -4.081226e-01 9.129271e-01 -2.255084e-15
    outer loop
      vertex   8.482917e+00 -1.552685e+01 2.429708e+02
      vertex   4.034905e+00 -1.751533e+01 3.229708e+02
      vertex   8.482917e+00 -1.552685e+01 3.229708e+02
    endloop
  endfacet
  facet normal -6.392931e-01 7.689631e-01 -2.240696e-15
    outer loop
      vertex   8.482917e+00 -1.552685e+01 2.429708e+02
      vertex   8.482917e+00 -1.552685e+01 3.229708e+02
      vertex   1.222950e+01 -1.241205e+01 2.429708e+02
    endloop
  endfacet
  facet normal -6.392931e-01 7.689631e-01 -2.377292e-15
    outer loop
      vertex   1.222950e+01 -1.241205e+01 2.429708e+02
      vertex   8.482917e+00 -1.552685e+01 3.229708e+02
      vertex   1.222950e+01 -1.241205e+01 3.229708e+02
    endloop
  endfacet
  facet normal -8.230502e-01 5.679687e-01 -2.161018e-15
    outer loop
      vertex   1.222950e+01 -1.241205e+01 2.429708e+02
      vertex   1.222950e+01 -1.241205e+01 3.229708e+02
      vertex   1.499679e+01 -8.401942e+00 2.429708e+02
    endloop
  endfacet
  facet normal -8.230502e-01 5.679687e-01 -2.124467e-15
    outer loop
      vertex   1.499679e+01 -8.401942e+00 2.429708e+02
      vertex   1.222950e+01 -1.241205e+01 3.229708e+02
      vertex   1.499679e+01 -8.401942e+00 3.229708e+02
    endloop
  endfacet
  facet normal -9.457654e-01 3.248506e-01 -1.742471e-15
    outer loop
      vertex   1.499679e+01 -8.401942e+00 2.429708e+02
      vertex   1.499679e+01 -8.401942e+00 3.229708e+02
      vertex   1.657954e+01 -3.793934e+00 2.429708e+02
    endloop
  endfacet
  facet normal -9.457654e-01 3.248506e-01 -1.755619e-15
    outer loop
      vertex   1.657954e+01 -3.793934e+00 2.429708e+02
      vertex   1.499679e+01 -8.401942e+00 3.229708e+02
      vertex   1.657954e+01 -3.793934e+00 3.229708e+02
    endloop
  endfacet
  facet normal -9.983374e-01 5.763978e-02 -1.270459e-15
    outer loop
      vertex   1.657954e+01 -3.793934e+00 2.429708e+02
      vertex   1.657954e+01 -3.793934e+00 3.229708e+02
      vertex   1.686038e+01 1.070219e+00 2.429708e+02
    endloop
  endfacet
  facet normal -9.983374e-01 5.763978e-02 -1.176670e-15
    outer loop
      vertex   1.686038e+01 1.070219e+00 2.429708e+02
      vertex   1.657954e+01 -3.793934e+00 3.229708e+02
      vertex   1.686038e+01 1.070219e+00 3.229708e+02
    endloop
  endfacet
  facet normal -9.768674e-01 -2.138459e-01 -6.233058e-16
    outer loop
      vertex   1.686038e+01 1.070219e+00 2.429708e+02
      vertex   1.686038e+01 1.070219e+00 3.229708e+02
      vertex   1.581847e+01 5.829764e+00 2.429708e+02
    endloop
  endfacet
  facet normal -9.768674e-01 -2.138459e-01 -6.571908e-16
    outer loop
      vertex   1.581847e+01 5.829764e+00 2.429708e+02
      vertex   1.686038e+01 1.070219e+00 3.229708e+02
      vertex   1.581847e+01 5.829764e+00 3.229708e+02
    endloop
  endfacet
  facet normal -8.829476e-01 -4.694716e-01 -4.207610e-17
    outer loop
      vertex   1.581847e+01 5.829764e+00 2.429708e+02
      vertex   1.581847e+01 5.829764e+00 3.229708e+02
      vertex   1.353108e+01 1.013171e+01 2.429708e+02
    endloop
  endfacet
  facet normal -8.829476e-01 -4.694716e-01 -2.122737e-17
    outer loop
      vertex   1.353108e+01 1.013171e+01 2.429708e+02
      vertex   1.581847e+01 5.829764e+00 3.229708e+02
      vertex   1.353108e+01 1.013171e+01 3.229708e+02
    endloop
  endfacet
  facet normal -7.235436e-01 -6.902787e-01 6.068137e-16
    outer loop
      vertex   1.353108e+01 1.013171e+01 2.429708e+02
      vertex   1.353108e+01 1.013171e+01 3.229708e+02
      vertex   1.016787e+01 1.365700e+01 2.429708e+02
    endloop
  endfacet
  facet normal -7.235436e-01 -6.902787e-01 5.440274e-16
    outer loop
      vertex   1.016787e+01 1.365700e+01 2.429708e+02
      vertex   1.353108e+01 1.013171e+01 3.229708e+02
      vertex   1.016787e+01 1.365700e+01 3.229708e+02
    endloop
  endfacet
  facet normal -5.104777e-01 -8.598910e-01 1.128994e-15
    outer loop
      vertex   1.016787e+01 1.365700e+01 2.429708e+02
      vertex   1.016787e+01 1.365700e+01 3.229708e+02
      vertex   5.978262e+00 1.614417e+01 2.429708e+02
    endloop
  endfacet
  facet normal -5.104777e-01 -8.598910e-01 1.189850e-15
    outer loop
      vertex   5.978262e+00 1.614417e+01 2.429708e+02
      vertex   1.016787e+01 1.365700e+01 3.229708e+02
      vertex   5.978262e+00 1.614417e+01 3.229708e+02
    endloop
  endfacet
  facet normal -2.595520e-01 -9.657291e-01 1.684641e-15
    outer loop
      vertex   5.978262e+00 1.614417e+01 2.429708e+02
      vertex   5.978262e+00 1.614417e+01 3.229708e+02
      vertex   1.272986e+00 1.740877e+01 2.429708e+02
    endloop
  endfacet
  facet normal -2.595520e-01 -9.657291e-01 1.630228e-15
    outer loop
      vertex   1.272986e+00 1.740877e+01 2.429708e+02
      vertex   5.978262e+00 1.614417e+01 3.229708e+02
      vertex   1.272986e+00 1.740877e+01 3.229708e+02
    endloop
  endfacet
  facet normal 1.062354e-02 -9.999436e-01 2.010555e-15
    outer loop
      vertex   1.272986e+00 1.740877e+01 2.429708e+02
      vertex   1.272986e+00 1.740877e+01 3.229708e+02
      vertex   -3.598992e+00 1.735701e+01 2.429708e+02
    endloop
  endfacet
  facet normal 1.062354e-02 -9.999436e-01 1.966149e-15
    outer loop
      vertex   -3.598992e+00 1.735701e+01 2.429708e+02
      vertex   1.272986e+00 1.740877e+01 3.229708e+02
      vertex   -3.598992e+00 1.735701e+01 3.229708e+02
    endloop
  endfacet
  facet normal 2.800111e-01 -9.599968e-01 2.199136e-15
    outer loop
      vertex   -3.598992e+00 1.735701e+01 2.429708e+02
      vertex   -3.598992e+00 1.735701e+01 3.229708e+02
      vertex   -8.276339e+00 1.599273e+01 2.429708e+02
    endloop
  endfacet
  facet normal 2.800111e-01 -9.599968e-01 2.259531e-15
    outer loop
      vertex   -8.276339e+00 1.599273e+01 2.429708e+02
      vertex   -3.598992e+00 1.735701e+01 3.229708e+02
      vertex   -8.276339e+00 1.599273e+01 3.229708e+02
    endloop
  endfacet
  facet normal 5.286316e-01 -8.488514e-01 2.297465e-15
    outer loop
      vertex   -8.276339e+00 1.599273e+01 2.429708e+02
      vertex   -8.276339e+00 1.599273e+01 3.229708e+02
      vertex   -1.241216e+01 1.341710e+01 2.429708e+02
    endloop
  endfacet
  facet normal 5.286316e-01 -8.488514e-01 2.302093e-15
    outer loop
      vertex   -1.241216e+01 1.341710e+01 2.429708e+02
      vertex   -8.276339e+00 1.599273e+01 3.229708e+02
      vertex   -1.241216e+01 1.341710e+01 3.229708e+02
    endloop
  endfacet
  facet normal 7.380459e-01 -6.747506e-01 2.182800e-15
    outer loop
      vertex   -1.241216e+01 1.341710e+01 2.429708e+02
      vertex   -1.241216e+01 1.341710e+01 3.229708e+02
      vertex   -1.569971e+01 9.821156e+00 2.429708e+02
    endloop
  endfacet
  facet normal 7.380459e-01 -6.747506e-01 2.148619e-15
    outer loop
      vertex   -1.569971e+01 9.821156e+00 2.429708e+02
      vertex   -1.241216e+01 1.341710e+01 3.229708e+02
      vertex   -1.569971e+01 9.821156e+00 3.229708e+02
    endloop
  endfacet
  facet normal 8.927226e-01 -4.506066e-01 1.852158e-15
    outer loop
      vertex   -1.569971e+01 9.821156e+00 2.429708e+02
      vertex   -1.569971e+01 9.821156e+00 3.229708e+02
      vertex   -1.789518e+01 5.471585e+00 2.429708e+02
    endloop
  endfacet
  facet normal 8.927226e-01 -4.506066e-01 1.931636e-15
    outer loop
      vertex   -1.789518e+01 5.471585e+00 2.429708e+02
      vertex   -1.569971e+01 9.821156e+00 3.229708e+02
      vertex   -1.789518e+01 5.471585e+00 3.229708e+02
    endloop
  endfacet
  facet normal 9.811903e-01 -1.930432e-01 1.492263e-15
    outer loop
      vertex   -1.789518e+01 5.471585e+00 2.429708e+02
      vertex   -1.789518e+01 5.471585e+00 3.229708e+02
      vertex   -1.883574e+01 6.909780e-01 2.429708e+02
    endloop
  endfacet
  facet normal 9.811903e-01 -1.930432e-01 1.510119e-15
    outer loop
      vertex   -1.883574e+01 6.909780e-01 2.429708e+02
      vertex   -1.789518e+01 5.471585e+00 3.229708e+02
      vertex   -1.883574e+01 6.909780e-01 3.229708e+02
    endloop
  endfacet
  facet normal 9.968875e-01 7.883734e-02 9.969906e-16
    outer loop
      vertex   -1.883574e+01 6.909780e-01 2.429708e+02
      vertex   -1.883574e+01 6.909780e-01 3.229708e+02
      vertex   -1.845162e+01 -4.166110e+00 2.429708e+02
    endloop
  endfacet
  facet normal 9.968875e-01 7.883734e-02 9.899884e-16
    outer loop
      vertex   -1.845162e+01 -4.166110e+00 2.429708e+02
      vertex   -1.883574e+01 6.909780e-01 3.229708e+02
      vertex   -1.845162e+01 -4.166110e+00 3.229708e+02
    endloop
  endfacet
  facet normal 9.386501e-01 3.448709e-01 3.792897e-16
    outer loop
      vertex   -1.677132e+01 -8.739451e+00 4.029708e+02
      vertex   -1.677132e+01 -8.739451e+00 3.229708e+02
      vertex   -1.845162e+01 -4.166110e+00 4.029708e+02
    endloop
  endfacet
  facet normal 9.386501e-01 3.448709e-01 3.376052e-16
    outer loop
      vertex   -1.845162e+01 -4.166110e+00 4.029708e+02
      vertex   -1.677132e+01 -8.739451e+00 3.229708e+02
      vertex   -1.845162e+01 -4.166110e+00 3.229708e+02
    endloop
  endfacet
  facet normal 9.968875e-01 7.883734e-02 9.457177e-16
    outer loop
      vertex   -1.845162e+01 -4.166110e+00 4.029708e+02
      vertex   -1.845162e+01 -4.166110e+00 3.229708e+02
      vertex   -1.883574e+01 6.909780e-01 4.029708e+02
    endloop
  endfacet
  facet normal 9.968875e-01 7.883734e-02 9.457177e-16
    outer loop
      vertex   -1.883574e+01 6.909780e-01 4.029708e+02
      vertex   -1.845162e+01 -4.166110e+00 3.229708e+02
      vertex   -1.883574e+01 6.909780e-01 3.229708e+02
    endloop
  endfacet
  facet normal 9.811903e-01 -1.930432e-01 1.483691e-15
    outer loop
      vertex   -1.883574e+01 6.909780e-01 4.029708e+02
      vertex   -1.883574e+01 6.909780e-01 3.229708e+02
      vertex   -1.789518e+01 5.471585e+00 4.029708e+02
    endloop
  endfacet
  facet normal 9.811903e-01 -1.930432e-01 1.527264e-15
    outer loop
      vertex   -1.789518e+01 5.471585e+00 4.029708e+02
      vertex   -1.883574e+01 6.909780e-01 3.229708e+02
      vertex   -1.789518e+01 5.471585e+00 3.229708e+02
    endloop
  endfacet
  facet normal 8.927226e-01 -4.506066e-01 1.951270e-15
    outer loop
      vertex   -1.789518e+01 5.471585e+00 4.029708e+02
      vertex   -1.789518e+01 5.471585e+00 3.229708e+02
      vertex   -1.569971e+01 9.821156e+00 4.029708e+02
    endloop
  endfacet
  facet normal 8.927226e-01 -4.506066e-01 1.931447e-15
    outer loop
      vertex   -1.569971e+01 9.821156e+00 4.029708e+02
      vertex   -1.789518e+01 5.471585e+00 3.229708e+02
      vertex   -1.569971e+01 9.821156e+00 3.229708e+02
    endloop
  endfacet
  facet normal 7.380459e-01 -6.747506e-01 2.214171e-15
    outer loop
      vertex   -1.569971e+01 9.821156e+00 4.029708e+02
      vertex   -1.569971e+01 9.821156e+00 3.229708e+02
      vertex   -1.241216e+01 1.341710e+01 4.029708e+02
    endloop
  endfacet
  facet normal 7.380459e-01 -6.747506e-01 2.181395e-15
    outer loop
      vertex   -1.241216e+01 1.341710e+01 4.029708e+02
      vertex   -1.569971e+01 9.821156e+00 3.229708e+02
      vertex   -1.241216e+01 1.341710e+01 3.229708e+02
    endloop
  endfacet
  facet normal 5.286316e-01 -8.488514e-01 2.309203e-15
    outer loop
      vertex   -1.241216e+01 1.341710e+01 4.029708e+02
      vertex   -1.241216e+01 1.341710e+01 3.229708e+02
      vertex   -8.276339e+00 1.599273e+01 4.029708e+02
    endloop
  endfacet
  facet normal 5.286316e-01 -8.488514e-01 2.325569e-15
    outer loop
      vertex   -8.276339e+00 1.599273e+01 4.029708e+02
      vertex   -1.241216e+01 1.341710e+01 3.229708e+02
      vertex   -8.276339e+00 1.599273e+01 3.229708e+02
    endloop
  endfacet
  facet normal 2.800111e-01 -9.599968e-01 2.263085e-15
    outer loop
      vertex   -8.276339e+00 1.599273e+01 4.029708e+02
      vertex   -8.276339e+00 1.599273e+01 3.229708e+02
      vertex   -3.598992e+00 1.735701e+01 4.029708e+02
    endloop
  endfacet
  facet normal 2.800111e-01 -9.599968e-01 2.314599e-15
    outer loop
      vertex   -3.598992e+00 1.735701e+01 4.029708e+02
      vertex   -8.276339e+00 1.599273e+01 3.229708e+02
      vertex   -3.598992e+00 1.735701e+01 3.229708e+02
    endloop
  endfacet
  facet normal 1.062354e-02 -9.999436e-01 2.098896e-15
    outer loop
      vertex   -3.598992e+00 1.735701e+01 4.029708e+02
      vertex   -3.598992e+00 1.735701e+01 3.229708e+02
      vertex   1.272986e+00 1.740877e+01 4.029708e+02
    endloop
  endfacet
  facet normal 1.062354e-02 -9.999436e-01 2.054961e-15
    outer loop
      vertex   1.272986e+00 1.740877e+01 4.029708e+02
      vertex   -3.598992e+00 1.735701e+01 3.229708e+02
      vertex   1.272986e+00 1.740877e+01 3.229708e+02
    endloop
  endfacet
  facet normal -2.595520e-01 -9.657291e-01 1.673115e-15
    outer loop
      vertex   1.272986e+00 1.740877e+01 4.029708e+02
      vertex   1.272986e+00 1.740877e+01 3.229708e+02
      vertex   5.978262e+00 1.614417e+01 4.029708e+02
    endloop
  endfacet
  facet normal -2.595520e-01 -9.657291e-01 1.673115e-15
    outer loop
      vertex   5.978262e+00 1.614417e+01 4.029708e+02
      vertex   1.272986e+00 1.740877e+01 3.229708e+02
      vertex   5.978262e+00 1.614417e+01 3.229708e+02
    endloop
  endfacet
  facet normal -5.104777e-01 -8.598910e-01 1.167180e-15
    outer loop
      vertex   5.978262e+00 1.614417e+01 4.029708e+02
      vertex   5.978262e+00 1.614417e+01 3.229708e+02
      vertex   1.016787e+01 1.365700e+01 4.029708e+02
    endloop
  endfacet
  facet normal -5.104777e-01 -8.598910e-01 1.132570e-15
    outer loop
      vertex   1.016787e+01 1.365700e+01 4.029708e+02
      vertex   5.978262e+00 1.614417e+01 3.229708e+02
      vertex   1.016787e+01 1.365700e+01 3.229708e+02
    endloop
  endfacet
  facet normal -7.235436e-01 -6.902787e-01 5.608319e-16
    outer loop
      vertex   1.016787e+01 1.365700e+01 4.029708e+02
      vertex   1.016787e+01 1.365700e+01 3.229708e+02
      vertex   1.353108e+01 1.013171e+01 4.029708e+02
    endloop
  endfacet
  facet normal -7.235436e-01 -6.902787e-01 5.761592e-16
    outer loop
      vertex   1.353108e+01 1.013171e+01 4.029708e+02
      vertex   1.016787e+01 1.365700e+01 3.229708e+02
      vertex   1.353108e+01 1.013171e+01 3.229708e+02
    endloop
  endfacet
  facet normal -8.829476e-01 -4.694716e-01 -4.207610e-17
    outer loop
      vertex   1.353108e+01 1.013171e+01 4.029708e+02
      vertex   1.353108e+01 1.013171e+01 3.229708e+02
      vertex   1.581847e+01 5.829764e+00 4.029708e+02
    endloop
  endfacet
  facet normal -8.829476e-01 -4.694716e-01 -4.207610e-17
    outer loop
      vertex   1.581847e+01 5.829764e+00 4.029708e+02
      vertex   1.353108e+01 1.013171e+01 3.229708e+02
      vertex   1.581847e+01 5.829764e+00 3.229708e+02
    endloop
  endfacet
  facet normal -9.768674e-01 -2.138459e-01 -6.571908e-16
    outer loop
      vertex   1.581847e+01 5.829764e+00 4.029708e+02
      vertex   1.581847e+01 5.829764e+00 3.229708e+02
      vertex   1.686038e+01 1.070219e+00 4.029708e+02
    endloop
  endfacet
  facet normal -9.768674e-01 -2.138459e-01 -7.005724e-16
    outer loop
      vertex   1.686038e+01 1.070219e+00 4.029708e+02
      vertex   1.581847e+01 5.829764e+00 3.229708e+02
      vertex   1.686038e+01 1.070219e+00 3.229708e+02
    endloop
  endfacet
  facet normal -9.983374e-01 5.763978e-02 -1.267900e-15
    outer loop
      vertex   1.686038e+01 1.070219e+00 4.029708e+02
      vertex   1.686038e+01 1.070219e+00 3.229708e+02
      vertex   1.657954e+01 -3.793934e+00 4.029708e+02
    endloop
  endfacet
  facet normal -9.983374e-01 5.763978e-02 -1.265340e-15
    outer loop
      vertex   1.657954e+01 -3.793934e+00 4.029708e+02
      vertex   1.686038e+01 1.070219e+00 3.229708e+02
      vertex   1.657954e+01 -3.793934e+00 3.229708e+02
    endloop
  endfacet
  facet normal -9.457654e-01 3.248506e-01 -1.726766e-15
    outer loop
      vertex   1.657954e+01 -3.793934e+00 4.029708e+02
      vertex   1.657954e+01 -3.793934e+00 3.229708e+02
      vertex   1.499679e+01 -8.401942e+00 4.029708e+02
    endloop
  endfacet
  facet normal -9.457654e-01 3.248506e-01 -1.655914e-15
    outer loop
      vertex   1.499679e+01 -8.401942e+00 4.029708e+02
      vertex   1.657954e+01 -3.793934e+00 3.229708e+02
      vertex   1.499679e+01 -8.401942e+00 3.229708e+02
    endloop
  endfacet
  facet normal -8.230502e-01 5.679687e-01 -1.973130e-15
    outer loop
      vertex   1.499679e+01 -8.401942e+00 4.029708e+02
      vertex   1.499679e+01 -8.401942e+00 3.229708e+02
      vertex   1.222950e+01 -1.241205e+01 4.029708e+02
    endloop
  endfacet
  facet normal -8.230502e-01 5.679687e-01 -1.987025e-15
    outer loop
      vertex   1.222950e+01 -1.241205e+01 4.029708e+02
      vertex   1.499679e+01 -8.401942e+00 3.229708e+02
      vertex   1.222950e+01 -1.241205e+01 3.229708e+02
    endloop
  endfacet
  facet normal -6.392931e-01 7.689631e-01 -2.183916e-15
    outer loop
      vertex   1.222950e+01 -1.241205e+01 4.029708e+02
      vertex   1.222950e+01 -1.241205e+01 3.229708e+02
      vertex   8.482917e+00 -1.552685e+01 4.029708e+02
    endloop
  endfacet
  facet normal -6.392931e-01 7.689631e-01 -2.269087e-15
    outer loop
      vertex   8.482917e+00 -1.552685e+01 4.029708e+02
      vertex   1.222950e+01 -1.241205e+01 3.229708e+02
      vertex   8.482917e+00 -1.552685e+01 3.229708e+02
    endloop
  endfacet
  facet normal -4.081226e-01 9.129271e-01 -2.273208e-15
    outer loop
      vertex   8.482917e+00 -1.552685e+01 4.029708e+02
      vertex   8.482917e+00 -1.552685e+01 3.229708e+02
      vertex   4.034905e+00 -1.751533e+01 4.029708e+02
    endloop
  endfacet
  facet normal -4.081226e-01 9.129271e-01 -2.174000e-15
    outer loop
      vertex   4.034905e+00 -1.751533e+01 4.029708e+02
      vertex   8.482917e+00 -1.552685e+01 3.229708e+02
      vertex   4.034905e+00 -1.751533e+01 3.229708e+02
    endloop
  endfacet
  facet normal -1.466836e-01 9.891835e-01 -2.014365e-15
    outer loop
      vertex   4.034905e+00 -1.751533e+01 4.029708e+02
      vertex   4.034905e+00 -1.751533e+01 3.229708e+02
      vertex   -7.846469e-01 -1.823000e+01 4.029708e+02
    endloop
  endfacet
  facet normal -1.466836e-01 9.891835e-01 -2.098966e-15
    outer loop
      vertex   -7.846469e-01 -1.823000e+01 4.029708e+02
      vertex   4.034905e+00 -1.751533e+01 3.229708e+02
      vertex   -7.846469e-01 -1.823000e+01 3.229708e+02
    endloop
  endfacet
  facet normal 1.256344e-01 9.920766e-01 -1.796238e-15
    outer loop
      vertex   -7.846469e-01 -1.823000e+01 4.029708e+02
      vertex   -7.846469e-01 -1.823000e+01 3.229708e+02
      vertex   -5.618295e+00 -1.761788e+01 4.029708e+02
    endloop
  endfacet
  facet normal 1.256344e-01 9.920766e-01 -1.785080e-15
    outer loop
      vertex   -5.618295e+00 -1.761788e+01 4.029708e+02
      vertex   -7.846469e-01 -1.823000e+01 3.229708e+02
      vertex   -5.618295e+00 -1.761788e+01 3.229708e+02
    endloop
  endfacet
  facet normal 3.886346e-01 9.213920e-01 -1.325775e-15
    outer loop
      vertex   -5.618295e+00 -1.761788e+01 4.029708e+02
      vertex   -5.618295e+00 -1.761788e+01 3.229708e+02
      vertex   -1.010755e+01 -1.572436e+01 4.029708e+02
    endloop
  endfacet
  facet normal 3.886346e-01 9.213920e-01 -1.433499e-15
    outer loop
      vertex   -1.010755e+01 -1.572436e+01 4.029708e+02
      vertex   -5.618295e+00 -1.761788e+01 3.229708e+02
      vertex   -1.010755e+01 -1.572436e+01 3.229708e+02
    endloop
  endfacet
  facet normal 6.228115e-01 7.823719e-01 -8.791194e-16
    outer loop
      vertex   -1.010755e+01 -1.572436e+01 4.029708e+02
      vertex   -1.010755e+01 -1.572436e+01 3.229708e+02
      vertex   -1.391946e+01 -1.268986e+01 4.029708e+02
    endloop
  endfacet
  facet normal 6.228115e-01 7.823719e-01 -9.762663e-16
    outer loop
      vertex   -1.391946e+01 -1.268986e+01 4.029708e+02
      vertex   -1.010755e+01 -1.572436e+01 3.229708e+02
      vertex   -1.391946e+01 -1.268986e+01 3.229708e+02
    endloop
  endfacet
  facet normal 8.107974e-01 5.853269e-01 -3.475334e-16
    outer loop
      vertex   -1.391946e+01 -1.268986e+01 4.029708e+02
      vertex   -1.391946e+01 -1.268986e+01 3.229708e+02
      vertex   -1.677132e+01 -8.739451e+00 4.029708e+02
    endloop
  endfacet
  facet normal 8.107974e-01 5.853269e-01 -2.595393e-16
    outer loop
      vertex   -1.677132e+01 -8.739451e+00 4.029708e+02
      vertex   -1.391946e+01 -1.268986e+01 3.229708e+02
      vertex   -1.677132e+01 -8.739451e+00 3.229708e+02
    endloop
  endfacet
  facet normal -9.366722e-01 -3.502074e-01 -3.586328e-16
    outer loop
      vertex   -1.953646e+01 -4.625560e+00 4.879708e+02
      vertex   -1.953646e+01 -4.625560e+00 4.063042e+02
      vertex   -1.779486e+01 -9.283676e+00 4.879708e+02
    endloop
  endfacet
  facet normal -9.366722e-01 -3.502074e-01 -2.771375e-16
    outer loop
      vertex   -1.779486e+01 -9.283676e+00 4.879708e+02
      vertex   -1.953646e+01 -4.625560e+00 4.063042e+02
      vertex   -1.779486e+01 -9.283676e+00 4.063042e+02
    endloop
  endfacet
  facet normal -8.141155e-01 -5.807030e-01 3.120688e-16
    outer loop
      vertex   -1.779486e+01 -9.283676e+00 4.879708e+02
      vertex   -1.779486e+01 -9.283676e+00 4.063042e+02
      vertex   -1.490700e+01 -1.333231e+01 4.879708e+02
    endloop
  endfacet
  facet normal -8.141155e-01 -5.807030e-01 2.740526e-16
    outer loop
      vertex   -1.490700e+01 -1.333231e+01 4.879708e+02
      vertex   -1.779486e+01 -9.283676e+00 4.063042e+02
      vertex   -1.490700e+01 -1.333231e+01 4.063042e+02
    endloop
  endfacet
  facet normal -6.360782e-01 -7.716246e-01 8.779658e-16
    outer loop
      vertex   -1.490700e+01 -1.333231e+01 4.879708e+02
      vertex   -1.490700e+01 -1.333231e+01 4.063042e+02
      vertex   -1.106967e+01 -1.649556e+01 4.879708e+02
    endloop
  endfacet
  facet normal -6.360782e-01 -7.716246e-01 8.641302e-16
    outer loop
      vertex   -1.106967e+01 -1.649556e+01 4.879708e+02
      vertex   -1.490700e+01 -1.333231e+01 4.063042e+02
      vertex   -1.106967e+01 -1.649556e+01 4.063042e+02
    endloop
  endfacet
  facet normal -4.146932e-01 -9.099613e-01 1.413027e-15
    outer loop
      vertex   -1.106967e+01 -1.649556e+01 4.879708e+02
      vertex   -1.106967e+01 -1.649556e+01 4.063042e+02
      vertex   -6.544391e+00 -1.855785e+01 4.879708e+02
    endloop
  endfacet
  facet normal -4.146932e-01 -9.099613e-01 1.422047e-15
    outer loop
      vertex   -6.544391e+00 -1.855785e+01 4.879708e+02
      vertex   -1.106967e+01 -1.649556e+01 4.063042e+02
      vertex   -6.544391e+00 -1.855785e+01 4.063042e+02
    endloop
  endfacet
  facet normal -1.650476e-01 -9.862856e-01 1.869218e-15
    outer loop
      vertex   -6.544391e+00 -1.855785e+01 4.879708e+02
      vertex   -6.544391e+00 -1.855785e+01 4.063042e+02
      vertex   -1.639546e+00 -1.937864e+01 4.879708e+02
    endloop
  endfacet
  facet normal -1.650476e-01 -9.862856e-01 1.872808e-15
    outer loop
      vertex   -1.639546e+00 -1.937864e+01 4.879708e+02
      vertex   -6.544391e+00 -1.855785e+01 4.063042e+02
      vertex   -1.639546e+00 -1.937864e+01 4.063042e+02
    endloop
  endfacet
  facet normal 9.584575e-02 -9.953962e-01 2.186920e-15
    outer loop
      vertex   -1.639546e+00 -1.937864e+01 4.879708e+02
      vertex   -1.639546e+00 -1.937864e+01 4.063042e+02
      vertex   3.310607e+00 -1.890199e+01 4.879708e+02
    endloop
  endfacet
  facet normal 9.584575e-02 -9.953962e-01 2.269355e-15
    outer loop
      vertex   3.310607e+00 -1.890199e+01 4.879708e+02
      vertex   -1.639546e+00 -1.937864e+01 4.063042e+02
      vertex   3.310607e+00 -1.890199e+01 4.063042e+02
    endloop
  endfacet
  facet normal 3.502074e-01 -9.366722e-01 2.418258e-15
    outer loop
      vertex   3.310607e+00 -1.890199e+01 4.879708e+02
      vertex   3.310607e+00 -1.890199e+01 4.063042e+02
      vertex   7.968723e+00 -1.716039e+01 4.879708e+02
    endloop
  endfacet
  facet normal 3.502074e-01 -9.366722e-01 2.300972e-15
    outer loop
      vertex   7.968723e+00 -1.716039e+01 4.879708e+02
      vertex   3.310607e+00 -1.890199e+01 4.063042e+02
      vertex   7.968723e+00 -1.716039e+01 4.063042e+02
    endloop
  endfacet
  facet normal 5.807030e-01 -8.141155e-01 2.336482e-15
    outer loop
      vertex   7.968723e+00 -1.716039e+01 4.879708e+02
      vertex   7.968723e+00 -1.716039e+01 4.063042e+02
      vertex   1.201736e+01 -1.427253e+01 4.879708e+02
    endloop
  endfacet
  facet normal 5.807030e-01 -8.141155e-01 2.331528e-15
    outer loop
      vertex   1.201736e+01 -1.427253e+01 4.879708e+02
      vertex   7.968723e+00 -1.716039e+01 4.063042e+02
      vertex   1.201736e+01 -1.427253e+01 4.063042e+02
    endloop
  endfacet
  facet normal 7.716246e-01 -6.360782e-01 2.167403e-15
    outer loop
      vertex   1.201736e+01 -1.427253e+01 4.879708e+02
      vertex   1.201736e+01 -1.427253e+01 4.063042e+02
      vertex   1.518061e+01 -1.043520e+01 4.879708e+02
    endloop
  endfacet
  facet normal 7.716246e-01 -6.360782e-01 2.200971e-15
    outer loop
      vertex   1.518061e+01 -1.043520e+01 4.879708e+02
      vertex   1.201736e+01 -1.427253e+01 4.063042e+02
      vertex   1.518061e+01 -1.043520e+01 4.063042e+02
    endloop
  endfacet
  facet normal 9.099613e-01 -4.146932e-01 1.895160e-15
    outer loop
      vertex   1.518061e+01 -1.043520e+01 4.879708e+02
      vertex   1.518061e+01 -1.043520e+01 4.063042e+02
      vertex   1.724290e+01 -5.909923e+00 4.879708e+02
    endloop
  endfacet
  facet normal 9.099613e-01 -4.146932e-01 1.938251e-15
    outer loop
      vertex   1.724290e+01 -5.909923e+00 4.879708e+02
      vertex   1.518061e+01 -1.043520e+01 4.063042e+02
      vertex   1.724290e+01 -5.909923e+00 4.063042e+02
    endloop
  endfacet
  facet normal 9.862856e-01 -1.650476e-01 1.531648e-15
    outer loop
      vertex   1.724290e+01 -5.909923e+00 4.879708e+02
      vertex   1.724290e+01 -5.909923e+00 4.063042e+02
      vertex   1.806369e+01 -1.005078e+00 4.879708e+02
    endloop
  endfacet
  facet normal 9.862856e-01 -1.650476e-01 1.524468e-15
    outer loop
      vertex   1.806369e+01 -1.005078e+00 4.879708e+02
      vertex   1.724290e+01 -5.909923e+00 4.063042e+02
      vertex   1.806369e+01 -1.005078e+00 4.063042e+02
    endloop
  endfacet
  facet normal 9.953962e-01 9.584575e-02 1.024836e-15
    outer loop
      vertex   1.806369e+01 -1.005078e+00 4.879708e+02
      vertex   1.806369e+01 -1.005078e+00 4.063042e+02
      vertex   1.758704e+01 3.945075e+00 4.879708e+02
    endloop
  endfacet
  facet normal 9.953962e-01 9.584575e-02 1.020667e-15
    outer loop
      vertex   1.758704e+01 3.945075e+00 4.879708e+02
      vertex   1.806369e+01 -1.005078e+00 4.063042e+02
      vertex   1.758704e+01 3.945075e+00 4.063042e+02
    endloop
  endfacet
  facet normal 9.366722e-01 3.502074e-01 4.401282e-16
    outer loop
      vertex   1.758704e+01 3.945075e+00 4.879708e+02
      vertex   1.758704e+01 3.945075e+00 4.063042e+02
      vertex   1.584544e+01 8.603191e+00 4.879708e+02
    endloop
  endfacet
  facet normal 9.366722e-01 3.502074e-01 4.450853e-16
    outer loop
      vertex   1.584544e+01 8.603191e+00 4.879708e+02
      vertex   1.758704e+01 3.945075e+00 4.063042e+02
      vertex   1.584544e+01 8.603191e+00 4.063042e+02
    endloop
  endfacet
  facet normal 8.141155e-01 5.807030e-01 -1.300340e-16
    outer loop
      vertex   1.584544e+01 8.603191e+00 4.879708e+02
      vertex   1.584544e+01 8.603191e+00 4.063042e+02
      vertex   1.295758e+01 1.265183e+01 4.879708e+02
    endloop
  endfacet
  facet normal 8.141155e-01 5.807030e-01 -1.805582e-16
    outer loop
      vertex   1.295758e+01 1.265183e+01 4.879708e+02
      vertex   1.584544e+01 8.603191e+00 4.063042e+02
      vertex   1.295758e+01 1.265183e+01 4.063042e+02
    endloop
  endfacet
  facet normal 6.360782e-01 7.716246e-01 -7.634272e-16
    outer loop
      vertex   1.295758e+01 1.265183e+01 4.879708e+02
      vertex   1.295758e+01 1.265183e+01 4.063042e+02
      vertex   9.120252e+00 1.581507e+01 4.879708e+02
    endloop
  endfacet
  facet normal 6.360782e-01 7.716246e-01 -7.861076e-16
    outer loop
      vertex   9.120252e+00 1.581507e+01 4.879708e+02
      vertex   1.295758e+01 1.265183e+01 4.063042e+02
      vertex   9.120252e+00 1.581507e+01 4.063042e+02
    endloop
  endfacet
  facet normal 4.146932e-01 9.099613e-01 -1.335608e-15
    outer loop
      vertex   9.120252e+00 1.581507e+01 4.879708e+02
      vertex   9.120252e+00 1.581507e+01 4.063042e+02
      vertex   4.594971e+00 1.787736e+01 4.879708e+02
    endloop
  endfacet
  facet normal 4.146932e-01 9.099613e-01 -1.312310e-15
    outer loop
      vertex   4.594971e+00 1.787736e+01 4.879708e+02
      vertex   9.120252e+00 1.581507e+01 4.063042e+02
      vertex   4.594971e+00 1.787736e+01 4.063042e+02
    endloop
  endfacet
  facet normal 1.650476e-01 9.862856e-01 -1.744090e-15
    outer loop
      vertex   4.594971e+00 1.787736e+01 4.879708e+02
      vertex   4.594971e+00 1.787736e+01 4.063042e+02
      vertex   -3.098748e-01 1.869815e+01 4.879708e+02
    endloop
  endfacet
  facet normal 1.650476e-01 9.862856e-01 -1.794176e-15
    outer loop
      vertex   -3.098748e-01 1.869815e+01 4.879708e+02
      vertex   4.594971e+00 1.787736e+01 4.063042e+02
      vertex   -3.098748e-01 1.869815e+01 4.063042e+02
    endloop
  endfacet
  facet normal -9.584575e-02 9.953962e-01 -2.096146e-15
    outer loop
      vertex   -3.098748e-01 1.869815e+01 4.879708e+02
      vertex   -3.098748e-01 1.869815e+01 4.063042e+02
      vertex   -5.260028e+00 1.822151e+01 4.879708e+02
    endloop
  endfacet
  facet normal -9.584575e-02 9.953962e-01 -2.098231e-15
    outer loop
      vertex   -5.260028e+00 1.822151e+01 4.879708e+02
      vertex   -3.098748e-01 1.869815e+01 4.063042e+02
      vertex   -5.260028e+00 1.822151e+01 4.063042e+02
    endloop
  endfacet
  facet normal -3.502074e-01 9.366722e-01 -2.262885e-15
    outer loop
      vertex   -5.260028e+00 1.822151e+01 4.879708e+02
      vertex   -5.260028e+00 1.822151e+01 4.063042e+02
      vertex   -9.918144e+00 1.647991e+01 4.879708e+02
    endloop
  endfacet
  facet normal -3.502074e-01 9.366722e-01 -2.189007e-15
    outer loop
      vertex   -9.918144e+00 1.647991e+01 4.879708e+02
      vertex   -5.260028e+00 1.822151e+01 4.063042e+02
      vertex   -9.918144e+00 1.647991e+01 4.063042e+02
    endloop
  endfacet
  facet normal -5.807030e-01 8.141155e-01 -2.215125e-15
    outer loop
      vertex   -9.918144e+00 1.647991e+01 4.879708e+02
      vertex   -9.918144e+00 1.647991e+01 4.063042e+02
      vertex   -1.396678e+01 1.359205e+01 4.879708e+02
    endloop
  endfacet
  facet normal -5.807030e-01 8.141155e-01 -2.225279e-15
    outer loop
      vertex   -1.396678e+01 1.359205e+01 4.879708e+02
      vertex   -9.918144e+00 1.647991e+01 4.063042e+02
      vertex   -1.396678e+01 1.359205e+01 4.063042e+02
    endloop
  endfacet
  facet normal -7.716246e-01 6.360782e-01 -2.084390e-15
    outer loop
      vertex   -1.396678e+01 1.359205e+01 4.879708e+02
      vertex   -1.396678e+01 1.359205e+01 4.063042e+02
      vertex   -1.713003e+01 9.754720e+00 4.879708e+02
    endloop
  endfacet
  facet normal -7.716246e-01 6.360782e-01 -2.117958e-15
    outer loop
      vertex   -1.713003e+01 9.754720e+00 4.879708e+02
      vertex   -1.396678e+01 1.359205e+01 4.063042e+02
      vertex   -1.713003e+01 9.754720e+00 4.063042e+02
    endloop
  endfacet
  facet normal -9.099613e-01 4.146932e-01 -1.841039e-15
    outer loop
      vertex   -1.713003e+01 9.754720e+00 4.879708e+02
      vertex   -1.713003e+01 9.754720e+00 4.063042e+02
      vertex   -1.919232e+01 5.229439e+00 4.879708e+02
    endloop
  endfacet
  facet normal -9.099613e-01 4.146932e-01 -1.801453e-15
    outer loop
      vertex   -1.919232e+01 5.229439e+00 4.879708e+02
      vertex   -1.713003e+01 9.754720e+00 4.063042e+02
      vertex   -1.919232e+01 5.229439e+00 4.063042e+02
    endloop
  endfacet
  facet normal -9.862856e-01 1.650476e-01 -1.395750e-15
    outer loop
      vertex   -1.919232e+01 5.229439e+00 4.879708e+02
      vertex   -1.919232e+01 5.229439e+00 4.063042e+02
      vertex   -2.001311e+01 3.245932e-01 4.879708e+02
    endloop
  endfacet
  facet normal -9.862856e-01 1.650476e-01 -1.438656e-15
    outer loop
      vertex   -2.001311e+01 3.245932e-01 4.879708e+02
      vertex   -1.919232e+01 5.229439e+00 4.063042e+02
      vertex   -2.001311e+01 3.245932e-01 4.063042e+02
    endloop
  endfacet
  facet normal -9.953962e-01 -9.584575e-02 -9.382315e-16
    outer loop
      vertex   -2.001311e+01 3.245932e-01 4.879708e+02
      vertex   -2.001311e+01 3.245932e-01 4.063042e+02
      vertex   -1.953646e+01 -4.625560e+00 4.879708e+02
    endloop
  endfacet
  facet normal -9.953962e-01 -9.584575e-02 -9.340619e-16
    outer loop
      vertex   -1.953646e+01 -4.625560e+00 4.879708e+02
      vertex   -2.001311e+01 3.245932e-01 4.063042e+02
      vertex   -1.953646e+01 -4.625560e+00 4.063042e+02
    endloop
  endfacet
  facet normal -8.141155e-01 -5.807030e-01 2.084204e-16
    outer loop
      vertex   -1.490700e+01 -1.333231e+01 2.429708e+02
      vertex   -1.490700e+01 -1.333231e+01 3.246375e+02
      vertex   -1.779486e+01 -9.283676e+00 2.429708e+02
    endloop
  endfacet
  facet normal -8.141155e-01 -5.807030e-01 2.766526e-16
    outer loop
      vertex   -1.779486e+01 -9.283676e+00 2.429708e+02
      vertex   -1.490700e+01 -1.333231e+01 3.246375e+02
      vertex   -1.779486e+01 -9.283676e+00 3.246375e+02
    endloop
  endfacet
  facet normal -9.366722e-01 -3.502074e-01 -3.178852e-16
    outer loop
      vertex   -1.779486e+01 -9.283676e+00 2.429708e+02
      vertex   -1.779486e+01 -9.283676e+00 3.246375e+02
      vertex   -1.953646e+01 -4.625560e+00 2.429708e+02
    endloop
  endfacet
  facet normal -9.366722e-01 -3.502074e-01 -3.586328e-16
    outer loop
      vertex   -1.953646e+01 -4.625560e+00 2.429708e+02
      vertex   -1.779486e+01 -9.283676e+00 3.246375e+02
      vertex   -1.953646e+01 -4.625560e+00 3.246375e+02
    endloop
  endfacet
  facet normal -9.953962e-01 -9.584575e-02 -9.340619e-16
    outer loop
      vertex   -1.953646e+01 -4.625560e+00 2.429708e+02
      vertex   -1.953646e+01 -4.625560e+00 3.246375e+02
      vertex   -2.001311e+01 3.245932e-01 2.429708e+02
    endloop
  endfacet
  facet normal -9.953962e-01 -9.584575e-02 -9.382315e-16
    outer loop
      vertex   -2.001311e+01 3.245932e-01 2.429708e+02
      vertex   -1.953646e+01 -4.625560e+00 3.246375e+02
      vertex   -2.001311e+01 3.245932e-01 3.246375e+02
    endloop
  endfacet
  facet normal -9.862856e-01 1.650476e-01 -1.438656e-15
    outer loop
      vertex   -2.001311e+01 3.245932e-01 2.429708e+02
      vertex   -2.001311e+01 3.245932e-01 3.246375e+02
      vertex   -1.919232e+01 5.229439e+00 2.429708e+02
    endloop
  endfacet
  facet normal -9.862856e-01 1.650476e-01 -1.445836e-15
    outer loop
      vertex   -1.919232e+01 5.229439e+00 2.429708e+02
      vertex   -2.001311e+01 3.245932e-01 3.246375e+02
      vertex   -1.919232e+01 5.229439e+00 3.246375e+02
    endloop
  endfacet
  facet normal -9.099613e-01 4.146932e-01 -1.859079e-15
    outer loop
      vertex   -1.919232e+01 5.229439e+00 2.429708e+02
      vertex   -1.919232e+01 5.229439e+00 3.246375e+02
      vertex   -1.713003e+01 9.754720e+00 2.429708e+02
    endloop
  endfacet
  facet normal -9.099613e-01 4.146932e-01 -1.837534e-15
    outer loop
      vertex   -1.713003e+01 9.754720e+00 2.429708e+02
      vertex   -1.919232e+01 5.229439e+00 3.246375e+02
      vertex   -1.713003e+01 9.754720e+00 3.246375e+02
    endloop
  endfacet
  facet normal -7.716246e-01 6.360782e-01 -2.139732e-15
    outer loop
      vertex   -1.713003e+01 9.754720e+00 2.429708e+02
      vertex   -1.713003e+01 9.754720e+00 3.246375e+02
      vertex   -1.396678e+01 1.359205e+01 2.429708e+02
    endloop
  endfacet
  facet normal -7.716246e-01 6.360782e-01 -2.159465e-15
    outer loop
      vertex   -1.396678e+01 1.359205e+01 2.429708e+02
      vertex   -1.713003e+01 9.754720e+00 3.246375e+02
      vertex   -1.396678e+01 1.359205e+01 3.246375e+02
    endloop
  endfacet
  facet normal -5.807030e-01 8.141155e-01 -2.303666e-15
    outer loop
      vertex   -1.396678e+01 1.359205e+01 2.429708e+02
      vertex   -1.396678e+01 1.359205e+01 3.246375e+02
      vertex   -9.918144e+00 1.647991e+01 2.429708e+02
    endloop
  endfacet
  facet normal -5.807030e-01 8.141155e-01 -2.298589e-15
    outer loop
      vertex   -9.918144e+00 1.647991e+01 2.429708e+02
      vertex   -1.396678e+01 1.359205e+01 3.246375e+02
      vertex   -9.918144e+00 1.647991e+01 3.246375e+02
    endloop
  endfacet
  facet normal -3.502074e-01 9.366722e-01 -2.278120e-15
    outer loop
      vertex   -9.918144e+00 1.647991e+01 2.429708e+02
      vertex   -9.918144e+00 1.647991e+01 3.246375e+02
      vertex   -5.260028e+00 1.822151e+01 2.429708e+02
    endloop
  endfacet
  facet normal -3.502074e-01 9.366722e-01 -2.262885e-15
    outer loop
      vertex   -5.260028e+00 1.822151e+01 2.429708e+02
      vertex   -9.918144e+00 1.647991e+01 3.246375e+02
      vertex   -5.260028e+00 1.822151e+01 3.246375e+02
    endloop
  endfacet
  facet normal -9.584575e-02 9.953962e-01 -2.098231e-15
    outer loop
      vertex   -5.260028e+00 1.822151e+01 2.429708e+02
      vertex   -5.260028e+00 1.822151e+01 3.246375e+02
      vertex   -3.098748e-01 1.869815e+01 2.429708e+02
    endloop
  endfacet
  facet normal -9.584575e-02 9.953962e-01 -2.100316e-15
    outer loop
      vertex   -3.098748e-01 1.869815e+01 2.429708e+02
      vertex   -5.260028e+00 1.822151e+01 3.246375e+02
      vertex   -3.098748e-01 1.869815e+01 3.246375e+02
    endloop
  endfacet
  facet normal 1.650476e-01 9.862856e-01 -1.786996e-15
    outer loop
      vertex   -3.098748e-01 1.869815e+01 2.429708e+02
      vertex   -3.098748e-01 1.869815e+01 3.246375e+02
      vertex   4.594971e+00 1.787736e+01 2.429708e+02
    endloop
  endfacet
  facet normal 1.650476e-01 9.862856e-01 -1.794176e-15
    outer loop
      vertex   4.594971e+00 1.787736e+01 2.429708e+02
      vertex   -3.098748e-01 1.869815e+01 3.246375e+02
      vertex   4.594971e+00 1.787736e+01 3.246375e+02
    endloop
  endfacet
  facet normal 4.146932e-01 9.099613e-01 -1.369936e-15
    outer loop
      vertex   4.594971e+00 1.787736e+01 2.429708e+02
      vertex   4.594971e+00 1.787736e+01 3.246375e+02
      vertex   9.120252e+00 1.581507e+01 2.429708e+02
    endloop
  endfacet
  facet normal 4.146932e-01 9.099613e-01 -1.389729e-15
    outer loop
      vertex   9.120252e+00 1.581507e+01 2.429708e+02
      vertex   4.594971e+00 1.787736e+01 3.246375e+02
      vertex   9.120252e+00 1.581507e+01 3.246375e+02
    endloop
  endfacet
  facet normal 6.360782e-01 7.716246e-01 -8.691208e-16
    outer loop
      vertex   9.120252e+00 1.581507e+01 2.429708e+02
      vertex   9.120252e+00 1.581507e+01 3.246375e+02
      vertex   1.295758e+01 1.265183e+01 2.429708e+02
    endloop
  endfacet
  facet normal 6.360782e-01 7.716246e-01 -8.187693e-16
    outer loop
      vertex   1.295758e+01 1.265183e+01 2.429708e+02
      vertex   9.120252e+00 1.581507e+01 3.246375e+02
      vertex   1.295758e+01 1.265183e+01 3.246375e+02
    endloop
  endfacet
  facet normal 8.141155e-01 5.807030e-01 -2.513905e-16
    outer loop
      vertex   1.295758e+01 1.265183e+01 2.429708e+02
      vertex   1.295758e+01 1.265183e+01 3.246375e+02
      vertex   1.584544e+01 8.603191e+00 2.429708e+02
    endloop
  endfacet
  facet normal 8.141155e-01 5.807030e-01 -2.766526e-16
    outer loop
      vertex   1.584544e+01 8.603191e+00 2.429708e+02
      vertex   1.295758e+01 1.265183e+01 3.246375e+02
      vertex   1.584544e+01 8.603191e+00 3.246375e+02
    endloop
  endfacet
  facet normal 9.366722e-01 3.502074e-01 3.178852e-16
    outer loop
      vertex   1.584544e+01 8.603191e+00 2.429708e+02
      vertex   1.584544e+01 8.603191e+00 3.246375e+02
      vertex   1.758704e+01 3.945075e+00 2.429708e+02
    endloop
  endfacet
  facet normal 9.366722e-01 3.502074e-01 3.433979e-16
    outer loop
      vertex   1.758704e+01 3.945075e+00 2.429708e+02
      vertex   1.584544e+01 8.603191e+00 3.246375e+02
      vertex   1.758704e+01 3.945075e+00 3.246375e+02
    endloop
  endfacet
  facet normal 9.953962e-01 9.584575e-02 9.298924e-16
    outer loop
      vertex   1.758704e+01 3.945075e+00 2.429708e+02
      vertex   1.758704e+01 3.945075e+00 3.246375e+02
      vertex   1.806369e+01 -1.005078e+00 2.429708e+02
    endloop
  endfacet
  facet normal 9.953962e-01 9.584575e-02 1.012328e-15
    outer loop
      vertex   1.806369e+01 -1.005078e+00 2.429708e+02
      vertex   1.758704e+01 3.945075e+00 3.246375e+02
      vertex   1.806369e+01 -1.005078e+00 3.246375e+02
    endloop
  endfacet
  facet normal 9.862856e-01 -1.650476e-01 1.546008e-15
    outer loop
      vertex   1.806369e+01 -1.005078e+00 2.429708e+02
      vertex   1.806369e+01 -1.005078e+00 3.246375e+02
      vertex   1.724290e+01 -5.909923e+00 2.429708e+02
    endloop
  endfacet
  facet normal 9.862856e-01 -1.650476e-01 1.445836e-15
    outer loop
      vertex   1.724290e+01 -5.909923e+00 2.429708e+02
      vertex   1.806369e+01 -1.005078e+00 3.246375e+02
      vertex   1.724290e+01 -5.909923e+00 3.246375e+02
    endloop
  endfacet
  facet normal 9.099613e-01 -4.146932e-01 1.859079e-15
    outer loop
      vertex   1.724290e+01 -5.909923e+00 2.429708e+02
      vertex   1.724290e+01 -5.909923e+00 3.246375e+02
      vertex   1.518061e+01 -1.043520e+01 2.429708e+02
    endloop
  endfacet
  facet normal 9.099613e-01 -4.146932e-01 1.819493e-15
    outer loop
      vertex   1.518061e+01 -1.043520e+01 2.429708e+02
      vertex   1.724290e+01 -5.909923e+00 3.246375e+02
      vertex   1.518061e+01 -1.043520e+01 3.246375e+02
    endloop
  endfacet
  facet normal 7.716246e-01 -6.360782e-01 2.112061e-15
    outer loop
      vertex   1.518061e+01 -1.043520e+01 2.429708e+02
      vertex   1.518061e+01 -1.043520e+01 3.246375e+02
      vertex   1.201736e+01 -1.427253e+01 2.429708e+02
    endloop
  endfacet
  facet normal 7.716246e-01 -6.360782e-01 2.145629e-15
    outer loop
      vertex   1.201736e+01 -1.427253e+01 2.429708e+02
      vertex   1.518061e+01 -1.043520e+01 3.246375e+02
      vertex   1.201736e+01 -1.427253e+01 3.246375e+02
    endloop
  endfacet
  facet normal 5.807030e-01 -8.141155e-01 2.285958e-15
    outer loop
      vertex   1.201736e+01 -1.427253e+01 2.429708e+02
      vertex   1.201736e+01 -1.427253e+01 3.246375e+02
      vertex   7.968723e+00 -1.716039e+01 2.429708e+02
    endloop
  endfacet
  facet normal 5.807030e-01 -8.141155e-01 2.331528e-15
    outer loop
      vertex   7.968723e+00 -1.716039e+01 2.429708e+02
      vertex   1.201736e+01 -1.427253e+01 3.246375e+02
      vertex   7.968723e+00 -1.716039e+01 3.246375e+02
    endloop
  endfacet
  facet normal 3.502074e-01 -9.366722e-01 2.336763e-15
    outer loop
      vertex   7.968723e+00 -1.716039e+01 2.429708e+02
      vertex   7.968723e+00 -1.716039e+01 3.246375e+02
      vertex   3.310607e+00 -1.890199e+01 2.429708e+02
    endloop
  endfacet
  facet normal 3.502074e-01 -9.366722e-01 2.270502e-15
    outer loop
      vertex   3.310607e+00 -1.890199e+01 2.429708e+02
      vertex   7.968723e+00 -1.716039e+01 3.246375e+02
      vertex   3.310607e+00 -1.890199e+01 3.246375e+02
    endloop
  endfacet
  facet normal 9.584575e-02 -9.953962e-01 2.100316e-15
    outer loop
      vertex   3.310607e+00 -1.890199e+01 2.429708e+02
      vertex   3.310607e+00 -1.890199e+01 3.246375e+02
      vertex   -1.639546e+00 -1.937864e+01 2.429708e+02
    endloop
  endfacet
  facet normal 9.584575e-02 -9.953962e-01 2.184836e-15
    outer loop
      vertex   -1.639546e+00 -1.937864e+01 2.429708e+02
      vertex   3.310607e+00 -1.890199e+01 3.246375e+02
      vertex   -1.639546e+00 -1.937864e+01 3.246375e+02
    endloop
  endfacet
  facet normal -1.650476e-01 -9.862856e-01 1.876398e-15
    outer loop
      vertex   -1.639546e+00 -1.937864e+01 2.429708e+02
      vertex   -1.639546e+00 -1.937864e+01 3.246375e+02
      vertex   -6.544391e+00 -1.855785e+01 2.429708e+02
    endloop
  endfacet
  facet normal -1.650476e-01 -9.862856e-01 1.865628e-15
    outer loop
      vertex   -6.544391e+00 -1.855785e+01 2.429708e+02
      vertex   -1.639546e+00 -1.937864e+01 3.246375e+02
      vertex   -6.544391e+00 -1.855785e+01 3.246375e+02
    endloop
  endfacet
  facet normal -4.146932e-01 -9.099613e-01 1.413027e-15
    outer loop
      vertex   -6.544391e+00 -1.855785e+01 2.429708e+02
      vertex   -6.544391e+00 -1.855785e+01 3.246375e+02
      vertex   -1.106967e+01 -1.649556e+01 2.429708e+02
    endloop
  endfacet
  facet normal -4.146932e-01 -9.099613e-01 1.440087e-15
    outer loop
      vertex   -1.106967e+01 -1.649556e+01 2.429708e+02
      vertex   -6.544391e+00 -1.855785e+01 3.246375e+02
      vertex   -1.106967e+01 -1.649556e+01 3.246375e+02
    endloop
  endfacet
  facet normal -6.360782e-01 -7.716246e-01 9.056368e-16
    outer loop
      vertex   -1.106967e+01 -1.649556e+01 2.429708e+02
      vertex   -1.106967e+01 -1.649556e+01 3.246375e+02
      vertex   -1.490700e+01 -1.333231e+01 2.429708e+02
    endloop
  endfacet
  facet normal -6.360782e-01 -7.716246e-01 7.713661e-16
    outer loop
      vertex   -1.490700e+01 -1.333231e+01 2.429708e+02
      vertex   -1.106967e+01 -1.649556e+01 3.246375e+02
      vertex   -1.490700e+01 -1.333231e+01 3.246375e+02
    endloop
  endfacet
  facet normal -8.141155e-01 -5.807030e-01 2.917607e-16
    outer loop
      vertex   -1.779486e+01 -9.283676e+00 4.063042e+02
      vertex   -1.779486e+01 -9.283676e+00 3.246375e+02
      vertex   -1.490700e+01 -1.333231e+01 4.063042e+02
    endloop
  endfacet
  facet normal -8.141155e-01 -5.807030e-01 2.917607e-16
    outer loop
      vertex   -1.490700e+01 -1.333231e+01 4.063042e+02
      vertex   -1.779486e+01 -9.283676e+00 3.246375e+02
      vertex   -1.490700e+01 -1.333231e+01 3.246375e+02
    endloop
  endfacet
  facet normal -6.360782e-01 -7.716246e-01 8.918013e-16
    outer loop
      vertex   -1.490700e+01 -1.333231e+01 4.063042e+02
      vertex   -1.490700e+01 -1.333231e+01 3.246375e+02
      vertex   -1.106967e+01 -1.649556e+01 4.063042e+02
    endloop
  endfacet
  facet normal -6.360782e-01 -7.716246e-01 7.990371e-16
    outer loop
      vertex   -1.106967e+01 -1.649556e+01 4.063042e+02
      vertex   -1.490700e+01 -1.333231e+01 3.246375e+02
      vertex   -1.106967e+01 -1.649556e+01 3.246375e+02
    endloop
  endfacet
  facet normal -4.146932e-01 -9.099613e-01 1.299785e-15
    outer loop
      vertex   -1.106967e+01 -1.649556e+01 4.063042e+02
      vertex   -1.106967e+01 -1.649556e+01 3.246375e+02
      vertex   -6.544391e+00 -1.855785e+01 4.063042e+02
    endloop
  endfacet
  facet normal -4.146932e-01 -9.099613e-01 1.308805e-15
    outer loop
      vertex   -6.544391e+00 -1.855785e+01 4.063042e+02
      vertex   -1.106967e+01 -1.649556e+01 3.246375e+02
      vertex   -6.544391e+00 -1.855785e+01 3.246375e+02
    endloop
  endfacet
  facet normal -1.650476e-01 -9.862856e-01 1.715544e-15
    outer loop
      vertex   -6.544391e+00 -1.855785e+01 4.063042e+02
      vertex   -6.544391e+00 -1.855785e+01 3.246375e+02
      vertex   -1.639546e+00 -1.937864e+01 4.063042e+02
    endloop
  endfacet
  facet normal -1.650476e-01 -9.862856e-01 1.615372e-15
    outer loop
      vertex   -1.639546e+00 -1.937864e+01 4.063042e+02
      vertex   -6.544391e+00 -1.855785e+01 3.246375e+02
      vertex   -1.639546e+00 -1.937864e+01 3.246375e+02
    endloop
  endfacet
  facet normal 9.584575e-02 -9.953962e-01 1.927106e-15
    outer loop
      vertex   -1.639546e+00 -1.937864e+01 4.063042e+02
      vertex   -1.639546e+00 -1.937864e+01 3.246375e+02
      vertex   3.310607e+00 -1.890199e+01 4.063042e+02
    endloop
  endfacet
  facet normal 9.584575e-02 -9.953962e-01 1.931276e-15
    outer loop
      vertex   3.310607e+00 -1.890199e+01 4.063042e+02
      vertex   -1.639546e+00 -1.937864e+01 3.246375e+02
      vertex   3.310607e+00 -1.890199e+01 3.246375e+02
    endloop
  endfacet
  facet normal 3.502074e-01 -9.366722e-01 2.122746e-15
    outer loop
      vertex   3.310607e+00 -1.890199e+01 4.063042e+02
      vertex   3.310607e+00 -1.890199e+01 3.246375e+02
      vertex   7.968723e+00 -1.716039e+01 4.063042e+02
    endloop
  endfacet
  facet normal 3.502074e-01 -9.366722e-01 2.173772e-15
    outer loop
      vertex   7.968723e+00 -1.716039e+01 4.063042e+02
      vertex   3.310607e+00 -1.890199e+01 3.246375e+02
      vertex   7.968723e+00 -1.716039e+01 3.246375e+02
    endloop
  endfacet
  facet normal 5.807030e-01 -8.141155e-01 2.189863e-15
    outer loop
      vertex   7.968723e+00 -1.716039e+01 4.063042e+02
      vertex   7.968723e+00 -1.716039e+01 3.246375e+02
      vertex   1.201736e+01 -1.427253e+01 4.063042e+02
    endloop
  endfacet
  facet normal 5.807030e-01 -8.141155e-01 2.215125e-15
    outer loop
      vertex   1.201736e+01 -1.427253e+01 4.063042e+02
      vertex   7.968723e+00 -1.716039e+01 3.246375e+02
      vertex   1.201736e+01 -1.427253e+01 3.246375e+02
    endloop
  endfacet
  facet normal 7.716246e-01 -6.360782e-01 2.090287e-15
    outer loop
      vertex   1.201736e+01 -1.427253e+01 4.063042e+02
      vertex   1.201736e+01 -1.427253e+01 3.246375e+02
      vertex   1.518061e+01 -1.043520e+01 4.063042e+02
    endloop
  endfacet
  facet normal 7.716246e-01 -6.360782e-01 2.090287e-15
    outer loop
      vertex   1.518061e+01 -1.043520e+01 4.063042e+02
      vertex   1.201736e+01 -1.427253e+01 3.246375e+02
      vertex   1.518061e+01 -1.043520e+01 3.246375e+02
    endloop
  endfacet
  facet normal 9.099613e-01 -4.146932e-01 1.822999e-15
    outer loop
      vertex   1.518061e+01 -1.043520e+01 4.063042e+02
      vertex   1.518061e+01 -1.043520e+01 3.246375e+02
      vertex   1.724290e+01 -5.909923e+00 4.063042e+02
    endloop
  endfacet
  facet normal 9.099613e-01 -4.146932e-01 1.743827e-15
    outer loop
      vertex   1.724290e+01 -5.909923e+00 4.063042e+02
      vertex   1.518061e+01 -1.043520e+01 3.246375e+02
      vertex   1.724290e+01 -5.909923e+00 3.246375e+02
    endloop
  endfacet
  facet normal 9.862856e-01 -1.650476e-01 1.345664e-15
    outer loop
      vertex   1.724290e+01 -5.909923e+00 4.063042e+02
      vertex   1.724290e+01 -5.909923e+00 3.246375e+02
      vertex   1.806369e+01 -1.005078e+00 4.063042e+02
    endloop
  endfacet
  facet normal 9.862856e-01 -1.650476e-01 1.352844e-15
    outer loop
      vertex   1.806369e+01 -1.005078e+00 4.063042e+02
      vertex   1.724290e+01 -5.909923e+00 3.246375e+02
      vertex   1.806369e+01 -1.005078e+00 3.246375e+02
    endloop
  endfacet
  facet normal 9.953962e-01 9.584575e-02 8.516268e-16
    outer loop
      vertex   1.806369e+01 -1.005078e+00 4.063042e+02
      vertex   1.806369e+01 -1.005078e+00 3.246375e+02
      vertex   1.758704e+01 3.945075e+00 4.063042e+02
    endloop
  endfacet
  facet normal 9.953962e-01 9.584575e-02 8.516268e-16
    outer loop
      vertex   1.758704e+01 3.945075e+00 4.063042e+02
      vertex   1.806369e+01 -1.005078e+00 3.246375e+02
      vertex   1.758704e+01 3.945075e+00 3.246375e+02
    endloop
  endfacet
  facet normal 9.366722e-01 3.502074e-01 2.923724e-16
    outer loop
      vertex   1.758704e+01 3.945075e+00 4.063042e+02
      vertex   1.758704e+01 3.945075e+00 3.246375e+02
      vertex   1.584544e+01 8.603191e+00 4.063042e+02
    endloop
  endfacet
  facet normal 9.366722e-01 3.502074e-01 3.689107e-16
    outer loop
      vertex   1.584544e+01 8.603191e+00 4.063042e+02
      vertex   1.758704e+01 3.945075e+00 3.246375e+02
      vertex   1.584544e+01 8.603191e+00 3.246375e+02
    endloop
  endfacet
  facet normal 8.141155e-01 5.807030e-01 -2.563445e-16
    outer loop
      vertex   1.584544e+01 8.603191e+00 4.063042e+02
      vertex   1.584544e+01 8.603191e+00 3.246375e+02
      vertex   1.295758e+01 1.265183e+01 4.063042e+02
    endloop
  endfacet
  facet normal 8.141155e-01 5.807030e-01 -3.145458e-16
    outer loop
      vertex   1.295758e+01 1.265183e+01 4.063042e+02
      vertex   1.584544e+01 8.603191e+00 3.246375e+02
      vertex   1.295758e+01 1.265183e+01 3.246375e+02
    endloop
  endfacet
  facet normal 6.360782e-01 7.716246e-01 -9.026885e-16
    outer loop
      vertex   1.295758e+01 1.265183e+01 4.063042e+02
      vertex   1.295758e+01 1.265183e+01 3.246375e+02
      vertex   9.120252e+00 1.581507e+01 4.063042e+02
    endloop
  endfacet
  facet normal 6.360782e-01 7.716246e-01 -8.246659e-16
    outer loop
      vertex   9.120252e+00 1.581507e+01 4.063042e+02
      vertex   1.295758e+01 1.265183e+01 3.246375e+02
      vertex   9.120252e+00 1.581507e+01 3.246375e+02
    endloop
  endfacet
  facet normal 4.146932e-01 9.099613e-01 -1.351896e-15
    outer loop
      vertex   9.120252e+00 1.581507e+01 4.063042e+02
      vertex   9.120252e+00 1.581507e+01 3.246375e+02
      vertex   4.594971e+00 1.787736e+01 4.063042e+02
    endloop
  endfacet
  facet normal 4.146932e-01 9.099613e-01 -1.333856e-15
    outer loop
      vertex   4.594971e+00 1.787736e+01 4.063042e+02
      vertex   9.120252e+00 1.581507e+01 3.246375e+02
      vertex   4.594971e+00 1.787736e+01 3.246375e+02
    endloop
  endfacet
  facet normal 1.650476e-01 9.862856e-01 -1.779816e-15
    outer loop
      vertex   4.594971e+00 1.787736e+01 4.063042e+02
      vertex   4.594971e+00 1.787736e+01 3.246375e+02
      vertex   -3.098748e-01 1.869815e+01 4.063042e+02
    endloop
  endfacet
  facet normal 1.650476e-01 9.862856e-01 -1.783406e-15
    outer loop
      vertex   -3.098748e-01 1.869815e+01 4.063042e+02
      vertex   4.594971e+00 1.787736e+01 3.246375e+02
      vertex   -3.098748e-01 1.869815e+01 3.246375e+02
    endloop
  endfacet
  facet normal -9.584575e-02 9.953962e-01 -2.102400e-15
    outer loop
      vertex   -3.098748e-01 1.869815e+01 4.063042e+02
      vertex   -3.098748e-01 1.869815e+01 3.246375e+02
      vertex   -5.260028e+00 1.822151e+01 4.063042e+02
    endloop
  endfacet
  facet normal -9.584575e-02 9.953962e-01 -2.100316e-15
    outer loop
      vertex   -5.260028e+00 1.822151e+01 4.063042e+02
      vertex   -3.098748e-01 1.869815e+01 3.246375e+02
      vertex   -5.260028e+00 1.822151e+01 3.246375e+02
    endloop
  endfacet
  facet normal -3.502074e-01 9.366722e-01 -2.270502e-15
    outer loop
      vertex   -5.260028e+00 1.822151e+01 4.063042e+02
      vertex   -5.260028e+00 1.822151e+01 3.246375e+02
      vertex   -9.918144e+00 1.647991e+01 4.063042e+02
    endloop
  endfacet
  facet normal -3.502074e-01 9.366722e-01 -2.296015e-15
    outer loop
      vertex   -9.918144e+00 1.647991e+01 4.063042e+02
      vertex   -5.260028e+00 1.822151e+01 3.246375e+02
      vertex   -9.918144e+00 1.647991e+01 3.246375e+02
    endloop
  endfacet
  facet normal -5.807030e-01 8.141155e-01 -2.296112e-15
    outer loop
      vertex   -9.918144e+00 1.647991e+01 4.063042e+02
      vertex   -9.918144e+00 1.647991e+01 3.246375e+02
      vertex   -1.396678e+01 1.359205e+01 4.063042e+02
    endloop
  endfacet
  facet normal -5.807030e-01 8.141155e-01 -2.303666e-15
    outer loop
      vertex   -1.396678e+01 1.359205e+01 4.063042e+02
      vertex   -9.918144e+00 1.647991e+01 3.246375e+02
      vertex   -1.396678e+01 1.359205e+01 3.246375e+02
    endloop
  endfacet
  facet normal -7.716246e-01 6.360782e-01 -2.159465e-15
    outer loop
      vertex   -1.396678e+01 1.359205e+01 4.063042e+02
      vertex   -1.396678e+01 1.359205e+01 3.246375e+02
      vertex   -1.713003e+01 9.754720e+00 4.063042e+02
    endloop
  endfacet
  facet normal -7.716246e-01 6.360782e-01 -2.145629e-15
    outer loop
      vertex   -1.713003e+01 9.754720e+00 4.063042e+02
      vertex   -1.396678e+01 1.359205e+01 3.246375e+02
      vertex   -1.713003e+01 9.754720e+00 3.246375e+02
    endloop
  endfacet
  facet normal -9.099613e-01 4.146932e-01 -1.859079e-15
    outer loop
      vertex   -1.713003e+01 9.754720e+00 4.063042e+02
      vertex   -1.713003e+01 9.754720e+00 3.246375e+02
      vertex   -1.919232e+01 5.229439e+00 4.063042e+02
    endloop
  endfacet
  facet normal -9.099613e-01 4.146932e-01 -1.859079e-15
    outer loop
      vertex   -1.919232e+01 5.229439e+00 4.063042e+02
      vertex   -1.713003e+01 9.754720e+00 3.246375e+02
      vertex   -1.919232e+01 5.229439e+00 3.246375e+02
    endloop
  endfacet
  facet normal -9.862856e-01 1.650476e-01 -1.445836e-15
    outer loop
      vertex   -1.919232e+01 5.229439e+00 4.063042e+02
      vertex   -1.919232e+01 5.229439e+00 3.246375e+02
      vertex   -2.001311e+01 3.245932e-01 4.063042e+02
    endloop
  endfacet
  facet normal -9.862856e-01 1.650476e-01 -1.410110e-15
    outer loop
      vertex   -2.001311e+01 3.245932e-01 4.063042e+02
      vertex   -1.919232e+01 5.229439e+00 3.246375e+02
      vertex   -2.001311e+01 3.245932e-01 3.246375e+02
    endloop
  endfacet
  facet normal -9.953962e-01 -9.584575e-02 -8.865900e-16
    outer loop
      vertex   -2.001311e+01 3.245932e-01 4.063042e+02
      vertex   -2.001311e+01 3.245932e-01 3.246375e+02
      vertex   -1.953646e+01 -4.625560e+00 4.063042e+02
    endloop
  endfacet
  facet normal -9.953962e-01 -9.584575e-02 -9.257228e-16
    outer loop
      vertex   -1.953646e+01 -4.625560e+00 4.063042e+02
      vertex   -2.001311e+01 3.245932e-01 3.246375e+02
      vertex   -1.953646e+01 -4.625560e+00 3.246375e+02
    endloop
  endfacet
  facet normal -9.366722e-01 -3.502074e-01 -3.281630e-16
    outer loop
      vertex   -1.953646e+01 -4.625560e+00 4.063042e+02
      vertex   -1.953646e+01 -4.625560e+00 3.246375e+02
      vertex   -1.779486e+01 -9.283676e+00 4.063042e+02
    endloop
  endfacet
  facet normal -9.366722e-01 -3.502074e-01 -3.281630e-16
    outer loop
      vertex   -1.779486e+01 -9.283676e+00 4.063042e+02
      vertex   -1.953646e+01 -4.625560e+00 3.246375e+02
      vertex   -1.779486e+01 -9.283676e+00 3.246375e+02
    endloop
  endfacet
  facet normal -0.000000e+00 0.000000e+00 -1.000000e+00
    outer loop
      vertex   -1.391946e+01 -1.268986e+01 2.429708e+02
      vertex   -1.490700e+01 -1.333231e+01 2.429708e+02
      vertex   -1.677132e+01 -8.739451e+00 2.429708e+02
    endloop
  endfacet
  facet normal 0.000000e+00 -0.000000e+00 -1.000000e+00
    outer loop
      vertex   -1.677132e+01 -8.739451e+00 2.429708e+02
      vertex   -1.490700e+01 -1.333231e+01 2.429708e+02
      vertex   -1.779486e+01 -9.283676e+00 2.429708e+02
    endloop
  endfacet
  facet normal -0.000000e+00 0.000000e+00 -1.000000e+00
    outer loop
      vertex   -1.677132e+01 -8.739451e+00 2.429708e+02
      vertex   -1.779486e+01 -9.283676e+00 2.429708e+02
      vertex   -1.953646e+01 -4.625560e+00 2.429708e+02
    endloop
  endfacet
  facet normal 0.000000e+00 0.000000e+00 -1.000000e+00
    outer loop
      vertex   -1.490700e+01 -1.333231e+01 2.429708e+02
      vertex   -1.391946e+01 -1.268986e+01 2.429708e+02
      vertex   -1.106967e+01 -1.649556e+01 2.429708e+02
    endloop
  endfacet
  facet normal 0.000000e+00 0.000000e+00 -1.000000e+00
    outer loop
      vertex   -1.106967e+01 -1.649556e+01 2.429708e+02
      vertex   -1.391946e+01 -1.268986e+01 2.429708e+02
      vertex   -1.010755e+01 -1.572436e+01 2.429708e+02
    endloop
  endfacet
  facet normal 0.000000e+00 0.000000e+00 -1.000000e+00
    outer loop
      vertex   -1.106967e+01 -1.649556e+01 2.429708e+02
      vertex   -1.010755e+01 -1.572436e+01 2.429708e+02
      vertex   -6.544391e+00 -1.855785e+01 2.429708e+02
    endloop
  endfacet
  facet normal 0.000000e+00 0.000000e+00 -1.000000e+00
    outer loop
      vertex   -6.544391e+00 -1.855785e+01 2.429708e+02
      vertex   -1.010755e+01 -1.572436e+01 2.429708e+02
      vertex   -5.618295e+00 -1.761788e+01 2.429708e+02
    endloop
  endfacet
  facet normal 0.000000e+00 0.000000e+00 -1.000000e+00
    outer loop
      vertex   -6.544391e+00 -1.855785e+01 2.429708e+02
      vertex   -5.618295e+00 -1.761788e+01 2.429708e+02
      vertex   -1.639546e+00 -1.937864e+01 2.429708e+02
    endloop
  endfacet
  facet normal 0.000000e+00 0.000000e+00 -1.000000e+00
    outer loop
      vertex   -1.639546e+00 -1.937864e+01 2.429708e+02
      vertex   -5.618295e+00 -1.761788e+01 2.429708e+02
      vertex   -7.846469e-01 -1.823000e+01 2.429708e+02
    endloop
  endfacet
  facet normal 0.000000e+00 0.000000e+00 -1.000000e+00
    outer loop
      vertex   -1.639546e+00 -1.937864e+01 2.429708e+02
      vertex   -7.846469e-01 -1.823000e+01 2.429708e+02
      vertex   3.310607e+00 -1.890199e+01 2.429708e+02
    endloop
  endfacet
  facet normal 0.000000e+00 0.000000e+00 -1.000000e+00
    outer loop
      vertex   3.310607e+00 -1.890199e+01 2.429708e+02
      vertex   -7.846469e-01 -1.823000e+01 2.429708e+02
      vertex   4.034905e+00 -1.751533e+01 2.429708e+02
    endloop
  endfacet
  facet normal 0.000000e+00 0.000000e+00 -1.000000e+00
    outer loop
      vertex   3.310607e+00 -1.890199e+01 2.429708e+02
      vertex   4.034905e+00 -1.751533e+01 2.429708e+02
      vertex   7.968723e+00 -1.716039e+01 2.429708e+02
    endloop
  endfacet
  facet normal -0.000000e+00 0.000000e+00 -1.000000e+00
    outer loop
      vertex   7.968723e+00 -1.716039e+01 2.429708e+02
      vertex   4.034905e+00 -1.751533e+01 2.429708e+02
      vertex   8.482917e+00 -1.552685e+01 2.429708e+02
    endloop
  endfacet
  facet normal 0.000000e+00 0.000000e+00 -1.000000e+00
    outer loop
      vertex   7.968723e+00 -1.716039e+01 2.429708e+02
      vertex   8.482917e+00 -1.552685e+01 2.429708e+02
      vertex   1.201736e+01 -1.427253e+01 2.429708e+02
    endloop
  endfacet
  facet normal -0.000000e+00 0.000000e+00 -1.000000e+00
    outer loop
      vertex   1.201736e+01 -1.427253e+01 2.429708e+02
      vertex   8.482917e+00 -1.552685e+01 2.429708e+02
      vertex   1.222950e+01 -1.241205e+01 2.429708e+02
    endloop
  endfacet
  facet normal 0.000000e+00 0.000000e+00 -1.000000e+00
    outer loop
      vertex   1.201736e+01 -1.427253e+01 2.429708e+02
      vertex   1.222950e+01 -1.241205e+01 2.429708e+02
      vertex   1.518061e+01 -1.043520e+01 2.429708e+02
    endloop
  endfacet
  facet normal -0.000000e+00 0.000000e+00 -1.000000e+00
    outer loop
      vertex   1.518061e+01 -1.043520e+01 2.429708e+02
      vertex   1.222950e+01 -1.241205e+01 2.429708e+02
      vertex   1.499679e+01 -8.401942e+00 2.429708e+02
    endloop
  endfacet
  facet normal 0.000000e+00 0.000000e+00 -1.000000e+00
    outer loop
      vertex   1.518061e+01 -1.043520e+01 2.429708e+02
      vertex   1.499679e+01 -8.401942e+00 2.429708e+02
      vertex   1.724290e+01 -5.909923e+00 2.429708e+02
    endloop
  endfacet
  facet normal -0.000000e+00 0.000000e+00 -1.000000e+00
    outer loop
      vertex   1.724290e+01 -5.909923e+00 2.429708e+02
      vertex   1.499679e+01 -8.401942e+00 2.429708e+02
      vertex   1.657954e+01 -3.793934e+00 2.429708e+02
    endloop
  endfacet
  facet normal 0.000000e+00 0.000000e+00 -1.000000e+00
    outer loop
      vertex   1.724290e+01 -5.909923e+00 2.429708e+02
      vertex   1.657954e+01 -3.793934e+00 2.429708e+02
      vertex   1.806369e+01 -1.005078e+00 2.429708e+02
    endloop
  endfacet
  facet normal -0.000000e+00 0.000000e+00 -1.000000e+00
    outer loop
      vertex   1.806369e+01 -1.005078e+00 2.429708e+02
      vertex   1.657954e+01 -3.793934e+00 2.429708e+02
      vertex   1.686038e+01 1.070219e+00 2.429708e+02
    endloop
  endfacet
  facet normal 0.000000e+00 0.000000e+00 -1.000000e+00
    outer loop
      vertex   1.806369e+01 -1.005078e+00 2.429708e+02
      vertex   1.686038e+01 1.070219e+00 2.429708e+02
      vertex   1.758704e+01 3.945075e+00 2.429708e+02
    endloop
  endfacet
  facet normal -0.000000e+00 0.000000e+00 -1.000000e+00
    outer loop
      vertex   1.758704e+01 3.945075e+00 2.429708e+02
      vertex   1.686038e+01 1.070219e+00 2.429708e+02
      vertex   1.581847e+01 5.829764e+00 2.429708e+02
    endloop
  endfacet
  facet normal -1.080865e-14 -1.014273e-14 -1.000000e+00
    outer loop
      vertex   1.758704e+01 3.945075e+00 2.429708e+02
      vertex   1.581847e+01 5.829764e+00 2.429708e+02
      vertex   1.584544e+01 8.603191e+00 2.429708e+02
    endloop
  endfacet
  facet normal -1.892719e-14 -1.006377e-14 -1.000000e+00
    outer loop
      vertex   1.584544e+01 8.603191e+00 2.429708e+02
      vertex   1.581847e+01 5.829764e+00 2.429708e+02
      vertex   1.353108e+01 1.013171e+01 2.429708e+02
    endloop
  endfacet
  facet normal -3.198484e-14 -2.983464e-14 -1.000000e+00
    outer loop
      vertex   1.584544e+01 8.603191e+00 2.429708e+02
      vertex   1.353108e+01 1.013171e+01 2.429708e+02
      vertex   1.295758e+01 1.265183e+01 2.429708e+02
    endloop
  endfacet
  facet normal -8.853088e-15 -2.457055e-14 -1.000000e+00
    outer loop
      vertex   1.295758e+01 1.265183e+01 2.429708e+02
      vertex   1.353108e+01 1.013171e+01 2.429708e+02
      vertex   1.016787e+01 1.365700e+01 2.429708e+02
    endloop
  endfacet
  facet normal 0.000000e+00 0.000000e+00 -1.000000e+00
    outer loop
      vertex   1.295758e+01 1.265183e+01 2.429708e+02
      vertex   1.016787e+01 1.365700e+01 2.429708e+02
      vertex   9.120252e+00 1.581507e+01 2.429708e+02
    endloop
  endfacet
  facet normal -0.000000e+00 -0.000000e+00 -1.000000e+00
    outer loop
      vertex   9.120252e+00 1.581507e+01 2.429708e+02
      vertex   1.016787e+01 1.365700e+01 2.429708e+02
      vertex   5.978262e+00 1.614417e+01 2.429708e+02
    endloop
  endfacet
  facet normal 0.000000e+00 0.000000e+00 -1.000000e+00
    outer loop
      vertex   9.120252e+00 1.581507e+01 2.429708e+02
      vertex   5.978262e+00 1.614417e+01 2.429708e+02
      vertex   4.594971e+00 1.787736e+01 2.429708e+02
    endloop
  endfacet
  facet normal 0.000000e+00 -0.000000e+00 -1.000000e+00
    outer loop
      vertex   4.594971e+00 1.787736e+01 2.429708e+02
      vertex   5.978262e+00 1.614417e+01 2.429708e+02
      vertex   1.272986e+00 1.740877e+01 2.429708e+02
    endloop
  endfacet
  facet normal -0.000000e+00 0.000000e+00 -1.000000e+00
    outer loop
      vertex   4.594971e+00 1.787736e+01 2.429708e+02
      vertex   1.272986e+00 1.740877e+01 2.429708e+02
      vertex   -3.098748e-01 1.869815e+01 2.429708e+02
    endloop
  endfacet
  facet normal 0.000000e+00 -0.000000e+00 -1.000000e+00
    outer loop
      vertex   -3.098748e-01 1.869815e+01 2.429708e+02
      vertex   1.272986e+00 1.740877e+01 2.429708e+02
      vertex   -3.598992e+00 1.735701e+01 2.429708e+02
    endloop
  endfacet
  facet normal 0.000000e+00 0.000000e+00 -1.000000e+00
    outer loop
      vertex   -3.098748e-01 1.869815e+01 2.429708e+02
      vertex   -3.598992e+00 1.735701e+01 2.429708e+02
      vertex   -5.260028e+00 1.822151e+01 2.429708e+02
    endloop
  endfacet
  facet normal 0.000000e+00 -0.000000e+00 -1.000000e+00
    outer loop
      vertex   -5.260028e+00 1.822151e+01 2.429708e+02
      vertex   -3.598992e+00 1.735701e+01 2.429708e+02
      vertex   -8.276339e+00 1.599273e+01 2.429708e+02
    endloop
  endfacet
  facet normal 0.000000e+00 0.000000e+00 -1.000000e+00
    outer loop
      vertex   -5.260028e+00 1.822151e+01 2.429708e+02
      vertex   -8.276339e+00 1.599273e+01 2.429708e+02
      vertex   -9.918144e+00 1.647991e+01 2.429708e+02
    endloop
  endfacet
  facet normal 0.000000e+00 -0.000000e+00 -1.000000e+00
    outer loop
      vertex   -9.918144e+00 1.647991e+01 2.429708e+02
      vertex   -8.276339e+00 1.599273e+01 2.429708e+02
      vertex   -1.241216e+01 1.341710e+01 2.429708e+02
    endloop
  endfacet
  facet normal 0.000000e+00 0.000000e+00 -1.000000e+00
    outer loop
      vertex   -9.918144e+00 1.647991e+01 2.429708e+02
      vertex   -1.241216e+01 1.341710e+01 2.429708e+02
      vertex   -1.396678e+01 1.359205e+01 2.429708e+02
    endloop
  endfacet
  facet normal 0.000000e+00 -0.000000e+00 -1.000000e+00
    outer loop
      vertex   -1.396678e+01 1.359205e+01 2.429708e+02
      vertex   -1.241216e+01 1.341710e+01 2.429708e+02
      vertex   -1.569971e+01 9.821156e+00 2.429708e+02
    endloop
  endfacet
  facet normal 0.000000e+00 0.000000e+00 -1.000000e+00
    outer loop
      vertex   -1.396678e+01 1.359205e+01 2.429708e+02
      vertex   -1.569971e+01 9.821156e+00 2.429708e+02
      vertex   -1.713003e+01 9.754720e+00 2.429708e+02
    endloop
  endfacet
  facet normal 0.000000e+00 -0.000000e+00 -1.000000e+00
    outer loop
      vertex   -1.713003e+01 9.754720e+00 2.429708e+02
      vertex   -1.569971e+01 9.821156e+00 2.429708e+02
      vertex   -1.789518e+01 5.471585e+00 2.429708e+02
    endloop
  endfacet
  facet normal 0.000000e+00 0.000000e+00 -1.000000e+00
    outer loop
      vertex   -1.713003e+01 9.754720e+00 2.429708e+02
      vertex   -1.789518e+01 5.471585e+00 2.429708e+02
      vertex   -1.919232e+01 5.229439e+00 2.429708e+02
    endloop
  endfacet
  facet normal 0.000000e+00 0.000000e+00 -1.000000e+00
    outer loop
      vertex   -1.919232e+01 5.229439e+00 2.429708e+02
      vertex   -1.789518e+01 5.471585e+00 2.429708e+02
      vertex   -1.883574e+01 6.909780e-01 2.429708e+02
    endloop
  endfacet
  facet normal 0.000000e+00 -0.000000e+00 -1.000000e+00
    outer loop
      vertex   -1.919232e+01 5.229439e+00 2.429708e+02
      vertex   -1.883574e+01 6.909780e-01 2.429708e+02
      vertex   -2.001311e+01 3.245932e-01 2.429708e+02
    endloop
  endfacet
  facet normal 1.777219e-15 -5.711046e-15 -1.000000e+00
    outer loop
      vertex   -2.001311e+01 3.245932e-01 2.429708e+02
      vertex   -1.883574e+01 6.909780e-01 2.429708e+02
      vertex   -1.845162e+01 -4.166110e+00 2.429708e+02
    endloop
  endfacet
  facet normal -2.049972e-14 -1.345706e-14 -1.000000e+00
    outer loop
      vertex   -2.001311e+01 3.245932e-01 2.429708e+02
      vertex   -1.845162e+01 -4.166110e+00 2.429708e+02
      vertex   -1.953646e+01 -4.625560e+00 2.429708e+02
    endloop
  endfacet
  facet normal -2.039365e-14 -1.370751e-14 -1.000000e+00
    outer loop
      vertex   -1.953646e+01 -4.625560e+00 2.429708e+02
      vertex   -1.845162e+01 -4.166110e+00 2.429708e+02
      vertex   -1.677132e+01 -8.739451e+00 2.429708e+02
    endloop
  endfacet
endsolid
