solid GAS
  facet normal -9.985334e-01 -5.413891e-02 -9.692982e-16
    outer loop
      vertex   -1.142035e+02 -1.265462e+01 -2.128792e+02
      vertex   -1.142035e+02 -1.265462e+01 3.195818e+00
      vertex   -1.148712e+02 -3.402422e-01 -2.128792e+02
    endloop
  endfacet
  facet normal -9.985334e-01 -5.413891e-02 -9.572533e-16
    outer loop
      vertex   -1.148712e+02 -3.402422e-01 -2.128792e+02
      vertex   -1.142035e+02 -1.265462e+01 3.195818e+00
      vertex   -1.148712e+02 -3.402422e-01 3.195818e+00
    endloop
  endfacet
  facet normal -9.985334e-01 5.413891e-02 -1.144241e-15
    outer loop
      vertex   -1.148712e+02 -3.402422e-01 -2.128792e+02
      vertex   -1.148712e+02 -3.402422e-01 3.195818e+00
      vertex   -1.142035e+02 1.197414e+01 -2.128792e+02
    endloop
  endfacet
  facet normal -9.985334e-01 5.413891e-02 -1.131751e-15
    outer loop
      vertex   -1.142035e+02 1.197414e+01 -2.128792e+02
      vertex   -1.148712e+02 -3.402422e-01 3.195818e+00
      vertex   -1.142035e+02 1.197414e+01 3.195818e+00
    endloop
  endfacet
  facet normal -9.868265e-01 1.617820e-01 -1.280491e-15
    outer loop
      vertex   -1.142035e+02 1.197414e+01 -2.128792e+02
      vertex   -1.142035e+02 1.197414e+01 3.195818e+00
      vertex   -1.122084e+02 2.414414e+01 -2.128792e+02
    endloop
  endfacet
  facet normal -9.868265e-01 1.617820e-01 -1.385293e-15
    outer loop
      vertex   -1.122084e+02 2.414414e+01 -2.128792e+02
      vertex   -1.142035e+02 1.197414e+01 3.195818e+00
      vertex   -1.122084e+02 2.414414e+01 3.195818e+00
    endloop
  endfacet
  facet normal -9.635500e-01 2.675283e-01 -1.543569e-15
    outer loop
      vertex   -1.122084e+02 2.414414e+01 -2.128792e+02
      vertex   -1.122084e+02 2.414414e+01 3.195818e+00
      vertex   -1.089091e+02 3.602708e+01 -2.128792e+02
    endloop
  endfacet
  facet normal -9.635500e-01 2.675283e-01 -1.473189e-15
    outer loop
      vertex   -1.089091e+02 3.602708e+01 -2.128792e+02
      vertex   -1.122084e+02 2.414414e+01 3.195818e+00
      vertex   -1.089091e+02 3.602708e+01 3.195818e+00
    endloop
  endfacet
  facet normal -9.289767e-01 3.701382e-01 -1.586375e-15
    outer loop
      vertex   -1.089091e+02 3.602708e+01 -2.128792e+02
      vertex   -1.089091e+02 3.602708e+01 3.195818e+00
      vertex   -1.043444e+02 4.748366e+01 -2.128792e+02
    endloop
  endfacet
  facet normal -9.289767e-01 3.701382e-01 -1.610479e-15
    outer loop
      vertex   -1.043444e+02 4.748366e+01 -2.128792e+02
      vertex   -1.089091e+02 3.602708e+01 3.195818e+00
      vertex   -1.043444e+02 4.748366e+01 3.195818e+00
    endloop
  endfacet
  facet normal -8.835120e-01 4.684084e-01 -1.730677e-15
    outer loop
      vertex   -1.043444e+02 4.748366e+01 -2.128792e+02
      vertex   -1.043444e+02 4.748366e+01 3.195818e+00
      vertex   -9.856774e+01 5.837954e+01 -2.128792e+02
    endloop
  endfacet
  facet normal -8.835120e-01 4.684084e-01 -1.788784e-15
    outer loop
      vertex   -9.856774e+01 5.837954e+01 -2.128792e+02
      vertex   -1.043444e+02 4.748366e+01 3.195818e+00
      vertex   -9.856774e+01 5.837954e+01 3.195818e+00
    endloop
  endfacet
  facet normal -8.276890e-01 5.611871e-01 -1.885019e-15
    outer loop
      vertex   -9.856774e+01 5.837954e+01 -2.128792e+02
      vertex   -9.856774e+01 5.837954e+01 3.195818e+00
      vertex   -9.164692e+01 6.858698e+01 -2.128792e+02
    endloop
  endfacet
  facet normal -8.276890e-01 5.611871e-01 -1.828730e-15
    outer loop
      vertex   -9.164692e+01 6.858698e+01 -2.128792e+02
      vertex   -9.856774e+01 5.837954e+01 3.195818e+00
      vertex   -9.164692e+01 6.858698e+01 3.195818e+00
    endloop
  endfacet
  facet normal -7.621621e-01 6.473863e-01 -1.881548e-15
    outer loop
      vertex   -9.164692e+01 6.858698e+01 -2.128792e+02
      vertex   -9.164692e+01 6.858698e+01 3.195818e+00
      vertex   -8.366306e+01 7.798632e+01 -2.128792e+02
    endloop
  endfacet
  facet normal -7.621621e-01 6.473863e-01 -2.009280e-15
    outer loop
      vertex   -8.366306e+01 7.798632e+01 -2.128792e+02
      vertex   -9.164692e+01 6.858698e+01 3.195818e+00
      vertex   -8.366306e+01 7.798632e+01 3.195818e+00
    endloop
  endfacet
  facet normal -6.876995e-01 7.259955e-01 -2.055549e-15
    outer loop
      vertex   -8.366306e+01 7.798632e+01 -2.128792e+02
      vertex   -8.366306e+01 7.798632e+01 3.195818e+00
      vertex   -7.470974e+01 8.646735e+01 -2.128792e+02
    endloop
  endfacet
  facet normal -6.876995e-01 7.259955e-01 -2.002764e-15
    outer loop
      vertex   -7.470974e+01 8.646735e+01 -2.128792e+02
      vertex   -8.366306e+01 7.798632e+01 3.195818e+00
      vertex   -7.470974e+01 8.646735e+01 3.195818e+00
    endloop
  endfacet
  facet normal -6.051742e-01 7.960931e-01 -2.000248e-15
    outer loop
      vertex   -7.470974e+01 8.646735e+01 -2.128792e+02
      vertex   -7.470974e+01 8.646735e+01 3.195818e+00
      vertex   -6.489195e+01 9.393064e+01 -2.128792e+02
    endloop
  endfacet
  facet normal -6.051742e-01 7.960931e-01 -1.998116e-15
    outer loop
      vertex   -6.489195e+01 9.393064e+01 -2.128792e+02
      vertex   -7.470974e+01 8.646735e+01 3.195818e+00
      vertex   -6.489195e+01 9.393064e+01 3.195818e+00
    endloop
  endfacet
  facet normal -5.155539e-01 8.568572e-01 -2.007714e-15
    outer loop
      vertex   -6.489195e+01 9.393064e+01 -2.128792e+02
      vertex   -6.489195e+01 9.393064e+01 3.195818e+00
      vertex   -5.432479e+01 1.002887e+02 -2.128792e+02
    endloop
  endfacet
  facet normal -5.155539e-01 8.568572e-01 -2.013681e-15
    outer loop
      vertex   -5.432479e+01 1.002887e+02 -2.128792e+02
      vertex   -6.489195e+01 9.393064e+01 3.195818e+00
      vertex   -5.432479e+01 1.002887e+02 3.195818e+00
    endloop
  endfacet
  facet normal -4.198891e-01 9.075754e-01 -1.971049e-15
    outer loop
      vertex   -5.432479e+01 1.002887e+02 -2.128792e+02
      vertex   -5.432479e+01 1.002887e+02 3.195818e+00
      vertex   -4.313215e+01 1.054670e+02 -2.128792e+02
    endloop
  endfacet
  facet normal -4.198891e-01 9.075754e-01 -2.053464e-15
    outer loop
      vertex   -4.313215e+01 1.054670e+02 -2.128792e+02
      vertex   -5.432479e+01 1.002887e+02 3.195818e+00
      vertex   -4.313215e+01 1.054670e+02 3.195818e+00
    endloop
  endfacet
  facet normal -3.193015e-01 9.476532e-01 -2.018784e-15
    outer loop
      vertex   -4.313215e+01 1.054670e+02 -2.128792e+02
      vertex   -4.313215e+01 1.054670e+02 3.195818e+00
      vertex   -3.144525e+01 1.094047e+02 -2.128792e+02
    endloop
  endfacet
  facet normal -3.193015e-01 9.476532e-01 -1.993208e-15
    outer loop
      vertex   -3.144525e+01 1.094047e+02 -2.128792e+02
      vertex   -4.313215e+01 1.054670e+02 3.195818e+00
      vertex   -3.144525e+01 1.094047e+02 3.195818e+00
    endloop
  endfacet
  facet normal -2.149704e-01 9.766206e-01 -1.920947e-15
    outer loop
      vertex   -3.144525e+01 1.094047e+02 -2.128792e+02
      vertex   -3.144525e+01 1.094047e+02 3.195818e+00
      vertex   -1.940111e+01 1.120558e+02 -2.128792e+02
    endloop
  endfacet
  facet normal -2.149704e-01 9.766206e-01 -1.771279e-15
    outer loop
      vertex   -1.940111e+01 1.120558e+02 -2.128792e+02
      vertex   -3.144525e+01 1.094047e+02 3.195818e+00
      vertex   -1.940111e+01 1.120558e+02 3.195818e+00
    endloop
  endfacet
  facet normal -1.081190e-01 9.941380e-01 -1.684733e-15
    outer loop
      vertex   -1.940111e+01 1.120558e+02 -2.128792e+02
      vertex   -1.940111e+01 1.120558e+02 3.195818e+00
      vertex   -7.140942e+00 1.133892e+02 -2.128792e+02
    endloop
  endfacet
  facet normal -1.081190e-01 9.941380e-01 -1.891992e-15
    outer loop
      vertex   -7.140942e+00 1.133892e+02 -2.128792e+02
      vertex   -1.940111e+01 1.120558e+02 3.195818e+00
      vertex   -7.140942e+00 1.133892e+02 3.195818e+00
    endloop
  endfacet
  facet normal -1.152313e-15 1.000000e+00 -1.775740e-15
    outer loop
      vertex   -7.140942e+00 1.133892e+02 -2.128792e+02
      vertex   -7.140942e+00 1.133892e+02 3.195818e+00
      vertex   5.191522e+00 1.133892e+02 -2.128792e+02
    endloop
  endfacet
  facet normal 4.850271e-30 1.000000e+00 -1.709972e-15
    outer loop
      vertex   5.191522e+00 1.133892e+02 -2.128792e+02
      vertex   -7.140942e+00 1.133892e+02 3.195818e+00
      vertex   5.191522e+00 1.133892e+02 3.195818e+00
    endloop
  endfacet
  facet normal 1.081190e-01 9.941380e-01 -1.598175e-15
    outer loop
      vertex   5.191522e+00 1.133892e+02 -2.128792e+02
      vertex   5.191522e+00 1.133892e+02 3.195818e+00
      vertex   1.745169e+01 1.120558e+02 -2.128792e+02
    endloop
  endfacet
  facet normal 1.081190e-01 9.941380e-01 -1.573732e-15
    outer loop
      vertex   1.745169e+01 1.120558e+02 -2.128792e+02
      vertex   5.191522e+00 1.133892e+02 3.195818e+00
      vertex   1.745169e+01 1.120558e+02 3.195818e+00
    endloop
  endfacet
  facet normal 2.149704e-01 9.766206e-01 -1.419041e-15
    outer loop
      vertex   1.745169e+01 1.120558e+02 -2.128792e+02
      vertex   1.745169e+01 1.120558e+02 3.195818e+00
      vertex   2.949583e+01 1.094047e+02 -2.128792e+02
    endloop
  endfacet
  facet normal 2.149704e-01 9.766206e-01 -1.351276e-15
    outer loop
      vertex   2.949583e+01 1.094047e+02 -2.128792e+02
      vertex   1.745169e+01 1.120558e+02 3.195818e+00
      vertex   2.949583e+01 1.094047e+02 3.195818e+00
    endloop
  endfacet
  facet normal 3.193015e-01 9.476532e-01 -1.180137e-15
    outer loop
      vertex   2.949583e+01 1.094047e+02 -2.128792e+02
      vertex   2.949583e+01 1.094047e+02 3.195818e+00
      vertex   4.118273e+01 1.054670e+02 -2.128792e+02
    endloop
  endfacet
  facet normal 3.193015e-01 9.476532e-01 -1.180137e-15
    outer loop
      vertex   4.118273e+01 1.054670e+02 -2.128792e+02
      vertex   2.949583e+01 1.094047e+02 3.195818e+00
      vertex   4.118273e+01 1.054670e+02 3.195818e+00
    endloop
  endfacet
  facet normal 4.198891e-01 9.075754e-01 -9.951631e-16
    outer loop
      vertex   4.118273e+01 1.054670e+02 -2.128792e+02
      vertex   4.118273e+01 1.054670e+02 3.195818e+00
      vertex   5.237537e+01 1.002887e+02 -2.128792e+02
    endloop
  endfacet
  facet normal 4.198891e-01 9.075754e-01 -1.128350e-15
    outer loop
      vertex   5.237537e+01 1.002887e+02 -2.128792e+02
      vertex   4.118273e+01 1.054670e+02 3.195818e+00
      vertex   5.237537e+01 1.002887e+02 3.195818e+00
    endloop
  endfacet
  facet normal 5.155539e-01 8.568572e-01 -9.281828e-16
    outer loop
      vertex   5.237537e+01 1.002887e+02 -2.128792e+02
      vertex   5.237537e+01 1.002887e+02 3.195818e+00
      vertex   6.294253e+01 9.393064e+01 -2.128792e+02
    endloop
  endfacet
  facet normal 5.155539e-01 8.568572e-01 -8.154750e-16
    outer loop
      vertex   6.294253e+01 9.393064e+01 -2.128792e+02
      vertex   5.237537e+01 1.002887e+02 3.195818e+00
      vertex   6.294253e+01 9.393064e+01 3.195818e+00
    endloop
  endfacet
  facet normal 6.051742e-01 7.960931e-01 -6.124185e-16
    outer loop
      vertex   6.294253e+01 9.393064e+01 -2.128792e+02
      vertex   6.294253e+01 9.393064e+01 3.195818e+00
      vertex   7.276032e+01 8.646735e+01 -2.128792e+02
    endloop
  endfacet
  facet normal 6.051742e-01 7.960931e-01 -7.495906e-16
    outer loop
      vertex   7.276032e+01 8.646735e+01 -2.128792e+02
      vertex   6.294253e+01 9.393064e+01 3.195818e+00
      vertex   7.276032e+01 8.646735e+01 3.195818e+00
    endloop
  endfacet
  facet normal 6.876995e-01 7.259955e-01 -5.228097e-16
    outer loop
      vertex   7.276032e+01 8.646735e+01 -2.128792e+02
      vertex   7.276032e+01 8.646735e+01 3.195818e+00
      vertex   8.171364e+01 7.798632e+01 -2.128792e+02
    endloop
  endfacet
  facet normal 6.876995e-01 7.259955e-01 -4.273150e-16
    outer loop
      vertex   8.171364e+01 7.798632e+01 -2.128792e+02
      vertex   7.276032e+01 8.646735e+01 3.195818e+00
      vertex   8.171364e+01 7.798632e+01 3.195818e+00
    endloop
  endfacet
  facet normal 7.621621e-01 6.473863e-01 -2.047446e-16
    outer loop
      vertex   8.171364e+01 7.798632e+01 -2.128792e+02
      vertex   8.171364e+01 7.798632e+01 3.195818e+00
      vertex   8.969750e+01 6.858698e+01 -2.128792e+02
    endloop
  endfacet
  facet normal 7.621621e-01 6.473863e-01 -3.475740e-16
    outer loop
      vertex   8.969750e+01 6.858698e+01 -2.128792e+02
      vertex   8.171364e+01 7.798632e+01 3.195818e+00
      vertex   8.969750e+01 6.858698e+01 3.195818e+00
    endloop
  endfacet
  facet normal 8.276890e-01 5.611871e-01 -1.255532e-16
    outer loop
      vertex   8.969750e+01 6.858698e+01 -2.128792e+02
      vertex   8.969750e+01 6.858698e+01 3.195818e+00
      vertex   9.661832e+01 5.837954e+01 -2.128792e+02
    endloop
  endfacet
  facet normal 8.276890e-01 5.611871e-01 -1.993697e-16
    outer loop
      vertex   9.661832e+01 5.837954e+01 -2.128792e+02
      vertex   8.969750e+01 6.858698e+01 3.195818e+00
      vertex   9.661832e+01 5.837954e+01 3.195818e+00
    endloop
  endfacet
  facet normal 8.835120e-01 4.684084e-01 3.632691e-17
    outer loop
      vertex   9.661832e+01 5.837954e+01 -2.128792e+02
      vertex   9.661832e+01 5.837954e+01 3.195818e+00
      vertex   1.023950e+02 4.748366e+01 -2.128792e+02
    endloop
  endfacet
  facet normal 8.835120e-01 4.684084e-01 2.568573e-16
    outer loop
      vertex   1.023950e+02 4.748366e+01 -2.128792e+02
      vertex   9.661832e+01 5.837954e+01 3.195818e+00
      vertex   1.023950e+02 4.748366e+01 3.195818e+00
    endloop
  endfacet
  facet normal 9.289767e-01 3.701382e-01 4.914038e-16
    outer loop
      vertex   1.023950e+02 4.748366e+01 -2.128792e+02
      vertex   1.023950e+02 4.748366e+01 3.195818e+00
      vertex   1.069597e+02 3.602708e+01 -2.128792e+02
    endloop
  endfacet
  facet normal 9.289767e-01 3.701382e-01 3.570380e-16
    outer loop
      vertex   1.069597e+02 3.602708e+01 -2.128792e+02
      vertex   1.023950e+02 4.748366e+01 3.195818e+00
      vertex   1.069597e+02 3.602708e+01 3.195818e+00
    endloop
  endfacet
  facet normal 9.635500e-01 2.675283e-01 5.846497e-16
    outer loop
      vertex   1.069597e+02 3.602708e+01 -2.128792e+02
      vertex   1.069597e+02 3.602708e+01 3.195818e+00
      vertex   1.102590e+02 2.414414e+01 -2.128792e+02
    endloop
  endfacet
  facet normal 9.635500e-01 2.675283e-01 6.198394e-16
    outer loop
      vertex   1.102590e+02 2.414414e+01 -2.128792e+02
      vertex   1.069597e+02 3.602708e+01 3.195818e+00
      vertex   1.102590e+02 2.414414e+01 3.195818e+00
    endloop
  endfacet
  facet normal 9.868265e-01 1.617820e-01 8.266873e-16
    outer loop
      vertex   1.102590e+02 2.414414e+01 -2.128792e+02
      vertex   1.102590e+02 2.414414e+01 3.195818e+00
      vertex   1.122541e+02 1.197414e+01 -2.128792e+02
    endloop
  endfacet
  facet normal 9.868265e-01 1.617820e-01 8.240272e-16
    outer loop
      vertex   1.122541e+02 1.197414e+01 -2.128792e+02
      vertex   1.102590e+02 2.414414e+01 3.195818e+00
      vertex   1.122541e+02 1.197414e+01 3.195818e+00
    endloop
  endfacet
  facet normal 9.985334e-01 5.413891e-02 1.022953e-15
    outer loop
      vertex   1.122541e+02 1.197414e+01 -2.128792e+02
      vertex   1.122541e+02 1.197414e+01 3.195818e+00
      vertex   1.129218e+02 -3.402422e-01 -2.128792e+02
    endloop
  endfacet
  facet normal 9.985334e-01 5.413891e-02 1.022925e-15
    outer loop
      vertex   1.129218e+02 -3.402422e-01 -2.128792e+02
      vertex   1.122541e+02 1.197414e+01 3.195818e+00
      vertex   1.129218e+02 -3.402422e-01 3.195818e+00
    endloop
  endfacet
  facet normal 9.985334e-01 -5.413891e-02 1.209913e-15
    outer loop
      vertex   1.129218e+02 -3.402422e-01 -2.128792e+02
      vertex   1.129218e+02 -3.402422e-01 3.195818e+00
      vertex   1.122541e+02 -1.265462e+01 -2.128792e+02
    endloop
  endfacet
  facet normal 9.985334e-01 -5.413891e-02 1.209885e-15
    outer loop
      vertex   1.122541e+02 -1.265462e+01 -2.128792e+02
      vertex   1.129218e+02 -3.402422e-01 3.195818e+00
      vertex   1.122541e+02 -1.265462e+01 3.195818e+00
    endloop
  endfacet
  facet normal 9.868265e-01 -1.617820e-01 1.382633e-15
    outer loop
      vertex   1.122541e+02 -1.265462e+01 -2.128792e+02
      vertex   1.122541e+02 -1.265462e+01 3.195818e+00
      vertex   1.102590e+02 -2.482462e+01 -2.128792e+02
    endloop
  endfacet
  facet normal 9.868265e-01 -1.617820e-01 1.447534e-15
    outer loop
      vertex   1.102590e+02 -2.482462e+01 -2.128792e+02
      vertex   1.122541e+02 -1.265462e+01 3.195818e+00
      vertex   1.102590e+02 -2.482462e+01 3.195818e+00
    endloop
  endfacet
  facet normal 9.635500e-01 -2.675283e-01 1.602541e-15
    outer loop
      vertex   1.102590e+02 -2.482462e+01 -2.128792e+02
      vertex   1.102590e+02 -2.482462e+01 3.195818e+00
      vertex   1.069597e+02 -3.670757e+01 -2.128792e+02
    endloop
  endfacet
  facet normal 9.635500e-01 -2.675283e-01 1.642129e-15
    outer loop
      vertex   1.069597e+02 -3.670757e+01 -2.128792e+02
      vertex   1.102590e+02 -2.482462e+01 3.195818e+00
      vertex   1.069597e+02 -3.670757e+01 3.195818e+00
    endloop
  endfacet
  facet normal 9.289767e-01 -3.701382e-01 1.793532e-15
    outer loop
      vertex   1.069597e+02 -3.670757e+01 -2.128792e+02
      vertex   1.069597e+02 -3.670757e+01 3.195818e+00
      vertex   1.023950e+02 -4.816414e+01 -2.128792e+02
    endloop
  endfacet
  facet normal 9.289767e-01 -3.701382e-01 1.646994e-15
    outer loop
      vertex   1.023950e+02 -4.816414e+01 -2.128792e+02
      vertex   1.069597e+02 -3.670757e+01 3.195818e+00
      vertex   1.023950e+02 -4.816414e+01 3.195818e+00
    endloop
  endfacet
  facet normal 8.835120e-01 -4.684084e-01 1.776886e-15
    outer loop
      vertex   1.023950e+02 -4.816414e+01 -2.128792e+02
      vertex   1.023950e+02 -4.816414e+01 3.195818e+00
      vertex   9.661832e+01 -5.906002e+01 -2.128792e+02
    endloop
  endfacet
  facet normal 8.835120e-01 -4.684084e-01 1.838499e-15
    outer loop
      vertex   9.661832e+01 -5.906002e+01 -2.128792e+02
      vertex   1.023950e+02 -4.816414e+01 3.195818e+00
      vertex   9.661832e+01 -5.906002e+01 3.195818e+00
    endloop
  endfacet
  facet normal 8.276890e-01 -5.611871e-01 1.959762e-15
    outer loop
      vertex   9.661832e+01 -5.906002e+01 -2.128792e+02
      vertex   9.661832e+01 -5.906002e+01 3.195818e+00
      vertex   8.969750e+01 -6.926747e+01 -2.128792e+02
    endloop
  endfacet
  facet normal 8.276890e-01 -5.611871e-01 1.995744e-15
    outer loop
      vertex   8.969750e+01 -6.926747e+01 -2.128792e+02
      vertex   9.661832e+01 -5.906002e+01 3.195818e+00
      vertex   8.969750e+01 -6.926747e+01 3.195818e+00
    endloop
  endfacet
  facet normal 7.621621e-01 -6.473863e-01 2.086887e-15
    outer loop
      vertex   8.969750e+01 -6.926747e+01 -2.128792e+02
      vertex   8.969750e+01 -6.926747e+01 3.195818e+00
      vertex   8.171364e+01 -7.866680e+01 -2.128792e+02
    endloop
  endfacet
  facet normal 7.621621e-01 -6.473863e-01 1.944057e-15
    outer loop
      vertex   8.171364e+01 -7.866680e+01 -2.128792e+02
      vertex   8.969750e+01 -6.926747e+01 3.195818e+00
      vertex   8.171364e+01 -7.866680e+01 3.195818e+00
    endloop
  endfacet
  facet normal 6.876995e-01 -7.259955e-01 2.015358e-15
    outer loop
      vertex   8.171364e+01 -7.866680e+01 -2.128792e+02
      vertex   8.171364e+01 -7.866680e+01 3.195818e+00
      vertex   7.276032e+01 -8.714783e+01 -2.128792e+02
    endloop
  endfacet
  facet normal 6.876995e-01 -7.259955e-01 1.922382e-15
    outer loop
      vertex   7.276032e+01 -8.714783e+01 -2.128792e+02
      vertex   8.171364e+01 -7.866680e+01 3.195818e+00
      vertex   7.276032e+01 -8.714783e+01 3.195818e+00
    endloop
  endfacet
  facet normal 6.051742e-01 -7.960931e-01 1.970871e-15
    outer loop
      vertex   7.276032e+01 -8.714783e+01 -2.128792e+02
      vertex   7.276032e+01 -8.714783e+01 3.195818e+00
      vertex   6.294253e+01 -9.461112e+01 -2.128792e+02
    endloop
  endfacet
  facet normal 6.051742e-01 -7.960931e-01 1.965659e-15
    outer loop
      vertex   6.294253e+01 -9.461112e+01 -2.128792e+02
      vertex   7.276032e+01 -8.714783e+01 3.195818e+00
      vertex   6.294253e+01 -9.461112e+01 3.195818e+00
    endloop
  endfacet
  facet normal 5.155539e-01 -8.568572e-01 1.968314e-15
    outer loop
      vertex   6.294253e+01 -9.461112e+01 -2.128792e+02
      vertex   6.294253e+01 -9.461112e+01 3.195818e+00
      vertex   5.237537e+01 -1.009692e+02 -2.128792e+02
    endloop
  endfacet
  facet normal 5.155539e-01 -8.568572e-01 1.996254e-15
    outer loop
      vertex   5.237537e+01 -1.009692e+02 -2.128792e+02
      vertex   6.294253e+01 -9.461112e+01 3.195818e+00
      vertex   5.237537e+01 -1.009692e+02 3.195818e+00
    endloop
  endfacet
  facet normal 4.198891e-01 -9.075754e-01 1.998233e-15
    outer loop
      vertex   5.237537e+01 -1.009692e+02 -2.128792e+02
      vertex   5.237537e+01 -1.009692e+02 3.195818e+00
      vertex   4.118273e+01 -1.061474e+02 -2.128792e+02
    endloop
  endfacet
  facet normal 4.198891e-01 -9.075754e-01 1.947892e-15
    outer loop
      vertex   4.118273e+01 -1.061474e+02 -2.128792e+02
      vertex   5.237537e+01 -1.009692e+02 3.195818e+00
      vertex   4.118273e+01 -1.061474e+02 3.195818e+00
    endloop
  endfacet
  facet normal 3.193015e-01 -9.476532e-01 1.904633e-15
    outer loop
      vertex   4.118273e+01 -1.061474e+02 -2.128792e+02
      vertex   4.118273e+01 -1.061474e+02 3.195818e+00
      vertex   2.949583e+01 -1.100852e+02 -2.128792e+02
    endloop
  endfacet
  facet normal 3.193015e-01 -9.476532e-01 1.930209e-15
    outer loop
      vertex   2.949583e+01 -1.100852e+02 -2.128792e+02
      vertex   4.118273e+01 -1.061474e+02 3.195818e+00
      vertex   2.949583e+01 -1.100852e+02 3.195818e+00
    endloop
  endfacet
  facet normal 2.149704e-01 -9.766206e-01 1.878533e-15
    outer loop
      vertex   2.949583e+01 -1.100852e+02 -2.128792e+02
      vertex   2.949583e+01 -1.100852e+02 3.195818e+00
      vertex   1.745169e+01 -1.127363e+02 -2.128792e+02
    endloop
  endfacet
  facet normal 2.149704e-01 -9.766206e-01 1.896205e-15
    outer loop
      vertex   1.745169e+01 -1.127363e+02 -2.128792e+02
      vertex   2.949583e+01 -1.100852e+02 3.195818e+00
      vertex   1.745169e+01 -1.127363e+02 3.195818e+00
    endloop
  endfacet
  facet normal 1.081190e-01 -9.941380e-01 1.813721e-15
    outer loop
      vertex   1.745169e+01 -1.127363e+02 -2.128792e+02
      vertex   1.745169e+01 -1.127363e+02 3.195818e+00
      vertex   5.191522e+00 -1.140697e+02 -2.128792e+02
    endloop
  endfacet
  facet normal 1.081190e-01 -9.941380e-01 1.748783e-15
    outer loop
      vertex   5.191522e+00 -1.140697e+02 -2.128792e+02
      vertex   1.745169e+01 -1.127363e+02 3.195818e+00
      vertex   5.191522e+00 -1.140697e+02 3.195818e+00
    endloop
  endfacet
  facet normal 1.152313e-15 -1.000000e+00 1.644204e-15
    outer loop
      vertex   5.191522e+00 -1.140697e+02 -2.128792e+02
      vertex   5.191522e+00 -1.140697e+02 3.195818e+00
      vertex   -7.140942e+00 -1.140697e+02 -2.128792e+02
    endloop
  endfacet
  facet normal -4.850271e-30 -1.000000e+00 1.709972e-15
    outer loop
      vertex   -7.140942e+00 -1.140697e+02 -2.128792e+02
      vertex   5.191522e+00 -1.140697e+02 3.195818e+00
      vertex   -7.140942e+00 -1.140697e+02 3.195818e+00
    endloop
  endfacet
  facet normal -1.081190e-01 -9.941380e-01 1.586176e-15
    outer loop
      vertex   -7.140942e+00 -1.140697e+02 -2.128792e+02
      vertex   -7.140942e+00 -1.140697e+02 3.195818e+00
      vertex   -1.940111e+01 -1.127363e+02 -2.128792e+02
    endloop
  endfacet
  facet normal -1.081190e-01 -9.941380e-01 1.584398e-15
    outer loop
      vertex   -1.940111e+01 -1.127363e+02 -2.128792e+02
      vertex   -7.140942e+00 -1.140697e+02 3.195818e+00
      vertex   -1.940111e+01 -1.127363e+02 3.195818e+00
    endloop
  endfacet
  facet normal -2.149704e-01 -9.766206e-01 1.440248e-15
    outer loop
      vertex   -1.940111e+01 -1.127363e+02 -2.128792e+02
      vertex   -1.940111e+01 -1.127363e+02 3.195818e+00
      vertex   -3.144525e+01 -1.100852e+02 -2.128792e+02
    endloop
  endfacet
  facet normal -2.149704e-01 -9.766206e-01 1.532755e-15
    outer loop
      vertex   -3.144525e+01 -1.100852e+02 -2.128792e+02
      vertex   -1.940111e+01 -1.127363e+02 3.195818e+00
      vertex   -3.144525e+01 -1.100852e+02 3.195818e+00
    endloop
  endfacet
  facet normal -3.193015e-01 -9.476532e-01 1.383538e-15
    outer loop
      vertex   -3.144525e+01 -1.100852e+02 -2.128792e+02
      vertex   -3.144525e+01 -1.100852e+02 3.195818e+00
      vertex   -4.313215e+01 -1.061474e+02 -2.128792e+02
    endloop
  endfacet
  facet normal -3.193015e-01 -9.476532e-01 1.273963e-15
    outer loop
      vertex   -4.313215e+01 -1.061474e+02 -2.128792e+02
      vertex   -3.144525e+01 -1.100852e+02 3.195818e+00
      vertex   -4.313215e+01 -1.061474e+02 3.195818e+00
    endloop
  endfacet
  facet normal -4.198891e-01 -9.075754e-01 1.096276e-15
    outer loop
      vertex   -4.313215e+01 -1.061474e+02 -2.128792e+02
      vertex   -4.313215e+01 -1.061474e+02 3.195818e+00
      vertex   -5.432479e+01 -1.009692e+02 -2.128792e+02
    endloop
  endfacet
  facet normal -4.198891e-01 -9.075754e-01 1.073550e-15
    outer loop
      vertex   -5.432479e+01 -1.009692e+02 -2.128792e+02
      vertex   -4.313215e+01 -1.061474e+02 3.195818e+00
      vertex   -5.432479e+01 -1.009692e+02 3.195818e+00
    endloop
  endfacet
  facet normal -5.155539e-01 -8.568572e-01 9.117027e-16
    outer loop
      vertex   -5.432479e+01 -1.009692e+02 -2.128792e+02
      vertex   -5.432479e+01 -1.009692e+02 3.195818e+00
      vertex   -6.489195e+01 -9.461112e+01 -2.128792e+02
    endloop
  endfacet
  facet normal -5.155539e-01 -8.568572e-01 8.887824e-16
    outer loop
      vertex   -6.489195e+01 -9.461112e+01 -2.128792e+02
      vertex   -5.432479e+01 -1.009692e+02 3.195818e+00
      vertex   -6.489195e+01 -9.461112e+01 3.195818e+00
    endloop
  endfacet
  facet normal -6.051742e-01 -7.960931e-01 6.846766e-16
    outer loop
      vertex   -6.489195e+01 -9.461112e+01 -2.128792e+02
      vertex   -6.489195e+01 -9.461112e+01 3.195818e+00
      vertex   -7.470974e+01 -8.714783e+01 -2.128792e+02
    endloop
  endfacet
  facet normal -6.051742e-01 -7.960931e-01 6.721203e-16
    outer loop
      vertex   -7.470974e+01 -8.714783e+01 -2.128792e+02
      vertex   -6.489195e+01 -9.461112e+01 3.195818e+00
      vertex   -7.470974e+01 -8.714783e+01 3.195818e+00
    endloop
  endfacet
  facet normal -6.876995e-01 -7.259955e-01 4.700250e-16
    outer loop
      vertex   -7.470974e+01 -8.714783e+01 -2.128792e+02
      vertex   -7.470974e+01 -8.714783e+01 3.195818e+00
      vertex   -8.366306e+01 -7.866680e+01 -2.128792e+02
    endloop
  endfacet
  facet normal -6.876995e-01 -7.259955e-01 4.725437e-16
    outer loop
      vertex   -8.366306e+01 -7.866680e+01 -2.128792e+02
      vertex   -7.470974e+01 -8.714783e+01 3.195818e+00
      vertex   -8.366306e+01 -7.866680e+01 3.195818e+00
    endloop
  endfacet
  facet normal -7.621621e-01 -6.473863e-01 2.548706e-16
    outer loop
      vertex   -8.366306e+01 -7.866680e+01 -2.128792e+02
      vertex   -8.366306e+01 -7.866680e+01 3.195818e+00
      vertex   -9.164692e+01 -6.926747e+01 -2.128792e+02
    endloop
  endfacet
  facet normal -7.621621e-01 -6.473863e-01 3.702198e-16
    outer loop
      vertex   -9.164692e+01 -6.926747e+01 -2.128792e+02
      vertex   -8.366306e+01 -7.866680e+01 3.195818e+00
      vertex   -9.164692e+01 -6.926747e+01 3.195818e+00
    endloop
  endfacet
  facet normal -8.276890e-01 -5.611871e-01 1.781352e-16
    outer loop
      vertex   -9.164692e+01 -6.926747e+01 -2.128792e+02
      vertex   -9.164692e+01 -6.926747e+01 3.195818e+00
      vertex   -9.856774e+01 -5.906002e+01 -2.128792e+02
    endloop
  endfacet
  facet normal -8.276890e-01 -5.611871e-01 1.070991e-16
    outer loop
      vertex   -9.856774e+01 -5.906002e+01 -2.128792e+02
      vertex   -9.164692e+01 -6.926747e+01 3.195818e+00
      vertex   -9.856774e+01 -5.906002e+01 3.195818e+00
    endloop
  endfacet
  facet normal -8.835120e-01 -4.684084e-01 -1.133428e-16
    outer loop
      vertex   -9.856774e+01 -5.906002e+01 -2.128792e+02
      vertex   -9.856774e+01 -5.906002e+01 3.195818e+00
      vertex   -1.043444e+02 -4.816414e+01 -2.128792e+02
    endloop
  endfacet
  facet normal -8.835120e-01 -4.684084e-01 -1.133428e-16
    outer loop
      vertex   -1.043444e+02 -4.816414e+01 -2.128792e+02
      vertex   -9.856774e+01 -5.906002e+01 3.195818e+00
      vertex   -1.043444e+02 -4.816414e+01 3.195818e+00
    endloop
  endfacet
  facet normal -9.289767e-01 -3.701382e-01 -3.324558e-16
    outer loop
      vertex   -1.043444e+02 -4.816414e+01 -2.128792e+02
      vertex   -1.043444e+02 -4.816414e+01 3.195818e+00
      vertex   -1.089091e+02 -3.670757e+01 -2.128792e+02
    endloop
  endfacet
  facet normal -9.289767e-01 -3.701382e-01 -4.546500e-16
    outer loop
      vertex   -1.089091e+02 -3.670757e+01 -2.128792e+02
      vertex   -1.043444e+02 -4.816414e+01 3.195818e+00
      vertex   -1.089091e+02 -3.670757e+01 3.195818e+00
    endloop
  endfacet
  facet normal -9.635500e-01 -2.675283e-01 -6.744129e-16
    outer loop
      vertex   -1.089091e+02 -3.670757e+01 -2.128792e+02
      vertex   -1.089091e+02 -3.670757e+01 3.195818e+00
      vertex   -1.122084e+02 -2.482462e+01 -2.128792e+02
    endloop
  endfacet
  facet normal -9.635500e-01 -2.675283e-01 -6.788116e-16
    outer loop
      vertex   -1.122084e+02 -2.482462e+01 -2.128792e+02
      vertex   -1.089091e+02 -3.670757e+01 3.195818e+00
      vertex   -1.122084e+02 -2.482462e+01 3.195818e+00
    endloop
  endfacet
  facet normal -9.868265e-01 -1.617820e-01 -8.889290e-16
    outer loop
      vertex   -1.122084e+02 -2.482462e+01 -2.128792e+02
      vertex   -1.122084e+02 -2.482462e+01 3.195818e+00
      vertex   -1.142035e+02 -1.265462e+01 -2.128792e+02
    endloop
  endfacet
  facet normal -9.868265e-01 -1.617820e-01 -7.950358e-16
    outer loop
      vertex   -1.142035e+02 -1.265462e+01 -2.128792e+02
      vertex   -1.122084e+02 -2.482462e+01 3.195818e+00
      vertex   -1.142035e+02 -1.265462e+01 3.195818e+00
    endloop
  endfacet
  facet normal -9.985334e-01 5.413891e-02 -1.144213e-15
    outer loop
      vertex   -1.142035e+02 1.197414e+01 2.192708e+02
      vertex   -1.142035e+02 1.197414e+01 3.195818e+00
      vertex   -1.148712e+02 -3.402422e-01 2.192708e+02
    endloop
  endfacet
  facet normal -9.985334e-01 5.413891e-02 -1.071587e-15
    outer loop
      vertex   -1.148712e+02 -3.402422e-01 2.192708e+02
      vertex   -1.142035e+02 1.197414e+01 3.195818e+00
      vertex   -1.148712e+02 -3.402422e-01 3.195818e+00
    endloop
  endfacet
  facet normal -9.985334e-01 -5.413891e-02 -8.985637e-16
    outer loop
      vertex   -1.148712e+02 -3.402422e-01 2.192708e+02
      vertex   -1.148712e+02 -3.402422e-01 3.195818e+00
      vertex   -1.142035e+02 -1.265462e+01 2.192708e+02
    endloop
  endfacet
  facet normal -9.985334e-01 -5.413891e-02 -9.572811e-16
    outer loop
      vertex   -1.142035e+02 -1.265462e+01 2.192708e+02
      vertex   -1.148712e+02 -3.402422e-01 3.195818e+00
      vertex   -1.142035e+02 -1.265462e+01 3.195818e+00
    endloop
  endfacet
  facet normal -9.868265e-01 -1.617820e-01 -7.591255e-16
    outer loop
      vertex   -1.142035e+02 -1.265462e+01 2.192708e+02
      vertex   -1.142035e+02 -1.265462e+01 3.195818e+00
      vertex   -1.122084e+02 -2.482462e+01 2.192708e+02
    endloop
  endfacet
  facet normal -9.868265e-01 -1.617820e-01 -6.942237e-16
    outer loop
      vertex   -1.122084e+02 -2.482462e+01 2.192708e+02
      vertex   -1.142035e+02 -1.265462e+01 3.195818e+00
      vertex   -1.122084e+02 -2.482462e+01 3.195818e+00
    endloop
  endfacet
  facet normal -9.635500e-01 -2.675283e-01 -4.886989e-16
    outer loop
      vertex   -1.122084e+02 -2.482462e+01 2.192708e+02
      vertex   -1.122084e+02 -2.482462e+01 3.195818e+00
      vertex   -1.089091e+02 -3.670757e+01 2.192708e+02
    endloop
  endfacet
  facet normal -9.635500e-01 -2.675283e-01 -5.546796e-16
    outer loop
      vertex   -1.089091e+02 -3.670757e+01 2.192708e+02
      vertex   -1.122084e+02 -2.482462e+01 3.195818e+00
      vertex   -1.089091e+02 -3.670757e+01 3.195818e+00
    endloop
  endfacet
  facet normal -9.289767e-01 -3.701382e-01 -3.687320e-16
    outer loop
      vertex   -1.089091e+02 -3.670757e+01 2.192708e+02
      vertex   -1.089091e+02 -3.670757e+01 3.195818e+00
      vertex   -1.043444e+02 -4.816414e+01 2.192708e+02
    endloop
  endfacet
  facet normal -9.289767e-01 -3.701382e-01 -4.057246e-16
    outer loop
      vertex   -1.043444e+02 -4.816414e+01 2.192708e+02
      vertex   -1.089091e+02 -3.670757e+01 3.195818e+00
      vertex   -1.043444e+02 -4.816414e+01 3.195818e+00
    endloop
  endfacet
  facet normal -8.835120e-01 -4.684084e-01 -1.868529e-16
    outer loop
      vertex   -1.043444e+02 -4.816414e+01 2.192708e+02
      vertex   -1.043444e+02 -4.816414e+01 3.195818e+00
      vertex   -9.856774e+01 -5.906002e+01 2.192708e+02
    endloop
  endfacet
  facet normal -8.835120e-01 -4.684084e-01 -7.063903e-17
    outer loop
      vertex   -9.856774e+01 -5.906002e+01 2.192708e+02
      vertex   -1.043444e+02 -4.816414e+01 3.195818e+00
      vertex   -9.856774e+01 -5.906002e+01 3.195818e+00
    endloop
  endfacet
  facet normal -8.276890e-01 -5.611871e-01 1.430805e-16
    outer loop
      vertex   -9.856774e+01 -5.906002e+01 2.192708e+02
      vertex   -9.856774e+01 -5.906002e+01 3.195818e+00
      vertex   -9.164692e+01 -6.926747e+01 2.192708e+02
    endloop
  endfacet
  facet normal -8.276890e-01 -5.611871e-01 1.412270e-16
    outer loop
      vertex   -9.164692e+01 -6.926747e+01 2.192708e+02
      vertex   -9.856774e+01 -5.906002e+01 3.195818e+00
      vertex   -9.164692e+01 -6.926747e+01 3.195818e+00
    endloop
  endfacet
  facet normal -7.621621e-01 -6.473863e-01 3.276424e-16
    outer loop
      vertex   -9.164692e+01 -6.926747e+01 2.192708e+02
      vertex   -9.164692e+01 -6.926747e+01 3.195818e+00
      vertex   -8.366306e+01 -7.866680e+01 2.192708e+02
    endloop
  endfacet
  facet normal -7.621621e-01 -6.473863e-01 3.551226e-16
    outer loop
      vertex   -8.366306e+01 -7.866680e+01 2.192708e+02
      vertex   -9.164692e+01 -6.926747e+01 3.195818e+00
      vertex   -8.366306e+01 -7.866680e+01 3.195818e+00
    endloop
  endfacet
  facet normal -6.876995e-01 -7.259955e-01 5.630011e-16
    outer loop
      vertex   -8.366306e+01 -7.866680e+01 2.192708e+02
      vertex   -8.366306e+01 -7.866680e+01 3.195818e+00
      vertex   -7.470974e+01 -8.714783e+01 2.192708e+02
    endloop
  endfacet
  facet normal -6.876995e-01 -7.259955e-01 6.057112e-16
    outer loop
      vertex   -7.470974e+01 -8.714783e+01 2.192708e+02
      vertex   -8.366306e+01 -7.866680e+01 3.195818e+00
      vertex   -7.470974e+01 -8.714783e+01 3.195818e+00
    endloop
  endfacet
  facet normal -6.051742e-01 -7.960931e-01 7.915238e-16
    outer loop
      vertex   -7.470974e+01 -8.714783e+01 2.192708e+02
      vertex   -7.470974e+01 -8.714783e+01 3.195818e+00
      vertex   -6.489195e+01 -9.461112e+01 2.192708e+02
    endloop
  endfacet
  facet normal -6.051742e-01 -7.960931e-01 7.642790e-16
    outer loop
      vertex   -6.489195e+01 -9.461112e+01 2.192708e+02
      vertex   -7.470974e+01 -8.714783e+01 3.195818e+00
      vertex   -6.489195e+01 -9.461112e+01 3.195818e+00
    endloop
  endfacet
  facet normal -5.155539e-01 -8.568572e-01 9.565965e-16
    outer loop
      vertex   -6.489195e+01 -9.461112e+01 2.192708e+02
      vertex   -6.489195e+01 -9.461112e+01 3.195818e+00
      vertex   -5.432479e+01 -1.009692e+02 2.192708e+02
    endloop
  endfacet
  facet normal -5.155539e-01 -8.568572e-01 9.959969e-16
    outer loop
      vertex   -5.432479e+01 -1.009692e+02 2.192708e+02
      vertex   -6.489195e+01 -9.461112e+01 3.195818e+00
      vertex   -5.432479e+01 -1.009692e+02 3.195818e+00
    endloop
  endfacet
  facet normal -4.198891e-01 -9.075754e-01 1.183581e-15
    outer loop
      vertex   -5.432479e+01 -1.009692e+02 2.192708e+02
      vertex   -5.432479e+01 -1.009692e+02 3.195818e+00
      vertex   -4.313215e+01 -1.061474e+02 2.192708e+02
    endloop
  endfacet
  facet normal -4.198891e-01 -9.075754e-01 1.183581e-15
    outer loop
      vertex   -4.313215e+01 -1.061474e+02 2.192708e+02
      vertex   -5.432479e+01 -1.009692e+02 3.195818e+00
      vertex   -4.313215e+01 -1.061474e+02 3.195818e+00
    endloop
  endfacet
  facet normal -3.193015e-01 -9.476532e-01 1.357288e-15
    outer loop
      vertex   -4.313215e+01 -1.061474e+02 2.192708e+02
      vertex   -4.313215e+01 -1.061474e+02 3.195818e+00
      vertex   -3.144525e+01 -1.100852e+02 2.192708e+02
    endloop
  endfacet
  facet normal -3.193015e-01 -9.476532e-01 1.321212e-15
    outer loop
      vertex   -3.144525e+01 -1.100852e+02 2.192708e+02
      vertex   -4.313215e+01 -1.061474e+02 3.195818e+00
      vertex   -3.144525e+01 -1.100852e+02 3.195818e+00
    endloop
  endfacet
  facet normal -2.149704e-01 -9.766206e-01 1.468524e-15
    outer loop
      vertex   -3.144525e+01 -1.100852e+02 2.192708e+02
      vertex   -3.144525e+01 -1.100852e+02 3.195818e+00
      vertex   -1.940111e+01 -1.127363e+02 2.192708e+02
    endloop
  endfacet
  facet normal -2.149704e-01 -9.766206e-01 1.511548e-15
    outer loop
      vertex   -1.940111e+01 -1.127363e+02 2.192708e+02
      vertex   -3.144525e+01 -1.100852e+02 3.195818e+00
      vertex   -1.940111e+01 -1.127363e+02 3.195818e+00
    endloop
  endfacet
  facet normal -1.081190e-01 -9.941380e-01 1.653336e-15
    outer loop
      vertex   -1.940111e+01 -1.127363e+02 2.192708e+02
      vertex   -1.940111e+01 -1.127363e+02 3.195818e+00
      vertex   -7.140942e+00 -1.140697e+02 2.192708e+02
    endloop
  endfacet
  facet normal -1.081190e-01 -9.941380e-01 1.598175e-15
    outer loop
      vertex   -7.140942e+00 -1.140697e+02 2.192708e+02
      vertex   -1.940111e+01 -1.127363e+02 3.195818e+00
      vertex   -7.140942e+00 -1.140697e+02 3.195818e+00
    endloop
  endfacet
  facet normal 1.152313e-15 -1.000000e+00 1.709972e-15
    outer loop
      vertex   -7.140942e+00 -1.140697e+02 2.192708e+02
      vertex   -7.140942e+00 -1.140697e+02 3.195818e+00
      vertex   5.191522e+00 -1.140697e+02 2.192708e+02
    endloop
  endfacet
  facet normal -9.700541e-30 -1.000000e+00 1.775740e-15
    outer loop
      vertex   5.191522e+00 -1.140697e+02 2.192708e+02
      vertex   -7.140942e+00 -1.140697e+02 3.195818e+00
      vertex   5.191522e+00 -1.140697e+02 3.195818e+00
    endloop
  endfacet
  facet normal 1.081190e-01 -9.941380e-01 1.891547e-15
    outer loop
      vertex   5.191522e+00 -1.140697e+02 2.192708e+02
      vertex   5.191522e+00 -1.140697e+02 3.195818e+00
      vertex   1.745169e+01 -1.127363e+02 2.192708e+02
    endloop
  endfacet
  facet normal 1.081190e-01 -9.941380e-01 1.801277e-15
    outer loop
      vertex   1.745169e+01 -1.127363e+02 2.192708e+02
      vertex   5.191522e+00 -1.140697e+02 3.195818e+00
      vertex   1.745169e+01 -1.127363e+02 3.195818e+00
    endloop
  endfacet
  facet normal 2.149704e-01 -9.766206e-01 1.871463e-15
    outer loop
      vertex   1.745169e+01 -1.127363e+02 2.192708e+02
      vertex   1.745169e+01 -1.127363e+02 3.195818e+00
      vertex   2.949583e+01 -1.100852e+02 2.192708e+02
    endloop
  endfacet
  facet normal 2.149704e-01 -9.766206e-01 1.975183e-15
    outer loop
      vertex   2.949583e+01 -1.100852e+02 2.192708e+02
      vertex   1.745169e+01 -1.127363e+02 3.195818e+00
      vertex   2.949583e+01 -1.100852e+02 3.195818e+00
    endloop
  endfacet
  facet normal 3.193015e-01 -9.476532e-01 2.007610e-15
    outer loop
      vertex   2.949583e+01 -1.100852e+02 2.192708e+02
      vertex   2.949583e+01 -1.100852e+02 3.195818e+00
      vertex   4.118273e+01 -1.061474e+02 2.192708e+02
    endloop
  endfacet
  facet normal 3.193015e-01 -9.476532e-01 1.966284e-15
    outer loop
      vertex   4.118273e+01 -1.061474e+02 2.192708e+02
      vertex   2.949583e+01 -1.100852e+02 3.195818e+00
      vertex   4.118273e+01 -1.061474e+02 3.195818e+00
    endloop
  endfacet
  facet normal 4.198891e-01 -9.075754e-01 1.984425e-15
    outer loop
      vertex   4.118273e+01 -1.061474e+02 2.192708e+02
      vertex   4.118273e+01 -1.061474e+02 3.195818e+00
      vertex   5.237537e+01 -1.009692e+02 2.192708e+02
    endloop
  endfacet
  facet normal 4.198891e-01 -9.075754e-01 2.071730e-15
    outer loop
      vertex   5.237537e+01 -1.009692e+02 2.192708e+02
      vertex   4.118273e+01 -1.061474e+02 3.195818e+00
      vertex   5.237537e+01 -1.009692e+02 3.195818e+00
    endloop
  endfacet
  facet normal 5.155539e-01 -8.568572e-01 2.069562e-15
    outer loop
      vertex   5.237537e+01 -1.009692e+02 2.192708e+02
      vertex   5.237537e+01 -1.009692e+02 3.195818e+00
      vertex   6.294253e+01 -9.461112e+01 2.192708e+02
    endloop
  endfacet
  facet normal 5.155539e-01 -8.568572e-01 2.103469e-15
    outer loop
      vertex   6.294253e+01 -9.461112e+01 2.192708e+02
      vertex   5.237537e+01 -1.009692e+02 3.195818e+00
      vertex   6.294253e+01 -9.461112e+01 3.195818e+00
    endloop
  endfacet
  facet normal 6.051742e-01 -7.960931e-01 2.082931e-15
    outer loop
      vertex   6.294253e+01 -9.461112e+01 2.192708e+02
      vertex   6.294253e+01 -9.461112e+01 3.195818e+00
      vertex   7.276032e+01 -8.714783e+01 2.192708e+02
    endloop
  endfacet
  facet normal 6.051742e-01 -7.960931e-01 2.063030e-15
    outer loop
      vertex   7.276032e+01 -8.714783e+01 2.192708e+02
      vertex   6.294253e+01 -9.461112e+01 3.195818e+00
      vertex   7.276032e+01 -8.714783e+01 3.195818e+00
    endloop
  endfacet
  facet normal 6.876995e-01 -7.259955e-01 2.015358e-15
    outer loop
      vertex   7.276032e+01 -8.714783e+01 2.192708e+02
      vertex   7.276032e+01 -8.714783e+01 3.195818e+00
      vertex   8.171364e+01 -7.866680e+01 2.192708e+02
    endloop
  endfacet
  facet normal 6.876995e-01 -7.259955e-01 1.922382e-15
    outer loop
      vertex   8.171364e+01 -7.866680e+01 2.192708e+02
      vertex   7.276032e+01 -8.714783e+01 3.195818e+00
      vertex   8.171364e+01 -7.866680e+01 3.195818e+00
    endloop
  endfacet
  facet normal 7.621621e-01 -6.473863e-01 1.851354e-15
    outer loop
      vertex   8.171364e+01 -7.866680e+01 2.192708e+02
      vertex   8.171364e+01 -7.866680e+01 3.195818e+00
      vertex   8.969750e+01 -6.926747e+01 2.192708e+02
    endloop
  endfacet
  facet normal 7.621621e-01 -6.473863e-01 1.901480e-15
    outer loop
      vertex   8.969750e+01 -6.926747e+01 2.192708e+02
      vertex   8.171364e+01 -7.866680e+01 3.195818e+00
      vertex   8.969750e+01 -6.926747e+01 3.195818e+00
    endloop
  endfacet
  facet normal 8.276890e-01 -5.611871e-01 1.813056e-15
    outer loop
      vertex   8.969750e+01 -6.926747e+01 2.192708e+02
      vertex   8.969750e+01 -6.926747e+01 3.195818e+00
      vertex   9.661832e+01 -5.906002e+01 2.192708e+02
    endloop
  endfacet
  facet normal 8.276890e-01 -5.611871e-01 1.813056e-15
    outer loop
      vertex   9.661832e+01 -5.906002e+01 2.192708e+02
      vertex   8.969750e+01 -6.926747e+01 3.195818e+00
      vertex   9.661832e+01 -5.906002e+01 3.195818e+00
    endloop
  endfacet
  facet normal 8.835120e-01 -4.684084e-01 1.703376e-15
    outer loop
      vertex   9.661832e+01 -5.906002e+01 2.192708e+02
      vertex   9.661832e+01 -5.906002e+01 3.195818e+00
      vertex   1.023950e+02 -4.816414e+01 2.192708e+02
    endloop
  endfacet
  facet normal 8.835120e-01 -4.684084e-01 1.676076e-15
    outer loop
      vertex   1.023950e+02 -4.816414e+01 2.192708e+02
      vertex   9.661832e+01 -5.906002e+01 3.195818e+00
      vertex   1.023950e+02 -4.816414e+01 3.195818e+00
    endloop
  endfacet
  facet normal 9.289767e-01 -3.701382e-01 1.536972e-15
    outer loop
      vertex   1.023950e+02 -4.816414e+01 2.192708e+02
      vertex   1.023950e+02 -4.816414e+01 3.195818e+00
      vertex   1.069597e+02 -3.670757e+01 2.192708e+02
    endloop
  endfacet
  facet normal 9.289767e-01 -3.701382e-01 1.463703e-15
    outer loop
      vertex   1.069597e+02 -3.670757e+01 2.192708e+02
      vertex   1.023950e+02 -4.816414e+01 3.195818e+00
      vertex   1.069597e+02 -3.670757e+01 3.195818e+00
    endloop
  endfacet
  facet normal 9.635500e-01 -2.675283e-01 1.307680e-15
    outer loop
      vertex   1.069597e+02 -3.670757e+01 2.192708e+02
      vertex   1.069597e+02 -3.670757e+01 3.195818e+00
      vertex   1.102590e+02 -2.482462e+01 2.192708e+02
    endloop
  endfacet
  facet normal 9.635500e-01 -2.675283e-01 1.412428e-15
    outer loop
      vertex   1.102590e+02 -2.482462e+01 2.192708e+02
      vertex   1.069597e+02 -3.670757e+01 3.195818e+00
      vertex   1.102590e+02 -2.482462e+01 3.195818e+00
    endloop
  endfacet
  facet normal 9.868265e-01 -1.617820e-01 1.252829e-15
    outer loop
      vertex   1.102590e+02 -2.482462e+01 2.192708e+02
      vertex   1.102590e+02 -2.482462e+01 3.195818e+00
      vertex   1.122541e+02 -1.265462e+01 2.192708e+02
    endloop
  endfacet
  facet normal 9.868265e-01 -1.617820e-01 1.317731e-15
    outer loop
      vertex   1.122541e+02 -1.265462e+01 2.192708e+02
      vertex   1.102590e+02 -2.482462e+01 3.195818e+00
      vertex   1.122541e+02 -1.265462e+01 3.195818e+00
    endloop
  endfacet
  facet normal 9.985334e-01 -5.413891e-02 1.144213e-15
    outer loop
      vertex   1.122541e+02 -1.265462e+01 2.192708e+02
      vertex   1.122541e+02 -1.265462e+01 3.195818e+00
      vertex   1.129218e+02 -3.402422e-01 2.192708e+02
    endloop
  endfacet
  facet normal 9.985334e-01 -5.413891e-02 1.078570e-15
    outer loop
      vertex   1.129218e+02 -3.402422e-01 2.192708e+02
      vertex   1.122541e+02 -1.265462e+01 3.195818e+00
      vertex   1.129218e+02 -3.402422e-01 3.195818e+00
    endloop
  endfacet
  facet normal 9.985334e-01 5.413891e-02 8.915816e-16
    outer loop
      vertex   1.129218e+02 -3.402422e-01 2.192708e+02
      vertex   1.129218e+02 -3.402422e-01 3.195818e+00
      vertex   1.122541e+02 1.197414e+01 2.192708e+02
    endloop
  endfacet
  facet normal 9.985334e-01 5.413891e-02 9.572811e-16
    outer loop
      vertex   1.122541e+02 1.197414e+01 2.192708e+02
      vertex   1.129218e+02 -3.402422e-01 3.195818e+00
      vertex   1.122541e+02 1.197414e+01 3.195818e+00
    endloop
  endfacet
  facet normal 9.868265e-01 1.617820e-01 7.591255e-16
    outer loop
      vertex   1.122541e+02 1.197414e+01 2.192708e+02
      vertex   1.122541e+02 1.197414e+01 3.195818e+00
      vertex   1.102590e+02 2.414414e+01 2.192708e+02
    endloop
  endfacet
  facet normal 9.868265e-01 1.617820e-01 6.915637e-16
    outer loop
      vertex   1.102590e+02 2.414414e+01 2.192708e+02
      vertex   1.122541e+02 1.197414e+01 3.195818e+00
      vertex   1.102590e+02 2.414414e+01 3.195818e+00
    endloop
  endfacet
  facet normal 9.635500e-01 2.675283e-01 4.843002e-16
    outer loop
      vertex   1.102590e+02 2.414414e+01 2.192708e+02
      vertex   1.102590e+02 2.414414e+01 3.195818e+00
      vertex   1.069597e+02 3.602708e+01 2.192708e+02
    endloop
  endfacet
  facet normal 9.635500e-01 2.675283e-01 4.579079e-16
    outer loop
      vertex   1.069597e+02 3.602708e+01 2.192708e+02
      vertex   1.102590e+02 2.414414e+01 3.195818e+00
      vertex   1.069597e+02 3.602708e+01 3.195818e+00
    endloop
  endfacet
  facet normal 9.289767e-01 3.701382e-01 2.348438e-16
    outer loop
      vertex   1.069597e+02 3.602708e+01 2.192708e+02
      vertex   1.069597e+02 3.602708e+01 3.195818e+00
      vertex   1.023950e+02 4.748366e+01 2.192708e+02
    endloop
  endfacet
  facet normal 9.289767e-01 3.701382e-01 2.348438e-16
    outer loop
      vertex   1.023950e+02 4.748366e+01 2.192708e+02
      vertex   1.069597e+02 3.602708e+01 3.195818e+00
      vertex   1.023950e+02 4.748366e+01 3.195818e+00
    endloop
  endfacet
  facet normal 8.835120e-01 4.684084e-01 9.026307e-18
    outer loop
      vertex   1.023950e+02 4.748366e+01 2.192708e+02
      vertex   1.023950e+02 4.748366e+01 3.195818e+00
      vertex   9.661832e+01 5.837954e+01 2.192708e+02
    endloop
  endfacet
  facet normal 8.835120e-01 4.684084e-01 1.560466e-16
    outer loop
      vertex   9.661832e+01 5.837954e+01 2.192708e+02
      vertex   1.023950e+02 4.748366e+01 3.195818e+00
      vertex   9.661832e+01 5.837954e+01 3.195818e+00
    endloop
  endfacet
  facet normal 8.276890e-01 5.611871e-01 -7.111759e-17
    outer loop
      vertex   9.661832e+01 5.837954e+01 2.192708e+02
      vertex   9.661832e+01 5.837954e+01 3.195818e+00
      vertex   8.969750e+01 6.858698e+01 2.192708e+02
    endloop
  endfacet
  facet normal 8.276890e-01 5.611871e-01 -1.624614e-16
    outer loop
      vertex   8.969750e+01 6.858698e+01 2.192708e+02
      vertex   9.661832e+01 5.837954e+01 3.195818e+00
      vertex   8.969750e+01 6.858698e+01 3.195818e+00
    endloop
  endfacet
  facet normal 7.621621e-01 6.473863e-01 -3.901514e-16
    outer loop
      vertex   8.969750e+01 6.858698e+01 2.192708e+02
      vertex   8.969750e+01 6.858698e+01 3.195818e+00
      vertex   8.171364e+01 7.798632e+01 2.192708e+02
    endloop
  endfacet
  facet normal 7.621621e-01 6.473863e-01 -3.901514e-16
    outer loop
      vertex   8.171364e+01 7.798632e+01 2.192708e+02
      vertex   8.969750e+01 6.858698e+01 3.195818e+00
      vertex   8.171364e+01 7.798632e+01 3.195818e+00
    endloop
  endfacet
  facet normal 6.876995e-01 7.259955e-01 -6.132672e-16
    outer loop
      vertex   8.171364e+01 7.798632e+01 2.192708e+02
      vertex   8.171364e+01 7.798632e+01 3.195818e+00
      vertex   7.276032e+01 8.646735e+01 2.192708e+02
    endloop
  endfacet
  facet normal 6.876995e-01 7.259955e-01 -5.202911e-16
    outer loop
      vertex   7.276032e+01 8.646735e+01 2.192708e+02
      vertex   8.171364e+01 7.798632e+01 3.195818e+00
      vertex   7.276032e+01 8.646735e+01 3.195818e+00
    endloop
  endfacet
  facet normal 6.051742e-01 7.960931e-01 -7.370342e-16
    outer loop
      vertex   7.276032e+01 8.646735e+01 2.192708e+02
      vertex   7.276032e+01 8.646735e+01 3.195818e+00
      vertex   6.294253e+01 9.393064e+01 2.192708e+02
    endloop
  endfacet
  facet normal 6.051742e-01 7.960931e-01 -8.888948e-16
    outer loop
      vertex   6.294253e+01 9.393064e+01 2.192708e+02
      vertex   7.276032e+01 8.646735e+01 3.195818e+00
      vertex   6.294253e+01 9.393064e+01 3.195818e+00
    endloop
  endfacet
  facet normal 5.155539e-01 8.568572e-01 -1.086258e-15
    outer loop
      vertex   6.294253e+01 9.393064e+01 2.192708e+02
      vertex   6.294253e+01 9.393064e+01 3.195818e+00
      vertex   5.237537e+01 1.002887e+02 2.192708e+02
    endloop
  endfacet
  facet normal 5.155539e-01 8.568572e-01 -9.845367e-16
    outer loop
      vertex   5.237537e+01 1.002887e+02 2.192708e+02
      vertex   6.294253e+01 9.393064e+01 3.195818e+00
      vertex   5.237537e+01 1.002887e+02 3.195818e+00
    endloop
  endfacet
  facet normal 4.198891e-01 9.075754e-01 -1.188039e-15
    outer loop
      vertex   5.237537e+01 1.002887e+02 2.192708e+02
      vertex   5.237537e+01 1.002887e+02 3.195818e+00
      vertex   4.118273e+01 1.054670e+02 2.192708e+02
    endloop
  endfacet
  facet normal 4.198891e-01 9.075754e-01 -1.229462e-15
    outer loop
      vertex   4.118273e+01 1.054670e+02 2.192708e+02
      vertex   5.237537e+01 1.002887e+02 3.195818e+00
      vertex   4.118273e+01 1.054670e+02 3.195818e+00
    endloop
  endfacet
  facet normal 3.193015e-01 9.476532e-01 -1.409113e-15
    outer loop
      vertex   4.118273e+01 1.054670e+02 2.192708e+02
      vertex   4.118273e+01 1.054670e+02 3.195818e+00
      vertex   2.949583e+01 1.094047e+02 2.192708e+02
    endloop
  endfacet
  facet normal 3.193015e-01 9.476532e-01 -1.403189e-15
    outer loop
      vertex   2.949583e+01 1.094047e+02 2.192708e+02
      vertex   4.118273e+01 1.054670e+02 3.195818e+00
      vertex   2.949583e+01 1.094047e+02 3.195818e+00
    endloop
  endfacet
  facet normal 2.149704e-01 9.766206e-01 -1.590525e-15
    outer loop
      vertex   2.949583e+01 1.094047e+02 2.192708e+02
      vertex   2.949583e+01 1.094047e+02 3.195818e+00
      vertex   1.745169e+01 1.120558e+02 2.192708e+02
    endloop
  endfacet
  facet normal 2.149704e-01 9.766206e-01 -1.443783e-15
    outer loop
      vertex   1.745169e+01 1.120558e+02 2.192708e+02
      vertex   2.949583e+01 1.094047e+02 3.195818e+00
      vertex   1.745169e+01 1.120558e+02 3.195818e+00
    endloop
  endfacet
  facet normal 1.081190e-01 9.941380e-01 -1.586176e-15
    outer loop
      vertex   1.745169e+01 1.120558e+02 2.192708e+02
      vertex   1.745169e+01 1.120558e+02 3.195818e+00
      vertex   5.191522e+00 1.133892e+02 2.192708e+02
    endloop
  endfacet
  facet normal 1.081190e-01 9.941380e-01 -1.651114e-15
    outer loop
      vertex   5.191522e+00 1.133892e+02 2.192708e+02
      vertex   1.745169e+01 1.120558e+02 3.195818e+00
      vertex   5.191522e+00 1.133892e+02 3.195818e+00
    endloop
  endfacet
  facet normal -1.152313e-15 1.000000e+00 -1.775740e-15
    outer loop
      vertex   5.191522e+00 1.133892e+02 2.192708e+02
      vertex   5.191522e+00 1.133892e+02 3.195818e+00
      vertex   -7.140942e+00 1.133892e+02 2.192708e+02
    endloop
  endfacet
  facet normal 4.850271e-30 1.000000e+00 -1.709972e-15
    outer loop
      vertex   -7.140942e+00 1.133892e+02 2.192708e+02
      vertex   5.191522e+00 1.133892e+02 3.195818e+00
      vertex   -7.140942e+00 1.133892e+02 3.195818e+00
    endloop
  endfacet
  facet normal -1.081190e-01 9.941380e-01 -1.814610e-15
    outer loop
      vertex   -7.140942e+00 1.133892e+02 2.192708e+02
      vertex   -7.140942e+00 1.133892e+02 3.195818e+00
      vertex   -1.940111e+01 1.120558e+02 2.192708e+02
    endloop
  endfacet
  facet normal -1.081190e-01 9.941380e-01 -1.942708e-15
    outer loop
      vertex   -1.940111e+01 1.120558e+02 2.192708e+02
      vertex   -7.140942e+00 1.133892e+02 3.195818e+00
      vertex   -1.940111e+01 1.120558e+02 3.195818e+00
    endloop
  endfacet
  facet normal -2.149704e-01 9.766206e-01 -2.021132e-15
    outer loop
      vertex   -1.940111e+01 1.120558e+02 2.192708e+02
      vertex   -1.940111e+01 1.120558e+02 3.195818e+00
      vertex   -3.144525e+01 1.094047e+02 2.192708e+02
    endloop
  endfacet
  facet normal -2.149704e-01 9.766206e-01 -1.992247e-15
    outer loop
      vertex   -3.144525e+01 1.094047e+02 2.192708e+02
      vertex   -1.940111e+01 1.120558e+02 3.195818e+00
      vertex   -3.144525e+01 1.094047e+02 3.195818e+00
    endloop
  endfacet
  facet normal -3.193015e-01 9.476532e-01 -2.066034e-15
    outer loop
      vertex   -3.144525e+01 1.094047e+02 2.192708e+02
      vertex   -3.144525e+01 1.094047e+02 3.195818e+00
      vertex   -4.313215e+01 1.054670e+02 2.192708e+02
    endloop
  endfacet
  facet normal -3.193015e-01 9.476532e-01 -1.956458e-15
    outer loop
      vertex   -4.313215e+01 1.054670e+02 2.192708e+02
      vertex   -3.144525e+01 1.094047e+02 3.195818e+00
      vertex   -4.313215e+01 1.054670e+02 3.195818e+00
    endloop
  endfacet
  facet normal -4.198891e-01 9.075754e-01 -1.993774e-15
    outer loop
      vertex   -4.313215e+01 1.054670e+02 2.192708e+02
      vertex   -4.313215e+01 1.054670e+02 3.195818e+00
      vertex   -5.432479e+01 1.002887e+02 2.192708e+02
    endloop
  endfacet
  facet normal -4.198891e-01 9.075754e-01 -2.039656e-15
    outer loop
      vertex   -5.432479e+01 1.002887e+02 2.192708e+02
      vertex   -4.313215e+01 1.054670e+02 3.195818e+00
      vertex   -5.432479e+01 1.002887e+02 3.195818e+00
    endloop
  endfacet
  facet normal -5.155539e-01 8.568572e-01 -2.047115e-15
    outer loop
      vertex   -5.432479e+01 1.002887e+02 2.192708e+02
      vertex   -5.432479e+01 1.002887e+02 3.195818e+00
      vertex   -6.489195e+01 9.393064e+01 2.192708e+02
    endloop
  endfacet
  facet normal -5.155539e-01 8.568572e-01 -2.064068e-15
    outer loop
      vertex   -6.489195e+01 9.393064e+01 2.192708e+02
      vertex   -5.432479e+01 1.002887e+02 3.195818e+00
      vertex   -6.489195e+01 9.393064e+01 3.195818e+00
    endloop
  endfacet
  facet normal -6.051742e-01 7.960931e-01 -2.050474e-15
    outer loop
      vertex   -6.489195e+01 9.393064e+01 2.192708e+02
      vertex   -6.489195e+01 9.393064e+01 3.195818e+00
      vertex   -7.470974e+01 8.646735e+01 2.192708e+02
    endloop
  endfacet
  facet normal -6.051742e-01 7.960931e-01 -2.010672e-15
    outer loop
      vertex   -7.470974e+01 8.646735e+01 2.192708e+02
      vertex   -6.489195e+01 9.393064e+01 3.195818e+00
      vertex   -7.470974e+01 8.646735e+01 3.195818e+00
    endloop
  endfacet
  facet normal -6.876995e-01 7.259955e-01 -1.967610e-15
    outer loop
      vertex   -7.470974e+01 8.646735e+01 2.192708e+02
      vertex   -7.470974e+01 8.646735e+01 3.195818e+00
      vertex   -8.366306e+01 7.798632e+01 2.192708e+02
    endloop
  endfacet
  facet normal -6.876995e-01 7.259955e-01 -1.919863e-15
    outer loop
      vertex   -8.366306e+01 7.798632e+01 2.192708e+02
      vertex   -7.470974e+01 8.646735e+01 3.195818e+00
      vertex   -8.366306e+01 7.798632e+01 3.195818e+00
    endloop
  endfacet
  facet normal -7.621621e-01 6.473863e-01 -1.858902e-15
    outer loop
      vertex   -8.366306e+01 7.798632e+01 2.192708e+02
      vertex   -8.366306e+01 7.798632e+01 3.195818e+00
      vertex   -9.164692e+01 6.858698e+01 2.192708e+02
    endloop
  endfacet
  facet normal -7.621621e-01 6.473863e-01 -1.924126e-15
    outer loop
      vertex   -9.164692e+01 6.858698e+01 2.192708e+02
      vertex   -8.366306e+01 7.798632e+01 3.195818e+00
      vertex   -9.164692e+01 6.858698e+01 3.195818e+00
    endloop
  endfacet
  facet normal -8.276890e-01 5.611871e-01 -1.865638e-15
    outer loop
      vertex   -9.164692e+01 6.858698e+01 2.192708e+02
      vertex   -9.164692e+01 6.858698e+01 3.195818e+00
      vertex   -9.856774e+01 5.837954e+01 2.192708e+02
    endloop
  endfacet
  facet normal -8.276890e-01 5.611871e-01 -1.794602e-15
    outer loop
      vertex   -9.856774e+01 5.837954e+01 2.192708e+02
      vertex   -9.164692e+01 6.858698e+01 3.195818e+00
      vertex   -9.856774e+01 5.837954e+01 3.195818e+00
    endloop
  endfacet
  facet normal -8.835120e-01 4.684084e-01 -1.687973e-15
    outer loop
      vertex   -9.856774e+01 5.837954e+01 2.192708e+02
      vertex   -9.856774e+01 5.837954e+01 3.195818e+00
      vertex   -1.043444e+02 4.748366e+01 2.192708e+02
    endloop
  endfacet
  facet normal -8.835120e-01 4.684084e-01 -1.746080e-15
    outer loop
      vertex   -1.043444e+02 4.748366e+01 2.192708e+02
      vertex   -9.856774e+01 5.837954e+01 3.195818e+00
      vertex   -1.043444e+02 4.748366e+01 3.195818e+00
    endloop
  endfacet
  facet normal -9.289767e-01 3.701382e-01 -1.622651e-15
    outer loop
      vertex   -1.043444e+02 4.748366e+01 2.192708e+02
      vertex   -1.043444e+02 4.748366e+01 3.195818e+00
      vertex   -1.089091e+02 3.602708e+01 2.192708e+02
    endloop
  endfacet
  facet normal -9.289767e-01 3.701382e-01 -1.561554e-15
    outer loop
      vertex   -1.089091e+02 3.602708e+01 2.192708e+02
      vertex   -1.043444e+02 4.748366e+01 3.195818e+00
      vertex   -1.089091e+02 3.602708e+01 3.195818e+00
    endloop
  endfacet
  facet normal -9.635500e-01 2.675283e-01 -1.416827e-15
    outer loop
      vertex   -1.089091e+02 3.602708e+01 2.192708e+02
      vertex   -1.089091e+02 3.602708e+01 3.195818e+00
      vertex   -1.122084e+02 2.414414e+01 2.192708e+02
    endloop
  endfacet
  facet normal -9.635500e-01 2.675283e-01 -1.408030e-15
    outer loop
      vertex   -1.122084e+02 2.414414e+01 2.192708e+02
      vertex   -1.089091e+02 3.602708e+01 3.195818e+00
      vertex   -1.122084e+02 2.414414e+01 3.195818e+00
    endloop
  endfacet
  facet normal -9.868265e-01 1.617820e-01 -1.250169e-15
    outer loop
      vertex   -1.122084e+02 2.414414e+01 2.192708e+02
      vertex   -1.122084e+02 2.414414e+01 3.195818e+00
      vertex   -1.142035e+02 1.197414e+01 2.192708e+02
    endloop
  endfacet
  facet normal -9.868265e-01 1.617820e-01 -1.317731e-15
    outer loop
      vertex   -1.142035e+02 1.197414e+01 2.192708e+02
      vertex   -1.122084e+02 2.414414e+01 3.195818e+00
      vertex   -1.142035e+02 1.197414e+01 3.195818e+00
    endloop
  endfacet
  facet normal 8.785393e-16 -2.355643e-15 -1.000000e+00
    outer loop
      vertex   -1.142035e+02 1.197414e+01 -2.128792e+02
      vertex   1.122541e+02 1.197414e+01 -2.128792e+02
      vertex   -1.148712e+02 -3.402422e-01 -2.128792e+02
    endloop
  endfacet
  facet normal 9.981592e-16 -4.561902e-15 -1.000000e+00
    outer loop
      vertex   -1.148712e+02 -3.402422e-01 -2.128792e+02
      vertex   1.122541e+02 1.197414e+01 -2.128792e+02
      vertex   1.129218e+02 -3.402422e-01 -2.128792e+02
    endloop
  endfacet
  facet normal 9.981592e-16 -4.561902e-15 -1.000000e+00
    outer loop
      vertex   -1.148712e+02 -3.402422e-01 -2.128792e+02
      vertex   1.129218e+02 -3.402422e-01 -2.128792e+02
      vertex   -1.142035e+02 -1.265462e+01 -2.128792e+02
    endloop
  endfacet
  facet normal 8.785393e-16 -2.355643e-15 -1.000000e+00
    outer loop
      vertex   -1.142035e+02 -1.265462e+01 -2.128792e+02
      vertex   1.129218e+02 -3.402422e-01 -2.128792e+02
      vertex   1.122541e+02 -1.265462e+01 -2.128792e+02
    endloop
  endfacet
  facet normal 8.785393e-16 1.440292e-16 -1.000000e+00
    outer loop
      vertex   -1.142035e+02 -1.265462e+01 -2.128792e+02
      vertex   1.122541e+02 -1.265462e+01 -2.128792e+02
      vertex   -1.122084e+02 -2.482462e+01 -2.128792e+02
    endloop
  endfacet
  facet normal 8.942975e-16 -1.466126e-16 -1.000000e+00
    outer loop
      vertex   -1.122084e+02 -2.482462e+01 -2.128792e+02
      vertex   1.122541e+02 -1.265462e+01 -2.128792e+02
      vertex   1.102590e+02 -2.482462e+01 -2.128792e+02
    endloop
  endfacet
  facet normal 8.942975e-16 -2.143506e-15 -1.000000e+00
    outer loop
      vertex   -1.122084e+02 -2.482462e+01 -2.128792e+02
      vertex   1.102590e+02 -2.482462e+01 -2.128792e+02
      vertex   -1.089091e+02 -3.670757e+01 -2.128792e+02
    endloop
  endfacet
  facet normal 9.216339e-16 -2.647697e-15 -1.000000e+00
    outer loop
      vertex   -1.089091e+02 -3.670757e+01 -2.128792e+02
      vertex   1.102590e+02 -2.482462e+01 -2.128792e+02
      vertex   1.069597e+02 -3.670757e+01 -2.128792e+02
    endloop
  endfacet
  facet normal 9.216339e-16 3.672125e-16 -1.000000e+00
    outer loop
      vertex   -1.089091e+02 -3.670757e+01 -2.128792e+02
      vertex   1.069597e+02 -3.670757e+01 -2.128792e+02
      vertex   -1.043444e+02 -4.816414e+01 -2.128792e+02
    endloop
  endfacet
  facet normal 9.623325e-16 -3.834283e-16 -1.000000e+00
    outer loop
      vertex   -1.043444e+02 -4.816414e+01 -2.128792e+02
      vertex   1.069597e+02 -3.670757e+01 -2.128792e+02
      vertex   1.023950e+02 -4.816414e+01 -2.128792e+02
    endloop
  endfacet
  facet normal 9.623325e-16 -2.098286e-15 -1.000000e+00
    outer loop
      vertex   -1.043444e+02 -4.816414e+01 -2.128792e+02
      vertex   1.023950e+02 -4.816414e+01 -2.128792e+02
      vertex   -9.856774e+01 -5.906002e+01 -2.128792e+02
    endloop
  endfacet
  facet normal 1.164907e-15 -5.834559e-15 -1.000000e+00
    outer loop
      vertex   -9.856774e+01 -5.906002e+01 -2.128792e+02
      vertex   1.023950e+02 -4.816414e+01 -2.128792e+02
      vertex   9.661832e+01 -5.906002e+01 -2.128792e+02
    endloop
  endfacet
  facet normal 1.164907e-15 7.898268e-16 -1.000000e+00
    outer loop
      vertex   -9.856774e+01 -5.906002e+01 -2.128792e+02
      vertex   9.661832e+01 -5.906002e+01 -2.128792e+02
      vertex   -9.164692e+01 -6.926747e+01 -2.128792e+02
    endloop
  endfacet
  facet normal 1.253822e-15 -8.501126e-16 -1.000000e+00
    outer loop
      vertex   -9.164692e+01 -6.926747e+01 -2.128792e+02
      vertex   9.661832e+01 -5.906002e+01 -2.128792e+02
      vertex   8.969750e+01 -6.926747e+01 -2.128792e+02
    endloop
  endfacet
  facet normal 1.253822e-15 -4.982593e-15 -1.000000e+00
    outer loop
      vertex   -9.164692e+01 -6.926747e+01 -2.128792e+02
      vertex   8.969750e+01 -6.926747e+01 -2.128792e+02
      vertex   -8.366306e+01 -7.866680e+01 -2.128792e+02
    endloop
  endfacet
  facet normal 1.031163e-15 -8.758774e-16 -1.000000e+00
    outer loop
      vertex   -8.366306e+01 -7.866680e+01 -2.128792e+02
      vertex   8.969750e+01 -6.926747e+01 -2.128792e+02
      vertex   8.171364e+01 -7.866680e+01 -2.128792e+02
    endloop
  endfacet
  facet normal 1.031163e-15 1.088585e-15 -1.000000e+00
    outer loop
      vertex   -8.366306e+01 -7.866680e+01 -2.128792e+02
      vertex   8.171364e+01 -7.866680e+01 -2.128792e+02
      vertex   -7.470974e+01 -8.714783e+01 -2.128792e+02
    endloop
  endfacet
  facet normal 1.156372e-15 -1.220767e-15 -1.000000e+00
    outer loop
      vertex   -7.470974e+01 -8.714783e+01 -2.128792e+02
      vertex   8.171364e+01 -7.866680e+01 -2.128792e+02
      vertex   7.276032e+01 -8.714783e+01 -2.128792e+02
    endloop
  endfacet
  facet normal 1.156372e-15 -6.095221e-15 -1.000000e+00
    outer loop
      vertex   -7.470974e+01 -8.714783e+01 -2.128792e+02
      vertex   7.276032e+01 -8.714783e+01 -2.128792e+02
      vertex   -6.489195e+01 -9.461112e+01 -2.128792e+02
    endloop
  endfacet
  facet normal 1.111660e-15 -5.270566e-15 -1.000000e+00
    outer loop
      vertex   -6.489195e+01 -9.461112e+01 -2.128792e+02
      vertex   7.276032e+01 -8.714783e+01 -2.128792e+02
      vertex   6.294253e+01 -9.461112e+01 -2.128792e+02
    endloop
  endfacet
  facet normal 1.111660e-15 1.847594e-15 -1.000000e+00
    outer loop
      vertex   -6.489195e+01 -9.461112e+01 -2.128792e+02
      vertex   6.294253e+01 -9.461112e+01 -2.128792e+02
      vertex   -5.432479e+01 -1.009692e+02 -2.128792e+02
    endloop
  endfacet
  facet normal 1.331849e-15 -2.213551e-15 -1.000000e+00
    outer loop
      vertex   -5.432479e+01 -1.009692e+02 -2.128792e+02
      vertex   6.294253e+01 -9.461112e+01 -2.128792e+02
      vertex   5.237537e+01 -1.009692e+02 -2.128792e+02
    endloop
  endfacet
  facet normal 1.331849e-15 -2.609907e-15 -1.000000e+00
    outer loop
      vertex   -5.432479e+01 -1.009692e+02 -2.128792e+02
      vertex   5.237537e+01 -1.009692e+02 -2.128792e+02
      vertex   -4.313215e+01 -1.061474e+02 -2.128792e+02
    endloop
  endfacet
  facet normal 1.011270e-15 3.302828e-15 -1.000000e+00
    outer loop
      vertex   -4.313215e+01 -1.061474e+02 -2.128792e+02
      vertex   5.237537e+01 -1.009692e+02 -2.128792e+02
      vertex   4.118273e+01 -1.061474e+02 -2.128792e+02
    endloop
  endfacet
  facet normal 1.011270e-15 3.001343e-15 -1.000000e+00
    outer loop
      vertex   -4.313215e+01 -1.061474e+02 -2.128792e+02
      vertex   4.118273e+01 -1.061474e+02 -2.128792e+02
      vertex   -3.144525e+01 -1.100852e+02 -2.128792e+02
    endloop
  endfacet
  facet normal 1.399140e-15 -4.152501e-15 -1.000000e+00
    outer loop
      vertex   -3.144525e+01 -1.100852e+02 -2.128792e+02
      vertex   4.118273e+01 -1.061474e+02 -2.128792e+02
      vertex   2.949583e+01 -1.100852e+02 -2.128792e+02
    endloop
  endfacet
  facet normal 1.399140e-15 6.356359e-15 -1.000000e+00
    outer loop
      vertex   -3.144525e+01 -1.100852e+02 -2.128792e+02
      vertex   2.949583e+01 -1.100852e+02 -2.128792e+02
      vertex   -1.940111e+01 -1.127363e+02 -2.128792e+02
    endloop
  endfacet
  facet normal 2.313667e-15 -1.051110e-14 -1.000000e+00
    outer loop
      vertex   -1.940111e+01 -1.127363e+02 -2.128792e+02
      vertex   2.949583e+01 -1.100852e+02 -2.128792e+02
      vertex   1.745169e+01 -1.127363e+02 -2.128792e+02
    endloop
  endfacet
  facet normal 2.313667e-15 -4.267308e-14 -1.000000e+00
    outer loop
      vertex   -1.940111e+01 -1.127363e+02 -2.128792e+02
      vertex   1.745169e+01 -1.127363e+02 -2.128792e+02
      vertex   -7.140942e+00 -1.140697e+02 -2.128792e+02
    endloop
  endfacet
  facet normal 0.000000e+00 0.000000e+00 -1.000000e+00
    outer loop
      vertex   -7.140942e+00 -1.140697e+02 -2.128792e+02
      vertex   1.745169e+01 -1.127363e+02 -2.128792e+02
      vertex   5.191522e+00 -1.140697e+02 -2.128792e+02
    endloop
  endfacet
  facet normal 8.785393e-16 1.440292e-16 -1.000000e+00
    outer loop
      vertex   1.122541e+02 1.197414e+01 -2.128792e+02
      vertex   -1.142035e+02 1.197414e+01 -2.128792e+02
      vertex   1.102590e+02 2.414414e+01 -2.128792e+02
    endloop
  endfacet
  facet normal 8.942975e-16 -1.466126e-16 -1.000000e+00
    outer loop
      vertex   1.102590e+02 2.414414e+01 -2.128792e+02
      vertex   -1.142035e+02 1.197414e+01 -2.128792e+02
      vertex   -1.122084e+02 2.414414e+01 -2.128792e+02
    endloop
  endfacet
  facet normal 8.942975e-16 -2.143506e-15 -1.000000e+00
    outer loop
      vertex   1.102590e+02 2.414414e+01 -2.128792e+02
      vertex   -1.122084e+02 2.414414e+01 -2.128792e+02
      vertex   1.069597e+02 3.602708e+01 -2.128792e+02
    endloop
  endfacet
  facet normal 9.216339e-16 -2.647697e-15 -1.000000e+00
    outer loop
      vertex   1.069597e+02 3.602708e+01 -2.128792e+02
      vertex   -1.122084e+02 2.414414e+01 -2.128792e+02
      vertex   -1.089091e+02 3.602708e+01 -2.128792e+02
    endloop
  endfacet
  facet normal 9.216339e-16 3.672125e-16 -1.000000e+00
    outer loop
      vertex   1.069597e+02 3.602708e+01 -2.128792e+02
      vertex   -1.089091e+02 3.602708e+01 -2.128792e+02
      vertex   1.023950e+02 4.748366e+01 -2.128792e+02
    endloop
  endfacet
  facet normal 9.623325e-16 -3.834283e-16 -1.000000e+00
    outer loop
      vertex   1.023950e+02 4.748366e+01 -2.128792e+02
      vertex   -1.089091e+02 3.602708e+01 -2.128792e+02
      vertex   -1.043444e+02 4.748366e+01 -2.128792e+02
    endloop
  endfacet
  facet normal 9.623325e-16 -2.098286e-15 -1.000000e+00
    outer loop
      vertex   1.023950e+02 4.748366e+01 -2.128792e+02
      vertex   -1.043444e+02 4.748366e+01 -2.128792e+02
      vertex   9.661832e+01 5.837954e+01 -2.128792e+02
    endloop
  endfacet
  facet normal 1.164907e-15 -5.834559e-15 -1.000000e+00
    outer loop
      vertex   9.661832e+01 5.837954e+01 -2.128792e+02
      vertex   -1.043444e+02 4.748366e+01 -2.128792e+02
      vertex   -9.856774e+01 5.837954e+01 -2.128792e+02
    endloop
  endfacet
  facet normal 1.164907e-15 7.898268e-16 -1.000000e+00
    outer loop
      vertex   9.661832e+01 5.837954e+01 -2.128792e+02
      vertex   -9.856774e+01 5.837954e+01 -2.128792e+02
      vertex   8.969750e+01 6.858698e+01 -2.128792e+02
    endloop
  endfacet
  facet normal 1.253822e-15 -8.501126e-16 -1.000000e+00
    outer loop
      vertex   8.969750e+01 6.858698e+01 -2.128792e+02
      vertex   -9.856774e+01 5.837954e+01 -2.128792e+02
      vertex   -9.164692e+01 6.858698e+01 -2.128792e+02
    endloop
  endfacet
  facet normal 1.253822e-15 -4.982593e-15 -1.000000e+00
    outer loop
      vertex   8.969750e+01 6.858698e+01 -2.128792e+02
      vertex   -9.164692e+01 6.858698e+01 -2.128792e+02
      vertex   8.171364e+01 7.798632e+01 -2.128792e+02
    endloop
  endfacet
  facet normal 1.031163e-15 -8.758774e-16 -1.000000e+00
    outer loop
      vertex   8.171364e+01 7.798632e+01 -2.128792e+02
      vertex   -9.164692e+01 6.858698e+01 -2.128792e+02
      vertex   -8.366306e+01 7.798632e+01 -2.128792e+02
    endloop
  endfacet
  facet normal 1.031163e-15 1.088585e-15 -1.000000e+00
    outer loop
      vertex   8.171364e+01 7.798632e+01 -2.128792e+02
      vertex   -8.366306e+01 7.798632e+01 -2.128792e+02
      vertex   7.276032e+01 8.646735e+01 -2.128792e+02
    endloop
  endfacet
  facet normal 1.156372e-15 -1.220767e-15 -1.000000e+00
    outer loop
      vertex   7.276032e+01 8.646735e+01 -2.128792e+02
      vertex   -8.366306e+01 7.798632e+01 -2.128792e+02
      vertex   -7.470974e+01 8.646735e+01 -2.128792e+02
    endloop
  endfacet
  facet normal 1.156372e-15 -6.095221e-15 -1.000000e+00
    outer loop
      vertex   7.276032e+01 8.646735e+01 -2.128792e+02
      vertex   -7.470974e+01 8.646735e+01 -2.128792e+02
      vertex   6.294253e+01 9.393064e+01 -2.128792e+02
    endloop
  endfacet
  facet normal 1.111660e-15 -5.270566e-15 -1.000000e+00
    outer loop
      vertex   6.294253e+01 9.393064e+01 -2.128792e+02
      vertex   -7.470974e+01 8.646735e+01 -2.128792e+02
      vertex   -6.489195e+01 9.393064e+01 -2.128792e+02
    endloop
  endfacet
  facet normal 1.111660e-15 1.847594e-15 -1.000000e+00
    outer loop
      vertex   6.294253e+01 9.393064e+01 -2.128792e+02
      vertex   -6.489195e+01 9.393064e+01 -2.128792e+02
      vertex   5.237537e+01 1.002887e+02 -2.128792e+02
    endloop
  endfacet
  facet normal 1.331849e-15 -2.213551e-15 -1.000000e+00
    outer loop
      vertex   5.237537e+01 1.002887e+02 -2.128792e+02
      vertex   -6.489195e+01 9.393064e+01 -2.128792e+02
      vertex   -5.432479e+01 1.002887e+02 -2.128792e+02
    endloop
  endfacet
  facet normal 1.331849e-15 -2.609907e-15 -1.000000e+00
    outer loop
      vertex   5.237537e+01 1.002887e+02 -2.128792e+02
      vertex   -5.432479e+01 1.002887e+02 -2.128792e+02
      vertex   4.118273e+01 1.054670e+02 -2.128792e+02
    endloop
  endfacet
  facet normal 1.011270e-15 3.302828e-15 -1.000000e+00
    outer loop
      vertex   4.118273e+01 1.054670e+02 -2.128792e+02
      vertex   -5.432479e+01 1.002887e+02 -2.128792e+02
      vertex   -4.313215e+01 1.054670e+02 -2.128792e+02
    endloop
  endfacet
  facet normal 1.011270e-15 3.001343e-15 -1.000000e+00
    outer loop
      vertex   4.118273e+01 1.054670e+02 -2.128792e+02
      vertex   -4.313215e+01 1.054670e+02 -2.128792e+02
      vertex   2.949583e+01 1.094047e+02 -2.128792e+02
    endloop
  endfacet
  facet normal 1.399140e-15 -4.152501e-15 -1.000000e+00
    outer loop
      vertex   2.949583e+01 1.094047e+02 -2.128792e+02
      vertex   -4.313215e+01 1.054670e+02 -2.128792e+02
      vertex   -3.144525e+01 1.094047e+02 -2.128792e+02
    endloop
  endfacet
  facet normal 1.399140e-15 6.356359e-15 -1.000000e+00
    outer loop
      vertex   2.949583e+01 1.094047e+02 -2.128792e+02
      vertex   -3.144525e+01 1.094047e+02 -2.128792e+02
      vertex   1.745169e+01 1.120558e+02 -2.128792e+02
    endloop
  endfacet
  facet normal 2.313667e-15 -1.051110e-14 -1.000000e+00
    outer loop
      vertex   1.745169e+01 1.120558e+02 -2.128792e+02
      vertex   -3.144525e+01 1.094047e+02 -2.128792e+02
      vertex   -1.940111e+01 1.120558e+02 -2.128792e+02
    endloop
  endfacet
  facet normal 2.313667e-15 -4.267308e-14 -1.000000e+00
    outer loop
      vertex   1.745169e+01 1.120558e+02 -2.128792e+02
      vertex   -1.940111e+01 1.120558e+02 -2.128792e+02
      vertex   5.191522e+00 1.133892e+02 -2.128792e+02
    endloop
  endfacet
  facet normal 0.000000e+00 0.000000e+00 -1.000000e+00
    outer loop
      vertex   5.191522e+00 1.133892e+02 -2.128792e+02
      vertex   -1.940111e+01 1.120558e+02 -2.128792e+02
      vertex   -7.140942e+00 1.133892e+02 -2.128792e+02
    endloop
  endfacet
  facet normal -8.785393e-16 4.568387e-15 1.000000e+00
    outer loop
      vertex   -1.142035e+02 -1.265462e+01 2.192708e+02
      vertex   1.122541e+02 -1.265462e+01 2.192708e+02
      vertex   -1.148712e+02 -3.402422e-01 2.192708e+02
    endloop
  endfacet
  facet normal -9.981592e-16 2.362129e-15 1.000000e+00
    outer loop
      vertex   -1.148712e+02 -3.402422e-01 2.192708e+02
      vertex   1.122541e+02 -1.265462e+01 2.192708e+02
      vertex   1.129218e+02 -3.402422e-01 2.192708e+02
    endloop
  endfacet
  facet normal -9.981592e-16 2.362129e-15 1.000000e+00
    outer loop
      vertex   -1.148712e+02 -3.402422e-01 2.192708e+02
      vertex   1.129218e+02 -3.402422e-01 2.192708e+02
      vertex   -1.142035e+02 1.197414e+01 2.192708e+02
    endloop
  endfacet
  facet normal -8.785393e-16 4.568387e-15 1.000000e+00
    outer loop
      vertex   -1.142035e+02 1.197414e+01 2.192708e+02
      vertex   1.129218e+02 -3.402422e-01 2.192708e+02
      vertex   1.122541e+02 1.197414e+01 2.192708e+02
    endloop
  endfacet
  facet normal -8.785393e-16 1.440292e-16 1.000000e+00
    outer loop
      vertex   -1.142035e+02 1.197414e+01 2.192708e+02
      vertex   1.122541e+02 1.197414e+01 2.192708e+02
      vertex   -1.122084e+02 2.414414e+01 2.192708e+02
    endloop
  endfacet
  facet normal -8.942975e-16 -1.466126e-16 1.000000e+00
    outer loop
      vertex   -1.122084e+02 2.414414e+01 2.192708e+02
      vertex   1.122541e+02 1.197414e+01 2.192708e+02
      vertex   1.102590e+02 2.414414e+01 2.192708e+02
    endloop
  endfacet
  facet normal -8.942975e-16 2.640107e-15 1.000000e+00
    outer loop
      vertex   -1.122084e+02 2.414414e+01 2.192708e+02
      vertex   1.102590e+02 2.414414e+01 2.192708e+02
      vertex   -1.089091e+02 3.602708e+01 2.192708e+02
    endloop
  endfacet
  facet normal -9.216339e-16 2.135916e-15 1.000000e+00
    outer loop
      vertex   -1.089091e+02 3.602708e+01 2.192708e+02
      vertex   1.102590e+02 2.414414e+01 2.192708e+02
      vertex   1.069597e+02 3.602708e+01 2.192708e+02
    endloop
  endfacet
  facet normal -9.216339e-16 5.328855e-15 1.000000e+00
    outer loop
      vertex   -1.089091e+02 3.602708e+01 2.192708e+02
      vertex   1.069597e+02 3.602708e+01 2.192708e+02
      vertex   -1.043444e+02 4.748366e+01 2.192708e+02
    endloop
  endfacet
  facet normal -1.099809e-15 2.042618e-15 1.000000e+00
    outer loop
      vertex   -1.043444e+02 4.748366e+01 2.192708e+02
      vertex   1.069597e+02 3.602708e+01 2.192708e+02
      vertex   1.023950e+02 4.748366e+01 2.192708e+02
    endloop
  endfacet
  facet normal -1.099809e-15 5.830816e-16 1.000000e+00
    outer loop
      vertex   -1.043444e+02 4.748366e+01 2.192708e+02
      vertex   1.023950e+02 4.748366e+01 2.192708e+02
      vertex   -9.856774e+01 5.837954e+01 2.192708e+02
    endloop
  endfacet
  facet normal -1.164907e-15 -6.175948e-16 1.000000e+00
    outer loop
      vertex   -9.856774e+01 5.837954e+01 2.192708e+02
      vertex   1.023950e+02 4.748366e+01 2.192708e+02
      vertex   9.661832e+01 5.837954e+01 2.192708e+02
    endloop
  endfacet
  facet normal -1.164907e-15 3.574236e-15 1.000000e+00
    outer loop
      vertex   -9.856774e+01 5.837954e+01 2.192708e+02
      vertex   9.661832e+01 5.837954e+01 2.192708e+02
      vertex   -9.164692e+01 6.858698e+01 2.192708e+02
    endloop
  endfacet
  facet normal -1.253822e-15 1.934297e-15 1.000000e+00
    outer loop
      vertex   -9.164692e+01 6.858698e+01 2.192708e+02
      vertex   9.661832e+01 5.837954e+01 2.192708e+02
      vertex   8.969750e+01 6.858698e+01 2.192708e+02
    endloop
  endfacet
  facet normal -1.253822e-15 -1.958793e-15 1.000000e+00
    outer loop
      vertex   -9.164692e+01 6.858698e+01 2.192708e+02
      vertex   8.969750e+01 6.858698e+01 2.192708e+02
      vertex   -8.366306e+01 7.798632e+01 2.192708e+02
    endloop
  endfacet
  facet normal -1.031163e-15 2.147922e-15 1.000000e+00
    outer loop
      vertex   -8.366306e+01 7.798632e+01 2.192708e+02
      vertex   8.969750e+01 6.858698e+01 2.192708e+02
      vertex   8.171364e+01 7.798632e+01 2.192708e+02
    endloop
  endfacet
  facet normal -1.031163e-15 4.439795e-15 1.000000e+00
    outer loop
      vertex   -8.366306e+01 7.798632e+01 2.192708e+02
      vertex   8.171364e+01 7.798632e+01 2.192708e+02
      vertex   -7.470974e+01 8.646735e+01 2.192708e+02
    endloop
  endfacet
  facet normal -9.636434e-16 5.685114e-15 1.000000e+00
    outer loop
      vertex   -7.470974e+01 8.646735e+01 2.192708e+02
      vertex   8.171364e+01 7.798632e+01 2.192708e+02
      vertex   7.276032e+01 8.646735e+01 2.192708e+02
    endloop
  endfacet
  facet normal -9.636434e-16 1.267651e-15 1.000000e+00
    outer loop
      vertex   -7.470974e+01 8.646735e+01 2.192708e+02
      vertex   7.276032e+01 8.646735e+01 2.192708e+02
      vertex   -6.489195e+01 9.393064e+01 2.192708e+02
    endloop
  endfacet
  facet normal -1.111660e-15 -1.462364e-15 1.000000e+00
    outer loop
      vertex   -6.489195e+01 9.393064e+01 2.192708e+02
      vertex   7.276032e+01 8.646735e+01 2.192708e+02
      vertex   6.294253e+01 9.393064e+01 2.192708e+02
    endloop
  endfacet
  facet normal -1.111660e-15 6.317787e-15 1.000000e+00
    outer loop
      vertex   -6.489195e+01 9.393064e+01 2.192708e+02
      vertex   6.294253e+01 9.393064e+01 2.192708e+02
      vertex   -5.432479e+01 1.002887e+02 2.192708e+02
    endloop
  endfacet
  facet normal -1.331849e-15 2.256642e-15 1.000000e+00
    outer loop
      vertex   -5.432479e+01 1.002887e+02 2.192708e+02
      vertex   6.294253e+01 9.393064e+01 2.192708e+02
      vertex   5.237537e+01 1.002887e+02 2.192708e+02
    endloop
  endfacet
  facet normal -1.331849e-15 -2.609907e-15 1.000000e+00
    outer loop
      vertex   -5.432479e+01 1.002887e+02 2.192708e+02
      vertex   5.237537e+01 1.002887e+02 2.192708e+02
      vertex   -4.313215e+01 1.054670e+02 2.192708e+02
    endloop
  endfacet
  facet normal -1.011270e-15 3.302828e-15 1.000000e+00
    outer loop
      vertex   -4.313215e+01 1.054670e+02 2.192708e+02
      vertex   5.237537e+01 1.002887e+02 2.192708e+02
      vertex   4.118273e+01 1.054670e+02 2.192708e+02
    endloop
  endfacet
  facet normal -1.011270e-15 3.001343e-15 1.000000e+00
    outer loop
      vertex   -4.313215e+01 1.054670e+02 2.192708e+02
      vertex   4.118273e+01 1.054670e+02 2.192708e+02
      vertex   -3.144525e+01 1.094047e+02 2.192708e+02
    endloop
  endfacet
  facet normal -1.399140e-15 -4.152501e-15 1.000000e+00
    outer loop
      vertex   -3.144525e+01 1.094047e+02 2.192708e+02
      vertex   4.118273e+01 1.054670e+02 2.192708e+02
      vertex   2.949583e+01 1.094047e+02 2.192708e+02
    endloop
  endfacet
  facet normal -1.399140e-15 6.356359e-15 1.000000e+00
    outer loop
      vertex   -3.144525e+01 1.094047e+02 2.192708e+02
      vertex   2.949583e+01 1.094047e+02 2.192708e+02
      vertex   -1.940111e+01 1.120558e+02 2.192708e+02
    endloop
  endfacet
  facet normal -2.313667e-15 -1.051110e-14 1.000000e+00
    outer loop
      vertex   -1.940111e+01 1.120558e+02 2.192708e+02
      vertex   2.949583e+01 1.094047e+02 2.192708e+02
      vertex   1.745169e+01 1.120558e+02 2.192708e+02
    endloop
  endfacet
  facet normal -2.313667e-15 2.127382e-14 1.000000e+00
    outer loop
      vertex   -1.940111e+01 1.120558e+02 2.192708e+02
      vertex   1.745169e+01 1.120558e+02 2.192708e+02
      vertex   -7.140942e+00 1.133892e+02 2.192708e+02
    endloop
  endfacet
  facet normal -7.368682e-29 6.394690e-14 1.000000e+00
    outer loop
      vertex   -7.140942e+00 1.133892e+02 2.192708e+02
      vertex   1.745169e+01 1.120558e+02 2.192708e+02
      vertex   5.191522e+00 1.133892e+02 2.192708e+02
    endloop
  endfacet
  facet normal -8.785393e-16 1.440292e-16 1.000000e+00
    outer loop
      vertex   1.122541e+02 -1.265462e+01 2.192708e+02
      vertex   -1.142035e+02 -1.265462e+01 2.192708e+02
      vertex   1.102590e+02 -2.482462e+01 2.192708e+02
    endloop
  endfacet
  facet normal -8.942975e-16 -1.466126e-16 1.000000e+00
    outer loop
      vertex   1.102590e+02 -2.482462e+01 2.192708e+02
      vertex   -1.142035e+02 -1.265462e+01 2.192708e+02
      vertex   -1.122084e+02 -2.482462e+01 2.192708e+02
    endloop
  endfacet
  facet normal -8.942975e-16 2.640107e-15 1.000000e+00
    outer loop
      vertex   1.102590e+02 -2.482462e+01 2.192708e+02
      vertex   -1.122084e+02 -2.482462e+01 2.192708e+02
      vertex   1.069597e+02 -3.670757e+01 2.192708e+02
    endloop
  endfacet
  facet normal -9.216339e-16 2.135916e-15 1.000000e+00
    outer loop
      vertex   1.069597e+02 -3.670757e+01 2.192708e+02
      vertex   -1.122084e+02 -2.482462e+01 2.192708e+02
      vertex   -1.089091e+02 -3.670757e+01 2.192708e+02
    endloop
  endfacet
  facet normal -9.216339e-16 5.328855e-15 1.000000e+00
    outer loop
      vertex   1.069597e+02 -3.670757e+01 2.192708e+02
      vertex   -1.089091e+02 -3.670757e+01 2.192708e+02
      vertex   1.023950e+02 -4.816414e+01 2.192708e+02
    endloop
  endfacet
  facet normal -1.099809e-15 2.042618e-15 1.000000e+00
    outer loop
      vertex   1.023950e+02 -4.816414e+01 2.192708e+02
      vertex   -1.089091e+02 -3.670757e+01 2.192708e+02
      vertex   -1.043444e+02 -4.816414e+01 2.192708e+02
    endloop
  endfacet
  facet normal -1.099809e-15 5.830816e-16 1.000000e+00
    outer loop
      vertex   1.023950e+02 -4.816414e+01 2.192708e+02
      vertex   -1.043444e+02 -4.816414e+01 2.192708e+02
      vertex   9.661832e+01 -5.906002e+01 2.192708e+02
    endloop
  endfacet
  facet normal -1.164907e-15 -6.175948e-16 1.000000e+00
    outer loop
      vertex   9.661832e+01 -5.906002e+01 2.192708e+02
      vertex   -1.043444e+02 -4.816414e+01 2.192708e+02
      vertex   -9.856774e+01 -5.906002e+01 2.192708e+02
    endloop
  endfacet
  facet normal -1.164907e-15 3.574236e-15 1.000000e+00
    outer loop
      vertex   9.661832e+01 -5.906002e+01 2.192708e+02
      vertex   -9.856774e+01 -5.906002e+01 2.192708e+02
      vertex   8.969750e+01 -6.926747e+01 2.192708e+02
    endloop
  endfacet
  facet normal -1.253822e-15 1.934297e-15 1.000000e+00
    outer loop
      vertex   8.969750e+01 -6.926747e+01 2.192708e+02
      vertex   -9.856774e+01 -5.906002e+01 2.192708e+02
      vertex   -9.164692e+01 -6.926747e+01 2.192708e+02
    endloop
  endfacet
  facet normal -1.253822e-15 -1.958793e-15 1.000000e+00
    outer loop
      vertex   8.969750e+01 -6.926747e+01 2.192708e+02
      vertex   -9.164692e+01 -6.926747e+01 2.192708e+02
      vertex   8.171364e+01 -7.866680e+01 2.192708e+02
    endloop
  endfacet
  facet normal -1.031163e-15 2.147922e-15 1.000000e+00
    outer loop
      vertex   8.171364e+01 -7.866680e+01 2.192708e+02
      vertex   -9.164692e+01 -6.926747e+01 2.192708e+02
      vertex   -8.366306e+01 -7.866680e+01 2.192708e+02
    endloop
  endfacet
  facet normal -1.031163e-15 4.439795e-15 1.000000e+00
    outer loop
      vertex   8.171364e+01 -7.866680e+01 2.192708e+02
      vertex   -8.366306e+01 -7.866680e+01 2.192708e+02
      vertex   7.276032e+01 -8.714783e+01 2.192708e+02
    endloop
  endfacet
  facet normal -9.636434e-16 5.685114e-15 1.000000e+00
    outer loop
      vertex   7.276032e+01 -8.714783e+01 2.192708e+02
      vertex   -8.366306e+01 -7.866680e+01 2.192708e+02
      vertex   -7.470974e+01 -8.714783e+01 2.192708e+02
    endloop
  endfacet
  facet normal -9.636434e-16 1.267651e-15 1.000000e+00
    outer loop
      vertex   7.276032e+01 -8.714783e+01 2.192708e+02
      vertex   -7.470974e+01 -8.714783e+01 2.192708e+02
      vertex   6.294253e+01 -9.461112e+01 2.192708e+02
    endloop
  endfacet
  facet normal -1.111660e-15 -1.462364e-15 1.000000e+00
    outer loop
      vertex   6.294253e+01 -9.461112e+01 2.192708e+02
      vertex   -7.470974e+01 -8.714783e+01 2.192708e+02
      vertex   -6.489195e+01 -9.461112e+01 2.192708e+02
    endloop
  endfacet
  facet normal -1.111660e-15 6.317787e-15 1.000000e+00
    outer loop
      vertex   6.294253e+01 -9.461112e+01 2.192708e+02
      vertex   -6.489195e+01 -9.461112e+01 2.192708e+02
      vertex   5.237537e+01 -1.009692e+02 2.192708e+02
    endloop
  endfacet
  facet normal -1.331849e-15 2.256642e-15 1.000000e+00
    outer loop
      vertex   5.237537e+01 -1.009692e+02 2.192708e+02
      vertex   -6.489195e+01 -9.461112e+01 2.192708e+02
      vertex   -5.432479e+01 -1.009692e+02 2.192708e+02
    endloop
  endfacet
  facet normal -1.331849e-15 -2.609907e-15 1.000000e+00
    outer loop
      vertex   5.237537e+01 -1.009692e+02 2.192708e+02
      vertex   -5.432479e+01 -1.009692e+02 2.192708e+02
      vertex   4.118273e+01 -1.061474e+02 2.192708e+02
    endloop
  endfacet
  facet normal -1.011270e-15 3.302828e-15 1.000000e+00
    outer loop
      vertex   4.118273e+01 -1.061474e+02 2.192708e+02
      vertex   -5.432479e+01 -1.009692e+02 2.192708e+02
      vertex   -4.313215e+01 -1.061474e+02 2.192708e+02
    endloop
  endfacet
  facet normal -1.011270e-15 3.001343e-15 1.000000e+00
    outer loop
      vertex   4.118273e+01 -1.061474e+02 2.192708e+02
      vertex   -4.313215e+01 -1.061474e+02 2.192708e+02
      vertex   2.949583e+01 -1.100852e+02 2.192708e+02
    endloop
  endfacet
  facet normal -1.399140e-15 -4.152501e-15 1.000000e+00
    outer loop
      vertex   2.949583e+01 -1.100852e+02 2.192708e+02
      vertex   -4.313215e+01 -1.061474e+02 2.192708e+02
      vertex   -3.144525e+01 -1.100852e+02 2.192708e+02
    endloop
  endfacet
  facet normal -1.399140e-15 6.356359e-15 1.000000e+00
    outer loop
      vertex   2.949583e+01 -1.100852e+02 2.192708e+02
      vertex   -3.144525e+01 -1.100852e+02 2.192708e+02
      vertex   1.745169e+01 -1.127363e+02 2.192708e+02
    endloop
  endfacet
  facet normal -2.313667e-15 -1.051110e-14 1.000000e+00
    outer loop
      vertex   1.745169e+01 -1.127363e+02 2.192708e+02
      vertex   -3.144525e+01 -1.100852e+02 2.192708e+02
      vertex   -1.940111e+01 -1.127363e+02 2.192708e+02
    endloop
  endfacet
  facet normal -2.313667e-15 2.127382e-14 1.000000e+00
    outer loop
      vertex   1.745169e+01 -1.127363e+02 2.192708e+02
      vertex   -1.940111e+01 -1.127363e+02 2.192708e+02
      vertex   5.191522e+00 -1.140697e+02 2.192708e+02
    endloop
  endfacet
  facet normal -7.368682e-29 6.394690e-14 1.000000e+00
    outer loop
      vertex   5.191522e+00 -1.140697e+02 2.192708e+02
      vertex   -1.940111e+01 -1.127363e+02 2.192708e+02
      vertex   -7.140942e+00 -1.140697e+02 2.192708e+02
    endloop
  endfacet
endsolid
