solid Gas_Lens
  facet normal 0.000000e+00 0.000000e+00 1.000000e+00
    outer loop
      vertex   1.584544e+01 8.603191e+00 2.277708e+02
      vertex   1.436402e+01 1.095692e+01 2.277708e+02
      vertex   1.696837e+01 6.058850e+00 2.277708e+02
    endloop
  endfacet
  facet normal 0.000000e+00 0.000000e+00 1.000000e+00
    outer loop
      vertex   1.696837e+01 6.058850e+00 2.277708e+02
      vertex   1.436402e+01 1.095692e+01 2.277708e+02
      vertex   1.255568e+01 1.306987e+01 2.277708e+02
    endloop
  endfacet
  facet normal 0.000000e+00 0.000000e+00 1.000000e+00
    outer loop
      vertex   1.696837e+01 6.058850e+00 2.277708e+02
      vertex   1.255568e+01 1.306987e+01 2.277708e+02
      vertex   1.770887e+01 3.378124e+00 2.277708e+02
    endloop
  endfacet
  facet normal 0.000000e+00 0.000000e+00 1.000000e+00
    outer loop
      vertex   1.770887e+01 3.378124e+00 2.277708e+02
      vertex   1.255568e+01 1.306987e+01 2.277708e+02
      vertex   1.045897e+01 1.489700e+01 2.277708e+02
    endloop
  endfacet
  facet normal -2.037666e-14 -1.282494e-14 1.000000e+00
    outer loop
      vertex   1.770887e+01 3.378124e+00 2.277708e+02
      vertex   1.045897e+01 1.489700e+01 2.277708e+02
      vertex   8.118562e+00 1.639938e+01 2.277708e+02
    endloop
  endfacet
  facet normal -1.533379e-14 -9.110804e-15 1.000000e+00
    outer loop
      vertex   8.118562e+00 1.639938e+01 2.277708e+02
      vertex   5.584350e+00 1.754498e+01 2.277708e+02
      vertex   1.770887e+01 3.378124e+00 2.277708e+02
    endloop
  endfacet
  facet normal -5.482827e-15 -6.799845e-16 1.000000e+00
    outer loop
      vertex   1.770887e+01 3.378124e+00 2.277708e+02
      vertex   5.584350e+00 1.754498e+01 2.277708e+02
      vertex   1.805117e+01 6.181476e-01 2.277708e+02
    endloop
  endfacet
  facet normal 1.216021e-15 4.253798e-15 1.000000e+00
    outer loop
      vertex   1.805117e+01 6.181476e-01 2.277708e+02
      vertex   5.584350e+00 1.754498e+01 2.277708e+02
      vertex   2.910343e+00 1.830939e+01 2.277708e+02
    endloop
  endfacet
  facet normal 4.826315e-16 3.626136e-15 1.000000e+00
    outer loop
      vertex   1.805117e+01 6.181476e-01 2.277708e+02
      vertex   2.910343e+00 1.830939e+01 2.277708e+02
      vertex   1.535324e-01 1.867632e+01 2.277708e+02
    endloop
  endfacet
  facet normal -4.285699e-17 3.105319e-15 1.000000e+00
    outer loop
      vertex   1.535324e-01 1.867632e+01 2.277708e+02
      vertex   -2.627324e+00 1.863794e+01 2.277708e+02
      vertex   1.805117e+01 6.181476e-01 2.277708e+02
    endloop
  endfacet
  facet normal -4.293449e-16 2.661807e-15 1.000000e+00
    outer loop
      vertex   1.805117e+01 6.181476e-01 2.277708e+02
      vertex   -2.627324e+00 1.863794e+01 2.277708e+02
      vertex   -5.372958e+00 1.819507e+01 2.277708e+02
    endloop
  endfacet
  facet normal -7.190555e-16 2.275721e-15 1.000000e+00
    outer loop
      vertex   1.805117e+01 6.181476e-01 2.277708e+02
      vertex   -5.372958e+00 1.819507e+01 2.277708e+02
      vertex   -8.024851e+00 1.735716e+01 2.277708e+02
    endloop
  endfacet
  facet normal -9.389713e-16 1.933136e-15 1.000000e+00
    outer loop
      vertex   -8.024851e+00 1.735716e+01 2.277708e+02
      vertex   -1.052648e+01 1.614206e+01 2.277708e+02
      vertex   1.805117e+01 6.181476e-01 2.277708e+02
    endloop
  endfacet
  facet normal -1.106921e-15 1.623960e-15 1.000000e+00
    outer loop
      vertex   1.805117e+01 6.181476e-01 2.277708e+02
      vertex   -1.052648e+01 1.614206e+01 2.277708e+02
      vertex   -1.282453e+01 1.457566e+01 2.277708e+02
    endloop
  endfacet
  facet normal -1.234996e-15 1.340643e-15 1.000000e+00
    outer loop
      vertex   1.805117e+01 6.181476e-01 2.277708e+02
      vertex   -1.282453e+01 1.457566e+01 2.277708e+02
      vertex   -1.487003e+01 1.269136e+01 2.277708e+02
    endloop
  endfacet
  facet normal -1.331546e-15 1.077370e-15 1.000000e+00
    outer loop
      vertex   -1.487003e+01 1.269136e+01 2.277708e+02
      vertex   -1.661937e+01 1.052931e+01 2.277708e+02
      vertex   1.805117e+01 6.181476e-01 2.277708e+02
    endloop
  endfacet
  facet normal 1.500913e-15 1.098568e-14 1.000000e+00
    outer loop
      vertex   1.805117e+01 6.181476e-01 2.277708e+02
      vertex   -1.661937e+01 1.052931e+01 2.277708e+02
      vertex   -1.803527e+01 8.135598e+00 2.277708e+02
    endloop
  endfacet
  facet normal -7.257984e-16 2.966741e-16 1.000000e+00
    outer loop
      vertex   1.805117e+01 6.181476e-01 2.277708e+02
      vertex   -1.803527e+01 8.135598e+00 2.277708e+02
      vertex   -1.908755e+01 5.561237e+00 2.277708e+02
    endloop
  endfacet
  facet normal -7.409516e-16 1.828245e-16 1.000000e+00
    outer loop
      vertex   -1.908755e+01 5.561237e+00 2.277708e+02
      vertex   -1.975379e+01 2.861096e+00 2.277708e+02
      vertex   1.805117e+01 6.181476e-01 2.277708e+02
    endloop
  endfacet
  facet normal -7.475370e-16 7.182651e-17 1.000000e+00
    outer loop
      vertex   1.805117e+01 6.181476e-01 2.277708e+02
      vertex   -1.975379e+01 2.861096e+00 2.277708e+02
      vertex   -2.001979e+01 9.272448e-02 2.277708e+02
    endloop
  endfacet
  facet normal -8.871489e-16 1.018778e-14 1.000000e+00
    outer loop
      vertex   1.805117e+01 6.181476e-01 2.277708e+02
      vertex   -2.001979e+01 9.272448e-02 2.277708e+02
      vertex   -1.987987e+01 -2.684875e+00 2.277708e+02
    endloop
  endfacet
  facet normal -0.000000e+00 0.000000e+00 1.000000e+00
    outer loop
      vertex   -1.987987e+01 -2.684875e+00 2.277708e+02
      vertex   -1.933703e+01 -5.412503e+00 2.277708e+02
      vertex   1.805117e+01 6.181476e-01 2.277708e+02
    endloop
  endfacet
  facet normal 0.000000e+00 0.000000e+00 1.000000e+00
    outer loop
      vertex   1.805117e+01 6.181476e-01 2.277708e+02
      vertex   -1.933703e+01 -5.412503e+00 2.277708e+02
      vertex   -1.840282e+01 -8.032025e+00 2.277708e+02
    endloop
  endfacet
  facet normal 0.000000e+00 0.000000e+00 1.000000e+00
    outer loop
      vertex   1.805117e+01 6.181476e-01 2.277708e+02
      vertex   -1.840282e+01 -8.032025e+00 2.277708e+02
      vertex   -1.709716e+01 -1.048761e+01 2.277708e+02
    endloop
  endfacet
  facet normal -0.000000e+00 0.000000e+00 1.000000e+00
    outer loop
      vertex   -1.709716e+01 -1.048761e+01 2.277708e+02
      vertex   -1.544788e+01 -1.272692e+01 2.277708e+02
      vertex   1.805117e+01 6.181476e-01 2.277708e+02
    endloop
  endfacet
  facet normal 0.000000e+00 0.000000e+00 1.000000e+00
    outer loop
      vertex   1.805117e+01 6.181476e-01 2.277708e+02
      vertex   -1.544788e+01 -1.272692e+01 2.277708e+02
      vertex   -1.349013e+01 -1.470223e+01 2.277708e+02
    endloop
  endfacet
  facet normal 0.000000e+00 0.000000e+00 1.000000e+00
    outer loop
      vertex   1.805117e+01 6.181476e-01 2.277708e+02
      vertex   -1.349013e+01 -1.470223e+01 2.277708e+02
      vertex   -1.126564e+01 -1.637144e+01 2.277708e+02
    endloop
  endfacet
  facet normal 0.000000e+00 0.000000e+00 1.000000e+00
    outer loop
      vertex   1.805117e+01 6.181476e-01 2.277708e+02
      vertex   -1.126564e+01 -1.637144e+01 2.277708e+02
      vertex   1.798796e+01 -2.162255e+00 2.277708e+02
    endloop
  endfacet
  facet normal 0.000000e+00 0.000000e+00 1.000000e+00
    outer loop
      vertex   1.798796e+01 -2.162255e+00 2.277708e+02
      vertex   -1.126564e+01 -1.637144e+01 2.277708e+02
      vertex   -8.821810e+00 -1.769897e+01 2.277708e+02
    endloop
  endfacet
  facet normal 0.000000e+00 0.000000e+00 1.000000e+00
    outer loop
      vertex   1.798796e+01 -2.162255e+00 2.277708e+02
      vertex   -8.821810e+00 -1.769897e+01 2.277708e+02
      vertex   1.752059e+01 -4.903826e+00 2.277708e+02
    endloop
  endfacet
  facet normal 0.000000e+00 0.000000e+00 1.000000e+00
    outer loop
      vertex   1.752059e+01 -4.903826e+00 2.277708e+02
      vertex   -8.821810e+00 -1.769897e+01 2.277708e+02
      vertex   -6.210735e+00 -1.865653e+01 2.277708e+02
    endloop
  endfacet
  facet normal 0.000000e+00 0.000000e+00 1.000000e+00
    outer loop
      vertex   1.752059e+01 -4.903826e+00 2.277708e+02
      vertex   -6.210735e+00 -1.865653e+01 2.277708e+02
      vertex   1.665903e+01 -7.548131e+00 2.277708e+02
    endloop
  endfacet
  facet normal -1.461130e-14 3.008146e-14 1.000000e+00
    outer loop
      vertex   1.665903e+01 -7.548131e+00 2.277708e+02
      vertex   -6.210735e+00 -1.865653e+01 2.277708e+02
      vertex   -3.488063e+00 -1.922372e+01 2.277708e+02
    endloop
  endfacet
  facet normal -5.324568e-15 1.405651e-14 1.000000e+00
    outer loop
      vertex   1.665903e+01 -7.548131e+00 2.277708e+02
      vertex   -3.488063e+00 -1.922372e+01 2.277708e+02
      vertex   1.542164e+01 -1.003881e+01 2.277708e+02
    endloop
  endfacet
  facet normal 9.286732e-15 -1.602495e-14 1.000000e+00
    outer loop
      vertex   1.542164e+01 -1.003881e+01 2.277708e+02
      vertex   -3.488063e+00 -1.922372e+01 2.277708e+02
      vertex   -7.118233e-01 -1.938843e+01 2.277708e+02
    endloop
  endfacet
  facet normal 0.000000e+00 0.000000e+00 1.000000e+00
    outer loop
      vertex   1.542164e+01 -1.003881e+01 2.277708e+02
      vertex   -7.118233e-01 -1.938843e+01 2.277708e+02
      vertex   1.383479e+01 -1.232279e+01 2.277708e+02
    endloop
  endfacet
  facet normal 0.000000e+00 0.000000e+00 1.000000e+00
    outer loop
      vertex   1.383479e+01 -1.232279e+01 2.277708e+02
      vertex   -7.118233e-01 -1.938843e+01 2.277708e+02
      vertex   2.058813e+00 -1.914716e+01 2.277708e+02
    endloop
  endfacet
  facet normal 0.000000e+00 0.000000e+00 1.000000e+00
    outer loop
      vertex   1.383479e+01 -1.232279e+01 2.277708e+02
      vertex   2.058813e+00 -1.914716e+01 2.277708e+02
      vertex   1.193229e+01 -1.435137e+01 2.277708e+02
    endloop
  endfacet
  facet normal 0.000000e+00 0.000000e+00 1.000000e+00
    outer loop
      vertex   1.193229e+01 -1.435137e+01 2.277708e+02
      vertex   2.058813e+00 -1.914716e+01 2.277708e+02
      vertex   4.764796e+00 -1.850506e+01 2.277708e+02
    endloop
  endfacet
  facet normal 0.000000e+00 0.000000e+00 1.000000e+00
    outer loop
      vertex   1.193229e+01 -1.435137e+01 2.277708e+02
      vertex   4.764796e+00 -1.850506e+01 2.277708e+02
      vertex   9.754711e+00 -1.608134e+01 2.277708e+02
    endloop
  endfacet
  facet normal 0.000000e+00 0.000000e+00 1.000000e+00
    outer loop
      vertex   9.754711e+00 -1.608134e+01 2.277708e+02
      vertex   4.764796e+00 -1.850506e+01 2.277708e+02
      vertex   7.348450e+00 -1.747580e+01 2.277708e+02
    endloop
  endfacet
  facet normal 9.148614e-01 4.037681e-01 9.997178e-16
    outer loop
      vertex   1.696837e+01 6.058850e+00 2.277708e+02
      vertex   1.696837e+01 6.058850e+00 2.190708e+02
      vertex   1.584544e+01 8.603191e+00 2.277708e+02
    endloop
  endfacet
  facet normal 9.148614e-01 4.037681e-01 4.612450e-16
    outer loop
      vertex   1.584544e+01 8.603191e+00 2.277708e+02
      vertex   1.696837e+01 6.058850e+00 2.190708e+02
      vertex   1.584544e+01 8.603191e+00 2.190708e+02
    endloop
  endfacet
  facet normal 8.463229e-01 5.326702e-01 1.667276e-16
    outer loop
      vertex   1.584544e+01 8.603191e+00 2.277708e+02
      vertex   1.584544e+01 8.603191e+00 2.190708e+02
      vertex   1.436402e+01 1.095692e+01 2.277708e+02
    endloop
  endfacet
  facet normal 8.463229e-01 5.326702e-01 6.017678e-16
    outer loop
      vertex   1.436402e+01 1.095692e+01 2.277708e+02
      vertex   1.584544e+01 8.603191e+00 2.190708e+02
      vertex   1.436402e+01 1.095692e+01 2.190708e+02
    endloop
  endfacet
  facet normal 7.597466e-01 6.502193e-01 3.997011e-16
    outer loop
      vertex   1.436402e+01 1.095692e+01 2.277708e+02
      vertex   1.436402e+01 1.095692e+01 2.190708e+02
      vertex   1.255568e+01 1.306987e+01 2.277708e+02
    endloop
  endfacet
  facet normal 7.597466e-01 6.502193e-01 -3.968654e-16
    outer loop
      vertex   1.255568e+01 1.306987e+01 2.277708e+02
      vertex   1.436402e+01 1.095692e+01 2.190708e+02
      vertex   1.255568e+01 1.306987e+01 2.190708e+02
    endloop
  endfacet
  facet normal 6.569775e-01 7.539102e-01 -7.344799e-16
    outer loop
      vertex   1.255568e+01 1.306987e+01 2.277708e+02
      vertex   1.255568e+01 1.306987e+01 2.190708e+02
      vertex   1.045897e+01 1.489700e+01 2.277708e+02
    endloop
  endfacet
  facet normal 6.569775e-01 7.539102e-01 -4.266148e-16
    outer loop
      vertex   1.045897e+01 1.489700e+01 2.277708e+02
      vertex   1.255568e+01 1.306987e+01 2.190708e+02
      vertex   1.045897e+01 1.489700e+01 2.190708e+02
    endloop
  endfacet
  facet normal 5.402062e-01 8.415327e-01 -7.127937e-16
    outer loop
      vertex   1.045897e+01 1.489700e+01 2.277708e+02
      vertex   1.045897e+01 1.489700e+01 2.190708e+02
      vertex   8.118562e+00 1.639938e+01 2.277708e+02
    endloop
  endfacet
  facet normal 5.402062e-01 8.415327e-01 -8.358428e-16
    outer loop
      vertex   8.118562e+00 1.639938e+01 2.277708e+02
      vertex   1.045897e+01 1.489700e+01 2.190708e+02
      vertex   8.118562e+00 1.639938e+01 2.190708e+02
    endloop
  endfacet
  facet normal 4.119212e-01 9.112195e-01 -1.187673e-15
    outer loop
      vertex   8.118562e+00 1.639938e+01 2.277708e+02
      vertex   8.118562e+00 1.639938e+01 2.190708e+02
      vertex   5.584350e+00 1.754498e+01 2.277708e+02
    endloop
  endfacet
  facet normal 4.119212e-01 9.112195e-01 -6.116771e-16
    outer loop
      vertex   5.584350e+00 1.754498e+01 2.277708e+02
      vertex   8.118562e+00 1.639938e+01 2.190708e+02
      vertex   5.584350e+00 1.754498e+01 2.190708e+02
    endloop
  endfacet
  facet normal 2.748569e-01 9.614851e-01 -8.411701e-16
    outer loop
      vertex   5.584350e+00 1.754498e+01 2.277708e+02
      vertex   5.584350e+00 1.754498e+01 2.190708e+02
      vertex   2.910343e+00 1.830939e+01 2.277708e+02
    endloop
  endfacet
  facet normal 2.748569e-01 9.614851e-01 -1.626430e-15
    outer loop
      vertex   2.910343e+00 1.830939e+01 2.277708e+02
      vertex   5.584350e+00 1.754498e+01 2.190708e+02
      vertex   2.910343e+00 1.830939e+01 2.190708e+02
    endloop
  endfacet
  facet normal 1.319345e-01 9.912584e-01 -1.862312e-15
    outer loop
      vertex   2.910343e+00 1.830939e+01 2.277708e+02
      vertex   2.910343e+00 1.830939e+01 2.190708e+02
      vertex   1.535324e-01 1.867632e+01 2.277708e+02
    endloop
  endfacet
  facet normal 1.319345e-01 9.912584e-01 -1.862312e-15
    outer loop
      vertex   1.535324e-01 1.867632e+01 2.277708e+02
      vertex   2.910343e+00 1.830939e+01 2.190708e+02
      vertex   1.535324e-01 1.867632e+01 2.190708e+02
    endloop
  endfacet
  facet normal -1.379984e-02 9.999048e-01 -2.058501e-15
    outer loop
      vertex   1.535324e-01 1.867632e+01 2.277708e+02
      vertex   1.535324e-01 1.867632e+01 2.190708e+02
      vertex   -2.627324e+00 1.863794e+01 2.277708e+02
    endloop
  endfacet
  facet normal -1.379984e-02 9.999048e-01 -2.055683e-15
    outer loop
      vertex   -2.627324e+00 1.863794e+01 2.277708e+02
      vertex   1.535324e-01 1.867632e+01 2.190708e+02
      vertex   -2.627324e+00 1.863794e+01 2.190708e+02
    endloop
  endfacet
  facet normal -1.592401e-01 9.872399e-01 -2.178303e-15
    outer loop
      vertex   -2.627324e+00 1.863794e+01 2.277708e+02
      vertex   -2.627324e+00 1.863794e+01 2.190708e+02
      vertex   -5.372958e+00 1.819507e+01 2.277708e+02
    endloop
  endfacet
  facet normal -1.592401e-01 9.872399e-01 -2.178303e-15
    outer loop
      vertex   -5.372958e+00 1.819507e+01 2.277708e+02
      vertex   -2.627324e+00 1.863794e+01 2.190708e+02
      vertex   -5.372958e+00 1.819507e+01 2.190708e+02
    endloop
  endfacet
  facet normal -3.012864e-01 9.535337e-01 -2.254497e-15
    outer loop
      vertex   -5.372958e+00 1.819507e+01 2.277708e+02
      vertex   -5.372958e+00 1.819507e+01 2.190708e+02
      vertex   -8.024851e+00 1.735716e+01 2.277708e+02
    endloop
  endfacet
  facet normal -3.012864e-01 9.535337e-01 -2.316013e-15
    outer loop
      vertex   -8.024851e+00 1.735716e+01 2.277708e+02
      vertex   -5.372958e+00 1.819507e+01 2.190708e+02
      vertex   -8.024851e+00 1.735716e+01 2.190708e+02
    endloop
  endfacet
  facet normal -4.369113e-01 8.995046e-01 -2.371848e-15
    outer loop
      vertex   -8.024851e+00 1.735716e+01 2.277708e+02
      vertex   -8.024851e+00 1.735716e+01 2.190708e+02
      vertex   -1.052648e+01 1.614206e+01 2.277708e+02
    endloop
  endfacet
  facet normal -4.369113e-01 8.995046e-01 -2.282639e-15
    outer loop
      vertex   -1.052648e+01 1.614206e+01 2.277708e+02
      vertex   -8.024851e+00 1.735716e+01 2.190708e+02
      vertex   -1.052648e+01 1.614206e+01 2.190708e+02
    endloop
  endfacet
  facet normal -5.632242e-01 8.263041e-01 -2.262132e-15
    outer loop
      vertex   -1.052648e+01 1.614206e+01 2.277708e+02
      vertex   -1.052648e+01 1.614206e+01 2.190708e+02
      vertex   -1.282453e+01 1.457566e+01 2.277708e+02
    endloop
  endfacet
  facet normal -5.632242e-01 8.263041e-01 -2.262132e-15
    outer loop
      vertex   -1.282453e+01 1.457566e+01 2.277708e+02
      vertex   -1.052648e+01 1.614206e+01 2.190708e+02
      vertex   -1.282453e+01 1.457566e+01 2.190708e+02
    endloop
  endfacet
  facet normal -6.775330e-01 7.354924e-01 -2.193410e-15
    outer loop
      vertex   -1.282453e+01 1.457566e+01 2.277708e+02
      vertex   -1.282453e+01 1.457566e+01 2.190708e+02
      vertex   -1.487003e+01 1.269136e+01 2.277708e+02
    endloop
  endfacet
  facet normal -6.775330e-01 7.354924e-01 -2.181576e-15
    outer loop
      vertex   -1.487003e+01 1.269136e+01 2.277708e+02
      vertex   -1.282453e+01 1.457566e+01 2.190708e+02
      vertex   -1.487003e+01 1.269136e+01 2.190708e+02
    endloop
  endfacet
  facet normal -7.774013e-01 6.290049e-01 -2.108240e-15
    outer loop
      vertex   -1.487003e+01 1.269136e+01 2.277708e+02
      vertex   -1.487003e+01 1.269136e+01 2.190708e+02
      vertex   -1.661937e+01 1.052931e+01 2.277708e+02
    endloop
  endfacet
  facet normal -7.774013e-01 6.290049e-01 -1.919212e-15
    outer loop
      vertex   -1.661937e+01 1.052931e+01 2.277708e+02
      vertex   -1.487003e+01 1.269136e+01 2.190708e+02
      vertex   -1.661937e+01 1.052931e+01 2.190708e+02
    endloop
  endfacet
  facet normal -8.607007e-01 5.091113e-01 -1.742446e-15
    outer loop
      vertex   -1.661937e+01 1.052931e+01 2.277708e+02
      vertex   -1.661937e+01 1.052931e+01 2.190708e+02
      vertex   -1.803527e+01 8.135598e+00 2.277708e+02
    endloop
  endfacet
  facet normal -8.607007e-01 5.091113e-01 -1.678121e-15
    outer loop
      vertex   -1.803527e+01 8.135598e+00 2.277708e+02
      vertex   -1.661937e+01 1.052931e+01 2.190708e+02
      vertex   -1.803527e+01 8.135598e+00 2.190708e+02
    endloop
  endfacet
  facet normal -9.256557e-01 3.783668e-01 -1.597524e-15
    outer loop
      vertex   -1.803527e+01 8.135598e+00 2.277708e+02
      vertex   -1.803527e+01 8.135598e+00 2.190708e+02
      vertex   -1.908755e+01 5.561237e+00 2.277708e+02
    endloop
  endfacet
  facet normal -9.256557e-01 3.783668e-01 -1.906542e-15
    outer loop
      vertex   -1.908755e+01 5.561237e+00 2.277708e+02
      vertex   -1.803527e+01 8.135598e+00 2.190708e+02
      vertex   -1.908755e+01 5.561237e+00 2.190708e+02
    endloop
  endfacet
  facet normal -9.708820e-01 2.395582e-01 -1.678529e-15
    outer loop
      vertex   -1.908755e+01 5.561237e+00 2.277708e+02
      vertex   -1.908755e+01 5.561237e+00 2.190708e+02
      vertex   -1.975379e+01 2.861096e+00 2.277708e+02
    endloop
  endfacet
  facet normal -9.708820e-01 2.395582e-01 -1.678529e-15
    outer loop
      vertex   -1.975379e+01 2.861096e+00 2.277708e+02
      vertex   -1.908755e+01 5.561237e+00 2.190708e+02
      vertex   -1.975379e+01 2.861096e+00 2.190708e+02
    endloop
  endfacet
  facet normal -9.954156e-01 9.564374e-02 -1.414742e-15
    outer loop
      vertex   -1.975379e+01 2.861096e+00 2.277708e+02
      vertex   -1.975379e+01 2.861096e+00 2.190708e+02
      vertex   -2.001979e+01 9.272448e-02 2.277708e+02
    endloop
  endfacet
  facet normal -9.954156e-01 9.564374e-02 -1.336628e-15
    outer loop
      vertex   -2.001979e+01 9.272448e-02 2.277708e+02
      vertex   -1.975379e+01 2.861096e+00 2.190708e+02
      vertex   -2.001979e+01 9.272448e-02 2.190708e+02
    endloop
  endfacet
  facet normal -9.987337e-01 -5.030918e-02 -1.161890e-15
    outer loop
      vertex   -2.001979e+01 9.272448e-02 2.277708e+02
      vertex   -2.001979e+01 9.272448e-02 2.190708e+02
      vertex   -1.987987e+01 -2.684875e+00 2.277708e+02
    endloop
  endfacet
  facet normal -9.987337e-01 -5.030918e-02 -1.528642e-15
    outer loop
      vertex   -1.987987e+01 -2.684875e+00 2.277708e+02
      vertex   -2.001979e+01 9.272448e-02 2.190708e+02
      vertex   -1.987987e+01 -2.684875e+00 2.190708e+02
    endloop
  endfacet
  facet normal -9.807655e-01 -1.951898e-01 -1.203477e-15
    outer loop
      vertex   -1.987987e+01 -2.684875e+00 2.277708e+02
      vertex   -1.987987e+01 -2.684875e+00 2.190708e+02
      vertex   -1.933703e+01 -5.412503e+00 2.277708e+02
    endloop
  endfacet
  facet normal -9.807655e-01 -1.951898e-01 -1.042095e-15
    outer loop
      vertex   -1.933703e+01 -5.412503e+00 2.277708e+02
      vertex   -1.987987e+01 -2.684875e+00 2.190708e+02
      vertex   -1.933703e+01 -5.412503e+00 2.190708e+02
    endloop
  endfacet
  facet normal -9.418940e-01 -3.359104e-01 -8.795462e-16
    outer loop
      vertex   -1.933703e+01 -5.412503e+00 2.277708e+02
      vertex   -1.933703e+01 -5.412503e+00 2.190708e+02
      vertex   -1.840282e+01 -8.032025e+00 2.277708e+02
    endloop
  endfacet
  facet normal -9.418940e-01 -3.359104e-01 -6.052029e-16
    outer loop
      vertex   -1.840282e+01 -8.032025e+00 2.277708e+02
      vertex   -1.933703e+01 -5.412503e+00 2.190708e+02
      vertex   -1.840282e+01 -8.032025e+00 2.190708e+02
    endloop
  endfacet
  facet normal -8.829476e-01 -4.694716e-01 -3.148262e-16
    outer loop
      vertex   -1.840282e+01 -8.032025e+00 2.277708e+02
      vertex   -1.840282e+01 -8.032025e+00 2.190708e+02
      vertex   -1.709716e+01 -1.048761e+01 2.277708e+02
    endloop
  endfacet
  facet normal -8.829476e-01 -4.694716e-01 6.859865e-17
    outer loop
      vertex   -1.709716e+01 -1.048761e+01 2.277708e+02
      vertex   -1.840282e+01 -8.032025e+00 2.190708e+02
      vertex   -1.709716e+01 -1.048761e+01 2.190708e+02
    endloop
  endfacet
  facet normal -8.051827e-01 -5.930268e-01 4.665948e-16
    outer loop
      vertex   -1.709716e+01 -1.048761e+01 2.277708e+02
      vertex   -1.709716e+01 -1.048761e+01 2.190708e+02
      vertex   -1.544788e+01 -1.272692e+01 2.277708e+02
    endloop
  endfacet
  facet normal -8.051827e-01 -5.930268e-01 -1.821409e-16
    outer loop
      vertex   -1.544788e+01 -1.272692e+01 2.277708e+02
      vertex   -1.709716e+01 -1.048761e+01 2.190708e+02
      vertex   -1.544788e+01 -1.272692e+01 2.190708e+02
    endloop
  endfacet
  facet normal -7.102568e-01 -7.039427e-01 1.347057e-16
    outer loop
      vertex   -1.544788e+01 -1.272692e+01 2.277708e+02
      vertex   -1.544788e+01 -1.272692e+01 2.190708e+02
      vertex   -1.349013e+01 -1.470223e+01 2.277708e+02
    endloop
  endfacet
  facet normal -7.102568e-01 -7.039427e-01 7.096268e-16
    outer loop
      vertex   -1.349013e+01 -1.470223e+01 2.277708e+02
      vertex   -1.544788e+01 -1.272692e+01 2.190708e+02
      vertex   -1.349013e+01 -1.470223e+01 2.190708e+02
    endloop
  endfacet
  facet normal -6.001930e-01 -7.998552e-01 1.101936e-15
    outer loop
      vertex   -1.349013e+01 -1.470223e+01 2.277708e+02
      vertex   -1.349013e+01 -1.470223e+01 2.190708e+02
      vertex   -1.126564e+01 -1.637144e+01 2.277708e+02
    endloop
  endfacet
  facet normal -6.001930e-01 -7.998552e-01 1.224483e-15
    outer loop
      vertex   -1.126564e+01 -1.637144e+01 2.277708e+02
      vertex   -1.349013e+01 -1.470223e+01 2.190708e+02
      vertex   -1.126564e+01 -1.637144e+01 2.190708e+02
    endloop
  endfacet
  facet normal -4.773371e-01 -8.787203e-01 1.568221e-15
    outer loop
      vertex   -1.126564e+01 -1.637144e+01 2.277708e+02
      vertex   -1.126564e+01 -1.637144e+01 2.190708e+02
      vertex   -8.821810e+00 -1.769897e+01 2.277708e+02
    endloop
  endfacet
  facet normal -4.773371e-01 -8.787203e-01 1.373297e-15
    outer loop
      vertex   -8.821810e+00 -1.769897e+01 2.277708e+02
      vertex   -1.126564e+01 -1.637144e+01 2.190708e+02
      vertex   -8.821810e+00 -1.769897e+01 2.190708e+02
    endloop
  endfacet
  facet normal -3.443076e-01 -9.388569e-01 1.737935e-15
    outer loop
      vertex   -8.821810e+00 -1.769897e+01 2.277708e+02
      vertex   -8.821810e+00 -1.769897e+01 2.190708e+02
      vertex   -6.210735e+00 -1.865653e+01 2.277708e+02
    endloop
  endfacet
  facet normal -3.443076e-01 -9.388569e-01 1.737935e-15
    outer loop
      vertex   -6.210735e+00 -1.865653e+01 2.277708e+02
      vertex   -8.821810e+00 -1.769897e+01 2.190708e+02
      vertex   -6.210735e+00 -1.865653e+01 2.190708e+02
    endloop
  endfacet
  facet normal -2.039398e-01 -9.789834e-01 2.065532e-15
    outer loop
      vertex   -6.210735e+00 -1.865653e+01 2.277708e+02
      vertex   -6.210735e+00 -1.865653e+01 2.190708e+02
      vertex   -3.488063e+00 -1.922372e+01 2.277708e+02
    endloop
  endfacet
  facet normal -2.039398e-01 -9.789834e-01 2.107172e-15
    outer loop
      vertex   -3.488063e+00 -1.922372e+01 2.277708e+02
      vertex   -6.210735e+00 -1.865653e+01 2.190708e+02
      vertex   -3.488063e+00 -1.922372e+01 2.190708e+02
    endloop
  endfacet
  facet normal -5.922534e-02 -9.982446e-01 2.361199e-15
    outer loop
      vertex   -3.488063e+00 -1.922372e+01 2.277708e+02
      vertex   -3.488063e+00 -1.922372e+01 2.190708e+02
      vertex   -7.118233e-01 -1.938843e+01 2.277708e+02
    endloop
  endfacet
  facet normal -5.922534e-02 -9.982446e-01 3.188573e-15
    outer loop
      vertex   -7.118233e-01 -1.938843e+01 2.277708e+02
      vertex   -3.488063e+00 -1.922372e+01 2.190708e+02
      vertex   -7.118233e-01 -1.938843e+01 2.190708e+02
    endloop
  endfacet
  facet normal 8.675139e-02 -9.962300e-01 3.360824e-15
    outer loop
      vertex   -7.118233e-01 -1.938843e+01 2.277708e+02
      vertex   -7.118233e-01 -1.938843e+01 2.190708e+02
      vertex   2.058813e+00 -1.914716e+01 2.277708e+02
    endloop
  endfacet
  facet normal 8.675139e-02 -9.962300e-01 2.547187e-15
    outer loop
      vertex   2.058813e+00 -1.914716e+01 2.277708e+02
      vertex   -7.118233e-01 -1.938843e+01 2.190708e+02
      vertex   2.058813e+00 -1.914716e+01 2.190708e+02
    endloop
  endfacet
  facet normal 2.308792e-01 -9.729824e-01 2.666794e-15
    outer loop
      vertex   2.058813e+00 -1.914716e+01 2.277708e+02
      vertex   2.058813e+00 -1.914716e+01 2.190708e+02
      vertex   4.764796e+00 -1.850506e+01 2.277708e+02
    endloop
  endfacet
  facet normal 2.308792e-01 -9.729824e-01 1.077494e-15
    outer loop
      vertex   4.764796e+00 -1.850506e+01 2.277708e+02
      vertex   2.058813e+00 -1.914716e+01 2.190708e+02
      vertex   4.764796e+00 -1.850506e+01 2.190708e+02
    endloop
  endfacet
  facet normal 3.700861e-01 -9.289974e-01 1.212110e-15
    outer loop
      vertex   4.764796e+00 -1.850506e+01 2.277708e+02
      vertex   4.764796e+00 -1.850506e+01 2.190708e+02
      vertex   7.348450e+00 -1.747580e+01 2.277708e+02
    endloop
  endfacet
  facet normal 3.700861e-01 -9.289974e-01 2.578436e-15
    outer loop
      vertex   7.348450e+00 -1.747580e+01 2.277708e+02
      vertex   4.764796e+00 -1.850506e+01 2.190708e+02
      vertex   7.348450e+00 -1.747580e+01 2.190708e+02
    endloop
  endfacet
  facet normal 5.014054e-01 -8.652125e-01 2.529404e-15
    outer loop
      vertex   7.348450e+00 -1.747580e+01 2.277708e+02
      vertex   7.348450e+00 -1.747580e+01 2.190708e+02
      vertex   9.754711e+00 -1.608134e+01 2.277708e+02
    endloop
  endfacet
  facet normal 5.014054e-01 -8.652125e-01 2.027524e-15
    outer loop
      vertex   9.754711e+00 -1.608134e+01 2.277708e+02
      vertex   7.348450e+00 -1.747580e+01 2.190708e+02
      vertex   9.754711e+00 -1.608134e+01 2.190708e+02
    endloop
  endfacet
  facet normal 6.220380e-01 -7.829870e-01 2.040998e-15
    outer loop
      vertex   9.754711e+00 -1.608134e+01 2.277708e+02
      vertex   9.754711e+00 -1.608134e+01 2.190708e+02
      vertex   1.193229e+01 -1.435137e+01 2.277708e+02
    endloop
  endfacet
  facet normal 6.220380e-01 -7.829870e-01 2.680476e-15
    outer loop
      vertex   1.193229e+01 -1.435137e+01 2.277708e+02
      vertex   9.754711e+00 -1.608134e+01 2.190708e+02
      vertex   1.193229e+01 -1.435137e+01 2.190708e+02
    endloop
  endfacet
  facet normal 7.294130e-01 -6.840736e-01 2.569666e-15
    outer loop
      vertex   1.193229e+01 -1.435137e+01 2.277708e+02
      vertex   1.193229e+01 -1.435137e+01 2.190708e+02
      vertex   1.383479e+01 -1.232279e+01 2.277708e+02
    endloop
  endfacet
  facet normal 7.294130e-01 -6.840736e-01 2.308834e-15
    outer loop
      vertex   1.383479e+01 -1.232279e+01 2.277708e+02
      vertex   1.193229e+01 -1.435137e+01 2.190708e+02
      vertex   1.383479e+01 -1.232279e+01 2.190708e+02
    endloop
  endfacet
  facet normal 8.212419e-01 -5.705802e-01 2.273446e-15
    outer loop
      vertex   1.383479e+01 -1.232279e+01 2.277708e+02
      vertex   1.383479e+01 -1.232279e+01 2.190708e+02
      vertex   1.542164e+01 -1.003881e+01 2.277708e+02
    endloop
  endfacet
  facet normal 8.212419e-01 -5.705802e-01 1.938086e-15
    outer loop
      vertex   1.542164e+01 -1.003881e+01 2.277708e+02
      vertex   1.383479e+01 -1.232279e+01 2.190708e+02
      vertex   1.542164e+01 -1.003881e+01 2.190708e+02
    endloop
  endfacet
  facet normal 8.955673e-01 -4.449260e-01 1.823892e-15
    outer loop
      vertex   1.542164e+01 -1.003881e+01 2.277708e+02
      vertex   1.542164e+01 -1.003881e+01 2.190708e+02
      vertex   1.665903e+01 -7.548131e+00 2.277708e+02
    endloop
  endfacet
  facet normal 8.955673e-01 -4.449260e-01 2.189604e-15
    outer loop
      vertex   1.665903e+01 -7.548131e+00 2.277708e+02
      vertex   1.542164e+01 -1.003881e+01 2.190708e+02
      vertex   1.665903e+01 -7.548131e+00 2.190708e+02
    endloop
  endfacet
  facet normal 9.508053e-01 -3.097889e-01 2.059095e-15
    outer loop
      vertex   1.665903e+01 -7.548131e+00 2.277708e+02
      vertex   1.665903e+01 -7.548131e+00 2.190708e+02
      vertex   1.752059e+01 -4.903826e+00 2.277708e+02
    endloop
  endfacet
  facet normal 9.508053e-01 -3.097889e-01 2.312104e-15
    outer loop
      vertex   1.752059e+01 -4.903826e+00 2.277708e+02
      vertex   1.665903e+01 -7.548131e+00 2.190708e+02
      vertex   1.752059e+01 -4.903826e+00 2.190708e+02
    endloop
  endfacet
  facet normal 9.857786e-01 -1.680493e-01 2.021947e-15
    outer loop
      vertex   1.752059e+01 -4.903826e+00 2.277708e+02
      vertex   1.752059e+01 -4.903826e+00 2.190708e+02
      vertex   1.798796e+01 -2.162255e+00 2.277708e+02
    endloop
  endfacet
  facet normal 9.857786e-01 -1.680493e-01 1.953323e-15
    outer loop
      vertex   1.798796e+01 -2.162255e+00 2.277708e+02
      vertex   1.752059e+01 -4.903826e+00 2.190708e+02
      vertex   1.798796e+01 -2.162255e+00 2.190708e+02
    endloop
  endfacet
  facet normal 9.997417e-01 -2.272791e-02 1.679415e-15
    outer loop
      vertex   1.798796e+01 -2.162255e+00 2.277708e+02
      vertex   1.798796e+01 -2.162255e+00 2.190708e+02
      vertex   1.805117e+01 6.181476e-01 2.277708e+02
    endloop
  endfacet
  facet normal 9.997417e-01 -2.272791e-02 1.660853e-15
    outer loop
      vertex   1.805117e+01 6.181476e-01 2.277708e+02
      vertex   1.798796e+01 -2.162255e+00 2.190708e+02
      vertex   1.805117e+01 6.181476e-01 2.190708e+02
    endloop
  endfacet
  facet normal 9.923970e-01 1.230778e-01 1.470233e-15
    outer loop
      vertex   1.805117e+01 6.181476e-01 2.277708e+02
      vertex   1.805117e+01 6.181476e-01 2.190708e+02
      vertex   1.770887e+01 3.378124e+00 2.277708e+02
    endloop
  endfacet
  facet normal 9.923970e-01 1.230778e-01 6.094671e-16
    outer loop
      vertex   1.770887e+01 3.378124e+00 2.277708e+02
      vertex   1.805117e+01 6.181476e-01 2.190708e+02
      vertex   1.770887e+01 3.378124e+00 2.190708e+02
    endloop
  endfacet
  facet normal 9.639011e-01 2.662604e-01 3.523151e-16
    outer loop
      vertex   1.770887e+01 3.378124e+00 2.277708e+02
      vertex   1.770887e+01 3.378124e+00 2.190708e+02
      vertex   1.696837e+01 6.058850e+00 2.277708e+02
    endloop
  endfacet
  facet normal 9.639011e-01 2.662604e-01 1.248278e-15
    outer loop
      vertex   1.696837e+01 6.058850e+00 2.277708e+02
      vertex   1.770887e+01 3.378124e+00 2.190708e+02
      vertex   1.696837e+01 6.058850e+00 2.190708e+02
    endloop
  endfacet
  facet normal -0.000000e+00 -0.000000e+00 -1.000000e+00
    outer loop
      vertex   1.584544e+01 8.603191e+00 2.190708e+02
      vertex   1.696837e+01 6.058850e+00 2.190708e+02
      vertex   1.436402e+01 1.095692e+01 2.190708e+02
    endloop
  endfacet
  facet normal -0.000000e+00 -0.000000e+00 -1.000000e+00
    outer loop
      vertex   1.436402e+01 1.095692e+01 2.190708e+02
      vertex   1.696837e+01 6.058850e+00 2.190708e+02
      vertex   1.255568e+01 1.306987e+01 2.190708e+02
    endloop
  endfacet
  facet normal 0.000000e+00 0.000000e+00 -1.000000e+00
    outer loop
      vertex   1.255568e+01 1.306987e+01 2.190708e+02
      vertex   1.696837e+01 6.058850e+00 2.190708e+02
      vertex   1.770887e+01 3.378124e+00 2.190708e+02
    endloop
  endfacet
  facet normal -0.000000e+00 -0.000000e+00 -1.000000e+00
    outer loop
      vertex   1.255568e+01 1.306987e+01 2.190708e+02
      vertex   1.770887e+01 3.378124e+00 2.190708e+02
      vertex   1.045897e+01 1.489700e+01 2.190708e+02
    endloop
  endfacet
  facet normal -2.037666e-14 -1.282494e-14 -1.000000e+00
    outer loop
      vertex   1.045897e+01 1.489700e+01 2.190708e+02
      vertex   1.770887e+01 3.378124e+00 2.190708e+02
      vertex   1.805117e+01 6.181476e-01 2.190708e+02
    endloop
  endfacet
  facet normal -1.939865e-15 -3.021920e-15 -1.000000e+00
    outer loop
      vertex   1.045897e+01 1.489700e+01 2.190708e+02
      vertex   1.805117e+01 6.181476e-01 2.190708e+02
      vertex   8.118562e+00 1.639938e+01 2.190708e+02
    endloop
  endfacet
  facet normal 2.761703e-15 -6.278395e-17 -1.000000e+00
    outer loop
      vertex   8.118562e+00 1.639938e+01 2.190708e+02
      vertex   1.805117e+01 6.181476e-01 2.190708e+02
      vertex   1.798796e+01 -2.162255e+00 2.190708e+02
    endloop
  endfacet
  facet normal -9.112099e-16 -2.015706e-15 -1.000000e+00
    outer loop
      vertex   8.118562e+00 1.639938e+01 2.190708e+02
      vertex   1.798796e+01 -2.162255e+00 2.190708e+02
      vertex   5.584350e+00 1.754498e+01 2.190708e+02
    endloop
  endfacet
  facet normal 1.476388e-14 7.850094e-15 -1.000000e+00
    outer loop
      vertex   5.584350e+00 1.754498e+01 2.190708e+02
      vertex   1.798796e+01 -2.162255e+00 2.190708e+02
      vertex   1.752059e+01 -4.903826e+00 2.190708e+02
    endloop
  endfacet
  facet normal -0.000000e+00 -0.000000e+00 -1.000000e+00
    outer loop
      vertex   5.584350e+00 1.754498e+01 2.190708e+02
      vertex   1.752059e+01 -4.903826e+00 2.190708e+02
      vertex   2.910343e+00 1.830939e+01 2.190708e+02
    endloop
  endfacet
  facet normal 0.000000e+00 0.000000e+00 -1.000000e+00
    outer loop
      vertex   2.910343e+00 1.830939e+01 2.190708e+02
      vertex   1.752059e+01 -4.903826e+00 2.190708e+02
      vertex   1.665903e+01 -7.548131e+00 2.190708e+02
    endloop
  endfacet
  facet normal -0.000000e+00 -0.000000e+00 -1.000000e+00
    outer loop
      vertex   2.910343e+00 1.830939e+01 2.190708e+02
      vertex   1.665903e+01 -7.548131e+00 2.190708e+02
      vertex   1.535324e-01 1.867632e+01 2.190708e+02
    endloop
  endfacet
  facet normal -2.026495e-14 -1.275463e-14 -1.000000e+00
    outer loop
      vertex   1.535324e-01 1.867632e+01 2.190708e+02
      vertex   1.665903e+01 -7.548131e+00 2.190708e+02
      vertex   1.542164e+01 -1.003881e+01 2.190708e+02
    endloop
  endfacet
  facet normal 2.712124e-17 -1.965143e-15 -1.000000e+00
    outer loop
      vertex   1.535324e-01 1.867632e+01 2.190708e+02
      vertex   1.542164e+01 -1.003881e+01 2.190708e+02
      vertex   -2.627324e+00 1.863794e+01 2.190708e+02
    endloop
  endfacet
  facet normal 1.496946e-15 -1.040044e-15 -1.000000e+00
    outer loop
      vertex   -2.627324e+00 1.863794e+01 2.190708e+02
      vertex   1.542164e+01 -1.003881e+01 2.190708e+02
      vertex   1.383479e+01 -1.232279e+01 2.190708e+02
    endloop
  endfacet
  facet normal 2.727492e-16 -1.690961e-15 -1.000000e+00
    outer loop
      vertex   -2.627324e+00 1.863794e+01 2.190708e+02
      vertex   1.383479e+01 -1.232279e+01 2.190708e+02
      vertex   -5.372958e+00 1.819507e+01 2.190708e+02
    endloop
  endfacet
  facet normal 1.188481e-15 -1.114606e-15 -1.000000e+00
    outer loop
      vertex   -5.372958e+00 1.819507e+01 2.190708e+02
      vertex   1.383479e+01 -1.232279e+01 2.190708e+02
      vertex   1.193229e+01 -1.435137e+01 2.190708e+02
    endloop
  endfacet
  facet normal 4.724720e-16 -1.495315e-15 -1.000000e+00
    outer loop
      vertex   -5.372958e+00 1.819507e+01 2.190708e+02
      vertex   1.193229e+01 -1.435137e+01 2.190708e+02
      vertex   -8.024851e+00 1.735716e+01 2.190708e+02
    endloop
  endfacet
  facet normal 9.494461e-16 -1.195110e-15 -1.000000e+00
    outer loop
      vertex   -8.024851e+00 1.735716e+01 2.190708e+02
      vertex   1.193229e+01 -1.435137e+01 2.190708e+02
      vertex   9.754711e+00 -1.608134e+01 2.190708e+02
    endloop
  endfacet
  facet normal 6.562231e-16 -1.351020e-15 -1.000000e+00
    outer loop
      vertex   -8.024851e+00 1.735716e+01 2.190708e+02
      vertex   9.754711e+00 -1.608134e+01 2.190708e+02
      vertex   -1.052648e+01 1.614206e+01 2.190708e+02
    endloop
  endfacet
  facet normal 7.490726e-16 -1.292581e-15 -1.000000e+00
    outer loop
      vertex   -1.052648e+01 1.614206e+01 2.190708e+02
      vertex   9.754711e+00 -1.608134e+01 2.190708e+02
      vertex   7.348450e+00 -1.747580e+01 2.190708e+02
    endloop
  endfacet
  facet normal 8.459400e-16 -1.241075e-15 -1.000000e+00
    outer loop
      vertex   -1.052648e+01 1.614206e+01 2.190708e+02
      vertex   7.348450e+00 -1.747580e+01 2.190708e+02
      vertex   -1.282453e+01 1.457566e+01 2.190708e+02
    endloop
  endfacet
  facet normal 5.648800e-16 -1.417973e-15 -1.000000e+00
    outer loop
      vertex   -1.282453e+01 1.457566e+01 2.190708e+02
      vertex   7.348450e+00 -1.747580e+01 2.190708e+02
      vertex   4.764796e+00 -1.850506e+01 2.190708e+02
    endloop
  endfacet
  facet normal 1.062495e-15 -1.153386e-15 -1.000000e+00
    outer loop
      vertex   -1.282453e+01 1.457566e+01 2.190708e+02
      vertex   4.764796e+00 -1.850506e+01 2.190708e+02
      vertex   -1.487003e+01 1.269136e+01 2.190708e+02
    endloop
  endfacet
  facet normal 3.761866e-16 -1.585344e-15 -1.000000e+00
    outer loop
      vertex   -1.487003e+01 1.269136e+01 2.190708e+02
      vertex   4.764796e+00 -1.850506e+01 2.190708e+02
      vertex   2.058813e+00 -1.914716e+01 2.190708e+02
    endloop
  endfacet
  facet normal 1.331546e-15 -1.077370e-15 -1.000000e+00
    outer loop
      vertex   -1.487003e+01 1.269136e+01 2.190708e+02
      vertex   2.058813e+00 -1.914716e+01 2.190708e+02
      vertex   -1.661937e+01 1.052931e+01 2.190708e+02
    endloop
  endfacet
  facet normal 1.581290e-16 -1.815912e-15 -1.000000e+00
    outer loop
      vertex   -1.661937e+01 1.052931e+01 2.190708e+02
      vertex   2.058813e+00 -1.914716e+01 2.190708e+02
      vertex   -7.118233e-01 -1.938843e+01 2.190708e+02
    endloop
  endfacet
  facet normal 1.691561e-15 -1.000572e-15 -1.000000e+00
    outer loop
      vertex   -1.661937e+01 1.052931e+01 2.190708e+02
      vertex   -7.118233e-01 -1.938843e+01 2.190708e+02
      vertex   -1.803527e+01 8.135598e+00 2.190708e+02
    endloop
  endfacet
  facet normal -1.272819e-16 -2.145339e-15 -1.000000e+00
    outer loop
      vertex   -1.803527e+01 8.135598e+00 2.190708e+02
      vertex   -7.118233e-01 -1.938843e+01 2.190708e+02
      vertex   -3.488063e+00 -1.922372e+01 2.190708e+02
    endloop
  endfacet
  facet normal 2.209187e-15 -9.030171e-16 -1.000000e+00
    outer loop
      vertex   -1.803527e+01 8.135598e+00 2.190708e+02
      vertex   -3.488063e+00 -1.922372e+01 2.190708e+02
      vertex   -1.908755e+01 5.561237e+00 2.190708e+02
    endloop
  endfacet
  facet normal 1.146426e-14 4.922065e-15 -1.000000e+00
    outer loop
      vertex   -1.908755e+01 5.561237e+00 2.190708e+02
      vertex   -3.488063e+00 -1.922372e+01 2.190708e+02
      vertex   -6.210735e+00 -1.865653e+01 2.190708e+02
    endloop
  endfacet
  facet normal 1.507593e-15 -3.719877e-16 -1.000000e+00
    outer loop
      vertex   -1.908755e+01 5.561237e+00 2.190708e+02
      vertex   -6.210735e+00 -1.865653e+01 2.190708e+02
      vertex   -1.975379e+01 2.861096e+00 2.190708e+02
    endloop
  endfacet
  facet normal -6.297581e-16 -1.717223e-15 -1.000000e+00
    outer loop
      vertex   -1.975379e+01 2.861096e+00 2.190708e+02
      vertex   -6.210735e+00 -1.865653e+01 2.190708e+02
      vertex   -8.821810e+00 -1.769897e+01 2.190708e+02
    endloop
  endfacet
  facet normal 2.201956e-15 -2.115733e-16 -1.000000e+00
    outer loop
      vertex   -1.975379e+01 2.861096e+00 2.190708e+02
      vertex   -8.821810e+00 -1.769897e+01 2.190708e+02
      vertex   -2.001979e+01 9.272448e-02 2.190708e+02
    endloop
  endfacet
  facet normal -1.318604e-15 -2.427391e-15 -1.000000e+00
    outer loop
      vertex   -2.001979e+01 9.272448e-02 2.190708e+02
      vertex   -8.821810e+00 -1.769897e+01 2.190708e+02
      vertex   -1.126564e+01 -1.637144e+01 2.190708e+02
    endloop
  endfacet
  facet normal 3.586425e-15 1.806589e-16 -1.000000e+00
    outer loop
      vertex   -2.001979e+01 9.272448e-02 2.190708e+02
      vertex   -1.126564e+01 -1.637144e+01 2.190708e+02
      vertex   -1.987987e+01 -2.684875e+00 2.190708e+02
    endloop
  endfacet
  facet normal 2.125846e-14 1.130332e-14 -1.000000e+00
    outer loop
      vertex   -1.987987e+01 -2.684875e+00 2.190708e+02
      vertex   -1.126564e+01 -1.637144e+01 2.190708e+02
      vertex   -1.349013e+01 -1.470223e+01 2.190708e+02
    endloop
  endfacet
  facet normal 0.000000e+00 0.000000e+00 -1.000000e+00
    outer loop
      vertex   -1.987987e+01 -2.684875e+00 2.190708e+02
      vertex   -1.349013e+01 -1.470223e+01 2.190708e+02
      vertex   -1.933703e+01 -5.412503e+00 2.190708e+02
    endloop
  endfacet
  facet normal 0.000000e+00 0.000000e+00 -1.000000e+00
    outer loop
      vertex   -1.933703e+01 -5.412503e+00 2.190708e+02
      vertex   -1.349013e+01 -1.470223e+01 2.190708e+02
      vertex   -1.544788e+01 -1.272692e+01 2.190708e+02
    endloop
  endfacet
  facet normal 0.000000e+00 0.000000e+00 -1.000000e+00
    outer loop
      vertex   -1.933703e+01 -5.412503e+00 2.190708e+02
      vertex   -1.544788e+01 -1.272692e+01 2.190708e+02
      vertex   -1.840282e+01 -8.032025e+00 2.190708e+02
    endloop
  endfacet
  facet normal 0.000000e+00 0.000000e+00 -1.000000e+00
    outer loop
      vertex   -1.840282e+01 -8.032025e+00 2.190708e+02
      vertex   -1.544788e+01 -1.272692e+01 2.190708e+02
      vertex   -1.709716e+01 -1.048761e+01 2.190708e+02
    endloop
  endfacet
endsolid
