solid GASLens
  facet normal -9.575714e-01 -2.881963e-01 -2.126358e-16
    outer loop
      vertex   -9.206730e+00 -1.132896e+00 2.282708e+02
      vertex   -9.206730e+00 -1.132896e+00 2.192708e+02
      vertex   -8.276769e+00 -4.222816e+00 2.282708e+02
    endloop
  endfacet
  facet normal -9.575714e-01 -2.881963e-01 -1.652682e-17
    outer loop
      vertex   -8.276769e+00 -4.222816e+00 2.282708e+02
      vertex   -9.206730e+00 -1.132896e+00 2.192708e+02
      vertex   -8.276769e+00 -4.222816e+00 2.192708e+02
    endloop
  endfacet
  facet normal -7.743926e-01 -6.327053e-01 1.012049e-15
    outer loop
      vertex   -8.276769e+00 -4.222816e+00 2.282708e+02
      vertex   -8.276769e+00 -4.222816e+00 2.192708e+02
      vertex   -6.235136e+00 -6.721649e+00 2.282708e+02
    endloop
  endfacet
  facet normal -7.743926e-01 -6.327053e-01 1.012049e-15
    outer loop
      vertex   -6.235136e+00 -6.721649e+00 2.282708e+02
      vertex   -8.276769e+00 -4.222816e+00 2.192708e+02
      vertex   -6.235136e+00 -6.721649e+00 2.192708e+02
    endloop
  endfacet
  facet normal -4.733197e-01 -8.808907e-01 1.886550e-15
    outer loop
      vertex   -6.235136e+00 -6.721649e+00 2.282708e+02
      vertex   -6.235136e+00 -6.721649e+00 2.192708e+02
      vertex   -3.392652e+00 -8.248972e+00 2.282708e+02
    endloop
  endfacet
  facet normal -4.733197e-01 -8.808907e-01 1.689331e-15
    outer loop
      vertex   -3.392652e+00 -8.248972e+00 2.282708e+02
      vertex   -6.235136e+00 -6.721649e+00 2.192708e+02
      vertex   -3.392652e+00 -8.248972e+00 2.192708e+02
    endloop
  endfacet
  facet normal -1.001881e-01 -9.949685e-01 2.272518e-15
    outer loop
      vertex   -3.392652e+00 -8.248972e+00 2.282708e+02
      vertex   -3.392652e+00 -8.248972e+00 2.192708e+02
      vertex   -1.820569e-01 -8.572262e+00 2.282708e+02
    endloop
  endfacet
  facet normal -1.001881e-01 -9.949685e-01 2.466426e-15
    outer loop
      vertex   -1.820569e-01 -8.572262e+00 2.282708e+02
      vertex   -3.392652e+00 -8.248972e+00 2.192708e+02
      vertex   -1.820569e-01 -8.572262e+00 2.192708e+02
    endloop
  endfacet
  facet normal 2.881963e-01 -9.575714e-01 2.705843e-15
    outer loop
      vertex   -1.820569e-01 -8.572262e+00 2.282708e+02
      vertex   -1.820569e-01 -8.572262e+00 2.192708e+02
      vertex   2.907863e+00 -7.642301e+00 2.282708e+02
    endloop
  endfacet
  facet normal 2.881963e-01 -9.575714e-01 2.712953e-15
    outer loop
      vertex   2.907863e+00 -7.642301e+00 2.282708e+02
      vertex   -1.820569e-01 -8.572262e+00 2.192708e+02
      vertex   2.907863e+00 -7.642301e+00 2.192708e+02
    endloop
  endfacet
  facet normal 6.327053e-01 -7.743926e-01 2.548930e-15
    outer loop
      vertex   2.907863e+00 -7.642301e+00 2.282708e+02
      vertex   2.907863e+00 -7.642301e+00 2.192708e+02
      vertex   5.406697e+00 -5.600668e+00 2.282708e+02
    endloop
  endfacet
  facet normal 6.327053e-01 -7.743926e-01 2.486490e-15
    outer loop
      vertex   5.406697e+00 -5.600668e+00 2.282708e+02
      vertex   2.907863e+00 -7.642301e+00 2.192708e+02
      vertex   5.406697e+00 -5.600668e+00 2.192708e+02
    endloop
  endfacet
  facet normal 8.808907e-01 -4.733197e-01 1.909923e-15
    outer loop
      vertex   5.406697e+00 -5.600668e+00 2.282708e+02
      vertex   5.406697e+00 -5.600668e+00 2.192708e+02
      vertex   6.934019e+00 -2.758184e+00 2.282708e+02
    endloop
  endfacet
  facet normal 8.808907e-01 -4.733197e-01 1.973500e-15
    outer loop
      vertex   6.934019e+00 -2.758184e+00 2.282708e+02
      vertex   5.406697e+00 -5.600668e+00 2.192708e+02
      vertex   6.934019e+00 -2.758184e+00 2.192708e+02
    endloop
  endfacet
  facet normal 9.949685e-01 -1.001881e-01 1.135833e-15
    outer loop
      vertex   6.934019e+00 -2.758184e+00 2.282708e+02
      vertex   6.934019e+00 -2.758184e+00 2.192708e+02
      vertex   7.257309e+00 4.524111e-01 2.282708e+02
    endloop
  endfacet
  facet normal 9.949685e-01 -1.001881e-01 1.038879e-15
    outer loop
      vertex   7.257309e+00 4.524111e-01 2.282708e+02
      vertex   6.934019e+00 -2.758184e+00 2.192708e+02
      vertex   7.257309e+00 4.524111e-01 2.192708e+02
    endloop
  endfacet
  facet normal 9.575714e-01 2.881963e-01 2.719223e-17
    outer loop
      vertex   7.257309e+00 4.524111e-01 2.282708e+02
      vertex   7.257309e+00 4.524111e-01 2.192708e+02
      vertex   6.327349e+00 3.542331e+00 2.282708e+02
    endloop
  endfacet
  facet normal 9.575714e-01 2.881963e-01 1.110262e-16
    outer loop
      vertex   6.327349e+00 3.542331e+00 2.282708e+02
      vertex   7.257309e+00 4.524111e-01 2.192708e+02
      vertex   6.327349e+00 3.542331e+00 2.192708e+02
    endloop
  endfacet
  facet normal 7.743926e-01 6.327053e-01 -9.356274e-16
    outer loop
      vertex   6.327349e+00 3.542331e+00 2.282708e+02
      vertex   6.327349e+00 3.542331e+00 2.192708e+02
      vertex   4.285716e+00 6.041165e+00 2.282708e+02
    endloop
  endfacet
  facet normal 7.743926e-01 6.327053e-01 -9.356274e-16
    outer loop
      vertex   4.285716e+00 6.041165e+00 2.282708e+02
      vertex   6.327349e+00 3.542331e+00 2.192708e+02
      vertex   4.285716e+00 6.041165e+00 2.192708e+02
    endloop
  endfacet
  facet normal 4.733197e-01 8.808907e-01 -1.839840e-15
    outer loop
      vertex   4.285716e+00 6.041165e+00 2.282708e+02
      vertex   4.285716e+00 6.041165e+00 2.192708e+02
      vertex   1.443231e+00 7.568487e+00 2.282708e+02
    endloop
  endfacet
  facet normal 4.733197e-01 8.808907e-01 -1.938450e-15
    outer loop
      vertex   1.443231e+00 7.568487e+00 2.282708e+02
      vertex   4.285716e+00 6.041165e+00 2.192708e+02
      vertex   1.443231e+00 7.568487e+00 2.192708e+02
    endloop
  endfacet
  facet normal 1.001881e-01 9.949685e-01 -2.564616e-15
    outer loop
      vertex   1.443231e+00 7.568487e+00 2.282708e+02
      vertex   1.443231e+00 7.568487e+00 2.192708e+02
      vertex   -1.767364e+00 7.891777e+00 2.282708e+02
    endloop
  endfacet
  facet normal 1.001881e-01 9.949685e-01 -2.368236e-15
    outer loop
      vertex   -1.767364e+00 7.891777e+00 2.282708e+02
      vertex   1.443231e+00 7.568487e+00 2.192708e+02
      vertex   -1.767364e+00 7.891777e+00 2.192708e+02
    endloop
  endfacet
  facet normal -2.881963e-01 9.575714e-01 -2.611343e-15
    outer loop
      vertex   -1.767364e+00 7.891777e+00 2.282708e+02
      vertex   -1.767364e+00 7.891777e+00 2.192708e+02
      vertex   -4.857284e+00 6.961817e+00 2.282708e+02
    endloop
  endfacet
  facet normal -2.881963e-01 9.575714e-01 -2.807452e-15
    outer loop
      vertex   -4.857284e+00 6.961817e+00 2.282708e+02
      vertex   -1.767364e+00 7.891777e+00 2.192708e+02
      vertex   -4.857284e+00 6.961817e+00 2.192708e+02
    endloop
  endfacet
  facet normal -6.327053e-01 7.743926e-01 -2.625352e-15
    outer loop
      vertex   -4.857284e+00 6.961817e+00 2.282708e+02
      vertex   -4.857284e+00 6.961817e+00 2.192708e+02
      vertex   -7.356117e+00 4.920184e+00 2.282708e+02
    endloop
  endfacet
  facet normal -6.327053e-01 7.743926e-01 -2.534947e-15
    outer loop
      vertex   -7.356117e+00 4.920184e+00 2.282708e+02
      vertex   -4.857284e+00 6.961817e+00 2.192708e+02
      vertex   -7.356117e+00 4.920184e+00 2.192708e+02
    endloop
  endfacet
  facet normal -8.808907e-01 4.733197e-01 -2.037077e-15
    outer loop
      vertex   -7.356117e+00 4.920184e+00 2.282708e+02
      vertex   -7.356117e+00 4.920184e+00 2.192708e+02
      vertex   -8.883440e+00 2.077699e+00 2.282708e+02
    endloop
  endfacet
  facet normal -8.808907e-01 4.733197e-01 -1.886568e-15
    outer loop
      vertex   -8.883440e+00 2.077699e+00 2.282708e+02
      vertex   -7.356117e+00 4.920184e+00 2.192708e+02
      vertex   -8.883440e+00 2.077699e+00 2.192708e+02
    endloop
  endfacet
  facet normal -9.949685e-01 1.001881e-01 -1.037643e-15
    outer loop
      vertex   -8.883440e+00 2.077699e+00 2.282708e+02
      vertex   -8.883440e+00 2.077699e+00 2.192708e+02
      vertex   -9.206730e+00 -1.132896e+00 2.282708e+02
    endloop
  endfacet
  facet normal -9.949685e-01 1.001881e-01 -1.236495e-15
    outer loop
      vertex   -9.206730e+00 -1.132896e+00 2.282708e+02
      vertex   -8.883440e+00 2.077699e+00 2.192708e+02
      vertex   -9.206730e+00 -1.132896e+00 2.192708e+02
    endloop
  endfacet
  facet normal 0.000000e+00 -0.000000e+00 1.000000e+00
    outer loop
      vertex   -6.235136e+00 -6.721649e+00 2.282708e+02
      vertex   7.257309e+00 4.524111e-01 2.282708e+02
      vertex   -8.276769e+00 -4.222816e+00 2.282708e+02
    endloop
  endfacet
  facet normal 0.000000e+00 0.000000e+00 1.000000e+00
    outer loop
      vertex   -8.276769e+00 -4.222816e+00 2.282708e+02
      vertex   7.257309e+00 4.524111e-01 2.282708e+02
      vertex   6.327349e+00 3.542331e+00 2.282708e+02
    endloop
  endfacet
  facet normal 0.000000e+00 -0.000000e+00 1.000000e+00
    outer loop
      vertex   -8.276769e+00 -4.222816e+00 2.282708e+02
      vertex   6.327349e+00 3.542331e+00 2.282708e+02
      vertex   -9.206730e+00 -1.132896e+00 2.282708e+02
    endloop
  endfacet
  facet normal 0.000000e+00 0.000000e+00 1.000000e+00
    outer loop
      vertex   -9.206730e+00 -1.132896e+00 2.282708e+02
      vertex   6.327349e+00 3.542331e+00 2.282708e+02
      vertex   4.285716e+00 6.041165e+00 2.282708e+02
    endloop
  endfacet
  facet normal 0.000000e+00 0.000000e+00 1.000000e+00
    outer loop
      vertex   -9.206730e+00 -1.132896e+00 2.282708e+02
      vertex   4.285716e+00 6.041165e+00 2.282708e+02
      vertex   -8.883440e+00 2.077699e+00 2.282708e+02
    endloop
  endfacet
  facet normal 0.000000e+00 0.000000e+00 1.000000e+00
    outer loop
      vertex   -8.883440e+00 2.077699e+00 2.282708e+02
      vertex   4.285716e+00 6.041165e+00 2.282708e+02
      vertex   1.443231e+00 7.568487e+00 2.282708e+02
    endloop
  endfacet
  facet normal -1.488588e-14 2.799626e-14 1.000000e+00
    outer loop
      vertex   -8.883440e+00 2.077699e+00 2.282708e+02
      vertex   1.443231e+00 7.568487e+00 2.282708e+02
      vertex   -7.356117e+00 4.920184e+00 2.282708e+02
    endloop
  endfacet
  facet normal -1.488588e-14 2.799626e-14 1.000000e+00
    outer loop
      vertex   -7.356117e+00 4.920184e+00 2.282708e+02
      vertex   1.443231e+00 7.568487e+00 2.282708e+02
      vertex   -1.767364e+00 7.891777e+00 2.282708e+02
    endloop
  endfacet
  facet normal 0.000000e+00 0.000000e+00 1.000000e+00
    outer loop
      vertex   -7.356117e+00 4.920184e+00 2.282708e+02
      vertex   -1.767364e+00 7.891777e+00 2.282708e+02
      vertex   -4.857284e+00 6.961817e+00 2.282708e+02
    endloop
  endfacet
  facet normal 0.000000e+00 0.000000e+00 1.000000e+00
    outer loop
      vertex   7.257309e+00 4.524111e-01 2.282708e+02
      vertex   -6.235136e+00 -6.721649e+00 2.282708e+02
      vertex   6.934019e+00 -2.758184e+00 2.282708e+02
    endloop
  endfacet
  facet normal 0.000000e+00 0.000000e+00 1.000000e+00
    outer loop
      vertex   6.934019e+00 -2.758184e+00 2.282708e+02
      vertex   -6.235136e+00 -6.721649e+00 2.282708e+02
      vertex   -3.392652e+00 -8.248972e+00 2.282708e+02
    endloop
  endfacet
  facet normal -7.442938e-15 1.399813e-14 1.000000e+00
    outer loop
      vertex   6.934019e+00 -2.758184e+00 2.282708e+02
      vertex   -3.392652e+00 -8.248972e+00 2.282708e+02
      vertex   5.406697e+00 -5.600668e+00 2.282708e+02
    endloop
  endfacet
  facet normal -7.442938e-15 1.399813e-14 1.000000e+00
    outer loop
      vertex   5.406697e+00 -5.600668e+00 2.282708e+02
      vertex   -3.392652e+00 -8.248972e+00 2.282708e+02
      vertex   -1.820569e-01 -8.572262e+00 2.282708e+02
    endloop
  endfacet
  facet normal 0.000000e+00 0.000000e+00 1.000000e+00
    outer loop
      vertex   5.406697e+00 -5.600668e+00 2.282708e+02
      vertex   -1.820569e-01 -8.572262e+00 2.282708e+02
      vertex   2.907863e+00 -7.642301e+00 2.282708e+02
    endloop
  endfacet
  facet normal 0.000000e+00 0.000000e+00 -1.000000e+00
    outer loop
      vertex   -9.206730e+00 -1.132896e+00 2.192708e+02
      vertex   4.285716e+00 6.041165e+00 2.192708e+02
      vertex   -8.276769e+00 -4.222816e+00 2.192708e+02
    endloop
  endfacet
  facet normal 0.000000e+00 0.000000e+00 -1.000000e+00
    outer loop
      vertex   -8.276769e+00 -4.222816e+00 2.192708e+02
      vertex   4.285716e+00 6.041165e+00 2.192708e+02
      vertex   6.327349e+00 3.542331e+00 2.192708e+02
    endloop
  endfacet
  facet normal 0.000000e+00 0.000000e+00 -1.000000e+00
    outer loop
      vertex   -8.276769e+00 -4.222816e+00 2.192708e+02
      vertex   6.327349e+00 3.542331e+00 2.192708e+02
      vertex   -6.235136e+00 -6.721649e+00 2.192708e+02
    endloop
  endfacet
  facet normal 0.000000e+00 0.000000e+00 -1.000000e+00
    outer loop
      vertex   -6.235136e+00 -6.721649e+00 2.192708e+02
      vertex   6.327349e+00 3.542331e+00 2.192708e+02
      vertex   7.257309e+00 4.524111e-01 2.192708e+02
    endloop
  endfacet
  facet normal 0.000000e+00 0.000000e+00 -1.000000e+00
    outer loop
      vertex   -6.235136e+00 -6.721649e+00 2.192708e+02
      vertex   7.257309e+00 4.524111e-01 2.192708e+02
      vertex   -3.392652e+00 -8.248972e+00 2.192708e+02
    endloop
  endfacet
  facet normal 0.000000e+00 0.000000e+00 -1.000000e+00
    outer loop
      vertex   -3.392652e+00 -8.248972e+00 2.192708e+02
      vertex   7.257309e+00 4.524111e-01 2.192708e+02
      vertex   6.934019e+00 -2.758184e+00 2.192708e+02
    endloop
  endfacet
  facet normal 7.442938e-15 -1.399813e-14 -1.000000e+00
    outer loop
      vertex   -3.392652e+00 -8.248972e+00 2.192708e+02
      vertex   6.934019e+00 -2.758184e+00 2.192708e+02
      vertex   -1.820569e-01 -8.572262e+00 2.192708e+02
    endloop
  endfacet
  facet normal 7.442938e-15 -1.399813e-14 -1.000000e+00
    outer loop
      vertex   -1.820569e-01 -8.572262e+00 2.192708e+02
      vertex   6.934019e+00 -2.758184e+00 2.192708e+02
      vertex   5.406697e+00 -5.600668e+00 2.192708e+02
    endloop
  endfacet
  facet normal 0.000000e+00 0.000000e+00 -1.000000e+00
    outer loop
      vertex   -1.820569e-01 -8.572262e+00 2.192708e+02
      vertex   5.406697e+00 -5.600668e+00 2.192708e+02
      vertex   2.907863e+00 -7.642301e+00 2.192708e+02
    endloop
  endfacet
  facet normal -0.000000e+00 0.000000e+00 -1.000000e+00
    outer loop
      vertex   4.285716e+00 6.041165e+00 2.192708e+02
      vertex   -9.206730e+00 -1.132896e+00 2.192708e+02
      vertex   1.443231e+00 7.568487e+00 2.192708e+02
    endloop
  endfacet
  facet normal 0.000000e+00 0.000000e+00 -1.000000e+00
    outer loop
      vertex   1.443231e+00 7.568487e+00 2.192708e+02
      vertex   -9.206730e+00 -1.132896e+00 2.192708e+02
      vertex   -8.883440e+00 2.077699e+00 2.192708e+02
    endloop
  endfacet
  facet normal 7.442938e-15 -1.399813e-14 -1.000000e+00
    outer loop
      vertex   1.443231e+00 7.568487e+00 2.192708e+02
      vertex   -8.883440e+00 2.077699e+00 2.192708e+02
      vertex   -1.767364e+00 7.891777e+00 2.192708e+02
    endloop
  endfacet
  facet normal 7.442938e-15 -1.399813e-14 -1.000000e+00
    outer loop
      vertex   -1.767364e+00 7.891777e+00 2.192708e+02
      vertex   -8.883440e+00 2.077699e+00 2.192708e+02
      vertex   -7.356117e+00 4.920184e+00 2.192708e+02
    endloop
  endfacet
  facet normal 0.000000e+00 0.000000e+00 -1.000000e+00
    outer loop
      vertex   -1.767364e+00 7.891777e+00 2.192708e+02
      vertex   -7.356117e+00 4.920184e+00 2.192708e+02
      vertex   -4.857284e+00 6.961817e+00 2.192708e+02
    endloop
  endfacet
endsolid
