solid MgF2Window
  facet normal 8.592348e-01 5.115815e-01 9.603429e-15
    outer loop
      vertex   5.771914e+00 4.133496e+00 -2.367212e+02
      vertex   5.771914e+00 4.133496e+00 -2.307212e+02
      vertex   6.172811e+00 3.460162e+00 -2.367212e+02
    endloop
  endfacet
  facet normal 8.592348e-01 5.115815e-01 9.565565e-15
    outer loop
      vertex   6.172811e+00 3.460162e+00 -2.367212e+02
      vertex   5.771914e+00 4.133496e+00 -2.307212e+02
      vertex   6.172811e+00 3.460162e+00 -2.307212e+02
    endloop
  endfacet
  facet normal 9.045983e-01 4.262651e-01 9.729717e-15
    outer loop
      vertex   6.172811e+00 3.460162e+00 -2.367212e+02
      vertex   6.172811e+00 3.460162e+00 -2.307212e+02
      vertex   6.506851e+00 2.751280e+00 -2.367212e+02
    endloop
  endfacet
  facet normal 9.045983e-01 4.262651e-01 9.595810e-15
    outer loop
      vertex   6.506851e+00 2.751280e+00 -2.367212e+02
      vertex   6.172811e+00 3.460162e+00 -2.307212e+02
      vertex   6.506851e+00 2.751280e+00 -2.307212e+02
    endloop
  endfacet
  facet normal 9.415158e-01 3.369689e-01 9.663654e-15
    outer loop
      vertex   6.506851e+00 2.751280e+00 -2.367212e+02
      vertex   6.506851e+00 2.751280e+00 -2.307212e+02
      vertex   6.770914e+00 2.013468e+00 -2.367212e+02
    endloop
  endfacet
  facet normal 9.415158e-01 3.369689e-01 9.827967e-15
    outer loop
      vertex   6.770914e+00 2.013468e+00 -2.367212e+02
      vertex   6.506851e+00 2.751280e+00 -2.307212e+02
      vertex   6.770914e+00 2.013468e+00 -2.307212e+02
    endloop
  endfacet
  facet normal 9.696426e-01 2.445264e-01 9.802905e-15
    outer loop
      vertex   6.770914e+00 2.013468e+00 -2.367212e+02
      vertex   6.770914e+00 2.013468e+00 -2.307212e+02
      vertex   6.962535e+00 1.253614e+00 -2.367212e+02
    endloop
  endfacet
  facet normal 9.696426e-01 2.445264e-01 9.641271e-15
    outer loop
      vertex   6.962535e+00 1.253614e+00 -2.367212e+02
      vertex   6.770914e+00 2.013468e+00 -2.307212e+02
      vertex   6.962535e+00 1.253614e+00 -2.307212e+02
    endloop
  endfacet
  facet normal 9.887162e-01 1.498008e-01 9.528870e-15
    outer loop
      vertex   6.962535e+00 1.253614e+00 -2.367212e+02
      vertex   6.962535e+00 1.253614e+00 -2.307212e+02
      vertex   7.079926e+00 4.788136e-01 -2.367212e+02
    endloop
  endfacet
  facet normal 9.887162e-01 1.498008e-01 9.824360e-15
    outer loop
      vertex   7.079926e+00 4.788136e-01 -2.367212e+02
      vertex   6.962535e+00 1.253614e+00 -2.307212e+02
      vertex   7.079926e+00 4.788136e-01 -2.307212e+02
    endloop
  endfacet
  facet normal 9.985584e-01 5.367663e-02 9.624126e-15
    outer loop
      vertex   7.079926e+00 4.788136e-01 -2.367212e+02
      vertex   7.079926e+00 4.788136e-01 -2.307212e+02
      vertex   7.121989e+00 -3.036997e-01 -2.367212e+02
    endloop
  endfacet
  facet normal 9.985584e-01 5.367663e-02 9.328493e-15
    outer loop
      vertex   7.121989e+00 -3.036997e-01 -2.367212e+02
      vertex   7.079926e+00 4.788136e-01 -2.307212e+02
      vertex   7.121989e+00 -3.036997e-01 -2.307212e+02
    endloop
  endfacet
  facet normal 9.990773e-01 -4.294874e-02 9.038248e-15
    outer loop
      vertex   7.121989e+00 -3.036997e-01 -2.367212e+02
      vertex   7.121989e+00 -3.036997e-01 -2.307212e+02
      vertex   7.088333e+00 -1.086620e+00 -2.367212e+02
    endloop
  endfacet
  facet normal 9.990773e-01 -4.294874e-02 9.039042e-15
    outer loop
      vertex   7.088333e+00 -1.086620e+00 -2.367212e+02
      vertex   7.121989e+00 -3.036997e-01 -2.307212e+02
      vertex   7.088333e+00 -1.086620e+00 -2.307212e+02
    endloop
  endfacet
  facet normal 9.902681e-01 -1.391731e-01 8.666189e-15
    outer loop
      vertex   7.088333e+00 -1.086620e+00 -2.367212e+02
      vertex   7.088333e+00 -1.086620e+00 -2.307212e+02
      vertex   6.979271e+00 -1.862636e+00 -2.367212e+02
    endloop
  endfacet
  facet normal 9.902681e-01 -1.391731e-01 8.661039e-15
    outer loop
      vertex   6.979271e+00 -1.862636e+00 -2.367212e+02
      vertex   7.088333e+00 -1.086620e+00 -2.307212e+02
      vertex   6.979271e+00 -1.862636e+00 -2.307212e+02
    endloop
  endfacet
  facet normal 9.722130e-01 -2.340980e-01 8.203759e-15
    outer loop
      vertex   6.979271e+00 -1.862636e+00 -2.367212e+02
      vertex   6.979271e+00 -1.862636e+00 -2.307212e+02
      vertex   6.795821e+00 -2.624504e+00 -2.367212e+02
    endloop
  endfacet
  facet normal 9.722130e-01 -2.340980e-01 8.212423e-15
    outer loop
      vertex   6.795821e+00 -2.624504e+00 -2.367212e+02
      vertex   6.979271e+00 -1.862636e+00 -2.307212e+02
      vertex   6.795821e+00 -2.624504e+00 -2.307212e+02
    endloop
  endfacet
  facet normal 9.450806e-01 -3.268373e-01 7.681979e-15
    outer loop
      vertex   6.795821e+00 -2.624504e+00 -2.367212e+02
      vertex   6.795821e+00 -2.624504e+00 -2.307212e+02
      vertex   6.539698e+00 -3.365110e+00 -2.367212e+02
    endloop
  endfacet
  facet normal 9.450806e-01 -3.268373e-01 7.773497e-15
    outer loop
      vertex   6.539698e+00 -3.365110e+00 -2.367212e+02
      vertex   6.795821e+00 -2.624504e+00 -2.307212e+02
      vertex   6.539698e+00 -3.365110e+00 -2.307212e+02
    endloop
  endfacet
  facet normal 9.091243e-01 -4.165249e-01 7.152730e-15
    outer loop
      vertex   6.539698e+00 -3.365110e+00 -2.367212e+02
      vertex   6.539698e+00 -3.365110e+00 -2.307212e+02
      vertex   6.213291e+00 -4.077539e+00 -2.367212e+02
    endloop
  endfacet
  facet normal 9.091243e-01 -4.165249e-01 7.183559e-15
    outer loop
      vertex   6.213291e+00 -4.077539e+00 -2.367212e+02
      vertex   6.539698e+00 -3.365110e+00 -2.307212e+02
      vertex   6.213291e+00 -4.077539e+00 -2.307212e+02
    endloop
  endfacet
  facet normal 8.646797e-01 -5.023236e-01 6.502358e-15
    outer loop
      vertex   6.213291e+00 -4.077539e+00 -2.367212e+02
      vertex   6.213291e+00 -4.077539e+00 -2.307212e+02
      vertex   5.819648e+00 -4.755139e+00 -2.367212e+02
    endloop
  endfacet
  facet normal 8.646797e-01 -5.023236e-01 6.630357e-15
    outer loop
      vertex   5.819648e+00 -4.755139e+00 -2.367212e+02
      vertex   6.213291e+00 -4.077539e+00 -2.307212e+02
      vertex   5.819648e+00 -4.755139e+00 -2.307212e+02
    endloop
  endfacet
  facet normal 8.121619e-01 -5.834322e-01 5.880671e-15
    outer loop
      vertex   5.819648e+00 -4.755139e+00 -2.367212e+02
      vertex   5.819648e+00 -4.755139e+00 -2.307212e+02
      vertex   5.362446e+00 -5.391584e+00 -2.367212e+02
    endloop
  endfacet
  facet normal 8.121619e-01 -5.834322e-01 5.760447e-15
    outer loop
      vertex   5.362446e+00 -5.391584e+00 -2.367212e+02
      vertex   5.819648e+00 -4.755139e+00 -2.307212e+02
      vertex   5.362446e+00 -5.391584e+00 -2.307212e+02
    endloop
  endfacet
  facet normal 7.520611e-01 -6.590934e-01 4.964752e-15
    outer loop
      vertex   5.362446e+00 -5.391584e+00 -2.367212e+02
      vertex   5.362446e+00 -5.391584e+00 -2.307212e+02
      vertex   4.845952e+00 -5.980932e+00 -2.367212e+02
    endloop
  endfacet
  facet normal 7.520611e-01 -6.590934e-01 5.173645e-15
    outer loop
      vertex   4.845952e+00 -5.980932e+00 -2.367212e+02
      vertex   5.362446e+00 -5.391584e+00 -2.307212e+02
      vertex   4.845952e+00 -5.980932e+00 -2.307212e+02
    endloop
  endfacet
  facet normal 6.849385e-01 -7.286009e-01 4.331949e-15
    outer loop
      vertex   4.845952e+00 -5.980932e+00 -2.367212e+02
      vertex   4.845952e+00 -5.980932e+00 -2.307212e+02
      vertex   4.274989e+00 -6.517679e+00 -2.367212e+02
    endloop
  endfacet
  facet normal 6.849385e-01 -7.286009e-01 4.129166e-15
    outer loop
      vertex   4.274989e+00 -6.517679e+00 -2.367212e+02
      vertex   4.845952e+00 -5.980932e+00 -2.307212e+02
      vertex   4.274989e+00 -6.517679e+00 -2.307212e+02
    endloop
  endfacet
  facet normal 6.114208e-01 -7.913056e-01 3.268789e-15
    outer loop
      vertex   4.274989e+00 -6.517679e+00 -2.367212e+02
      vertex   4.274989e+00 -6.517679e+00 -2.307212e+02
      vertex   3.654888e+00 -6.996814e+00 -2.367212e+02
    endloop
  endfacet
  facet normal 6.114208e-01 -7.913056e-01 3.125024e-15
    outer loop
      vertex   3.654888e+00 -6.996814e+00 -2.367212e+02
      vertex   4.274989e+00 -6.517679e+00 -2.307212e+02
      vertex   3.654888e+00 -6.996814e+00 -2.307212e+02
    endloop
  endfacet
  facet normal 5.321945e-01 -8.466221e-01 2.206023e-15
    outer loop
      vertex   3.654888e+00 -6.996814e+00 -2.367212e+02
      vertex   3.654888e+00 -6.996814e+00 -2.307212e+02
      vertex   2.991438e+00 -7.413865e+00 -2.367212e+02
    endloop
  endfacet
  facet normal 5.321945e-01 -8.466221e-01 2.206023e-15
    outer loop
      vertex   2.991438e+00 -7.413865e+00 -2.367212e+02
      vertex   3.654888e+00 -6.996814e+00 -2.307212e+02
      vertex   2.991438e+00 -7.413865e+00 -2.307212e+02
    endloop
  endfacet
  facet normal 4.479992e-01 -8.940340e-01 1.266424e-15
    outer loop
      vertex   2.991438e+00 -7.413865e+00 -2.367212e+02
      vertex   2.991438e+00 -7.413865e+00 -2.307212e+02
      vertex   2.290835e+00 -7.764936e+00 -2.367212e+02
    endloop
  endfacet
  facet normal 4.479992e-01 -8.940340e-01 1.266424e-15
    outer loop
      vertex   2.290835e+00 -7.764936e+00 -2.367212e+02
      vertex   2.991438e+00 -7.413865e+00 -2.307212e+02
      vertex   2.290835e+00 -7.764936e+00 -2.307212e+02
    endloop
  endfacet
  facet normal 3.596210e-01 -9.330985e-01 3.150011e-16
    outer loop
      vertex   2.290835e+00 -7.764936e+00 -2.367212e+02
      vertex   2.290835e+00 -7.764936e+00 -2.307212e+02
      vertex   1.559619e+00 -8.046751e+00 -2.367212e+02
    endloop
  endfacet
  facet normal 3.596210e-01 -9.330985e-01 2.883838e-16
    outer loop
      vertex   1.559619e+00 -8.046751e+00 -2.367212e+02
      vertex   2.290835e+00 -7.764936e+00 -2.307212e+02
      vertex   1.559619e+00 -8.046751e+00 -2.307212e+02
    endloop
  endfacet
  facet normal 2.678852e-01 -9.634508e-01 -6.591904e-16
    outer loop
      vertex   1.559619e+00 -8.046751e+00 -2.367212e+02
      vertex   1.559619e+00 -8.046751e+00 -2.307212e+02
      vertex   8.046170e-01 -8.256677e+00 -2.367212e+02
    endloop
  endfacet
  facet normal 2.678852e-01 -9.634508e-01 -6.393629e-16
    outer loop
      vertex   8.046170e-01 -8.256677e+00 -2.367212e+02
      vertex   1.559619e+00 -8.046751e+00 -2.307212e+02
      vertex   8.046170e-01 -8.256677e+00 -2.307212e+02
    endloop
  endfacet
  facet normal 1.736482e-01 -9.848078e-01 -1.587757e-15
    outer loop
      vertex   8.046170e-01 -8.256677e+00 -2.367212e+02
      vertex   8.046170e-01 -8.256677e+00 -2.307212e+02
      vertex   3.287931e-02 -8.392755e+00 -2.367212e+02
    endloop
  endfacet
  facet normal 1.736482e-01 -9.848078e-01 -1.296196e-15
    outer loop
      vertex   3.287931e-02 -8.392755e+00 -2.367212e+02
      vertex   8.046170e-01 -8.256677e+00 -2.307212e+02
      vertex   3.287931e-02 -8.392755e+00 -2.307212e+02
    endloop
  endfacet
  facet normal 7.778987e-02 -9.969698e-01 -2.226165e-15
    outer loop
      vertex   3.287931e-02 -8.392755e+00 -2.367212e+02
      vertex   3.287931e-02 -8.392755e+00 -2.307212e+02
      vertex   -7.483891e-01 -8.453715e+00 -2.367212e+02
    endloop
  endfacet
  facet normal 7.778987e-02 -9.969698e-01 -2.518449e-15
    outer loop
      vertex   -7.483891e-01 -8.453715e+00 -2.367212e+02
      vertex   3.287931e-02 -8.392755e+00 -2.307212e+02
      vertex   -7.483891e-01 -8.453715e+00 -2.307212e+02
    endloop
  endfacet
  facet normal -1.879475e-02 -9.998234e-01 -3.432052e-15
    outer loop
      vertex   -7.483891e-01 -8.453715e+00 -2.367212e+02
      vertex   -7.483891e-01 -8.453715e+00 -2.307212e+02
      vertex   -1.531894e+00 -8.438986e+00 -2.367212e+02
    endloop
  endfacet
  facet normal -1.879475e-02 -9.998234e-01 -3.136045e-15
    outer loop
      vertex   -1.531894e+00 -8.438986e+00 -2.367212e+02
      vertex   -7.483891e-01 -8.453715e+00 -2.307212e+02
      vertex   -1.531894e+00 -8.438986e+00 -2.307212e+02
    endloop
  endfacet
  facet normal -1.152039e-01 -9.933419e-01 -4.019523e-15
    outer loop
      vertex   -1.531894e+00 -8.438986e+00 -2.367212e+02
      vertex   -1.531894e+00 -8.438986e+00 -2.307212e+02
      vertex   -2.310319e+00 -8.348708e+00 -2.367212e+02
    endloop
  endfacet
  facet normal -1.152039e-01 -9.933419e-01 -4.317875e-15
    outer loop
      vertex   -2.310319e+00 -8.348708e+00 -2.367212e+02
      vertex   -1.531894e+00 -8.438986e+00 -2.307212e+02
      vertex   -2.310319e+00 -8.348708e+00 -2.307212e+02
    endloop
  endfacet
  facet normal -2.105374e-01 -9.775858e-01 -5.162687e-15
    outer loop
      vertex   -2.310319e+00 -8.348708e+00 -2.367212e+02
      vertex   -2.310319e+00 -8.348708e+00 -2.307212e+02
      vertex   -3.076397e+00 -8.183722e+00 -2.367212e+02
    endloop
  endfacet
  facet normal -2.105374e-01 -9.775858e-01 -5.162687e-15
    outer loop
      vertex   -3.076397e+00 -8.183722e+00 -2.367212e+02
      vertex   -2.310319e+00 -8.348708e+00 -2.307212e+02
      vertex   -3.076397e+00 -8.183722e+00 -2.307212e+02
    endloop
  endfacet
  facet normal -3.039052e-01 -9.527023e-01 -5.959296e-15
    outer loop
      vertex   -3.076397e+00 -8.183722e+00 -2.367212e+02
      vertex   -3.076397e+00 -8.183722e+00 -2.307212e+02
      vertex   -3.822976e+00 -7.945568e+00 -2.367212e+02
    endloop
  endfacet
  facet normal -3.039052e-01 -9.527023e-01 -5.773281e-15
    outer loop
      vertex   -3.822976e+00 -7.945568e+00 -2.367212e+02
      vertex   -3.076397e+00 -8.183722e+00 -2.307212e+02
      vertex   -3.822976e+00 -7.945568e+00 -2.307212e+02
    endloop
  endfacet
  facet normal -3.944355e-01 -9.189237e-01 -6.505850e-15
    outer loop
      vertex   -3.822976e+00 -7.945568e+00 -2.367212e+02
      vertex   -3.822976e+00 -7.945568e+00 -2.307212e+02
      vertex   -4.543084e+00 -7.636472e+00 -2.367212e+02
    endloop
  endfacet
  facet normal -3.944355e-01 -9.189237e-01 -6.671072e-15
    outer loop
      vertex   -4.543084e+00 -7.636472e+00 -2.367212e+02
      vertex   -3.822976e+00 -7.945568e+00 -2.307212e+02
      vertex   -4.543084e+00 -7.636472e+00 -2.307212e+02
    endloop
  endfacet
  facet normal -4.812830e-01 -8.765653e-01 -7.343054e-15
    outer loop
      vertex   -4.543084e+00 -7.636472e+00 -2.367212e+02
      vertex   -4.543084e+00 -7.636472e+00 -2.307212e+02
      vertex   -5.229998e+00 -7.259318e+00 -2.367212e+02
    endloop
  endfacet
  facet normal -4.812830e-01 -8.765653e-01 -7.213297e-15
    outer loop
      vertex   -5.229998e+00 -7.259318e+00 -2.367212e+02
      vertex   -4.543084e+00 -7.636472e+00 -2.307212e+02
      vertex   -5.229998e+00 -7.259318e+00 -2.307212e+02
    endloop
  endfacet
  facet normal -5.636370e-01 -8.260226e-01 -7.824201e-15
    outer loop
      vertex   -5.229998e+00 -7.259318e+00 -2.367212e+02
      vertex   -5.229998e+00 -7.259318e+00 -2.307212e+02
      vertex   -5.877305e+00 -6.817628e+00 -2.367212e+02
    endloop
  endfacet
  facet normal -5.636370e-01 -8.260226e-01 -7.740766e-15
    outer loop
      vertex   -5.877305e+00 -6.817628e+00 -2.367212e+02
      vertex   -5.229998e+00 -7.259318e+00 -2.307212e+02
      vertex   -5.877305e+00 -6.817628e+00 -2.307212e+02
    endloop
  endfacet
  facet normal -6.407284e-01 -7.677676e-01 -8.267206e-15
    outer loop
      vertex   -5.877305e+00 -6.817628e+00 -2.367212e+02
      vertex   -5.877305e+00 -6.817628e+00 -2.307212e+02
      vertex   -6.478961e+00 -6.315525e+00 -2.367212e+02
    endloop
  endfacet
  facet normal -6.407284e-01 -7.677676e-01 -8.267206e-15
    outer loop
      vertex   -6.478961e+00 -6.315525e+00 -2.367212e+02
      vertex   -5.877305e+00 -6.817628e+00 -2.307212e+02
      vertex   -6.478961e+00 -6.315525e+00 -2.307212e+02
    endloop
  endfacet
  facet normal -7.118375e-01 -7.023442e-01 -8.716458e-15
    outer loop
      vertex   -6.478961e+00 -6.315525e+00 -2.367212e+02
      vertex   -6.478961e+00 -6.315525e+00 -2.307212e+02
      vertex   -7.029348e+00 -5.757699e+00 -2.367212e+02
    endloop
  endfacet
  facet normal -7.118375e-01 -7.023442e-01 -8.821831e-15
    outer loop
      vertex   -7.029348e+00 -5.757699e+00 -2.367212e+02
      vertex   -6.478961e+00 -6.315525e+00 -2.307212e+02
      vertex   -7.029348e+00 -5.757699e+00 -2.307212e+02
    endloop
  endfacet
  facet normal -7.763004e-01 -6.303632e-01 -9.199241e-15
    outer loop
      vertex   -7.029348e+00 -5.757699e+00 -2.367212e+02
      vertex   -7.029348e+00 -5.757699e+00 -2.307212e+02
      vertex   -7.523328e+00 -5.149357e+00 -2.367212e+02
    endloop
  endfacet
  facet normal -7.763004e-01 -6.303632e-01 -9.084326e-15
    outer loop
      vertex   -7.523328e+00 -5.149357e+00 -2.367212e+02
      vertex   -7.029348e+00 -5.757699e+00 -2.307212e+02
      vertex   -7.523328e+00 -5.149357e+00 -2.307212e+02
    endloop
  endfacet
  facet normal -8.335151e-01 -5.524966e-01 -9.367376e-15
    outer loop
      vertex   -7.523328e+00 -5.149357e+00 -2.367212e+02
      vertex   -7.523328e+00 -5.149357e+00 -2.307212e+02
      vertex   -7.956288e+00 -4.496178e+00 -2.367212e+02
    endloop
  endfacet
  facet normal -8.335151e-01 -5.524966e-01 -9.285590e-15
    outer loop
      vertex   -7.956288e+00 -4.496178e+00 -2.367212e+02
      vertex   -7.523328e+00 -5.149357e+00 -2.307212e+02
      vertex   -7.956288e+00 -4.496178e+00 -2.307212e+02
    endloop
  endfacet
  facet normal -8.829476e-01 -4.694716e-01 -9.493470e-15
    outer loop
      vertex   -7.956288e+00 -4.496178e+00 -2.367212e+02
      vertex   -7.956288e+00 -4.496178e+00 -2.307212e+02
      vertex   -8.324186e+00 -3.804262e+00 -2.367212e+02
    endloop
  endfacet
  facet normal -8.829476e-01 -4.694716e-01 -9.824371e-15
    outer loop
      vertex   -8.324186e+00 -3.804262e+00 -2.367212e+02
      vertex   -7.956288e+00 -4.496178e+00 -2.307212e+02
      vertex   -8.324186e+00 -3.804262e+00 -2.307212e+02
    endloop
  endfacet
  facet normal -9.241362e-01 -3.820632e-01 -9.942868e-15
    outer loop
      vertex   -8.324186e+00 -3.804262e+00 -2.367212e+02
      vertex   -8.324186e+00 -3.804262e+00 -2.307212e+02
      vertex   -8.623587e+00 -3.080070e+00 -2.367212e+02
    endloop
  endfacet
  facet normal -9.241362e-01 -3.820632e-01 -9.886311e-15
    outer loop
      vertex   -8.623587e+00 -3.080070e+00 -2.367212e+02
      vertex   -8.324186e+00 -3.804262e+00 -2.307212e+02
      vertex   -8.623587e+00 -3.080070e+00 -2.307212e+02
    endloop
  endfacet
  facet normal -9.566964e-01 -2.910875e-01 -9.925441e-15
    outer loop
      vertex   -8.623587e+00 -3.080070e+00 -2.367212e+02
      vertex   -8.623587e+00 -3.080070e+00 -2.307212e+02
      vertex   -8.851696e+00 -2.330361e+00 -2.367212e+02
    endloop
  endfacet
  facet normal -9.566964e-01 -2.910875e-01 -9.663747e-15
    outer loop
      vertex   -8.851696e+00 -2.330361e+00 -2.367212e+02
      vertex   -8.623587e+00 -3.080070e+00 -2.307212e+02
      vertex   -8.851696e+00 -2.330361e+00 -2.307212e+02
    endloop
  endfacet
  facet normal -9.803242e-01 -1.973941e-01 -9.596276e-15
    outer loop
      vertex   -8.851696e+00 -2.330361e+00 -2.367212e+02
      vertex   -8.851696e+00 -2.330361e+00 -2.307212e+02
      vertex   -9.006382e+00 -1.562137e+00 -2.367212e+02
    endloop
  endfacet
  facet normal -9.803242e-01 -1.973941e-01 -9.886511e-15
    outer loop
      vertex   -9.006382e+00 -1.562137e+00 -2.367212e+02
      vertex   -8.851696e+00 -2.330361e+00 -2.307212e+02
      vertex   -9.006382e+00 -1.562137e+00 -2.307212e+02
    endloop
  endfacet
  facet normal -9.947990e-01 -1.018577e-01 -9.733727e-15
    outer loop
      vertex   -9.006382e+00 -1.562137e+00 -2.367212e+02
      vertex   -9.006382e+00 -1.562137e+00 -2.307212e+02
      vertex   -9.086202e+00 -7.825696e-01 -2.367212e+02
    endloop
  endfacet
  facet normal -9.947990e-01 -1.018577e-01 -9.735612e-15
    outer loop
      vertex   -9.086202e+00 -7.825696e-01 -2.367212e+02
      vertex   -9.006382e+00 -1.562137e+00 -2.307212e+02
      vertex   -9.086202e+00 -7.825696e-01 -2.307212e+02
    endloop
  endfacet
  facet normal -9.999856e-01 -5.370218e-03 -9.490162e-15
    outer loop
      vertex   -9.086202e+00 -7.825696e-01 -2.367212e+02
      vertex   -9.086202e+00 -7.825696e-01 -2.307212e+02
      vertex   -9.090411e+00 1.062081e-03 -2.367212e+02
    endloop
  endfacet
  facet normal -9.999856e-01 -5.370218e-03 -9.490162e-15
    outer loop
      vertex   -9.090411e+00 1.062081e-03 -2.367212e+02
      vertex   -9.086202e+00 -7.825696e-01 -2.307212e+02
      vertex   -9.090411e+00 1.062081e-03 -2.307212e+02
    endloop
  endfacet
  facet normal -9.958356e-01 9.116738e-02 -9.156106e-15
    outer loop
      vertex   -9.090411e+00 1.062081e-03 -2.367212e+02
      vertex   -9.090411e+00 1.062081e-03 -2.307212e+02
      vertex   -9.018968e+00 7.814417e-01 -2.367212e+02
    endloop
  endfacet
  facet normal -9.958356e-01 9.116738e-02 -9.157792e-15
    outer loop
      vertex   -9.018968e+00 7.814417e-01 -2.367212e+02
      vertex   -9.090411e+00 1.062081e-03 -2.307212e+02
      vertex   -9.018968e+00 7.814417e-01 -2.307212e+02
    endloop
  endfacet
  facet normal -9.823877e-01 1.868538e-01 -8.740018e-15
    outer loop
      vertex   -9.018968e+00 7.814417e-01 -2.367212e+02
      vertex   -9.018968e+00 7.814417e-01 -2.307212e+02
      vertex   -8.872541e+00 1.551283e+00 -2.367212e+02
    endloop
  endfacet
  facet normal -9.823877e-01 1.868538e-01 -8.442258e-15
    outer loop
      vertex   -8.872541e+00 1.551283e+00 -2.367212e+02
      vertex   -9.018968e+00 7.814417e-01 -2.307212e+02
      vertex   -8.872541e+00 1.551283e+00 -2.307212e+02
    endloop
  endfacet
  facet normal -9.597676e-01 2.807956e-01 -7.946101e-15
    outer loop
      vertex   -8.872541e+00 1.551283e+00 -2.367212e+02
      vertex   -8.872541e+00 1.551283e+00 -2.307212e+02
      vertex   -8.652498e+00 2.303398e+00 -2.367212e+02
    endloop
  endfacet
  facet normal -9.597676e-01 2.807956e-01 -7.956492e-15
    outer loop
      vertex   -8.652498e+00 2.303398e+00 -2.367212e+02
      vertex   -8.872541e+00 1.551283e+00 -2.307212e+02
      vertex   -8.652498e+00 2.303398e+00 -2.307212e+02
    endloop
  endfacet
  facet normal -9.281864e-01 3.721156e-01 -7.389524e-15
    outer loop
      vertex   -8.652498e+00 2.303398e+00 -2.367212e+02
      vertex   -8.652498e+00 2.303398e+00 -2.307212e+02
      vertex   -8.360892e+00 3.030765e+00 -2.367212e+02
    endloop
  endfacet
  facet normal -9.281864e-01 3.721156e-01 -7.334440e-15
    outer loop
      vertex   -8.360892e+00 3.030765e+00 -2.367212e+02
      vertex   -8.652498e+00 2.303398e+00 -2.307212e+02
      vertex   -8.360892e+00 3.030765e+00 -2.307212e+02
    endloop
  endfacet
  facet normal -8.879389e-01 4.599614e-01 -6.685473e-15
    outer loop
      vertex   -8.360892e+00 3.030765e+00 -2.367212e+02
      vertex   -8.360892e+00 3.030765e+00 -2.307212e+02
      vertex   -8.000447e+00 3.726592e+00 -2.367212e+02
    endloop
  endfacet
  facet normal -8.879389e-01 4.599614e-01 -6.982400e-15
    outer loop
      vertex   -8.000447e+00 3.726592e+00 -2.367212e+02
      vertex   -8.360892e+00 3.030765e+00 -2.307212e+02
      vertex   -8.000447e+00 3.726592e+00 -2.307212e+02
    endloop
  endfacet
  facet normal -8.394010e-01 5.435126e-01 -6.262827e-15
    outer loop
      vertex   -8.000447e+00 3.726592e+00 -2.367212e+02
      vertex   -8.000447e+00 3.726592e+00 -2.307212e+02
      vertex   -7.574527e+00 4.384383e+00 -2.367212e+02
    endloop
  endfacet
  facet normal -8.394010e-01 5.435126e-01 -6.138571e-15
    outer loop
      vertex   -7.574527e+00 4.384383e+00 -2.367212e+02
      vertex   -8.000447e+00 3.726592e+00 -2.307212e+02
      vertex   -7.574527e+00 4.384383e+00 -2.307212e+02
    endloop
  endfacet
  facet normal -7.830259e-01 6.219891e-01 -5.368869e-15
    outer loop
      vertex   -7.574527e+00 4.384383e+00 -2.367212e+02
      vertex   -7.574527e+00 4.384383e+00 -2.307212e+02
      vertex   -7.087109e+00 4.997996e+00 -2.367212e+02
    endloop
  endfacet
  facet normal -7.830259e-01 6.219891e-01 -5.345031e-15
    outer loop
      vertex   -7.087109e+00 4.997996e+00 -2.367212e+02
      vertex   -7.574527e+00 4.384383e+00 -2.307212e+02
      vertex   -7.087109e+00 4.997996e+00 -2.307212e+02
    endloop
  endfacet
  facet normal -7.193398e-01 6.946584e-01 -4.545386e-15
    outer loop
      vertex   -7.087109e+00 4.997996e+00 -2.367212e+02
      vertex   -7.087109e+00 4.997996e+00 -2.307212e+02
      vertex   -6.542745e+00 5.561701e+00 -2.367212e+02
    endloop
  endfacet
  facet normal -7.193398e-01 6.946584e-01 -4.446210e-15
    outer loop
      vertex   -6.542745e+00 5.561701e+00 -2.367212e+02
      vertex   -7.087109e+00 4.997996e+00 -2.307212e+02
      vertex   -6.542745e+00 5.561701e+00 -2.307212e+02
    endloop
  endfacet
  facet normal -6.489375e-01 7.608418e-01 -3.574110e-15
    outer loop
      vertex   -6.542745e+00 5.561701e+00 -2.367212e+02
      vertex   -6.542745e+00 5.561701e+00 -2.307212e+02
      vertex   -5.946517e+00 6.070236e+00 -2.367212e+02
    endloop
  endfacet
  facet normal -6.489375e-01 7.608418e-01 -3.895427e-15
    outer loop
      vertex   -5.946517e+00 6.070236e+00 -2.367212e+02
      vertex   -6.542745e+00 5.561701e+00 -2.307212e+02
      vertex   -5.946517e+00 6.070236e+00 -2.307212e+02
    endloop
  endfacet
  facet normal -5.724762e-01 8.199214e-01 -2.996129e-15
    outer loop
      vertex   -5.946517e+00 6.070236e+00 -2.367212e+02
      vertex   -5.946517e+00 6.070236e+00 -2.307212e+02
      vertex   -5.303991e+00 6.518853e+00 -2.367212e+02
    endloop
  endfacet
  facet normal -5.724762e-01 8.199214e-01 -2.790013e-15
    outer loop
      vertex   -5.303991e+00 6.518853e+00 -2.367212e+02
      vertex   -5.946517e+00 6.070236e+00 -2.307212e+02
      vertex   -5.303991e+00 6.518853e+00 -2.307212e+02
    endloop
  endfacet
  facet normal -4.906698e-01 8.713456e-01 -1.867238e-15
    outer loop
      vertex   -5.303991e+00 6.518853e+00 -2.367212e+02
      vertex   -5.303991e+00 6.518853e+00 -2.307212e+02
      vertex   -4.621167e+00 6.903363e+00 -2.367212e+02
    endloop
  endfacet
  facet normal -4.906698e-01 8.713456e-01 -1.738253e-15
    outer loop
      vertex   -4.621167e+00 6.903363e+00 -2.367212e+02
      vertex   -5.303991e+00 6.518853e+00 -2.307212e+02
      vertex   -4.621167e+00 6.903363e+00 -2.307212e+02
    endloop
  endfacet
  facet normal -4.042822e-01 9.146343e-01 -7.916370e-16
    outer loop
      vertex   -4.621167e+00 6.903363e+00 -2.367212e+02
      vertex   -4.621167e+00 6.903363e+00 -2.307212e+02
      vertex   -3.904420e+00 7.220176e+00 -2.367212e+02
    endloop
  endfacet
  facet normal -4.042822e-01 9.146343e-01 -8.215599e-16
    outer loop
      vertex   -3.904420e+00 7.220176e+00 -2.367212e+02
      vertex   -4.621167e+00 6.903363e+00 -2.307212e+02
      vertex   -3.904420e+00 7.220176e+00 -2.307212e+02
    endloop
  endfacet
  facet normal -3.141199e-01 9.493833e-01 1.391210e-16
    outer loop
      vertex   -3.904420e+00 7.220176e+00 -2.367212e+02
      vertex   -3.904420e+00 7.220176e+00 -2.307212e+02
      vertex   -3.160443e+00 7.466334e+00 -2.367212e+02
    endloop
  endfacet
  facet normal -3.141199e-01 9.493833e-01 1.623706e-16
    outer loop
      vertex   -3.160443e+00 7.466334e+00 -2.367212e+02
      vertex   -3.904420e+00 7.220176e+00 -2.307212e+02
      vertex   -3.160443e+00 7.466334e+00 -2.307212e+02
    endloop
  endfacet
  facet normal -2.210248e-01 9.752682e-01 1.114862e-15
    outer loop
      vertex   -3.160443e+00 7.466334e+00 -2.367212e+02
      vertex   -3.160443e+00 7.466334e+00 -2.307212e+02
      vertex   -2.396181e+00 7.639539e+00 -2.367212e+02
    endloop
  endfacet
  facet normal -2.210248e-01 9.752682e-01 8.261247e-16
    outer loop
      vertex   -2.396181e+00 7.639539e+00 -2.367212e+02
      vertex   -3.160443e+00 7.466334e+00 -2.307212e+02
      vertex   -2.396181e+00 7.639539e+00 -2.307212e+02
    endloop
  endfacet
  facet normal -1.258660e-01 9.920473e-01 1.763239e-15
    outer loop
      vertex   -2.396181e+00 7.639539e+00 -2.367212e+02
      vertex   -2.396181e+00 7.639539e+00 -2.307212e+02
      vertex   -1.618770e+00 7.738173e+00 -2.367212e+02
    endloop
  endfacet
  facet normal -1.258660e-01 9.920473e-01 1.763239e-15
    outer loop
      vertex   -1.618770e+00 7.738173e+00 -2.367212e+02
      vertex   -2.396181e+00 7.639539e+00 -2.307212e+02
      vertex   -1.618770e+00 7.738173e+00 -2.307212e+02
    endloop
  endfacet
  facet normal -2.953205e-02 9.995638e-01 2.683891e-15
    outer loop
      vertex   -1.618770e+00 7.738173e+00 -2.367212e+02
      vertex   -1.618770e+00 7.738173e+00 -2.307212e+02
      vertex   -8.354686e-01 7.761315e+00 -2.367212e+02
    endloop
  endfacet
  facet normal -2.953205e-02 9.995638e-01 2.979275e-15
    outer loop
      vertex   -8.354686e-01 7.761315e+00 -2.367212e+02
      vertex   -1.618770e+00 7.738173e+00 -2.307212e+02
      vertex   -8.354686e-01 7.761315e+00 -2.307212e+02
    endloop
  endfacet
  facet normal 6.707764e-02 9.977478e-01 3.876118e-15
    outer loop
      vertex   -8.354686e-01 7.761315e+00 -2.367212e+02
      vertex   -8.354686e-01 7.761315e+00 -2.307212e+02
      vertex   -5.359054e-02 7.708750e+00 -2.367212e+02
    endloop
  endfacet
  facet normal 6.707764e-02 9.977478e-01 3.876118e-15
    outer loop
      vertex   -5.359054e-02 7.708750e+00 -2.367212e+02
      vertex   -8.354686e-01 7.761315e+00 -2.307212e+02
      vertex   -5.359054e-02 7.708750e+00 -2.307212e+02
    endloop
  endfacet
  facet normal 1.630610e-01 9.866160e-01 4.736771e-15
    outer loop
      vertex   -5.359054e-02 7.708750e+00 -2.367212e+02
      vertex   -5.359054e-02 7.708750e+00 -2.307212e+02
      vertex   7.195642e-01 7.580969e+00 -2.367212e+02
    endloop
  endfacet
  facet normal 1.630610e-01 9.866160e-01 4.441657e-15
    outer loop
      vertex   7.195642e-01 7.580969e+00 -2.367212e+02
      vertex   -5.359054e-02 7.708750e+00 -2.307212e+02
      vertex   7.195642e-01 7.580969e+00 -2.307212e+02
    endloop
  endfacet
  facet normal 2.575220e-01 9.662724e-01 5.262359e-15
    outer loop
      vertex   7.195642e-01 7.580969e+00 -2.367212e+02
      vertex   7.195642e-01 7.580969e+00 -2.307212e+02
      vertex   1.476777e+00 7.379163e+00 -2.367212e+02
    endloop
  endfacet
  facet normal 2.575220e-01 9.662724e-01 5.243298e-15
    outer loop
      vertex   1.476777e+00 7.379163e+00 -2.367212e+02
      vertex   7.195642e-01 7.580969e+00 -2.307212e+02
      vertex   1.476777e+00 7.379163e+00 -2.307212e+02
    endloop
  endfacet
  facet normal 3.495785e-01 9.369071e-01 6.008053e-15
    outer loop
      vertex   1.476777e+00 7.379163e+00 -2.367212e+02
      vertex   1.476777e+00 7.379163e+00 -2.307212e+02
      vertex   2.210978e+00 7.105219e+00 -2.367212e+02
    endloop
  endfacet
  facet normal 3.495785e-01 9.369071e-01 6.146743e-15
    outer loop
      vertex   2.210978e+00 7.105219e+00 -2.367212e+02
      vertex   1.476777e+00 7.379163e+00 -2.307212e+02
      vertex   2.210978e+00 7.105219e+00 -2.307212e+02
    endloop
  endfacet
  facet normal 4.383711e-01 8.987940e-01 6.849761e-15
    outer loop
      vertex   2.210978e+00 7.105219e+00 -2.367212e+02
      vertex   2.210978e+00 7.105219e+00 -2.307212e+02
      vertex   2.915311e+00 6.761692e+00 -2.367212e+02
    endloop
  endfacet
  facet normal 4.383711e-01 8.987940e-01 6.716713e-15
    outer loop
      vertex   2.915311e+00 6.761692e+00 -2.367212e+02
      vertex   2.210978e+00 7.105219e+00 -2.307212e+02
      vertex   2.915311e+00 6.761692e+00 -2.307212e+02
    endloop
  endfacet
  facet normal 5.230708e-01 8.522892e-01 7.362660e-15
    outer loop
      vertex   2.915311e+00 6.761692e+00 -2.367212e+02
      vertex   2.915311e+00 6.761692e+00 -2.307212e+02
      vertex   3.583202e+00 6.351791e+00 -2.367212e+02
    endloop
  endfacet
  facet normal 5.230708e-01 8.522892e-01 7.653703e-15
    outer loop
      vertex   3.583202e+00 6.351791e+00 -2.367212e+02
      vertex   2.915311e+00 6.761692e+00 -2.307212e+02
      vertex   3.583202e+00 6.351791e+00 -2.307212e+02
    endloop
  endfacet
  facet normal 6.028867e-01 7.978268e-01 8.220691e-15
    outer loop
      vertex   3.583202e+00 6.351791e+00 -2.367212e+02
      vertex   3.583202e+00 6.351791e+00 -2.307212e+02
      vertex   4.208413e+00 5.879343e+00 -2.367212e+02
    endloop
  endfacet
  facet normal 6.028867e-01 7.978268e-01 7.984487e-15
    outer loop
      vertex   4.208413e+00 5.879343e+00 -2.367212e+02
      vertex   3.583202e+00 6.351791e+00 -2.307212e+02
      vertex   4.208413e+00 5.879343e+00 -2.307212e+02
    endloop
  endfacet
  facet normal 6.770736e-01 7.359153e-01 8.493050e-15
    outer loop
      vertex   4.208413e+00 5.879343e+00 -2.367212e+02
      vertex   4.208413e+00 5.879343e+00 -2.307212e+02
      vertex   4.785108e+00 5.348759e+00 -2.367212e+02
    endloop
  endfacet
  facet normal 6.770736e-01 7.359153e-01 8.601987e-15
    outer loop
      vertex   4.785108e+00 5.348759e+00 -2.367212e+02
      vertex   4.208413e+00 5.879343e+00 -2.307212e+02
      vertex   4.785108e+00 5.348759e+00 -2.307212e+02
    endloop
  endfacet
  facet normal 7.449388e-01 6.671328e-01 9.021071e-15
    outer loop
      vertex   4.785108e+00 5.348759e+00 -2.367212e+02
      vertex   4.785108e+00 5.348759e+00 -2.307212e+02
      vertex   5.307902e+00 4.764993e+00 -2.367212e+02
    endloop
  endfacet
  facet normal 7.449388e-01 6.671328e-01 8.812042e-15
    outer loop
      vertex   5.307902e+00 4.764993e+00 -2.367212e+02
      vertex   4.785108e+00 5.348759e+00 -2.307212e+02
      vertex   5.307902e+00 4.764993e+00 -2.307212e+02
    endloop
  endfacet
  facet normal 8.058488e-01 5.921214e-01 9.148986e-15
    outer loop
      vertex   5.307902e+00 4.764993e+00 -2.367212e+02
      vertex   5.307902e+00 4.764993e+00 -2.307212e+02
      vertex   5.771914e+00 4.133496e+00 -2.367212e+02
    endloop
  endfacet
  facet normal 8.058488e-01 5.921214e-01 9.355927e-15
    outer loop
      vertex   5.771914e+00 4.133496e+00 -2.367212e+02
      vertex   5.307902e+00 4.764993e+00 -2.307212e+02
      vertex   5.771914e+00 4.133496e+00 -2.307212e+02
    endloop
  endfacet
  facet normal 9.038910e-15 5.381695e-15 -1.000000e+00
    outer loop
      vertex   5.771914e+00 4.133496e+00 -2.367212e+02
      vertex   6.172811e+00 3.460162e+00 -2.367212e+02
      vertex   -7.956288e+00 -4.496178e+00 -2.367212e+02
    endloop
  endfacet
  facet normal 9.538399e-15 4.494688e-15 -1.000000e+00
    outer loop
      vertex   -7.956288e+00 -4.496178e+00 -2.367212e+02
      vertex   6.172811e+00 3.460162e+00 -2.367212e+02
      vertex   6.506851e+00 2.751280e+00 -2.367212e+02
    endloop
  endfacet
  facet normal 8.850840e-15 5.866792e-15 -1.000000e+00
    outer loop
      vertex   -7.956288e+00 -4.496178e+00 -2.367212e+02
      vertex   6.506851e+00 2.751280e+00 -2.367212e+02
      vertex   -7.523328e+00 -5.149357e+00 -2.367212e+02
    endloop
  endfacet
  facet normal 1.011580e-14 3.620447e-15 -1.000000e+00
    outer loop
      vertex   -7.523328e+00 -5.149357e+00 -2.367212e+02
      vertex   6.506851e+00 2.751280e+00 -2.367212e+02
      vertex   6.770914e+00 2.013468e+00 -2.367212e+02
    endloop
  endfacet
  facet normal 8.479653e-15 6.885558e-15 -1.000000e+00
    outer loop
      vertex   -7.523328e+00 -5.149357e+00 -2.367212e+02
      vertex   6.770914e+00 2.013468e+00 -2.367212e+02
      vertex   -7.029348e+00 -5.757699e+00 -2.367212e+02
    endloop
  endfacet
  facet normal 1.082044e-14 2.728720e-15 -1.000000e+00
    outer loop
      vertex   -7.029348e+00 -5.757699e+00 -2.367212e+02
      vertex   6.770914e+00 2.013468e+00 -2.367212e+02
      vertex   6.962535e+00 1.253614e+00 -2.367212e+02
    endloop
  endfacet
  facet normal 8.155561e-15 8.046796e-15 -1.000000e+00
    outer loop
      vertex   -7.029348e+00 -5.757699e+00 -2.367212e+02
      vertex   6.962535e+00 1.253614e+00 -2.367212e+02
      vertex   -6.478961e+00 -6.315525e+00 -2.367212e+02
    endloop
  endfacet
  facet normal 1.168952e-14 1.771085e-15 -1.000000e+00
    outer loop
      vertex   -6.478961e+00 -6.315525e+00 -2.367212e+02
      vertex   6.962535e+00 1.253614e+00 -2.367212e+02
      vertex   7.079926e+00 4.788136e-01 -2.367212e+02
    endloop
  endfacet
  facet normal 2.558145e-14 -2.595185e-14 -1.000000e+00
    outer loop
      vertex   -6.478961e+00 -6.315525e+00 -2.367212e+02
      vertex   7.079926e+00 4.788136e-01 -2.367212e+02
      vertex   -5.877305e+00 -6.817628e+00 -2.367212e+02
    endloop
  endfacet
  facet normal -9.206818e-15 3.582615e-14 -1.000000e+00
    outer loop
      vertex   -5.877305e+00 -6.817628e+00 -2.367212e+02
      vertex   7.079926e+00 4.788136e-01 -2.367212e+02
      vertex   7.121989e+00 -3.036997e-01 -2.367212e+02
    endloop
  endfacet
  facet normal 5.042528e-15 7.389939e-15 -1.000000e+00
    outer loop
      vertex   -5.877305e+00 -6.817628e+00 -2.367212e+02
      vertex   7.121989e+00 -3.036997e-01 -2.367212e+02
      vertex   -5.229998e+00 -7.259318e+00 -2.367212e+02
    endloop
  endfacet
  facet normal 9.432263e-15 -4.054779e-16 -1.000000e+00
    outer loop
      vertex   -5.229998e+00 -7.259318e+00 -2.367212e+02
      vertex   7.121989e+00 -3.036997e-01 -2.367212e+02
      vertex   7.088333e+00 -1.086620e+00 -2.367212e+02
    endloop
  endfacet
  facet normal 4.825269e-15 8.788308e-15 -1.000000e+00
    outer loop
      vertex   -5.229998e+00 -7.259318e+00 -2.367212e+02
      vertex   7.088333e+00 -1.086620e+00 -2.367212e+02
      vertex   -4.543084e+00 -7.636472e+00 -2.367212e+02
    endloop
  endfacet
  facet normal 1.061413e-14 -1.491719e-15 -1.000000e+00
    outer loop
      vertex   -4.543084e+00 -7.636472e+00 -2.367212e+02
      vertex   7.088333e+00 -1.086620e+00 -2.367212e+02
      vertex   6.979271e+00 -1.862636e+00 -2.367212e+02
    endloop
  endfacet
  facet normal 4.552250e-15 1.060546e-14 -1.000000e+00
    outer loop
      vertex   -4.543084e+00 -7.636472e+00 -2.367212e+02
      vertex   6.979271e+00 -1.862636e+00 -2.367212e+02
      vertex   -3.822976e+00 -7.945568e+00 -2.367212e+02
    endloop
  endfacet
  facet normal 1.217524e-14 -2.931662e-15 -1.000000e+00
    outer loop
      vertex   -3.822976e+00 -7.945568e+00 -2.367212e+02
      vertex   6.979271e+00 -1.862636e+00 -2.367212e+02
      vertex   6.795821e+00 -2.624504e+00 -2.367212e+02
    endloop
  endfacet
  facet normal 4.164410e-15 1.305487e-14 -1.000000e+00
    outer loop
      vertex   -3.822976e+00 -7.945568e+00 -2.367212e+02
      vertex   6.795821e+00 -2.624504e+00 -2.367212e+02
      vertex   -3.076397e+00 -8.183722e+00 -2.367212e+02
    endloop
  endfacet
  facet normal 1.430082e-14 -4.945652e-15 -1.000000e+00
    outer loop
      vertex   -3.076397e+00 -8.183722e+00 -2.367212e+02
      vertex   6.795821e+00 -2.624504e+00 -2.367212e+02
      vertex   6.539698e+00 -3.365110e+00 -2.367212e+02
    endloop
  endfacet
  facet normal 3.553791e-15 1.650128e-14 -1.000000e+00
    outer loop
      vertex   -3.076397e+00 -8.183722e+00 -2.367212e+02
      vertex   6.539698e+00 -3.365110e+00 -2.367212e+02
      vertex   -2.310319e+00 -8.348708e+00 -2.367212e+02
    endloop
  endfacet
  facet normal 1.731255e-14 -7.931929e-15 -1.000000e+00
    outer loop
      vertex   -2.310319e+00 -8.348708e+00 -2.367212e+02
      vertex   6.539698e+00 -3.365110e+00 -2.367212e+02
      vertex   6.213291e+00 -4.077539e+00 -2.367212e+02
    endloop
  endfacet
  facet normal 3.215637e-14 -3.755448e-14 -1.000000e+00
    outer loop
      vertex   -2.310319e+00 -8.348708e+00 -2.367212e+02
      vertex   6.213291e+00 -4.077539e+00 -2.367212e+02
      vertex   -1.531894e+00 -8.438986e+00 -2.367212e+02
    endloop
  endfacet
  facet normal -1.874220e-14 5.283268e-14 -1.000000e+00
    outer loop
      vertex   -1.531894e+00 -8.438986e+00 -2.367212e+02
      vertex   6.213291e+00 -4.077539e+00 -2.367212e+02
      vertex   5.819648e+00 -4.755139e+00 -2.367212e+02
    endloop
  endfacet
  facet normal 2.795747e-16 1.487253e-14 -1.000000e+00
    outer loop
      vertex   -1.531894e+00 -8.438986e+00 -2.367212e+02
      vertex   5.819648e+00 -4.755139e+00 -2.367212e+02
      vertex   -7.483891e-01 -8.453715e+00 -2.367212e+02
    endloop
  endfacet
  facet normal 1.453389e-14 -1.044070e-14 -1.000000e+00
    outer loop
      vertex   -7.483891e-01 -8.453715e+00 -2.367212e+02
      vertex   5.819648e+00 -4.755139e+00 -2.367212e+02
      vertex   5.362446e+00 -5.391584e+00 -2.367212e+02
    endloop
  endfacet
  facet normal -1.715561e-15 2.198695e-14 -1.000000e+00
    outer loop
      vertex   -7.483891e-01 -8.453715e+00 -2.367212e+02
      vertex   5.362446e+00 -5.391584e+00 -2.367212e+02
      vertex   3.287931e-02 -8.392755e+00 -2.367212e+02
    endloop
  endfacet
  facet normal 2.105786e-14 -1.845475e-14 -1.000000e+00
    outer loop
      vertex   3.287931e-02 -8.392755e+00 -2.367212e+02
      vertex   5.362446e+00 -5.391584e+00 -2.367212e+02
      vertex   4.845952e+00 -5.980932e+00 -2.367212e+02
    endloop
  endfacet
  facet normal -6.412074e-15 3.636468e-14 -1.000000e+00
    outer loop
      vertex   3.287931e-02 -8.392755e+00 -2.367212e+02
      vertex   4.845952e+00 -5.980932e+00 -2.367212e+02
      vertex   8.046170e-01 -8.256677e+00 -2.367212e+02
    endloop
  endfacet
  facet normal 3.507731e-14 -3.731336e-14 -1.000000e+00
    outer loop
      vertex   8.046170e-01 -8.256677e+00 -2.367212e+02
      vertex   4.845952e+00 -5.980932e+00 -2.367212e+02
      vertex   4.274989e+00 -6.517679e+00 -2.367212e+02
    endloop
  endfacet
  facet normal 6.415270e-14 -9.533666e-14 -1.000000e+00
    outer loop
      vertex   8.046170e-01 -8.256677e+00 -2.367212e+02
      vertex   4.274989e+00 -6.517679e+00 -2.367212e+02
      vertex   1.559619e+00 -8.046751e+00 -2.367212e+02
    endloop
  endfacet
  facet normal -8.457098e-14 1.687711e-13 -1.000000e+00
    outer loop
      vertex   1.559619e+00 -8.046751e+00 -2.367212e+02
      vertex   4.274989e+00 -6.517679e+00 -2.367212e+02
      vertex   3.654888e+00 -6.996814e+00 -2.367212e+02
    endloop
  endfacet
  facet normal 0.000000e+00 0.000000e+00 -1.000000e+00
    outer loop
      vertex   1.559619e+00 -8.046751e+00 -2.367212e+02
      vertex   3.654888e+00 -6.996814e+00 -2.367212e+02
      vertex   2.290835e+00 -7.764936e+00 -2.367212e+02
    endloop
  endfacet
  facet normal 0.000000e+00 0.000000e+00 -1.000000e+00
    outer loop
      vertex   2.290835e+00 -7.764936e+00 -2.367212e+02
      vertex   3.654888e+00 -6.996814e+00 -2.367212e+02
      vertex   2.991438e+00 -7.413865e+00 -2.367212e+02
    endloop
  endfacet
  facet normal 0.000000e+00 0.000000e+00 -1.000000e+00
    outer loop
      vertex   -8.324186e+00 -3.804262e+00 -2.367212e+02
      vertex   -8.851696e+00 -2.330361e+00 -2.367212e+02
      vertex   -7.956288e+00 -4.496178e+00 -2.367212e+02
    endloop
  endfacet
  facet normal 0.000000e+00 0.000000e+00 -1.000000e+00
    outer loop
      vertex   -7.956288e+00 -4.496178e+00 -2.367212e+02
      vertex   -8.851696e+00 -2.330361e+00 -2.367212e+02
      vertex   -9.006382e+00 -1.562137e+00 -2.367212e+02
    endloop
  endfacet
  facet normal 0.000000e+00 0.000000e+00 -1.000000e+00
    outer loop
      vertex   -7.956288e+00 -4.496178e+00 -2.367212e+02
      vertex   -9.006382e+00 -1.562137e+00 -2.367212e+02
      vertex   -9.086202e+00 -7.825696e-01 -2.367212e+02
    endloop
  endfacet
  facet normal 0.000000e+00 0.000000e+00 -1.000000e+00
    outer loop
      vertex   -8.324186e+00 -3.804262e+00 -2.367212e+02
      vertex   -8.623587e+00 -3.080070e+00 -2.367212e+02
      vertex   -8.851696e+00 -2.330361e+00 -2.367212e+02
    endloop
  endfacet
  facet normal 0.000000e+00 0.000000e+00 -1.000000e+00
    outer loop
      vertex   -9.086202e+00 -7.825696e-01 -2.367212e+02
      vertex   -9.090411e+00 1.062081e-03 -2.367212e+02
      vertex   -7.956288e+00 -4.496178e+00 -2.367212e+02
    endloop
  endfacet
  facet normal 1.059561e-13 2.672023e-14 -1.000000e+00
    outer loop
      vertex   -7.956288e+00 -4.496178e+00 -2.367212e+02
      vertex   -9.090411e+00 1.062081e-03 -2.367212e+02
      vertex   -9.018968e+00 7.814417e-01 -2.367212e+02
    endloop
  endfacet
  facet normal -1.375353e-14 2.615972e-15 -1.000000e+00
    outer loop
      vertex   -7.956288e+00 -4.496178e+00 -2.367212e+02
      vertex   -9.018968e+00 7.814417e-01 -2.367212e+02
      vertex   -8.872541e+00 1.551283e+00 -2.367212e+02
    endloop
  endfacet
  facet normal -1.058325e-14 3.096302e-15 -1.000000e+00
    outer loop
      vertex   -8.872541e+00 1.551283e+00 -2.367212e+02
      vertex   -8.652498e+00 2.303398e+00 -2.367212e+02
      vertex   -7.956288e+00 -4.496178e+00 -2.367212e+02
    endloop
  endfacet
  facet normal -8.305094e-15 3.329563e-15 -1.000000e+00
    outer loop
      vertex   -7.956288e+00 -4.496178e+00 -2.367212e+02
      vertex   -8.652498e+00 2.303398e+00 -2.367212e+02
      vertex   -8.360892e+00 3.030765e+00 -2.367212e+02
    endloop
  endfacet
  facet normal -6.604114e-15 3.420998e-15 -1.000000e+00
    outer loop
      vertex   -7.956288e+00 -4.496178e+00 -2.367212e+02
      vertex   -8.360892e+00 3.030765e+00 -2.367212e+02
      vertex   -8.000447e+00 3.726592e+00 -2.367212e+02
    endloop
  endfacet
  facet normal -5.294254e-15 3.428032e-15 -1.000000e+00
    outer loop
      vertex   -8.000447e+00 3.726592e+00 -2.367212e+02
      vertex   -7.574527e+00 4.384383e+00 -2.367212e+02
      vertex   -7.956288e+00 -4.496178e+00 -2.367212e+02
    endloop
  endfacet
  facet normal 5.738748e-14 7.334448e-16 -1.000000e+00
    outer loop
      vertex   -7.956288e+00 -4.496178e+00 -2.367212e+02
      vertex   -7.574527e+00 4.384383e+00 -2.367212e+02
      vertex   -7.087109e+00 4.997996e+00 -2.367212e+02
    endloop
  endfacet
  facet normal -6.849233e-15 6.614228e-15 -1.000000e+00
    outer loop
      vertex   -7.956288e+00 -4.496178e+00 -2.367212e+02
      vertex   -7.087109e+00 4.997996e+00 -2.367212e+02
      vertex   -6.542745e+00 5.561701e+00 -2.367212e+02
    endloop
  endfacet
  facet normal -5.476909e-15 6.421360e-15 -1.000000e+00
    outer loop
      vertex   -6.542745e+00 5.561701e+00 -2.367212e+02
      vertex   -5.946517e+00 6.070236e+00 -2.367212e+02
      vertex   -7.956288e+00 -4.496178e+00 -2.367212e+02
    endloop
  endfacet
  facet normal -4.331311e-15 6.203463e-15 -1.000000e+00
    outer loop
      vertex   -7.956288e+00 -4.496178e+00 -2.367212e+02
      vertex   -5.946517e+00 6.070236e+00 -2.367212e+02
      vertex   -5.303991e+00 6.518853e+00 -2.367212e+02
    endloop
  endfacet
  facet normal 4.479113e-14 -5.624672e-15 -1.000000e+00
    outer loop
      vertex   -7.956288e+00 -4.496178e+00 -2.367212e+02
      vertex   -5.303991e+00 6.518853e+00 -2.367212e+02
      vertex   -4.621167e+00 6.903363e+00 -2.367212e+02
    endloop
  endfacet
  facet normal -3.797187e-15 8.590627e-15 -1.000000e+00
    outer loop
      vertex   -4.621167e+00 6.903363e+00 -2.367212e+02
      vertex   -3.904420e+00 7.220176e+00 -2.367212e+02
      vertex   -7.956288e+00 -4.496178e+00 -2.367212e+02
    endloop
  endfacet
  facet normal -2.718986e-15 8.217752e-15 -1.000000e+00
    outer loop
      vertex   -7.956288e+00 -4.496178e+00 -2.367212e+02
      vertex   -3.904420e+00 7.220176e+00 -2.367212e+02
      vertex   -3.160443e+00 7.466334e+00 -2.367212e+02
    endloop
  endfacet
  facet normal -1.776781e-15 7.840017e-15 -1.000000e+00
    outer loop
      vertex   -7.956288e+00 -4.496178e+00 -2.367212e+02
      vertex   -3.160443e+00 7.466334e+00 -2.367212e+02
      vertex   -2.396181e+00 7.639539e+00 -2.367212e+02
    endloop
  endfacet
  facet normal 3.786933e-14 -1.032427e-14 -1.000000e+00
    outer loop
      vertex   -2.396181e+00 7.639539e+00 -2.367212e+02
      vertex   -1.618770e+00 7.738173e+00 -2.367212e+02
      vertex   -7.956288e+00 -4.496178e+00 -2.367212e+02
    endloop
  endfacet
  facet normal -2.788113e-16 9.436856e-15 -1.000000e+00
    outer loop
      vertex   -7.956288e+00 -4.496178e+00 -2.367212e+02
      vertex   -1.618770e+00 7.738173e+00 -2.367212e+02
      vertex   -8.354686e-01 7.761315e+00 -2.367212e+02
    endloop
  endfacet
  facet normal 6.001042e-16 8.926262e-15 -1.000000e+00
    outer loop
      vertex   -7.956288e+00 -4.496178e+00 -2.367212e+02
      vertex   -8.354686e-01 7.761315e+00 -2.367212e+02
      vertex   -5.359054e-02 7.708750e+00 -2.367212e+02
    endloop
  endfacet
  facet normal 1.390669e-15 8.414371e-15 -1.000000e+00
    outer loop
      vertex   -5.359054e-02 7.708750e+00 -2.367212e+02
      vertex   7.195642e-01 7.580969e+00 -2.367212e+02
      vertex   -7.956288e+00 -4.496178e+00 -2.367212e+02
    endloop
  endfacet
  facet normal 3.360889e-14 -1.473021e-14 -1.000000e+00
    outer loop
      vertex   -7.956288e+00 -4.496178e+00 -2.367212e+02
      vertex   7.195642e-01 7.580969e+00 -2.367212e+02
      vertex   1.476777e+00 7.379163e+00 -2.367212e+02
    endloop
  endfacet
  facet normal 3.444202e-15 9.230822e-15 -1.000000e+00
    outer loop
      vertex   -7.956288e+00 -4.496178e+00 -2.367212e+02
      vertex   1.476777e+00 7.379163e+00 -2.367212e+02
      vertex   2.210978e+00 7.105219e+00 -2.367212e+02
    endloop
  endfacet
  facet normal 4.185368e-15 8.581277e-15 -1.000000e+00
    outer loop
      vertex   2.210978e+00 7.105219e+00 -2.367212e+02
      vertex   2.915311e+00 6.761692e+00 -2.367212e+02
      vertex   -7.956288e+00 -4.496178e+00 -2.367212e+02
    endloop
  endfacet
  facet normal 4.864212e-15 7.925725e-15 -1.000000e+00
    outer loop
      vertex   -7.956288e+00 -4.496178e+00 -2.367212e+02
      vertex   2.915311e+00 6.761692e+00 -2.367212e+02
      vertex   3.583202e+00 6.351791e+00 -2.367212e+02
    endloop
  endfacet
  facet normal 5.487857e-15 7.262325e-15 -1.000000e+00
    outer loop
      vertex   -7.956288e+00 -4.496178e+00 -2.367212e+02
      vertex   3.583202e+00 6.351791e+00 -2.367212e+02
      vertex   4.208413e+00 5.879343e+00 -2.367212e+02
    endloop
  endfacet
  facet normal 6.062156e-15 6.588993e-15 -1.000000e+00
    outer loop
      vertex   4.208413e+00 5.879343e+00 -2.367212e+02
      vertex   4.785108e+00 5.348759e+00 -2.367212e+02
      vertex   -7.956288e+00 -4.496178e+00 -2.367212e+02
    endloop
  endfacet
  facet normal 2.882574e-14 -2.287181e-14 -1.000000e+00
    outer loop
      vertex   -7.956288e+00 -4.496178e+00 -2.367212e+02
      vertex   4.785108e+00 5.348759e+00 -2.367212e+02
      vertex   5.307902e+00 4.764993e+00 -2.367212e+02
    endloop
  endfacet
  facet normal 8.497150e-15 6.243534e-15 -1.000000e+00
    outer loop
      vertex   -7.956288e+00 -4.496178e+00 -2.367212e+02
      vertex   5.307902e+00 4.764993e+00 -2.367212e+02
      vertex   5.771914e+00 4.133496e+00 -2.367212e+02
    endloop
  endfacet
  facet normal -9.538399e-15 -4.494688e-15 1.000000e+00
    outer loop
      vertex   6.506851e+00 2.751280e+00 -2.307212e+02
      vertex   6.172811e+00 3.460162e+00 -2.307212e+02
      vertex   -7.956288e+00 -4.496178e+00 -2.307212e+02
    endloop
  endfacet
  facet normal -9.038910e-15 -5.381695e-15 1.000000e+00
    outer loop
      vertex   -7.956288e+00 -4.496178e+00 -2.307212e+02
      vertex   6.172811e+00 3.460162e+00 -2.307212e+02
      vertex   5.771914e+00 4.133496e+00 -2.307212e+02
    endloop
  endfacet
  facet normal -8.497150e-15 -6.243534e-15 1.000000e+00
    outer loop
      vertex   -7.956288e+00 -4.496178e+00 -2.307212e+02
      vertex   5.771914e+00 4.133496e+00 -2.307212e+02
      vertex   5.307902e+00 4.764993e+00 -2.307212e+02
    endloop
  endfacet
  facet normal -7.910276e-15 -7.084077e-15 1.000000e+00
    outer loop
      vertex   5.307902e+00 4.764993e+00 -2.307212e+02
      vertex   4.785108e+00 5.348759e+00 -2.307212e+02
      vertex   -7.956288e+00 -4.496178e+00 -2.307212e+02
    endloop
  endfacet
  facet normal -2.977114e-14 2.120842e-14 1.000000e+00
    outer loop
      vertex   -7.956288e+00 -4.496178e+00 -2.307212e+02
      vertex   4.785108e+00 5.348759e+00 -2.307212e+02
      vertex   4.208413e+00 5.879343e+00 -2.307212e+02
    endloop
  endfacet
  facet normal -5.487857e-15 -7.262325e-15 1.000000e+00
    outer loop
      vertex   -7.956288e+00 -4.496178e+00 -2.307212e+02
      vertex   4.208413e+00 5.879343e+00 -2.307212e+02
      vertex   3.583202e+00 6.351791e+00 -2.307212e+02
    endloop
  endfacet
  facet normal -4.864212e-15 -7.925725e-15 1.000000e+00
    outer loop
      vertex   3.583202e+00 6.351791e+00 -2.307212e+02
      vertex   2.915311e+00 6.761692e+00 -2.307212e+02
      vertex   -7.956288e+00 -4.496178e+00 -2.307212e+02
    endloop
  endfacet
  facet normal -4.185368e-15 -8.581277e-15 1.000000e+00
    outer loop
      vertex   -7.956288e+00 -4.496178e+00 -2.307212e+02
      vertex   2.915311e+00 6.761692e+00 -2.307212e+02
      vertex   2.210978e+00 7.105219e+00 -2.307212e+02
    endloop
  endfacet
  facet normal -3.444202e-15 -9.230822e-15 1.000000e+00
    outer loop
      vertex   -7.956288e+00 -4.496178e+00 -2.307212e+02
      vertex   2.210978e+00 7.105219e+00 -2.307212e+02
      vertex   1.476777e+00 7.379163e+00 -2.307212e+02
    endloop
  endfacet
  facet normal -2.632047e-15 -9.875950e-15 1.000000e+00
    outer loop
      vertex   1.476777e+00 7.379163e+00 -2.307212e+02
      vertex   7.195642e-01 7.580969e+00 -2.307212e+02
      vertex   -7.956288e+00 -4.496178e+00 -2.307212e+02
    endloop
  endfacet
  facet normal -3.459774e-14 1.308722e-14 1.000000e+00
    outer loop
      vertex   -7.956288e+00 -4.496178e+00 -2.307212e+02
      vertex   7.195642e-01 7.580969e+00 -2.307212e+02
      vertex   -5.359054e-02 7.708750e+00 -2.307212e+02
    endloop
  endfacet
  facet normal -6.001042e-16 -8.926262e-15 1.000000e+00
    outer loop
      vertex   -7.956288e+00 -4.496178e+00 -2.307212e+02
      vertex   -5.359054e-02 7.708750e+00 -2.307212e+02
      vertex   -8.354686e-01 7.761315e+00 -2.307212e+02
    endloop
  endfacet
  facet normal 2.788113e-16 -9.436856e-15 1.000000e+00
    outer loop
      vertex   -8.354686e-01 7.761315e+00 -2.307212e+02
      vertex   -1.618770e+00 7.738173e+00 -2.307212e+02
      vertex   -7.956288e+00 -4.496178e+00 -2.307212e+02
    endloop
  endfacet
  facet normal 1.261913e-15 -9.946113e-15 1.000000e+00
    outer loop
      vertex   -7.956288e+00 -4.496178e+00 -2.307212e+02
      vertex   -1.618770e+00 7.738173e+00 -2.307212e+02
      vertex   -2.396181e+00 7.639539e+00 -2.307212e+02
    endloop
  endfacet
  facet normal -3.912816e-14 8.559028e-15 1.000000e+00
    outer loop
      vertex   -7.956288e+00 -4.496178e+00 -2.307212e+02
      vertex   -2.396181e+00 7.639539e+00 -2.307212e+02
      vertex   -3.160443e+00 7.466334e+00 -2.307212e+02
    endloop
  endfacet
  facet normal 2.718986e-15 -8.217752e-15 1.000000e+00
    outer loop
      vertex   -3.160443e+00 7.466334e+00 -2.307212e+02
      vertex   -3.904420e+00 7.220176e+00 -2.307212e+02
      vertex   -7.956288e+00 -4.496178e+00 -2.307212e+02
    endloop
  endfacet
  facet normal 3.797187e-15 -8.590627e-15 1.000000e+00
    outer loop
      vertex   -7.956288e+00 -4.496178e+00 -2.307212e+02
      vertex   -3.904420e+00 7.220176e+00 -2.307212e+02
      vertex   -4.621167e+00 6.903363e+00 -2.307212e+02
    endloop
  endfacet
  facet normal 5.042733e-15 -8.955031e-15 1.000000e+00
    outer loop
      vertex   -7.956288e+00 -4.496178e+00 -2.307212e+02
      vertex   -4.621167e+00 6.903363e+00 -2.307212e+02
      vertex   -5.303991e+00 6.518853e+00 -2.307212e+02
    endloop
  endfacet
  facet normal -4.667705e-14 3.498516e-15 1.000000e+00
    outer loop
      vertex   -5.303991e+00 6.518853e+00 -2.307212e+02
      vertex   -5.946517e+00 6.070236e+00 -2.307212e+02
      vertex   -7.956288e+00 -4.496178e+00 -2.307212e+02
    endloop
  endfacet
  facet normal 5.476909e-15 -6.421360e-15 1.000000e+00
    outer loop
      vertex   -7.956288e+00 -4.496178e+00 -2.307212e+02
      vertex   -5.946517e+00 6.070236e+00 -2.307212e+02
      vertex   -6.542745e+00 5.561701e+00 -2.307212e+02
    endloop
  endfacet
  facet normal 6.849233e-15 -6.614228e-15 1.000000e+00
    outer loop
      vertex   -7.956288e+00 -4.496178e+00 -2.307212e+02
      vertex   -6.542745e+00 5.561701e+00 -2.307212e+02
      vertex   -7.087109e+00 4.997996e+00 -2.307212e+02
    endloop
  endfacet
  facet normal 8.519151e-15 -6.767106e-15 1.000000e+00
    outer loop
      vertex   -7.087109e+00 4.997996e+00 -2.307212e+02
      vertex   -7.574527e+00 4.384383e+00 -2.307212e+02
      vertex   -7.956288e+00 -4.496178e+00 -2.307212e+02
    endloop
  endfacet
  facet normal -6.088703e-14 -3.783445e-15 1.000000e+00
    outer loop
      vertex   -7.956288e+00 -4.496178e+00 -2.307212e+02
      vertex   -7.574527e+00 4.384383e+00 -2.307212e+02
      vertex   -8.000447e+00 3.726592e+00 -2.307212e+02
    endloop
  endfacet
  facet normal 6.604114e-15 -3.420998e-15 1.000000e+00
    outer loop
      vertex   -7.956288e+00 -4.496178e+00 -2.307212e+02
      vertex   -8.000447e+00 3.726592e+00 -2.307212e+02
      vertex   -8.360892e+00 3.030765e+00 -2.307212e+02
    endloop
  endfacet
  facet normal 8.305094e-15 -3.329563e-15 1.000000e+00
    outer loop
      vertex   -8.360892e+00 3.030765e+00 -2.307212e+02
      vertex   -8.652498e+00 2.303398e+00 -2.307212e+02
      vertex   -7.956288e+00 -4.496178e+00 -2.307212e+02
    endloop
  endfacet
  facet normal 1.058325e-14 -3.096302e-15 1.000000e+00
    outer loop
      vertex   -7.956288e+00 -4.496178e+00 -2.307212e+02
      vertex   -8.652498e+00 2.303398e+00 -2.307212e+02
      vertex   -8.872541e+00 1.551283e+00 -2.307212e+02
    endloop
  endfacet
  facet normal 1.375353e-14 -2.615972e-15 1.000000e+00
    outer loop
      vertex   -7.956288e+00 -4.496178e+00 -2.307212e+02
      vertex   -8.872541e+00 1.551283e+00 -2.307212e+02
      vertex   -9.018968e+00 7.814417e-01 -2.307212e+02
    endloop
  endfacet
  facet normal -1.059561e-13 -2.672023e-14 1.000000e+00
    outer loop
      vertex   -9.018968e+00 7.814417e-01 -2.307212e+02
      vertex   -9.090411e+00 1.062081e-03 -2.307212e+02
      vertex   -7.956288e+00 -4.496178e+00 -2.307212e+02
    endloop
  endfacet
  facet normal 0.000000e+00 0.000000e+00 1.000000e+00
    outer loop
      vertex   -7.956288e+00 -4.496178e+00 -2.307212e+02
      vertex   -9.090411e+00 1.062081e-03 -2.307212e+02
      vertex   -9.086202e+00 -7.825696e-01 -2.307212e+02
    endloop
  endfacet
  facet normal 0.000000e+00 0.000000e+00 1.000000e+00
    outer loop
      vertex   -7.956288e+00 -4.496178e+00 -2.307212e+02
      vertex   -9.086202e+00 -7.825696e-01 -2.307212e+02
      vertex   -9.006382e+00 -1.562137e+00 -2.307212e+02
    endloop
  endfacet
  facet normal 0.000000e+00 0.000000e+00 1.000000e+00
    outer loop
      vertex   -9.006382e+00 -1.562137e+00 -2.307212e+02
      vertex   -8.851696e+00 -2.330361e+00 -2.307212e+02
      vertex   -7.956288e+00 -4.496178e+00 -2.307212e+02
    endloop
  endfacet
  facet normal 0.000000e+00 0.000000e+00 1.000000e+00
    outer loop
      vertex   -7.956288e+00 -4.496178e+00 -2.307212e+02
      vertex   -8.851696e+00 -2.330361e+00 -2.307212e+02
      vertex   -8.324186e+00 -3.804262e+00 -2.307212e+02
    endloop
  endfacet
  facet normal 0.000000e+00 0.000000e+00 1.000000e+00
    outer loop
      vertex   -8.324186e+00 -3.804262e+00 -2.307212e+02
      vertex   -8.851696e+00 -2.330361e+00 -2.307212e+02
      vertex   -8.623587e+00 -3.080070e+00 -2.307212e+02
    endloop
  endfacet
  facet normal -8.850840e-15 -5.866792e-15 1.000000e+00
    outer loop
      vertex   -7.956288e+00 -4.496178e+00 -2.307212e+02
      vertex   -7.523328e+00 -5.149357e+00 -2.307212e+02
      vertex   6.506851e+00 2.751280e+00 -2.307212e+02
    endloop
  endfacet
  facet normal -1.011580e-14 -3.620447e-15 1.000000e+00
    outer loop
      vertex   6.506851e+00 2.751280e+00 -2.307212e+02
      vertex   -7.523328e+00 -5.149357e+00 -2.307212e+02
      vertex   6.770914e+00 2.013468e+00 -2.307212e+02
    endloop
  endfacet
  facet normal -8.479653e-15 -6.885558e-15 1.000000e+00
    outer loop
      vertex   6.770914e+00 2.013468e+00 -2.307212e+02
      vertex   -7.523328e+00 -5.149357e+00 -2.307212e+02
      vertex   -7.029348e+00 -5.757699e+00 -2.307212e+02
    endloop
  endfacet
  facet normal -1.082044e-14 -2.728720e-15 1.000000e+00
    outer loop
      vertex   6.770914e+00 2.013468e+00 -2.307212e+02
      vertex   -7.029348e+00 -5.757699e+00 -2.307212e+02
      vertex   6.962535e+00 1.253614e+00 -2.307212e+02
    endloop
  endfacet
  facet normal -8.155561e-15 -8.046796e-15 1.000000e+00
    outer loop
      vertex   6.962535e+00 1.253614e+00 -2.307212e+02
      vertex   -7.029348e+00 -5.757699e+00 -2.307212e+02
      vertex   -6.478961e+00 -6.315525e+00 -2.307212e+02
    endloop
  endfacet
  facet normal -1.168952e-14 -1.771085e-15 1.000000e+00
    outer loop
      vertex   6.962535e+00 1.253614e+00 -2.307212e+02
      vertex   -6.478961e+00 -6.315525e+00 -2.307212e+02
      vertex   7.079926e+00 4.788136e-01 -2.307212e+02
    endloop
  endfacet
  facet normal -2.558145e-14 2.595185e-14 1.000000e+00
    outer loop
      vertex   7.079926e+00 4.788136e-01 -2.307212e+02
      vertex   -6.478961e+00 -6.315525e+00 -2.307212e+02
      vertex   -5.877305e+00 -6.817628e+00 -2.307212e+02
    endloop
  endfacet
  facet normal -1.064528e-14 -5.722276e-16 1.000000e+00
    outer loop
      vertex   7.079926e+00 4.788136e-01 -2.307212e+02
      vertex   -5.877305e+00 -6.817628e+00 -2.307212e+02
      vertex   7.121989e+00 -3.036997e-01 -2.307212e+02
    endloop
  endfacet
  facet normal -6.303160e-15 -9.237423e-15 1.000000e+00
    outer loop
      vertex   7.121989e+00 -3.036997e-01 -2.307212e+02
      vertex   -5.877305e+00 -6.817628e+00 -2.307212e+02
      vertex   -5.229998e+00 -7.259318e+00 -2.307212e+02
    endloop
  endfacet
  facet normal 9.159201e-15 -3.669593e-14 1.000000e+00
    outer loop
      vertex   7.121989e+00 -3.036997e-01 -2.307212e+02
      vertex   -5.229998e+00 -7.259318e+00 -2.307212e+02
      vertex   7.088333e+00 -1.086620e+00 -2.307212e+02
    endloop
  endfacet
  facet normal -4.825269e-15 -8.788308e-15 1.000000e+00
    outer loop
      vertex   7.088333e+00 -1.086620e+00 -2.307212e+02
      vertex   -5.229998e+00 -7.259318e+00 -2.307212e+02
      vertex   -4.543084e+00 -7.636472e+00 -2.307212e+02
    endloop
  endfacet
  facet normal -1.061413e-14 1.491719e-15 1.000000e+00
    outer loop
      vertex   7.088333e+00 -1.086620e+00 -2.307212e+02
      vertex   -4.543084e+00 -7.636472e+00 -2.307212e+02
      vertex   6.979271e+00 -1.862636e+00 -2.307212e+02
    endloop
  endfacet
  facet normal -4.552250e-15 -1.060546e-14 1.000000e+00
    outer loop
      vertex   6.979271e+00 -1.862636e+00 -2.307212e+02
      vertex   -4.543084e+00 -7.636472e+00 -2.307212e+02
      vertex   -3.822976e+00 -7.945568e+00 -2.307212e+02
    endloop
  endfacet
  facet normal -1.217524e-14 2.931662e-15 1.000000e+00
    outer loop
      vertex   6.979271e+00 -1.862636e+00 -2.307212e+02
      vertex   -3.822976e+00 -7.945568e+00 -2.307212e+02
      vertex   6.795821e+00 -2.624504e+00 -2.307212e+02
    endloop
  endfacet
  facet normal -4.164410e-15 -1.305487e-14 1.000000e+00
    outer loop
      vertex   6.795821e+00 -2.624504e+00 -2.307212e+02
      vertex   -3.822976e+00 -7.945568e+00 -2.307212e+02
      vertex   -3.076397e+00 -8.183722e+00 -2.307212e+02
    endloop
  endfacet
  facet normal -1.430082e-14 4.945652e-15 1.000000e+00
    outer loop
      vertex   6.795821e+00 -2.624504e+00 -2.307212e+02
      vertex   -3.076397e+00 -8.183722e+00 -2.307212e+02
      vertex   6.539698e+00 -3.365110e+00 -2.307212e+02
    endloop
  endfacet
  facet normal -2.950194e-14 3.528124e-14 1.000000e+00
    outer loop
      vertex   6.539698e+00 -3.365110e+00 -2.307212e+02
      vertex   -3.076397e+00 -8.183722e+00 -2.307212e+02
      vertex   -2.310319e+00 -8.348708e+00 -2.307212e+02
    endloop
  endfacet
  facet normal -1.298441e-14 5.948947e-15 1.000000e+00
    outer loop
      vertex   6.539698e+00 -3.365110e+00 -2.307212e+02
      vertex   -2.310319e+00 -8.348708e+00 -2.307212e+02
      vertex   6.213291e+00 -4.077539e+00 -2.307212e+02
    endloop
  endfacet
  facet normal -1.880090e-15 -1.621101e-14 1.000000e+00
    outer loop
      vertex   6.213291e+00 -4.077539e+00 -2.307212e+02
      vertex   -2.310319e+00 -8.348708e+00 -2.307212e+02
      vertex   -1.531894e+00 -8.438986e+00 -2.307212e+02
    endloop
  endfacet
  facet normal -1.636107e-14 9.504737e-15 1.000000e+00
    outer loop
      vertex   6.213291e+00 -4.077539e+00 -2.307212e+02
      vertex   -1.531894e+00 -8.438986e+00 -2.307212e+02
      vertex   5.819648e+00 -4.755139e+00 -2.307212e+02
    endloop
  endfacet
  facet normal -4.193621e-16 -2.230879e-14 1.000000e+00
    outer loop
      vertex   5.819648e+00 -4.755139e+00 -2.307212e+02
      vertex   -1.531894e+00 -8.438986e+00 -2.307212e+02
      vertex   -7.483891e-01 -8.453715e+00 -2.307212e+02
    endloop
  endfacet
  facet normal 2.042960e-14 -5.933298e-14 1.000000e+00
    outer loop
      vertex   5.819648e+00 -4.755139e+00 -2.307212e+02
      vertex   -7.483891e-01 -8.453715e+00 -2.307212e+02
      vertex   5.362446e+00 -5.391584e+00 -2.307212e+02
    endloop
  endfacet
  facet normal 1.715561e-15 -2.198695e-14 1.000000e+00
    outer loop
      vertex   5.362446e+00 -5.391584e+00 -2.307212e+02
      vertex   -7.483891e-01 -8.453715e+00 -2.307212e+02
      vertex   3.287931e-02 -8.392755e+00 -2.307212e+02
    endloop
  endfacet
  facet normal -2.105786e-14 1.845475e-14 1.000000e+00
    outer loop
      vertex   5.362446e+00 -5.391584e+00 -2.307212e+02
      vertex   3.287931e-02 -8.392755e+00 -2.307212e+02
      vertex   4.845952e+00 -5.980932e+00 -2.307212e+02
    endloop
  endfacet
  facet normal -5.041111e-14 7.703254e-14 1.000000e+00
    outer loop
      vertex   4.845952e+00 -5.980932e+00 -2.307212e+02
      vertex   3.287931e-02 -8.392755e+00 -2.307212e+02
      vertex   8.046170e-01 -8.256677e+00 -2.307212e+02
    endloop
  endfacet
  facet normal -1.753865e-14 1.865668e-14 1.000000e+00
    outer loop
      vertex   4.845952e+00 -5.980932e+00 -2.307212e+02
      vertex   8.046170e-01 -8.256677e+00 -2.307212e+02
      vertex   4.274989e+00 -6.517679e+00 -2.307212e+02
    endloop
  endfacet
  facet normal 1.020914e-14 -3.671724e-14 1.000000e+00
    outer loop
      vertex   4.274989e+00 -6.517679e+00 -2.307212e+02
      vertex   8.046170e-01 -8.256677e+00 -2.307212e+02
      vertex   1.559619e+00 -8.046751e+00 -2.307212e+02
    endloop
  endfacet
  facet normal -3.859374e-14 4.994832e-14 1.000000e+00
    outer loop
      vertex   4.274989e+00 -6.517679e+00 -2.307212e+02
      vertex   1.559619e+00 -8.046751e+00 -2.307212e+02
      vertex   3.654888e+00 -6.996814e+00 -2.307212e+02
    endloop
  endfacet
  facet normal 4.518762e-14 -1.172470e-13 1.000000e+00
    outer loop
      vertex   3.654888e+00 -6.996814e+00 -2.307212e+02
      vertex   1.559619e+00 -8.046751e+00 -2.307212e+02
      vertex   2.290835e+00 -7.764936e+00 -2.307212e+02
    endloop
  endfacet
  facet normal 1.683523e-13 -3.359665e-13 1.000000e+00
    outer loop
      vertex   3.654888e+00 -6.996814e+00 -2.307212e+02
      vertex   2.290835e+00 -7.764936e+00 -2.307212e+02
      vertex   2.991438e+00 -7.413865e+00 -2.307212e+02
    endloop
  endfacet
endsolid
