solid Pmt
  facet normal -9.988673e-01 -4.758192e-02 1.415751e-16
    outer loop
      vertex   -1.363039e+01 -1.554464e+00 -2.617212e+02
      vertex   -1.363039e+01 -1.554464e+00 -2.567212e+02
      vertex   -1.368789e+01 -3.472522e-01 -2.617212e+02
    endloop
  endfacet
  facet normal -9.988673e-01 -4.758192e-02 1.394621e-16
    outer loop
      vertex   -1.368789e+01 -3.472522e-01 -2.617212e+02
      vertex   -1.363039e+01 -1.554464e+00 -2.567212e+02
      vertex   -1.368789e+01 -3.472522e-01 -2.567212e+02
    endloop
  endfacet
  facet normal -9.988673e-01 4.758192e-02 -1.394621e-16
    outer loop
      vertex   -1.368789e+01 -3.472522e-01 -2.617212e+02
      vertex   -1.368789e+01 -3.472522e-01 -2.567212e+02
      vertex   -1.363039e+01 8.599596e-01 -2.617212e+02
    endloop
  endfacet
  facet normal -9.988673e-01 4.758192e-02 -1.394621e-16
    outer loop
      vertex   -1.363039e+01 8.599596e-01 -2.617212e+02
      vertex   -1.368789e+01 -3.472522e-01 -2.567212e+02
      vertex   -1.363039e+01 8.599596e-01 -2.567212e+02
    endloop
  endfacet
  facet normal -9.898214e-01 1.423148e-01 -4.171232e-16
    outer loop
      vertex   -1.363039e+01 8.599596e-01 -2.617212e+02
      vertex   -1.363039e+01 8.599596e-01 -2.567212e+02
      vertex   -1.345839e+01 2.056239e+00 -2.617212e+02
    endloop
  endfacet
  facet normal -9.898214e-01 1.423148e-01 -4.297633e-16
    outer loop
      vertex   -1.345839e+01 2.056239e+00 -2.617212e+02
      vertex   -1.363039e+01 8.599596e-01 -2.567212e+02
      vertex   -1.345839e+01 2.056239e+00 -2.567212e+02
    endloop
  endfacet
  facet normal -9.718116e-01 2.357589e-01 -7.119464e-16
    outer loop
      vertex   -1.345839e+01 2.056239e+00 -2.617212e+02
      vertex   -1.345839e+01 2.056239e+00 -2.567212e+02
      vertex   -1.317345e+01 3.230751e+00 -2.617212e+02
    endloop
  endfacet
  facet normal -9.718116e-01 2.357589e-01 -6.910068e-16
    outer loop
      vertex   -1.317345e+01 3.230751e+00 -2.617212e+02
      vertex   -1.345839e+01 2.056239e+00 -2.567212e+02
      vertex   -1.317345e+01 3.230751e+00 -2.567212e+02
    endloop
  endfacet
  facet normal -9.450008e-01 3.270680e-01 -9.586325e-16
    outer loop
      vertex   -1.317345e+01 3.230751e+00 -2.617212e+02
      vertex   -1.317345e+01 3.230751e+00 -2.567212e+02
      vertex   -1.277817e+01 4.372861e+00 -2.617212e+02
    endloop
  endfacet
  facet normal -9.450008e-01 3.270680e-01 -9.295831e-16
    outer loop
      vertex   -1.277817e+01 4.372861e+00 -2.617212e+02
      vertex   -1.317345e+01 3.230751e+00 -2.567212e+02
      vertex   -1.277817e+01 4.372861e+00 -2.567212e+02
    endloop
  endfacet
  facet normal -9.096320e-01 4.154150e-01 -1.180680e-15
    outer loop
      vertex   -1.277817e+01 4.372861e+00 -2.617212e+02
      vertex   -1.277817e+01 4.372861e+00 -2.567212e+02
      vertex   -1.227610e+01 5.472225e+00 -2.617212e+02
    endloop
  endfacet
  facet normal -9.096320e-01 4.154150e-01 -1.328266e-15
    outer loop
      vertex   -1.227610e+01 5.472225e+00 -2.617212e+02
      vertex   -1.277817e+01 4.372861e+00 -2.567212e+02
      vertex   -1.227610e+01 5.472225e+00 -2.567212e+02
    endloop
  endfacet
  facet normal -8.660254e-01 5.000000e-01 -1.598721e-15
    outer loop
      vertex   -1.227610e+01 5.472225e+00 -2.617212e+02
      vertex   -1.227610e+01 5.472225e+00 -2.567212e+02
      vertex   -1.167181e+01 6.518886e+00 -2.617212e+02
    endloop
  endfacet
  facet normal -8.660254e-01 5.000000e-01 -1.509903e-15
    outer loop
      vertex   -1.167181e+01 6.518886e+00 -2.617212e+02
      vertex   -1.227610e+01 5.472225e+00 -2.567212e+02
      vertex   -1.167181e+01 6.518886e+00 -2.567212e+02
    endloop
  endfacet
  facet normal -8.145760e-01 5.800569e-01 -1.751660e-15
    outer loop
      vertex   -1.167181e+01 6.518886e+00 -2.617212e+02
      vertex   -1.167181e+01 6.518886e+00 -2.567212e+02
      vertex   -1.097077e+01 7.503367e+00 -2.617212e+02
    endloop
  endfacet
  facet normal -8.145760e-01 5.800569e-01 -1.854699e-15
    outer loop
      vertex   -1.097077e+01 7.503367e+00 -2.617212e+02
      vertex   -1.167181e+01 6.518886e+00 -2.567212e+02
      vertex   -1.097077e+01 7.503367e+00 -2.567212e+02
    endloop
  endfacet
  facet normal -7.557496e-01 6.548607e-01 -2.093879e-15
    outer loop
      vertex   -1.097077e+01 7.503367e+00 -2.617212e+02
      vertex   -1.097077e+01 7.503367e+00 -2.567212e+02
      vertex   -1.017932e+01 8.416751e+00 -2.617212e+02
    endloop
  endfacet
  facet normal -7.557496e-01 6.548607e-01 -1.861226e-15
    outer loop
      vertex   -1.017932e+01 8.416751e+00 -2.617212e+02
      vertex   -1.097077e+01 7.503367e+00 -2.567212e+02
      vertex   -1.017932e+01 8.416751e+00 -2.567212e+02
    endloop
  endfacet
  facet normal -6.900790e-01 7.237340e-01 -2.056976e-15
    outer loop
      vertex   -1.017932e+01 8.416751e+00 -2.617212e+02
      vertex   -1.017932e+01 8.416751e+00 -2.567212e+02
      vertex   -9.304625e+00 9.250767e+00 -2.617212e+02
    endloop
  endfacet
  facet normal -6.900790e-01 7.237340e-01 -2.056976e-15
    outer loop
      vertex   -9.304625e+00 9.250767e+00 -2.617212e+02
      vertex   -1.017932e+01 8.416751e+00 -2.567212e+02
      vertex   -9.304625e+00 9.250767e+00 -2.567212e+02
    endloop
  endfacet
  facet normal -6.181590e-01 7.860531e-01 -2.234097e-15
    outer loop
      vertex   -9.304625e+00 9.250767e+00 -2.617212e+02
      vertex   -9.304625e+00 9.250767e+00 -2.567212e+02
      vertex   -8.354617e+00 9.997862e+00 -2.617212e+02
    endloop
  endfacet
  facet normal -6.181590e-01 7.860531e-01 -2.234097e-15
    outer loop
      vertex   -8.354617e+00 9.997862e+00 -2.617212e+02
      vertex   -9.304625e+00 9.250767e+00 -2.567212e+02
      vertex   -8.354617e+00 9.997862e+00 -2.567212e+02
    endloop
  endfacet
  facet normal -5.406408e-01 8.412535e-01 -2.390986e-15
    outer loop
      vertex   -8.354617e+00 9.997862e+00 -2.617212e+02
      vertex   -8.354617e+00 9.997862e+00 -2.567212e+02
      vertex   -7.337894e+00 1.065127e+01 -2.617212e+02
    endloop
  endfacet
  facet normal -5.406408e-01 8.412535e-01 -2.988733e-15
    outer loop
      vertex   -7.337894e+00 1.065127e+01 -2.617212e+02
      vertex   -8.354617e+00 9.997862e+00 -2.567212e+02
      vertex   -7.337894e+00 1.065127e+01 -2.567212e+02
    endloop
  endfacet
  facet normal -4.582265e-01 8.888354e-01 -3.157778e-15
    outer loop
      vertex   -7.337894e+00 1.065127e+01 -2.617212e+02
      vertex   -7.337894e+00 1.065127e+01 -2.567212e+02
      vertex   -6.263665e+00 1.120507e+01 -2.617212e+02
    endloop
  endfacet
  facet normal -4.582265e-01 8.888354e-01 -3.157778e-15
    outer loop
      vertex   -6.263665e+00 1.120507e+01 -2.617212e+02
      vertex   -7.337894e+00 1.065127e+01 -2.567212e+02
      vertex   -6.263665e+00 1.120507e+01 -2.567212e+02
    endloop
  endfacet
  facet normal -3.716625e-01 9.283679e-01 -3.298225e-15
    outer loop
      vertex   -6.263665e+00 1.120507e+01 -2.617212e+02
      vertex   -6.263665e+00 1.120507e+01 -2.567212e+02
      vertex   -5.141657e+00 1.165426e+01 -2.617212e+02
    endloop
  endfacet
  facet normal -3.716625e-01 9.283679e-01 -2.638580e-15
    outer loop
      vertex   -5.141657e+00 1.165426e+01 -2.617212e+02
      vertex   -6.263665e+00 1.120507e+01 -2.567212e+02
      vertex   -5.141657e+00 1.165426e+01 -2.567212e+02
    endloop
  endfacet
  facet normal -2.817326e-01 9.594930e-01 -2.727043e-15
    outer loop
      vertex   -5.141657e+00 1.165426e+01 -2.617212e+02
      vertex   -5.141657e+00 1.165426e+01 -2.567212e+02
      vertex   -3.982032e+00 1.199475e+01 -2.617212e+02
    endloop
  endfacet
  facet normal -2.817326e-01 9.594930e-01 -2.727043e-15
    outer loop
      vertex   -3.982032e+00 1.199475e+01 -2.617212e+02
      vertex   -5.141657e+00 1.165426e+01 -2.567212e+02
      vertex   -3.982032e+00 1.199475e+01 -2.567212e+02
    endloop
  endfacet
  facet normal -1.892512e-01 9.819287e-01 -2.790809e-15
    outer loop
      vertex   -3.982032e+00 1.199475e+01 -2.617212e+02
      vertex   -3.982032e+00 1.199475e+01 -2.567212e+02
      vertex   -2.795292e+00 1.222348e+01 -2.617212e+02
    endloop
  endfacet
  facet normal -1.892512e-01 9.819287e-01 -2.790809e-15
    outer loop
      vertex   -2.795292e+00 1.222348e+01 -2.617212e+02
      vertex   -3.982032e+00 1.199475e+01 -2.567212e+02
      vertex   -2.795292e+00 1.222348e+01 -2.567212e+02
    endloop
  endfacet
  facet normal -9.505604e-02 9.954719e-01 -2.829301e-15
    outer loop
      vertex   -2.795292e+00 1.222348e+01 -2.617212e+02
      vertex   -2.795292e+00 1.222348e+01 -2.567212e+02
      vertex   -1.592184e+00 1.233836e+01 -2.617212e+02
    endloop
  endfacet
  facet normal -9.505604e-02 9.954719e-01 -3.536627e-15
    outer loop
      vertex   -1.592184e+00 1.233836e+01 -2.617212e+02
      vertex   -2.795292e+00 1.222348e+01 -2.567212e+02
      vertex   -1.592184e+00 1.233836e+01 -2.567212e+02
    endloop
  endfacet
  facet normal 0.000000e+00 1.000000e+00 -3.552714e-15
    outer loop
      vertex   -1.592184e+00 1.233836e+01 -2.617212e+02
      vertex   -1.592184e+00 1.233836e+01 -2.567212e+02
      vertex   -3.836037e-01 1.233836e+01 -2.617212e+02
    endloop
  endfacet
  facet normal 0.000000e+00 1.000000e+00 -3.552714e-15
    outer loop
      vertex   -3.836037e-01 1.233836e+01 -2.617212e+02
      vertex   -1.592184e+00 1.233836e+01 -2.567212e+02
      vertex   -3.836037e-01 1.233836e+01 -2.567212e+02
    endloop
  endfacet
  facet normal 9.505604e-02 9.954719e-01 -3.536627e-15
    outer loop
      vertex   -3.836037e-01 1.233836e+01 -2.617212e+02
      vertex   -3.836037e-01 1.233836e+01 -2.567212e+02
      vertex   8.195045e-01 1.222348e+01 -2.617212e+02
    endloop
  endfacet
  facet normal 9.505604e-02 9.954719e-01 -2.829301e-15
    outer loop
      vertex   8.195045e-01 1.222348e+01 -2.617212e+02
      vertex   -3.836037e-01 1.233836e+01 -2.567212e+02
      vertex   8.195045e-01 1.222348e+01 -2.567212e+02
    endloop
  endfacet
  facet normal 1.892512e-01 9.819287e-01 -2.790809e-15
    outer loop
      vertex   8.195045e-01 1.222348e+01 -2.617212e+02
      vertex   8.195045e-01 1.222348e+01 -2.567212e+02
      vertex   2.006244e+00 1.199475e+01 -2.617212e+02
    endloop
  endfacet
  facet normal 1.892512e-01 9.819287e-01 -2.790809e-15
    outer loop
      vertex   2.006244e+00 1.199475e+01 -2.617212e+02
      vertex   8.195045e-01 1.222348e+01 -2.567212e+02
      vertex   2.006244e+00 1.199475e+01 -2.567212e+02
    endloop
  endfacet
  facet normal 2.817326e-01 9.594930e-01 -2.727043e-15
    outer loop
      vertex   2.006244e+00 1.199475e+01 -2.617212e+02
      vertex   2.006244e+00 1.199475e+01 -2.567212e+02
      vertex   3.165869e+00 1.165426e+01 -2.617212e+02
    endloop
  endfacet
  facet normal 2.817326e-01 9.594930e-01 -2.727043e-15
    outer loop
      vertex   3.165869e+00 1.165426e+01 -2.617212e+02
      vertex   2.006244e+00 1.199475e+01 -2.567212e+02
      vertex   3.165869e+00 1.165426e+01 -2.567212e+02
    endloop
  endfacet
  facet normal 3.716625e-01 9.283679e-01 -2.638580e-15
    outer loop
      vertex   3.165869e+00 1.165426e+01 -2.617212e+02
      vertex   3.165869e+00 1.165426e+01 -2.567212e+02
      vertex   4.287877e+00 1.120507e+01 -2.617212e+02
    endloop
  endfacet
  facet normal 3.716625e-01 9.283679e-01 -2.638580e-15
    outer loop
      vertex   4.287877e+00 1.120507e+01 -2.617212e+02
      vertex   3.165869e+00 1.165426e+01 -2.567212e+02
      vertex   4.287877e+00 1.120507e+01 -2.567212e+02
    endloop
  endfacet
  facet normal 4.582265e-01 8.888354e-01 -2.526222e-15
    outer loop
      vertex   4.287877e+00 1.120507e+01 -2.617212e+02
      vertex   4.287877e+00 1.120507e+01 -2.567212e+02
      vertex   5.362106e+00 1.065127e+01 -2.617212e+02
    endloop
  endfacet
  facet normal 4.582265e-01 8.888354e-01 -1.894667e-15
    outer loop
      vertex   5.362106e+00 1.065127e+01 -2.617212e+02
      vertex   4.287877e+00 1.120507e+01 -2.567212e+02
      vertex   5.362106e+00 1.065127e+01 -2.567212e+02
    endloop
  endfacet
  facet normal 5.406408e-01 8.412535e-01 -1.793240e-15
    outer loop
      vertex   5.362106e+00 1.065127e+01 -2.617212e+02
      vertex   5.362106e+00 1.065127e+01 -2.567212e+02
      vertex   6.378829e+00 9.997862e+00 -2.617212e+02
    endloop
  endfacet
  facet normal 5.406408e-01 8.412535e-01 -1.793240e-15
    outer loop
      vertex   6.378829e+00 9.997862e+00 -2.617212e+02
      vertex   5.362106e+00 1.065127e+01 -2.567212e+02
      vertex   6.378829e+00 9.997862e+00 -2.567212e+02
    endloop
  endfacet
  facet normal 6.181590e-01 7.860531e-01 -1.675573e-15
    outer loop
      vertex   6.378829e+00 9.997862e+00 -2.617212e+02
      vertex   6.378829e+00 9.997862e+00 -2.567212e+02
      vertex   7.328837e+00 9.250767e+00 -2.617212e+02
    endloop
  endfacet
  facet normal 6.181590e-01 7.860531e-01 -2.234097e-15
    outer loop
      vertex   7.328837e+00 9.250767e+00 -2.617212e+02
      vertex   6.378829e+00 9.997862e+00 -2.567212e+02
      vertex   7.328837e+00 9.250767e+00 -2.567212e+02
    endloop
  endfacet
  facet normal 6.900790e-01 7.237340e-01 -2.056976e-15
    outer loop
      vertex   7.328837e+00 9.250767e+00 -2.617212e+02
      vertex   7.328837e+00 9.250767e+00 -2.567212e+02
      vertex   8.203528e+00 8.416751e+00 -2.617212e+02
    endloop
  endfacet
  facet normal 6.900790e-01 7.237340e-01 -2.056976e-15
    outer loop
      vertex   8.203528e+00 8.416751e+00 -2.617212e+02
      vertex   7.328837e+00 9.250767e+00 -2.567212e+02
      vertex   8.203528e+00 8.416751e+00 -2.567212e+02
    endloop
  endfacet
  facet normal 7.557496e-01 6.548607e-01 -1.861226e-15
    outer loop
      vertex   8.203528e+00 8.416751e+00 -2.617212e+02
      vertex   8.203528e+00 8.416751e+00 -2.567212e+02
      vertex   8.994980e+00 7.503367e+00 -2.617212e+02
    endloop
  endfacet
  facet normal 7.557496e-01 6.548607e-01 -1.861226e-15
    outer loop
      vertex   8.994980e+00 7.503367e+00 -2.617212e+02
      vertex   8.203528e+00 8.416751e+00 -2.567212e+02
      vertex   8.994980e+00 7.503367e+00 -2.567212e+02
    endloop
  endfacet
  facet normal 8.145760e-01 5.800569e-01 -1.648621e-15
    outer loop
      vertex   8.994980e+00 7.503367e+00 -2.617212e+02
      vertex   8.994980e+00 7.503367e+00 -2.567212e+02
      vertex   9.696026e+00 6.518886e+00 -2.617212e+02
    endloop
  endfacet
  facet normal 8.145760e-01 5.800569e-01 -1.751660e-15
    outer loop
      vertex   9.696026e+00 6.518886e+00 -2.617212e+02
      vertex   8.994980e+00 7.503367e+00 -2.567212e+02
      vertex   9.696026e+00 6.518886e+00 -2.567212e+02
    endloop
  endfacet
  facet normal 8.660254e-01 5.000000e-01 -1.509903e-15
    outer loop
      vertex   9.696026e+00 6.518886e+00 -2.617212e+02
      vertex   9.696026e+00 6.518886e+00 -2.567212e+02
      vertex   1.030032e+01 5.472225e+00 -2.617212e+02
    endloop
  endfacet
  facet normal 8.660254e-01 5.000000e-01 -1.509903e-15
    outer loop
      vertex   1.030032e+01 5.472225e+00 -2.617212e+02
      vertex   9.696026e+00 6.518886e+00 -2.567212e+02
      vertex   1.030032e+01 5.472225e+00 -2.567212e+02
    endloop
  endfacet
  facet normal 9.096320e-01 4.154150e-01 -1.254473e-15
    outer loop
      vertex   1.030032e+01 5.472225e+00 -2.617212e+02
      vertex   1.030032e+01 5.472225e+00 -2.567212e+02
      vertex   1.080238e+01 4.372861e+00 -2.617212e+02
    endloop
  endfacet
  facet normal 9.096320e-01 4.154150e-01 -1.180680e-15
    outer loop
      vertex   1.080238e+01 4.372861e+00 -2.617212e+02
      vertex   1.030032e+01 5.472225e+00 -2.567212e+02
      vertex   1.080238e+01 4.372861e+00 -2.567212e+02
    endloop
  endfacet
  facet normal 9.450008e-01 3.270680e-01 -9.295831e-16
    outer loop
      vertex   1.080238e+01 4.372861e+00 -2.617212e+02
      vertex   1.080238e+01 4.372861e+00 -2.567212e+02
      vertex   1.119767e+01 3.230751e+00 -2.617212e+02
    endloop
  endfacet
  facet normal 9.450008e-01 3.270680e-01 -9.586325e-16
    outer loop
      vertex   1.119767e+01 3.230751e+00 -2.617212e+02
      vertex   1.080238e+01 4.372861e+00 -2.567212e+02
      vertex   1.119767e+01 3.230751e+00 -2.567212e+02
    endloop
  endfacet
  facet normal 9.718116e-01 2.357589e-01 -6.910068e-16
    outer loop
      vertex   1.119767e+01 3.230751e+00 -2.617212e+02
      vertex   1.119767e+01 3.230751e+00 -2.567212e+02
      vertex   1.148260e+01 2.056239e+00 -2.617212e+02
    endloop
  endfacet
  facet normal 9.718116e-01 2.357589e-01 -6.910068e-16
    outer loop
      vertex   1.148260e+01 2.056239e+00 -2.617212e+02
      vertex   1.119767e+01 3.230751e+00 -2.567212e+02
      vertex   1.148260e+01 2.056239e+00 -2.567212e+02
    endloop
  endfacet
  facet normal 9.898214e-01 1.423148e-01 -4.171232e-16
    outer loop
      vertex   1.148260e+01 2.056239e+00 -2.617212e+02
      vertex   1.148260e+01 2.056239e+00 -2.567212e+02
      vertex   1.165460e+01 8.599596e-01 -2.617212e+02
    endloop
  endfacet
  facet normal 9.898214e-01 1.423148e-01 -4.171232e-16
    outer loop
      vertex   1.165460e+01 8.599596e-01 -2.617212e+02
      vertex   1.148260e+01 2.056239e+00 -2.567212e+02
      vertex   1.165460e+01 8.599596e-01 -2.567212e+02
    endloop
  endfacet
  facet normal 9.988673e-01 4.758192e-02 -1.394621e-16
    outer loop
      vertex   1.165460e+01 8.599596e-01 -2.617212e+02
      vertex   1.165460e+01 8.599596e-01 -2.567212e+02
      vertex   1.171211e+01 -3.472522e-01 -2.617212e+02
    endloop
  endfacet
  facet normal 9.988673e-01 4.758192e-02 -1.394621e-16
    outer loop
      vertex   1.171211e+01 -3.472522e-01 -2.617212e+02
      vertex   1.165460e+01 8.599596e-01 -2.567212e+02
      vertex   1.171211e+01 -3.472522e-01 -2.567212e+02
    endloop
  endfacet
  facet normal 9.988673e-01 -4.758192e-02 1.394621e-16
    outer loop
      vertex   1.171211e+01 -3.472522e-01 -2.617212e+02
      vertex   1.171211e+01 -3.472522e-01 -2.567212e+02
      vertex   1.165460e+01 -1.554464e+00 -2.617212e+02
    endloop
  endfacet
  facet normal 9.988673e-01 -4.758192e-02 1.394621e-16
    outer loop
      vertex   1.165460e+01 -1.554464e+00 -2.617212e+02
      vertex   1.171211e+01 -3.472522e-01 -2.567212e+02
      vertex   1.165460e+01 -1.554464e+00 -2.567212e+02
    endloop
  endfacet
  facet normal 9.898214e-01 -1.423148e-01 4.171232e-16
    outer loop
      vertex   1.165460e+01 -1.554464e+00 -2.617212e+02
      vertex   1.165460e+01 -1.554464e+00 -2.567212e+02
      vertex   1.148260e+01 -2.750743e+00 -2.617212e+02
    endloop
  endfacet
  facet normal 9.898214e-01 -1.423148e-01 4.171232e-16
    outer loop
      vertex   1.148260e+01 -2.750743e+00 -2.617212e+02
      vertex   1.165460e+01 -1.554464e+00 -2.567212e+02
      vertex   1.148260e+01 -2.750743e+00 -2.567212e+02
    endloop
  endfacet
  facet normal 9.718116e-01 -2.357589e-01 6.910068e-16
    outer loop
      vertex   1.148260e+01 -2.750743e+00 -2.617212e+02
      vertex   1.148260e+01 -2.750743e+00 -2.567212e+02
      vertex   1.119767e+01 -3.925256e+00 -2.617212e+02
    endloop
  endfacet
  facet normal 9.718116e-01 -2.357589e-01 6.700672e-16
    outer loop
      vertex   1.119767e+01 -3.925256e+00 -2.617212e+02
      vertex   1.148260e+01 -2.750743e+00 -2.567212e+02
      vertex   1.119767e+01 -3.925256e+00 -2.567212e+02
    endloop
  endfacet
  facet normal 9.450008e-01 -3.270680e-01 9.295831e-16
    outer loop
      vertex   1.119767e+01 -3.925256e+00 -2.617212e+02
      vertex   1.119767e+01 -3.925256e+00 -2.567212e+02
      vertex   1.080238e+01 -5.067365e+00 -2.617212e+02
    endloop
  endfacet
  facet normal 9.450008e-01 -3.270680e-01 9.295831e-16
    outer loop
      vertex   1.080238e+01 -5.067365e+00 -2.617212e+02
      vertex   1.119767e+01 -3.925256e+00 -2.567212e+02
      vertex   1.080238e+01 -5.067365e+00 -2.567212e+02
    endloop
  endfacet
  facet normal 9.096320e-01 -4.154150e-01 1.180680e-15
    outer loop
      vertex   1.080238e+01 -5.067365e+00 -2.617212e+02
      vertex   1.080238e+01 -5.067365e+00 -2.567212e+02
      vertex   1.030032e+01 -6.166729e+00 -2.617212e+02
    endloop
  endfacet
  facet normal 9.096320e-01 -4.154150e-01 1.180680e-15
    outer loop
      vertex   1.030032e+01 -6.166729e+00 -2.617212e+02
      vertex   1.080238e+01 -5.067365e+00 -2.567212e+02
      vertex   1.030032e+01 -6.166729e+00 -2.567212e+02
    endloop
  endfacet
  facet normal 8.660254e-01 -5.000000e-01 1.421085e-15
    outer loop
      vertex   1.030032e+01 -6.166729e+00 -2.617212e+02
      vertex   1.030032e+01 -6.166729e+00 -2.567212e+02
      vertex   9.696026e+00 -7.213391e+00 -2.617212e+02
    endloop
  endfacet
  facet normal 8.660254e-01 -5.000000e-01 1.421085e-15
    outer loop
      vertex   9.696026e+00 -7.213391e+00 -2.617212e+02
      vertex   1.030032e+01 -6.166729e+00 -2.567212e+02
      vertex   9.696026e+00 -7.213391e+00 -2.567212e+02
    endloop
  endfacet
  facet normal 8.145760e-01 -5.800569e-01 1.648621e-15
    outer loop
      vertex   9.696026e+00 -7.213391e+00 -2.617212e+02
      vertex   9.696026e+00 -7.213391e+00 -2.567212e+02
      vertex   8.994980e+00 -8.197871e+00 -2.617212e+02
    endloop
  endfacet
  facet normal 8.145760e-01 -5.800569e-01 1.648621e-15
    outer loop
      vertex   8.994980e+00 -8.197871e+00 -2.617212e+02
      vertex   9.696026e+00 -7.213391e+00 -2.567212e+02
      vertex   8.994980e+00 -8.197871e+00 -2.567212e+02
    endloop
  endfacet
  facet normal 7.557496e-01 -6.548607e-01 1.861226e-15
    outer loop
      vertex   8.994980e+00 -8.197871e+00 -2.617212e+02
      vertex   8.994980e+00 -8.197871e+00 -2.567212e+02
      vertex   8.203528e+00 -9.111256e+00 -2.617212e+02
    endloop
  endfacet
  facet normal 7.557496e-01 -6.548607e-01 2.326533e-15
    outer loop
      vertex   8.203528e+00 -9.111256e+00 -2.617212e+02
      vertex   8.994980e+00 -8.197871e+00 -2.567212e+02
      vertex   8.203528e+00 -9.111256e+00 -2.567212e+02
    endloop
  endfacet
  facet normal 6.900790e-01 -7.237340e-01 2.571220e-15
    outer loop
      vertex   8.203528e+00 -9.111256e+00 -2.617212e+02
      vertex   8.203528e+00 -9.111256e+00 -2.567212e+02
      vertex   7.328837e+00 -9.945272e+00 -2.617212e+02
    endloop
  endfacet
  facet normal 6.900790e-01 -7.237340e-01 2.056976e-15
    outer loop
      vertex   7.328837e+00 -9.945272e+00 -2.617212e+02
      vertex   8.203528e+00 -9.111256e+00 -2.567212e+02
      vertex   7.328837e+00 -9.945272e+00 -2.567212e+02
    endloop
  endfacet
  facet normal 6.181590e-01 -7.860531e-01 2.234097e-15
    outer loop
      vertex   7.328837e+00 -9.945272e+00 -2.617212e+02
      vertex   7.328837e+00 -9.945272e+00 -2.567212e+02
      vertex   6.378829e+00 -1.069237e+01 -2.617212e+02
    endloop
  endfacet
  facet normal 6.181590e-01 -7.860531e-01 2.234097e-15
    outer loop
      vertex   6.378829e+00 -1.069237e+01 -2.617212e+02
      vertex   7.328837e+00 -9.945272e+00 -2.567212e+02
      vertex   6.378829e+00 -1.069237e+01 -2.567212e+02
    endloop
  endfacet
  facet normal 5.406408e-01 -8.412535e-01 2.390986e-15
    outer loop
      vertex   6.378829e+00 -1.069237e+01 -2.617212e+02
      vertex   6.378829e+00 -1.069237e+01 -2.567212e+02
      vertex   5.362106e+00 -1.134577e+01 -2.617212e+02
    endloop
  endfacet
  facet normal 5.406408e-01 -8.412535e-01 1.793240e-15
    outer loop
      vertex   5.362106e+00 -1.134577e+01 -2.617212e+02
      vertex   6.378829e+00 -1.069237e+01 -2.567212e+02
      vertex   5.362106e+00 -1.134577e+01 -2.567212e+02
    endloop
  endfacet
  facet normal 4.582265e-01 -8.888354e-01 1.894667e-15
    outer loop
      vertex   5.362106e+00 -1.134577e+01 -2.617212e+02
      vertex   5.362106e+00 -1.134577e+01 -2.567212e+02
      vertex   4.287877e+00 -1.189958e+01 -2.617212e+02
    endloop
  endfacet
  facet normal 4.582265e-01 -8.888354e-01 2.526222e-15
    outer loop
      vertex   4.287877e+00 -1.189958e+01 -2.617212e+02
      vertex   5.362106e+00 -1.134577e+01 -2.567212e+02
      vertex   4.287877e+00 -1.189958e+01 -2.567212e+02
    endloop
  endfacet
  facet normal 3.716625e-01 -9.283679e-01 2.638580e-15
    outer loop
      vertex   4.287877e+00 -1.189958e+01 -2.617212e+02
      vertex   4.287877e+00 -1.189958e+01 -2.567212e+02
      vertex   3.165869e+00 -1.234876e+01 -2.617212e+02
    endloop
  endfacet
  facet normal 3.716625e-01 -9.283679e-01 2.638580e-15
    outer loop
      vertex   3.165869e+00 -1.234876e+01 -2.617212e+02
      vertex   4.287877e+00 -1.189958e+01 -2.567212e+02
      vertex   3.165869e+00 -1.234876e+01 -2.567212e+02
    endloop
  endfacet
  facet normal 2.817326e-01 -9.594930e-01 2.727043e-15
    outer loop
      vertex   3.165869e+00 -1.234876e+01 -2.617212e+02
      vertex   3.165869e+00 -1.234876e+01 -2.567212e+02
      vertex   2.006244e+00 -1.268926e+01 -2.617212e+02
    endloop
  endfacet
  facet normal 2.817326e-01 -9.594930e-01 2.727043e-15
    outer loop
      vertex   2.006244e+00 -1.268926e+01 -2.617212e+02
      vertex   3.165869e+00 -1.234876e+01 -2.567212e+02
      vertex   2.006244e+00 -1.268926e+01 -2.567212e+02
    endloop
  endfacet
  facet normal 1.892512e-01 -9.819287e-01 2.790809e-15
    outer loop
      vertex   2.006244e+00 -1.268926e+01 -2.617212e+02
      vertex   2.006244e+00 -1.268926e+01 -2.567212e+02
      vertex   8.195045e-01 -1.291798e+01 -2.617212e+02
    endloop
  endfacet
  facet normal 1.892512e-01 -9.819287e-01 2.790809e-15
    outer loop
      vertex   8.195045e-01 -1.291798e+01 -2.617212e+02
      vertex   2.006244e+00 -1.268926e+01 -2.567212e+02
      vertex   8.195045e-01 -1.291798e+01 -2.567212e+02
    endloop
  endfacet
  facet normal 9.505604e-02 -9.954719e-01 2.829301e-15
    outer loop
      vertex   8.195045e-01 -1.291798e+01 -2.617212e+02
      vertex   8.195045e-01 -1.291798e+01 -2.567212e+02
      vertex   -3.836037e-01 -1.303287e+01 -2.617212e+02
    endloop
  endfacet
  facet normal 9.505604e-02 -9.954719e-01 3.536627e-15
    outer loop
      vertex   -3.836037e-01 -1.303287e+01 -2.617212e+02
      vertex   8.195045e-01 -1.291798e+01 -2.567212e+02
      vertex   -3.836037e-01 -1.303287e+01 -2.567212e+02
    endloop
  endfacet
  facet normal 0.000000e+00 -1.000000e+00 3.552714e-15
    outer loop
      vertex   -3.836037e-01 -1.303287e+01 -2.617212e+02
      vertex   -3.836037e-01 -1.303287e+01 -2.567212e+02
      vertex   -1.592184e+00 -1.303287e+01 -2.617212e+02
    endloop
  endfacet
  facet normal 0.000000e+00 -1.000000e+00 3.552714e-15
    outer loop
      vertex   -1.592184e+00 -1.303287e+01 -2.617212e+02
      vertex   -3.836037e-01 -1.303287e+01 -2.567212e+02
      vertex   -1.592184e+00 -1.303287e+01 -2.567212e+02
    endloop
  endfacet
  facet normal -9.505604e-02 -9.954719e-01 3.536627e-15
    outer loop
      vertex   -1.592184e+00 -1.303287e+01 -2.617212e+02
      vertex   -1.592184e+00 -1.303287e+01 -2.567212e+02
      vertex   -2.795292e+00 -1.291798e+01 -2.617212e+02
    endloop
  endfacet
  facet normal -9.505604e-02 -9.954719e-01 3.536627e-15
    outer loop
      vertex   -2.795292e+00 -1.291798e+01 -2.617212e+02
      vertex   -1.592184e+00 -1.303287e+01 -2.567212e+02
      vertex   -2.795292e+00 -1.291798e+01 -2.567212e+02
    endloop
  endfacet
  facet normal -1.892512e-01 -9.819287e-01 3.488512e-15
    outer loop
      vertex   -2.795292e+00 -1.291798e+01 -2.617212e+02
      vertex   -2.795292e+00 -1.291798e+01 -2.567212e+02
      vertex   -3.982032e+00 -1.268926e+01 -2.617212e+02
    endloop
  endfacet
  facet normal -1.892512e-01 -9.819287e-01 3.488512e-15
    outer loop
      vertex   -3.982032e+00 -1.268926e+01 -2.617212e+02
      vertex   -2.795292e+00 -1.291798e+01 -2.567212e+02
      vertex   -3.982032e+00 -1.268926e+01 -2.567212e+02
    endloop
  endfacet
  facet normal -2.817326e-01 -9.594930e-01 3.408804e-15
    outer loop
      vertex   -3.982032e+00 -1.268926e+01 -2.617212e+02
      vertex   -3.982032e+00 -1.268926e+01 -2.567212e+02
      vertex   -5.141657e+00 -1.234876e+01 -2.617212e+02
    endloop
  endfacet
  facet normal -2.817326e-01 -9.594930e-01 2.727043e-15
    outer loop
      vertex   -5.141657e+00 -1.234876e+01 -2.617212e+02
      vertex   -3.982032e+00 -1.268926e+01 -2.567212e+02
      vertex   -5.141657e+00 -1.234876e+01 -2.567212e+02
    endloop
  endfacet
  facet normal -3.716625e-01 -9.283679e-01 2.638580e-15
    outer loop
      vertex   -5.141657e+00 -1.234876e+01 -2.617212e+02
      vertex   -5.141657e+00 -1.234876e+01 -2.567212e+02
      vertex   -6.263665e+00 -1.189958e+01 -2.617212e+02
    endloop
  endfacet
  facet normal -3.716625e-01 -9.283679e-01 2.638580e-15
    outer loop
      vertex   -6.263665e+00 -1.189958e+01 -2.617212e+02
      vertex   -5.141657e+00 -1.234876e+01 -2.567212e+02
      vertex   -6.263665e+00 -1.189958e+01 -2.567212e+02
    endloop
  endfacet
  facet normal -4.582265e-01 -8.888354e-01 2.526222e-15
    outer loop
      vertex   -6.263665e+00 -1.189958e+01 -2.617212e+02
      vertex   -6.263665e+00 -1.189958e+01 -2.567212e+02
      vertex   -7.337894e+00 -1.134577e+01 -2.617212e+02
    endloop
  endfacet
  facet normal -4.582265e-01 -8.888354e-01 3.157778e-15
    outer loop
      vertex   -7.337894e+00 -1.134577e+01 -2.617212e+02
      vertex   -6.263665e+00 -1.189958e+01 -2.567212e+02
      vertex   -7.337894e+00 -1.134577e+01 -2.567212e+02
    endloop
  endfacet
  facet normal -5.406408e-01 -8.412535e-01 2.988733e-15
    outer loop
      vertex   -7.337894e+00 -1.134577e+01 -2.617212e+02
      vertex   -7.337894e+00 -1.134577e+01 -2.567212e+02
      vertex   -8.354617e+00 -1.069237e+01 -2.617212e+02
    endloop
  endfacet
  facet normal -5.406408e-01 -8.412535e-01 2.390986e-15
    outer loop
      vertex   -8.354617e+00 -1.069237e+01 -2.617212e+02
      vertex   -7.337894e+00 -1.134577e+01 -2.567212e+02
      vertex   -8.354617e+00 -1.069237e+01 -2.567212e+02
    endloop
  endfacet
  facet normal -6.181590e-01 -7.860531e-01 2.234097e-15
    outer loop
      vertex   -8.354617e+00 -1.069237e+01 -2.617212e+02
      vertex   -8.354617e+00 -1.069237e+01 -2.567212e+02
      vertex   -9.304625e+00 -9.945272e+00 -2.617212e+02
    endloop
  endfacet
  facet normal -6.181590e-01 -7.860531e-01 2.234097e-15
    outer loop
      vertex   -9.304625e+00 -9.945272e+00 -2.617212e+02
      vertex   -8.354617e+00 -1.069237e+01 -2.567212e+02
      vertex   -9.304625e+00 -9.945272e+00 -2.567212e+02
    endloop
  endfacet
  facet normal -6.900790e-01 -7.237340e-01 2.056976e-15
    outer loop
      vertex   -9.304625e+00 -9.945272e+00 -2.617212e+02
      vertex   -9.304625e+00 -9.945272e+00 -2.567212e+02
      vertex   -1.017932e+01 -9.111256e+00 -2.617212e+02
    endloop
  endfacet
  facet normal -6.900790e-01 -7.237340e-01 2.056976e-15
    outer loop
      vertex   -1.017932e+01 -9.111256e+00 -2.617212e+02
      vertex   -9.304625e+00 -9.945272e+00 -2.567212e+02
      vertex   -1.017932e+01 -9.111256e+00 -2.567212e+02
    endloop
  endfacet
  facet normal -7.557496e-01 -6.548607e-01 1.861226e-15
    outer loop
      vertex   -1.017932e+01 -9.111256e+00 -2.617212e+02
      vertex   -1.017932e+01 -9.111256e+00 -2.567212e+02
      vertex   -1.097077e+01 -8.197871e+00 -2.617212e+02
    endloop
  endfacet
  facet normal -7.557496e-01 -6.548607e-01 2.093879e-15
    outer loop
      vertex   -1.097077e+01 -8.197871e+00 -2.617212e+02
      vertex   -1.017932e+01 -9.111256e+00 -2.567212e+02
      vertex   -1.097077e+01 -8.197871e+00 -2.567212e+02
    endloop
  endfacet
  facet normal -8.145760e-01 -5.800569e-01 1.854699e-15
    outer loop
      vertex   -1.097077e+01 -8.197871e+00 -2.617212e+02
      vertex   -1.097077e+01 -8.197871e+00 -2.567212e+02
      vertex   -1.167181e+01 -7.213391e+00 -2.617212e+02
    endloop
  endfacet
  facet normal -8.145760e-01 -5.800569e-01 1.854699e-15
    outer loop
      vertex   -1.167181e+01 -7.213391e+00 -2.617212e+02
      vertex   -1.097077e+01 -8.197871e+00 -2.567212e+02
      vertex   -1.167181e+01 -7.213391e+00 -2.567212e+02
    endloop
  endfacet
  facet normal -8.660254e-01 -5.000000e-01 1.598721e-15
    outer loop
      vertex   -1.167181e+01 -7.213391e+00 -2.617212e+02
      vertex   -1.167181e+01 -7.213391e+00 -2.567212e+02
      vertex   -1.227610e+01 -6.166729e+00 -2.617212e+02
    endloop
  endfacet
  facet normal -8.660254e-01 -5.000000e-01 1.509903e-15
    outer loop
      vertex   -1.227610e+01 -6.166729e+00 -2.617212e+02
      vertex   -1.167181e+01 -7.213391e+00 -2.567212e+02
      vertex   -1.227610e+01 -6.166729e+00 -2.567212e+02
    endloop
  endfacet
  facet normal -9.096320e-01 -4.154150e-01 1.254473e-15
    outer loop
      vertex   -1.227610e+01 -6.166729e+00 -2.617212e+02
      vertex   -1.227610e+01 -6.166729e+00 -2.567212e+02
      vertex   -1.277817e+01 -5.067365e+00 -2.617212e+02
    endloop
  endfacet
  facet normal -9.096320e-01 -4.154150e-01 1.180680e-15
    outer loop
      vertex   -1.277817e+01 -5.067365e+00 -2.617212e+02
      vertex   -1.227610e+01 -6.166729e+00 -2.567212e+02
      vertex   -1.277817e+01 -5.067365e+00 -2.567212e+02
    endloop
  endfacet
  facet normal -9.450008e-01 -3.270680e-01 9.295831e-16
    outer loop
      vertex   -1.277817e+01 -5.067365e+00 -2.617212e+02
      vertex   -1.277817e+01 -5.067365e+00 -2.567212e+02
      vertex   -1.317345e+01 -3.925256e+00 -2.617212e+02
    endloop
  endfacet
  facet normal -9.450008e-01 -3.270680e-01 9.586325e-16
    outer loop
      vertex   -1.317345e+01 -3.925256e+00 -2.617212e+02
      vertex   -1.277817e+01 -5.067365e+00 -2.567212e+02
      vertex   -1.317345e+01 -3.925256e+00 -2.567212e+02
    endloop
  endfacet
  facet normal -9.718116e-01 -2.357589e-01 6.910068e-16
    outer loop
      vertex   -1.317345e+01 -3.925256e+00 -2.617212e+02
      vertex   -1.317345e+01 -3.925256e+00 -2.567212e+02
      vertex   -1.345839e+01 -2.750743e+00 -2.617212e+02
    endloop
  endfacet
  facet normal -9.718116e-01 -2.357589e-01 6.910068e-16
    outer loop
      vertex   -1.345839e+01 -2.750743e+00 -2.617212e+02
      vertex   -1.317345e+01 -3.925256e+00 -2.567212e+02
      vertex   -1.345839e+01 -2.750743e+00 -2.567212e+02
    endloop
  endfacet
  facet normal -9.898214e-01 -1.423148e-01 4.171232e-16
    outer loop
      vertex   -1.345839e+01 -2.750743e+00 -2.617212e+02
      vertex   -1.345839e+01 -2.750743e+00 -2.567212e+02
      vertex   -1.363039e+01 -1.554464e+00 -2.617212e+02
    endloop
  endfacet
  facet normal -9.898214e-01 -1.423148e-01 4.234432e-16
    outer loop
      vertex   -1.363039e+01 -1.554464e+00 -2.617212e+02
      vertex   -1.345839e+01 -2.750743e+00 -2.567212e+02
      vertex   -1.363039e+01 -1.554464e+00 -2.567212e+02
    endloop
  endfacet
  facet normal 0.000000e+00 -0.000000e+00 -1.000000e+00
    outer loop
      vertex   -1.363039e+01 8.599596e-01 -2.617212e+02
      vertex   1.165460e+01 8.599596e-01 -2.617212e+02
      vertex   -1.368789e+01 -3.472522e-01 -2.617212e+02
    endloop
  endfacet
  facet normal 0.000000e+00 0.000000e+00 -1.000000e+00
    outer loop
      vertex   -1.368789e+01 -3.472522e-01 -2.617212e+02
      vertex   1.165460e+01 8.599596e-01 -2.617212e+02
      vertex   1.171211e+01 -3.472522e-01 -2.617212e+02
    endloop
  endfacet
  facet normal 0.000000e+00 0.000000e+00 -1.000000e+00
    outer loop
      vertex   -1.368789e+01 -3.472522e-01 -2.617212e+02
      vertex   1.171211e+01 -3.472522e-01 -2.617212e+02
      vertex   -1.363039e+01 -1.554464e+00 -2.617212e+02
    endloop
  endfacet
  facet normal 0.000000e+00 0.000000e+00 -1.000000e+00
    outer loop
      vertex   -1.363039e+01 -1.554464e+00 -2.617212e+02
      vertex   1.171211e+01 -3.472522e-01 -2.617212e+02
      vertex   1.165460e+01 -1.554464e+00 -2.617212e+02
    endloop
  endfacet
  facet normal 0.000000e+00 0.000000e+00 -1.000000e+00
    outer loop
      vertex   -1.363039e+01 -1.554464e+00 -2.617212e+02
      vertex   1.165460e+01 -1.554464e+00 -2.617212e+02
      vertex   -1.345839e+01 -2.750743e+00 -2.617212e+02
    endloop
  endfacet
  facet normal 0.000000e+00 0.000000e+00 -1.000000e+00
    outer loop
      vertex   -1.345839e+01 -2.750743e+00 -2.617212e+02
      vertex   1.165460e+01 -1.554464e+00 -2.617212e+02
      vertex   1.148260e+01 -2.750743e+00 -2.617212e+02
    endloop
  endfacet
  facet normal 0.000000e+00 0.000000e+00 -1.000000e+00
    outer loop
      vertex   -1.345839e+01 -2.750743e+00 -2.617212e+02
      vertex   1.148260e+01 -2.750743e+00 -2.617212e+02
      vertex   -1.317345e+01 -3.925256e+00 -2.617212e+02
    endloop
  endfacet
  facet normal 0.000000e+00 0.000000e+00 -1.000000e+00
    outer loop
      vertex   -1.317345e+01 -3.925256e+00 -2.617212e+02
      vertex   1.148260e+01 -2.750743e+00 -2.617212e+02
      vertex   1.119767e+01 -3.925256e+00 -2.617212e+02
    endloop
  endfacet
  facet normal 0.000000e+00 0.000000e+00 -1.000000e+00
    outer loop
      vertex   -1.317345e+01 -3.925256e+00 -2.617212e+02
      vertex   1.119767e+01 -3.925256e+00 -2.617212e+02
      vertex   -1.277817e+01 -5.067365e+00 -2.617212e+02
    endloop
  endfacet
  facet normal 0.000000e+00 0.000000e+00 -1.000000e+00
    outer loop
      vertex   -1.277817e+01 -5.067365e+00 -2.617212e+02
      vertex   1.119767e+01 -3.925256e+00 -2.617212e+02
      vertex   1.080238e+01 -5.067365e+00 -2.617212e+02
    endloop
  endfacet
  facet normal 0.000000e+00 0.000000e+00 -1.000000e+00
    outer loop
      vertex   -1.277817e+01 -5.067365e+00 -2.617212e+02
      vertex   1.080238e+01 -5.067365e+00 -2.617212e+02
      vertex   -1.227610e+01 -6.166729e+00 -2.617212e+02
    endloop
  endfacet
  facet normal 0.000000e+00 0.000000e+00 -1.000000e+00
    outer loop
      vertex   -1.227610e+01 -6.166729e+00 -2.617212e+02
      vertex   1.080238e+01 -5.067365e+00 -2.617212e+02
      vertex   1.030032e+01 -6.166729e+00 -2.617212e+02
    endloop
  endfacet
  facet normal 0.000000e+00 0.000000e+00 -1.000000e+00
    outer loop
      vertex   -1.227610e+01 -6.166729e+00 -2.617212e+02
      vertex   1.030032e+01 -6.166729e+00 -2.617212e+02
      vertex   -1.167181e+01 -7.213391e+00 -2.617212e+02
    endloop
  endfacet
  facet normal 0.000000e+00 0.000000e+00 -1.000000e+00
    outer loop
      vertex   -1.167181e+01 -7.213391e+00 -2.617212e+02
      vertex   1.030032e+01 -6.166729e+00 -2.617212e+02
      vertex   9.696026e+00 -7.213391e+00 -2.617212e+02
    endloop
  endfacet
  facet normal 0.000000e+00 0.000000e+00 -1.000000e+00
    outer loop
      vertex   -1.167181e+01 -7.213391e+00 -2.617212e+02
      vertex   9.696026e+00 -7.213391e+00 -2.617212e+02
      vertex   -1.097077e+01 -8.197871e+00 -2.617212e+02
    endloop
  endfacet
  facet normal 0.000000e+00 0.000000e+00 -1.000000e+00
    outer loop
      vertex   -1.097077e+01 -8.197871e+00 -2.617212e+02
      vertex   9.696026e+00 -7.213391e+00 -2.617212e+02
      vertex   8.994980e+00 -8.197871e+00 -2.617212e+02
    endloop
  endfacet
  facet normal 0.000000e+00 0.000000e+00 -1.000000e+00
    outer loop
      vertex   -1.097077e+01 -8.197871e+00 -2.617212e+02
      vertex   8.994980e+00 -8.197871e+00 -2.617212e+02
      vertex   -1.017932e+01 -9.111256e+00 -2.617212e+02
    endloop
  endfacet
  facet normal 0.000000e+00 0.000000e+00 -1.000000e+00
    outer loop
      vertex   -1.017932e+01 -9.111256e+00 -2.617212e+02
      vertex   8.994980e+00 -8.197871e+00 -2.617212e+02
      vertex   8.203528e+00 -9.111256e+00 -2.617212e+02
    endloop
  endfacet
  facet normal 0.000000e+00 0.000000e+00 -1.000000e+00
    outer loop
      vertex   -1.017932e+01 -9.111256e+00 -2.617212e+02
      vertex   8.203528e+00 -9.111256e+00 -2.617212e+02
      vertex   -9.304625e+00 -9.945272e+00 -2.617212e+02
    endloop
  endfacet
  facet normal 0.000000e+00 0.000000e+00 -1.000000e+00
    outer loop
      vertex   -9.304625e+00 -9.945272e+00 -2.617212e+02
      vertex   8.203528e+00 -9.111256e+00 -2.617212e+02
      vertex   7.328837e+00 -9.945272e+00 -2.617212e+02
    endloop
  endfacet
  facet normal 0.000000e+00 0.000000e+00 -1.000000e+00
    outer loop
      vertex   -9.304625e+00 -9.945272e+00 -2.617212e+02
      vertex   7.328837e+00 -9.945272e+00 -2.617212e+02
      vertex   -8.354617e+00 -1.069237e+01 -2.617212e+02
    endloop
  endfacet
  facet normal 0.000000e+00 0.000000e+00 -1.000000e+00
    outer loop
      vertex   -8.354617e+00 -1.069237e+01 -2.617212e+02
      vertex   7.328837e+00 -9.945272e+00 -2.617212e+02
      vertex   6.378829e+00 -1.069237e+01 -2.617212e+02
    endloop
  endfacet
  facet normal 0.000000e+00 -8.699529e-14 -1.000000e+00
    outer loop
      vertex   -8.354617e+00 -1.069237e+01 -2.617212e+02
      vertex   6.378829e+00 -1.069237e+01 -2.617212e+02
      vertex   -7.337894e+00 -1.134577e+01 -2.617212e+02
    endloop
  endfacet
  facet normal 7.300851e-29 -8.699529e-14 -1.000000e+00
    outer loop
      vertex   -7.337894e+00 -1.134577e+01 -2.617212e+02
      vertex   6.378829e+00 -1.069237e+01 -2.617212e+02
      vertex   5.362106e+00 -1.134577e+01 -2.617212e+02
    endloop
  endfacet
  facet normal 0.000000e+00 0.000000e+00 -1.000000e+00
    outer loop
      vertex   -7.337894e+00 -1.134577e+01 -2.617212e+02
      vertex   5.362106e+00 -1.134577e+01 -2.617212e+02
      vertex   -6.263665e+00 -1.189958e+01 -2.617212e+02
    endloop
  endfacet
  facet normal 0.000000e+00 0.000000e+00 -1.000000e+00
    outer loop
      vertex   -6.263665e+00 -1.189958e+01 -2.617212e+02
      vertex   5.362106e+00 -1.134577e+01 -2.617212e+02
      vertex   4.287877e+00 -1.189958e+01 -2.617212e+02
    endloop
  endfacet
  facet normal 0.000000e+00 0.000000e+00 -1.000000e+00
    outer loop
      vertex   -6.263665e+00 -1.189958e+01 -2.617212e+02
      vertex   4.287877e+00 -1.189958e+01 -2.617212e+02
      vertex   -5.141657e+00 -1.234876e+01 -2.617212e+02
    endloop
  endfacet
  facet normal 0.000000e+00 0.000000e+00 -1.000000e+00
    outer loop
      vertex   -5.141657e+00 -1.234876e+01 -2.617212e+02
      vertex   4.287877e+00 -1.189958e+01 -2.617212e+02
      vertex   3.165869e+00 -1.234876e+01 -2.617212e+02
    endloop
  endfacet
  facet normal 0.000000e+00 0.000000e+00 -1.000000e+00
    outer loop
      vertex   -5.141657e+00 -1.234876e+01 -2.617212e+02
      vertex   3.165869e+00 -1.234876e+01 -2.617212e+02
      vertex   -3.982032e+00 -1.268926e+01 -2.617212e+02
    endloop
  endfacet
  facet normal 0.000000e+00 0.000000e+00 -1.000000e+00
    outer loop
      vertex   -3.982032e+00 -1.268926e+01 -2.617212e+02
      vertex   3.165869e+00 -1.234876e+01 -2.617212e+02
      vertex   2.006244e+00 -1.268926e+01 -2.617212e+02
    endloop
  endfacet
  facet normal 0.000000e+00 0.000000e+00 -1.000000e+00
    outer loop
      vertex   -3.982032e+00 -1.268926e+01 -2.617212e+02
      vertex   2.006244e+00 -1.268926e+01 -2.617212e+02
      vertex   -2.795292e+00 -1.291798e+01 -2.617212e+02
    endloop
  endfacet
  facet normal 0.000000e+00 0.000000e+00 -1.000000e+00
    outer loop
      vertex   -2.795292e+00 -1.291798e+01 -2.617212e+02
      vertex   2.006244e+00 -1.268926e+01 -2.617212e+02
      vertex   8.195045e-01 -1.291798e+01 -2.617212e+02
    endloop
  endfacet
  facet normal 0.000000e+00 0.000000e+00 -1.000000e+00
    outer loop
      vertex   -2.795292e+00 -1.291798e+01 -2.617212e+02
      vertex   8.195045e-01 -1.291798e+01 -2.617212e+02
      vertex   -1.592184e+00 -1.303287e+01 -2.617212e+02
    endloop
  endfacet
  facet normal 0.000000e+00 0.000000e+00 -1.000000e+00
    outer loop
      vertex   -1.592184e+00 -1.303287e+01 -2.617212e+02
      vertex   8.195045e-01 -1.291798e+01 -2.617212e+02
      vertex   -3.836037e-01 -1.303287e+01 -2.617212e+02
    endloop
  endfacet
  facet normal 0.000000e+00 0.000000e+00 -1.000000e+00
    outer loop
      vertex   1.165460e+01 8.599596e-01 -2.617212e+02
      vertex   -1.363039e+01 8.599596e-01 -2.617212e+02
      vertex   1.148260e+01 2.056239e+00 -2.617212e+02
    endloop
  endfacet
  facet normal -0.000000e+00 0.000000e+00 -1.000000e+00
    outer loop
      vertex   1.148260e+01 2.056239e+00 -2.617212e+02
      vertex   -1.363039e+01 8.599596e-01 -2.617212e+02
      vertex   -1.345839e+01 2.056239e+00 -2.617212e+02
    endloop
  endfacet
  facet normal 0.000000e+00 0.000000e+00 -1.000000e+00
    outer loop
      vertex   1.148260e+01 2.056239e+00 -2.617212e+02
      vertex   -1.345839e+01 2.056239e+00 -2.617212e+02
      vertex   1.119767e+01 3.230751e+00 -2.617212e+02
    endloop
  endfacet
  facet normal 0.000000e+00 0.000000e+00 -1.000000e+00
    outer loop
      vertex   1.119767e+01 3.230751e+00 -2.617212e+02
      vertex   -1.345839e+01 2.056239e+00 -2.617212e+02
      vertex   -1.317345e+01 3.230751e+00 -2.617212e+02
    endloop
  endfacet
  facet normal -0.000000e+00 0.000000e+00 -1.000000e+00
    outer loop
      vertex   1.119767e+01 3.230751e+00 -2.617212e+02
      vertex   -1.317345e+01 3.230751e+00 -2.617212e+02
      vertex   1.080238e+01 4.372861e+00 -2.617212e+02
    endloop
  endfacet
  facet normal -0.000000e+00 0.000000e+00 -1.000000e+00
    outer loop
      vertex   1.080238e+01 4.372861e+00 -2.617212e+02
      vertex   -1.317345e+01 3.230751e+00 -2.617212e+02
      vertex   -1.277817e+01 4.372861e+00 -2.617212e+02
    endloop
  endfacet
  facet normal 0.000000e+00 0.000000e+00 -1.000000e+00
    outer loop
      vertex   1.080238e+01 4.372861e+00 -2.617212e+02
      vertex   -1.277817e+01 4.372861e+00 -2.617212e+02
      vertex   1.030032e+01 5.472225e+00 -2.617212e+02
    endloop
  endfacet
  facet normal -0.000000e+00 0.000000e+00 -1.000000e+00
    outer loop
      vertex   1.030032e+01 5.472225e+00 -2.617212e+02
      vertex   -1.277817e+01 4.372861e+00 -2.617212e+02
      vertex   -1.227610e+01 5.472225e+00 -2.617212e+02
    endloop
  endfacet
  facet normal 0.000000e+00 0.000000e+00 -1.000000e+00
    outer loop
      vertex   1.030032e+01 5.472225e+00 -2.617212e+02
      vertex   -1.227610e+01 5.472225e+00 -2.617212e+02
      vertex   9.696026e+00 6.518886e+00 -2.617212e+02
    endloop
  endfacet
  facet normal -0.000000e+00 0.000000e+00 -1.000000e+00
    outer loop
      vertex   9.696026e+00 6.518886e+00 -2.617212e+02
      vertex   -1.227610e+01 5.472225e+00 -2.617212e+02
      vertex   -1.167181e+01 6.518886e+00 -2.617212e+02
    endloop
  endfacet
  facet normal 0.000000e+00 0.000000e+00 -1.000000e+00
    outer loop
      vertex   9.696026e+00 6.518886e+00 -2.617212e+02
      vertex   -1.167181e+01 6.518886e+00 -2.617212e+02
      vertex   8.994980e+00 7.503367e+00 -2.617212e+02
    endloop
  endfacet
  facet normal -0.000000e+00 0.000000e+00 -1.000000e+00
    outer loop
      vertex   8.994980e+00 7.503367e+00 -2.617212e+02
      vertex   -1.167181e+01 6.518886e+00 -2.617212e+02
      vertex   -1.097077e+01 7.503367e+00 -2.617212e+02
    endloop
  endfacet
  facet normal -0.000000e+00 -6.223385e-14 -1.000000e+00
    outer loop
      vertex   8.994980e+00 7.503367e+00 -2.617212e+02
      vertex   -1.097077e+01 7.503367e+00 -2.617212e+02
      vertex   8.203528e+00 8.416751e+00 -2.617212e+02
    endloop
  endfacet
  facet normal -0.000000e+00 -6.223385e-14 -1.000000e+00
    outer loop
      vertex   8.203528e+00 8.416751e+00 -2.617212e+02
      vertex   -1.097077e+01 7.503367e+00 -2.617212e+02
      vertex   -1.017932e+01 8.416751e+00 -2.617212e+02
    endloop
  endfacet
  facet normal 0.000000e+00 0.000000e+00 -1.000000e+00
    outer loop
      vertex   8.203528e+00 8.416751e+00 -2.617212e+02
      vertex   -1.017932e+01 8.416751e+00 -2.617212e+02
      vertex   7.328837e+00 9.250767e+00 -2.617212e+02
    endloop
  endfacet
  facet normal -0.000000e+00 0.000000e+00 -1.000000e+00
    outer loop
      vertex   7.328837e+00 9.250767e+00 -2.617212e+02
      vertex   -1.017932e+01 8.416751e+00 -2.617212e+02
      vertex   -9.304625e+00 9.250767e+00 -2.617212e+02
    endloop
  endfacet
  facet normal 0.000000e+00 0.000000e+00 -1.000000e+00
    outer loop
      vertex   7.328837e+00 9.250767e+00 -2.617212e+02
      vertex   -9.304625e+00 9.250767e+00 -2.617212e+02
      vertex   6.378829e+00 9.997862e+00 -2.617212e+02
    endloop
  endfacet
  facet normal 0.000000e+00 0.000000e+00 -1.000000e+00
    outer loop
      vertex   6.378829e+00 9.997862e+00 -2.617212e+02
      vertex   -9.304625e+00 9.250767e+00 -2.617212e+02
      vertex   -8.354617e+00 9.997862e+00 -2.617212e+02
    endloop
  endfacet
  facet normal -0.000000e+00 0.000000e+00 -1.000000e+00
    outer loop
      vertex   6.378829e+00 9.997862e+00 -2.617212e+02
      vertex   -8.354617e+00 9.997862e+00 -2.617212e+02
      vertex   5.362106e+00 1.065127e+01 -2.617212e+02
    endloop
  endfacet
  facet normal 0.000000e+00 0.000000e+00 -1.000000e+00
    outer loop
      vertex   5.362106e+00 1.065127e+01 -2.617212e+02
      vertex   -8.354617e+00 9.997862e+00 -2.617212e+02
      vertex   -7.337894e+00 1.065127e+01 -2.617212e+02
    endloop
  endfacet
  facet normal -0.000000e+00 0.000000e+00 -1.000000e+00
    outer loop
      vertex   5.362106e+00 1.065127e+01 -2.617212e+02
      vertex   -7.337894e+00 1.065127e+01 -2.617212e+02
      vertex   4.287877e+00 1.120507e+01 -2.617212e+02
    endloop
  endfacet
  facet normal 0.000000e+00 0.000000e+00 -1.000000e+00
    outer loop
      vertex   4.287877e+00 1.120507e+01 -2.617212e+02
      vertex   -7.337894e+00 1.065127e+01 -2.617212e+02
      vertex   -6.263665e+00 1.120507e+01 -2.617212e+02
    endloop
  endfacet
  facet normal -0.000000e+00 0.000000e+00 -1.000000e+00
    outer loop
      vertex   4.287877e+00 1.120507e+01 -2.617212e+02
      vertex   -6.263665e+00 1.120507e+01 -2.617212e+02
      vertex   3.165869e+00 1.165426e+01 -2.617212e+02
    endloop
  endfacet
  facet normal -0.000000e+00 0.000000e+00 -1.000000e+00
    outer loop
      vertex   3.165869e+00 1.165426e+01 -2.617212e+02
      vertex   -6.263665e+00 1.120507e+01 -2.617212e+02
      vertex   -5.141657e+00 1.165426e+01 -2.617212e+02
    endloop
  endfacet
  facet normal 0.000000e+00 0.000000e+00 -1.000000e+00
    outer loop
      vertex   3.165869e+00 1.165426e+01 -2.617212e+02
      vertex   -5.141657e+00 1.165426e+01 -2.617212e+02
      vertex   2.006244e+00 1.199475e+01 -2.617212e+02
    endloop
  endfacet
  facet normal -0.000000e+00 0.000000e+00 -1.000000e+00
    outer loop
      vertex   2.006244e+00 1.199475e+01 -2.617212e+02
      vertex   -5.141657e+00 1.165426e+01 -2.617212e+02
      vertex   -3.982032e+00 1.199475e+01 -2.617212e+02
    endloop
  endfacet
  facet normal 0.000000e+00 0.000000e+00 -1.000000e+00
    outer loop
      vertex   2.006244e+00 1.199475e+01 -2.617212e+02
      vertex   -3.982032e+00 1.199475e+01 -2.617212e+02
      vertex   8.195045e-01 1.222348e+01 -2.617212e+02
    endloop
  endfacet
  facet normal -0.000000e+00 0.000000e+00 -1.000000e+00
    outer loop
      vertex   8.195045e-01 1.222348e+01 -2.617212e+02
      vertex   -3.982032e+00 1.199475e+01 -2.617212e+02
      vertex   -2.795292e+00 1.222348e+01 -2.617212e+02
    endloop
  endfacet
  facet normal 0.000000e+00 0.000000e+00 -1.000000e+00
    outer loop
      vertex   8.195045e-01 1.222348e+01 -2.617212e+02
      vertex   -2.795292e+00 1.222348e+01 -2.617212e+02
      vertex   -3.836037e-01 1.233836e+01 -2.617212e+02
    endloop
  endfacet
  facet normal -0.000000e+00 0.000000e+00 -1.000000e+00
    outer loop
      vertex   -3.836037e-01 1.233836e+01 -2.617212e+02
      vertex   -2.795292e+00 1.222348e+01 -2.617212e+02
      vertex   -1.592184e+00 1.233836e+01 -2.617212e+02
    endloop
  endfacet
  facet normal 0.000000e+00 -0.000000e+00 1.000000e+00
    outer loop
      vertex   -1.363039e+01 -1.554464e+00 -2.567212e+02
      vertex   1.165460e+01 -1.554464e+00 -2.567212e+02
      vertex   -1.368789e+01 -3.472522e-01 -2.567212e+02
    endloop
  endfacet
  facet normal 0.000000e+00 0.000000e+00 1.000000e+00
    outer loop
      vertex   -1.368789e+01 -3.472522e-01 -2.567212e+02
      vertex   1.165460e+01 -1.554464e+00 -2.567212e+02
      vertex   1.171211e+01 -3.472522e-01 -2.567212e+02
    endloop
  endfacet
  facet normal -0.000000e+00 0.000000e+00 1.000000e+00
    outer loop
      vertex   -1.368789e+01 -3.472522e-01 -2.567212e+02
      vertex   1.171211e+01 -3.472522e-01 -2.567212e+02
      vertex   -1.363039e+01 8.599596e-01 -2.567212e+02
    endloop
  endfacet
  facet normal 0.000000e+00 0.000000e+00 1.000000e+00
    outer loop
      vertex   -1.363039e+01 8.599596e-01 -2.567212e+02
      vertex   1.171211e+01 -3.472522e-01 -2.567212e+02
      vertex   1.165460e+01 8.599596e-01 -2.567212e+02
    endloop
  endfacet
  facet normal -0.000000e+00 0.000000e+00 1.000000e+00
    outer loop
      vertex   -1.363039e+01 8.599596e-01 -2.567212e+02
      vertex   1.165460e+01 8.599596e-01 -2.567212e+02
      vertex   -1.345839e+01 2.056239e+00 -2.567212e+02
    endloop
  endfacet
  facet normal 0.000000e+00 0.000000e+00 1.000000e+00
    outer loop
      vertex   -1.345839e+01 2.056239e+00 -2.567212e+02
      vertex   1.165460e+01 8.599596e-01 -2.567212e+02
      vertex   1.148260e+01 2.056239e+00 -2.567212e+02
    endloop
  endfacet
  facet normal -0.000000e+00 0.000000e+00 1.000000e+00
    outer loop
      vertex   -1.345839e+01 2.056239e+00 -2.567212e+02
      vertex   1.148260e+01 2.056239e+00 -2.567212e+02
      vertex   -1.317345e+01 3.230751e+00 -2.567212e+02
    endloop
  endfacet
  facet normal -0.000000e+00 0.000000e+00 1.000000e+00
    outer loop
      vertex   -1.317345e+01 3.230751e+00 -2.567212e+02
      vertex   1.148260e+01 2.056239e+00 -2.567212e+02
      vertex   1.119767e+01 3.230751e+00 -2.567212e+02
    endloop
  endfacet
  facet normal 0.000000e+00 0.000000e+00 1.000000e+00
    outer loop
      vertex   -1.317345e+01 3.230751e+00 -2.567212e+02
      vertex   1.119767e+01 3.230751e+00 -2.567212e+02
      vertex   -1.277817e+01 4.372861e+00 -2.567212e+02
    endloop
  endfacet
  facet normal -0.000000e+00 0.000000e+00 1.000000e+00
    outer loop
      vertex   -1.277817e+01 4.372861e+00 -2.567212e+02
      vertex   1.119767e+01 3.230751e+00 -2.567212e+02
      vertex   1.080238e+01 4.372861e+00 -2.567212e+02
    endloop
  endfacet
  facet normal 0.000000e+00 0.000000e+00 1.000000e+00
    outer loop
      vertex   -1.277817e+01 4.372861e+00 -2.567212e+02
      vertex   1.080238e+01 4.372861e+00 -2.567212e+02
      vertex   -1.227610e+01 5.472225e+00 -2.567212e+02
    endloop
  endfacet
  facet normal 0.000000e+00 0.000000e+00 1.000000e+00
    outer loop
      vertex   -1.227610e+01 5.472225e+00 -2.567212e+02
      vertex   1.080238e+01 4.372861e+00 -2.567212e+02
      vertex   1.030032e+01 5.472225e+00 -2.567212e+02
    endloop
  endfacet
  facet normal -0.000000e+00 0.000000e+00 1.000000e+00
    outer loop
      vertex   -1.227610e+01 5.472225e+00 -2.567212e+02
      vertex   1.030032e+01 5.472225e+00 -2.567212e+02
      vertex   -1.167181e+01 6.518886e+00 -2.567212e+02
    endloop
  endfacet
  facet normal 0.000000e+00 0.000000e+00 1.000000e+00
    outer loop
      vertex   -1.167181e+01 6.518886e+00 -2.567212e+02
      vertex   1.030032e+01 5.472225e+00 -2.567212e+02
      vertex   9.696026e+00 6.518886e+00 -2.567212e+02
    endloop
  endfacet
  facet normal -0.000000e+00 0.000000e+00 1.000000e+00
    outer loop
      vertex   -1.167181e+01 6.518886e+00 -2.567212e+02
      vertex   9.696026e+00 6.518886e+00 -2.567212e+02
      vertex   -1.097077e+01 7.503367e+00 -2.567212e+02
    endloop
  endfacet
  facet normal 0.000000e+00 0.000000e+00 1.000000e+00
    outer loop
      vertex   -1.097077e+01 7.503367e+00 -2.567212e+02
      vertex   9.696026e+00 6.518886e+00 -2.567212e+02
      vertex   8.994980e+00 7.503367e+00 -2.567212e+02
    endloop
  endfacet
  facet normal -0.000000e+00 0.000000e+00 1.000000e+00
    outer loop
      vertex   -1.097077e+01 7.503367e+00 -2.567212e+02
      vertex   8.994980e+00 7.503367e+00 -2.567212e+02
      vertex   -1.017932e+01 8.416751e+00 -2.567212e+02
    endloop
  endfacet
  facet normal -0.000000e+00 0.000000e+00 1.000000e+00
    outer loop
      vertex   -1.017932e+01 8.416751e+00 -2.567212e+02
      vertex   8.994980e+00 7.503367e+00 -2.567212e+02
      vertex   8.203528e+00 8.416751e+00 -2.567212e+02
    endloop
  endfacet
  facet normal 0.000000e+00 0.000000e+00 1.000000e+00
    outer loop
      vertex   -1.017932e+01 8.416751e+00 -2.567212e+02
      vertex   8.203528e+00 8.416751e+00 -2.567212e+02
      vertex   -9.304625e+00 9.250767e+00 -2.567212e+02
    endloop
  endfacet
  facet normal -0.000000e+00 0.000000e+00 1.000000e+00
    outer loop
      vertex   -9.304625e+00 9.250767e+00 -2.567212e+02
      vertex   8.203528e+00 8.416751e+00 -2.567212e+02
      vertex   7.328837e+00 9.250767e+00 -2.567212e+02
    endloop
  endfacet
  facet normal -0.000000e+00 7.608593e-14 1.000000e+00
    outer loop
      vertex   -9.304625e+00 9.250767e+00 -2.567212e+02
      vertex   7.328837e+00 9.250767e+00 -2.567212e+02
      vertex   -8.354617e+00 9.997862e+00 -2.567212e+02
    endloop
  endfacet
  facet normal -0.000000e+00 7.608593e-14 1.000000e+00
    outer loop
      vertex   -8.354617e+00 9.997862e+00 -2.567212e+02
      vertex   7.328837e+00 9.250767e+00 -2.567212e+02
      vertex   6.378829e+00 9.997862e+00 -2.567212e+02
    endloop
  endfacet
  facet normal 0.000000e+00 0.000000e+00 1.000000e+00
    outer loop
      vertex   -8.354617e+00 9.997862e+00 -2.567212e+02
      vertex   6.378829e+00 9.997862e+00 -2.567212e+02
      vertex   -7.337894e+00 1.065127e+01 -2.567212e+02
    endloop
  endfacet
  facet normal -0.000000e+00 0.000000e+00 1.000000e+00
    outer loop
      vertex   -7.337894e+00 1.065127e+01 -2.567212e+02
      vertex   6.378829e+00 9.997862e+00 -2.567212e+02
      vertex   5.362106e+00 1.065127e+01 -2.567212e+02
    endloop
  endfacet
  facet normal 0.000000e+00 0.000000e+00 1.000000e+00
    outer loop
      vertex   -7.337894e+00 1.065127e+01 -2.567212e+02
      vertex   5.362106e+00 1.065127e+01 -2.567212e+02
      vertex   -6.263665e+00 1.120507e+01 -2.567212e+02
    endloop
  endfacet
  facet normal -0.000000e+00 0.000000e+00 1.000000e+00
    outer loop
      vertex   -6.263665e+00 1.120507e+01 -2.567212e+02
      vertex   5.362106e+00 1.065127e+01 -2.567212e+02
      vertex   4.287877e+00 1.120507e+01 -2.567212e+02
    endloop
  endfacet
  facet normal 0.000000e+00 0.000000e+00 1.000000e+00
    outer loop
      vertex   -6.263665e+00 1.120507e+01 -2.567212e+02
      vertex   4.287877e+00 1.120507e+01 -2.567212e+02
      vertex   -5.141657e+00 1.165426e+01 -2.567212e+02
    endloop
  endfacet
  facet normal -0.000000e+00 0.000000e+00 1.000000e+00
    outer loop
      vertex   -5.141657e+00 1.165426e+01 -2.567212e+02
      vertex   4.287877e+00 1.120507e+01 -2.567212e+02
      vertex   3.165869e+00 1.165426e+01 -2.567212e+02
    endloop
  endfacet
  facet normal 0.000000e+00 0.000000e+00 1.000000e+00
    outer loop
      vertex   -5.141657e+00 1.165426e+01 -2.567212e+02
      vertex   3.165869e+00 1.165426e+01 -2.567212e+02
      vertex   -3.982032e+00 1.199475e+01 -2.567212e+02
    endloop
  endfacet
  facet normal -0.000000e+00 0.000000e+00 1.000000e+00
    outer loop
      vertex   -3.982032e+00 1.199475e+01 -2.567212e+02
      vertex   3.165869e+00 1.165426e+01 -2.567212e+02
      vertex   2.006244e+00 1.199475e+01 -2.567212e+02
    endloop
  endfacet
  facet normal 0.000000e+00 0.000000e+00 1.000000e+00
    outer loop
      vertex   -3.982032e+00 1.199475e+01 -2.567212e+02
      vertex   2.006244e+00 1.199475e+01 -2.567212e+02
      vertex   -2.795292e+00 1.222348e+01 -2.567212e+02
    endloop
  endfacet
  facet normal -0.000000e+00 0.000000e+00 1.000000e+00
    outer loop
      vertex   -2.795292e+00 1.222348e+01 -2.567212e+02
      vertex   2.006244e+00 1.199475e+01 -2.567212e+02
      vertex   8.195045e-01 1.222348e+01 -2.567212e+02
    endloop
  endfacet
  facet normal 0.000000e+00 0.000000e+00 1.000000e+00
    outer loop
      vertex   -2.795292e+00 1.222348e+01 -2.567212e+02
      vertex   8.195045e-01 1.222348e+01 -2.567212e+02
      vertex   -1.592184e+00 1.233836e+01 -2.567212e+02
    endloop
  endfacet
  facet normal -0.000000e+00 0.000000e+00 1.000000e+00
    outer loop
      vertex   -1.592184e+00 1.233836e+01 -2.567212e+02
      vertex   8.195045e-01 1.222348e+01 -2.567212e+02
      vertex   -3.836037e-01 1.233836e+01 -2.567212e+02
    endloop
  endfacet
  facet normal 0.000000e+00 0.000000e+00 1.000000e+00
    outer loop
      vertex   1.165460e+01 -1.554464e+00 -2.567212e+02
      vertex   -1.363039e+01 -1.554464e+00 -2.567212e+02
      vertex   1.148260e+01 -2.750743e+00 -2.567212e+02
    endloop
  endfacet
  facet normal 0.000000e+00 0.000000e+00 1.000000e+00
    outer loop
      vertex   1.148260e+01 -2.750743e+00 -2.567212e+02
      vertex   -1.363039e+01 -1.554464e+00 -2.567212e+02
      vertex   -1.345839e+01 -2.750743e+00 -2.567212e+02
    endloop
  endfacet
  facet normal 0.000000e+00 0.000000e+00 1.000000e+00
    outer loop
      vertex   1.148260e+01 -2.750743e+00 -2.567212e+02
      vertex   -1.345839e+01 -2.750743e+00 -2.567212e+02
      vertex   1.119767e+01 -3.925256e+00 -2.567212e+02
    endloop
  endfacet
  facet normal 0.000000e+00 0.000000e+00 1.000000e+00
    outer loop
      vertex   1.119767e+01 -3.925256e+00 -2.567212e+02
      vertex   -1.345839e+01 -2.750743e+00 -2.567212e+02
      vertex   -1.317345e+01 -3.925256e+00 -2.567212e+02
    endloop
  endfacet
  facet normal 0.000000e+00 0.000000e+00 1.000000e+00
    outer loop
      vertex   1.119767e+01 -3.925256e+00 -2.567212e+02
      vertex   -1.317345e+01 -3.925256e+00 -2.567212e+02
      vertex   1.080238e+01 -5.067365e+00 -2.567212e+02
    endloop
  endfacet
  facet normal 0.000000e+00 0.000000e+00 1.000000e+00
    outer loop
      vertex   1.080238e+01 -5.067365e+00 -2.567212e+02
      vertex   -1.317345e+01 -3.925256e+00 -2.567212e+02
      vertex   -1.277817e+01 -5.067365e+00 -2.567212e+02
    endloop
  endfacet
  facet normal 0.000000e+00 0.000000e+00 1.000000e+00
    outer loop
      vertex   1.080238e+01 -5.067365e+00 -2.567212e+02
      vertex   -1.277817e+01 -5.067365e+00 -2.567212e+02
      vertex   1.030032e+01 -6.166729e+00 -2.567212e+02
    endloop
  endfacet
  facet normal 0.000000e+00 0.000000e+00 1.000000e+00
    outer loop
      vertex   1.030032e+01 -6.166729e+00 -2.567212e+02
      vertex   -1.277817e+01 -5.067365e+00 -2.567212e+02
      vertex   -1.227610e+01 -6.166729e+00 -2.567212e+02
    endloop
  endfacet
  facet normal 0.000000e+00 0.000000e+00 1.000000e+00
    outer loop
      vertex   1.030032e+01 -6.166729e+00 -2.567212e+02
      vertex   -1.227610e+01 -6.166729e+00 -2.567212e+02
      vertex   9.696026e+00 -7.213391e+00 -2.567212e+02
    endloop
  endfacet
  facet normal 0.000000e+00 0.000000e+00 1.000000e+00
    outer loop
      vertex   9.696026e+00 -7.213391e+00 -2.567212e+02
      vertex   -1.227610e+01 -6.166729e+00 -2.567212e+02
      vertex   -1.167181e+01 -7.213391e+00 -2.567212e+02
    endloop
  endfacet
  facet normal 0.000000e+00 0.000000e+00 1.000000e+00
    outer loop
      vertex   9.696026e+00 -7.213391e+00 -2.567212e+02
      vertex   -1.167181e+01 -7.213391e+00 -2.567212e+02
      vertex   8.994980e+00 -8.197871e+00 -2.567212e+02
    endloop
  endfacet
  facet normal 0.000000e+00 0.000000e+00 1.000000e+00
    outer loop
      vertex   8.994980e+00 -8.197871e+00 -2.567212e+02
      vertex   -1.167181e+01 -7.213391e+00 -2.567212e+02
      vertex   -1.097077e+01 -8.197871e+00 -2.567212e+02
    endloop
  endfacet
  facet normal 0.000000e+00 0.000000e+00 1.000000e+00
    outer loop
      vertex   8.994980e+00 -8.197871e+00 -2.567212e+02
      vertex   -1.097077e+01 -8.197871e+00 -2.567212e+02
      vertex   8.203528e+00 -9.111256e+00 -2.567212e+02
    endloop
  endfacet
  facet normal 0.000000e+00 0.000000e+00 1.000000e+00
    outer loop
      vertex   8.203528e+00 -9.111256e+00 -2.567212e+02
      vertex   -1.097077e+01 -8.197871e+00 -2.567212e+02
      vertex   -1.017932e+01 -9.111256e+00 -2.567212e+02
    endloop
  endfacet
  facet normal 0.000000e+00 0.000000e+00 1.000000e+00
    outer loop
      vertex   8.203528e+00 -9.111256e+00 -2.567212e+02
      vertex   -1.017932e+01 -9.111256e+00 -2.567212e+02
      vertex   7.328837e+00 -9.945272e+00 -2.567212e+02
    endloop
  endfacet
  facet normal 0.000000e+00 0.000000e+00 1.000000e+00
    outer loop
      vertex   7.328837e+00 -9.945272e+00 -2.567212e+02
      vertex   -1.017932e+01 -9.111256e+00 -2.567212e+02
      vertex   -9.304625e+00 -9.945272e+00 -2.567212e+02
    endloop
  endfacet
  facet normal -1.625107e-29 7.608593e-14 1.000000e+00
    outer loop
      vertex   7.328837e+00 -9.945272e+00 -2.567212e+02
      vertex   -9.304625e+00 -9.945272e+00 -2.567212e+02
      vertex   6.378829e+00 -1.069237e+01 -2.567212e+02
    endloop
  endfacet
  facet normal 0.000000e+00 7.608593e-14 1.000000e+00
    outer loop
      vertex   6.378829e+00 -1.069237e+01 -2.567212e+02
      vertex   -9.304625e+00 -9.945272e+00 -2.567212e+02
      vertex   -8.354617e+00 -1.069237e+01 -2.567212e+02
    endloop
  endfacet
  facet normal 0.000000e+00 0.000000e+00 1.000000e+00
    outer loop
      vertex   6.378829e+00 -1.069237e+01 -2.567212e+02
      vertex   -8.354617e+00 -1.069237e+01 -2.567212e+02
      vertex   5.362106e+00 -1.134577e+01 -2.567212e+02
    endloop
  endfacet
  facet normal 0.000000e+00 0.000000e+00 1.000000e+00
    outer loop
      vertex   5.362106e+00 -1.134577e+01 -2.567212e+02
      vertex   -8.354617e+00 -1.069237e+01 -2.567212e+02
      vertex   -7.337894e+00 -1.134577e+01 -2.567212e+02
    endloop
  endfacet
  facet normal 0.000000e+00 0.000000e+00 1.000000e+00
    outer loop
      vertex   5.362106e+00 -1.134577e+01 -2.567212e+02
      vertex   -7.337894e+00 -1.134577e+01 -2.567212e+02
      vertex   4.287877e+00 -1.189958e+01 -2.567212e+02
    endloop
  endfacet
  facet normal 0.000000e+00 0.000000e+00 1.000000e+00
    outer loop
      vertex   4.287877e+00 -1.189958e+01 -2.567212e+02
      vertex   -7.337894e+00 -1.134577e+01 -2.567212e+02
      vertex   -6.263665e+00 -1.189958e+01 -2.567212e+02
    endloop
  endfacet
  facet normal 0.000000e+00 0.000000e+00 1.000000e+00
    outer loop
      vertex   4.287877e+00 -1.189958e+01 -2.567212e+02
      vertex   -6.263665e+00 -1.189958e+01 -2.567212e+02
      vertex   3.165869e+00 -1.234876e+01 -2.567212e+02
    endloop
  endfacet
  facet normal 0.000000e+00 0.000000e+00 1.000000e+00
    outer loop
      vertex   3.165869e+00 -1.234876e+01 -2.567212e+02
      vertex   -6.263665e+00 -1.189958e+01 -2.567212e+02
      vertex   -5.141657e+00 -1.234876e+01 -2.567212e+02
    endloop
  endfacet
  facet normal 0.000000e+00 0.000000e+00 1.000000e+00
    outer loop
      vertex   3.165869e+00 -1.234876e+01 -2.567212e+02
      vertex   -5.141657e+00 -1.234876e+01 -2.567212e+02
      vertex   2.006244e+00 -1.268926e+01 -2.567212e+02
    endloop
  endfacet
  facet normal 0.000000e+00 0.000000e+00 1.000000e+00
    outer loop
      vertex   2.006244e+00 -1.268926e+01 -2.567212e+02
      vertex   -5.141657e+00 -1.234876e+01 -2.567212e+02
      vertex   -3.982032e+00 -1.268926e+01 -2.567212e+02
    endloop
  endfacet
  facet normal 0.000000e+00 0.000000e+00 1.000000e+00
    outer loop
      vertex   2.006244e+00 -1.268926e+01 -2.567212e+02
      vertex   -3.982032e+00 -1.268926e+01 -2.567212e+02
      vertex   8.195045e-01 -1.291798e+01 -2.567212e+02
    endloop
  endfacet
  facet normal 0.000000e+00 0.000000e+00 1.000000e+00
    outer loop
      vertex   8.195045e-01 -1.291798e+01 -2.567212e+02
      vertex   -3.982032e+00 -1.268926e+01 -2.567212e+02
      vertex   -2.795292e+00 -1.291798e+01 -2.567212e+02
    endloop
  endfacet
  facet normal 0.000000e+00 0.000000e+00 1.000000e+00
    outer loop
      vertex   8.195045e-01 -1.291798e+01 -2.567212e+02
      vertex   -2.795292e+00 -1.291798e+01 -2.567212e+02
      vertex   -3.836037e-01 -1.303287e+01 -2.567212e+02
    endloop
  endfacet
  facet normal 0.000000e+00 0.000000e+00 1.000000e+00
    outer loop
      vertex   -3.836037e-01 -1.303287e+01 -2.567212e+02
      vertex   -2.795292e+00 -1.291798e+01 -2.567212e+02
      vertex   -1.592184e+00 -1.303287e+01 -2.567212e+02
    endloop
  endfacet
endsolid
